G75*
%MOIN*%
%OFA0B0*%
%FSLAX24Y24*%
%IPPOS*%
%LPD*%
%AMOC8*
5,1,8,0,0,1.08239X$1,22.5*
%
%ADD10C,0.0000*%
%ADD11C,0.0022*%
D10*
X000100Y000100D02*
X000100Y039220D01*
X025592Y039220D01*
X025592Y000100D01*
X000100Y000100D01*
X005009Y003350D02*
X005011Y003398D01*
X005017Y003446D01*
X005027Y003493D01*
X005040Y003539D01*
X005058Y003584D01*
X005078Y003628D01*
X005103Y003670D01*
X005131Y003709D01*
X005161Y003746D01*
X005195Y003780D01*
X005232Y003812D01*
X005270Y003841D01*
X005311Y003866D01*
X005354Y003888D01*
X005399Y003906D01*
X005445Y003920D01*
X005492Y003931D01*
X005540Y003938D01*
X005588Y003941D01*
X005636Y003940D01*
X005684Y003935D01*
X005732Y003926D01*
X005778Y003914D01*
X005823Y003897D01*
X005867Y003877D01*
X005909Y003854D01*
X005949Y003827D01*
X005987Y003797D01*
X006022Y003764D01*
X006054Y003728D01*
X006084Y003690D01*
X006110Y003649D01*
X006132Y003606D01*
X006152Y003562D01*
X006167Y003517D01*
X006179Y003470D01*
X006187Y003422D01*
X006191Y003374D01*
X006191Y003326D01*
X006187Y003278D01*
X006179Y003230D01*
X006167Y003183D01*
X006152Y003138D01*
X006132Y003094D01*
X006110Y003051D01*
X006084Y003010D01*
X006054Y002972D01*
X006022Y002936D01*
X005987Y002903D01*
X005949Y002873D01*
X005909Y002846D01*
X005867Y002823D01*
X005823Y002803D01*
X005778Y002786D01*
X005732Y002774D01*
X005684Y002765D01*
X005636Y002760D01*
X005588Y002759D01*
X005540Y002762D01*
X005492Y002769D01*
X005445Y002780D01*
X005399Y002794D01*
X005354Y002812D01*
X005311Y002834D01*
X005270Y002859D01*
X005232Y002888D01*
X005195Y002920D01*
X005161Y002954D01*
X005131Y002991D01*
X005103Y003030D01*
X005078Y003072D01*
X005058Y003116D01*
X005040Y003161D01*
X005027Y003207D01*
X005017Y003254D01*
X005011Y003302D01*
X005009Y003350D01*
X019509Y003350D02*
X019511Y003398D01*
X019517Y003446D01*
X019527Y003493D01*
X019540Y003539D01*
X019558Y003584D01*
X019578Y003628D01*
X019603Y003670D01*
X019631Y003709D01*
X019661Y003746D01*
X019695Y003780D01*
X019732Y003812D01*
X019770Y003841D01*
X019811Y003866D01*
X019854Y003888D01*
X019899Y003906D01*
X019945Y003920D01*
X019992Y003931D01*
X020040Y003938D01*
X020088Y003941D01*
X020136Y003940D01*
X020184Y003935D01*
X020232Y003926D01*
X020278Y003914D01*
X020323Y003897D01*
X020367Y003877D01*
X020409Y003854D01*
X020449Y003827D01*
X020487Y003797D01*
X020522Y003764D01*
X020554Y003728D01*
X020584Y003690D01*
X020610Y003649D01*
X020632Y003606D01*
X020652Y003562D01*
X020667Y003517D01*
X020679Y003470D01*
X020687Y003422D01*
X020691Y003374D01*
X020691Y003326D01*
X020687Y003278D01*
X020679Y003230D01*
X020667Y003183D01*
X020652Y003138D01*
X020632Y003094D01*
X020610Y003051D01*
X020584Y003010D01*
X020554Y002972D01*
X020522Y002936D01*
X020487Y002903D01*
X020449Y002873D01*
X020409Y002846D01*
X020367Y002823D01*
X020323Y002803D01*
X020278Y002786D01*
X020232Y002774D01*
X020184Y002765D01*
X020136Y002760D01*
X020088Y002759D01*
X020040Y002762D01*
X019992Y002769D01*
X019945Y002780D01*
X019899Y002794D01*
X019854Y002812D01*
X019811Y002834D01*
X019770Y002859D01*
X019732Y002888D01*
X019695Y002920D01*
X019661Y002954D01*
X019631Y002991D01*
X019603Y003030D01*
X019578Y003072D01*
X019558Y003116D01*
X019540Y003161D01*
X019527Y003207D01*
X019517Y003254D01*
X019511Y003302D01*
X019509Y003350D01*
X019509Y034850D02*
X019511Y034898D01*
X019517Y034946D01*
X019527Y034993D01*
X019540Y035039D01*
X019558Y035084D01*
X019578Y035128D01*
X019603Y035170D01*
X019631Y035209D01*
X019661Y035246D01*
X019695Y035280D01*
X019732Y035312D01*
X019770Y035341D01*
X019811Y035366D01*
X019854Y035388D01*
X019899Y035406D01*
X019945Y035420D01*
X019992Y035431D01*
X020040Y035438D01*
X020088Y035441D01*
X020136Y035440D01*
X020184Y035435D01*
X020232Y035426D01*
X020278Y035414D01*
X020323Y035397D01*
X020367Y035377D01*
X020409Y035354D01*
X020449Y035327D01*
X020487Y035297D01*
X020522Y035264D01*
X020554Y035228D01*
X020584Y035190D01*
X020610Y035149D01*
X020632Y035106D01*
X020652Y035062D01*
X020667Y035017D01*
X020679Y034970D01*
X020687Y034922D01*
X020691Y034874D01*
X020691Y034826D01*
X020687Y034778D01*
X020679Y034730D01*
X020667Y034683D01*
X020652Y034638D01*
X020632Y034594D01*
X020610Y034551D01*
X020584Y034510D01*
X020554Y034472D01*
X020522Y034436D01*
X020487Y034403D01*
X020449Y034373D01*
X020409Y034346D01*
X020367Y034323D01*
X020323Y034303D01*
X020278Y034286D01*
X020232Y034274D01*
X020184Y034265D01*
X020136Y034260D01*
X020088Y034259D01*
X020040Y034262D01*
X019992Y034269D01*
X019945Y034280D01*
X019899Y034294D01*
X019854Y034312D01*
X019811Y034334D01*
X019770Y034359D01*
X019732Y034388D01*
X019695Y034420D01*
X019661Y034454D01*
X019631Y034491D01*
X019603Y034530D01*
X019578Y034572D01*
X019558Y034616D01*
X019540Y034661D01*
X019527Y034707D01*
X019517Y034754D01*
X019511Y034802D01*
X019509Y034850D01*
X005009Y034850D02*
X005011Y034898D01*
X005017Y034946D01*
X005027Y034993D01*
X005040Y035039D01*
X005058Y035084D01*
X005078Y035128D01*
X005103Y035170D01*
X005131Y035209D01*
X005161Y035246D01*
X005195Y035280D01*
X005232Y035312D01*
X005270Y035341D01*
X005311Y035366D01*
X005354Y035388D01*
X005399Y035406D01*
X005445Y035420D01*
X005492Y035431D01*
X005540Y035438D01*
X005588Y035441D01*
X005636Y035440D01*
X005684Y035435D01*
X005732Y035426D01*
X005778Y035414D01*
X005823Y035397D01*
X005867Y035377D01*
X005909Y035354D01*
X005949Y035327D01*
X005987Y035297D01*
X006022Y035264D01*
X006054Y035228D01*
X006084Y035190D01*
X006110Y035149D01*
X006132Y035106D01*
X006152Y035062D01*
X006167Y035017D01*
X006179Y034970D01*
X006187Y034922D01*
X006191Y034874D01*
X006191Y034826D01*
X006187Y034778D01*
X006179Y034730D01*
X006167Y034683D01*
X006152Y034638D01*
X006132Y034594D01*
X006110Y034551D01*
X006084Y034510D01*
X006054Y034472D01*
X006022Y034436D01*
X005987Y034403D01*
X005949Y034373D01*
X005909Y034346D01*
X005867Y034323D01*
X005823Y034303D01*
X005778Y034286D01*
X005732Y034274D01*
X005684Y034265D01*
X005636Y034260D01*
X005588Y034259D01*
X005540Y034262D01*
X005492Y034269D01*
X005445Y034280D01*
X005399Y034294D01*
X005354Y034312D01*
X005311Y034334D01*
X005270Y034359D01*
X005232Y034388D01*
X005195Y034420D01*
X005161Y034454D01*
X005131Y034491D01*
X005103Y034530D01*
X005078Y034572D01*
X005058Y034616D01*
X005040Y034661D01*
X005027Y034707D01*
X005017Y034754D01*
X005011Y034802D01*
X005009Y034850D01*
D11*
X003689Y034014D02*
X003211Y034014D01*
X003689Y034014D02*
X003689Y033786D01*
X003211Y033786D01*
X003211Y034014D01*
X003211Y033808D02*
X003689Y033808D01*
X003689Y033830D02*
X003211Y033830D01*
X003211Y033852D02*
X003689Y033852D01*
X003689Y033874D02*
X003211Y033874D01*
X003211Y033896D02*
X003689Y033896D01*
X003689Y033918D02*
X003211Y033918D01*
X003211Y033940D02*
X003689Y033940D01*
X003689Y033962D02*
X003211Y033962D01*
X003211Y033984D02*
X003689Y033984D01*
X003689Y034006D02*
X003211Y034006D01*
X002989Y034014D02*
X002511Y034014D01*
X002989Y034014D02*
X002989Y033786D01*
X002511Y033786D01*
X002511Y034014D01*
X002511Y033808D02*
X002989Y033808D01*
X002989Y033830D02*
X002511Y033830D01*
X002511Y033852D02*
X002989Y033852D01*
X002989Y033874D02*
X002511Y033874D01*
X002511Y033896D02*
X002989Y033896D01*
X002989Y033918D02*
X002511Y033918D01*
X002511Y033940D02*
X002989Y033940D01*
X002989Y033962D02*
X002511Y033962D01*
X002511Y033984D02*
X002989Y033984D01*
X002989Y034006D02*
X002511Y034006D01*
X002511Y033514D02*
X002989Y033514D01*
X002989Y033286D01*
X002511Y033286D01*
X002511Y033514D01*
X002511Y033308D02*
X002989Y033308D01*
X002989Y033330D02*
X002511Y033330D01*
X002511Y033352D02*
X002989Y033352D01*
X002989Y033374D02*
X002511Y033374D01*
X002511Y033396D02*
X002989Y033396D01*
X002989Y033418D02*
X002511Y033418D01*
X002511Y033440D02*
X002989Y033440D01*
X002989Y033462D02*
X002511Y033462D01*
X002511Y033484D02*
X002989Y033484D01*
X002989Y033506D02*
X002511Y033506D01*
X002511Y033014D02*
X002989Y033014D01*
X002989Y032786D01*
X002511Y032786D01*
X002511Y033014D01*
X002511Y032808D02*
X002989Y032808D01*
X002989Y032830D02*
X002511Y032830D01*
X002511Y032852D02*
X002989Y032852D01*
X002989Y032874D02*
X002511Y032874D01*
X002511Y032896D02*
X002989Y032896D01*
X002989Y032918D02*
X002511Y032918D01*
X002511Y032940D02*
X002989Y032940D01*
X002989Y032962D02*
X002511Y032962D01*
X002511Y032984D02*
X002989Y032984D01*
X002989Y033006D02*
X002511Y033006D01*
X002511Y032514D02*
X002989Y032514D01*
X002989Y032286D01*
X002511Y032286D01*
X002511Y032514D01*
X002511Y032308D02*
X002989Y032308D01*
X002989Y032330D02*
X002511Y032330D01*
X002511Y032352D02*
X002989Y032352D01*
X002989Y032374D02*
X002511Y032374D01*
X002511Y032396D02*
X002989Y032396D01*
X002989Y032418D02*
X002511Y032418D01*
X002511Y032440D02*
X002989Y032440D01*
X002989Y032462D02*
X002511Y032462D01*
X002511Y032484D02*
X002989Y032484D01*
X002989Y032506D02*
X002511Y032506D01*
X002511Y032014D02*
X002989Y032014D01*
X002989Y031786D01*
X002511Y031786D01*
X002511Y032014D01*
X002511Y031808D02*
X002989Y031808D01*
X002989Y031830D02*
X002511Y031830D01*
X002511Y031852D02*
X002989Y031852D01*
X002989Y031874D02*
X002511Y031874D01*
X002511Y031896D02*
X002989Y031896D01*
X002989Y031918D02*
X002511Y031918D01*
X002511Y031940D02*
X002989Y031940D01*
X002989Y031962D02*
X002511Y031962D01*
X002511Y031984D02*
X002989Y031984D01*
X002989Y032006D02*
X002511Y032006D01*
X002511Y031514D02*
X002989Y031514D01*
X002989Y031286D01*
X002511Y031286D01*
X002511Y031514D01*
X002511Y031308D02*
X002989Y031308D01*
X002989Y031330D02*
X002511Y031330D01*
X002511Y031352D02*
X002989Y031352D01*
X002989Y031374D02*
X002511Y031374D01*
X002511Y031396D02*
X002989Y031396D01*
X002989Y031418D02*
X002511Y031418D01*
X002511Y031440D02*
X002989Y031440D01*
X002989Y031462D02*
X002511Y031462D01*
X002511Y031484D02*
X002989Y031484D01*
X002989Y031506D02*
X002511Y031506D01*
X002511Y031014D02*
X002989Y031014D01*
X002989Y030786D01*
X002511Y030786D01*
X002511Y031014D01*
X002511Y030808D02*
X002989Y030808D01*
X002989Y030830D02*
X002511Y030830D01*
X002511Y030852D02*
X002989Y030852D01*
X002989Y030874D02*
X002511Y030874D01*
X002511Y030896D02*
X002989Y030896D01*
X002989Y030918D02*
X002511Y030918D01*
X002511Y030940D02*
X002989Y030940D01*
X002989Y030962D02*
X002511Y030962D01*
X002511Y030984D02*
X002989Y030984D01*
X002989Y031006D02*
X002511Y031006D01*
X002511Y030514D02*
X002989Y030514D01*
X002989Y030286D01*
X002511Y030286D01*
X002511Y030514D01*
X002511Y030308D02*
X002989Y030308D01*
X002989Y030330D02*
X002511Y030330D01*
X002511Y030352D02*
X002989Y030352D01*
X002989Y030374D02*
X002511Y030374D01*
X002511Y030396D02*
X002989Y030396D01*
X002989Y030418D02*
X002511Y030418D01*
X002511Y030440D02*
X002989Y030440D01*
X002989Y030462D02*
X002511Y030462D01*
X002511Y030484D02*
X002989Y030484D01*
X002989Y030506D02*
X002511Y030506D01*
X002511Y030014D02*
X002989Y030014D01*
X002989Y029786D01*
X002511Y029786D01*
X002511Y030014D01*
X002511Y029808D02*
X002989Y029808D01*
X002989Y029830D02*
X002511Y029830D01*
X002511Y029852D02*
X002989Y029852D01*
X002989Y029874D02*
X002511Y029874D01*
X002511Y029896D02*
X002989Y029896D01*
X002989Y029918D02*
X002511Y029918D01*
X002511Y029940D02*
X002989Y029940D01*
X002989Y029962D02*
X002511Y029962D01*
X002511Y029984D02*
X002989Y029984D01*
X002989Y030006D02*
X002511Y030006D01*
X002511Y029514D02*
X002989Y029514D01*
X002989Y029286D01*
X002511Y029286D01*
X002511Y029514D01*
X002511Y029308D02*
X002989Y029308D01*
X002989Y029330D02*
X002511Y029330D01*
X002511Y029352D02*
X002989Y029352D01*
X002989Y029374D02*
X002511Y029374D01*
X002511Y029396D02*
X002989Y029396D01*
X002989Y029418D02*
X002511Y029418D01*
X002511Y029440D02*
X002989Y029440D01*
X002989Y029462D02*
X002511Y029462D01*
X002511Y029484D02*
X002989Y029484D01*
X002989Y029506D02*
X002511Y029506D01*
X002511Y029014D02*
X002989Y029014D01*
X002989Y028786D01*
X002511Y028786D01*
X002511Y029014D01*
X002511Y028808D02*
X002989Y028808D01*
X002989Y028830D02*
X002511Y028830D01*
X002511Y028852D02*
X002989Y028852D01*
X002989Y028874D02*
X002511Y028874D01*
X002511Y028896D02*
X002989Y028896D01*
X002989Y028918D02*
X002511Y028918D01*
X002511Y028940D02*
X002989Y028940D01*
X002989Y028962D02*
X002511Y028962D01*
X002511Y028984D02*
X002989Y028984D01*
X002989Y029006D02*
X002511Y029006D01*
X002511Y028514D02*
X002989Y028514D01*
X002989Y028286D01*
X002511Y028286D01*
X002511Y028514D01*
X002511Y028308D02*
X002989Y028308D01*
X002989Y028330D02*
X002511Y028330D01*
X002511Y028352D02*
X002989Y028352D01*
X002989Y028374D02*
X002511Y028374D01*
X002511Y028396D02*
X002989Y028396D01*
X002989Y028418D02*
X002511Y028418D01*
X002511Y028440D02*
X002989Y028440D01*
X002989Y028462D02*
X002511Y028462D01*
X002511Y028484D02*
X002989Y028484D01*
X002989Y028506D02*
X002511Y028506D01*
X002511Y028014D02*
X002989Y028014D01*
X002989Y027786D01*
X002511Y027786D01*
X002511Y028014D01*
X002511Y027808D02*
X002989Y027808D01*
X002989Y027830D02*
X002511Y027830D01*
X002511Y027852D02*
X002989Y027852D01*
X002989Y027874D02*
X002511Y027874D01*
X002511Y027896D02*
X002989Y027896D01*
X002989Y027918D02*
X002511Y027918D01*
X002511Y027940D02*
X002989Y027940D01*
X002989Y027962D02*
X002511Y027962D01*
X002511Y027984D02*
X002989Y027984D01*
X002989Y028006D02*
X002511Y028006D01*
X002511Y027514D02*
X002989Y027514D01*
X002989Y027286D01*
X002511Y027286D01*
X002511Y027514D01*
X002511Y027308D02*
X002989Y027308D01*
X002989Y027330D02*
X002511Y027330D01*
X002511Y027352D02*
X002989Y027352D01*
X002989Y027374D02*
X002511Y027374D01*
X002511Y027396D02*
X002989Y027396D01*
X002989Y027418D02*
X002511Y027418D01*
X002511Y027440D02*
X002989Y027440D01*
X002989Y027462D02*
X002511Y027462D01*
X002511Y027484D02*
X002989Y027484D01*
X002989Y027506D02*
X002511Y027506D01*
X002511Y027014D02*
X002989Y027014D01*
X002989Y026786D01*
X002511Y026786D01*
X002511Y027014D01*
X002511Y026808D02*
X002989Y026808D01*
X002989Y026830D02*
X002511Y026830D01*
X002511Y026852D02*
X002989Y026852D01*
X002989Y026874D02*
X002511Y026874D01*
X002511Y026896D02*
X002989Y026896D01*
X002989Y026918D02*
X002511Y026918D01*
X002511Y026940D02*
X002989Y026940D01*
X002989Y026962D02*
X002511Y026962D01*
X002511Y026984D02*
X002989Y026984D01*
X002989Y027006D02*
X002511Y027006D01*
X002511Y026514D02*
X002989Y026514D01*
X002989Y026286D01*
X002511Y026286D01*
X002511Y026514D01*
X002511Y026308D02*
X002989Y026308D01*
X002989Y026330D02*
X002511Y026330D01*
X002511Y026352D02*
X002989Y026352D01*
X002989Y026374D02*
X002511Y026374D01*
X002511Y026396D02*
X002989Y026396D01*
X002989Y026418D02*
X002511Y026418D01*
X002511Y026440D02*
X002989Y026440D01*
X002989Y026462D02*
X002511Y026462D01*
X002511Y026484D02*
X002989Y026484D01*
X002989Y026506D02*
X002511Y026506D01*
X002511Y026014D02*
X002989Y026014D01*
X002989Y025786D01*
X002511Y025786D01*
X002511Y026014D01*
X002511Y025808D02*
X002989Y025808D01*
X002989Y025830D02*
X002511Y025830D01*
X002511Y025852D02*
X002989Y025852D01*
X002989Y025874D02*
X002511Y025874D01*
X002511Y025896D02*
X002989Y025896D01*
X002989Y025918D02*
X002511Y025918D01*
X002511Y025940D02*
X002989Y025940D01*
X002989Y025962D02*
X002511Y025962D01*
X002511Y025984D02*
X002989Y025984D01*
X002989Y026006D02*
X002511Y026006D01*
X002511Y025514D02*
X002989Y025514D01*
X002989Y025286D01*
X002511Y025286D01*
X002511Y025514D01*
X002511Y025308D02*
X002989Y025308D01*
X002989Y025330D02*
X002511Y025330D01*
X002511Y025352D02*
X002989Y025352D01*
X002989Y025374D02*
X002511Y025374D01*
X002511Y025396D02*
X002989Y025396D01*
X002989Y025418D02*
X002511Y025418D01*
X002511Y025440D02*
X002989Y025440D01*
X002989Y025462D02*
X002511Y025462D01*
X002511Y025484D02*
X002989Y025484D01*
X002989Y025506D02*
X002511Y025506D01*
X002511Y025014D02*
X002989Y025014D01*
X002989Y024786D01*
X002511Y024786D01*
X002511Y025014D01*
X002511Y024808D02*
X002989Y024808D01*
X002989Y024830D02*
X002511Y024830D01*
X002511Y024852D02*
X002989Y024852D01*
X002989Y024874D02*
X002511Y024874D01*
X002511Y024896D02*
X002989Y024896D01*
X002989Y024918D02*
X002511Y024918D01*
X002511Y024940D02*
X002989Y024940D01*
X002989Y024962D02*
X002511Y024962D01*
X002511Y024984D02*
X002989Y024984D01*
X002989Y025006D02*
X002511Y025006D01*
X002511Y024514D02*
X002989Y024514D01*
X002989Y024286D01*
X002511Y024286D01*
X002511Y024514D01*
X002511Y024308D02*
X002989Y024308D01*
X002989Y024330D02*
X002511Y024330D01*
X002511Y024352D02*
X002989Y024352D01*
X002989Y024374D02*
X002511Y024374D01*
X002511Y024396D02*
X002989Y024396D01*
X002989Y024418D02*
X002511Y024418D01*
X002511Y024440D02*
X002989Y024440D01*
X002989Y024462D02*
X002511Y024462D01*
X002511Y024484D02*
X002989Y024484D01*
X002989Y024506D02*
X002511Y024506D01*
X002511Y024014D02*
X002989Y024014D01*
X002989Y023786D01*
X002511Y023786D01*
X002511Y024014D01*
X002511Y023808D02*
X002989Y023808D01*
X002989Y023830D02*
X002511Y023830D01*
X002511Y023852D02*
X002989Y023852D01*
X002989Y023874D02*
X002511Y023874D01*
X002511Y023896D02*
X002989Y023896D01*
X002989Y023918D02*
X002511Y023918D01*
X002511Y023940D02*
X002989Y023940D01*
X002989Y023962D02*
X002511Y023962D01*
X002511Y023984D02*
X002989Y023984D01*
X002989Y024006D02*
X002511Y024006D01*
X002511Y023514D02*
X002989Y023514D01*
X002989Y023286D01*
X002511Y023286D01*
X002511Y023514D01*
X002511Y023308D02*
X002989Y023308D01*
X002989Y023330D02*
X002511Y023330D01*
X002511Y023352D02*
X002989Y023352D01*
X002989Y023374D02*
X002511Y023374D01*
X002511Y023396D02*
X002989Y023396D01*
X002989Y023418D02*
X002511Y023418D01*
X002511Y023440D02*
X002989Y023440D01*
X002989Y023462D02*
X002511Y023462D01*
X002511Y023484D02*
X002989Y023484D01*
X002989Y023506D02*
X002511Y023506D01*
X002511Y023014D02*
X002989Y023014D01*
X002989Y022786D01*
X002511Y022786D01*
X002511Y023014D01*
X002511Y022808D02*
X002989Y022808D01*
X002989Y022830D02*
X002511Y022830D01*
X002511Y022852D02*
X002989Y022852D01*
X002989Y022874D02*
X002511Y022874D01*
X002511Y022896D02*
X002989Y022896D01*
X002989Y022918D02*
X002511Y022918D01*
X002511Y022940D02*
X002989Y022940D01*
X002989Y022962D02*
X002511Y022962D01*
X002511Y022984D02*
X002989Y022984D01*
X002989Y023006D02*
X002511Y023006D01*
X002511Y022514D02*
X002989Y022514D01*
X002989Y022286D01*
X002511Y022286D01*
X002511Y022514D01*
X002511Y022308D02*
X002989Y022308D01*
X002989Y022330D02*
X002511Y022330D01*
X002511Y022352D02*
X002989Y022352D01*
X002989Y022374D02*
X002511Y022374D01*
X002511Y022396D02*
X002989Y022396D01*
X002989Y022418D02*
X002511Y022418D01*
X002511Y022440D02*
X002989Y022440D01*
X002989Y022462D02*
X002511Y022462D01*
X002511Y022484D02*
X002989Y022484D01*
X002989Y022506D02*
X002511Y022506D01*
X002511Y022014D02*
X002989Y022014D01*
X002989Y021786D01*
X002511Y021786D01*
X002511Y022014D01*
X002511Y021808D02*
X002989Y021808D01*
X002989Y021830D02*
X002511Y021830D01*
X002511Y021852D02*
X002989Y021852D01*
X002989Y021874D02*
X002511Y021874D01*
X002511Y021896D02*
X002989Y021896D01*
X002989Y021918D02*
X002511Y021918D01*
X002511Y021940D02*
X002989Y021940D01*
X002989Y021962D02*
X002511Y021962D01*
X002511Y021984D02*
X002989Y021984D01*
X002989Y022006D02*
X002511Y022006D01*
X002511Y021514D02*
X002989Y021514D01*
X002989Y021286D01*
X002511Y021286D01*
X002511Y021514D01*
X002511Y021308D02*
X002989Y021308D01*
X002989Y021330D02*
X002511Y021330D01*
X002511Y021352D02*
X002989Y021352D01*
X002989Y021374D02*
X002511Y021374D01*
X002511Y021396D02*
X002989Y021396D01*
X002989Y021418D02*
X002511Y021418D01*
X002511Y021440D02*
X002989Y021440D01*
X002989Y021462D02*
X002511Y021462D01*
X002511Y021484D02*
X002989Y021484D01*
X002989Y021506D02*
X002511Y021506D01*
X002511Y021014D02*
X002989Y021014D01*
X002989Y020786D01*
X002511Y020786D01*
X002511Y021014D01*
X002511Y020808D02*
X002989Y020808D01*
X002989Y020830D02*
X002511Y020830D01*
X002511Y020852D02*
X002989Y020852D01*
X002989Y020874D02*
X002511Y020874D01*
X002511Y020896D02*
X002989Y020896D01*
X002989Y020918D02*
X002511Y020918D01*
X002511Y020940D02*
X002989Y020940D01*
X002989Y020962D02*
X002511Y020962D01*
X002511Y020984D02*
X002989Y020984D01*
X002989Y021006D02*
X002511Y021006D01*
X002511Y020514D02*
X002989Y020514D01*
X002989Y020286D01*
X002511Y020286D01*
X002511Y020514D01*
X002511Y020308D02*
X002989Y020308D01*
X002989Y020330D02*
X002511Y020330D01*
X002511Y020352D02*
X002989Y020352D01*
X002989Y020374D02*
X002511Y020374D01*
X002511Y020396D02*
X002989Y020396D01*
X002989Y020418D02*
X002511Y020418D01*
X002511Y020440D02*
X002989Y020440D01*
X002989Y020462D02*
X002511Y020462D01*
X002511Y020484D02*
X002989Y020484D01*
X002989Y020506D02*
X002511Y020506D01*
X002511Y020014D02*
X002989Y020014D01*
X002989Y019786D01*
X002511Y019786D01*
X002511Y020014D01*
X002511Y019808D02*
X002989Y019808D01*
X002989Y019830D02*
X002511Y019830D01*
X002511Y019852D02*
X002989Y019852D01*
X002989Y019874D02*
X002511Y019874D01*
X002511Y019896D02*
X002989Y019896D01*
X002989Y019918D02*
X002511Y019918D01*
X002511Y019940D02*
X002989Y019940D01*
X002989Y019962D02*
X002511Y019962D01*
X002511Y019984D02*
X002989Y019984D01*
X002989Y020006D02*
X002511Y020006D01*
X002511Y019514D02*
X002989Y019514D01*
X002989Y019286D01*
X002511Y019286D01*
X002511Y019514D01*
X002511Y019308D02*
X002989Y019308D01*
X002989Y019330D02*
X002511Y019330D01*
X002511Y019352D02*
X002989Y019352D01*
X002989Y019374D02*
X002511Y019374D01*
X002511Y019396D02*
X002989Y019396D01*
X002989Y019418D02*
X002511Y019418D01*
X002511Y019440D02*
X002989Y019440D01*
X002989Y019462D02*
X002511Y019462D01*
X002511Y019484D02*
X002989Y019484D01*
X002989Y019506D02*
X002511Y019506D01*
X002511Y019014D02*
X002989Y019014D01*
X002989Y018786D01*
X002511Y018786D01*
X002511Y019014D01*
X002511Y018808D02*
X002989Y018808D01*
X002989Y018830D02*
X002511Y018830D01*
X002511Y018852D02*
X002989Y018852D01*
X002989Y018874D02*
X002511Y018874D01*
X002511Y018896D02*
X002989Y018896D01*
X002989Y018918D02*
X002511Y018918D01*
X002511Y018940D02*
X002989Y018940D01*
X002989Y018962D02*
X002511Y018962D01*
X002511Y018984D02*
X002989Y018984D01*
X002989Y019006D02*
X002511Y019006D01*
X002511Y018514D02*
X002989Y018514D01*
X002989Y018286D01*
X002511Y018286D01*
X002511Y018514D01*
X002511Y018308D02*
X002989Y018308D01*
X002989Y018330D02*
X002511Y018330D01*
X002511Y018352D02*
X002989Y018352D01*
X002989Y018374D02*
X002511Y018374D01*
X002511Y018396D02*
X002989Y018396D01*
X002989Y018418D02*
X002511Y018418D01*
X002511Y018440D02*
X002989Y018440D01*
X002989Y018462D02*
X002511Y018462D01*
X002511Y018484D02*
X002989Y018484D01*
X002989Y018506D02*
X002511Y018506D01*
X002511Y018014D02*
X002989Y018014D01*
X002989Y017786D01*
X002511Y017786D01*
X002511Y018014D01*
X002511Y017808D02*
X002989Y017808D01*
X002989Y017830D02*
X002511Y017830D01*
X002511Y017852D02*
X002989Y017852D01*
X002989Y017874D02*
X002511Y017874D01*
X002511Y017896D02*
X002989Y017896D01*
X002989Y017918D02*
X002511Y017918D01*
X002511Y017940D02*
X002989Y017940D01*
X002989Y017962D02*
X002511Y017962D01*
X002511Y017984D02*
X002989Y017984D01*
X002989Y018006D02*
X002511Y018006D01*
X002511Y017514D02*
X002989Y017514D01*
X002989Y017286D01*
X002511Y017286D01*
X002511Y017514D01*
X002511Y017308D02*
X002989Y017308D01*
X002989Y017330D02*
X002511Y017330D01*
X002511Y017352D02*
X002989Y017352D01*
X002989Y017374D02*
X002511Y017374D01*
X002511Y017396D02*
X002989Y017396D01*
X002989Y017418D02*
X002511Y017418D01*
X002511Y017440D02*
X002989Y017440D01*
X002989Y017462D02*
X002511Y017462D01*
X002511Y017484D02*
X002989Y017484D01*
X002989Y017506D02*
X002511Y017506D01*
X002511Y017014D02*
X002989Y017014D01*
X002989Y016786D01*
X002511Y016786D01*
X002511Y017014D01*
X002511Y016808D02*
X002989Y016808D01*
X002989Y016830D02*
X002511Y016830D01*
X002511Y016852D02*
X002989Y016852D01*
X002989Y016874D02*
X002511Y016874D01*
X002511Y016896D02*
X002989Y016896D01*
X002989Y016918D02*
X002511Y016918D01*
X002511Y016940D02*
X002989Y016940D01*
X002989Y016962D02*
X002511Y016962D01*
X002511Y016984D02*
X002989Y016984D01*
X002989Y017006D02*
X002511Y017006D01*
X002511Y016514D02*
X002989Y016514D01*
X002989Y016286D01*
X002511Y016286D01*
X002511Y016514D01*
X002511Y016308D02*
X002989Y016308D01*
X002989Y016330D02*
X002511Y016330D01*
X002511Y016352D02*
X002989Y016352D01*
X002989Y016374D02*
X002511Y016374D01*
X002511Y016396D02*
X002989Y016396D01*
X002989Y016418D02*
X002511Y016418D01*
X002511Y016440D02*
X002989Y016440D01*
X002989Y016462D02*
X002511Y016462D01*
X002511Y016484D02*
X002989Y016484D01*
X002989Y016506D02*
X002511Y016506D01*
X002511Y016014D02*
X002989Y016014D01*
X002989Y015786D01*
X002511Y015786D01*
X002511Y016014D01*
X002511Y015808D02*
X002989Y015808D01*
X002989Y015830D02*
X002511Y015830D01*
X002511Y015852D02*
X002989Y015852D01*
X002989Y015874D02*
X002511Y015874D01*
X002511Y015896D02*
X002989Y015896D01*
X002989Y015918D02*
X002511Y015918D01*
X002511Y015940D02*
X002989Y015940D01*
X002989Y015962D02*
X002511Y015962D01*
X002511Y015984D02*
X002989Y015984D01*
X002989Y016006D02*
X002511Y016006D01*
X002511Y015286D02*
X002989Y015286D01*
X002511Y015286D02*
X002511Y015514D01*
X002989Y015514D01*
X002989Y015286D01*
X002989Y015308D02*
X002511Y015308D01*
X002511Y015330D02*
X002989Y015330D01*
X002989Y015352D02*
X002511Y015352D01*
X002511Y015374D02*
X002989Y015374D01*
X002989Y015396D02*
X002511Y015396D01*
X002511Y015418D02*
X002989Y015418D01*
X002989Y015440D02*
X002511Y015440D01*
X002511Y015462D02*
X002989Y015462D01*
X002989Y015484D02*
X002511Y015484D01*
X002511Y015506D02*
X002989Y015506D01*
X003211Y015514D02*
X003689Y015514D01*
X003689Y015286D01*
X003211Y015286D01*
X003211Y015514D01*
X003211Y015308D02*
X003689Y015308D01*
X003689Y015330D02*
X003211Y015330D01*
X003211Y015352D02*
X003689Y015352D01*
X003689Y015374D02*
X003211Y015374D01*
X003211Y015396D02*
X003689Y015396D01*
X003689Y015418D02*
X003211Y015418D01*
X003211Y015440D02*
X003689Y015440D01*
X003689Y015462D02*
X003211Y015462D01*
X003211Y015484D02*
X003689Y015484D01*
X003689Y015506D02*
X003211Y015506D01*
X003211Y016014D02*
X003689Y016014D01*
X003689Y015786D01*
X003211Y015786D01*
X003211Y016014D01*
X003211Y015808D02*
X003689Y015808D01*
X003689Y015830D02*
X003211Y015830D01*
X003211Y015852D02*
X003689Y015852D01*
X003689Y015874D02*
X003211Y015874D01*
X003211Y015896D02*
X003689Y015896D01*
X003689Y015918D02*
X003211Y015918D01*
X003211Y015940D02*
X003689Y015940D01*
X003689Y015962D02*
X003211Y015962D01*
X003211Y015984D02*
X003689Y015984D01*
X003689Y016006D02*
X003211Y016006D01*
X003211Y016514D02*
X003689Y016514D01*
X003689Y016286D01*
X003211Y016286D01*
X003211Y016514D01*
X003211Y016308D02*
X003689Y016308D01*
X003689Y016330D02*
X003211Y016330D01*
X003211Y016352D02*
X003689Y016352D01*
X003689Y016374D02*
X003211Y016374D01*
X003211Y016396D02*
X003689Y016396D01*
X003689Y016418D02*
X003211Y016418D01*
X003211Y016440D02*
X003689Y016440D01*
X003689Y016462D02*
X003211Y016462D01*
X003211Y016484D02*
X003689Y016484D01*
X003689Y016506D02*
X003211Y016506D01*
X003211Y017014D02*
X003689Y017014D01*
X003689Y016786D01*
X003211Y016786D01*
X003211Y017014D01*
X003211Y016808D02*
X003689Y016808D01*
X003689Y016830D02*
X003211Y016830D01*
X003211Y016852D02*
X003689Y016852D01*
X003689Y016874D02*
X003211Y016874D01*
X003211Y016896D02*
X003689Y016896D01*
X003689Y016918D02*
X003211Y016918D01*
X003211Y016940D02*
X003689Y016940D01*
X003689Y016962D02*
X003211Y016962D01*
X003211Y016984D02*
X003689Y016984D01*
X003689Y017006D02*
X003211Y017006D01*
X003211Y017514D02*
X003689Y017514D01*
X003689Y017286D01*
X003211Y017286D01*
X003211Y017514D01*
X003211Y017308D02*
X003689Y017308D01*
X003689Y017330D02*
X003211Y017330D01*
X003211Y017352D02*
X003689Y017352D01*
X003689Y017374D02*
X003211Y017374D01*
X003211Y017396D02*
X003689Y017396D01*
X003689Y017418D02*
X003211Y017418D01*
X003211Y017440D02*
X003689Y017440D01*
X003689Y017462D02*
X003211Y017462D01*
X003211Y017484D02*
X003689Y017484D01*
X003689Y017506D02*
X003211Y017506D01*
X003211Y018014D02*
X003689Y018014D01*
X003689Y017786D01*
X003211Y017786D01*
X003211Y018014D01*
X003211Y017808D02*
X003689Y017808D01*
X003689Y017830D02*
X003211Y017830D01*
X003211Y017852D02*
X003689Y017852D01*
X003689Y017874D02*
X003211Y017874D01*
X003211Y017896D02*
X003689Y017896D01*
X003689Y017918D02*
X003211Y017918D01*
X003211Y017940D02*
X003689Y017940D01*
X003689Y017962D02*
X003211Y017962D01*
X003211Y017984D02*
X003689Y017984D01*
X003689Y018006D02*
X003211Y018006D01*
X003211Y018514D02*
X003689Y018514D01*
X003689Y018286D01*
X003211Y018286D01*
X003211Y018514D01*
X003211Y018308D02*
X003689Y018308D01*
X003689Y018330D02*
X003211Y018330D01*
X003211Y018352D02*
X003689Y018352D01*
X003689Y018374D02*
X003211Y018374D01*
X003211Y018396D02*
X003689Y018396D01*
X003689Y018418D02*
X003211Y018418D01*
X003211Y018440D02*
X003689Y018440D01*
X003689Y018462D02*
X003211Y018462D01*
X003211Y018484D02*
X003689Y018484D01*
X003689Y018506D02*
X003211Y018506D01*
X003211Y019014D02*
X003689Y019014D01*
X003689Y018786D01*
X003211Y018786D01*
X003211Y019014D01*
X003211Y018808D02*
X003689Y018808D01*
X003689Y018830D02*
X003211Y018830D01*
X003211Y018852D02*
X003689Y018852D01*
X003689Y018874D02*
X003211Y018874D01*
X003211Y018896D02*
X003689Y018896D01*
X003689Y018918D02*
X003211Y018918D01*
X003211Y018940D02*
X003689Y018940D01*
X003689Y018962D02*
X003211Y018962D01*
X003211Y018984D02*
X003689Y018984D01*
X003689Y019006D02*
X003211Y019006D01*
X003211Y019514D02*
X003689Y019514D01*
X003689Y019286D01*
X003211Y019286D01*
X003211Y019514D01*
X003211Y019308D02*
X003689Y019308D01*
X003689Y019330D02*
X003211Y019330D01*
X003211Y019352D02*
X003689Y019352D01*
X003689Y019374D02*
X003211Y019374D01*
X003211Y019396D02*
X003689Y019396D01*
X003689Y019418D02*
X003211Y019418D01*
X003211Y019440D02*
X003689Y019440D01*
X003689Y019462D02*
X003211Y019462D01*
X003211Y019484D02*
X003689Y019484D01*
X003689Y019506D02*
X003211Y019506D01*
X003211Y020014D02*
X003689Y020014D01*
X003689Y019786D01*
X003211Y019786D01*
X003211Y020014D01*
X003211Y019808D02*
X003689Y019808D01*
X003689Y019830D02*
X003211Y019830D01*
X003211Y019852D02*
X003689Y019852D01*
X003689Y019874D02*
X003211Y019874D01*
X003211Y019896D02*
X003689Y019896D01*
X003689Y019918D02*
X003211Y019918D01*
X003211Y019940D02*
X003689Y019940D01*
X003689Y019962D02*
X003211Y019962D01*
X003211Y019984D02*
X003689Y019984D01*
X003689Y020006D02*
X003211Y020006D01*
X003211Y020514D02*
X003689Y020514D01*
X003689Y020286D01*
X003211Y020286D01*
X003211Y020514D01*
X003211Y020308D02*
X003689Y020308D01*
X003689Y020330D02*
X003211Y020330D01*
X003211Y020352D02*
X003689Y020352D01*
X003689Y020374D02*
X003211Y020374D01*
X003211Y020396D02*
X003689Y020396D01*
X003689Y020418D02*
X003211Y020418D01*
X003211Y020440D02*
X003689Y020440D01*
X003689Y020462D02*
X003211Y020462D01*
X003211Y020484D02*
X003689Y020484D01*
X003689Y020506D02*
X003211Y020506D01*
X003211Y021014D02*
X003689Y021014D01*
X003689Y020786D01*
X003211Y020786D01*
X003211Y021014D01*
X003211Y020808D02*
X003689Y020808D01*
X003689Y020830D02*
X003211Y020830D01*
X003211Y020852D02*
X003689Y020852D01*
X003689Y020874D02*
X003211Y020874D01*
X003211Y020896D02*
X003689Y020896D01*
X003689Y020918D02*
X003211Y020918D01*
X003211Y020940D02*
X003689Y020940D01*
X003689Y020962D02*
X003211Y020962D01*
X003211Y020984D02*
X003689Y020984D01*
X003689Y021006D02*
X003211Y021006D01*
X003211Y021514D02*
X003689Y021514D01*
X003689Y021286D01*
X003211Y021286D01*
X003211Y021514D01*
X003211Y021308D02*
X003689Y021308D01*
X003689Y021330D02*
X003211Y021330D01*
X003211Y021352D02*
X003689Y021352D01*
X003689Y021374D02*
X003211Y021374D01*
X003211Y021396D02*
X003689Y021396D01*
X003689Y021418D02*
X003211Y021418D01*
X003211Y021440D02*
X003689Y021440D01*
X003689Y021462D02*
X003211Y021462D01*
X003211Y021484D02*
X003689Y021484D01*
X003689Y021506D02*
X003211Y021506D01*
X003211Y022014D02*
X003689Y022014D01*
X003689Y021786D01*
X003211Y021786D01*
X003211Y022014D01*
X003211Y021808D02*
X003689Y021808D01*
X003689Y021830D02*
X003211Y021830D01*
X003211Y021852D02*
X003689Y021852D01*
X003689Y021874D02*
X003211Y021874D01*
X003211Y021896D02*
X003689Y021896D01*
X003689Y021918D02*
X003211Y021918D01*
X003211Y021940D02*
X003689Y021940D01*
X003689Y021962D02*
X003211Y021962D01*
X003211Y021984D02*
X003689Y021984D01*
X003689Y022006D02*
X003211Y022006D01*
X003211Y022514D02*
X003689Y022514D01*
X003689Y022286D01*
X003211Y022286D01*
X003211Y022514D01*
X003211Y022308D02*
X003689Y022308D01*
X003689Y022330D02*
X003211Y022330D01*
X003211Y022352D02*
X003689Y022352D01*
X003689Y022374D02*
X003211Y022374D01*
X003211Y022396D02*
X003689Y022396D01*
X003689Y022418D02*
X003211Y022418D01*
X003211Y022440D02*
X003689Y022440D01*
X003689Y022462D02*
X003211Y022462D01*
X003211Y022484D02*
X003689Y022484D01*
X003689Y022506D02*
X003211Y022506D01*
X003211Y023014D02*
X003689Y023014D01*
X003689Y022786D01*
X003211Y022786D01*
X003211Y023014D01*
X003211Y022808D02*
X003689Y022808D01*
X003689Y022830D02*
X003211Y022830D01*
X003211Y022852D02*
X003689Y022852D01*
X003689Y022874D02*
X003211Y022874D01*
X003211Y022896D02*
X003689Y022896D01*
X003689Y022918D02*
X003211Y022918D01*
X003211Y022940D02*
X003689Y022940D01*
X003689Y022962D02*
X003211Y022962D01*
X003211Y022984D02*
X003689Y022984D01*
X003689Y023006D02*
X003211Y023006D01*
X003211Y023514D02*
X003689Y023514D01*
X003689Y023286D01*
X003211Y023286D01*
X003211Y023514D01*
X003211Y023308D02*
X003689Y023308D01*
X003689Y023330D02*
X003211Y023330D01*
X003211Y023352D02*
X003689Y023352D01*
X003689Y023374D02*
X003211Y023374D01*
X003211Y023396D02*
X003689Y023396D01*
X003689Y023418D02*
X003211Y023418D01*
X003211Y023440D02*
X003689Y023440D01*
X003689Y023462D02*
X003211Y023462D01*
X003211Y023484D02*
X003689Y023484D01*
X003689Y023506D02*
X003211Y023506D01*
X003211Y024014D02*
X003689Y024014D01*
X003689Y023786D01*
X003211Y023786D01*
X003211Y024014D01*
X003211Y023808D02*
X003689Y023808D01*
X003689Y023830D02*
X003211Y023830D01*
X003211Y023852D02*
X003689Y023852D01*
X003689Y023874D02*
X003211Y023874D01*
X003211Y023896D02*
X003689Y023896D01*
X003689Y023918D02*
X003211Y023918D01*
X003211Y023940D02*
X003689Y023940D01*
X003689Y023962D02*
X003211Y023962D01*
X003211Y023984D02*
X003689Y023984D01*
X003689Y024006D02*
X003211Y024006D01*
X003211Y024514D02*
X003689Y024514D01*
X003689Y024286D01*
X003211Y024286D01*
X003211Y024514D01*
X003211Y024308D02*
X003689Y024308D01*
X003689Y024330D02*
X003211Y024330D01*
X003211Y024352D02*
X003689Y024352D01*
X003689Y024374D02*
X003211Y024374D01*
X003211Y024396D02*
X003689Y024396D01*
X003689Y024418D02*
X003211Y024418D01*
X003211Y024440D02*
X003689Y024440D01*
X003689Y024462D02*
X003211Y024462D01*
X003211Y024484D02*
X003689Y024484D01*
X003689Y024506D02*
X003211Y024506D01*
X003211Y025014D02*
X003689Y025014D01*
X003689Y024786D01*
X003211Y024786D01*
X003211Y025014D01*
X003211Y024808D02*
X003689Y024808D01*
X003689Y024830D02*
X003211Y024830D01*
X003211Y024852D02*
X003689Y024852D01*
X003689Y024874D02*
X003211Y024874D01*
X003211Y024896D02*
X003689Y024896D01*
X003689Y024918D02*
X003211Y024918D01*
X003211Y024940D02*
X003689Y024940D01*
X003689Y024962D02*
X003211Y024962D01*
X003211Y024984D02*
X003689Y024984D01*
X003689Y025006D02*
X003211Y025006D01*
X003211Y025514D02*
X003689Y025514D01*
X003689Y025286D01*
X003211Y025286D01*
X003211Y025514D01*
X003211Y025308D02*
X003689Y025308D01*
X003689Y025330D02*
X003211Y025330D01*
X003211Y025352D02*
X003689Y025352D01*
X003689Y025374D02*
X003211Y025374D01*
X003211Y025396D02*
X003689Y025396D01*
X003689Y025418D02*
X003211Y025418D01*
X003211Y025440D02*
X003689Y025440D01*
X003689Y025462D02*
X003211Y025462D01*
X003211Y025484D02*
X003689Y025484D01*
X003689Y025506D02*
X003211Y025506D01*
X003211Y026014D02*
X003689Y026014D01*
X003689Y025786D01*
X003211Y025786D01*
X003211Y026014D01*
X003211Y025808D02*
X003689Y025808D01*
X003689Y025830D02*
X003211Y025830D01*
X003211Y025852D02*
X003689Y025852D01*
X003689Y025874D02*
X003211Y025874D01*
X003211Y025896D02*
X003689Y025896D01*
X003689Y025918D02*
X003211Y025918D01*
X003211Y025940D02*
X003689Y025940D01*
X003689Y025962D02*
X003211Y025962D01*
X003211Y025984D02*
X003689Y025984D01*
X003689Y026006D02*
X003211Y026006D01*
X003211Y026514D02*
X003689Y026514D01*
X003689Y026286D01*
X003211Y026286D01*
X003211Y026514D01*
X003211Y026308D02*
X003689Y026308D01*
X003689Y026330D02*
X003211Y026330D01*
X003211Y026352D02*
X003689Y026352D01*
X003689Y026374D02*
X003211Y026374D01*
X003211Y026396D02*
X003689Y026396D01*
X003689Y026418D02*
X003211Y026418D01*
X003211Y026440D02*
X003689Y026440D01*
X003689Y026462D02*
X003211Y026462D01*
X003211Y026484D02*
X003689Y026484D01*
X003689Y026506D02*
X003211Y026506D01*
X003211Y027014D02*
X003689Y027014D01*
X003689Y026786D01*
X003211Y026786D01*
X003211Y027014D01*
X003211Y026808D02*
X003689Y026808D01*
X003689Y026830D02*
X003211Y026830D01*
X003211Y026852D02*
X003689Y026852D01*
X003689Y026874D02*
X003211Y026874D01*
X003211Y026896D02*
X003689Y026896D01*
X003689Y026918D02*
X003211Y026918D01*
X003211Y026940D02*
X003689Y026940D01*
X003689Y026962D02*
X003211Y026962D01*
X003211Y026984D02*
X003689Y026984D01*
X003689Y027006D02*
X003211Y027006D01*
X003211Y027514D02*
X003689Y027514D01*
X003689Y027286D01*
X003211Y027286D01*
X003211Y027514D01*
X003211Y027308D02*
X003689Y027308D01*
X003689Y027330D02*
X003211Y027330D01*
X003211Y027352D02*
X003689Y027352D01*
X003689Y027374D02*
X003211Y027374D01*
X003211Y027396D02*
X003689Y027396D01*
X003689Y027418D02*
X003211Y027418D01*
X003211Y027440D02*
X003689Y027440D01*
X003689Y027462D02*
X003211Y027462D01*
X003211Y027484D02*
X003689Y027484D01*
X003689Y027506D02*
X003211Y027506D01*
X003211Y028014D02*
X003689Y028014D01*
X003689Y027786D01*
X003211Y027786D01*
X003211Y028014D01*
X003211Y027808D02*
X003689Y027808D01*
X003689Y027830D02*
X003211Y027830D01*
X003211Y027852D02*
X003689Y027852D01*
X003689Y027874D02*
X003211Y027874D01*
X003211Y027896D02*
X003689Y027896D01*
X003689Y027918D02*
X003211Y027918D01*
X003211Y027940D02*
X003689Y027940D01*
X003689Y027962D02*
X003211Y027962D01*
X003211Y027984D02*
X003689Y027984D01*
X003689Y028006D02*
X003211Y028006D01*
X003211Y028514D02*
X003689Y028514D01*
X003689Y028286D01*
X003211Y028286D01*
X003211Y028514D01*
X003211Y028308D02*
X003689Y028308D01*
X003689Y028330D02*
X003211Y028330D01*
X003211Y028352D02*
X003689Y028352D01*
X003689Y028374D02*
X003211Y028374D01*
X003211Y028396D02*
X003689Y028396D01*
X003689Y028418D02*
X003211Y028418D01*
X003211Y028440D02*
X003689Y028440D01*
X003689Y028462D02*
X003211Y028462D01*
X003211Y028484D02*
X003689Y028484D01*
X003689Y028506D02*
X003211Y028506D01*
X003211Y029014D02*
X003689Y029014D01*
X003689Y028786D01*
X003211Y028786D01*
X003211Y029014D01*
X003211Y028808D02*
X003689Y028808D01*
X003689Y028830D02*
X003211Y028830D01*
X003211Y028852D02*
X003689Y028852D01*
X003689Y028874D02*
X003211Y028874D01*
X003211Y028896D02*
X003689Y028896D01*
X003689Y028918D02*
X003211Y028918D01*
X003211Y028940D02*
X003689Y028940D01*
X003689Y028962D02*
X003211Y028962D01*
X003211Y028984D02*
X003689Y028984D01*
X003689Y029006D02*
X003211Y029006D01*
X003211Y029514D02*
X003689Y029514D01*
X003689Y029286D01*
X003211Y029286D01*
X003211Y029514D01*
X003211Y029308D02*
X003689Y029308D01*
X003689Y029330D02*
X003211Y029330D01*
X003211Y029352D02*
X003689Y029352D01*
X003689Y029374D02*
X003211Y029374D01*
X003211Y029396D02*
X003689Y029396D01*
X003689Y029418D02*
X003211Y029418D01*
X003211Y029440D02*
X003689Y029440D01*
X003689Y029462D02*
X003211Y029462D01*
X003211Y029484D02*
X003689Y029484D01*
X003689Y029506D02*
X003211Y029506D01*
X003211Y030014D02*
X003689Y030014D01*
X003689Y029786D01*
X003211Y029786D01*
X003211Y030014D01*
X003211Y029808D02*
X003689Y029808D01*
X003689Y029830D02*
X003211Y029830D01*
X003211Y029852D02*
X003689Y029852D01*
X003689Y029874D02*
X003211Y029874D01*
X003211Y029896D02*
X003689Y029896D01*
X003689Y029918D02*
X003211Y029918D01*
X003211Y029940D02*
X003689Y029940D01*
X003689Y029962D02*
X003211Y029962D01*
X003211Y029984D02*
X003689Y029984D01*
X003689Y030006D02*
X003211Y030006D01*
X003211Y030514D02*
X003689Y030514D01*
X003689Y030286D01*
X003211Y030286D01*
X003211Y030514D01*
X003211Y030308D02*
X003689Y030308D01*
X003689Y030330D02*
X003211Y030330D01*
X003211Y030352D02*
X003689Y030352D01*
X003689Y030374D02*
X003211Y030374D01*
X003211Y030396D02*
X003689Y030396D01*
X003689Y030418D02*
X003211Y030418D01*
X003211Y030440D02*
X003689Y030440D01*
X003689Y030462D02*
X003211Y030462D01*
X003211Y030484D02*
X003689Y030484D01*
X003689Y030506D02*
X003211Y030506D01*
X003211Y031014D02*
X003689Y031014D01*
X003689Y030786D01*
X003211Y030786D01*
X003211Y031014D01*
X003211Y030808D02*
X003689Y030808D01*
X003689Y030830D02*
X003211Y030830D01*
X003211Y030852D02*
X003689Y030852D01*
X003689Y030874D02*
X003211Y030874D01*
X003211Y030896D02*
X003689Y030896D01*
X003689Y030918D02*
X003211Y030918D01*
X003211Y030940D02*
X003689Y030940D01*
X003689Y030962D02*
X003211Y030962D01*
X003211Y030984D02*
X003689Y030984D01*
X003689Y031006D02*
X003211Y031006D01*
X003211Y031514D02*
X003689Y031514D01*
X003689Y031286D01*
X003211Y031286D01*
X003211Y031514D01*
X003211Y031308D02*
X003689Y031308D01*
X003689Y031330D02*
X003211Y031330D01*
X003211Y031352D02*
X003689Y031352D01*
X003689Y031374D02*
X003211Y031374D01*
X003211Y031396D02*
X003689Y031396D01*
X003689Y031418D02*
X003211Y031418D01*
X003211Y031440D02*
X003689Y031440D01*
X003689Y031462D02*
X003211Y031462D01*
X003211Y031484D02*
X003689Y031484D01*
X003689Y031506D02*
X003211Y031506D01*
X003211Y032014D02*
X003689Y032014D01*
X003689Y031786D01*
X003211Y031786D01*
X003211Y032014D01*
X003211Y031808D02*
X003689Y031808D01*
X003689Y031830D02*
X003211Y031830D01*
X003211Y031852D02*
X003689Y031852D01*
X003689Y031874D02*
X003211Y031874D01*
X003211Y031896D02*
X003689Y031896D01*
X003689Y031918D02*
X003211Y031918D01*
X003211Y031940D02*
X003689Y031940D01*
X003689Y031962D02*
X003211Y031962D01*
X003211Y031984D02*
X003689Y031984D01*
X003689Y032006D02*
X003211Y032006D01*
X003211Y032514D02*
X003689Y032514D01*
X003689Y032286D01*
X003211Y032286D01*
X003211Y032514D01*
X003211Y032308D02*
X003689Y032308D01*
X003689Y032330D02*
X003211Y032330D01*
X003211Y032352D02*
X003689Y032352D01*
X003689Y032374D02*
X003211Y032374D01*
X003211Y032396D02*
X003689Y032396D01*
X003689Y032418D02*
X003211Y032418D01*
X003211Y032440D02*
X003689Y032440D01*
X003689Y032462D02*
X003211Y032462D01*
X003211Y032484D02*
X003689Y032484D01*
X003689Y032506D02*
X003211Y032506D01*
X003211Y033014D02*
X003689Y033014D01*
X003689Y032786D01*
X003211Y032786D01*
X003211Y033014D01*
X003211Y032808D02*
X003689Y032808D01*
X003689Y032830D02*
X003211Y032830D01*
X003211Y032852D02*
X003689Y032852D01*
X003689Y032874D02*
X003211Y032874D01*
X003211Y032896D02*
X003689Y032896D01*
X003689Y032918D02*
X003211Y032918D01*
X003211Y032940D02*
X003689Y032940D01*
X003689Y032962D02*
X003211Y032962D01*
X003211Y032984D02*
X003689Y032984D01*
X003689Y033006D02*
X003211Y033006D01*
X003211Y033514D02*
X003689Y033514D01*
X003689Y033286D01*
X003211Y033286D01*
X003211Y033514D01*
X003211Y033308D02*
X003689Y033308D01*
X003689Y033330D02*
X003211Y033330D01*
X003211Y033352D02*
X003689Y033352D01*
X003689Y033374D02*
X003211Y033374D01*
X003211Y033396D02*
X003689Y033396D01*
X003689Y033418D02*
X003211Y033418D01*
X003211Y033440D02*
X003689Y033440D01*
X003689Y033462D02*
X003211Y033462D01*
X003211Y033484D02*
X003689Y033484D01*
X003689Y033506D02*
X003211Y033506D01*
X006436Y036311D02*
X006436Y036789D01*
X006664Y036789D01*
X006664Y036311D01*
X006436Y036311D01*
X006436Y036333D02*
X006664Y036333D01*
X006664Y036355D02*
X006436Y036355D01*
X006436Y036377D02*
X006664Y036377D01*
X006664Y036399D02*
X006436Y036399D01*
X006436Y036421D02*
X006664Y036421D01*
X006664Y036443D02*
X006436Y036443D01*
X006436Y036465D02*
X006664Y036465D01*
X006664Y036487D02*
X006436Y036487D01*
X006436Y036509D02*
X006664Y036509D01*
X006664Y036531D02*
X006436Y036531D01*
X006436Y036553D02*
X006664Y036553D01*
X006664Y036575D02*
X006436Y036575D01*
X006436Y036597D02*
X006664Y036597D01*
X006664Y036619D02*
X006436Y036619D01*
X006436Y036641D02*
X006664Y036641D01*
X006664Y036663D02*
X006436Y036663D01*
X006436Y036685D02*
X006664Y036685D01*
X006664Y036707D02*
X006436Y036707D01*
X006436Y036729D02*
X006664Y036729D01*
X006664Y036751D02*
X006436Y036751D01*
X006436Y036773D02*
X006664Y036773D01*
X006436Y037061D02*
X006436Y037539D01*
X006664Y037539D01*
X006664Y037061D01*
X006436Y037061D01*
X006436Y037083D02*
X006664Y037083D01*
X006664Y037105D02*
X006436Y037105D01*
X006436Y037127D02*
X006664Y037127D01*
X006664Y037149D02*
X006436Y037149D01*
X006436Y037171D02*
X006664Y037171D01*
X006664Y037193D02*
X006436Y037193D01*
X006436Y037215D02*
X006664Y037215D01*
X006664Y037237D02*
X006436Y037237D01*
X006436Y037259D02*
X006664Y037259D01*
X006664Y037281D02*
X006436Y037281D01*
X006436Y037303D02*
X006664Y037303D01*
X006664Y037325D02*
X006436Y037325D01*
X006436Y037347D02*
X006664Y037347D01*
X006664Y037369D02*
X006436Y037369D01*
X006436Y037391D02*
X006664Y037391D01*
X006664Y037413D02*
X006436Y037413D01*
X006436Y037435D02*
X006664Y037435D01*
X006664Y037457D02*
X006436Y037457D01*
X006436Y037479D02*
X006664Y037479D01*
X006664Y037501D02*
X006436Y037501D01*
X006436Y037523D02*
X006664Y037523D01*
X006936Y037539D02*
X006936Y037061D01*
X006936Y037539D02*
X007164Y037539D01*
X007164Y037061D01*
X006936Y037061D01*
X006936Y037083D02*
X007164Y037083D01*
X007164Y037105D02*
X006936Y037105D01*
X006936Y037127D02*
X007164Y037127D01*
X007164Y037149D02*
X006936Y037149D01*
X006936Y037171D02*
X007164Y037171D01*
X007164Y037193D02*
X006936Y037193D01*
X006936Y037215D02*
X007164Y037215D01*
X007164Y037237D02*
X006936Y037237D01*
X006936Y037259D02*
X007164Y037259D01*
X007164Y037281D02*
X006936Y037281D01*
X006936Y037303D02*
X007164Y037303D01*
X007164Y037325D02*
X006936Y037325D01*
X006936Y037347D02*
X007164Y037347D01*
X007164Y037369D02*
X006936Y037369D01*
X006936Y037391D02*
X007164Y037391D01*
X007164Y037413D02*
X006936Y037413D01*
X006936Y037435D02*
X007164Y037435D01*
X007164Y037457D02*
X006936Y037457D01*
X006936Y037479D02*
X007164Y037479D01*
X007164Y037501D02*
X006936Y037501D01*
X006936Y037523D02*
X007164Y037523D01*
X007436Y037539D02*
X007436Y037061D01*
X007436Y037539D02*
X007664Y037539D01*
X007664Y037061D01*
X007436Y037061D01*
X007436Y037083D02*
X007664Y037083D01*
X007664Y037105D02*
X007436Y037105D01*
X007436Y037127D02*
X007664Y037127D01*
X007664Y037149D02*
X007436Y037149D01*
X007436Y037171D02*
X007664Y037171D01*
X007664Y037193D02*
X007436Y037193D01*
X007436Y037215D02*
X007664Y037215D01*
X007664Y037237D02*
X007436Y037237D01*
X007436Y037259D02*
X007664Y037259D01*
X007664Y037281D02*
X007436Y037281D01*
X007436Y037303D02*
X007664Y037303D01*
X007664Y037325D02*
X007436Y037325D01*
X007436Y037347D02*
X007664Y037347D01*
X007664Y037369D02*
X007436Y037369D01*
X007436Y037391D02*
X007664Y037391D01*
X007664Y037413D02*
X007436Y037413D01*
X007436Y037435D02*
X007664Y037435D01*
X007664Y037457D02*
X007436Y037457D01*
X007436Y037479D02*
X007664Y037479D01*
X007664Y037501D02*
X007436Y037501D01*
X007436Y037523D02*
X007664Y037523D01*
X007936Y037539D02*
X007936Y037061D01*
X007936Y037539D02*
X008164Y037539D01*
X008164Y037061D01*
X007936Y037061D01*
X007936Y037083D02*
X008164Y037083D01*
X008164Y037105D02*
X007936Y037105D01*
X007936Y037127D02*
X008164Y037127D01*
X008164Y037149D02*
X007936Y037149D01*
X007936Y037171D02*
X008164Y037171D01*
X008164Y037193D02*
X007936Y037193D01*
X007936Y037215D02*
X008164Y037215D01*
X008164Y037237D02*
X007936Y037237D01*
X007936Y037259D02*
X008164Y037259D01*
X008164Y037281D02*
X007936Y037281D01*
X007936Y037303D02*
X008164Y037303D01*
X008164Y037325D02*
X007936Y037325D01*
X007936Y037347D02*
X008164Y037347D01*
X008164Y037369D02*
X007936Y037369D01*
X007936Y037391D02*
X008164Y037391D01*
X008164Y037413D02*
X007936Y037413D01*
X007936Y037435D02*
X008164Y037435D01*
X008164Y037457D02*
X007936Y037457D01*
X007936Y037479D02*
X008164Y037479D01*
X008164Y037501D02*
X007936Y037501D01*
X007936Y037523D02*
X008164Y037523D01*
X008436Y037539D02*
X008436Y037061D01*
X008436Y037539D02*
X008664Y037539D01*
X008664Y037061D01*
X008436Y037061D01*
X008436Y037083D02*
X008664Y037083D01*
X008664Y037105D02*
X008436Y037105D01*
X008436Y037127D02*
X008664Y037127D01*
X008664Y037149D02*
X008436Y037149D01*
X008436Y037171D02*
X008664Y037171D01*
X008664Y037193D02*
X008436Y037193D01*
X008436Y037215D02*
X008664Y037215D01*
X008664Y037237D02*
X008436Y037237D01*
X008436Y037259D02*
X008664Y037259D01*
X008664Y037281D02*
X008436Y037281D01*
X008436Y037303D02*
X008664Y037303D01*
X008664Y037325D02*
X008436Y037325D01*
X008436Y037347D02*
X008664Y037347D01*
X008664Y037369D02*
X008436Y037369D01*
X008436Y037391D02*
X008664Y037391D01*
X008664Y037413D02*
X008436Y037413D01*
X008436Y037435D02*
X008664Y037435D01*
X008664Y037457D02*
X008436Y037457D01*
X008436Y037479D02*
X008664Y037479D01*
X008664Y037501D02*
X008436Y037501D01*
X008436Y037523D02*
X008664Y037523D01*
X008936Y037539D02*
X008936Y037061D01*
X008936Y037539D02*
X009164Y037539D01*
X009164Y037061D01*
X008936Y037061D01*
X008936Y037083D02*
X009164Y037083D01*
X009164Y037105D02*
X008936Y037105D01*
X008936Y037127D02*
X009164Y037127D01*
X009164Y037149D02*
X008936Y037149D01*
X008936Y037171D02*
X009164Y037171D01*
X009164Y037193D02*
X008936Y037193D01*
X008936Y037215D02*
X009164Y037215D01*
X009164Y037237D02*
X008936Y037237D01*
X008936Y037259D02*
X009164Y037259D01*
X009164Y037281D02*
X008936Y037281D01*
X008936Y037303D02*
X009164Y037303D01*
X009164Y037325D02*
X008936Y037325D01*
X008936Y037347D02*
X009164Y037347D01*
X009164Y037369D02*
X008936Y037369D01*
X008936Y037391D02*
X009164Y037391D01*
X009164Y037413D02*
X008936Y037413D01*
X008936Y037435D02*
X009164Y037435D01*
X009164Y037457D02*
X008936Y037457D01*
X008936Y037479D02*
X009164Y037479D01*
X009164Y037501D02*
X008936Y037501D01*
X008936Y037523D02*
X009164Y037523D01*
X009436Y037539D02*
X009436Y037061D01*
X009436Y037539D02*
X009664Y037539D01*
X009664Y037061D01*
X009436Y037061D01*
X009436Y037083D02*
X009664Y037083D01*
X009664Y037105D02*
X009436Y037105D01*
X009436Y037127D02*
X009664Y037127D01*
X009664Y037149D02*
X009436Y037149D01*
X009436Y037171D02*
X009664Y037171D01*
X009664Y037193D02*
X009436Y037193D01*
X009436Y037215D02*
X009664Y037215D01*
X009664Y037237D02*
X009436Y037237D01*
X009436Y037259D02*
X009664Y037259D01*
X009664Y037281D02*
X009436Y037281D01*
X009436Y037303D02*
X009664Y037303D01*
X009664Y037325D02*
X009436Y037325D01*
X009436Y037347D02*
X009664Y037347D01*
X009664Y037369D02*
X009436Y037369D01*
X009436Y037391D02*
X009664Y037391D01*
X009664Y037413D02*
X009436Y037413D01*
X009436Y037435D02*
X009664Y037435D01*
X009664Y037457D02*
X009436Y037457D01*
X009436Y037479D02*
X009664Y037479D01*
X009664Y037501D02*
X009436Y037501D01*
X009436Y037523D02*
X009664Y037523D01*
X009936Y037539D02*
X009936Y037061D01*
X009936Y037539D02*
X010164Y037539D01*
X010164Y037061D01*
X009936Y037061D01*
X009936Y037083D02*
X010164Y037083D01*
X010164Y037105D02*
X009936Y037105D01*
X009936Y037127D02*
X010164Y037127D01*
X010164Y037149D02*
X009936Y037149D01*
X009936Y037171D02*
X010164Y037171D01*
X010164Y037193D02*
X009936Y037193D01*
X009936Y037215D02*
X010164Y037215D01*
X010164Y037237D02*
X009936Y037237D01*
X009936Y037259D02*
X010164Y037259D01*
X010164Y037281D02*
X009936Y037281D01*
X009936Y037303D02*
X010164Y037303D01*
X010164Y037325D02*
X009936Y037325D01*
X009936Y037347D02*
X010164Y037347D01*
X010164Y037369D02*
X009936Y037369D01*
X009936Y037391D02*
X010164Y037391D01*
X010164Y037413D02*
X009936Y037413D01*
X009936Y037435D02*
X010164Y037435D01*
X010164Y037457D02*
X009936Y037457D01*
X009936Y037479D02*
X010164Y037479D01*
X010164Y037501D02*
X009936Y037501D01*
X009936Y037523D02*
X010164Y037523D01*
X010436Y037539D02*
X010436Y037061D01*
X010436Y037539D02*
X010664Y037539D01*
X010664Y037061D01*
X010436Y037061D01*
X010436Y037083D02*
X010664Y037083D01*
X010664Y037105D02*
X010436Y037105D01*
X010436Y037127D02*
X010664Y037127D01*
X010664Y037149D02*
X010436Y037149D01*
X010436Y037171D02*
X010664Y037171D01*
X010664Y037193D02*
X010436Y037193D01*
X010436Y037215D02*
X010664Y037215D01*
X010664Y037237D02*
X010436Y037237D01*
X010436Y037259D02*
X010664Y037259D01*
X010664Y037281D02*
X010436Y037281D01*
X010436Y037303D02*
X010664Y037303D01*
X010664Y037325D02*
X010436Y037325D01*
X010436Y037347D02*
X010664Y037347D01*
X010664Y037369D02*
X010436Y037369D01*
X010436Y037391D02*
X010664Y037391D01*
X010664Y037413D02*
X010436Y037413D01*
X010436Y037435D02*
X010664Y037435D01*
X010664Y037457D02*
X010436Y037457D01*
X010436Y037479D02*
X010664Y037479D01*
X010664Y037501D02*
X010436Y037501D01*
X010436Y037523D02*
X010664Y037523D01*
X010936Y037539D02*
X010936Y037061D01*
X010936Y037539D02*
X011164Y037539D01*
X011164Y037061D01*
X010936Y037061D01*
X010936Y037083D02*
X011164Y037083D01*
X011164Y037105D02*
X010936Y037105D01*
X010936Y037127D02*
X011164Y037127D01*
X011164Y037149D02*
X010936Y037149D01*
X010936Y037171D02*
X011164Y037171D01*
X011164Y037193D02*
X010936Y037193D01*
X010936Y037215D02*
X011164Y037215D01*
X011164Y037237D02*
X010936Y037237D01*
X010936Y037259D02*
X011164Y037259D01*
X011164Y037281D02*
X010936Y037281D01*
X010936Y037303D02*
X011164Y037303D01*
X011164Y037325D02*
X010936Y037325D01*
X010936Y037347D02*
X011164Y037347D01*
X011164Y037369D02*
X010936Y037369D01*
X010936Y037391D02*
X011164Y037391D01*
X011164Y037413D02*
X010936Y037413D01*
X010936Y037435D02*
X011164Y037435D01*
X011164Y037457D02*
X010936Y037457D01*
X010936Y037479D02*
X011164Y037479D01*
X011164Y037501D02*
X010936Y037501D01*
X010936Y037523D02*
X011164Y037523D01*
X010936Y036789D02*
X010936Y036311D01*
X010936Y036789D02*
X011164Y036789D01*
X011164Y036311D01*
X010936Y036311D01*
X010936Y036333D02*
X011164Y036333D01*
X011164Y036355D02*
X010936Y036355D01*
X010936Y036377D02*
X011164Y036377D01*
X011164Y036399D02*
X010936Y036399D01*
X010936Y036421D02*
X011164Y036421D01*
X011164Y036443D02*
X010936Y036443D01*
X010936Y036465D02*
X011164Y036465D01*
X011164Y036487D02*
X010936Y036487D01*
X010936Y036509D02*
X011164Y036509D01*
X011164Y036531D02*
X010936Y036531D01*
X010936Y036553D02*
X011164Y036553D01*
X011164Y036575D02*
X010936Y036575D01*
X010936Y036597D02*
X011164Y036597D01*
X011164Y036619D02*
X010936Y036619D01*
X010936Y036641D02*
X011164Y036641D01*
X011164Y036663D02*
X010936Y036663D01*
X010936Y036685D02*
X011164Y036685D01*
X011164Y036707D02*
X010936Y036707D01*
X010936Y036729D02*
X011164Y036729D01*
X011164Y036751D02*
X010936Y036751D01*
X010936Y036773D02*
X011164Y036773D01*
X010436Y036789D02*
X010436Y036311D01*
X010436Y036789D02*
X010664Y036789D01*
X010664Y036311D01*
X010436Y036311D01*
X010436Y036333D02*
X010664Y036333D01*
X010664Y036355D02*
X010436Y036355D01*
X010436Y036377D02*
X010664Y036377D01*
X010664Y036399D02*
X010436Y036399D01*
X010436Y036421D02*
X010664Y036421D01*
X010664Y036443D02*
X010436Y036443D01*
X010436Y036465D02*
X010664Y036465D01*
X010664Y036487D02*
X010436Y036487D01*
X010436Y036509D02*
X010664Y036509D01*
X010664Y036531D02*
X010436Y036531D01*
X010436Y036553D02*
X010664Y036553D01*
X010664Y036575D02*
X010436Y036575D01*
X010436Y036597D02*
X010664Y036597D01*
X010664Y036619D02*
X010436Y036619D01*
X010436Y036641D02*
X010664Y036641D01*
X010664Y036663D02*
X010436Y036663D01*
X010436Y036685D02*
X010664Y036685D01*
X010664Y036707D02*
X010436Y036707D01*
X010436Y036729D02*
X010664Y036729D01*
X010664Y036751D02*
X010436Y036751D01*
X010436Y036773D02*
X010664Y036773D01*
X009936Y036789D02*
X009936Y036311D01*
X009936Y036789D02*
X010164Y036789D01*
X010164Y036311D01*
X009936Y036311D01*
X009936Y036333D02*
X010164Y036333D01*
X010164Y036355D02*
X009936Y036355D01*
X009936Y036377D02*
X010164Y036377D01*
X010164Y036399D02*
X009936Y036399D01*
X009936Y036421D02*
X010164Y036421D01*
X010164Y036443D02*
X009936Y036443D01*
X009936Y036465D02*
X010164Y036465D01*
X010164Y036487D02*
X009936Y036487D01*
X009936Y036509D02*
X010164Y036509D01*
X010164Y036531D02*
X009936Y036531D01*
X009936Y036553D02*
X010164Y036553D01*
X010164Y036575D02*
X009936Y036575D01*
X009936Y036597D02*
X010164Y036597D01*
X010164Y036619D02*
X009936Y036619D01*
X009936Y036641D02*
X010164Y036641D01*
X010164Y036663D02*
X009936Y036663D01*
X009936Y036685D02*
X010164Y036685D01*
X010164Y036707D02*
X009936Y036707D01*
X009936Y036729D02*
X010164Y036729D01*
X010164Y036751D02*
X009936Y036751D01*
X009936Y036773D02*
X010164Y036773D01*
X009436Y036789D02*
X009436Y036311D01*
X009436Y036789D02*
X009664Y036789D01*
X009664Y036311D01*
X009436Y036311D01*
X009436Y036333D02*
X009664Y036333D01*
X009664Y036355D02*
X009436Y036355D01*
X009436Y036377D02*
X009664Y036377D01*
X009664Y036399D02*
X009436Y036399D01*
X009436Y036421D02*
X009664Y036421D01*
X009664Y036443D02*
X009436Y036443D01*
X009436Y036465D02*
X009664Y036465D01*
X009664Y036487D02*
X009436Y036487D01*
X009436Y036509D02*
X009664Y036509D01*
X009664Y036531D02*
X009436Y036531D01*
X009436Y036553D02*
X009664Y036553D01*
X009664Y036575D02*
X009436Y036575D01*
X009436Y036597D02*
X009664Y036597D01*
X009664Y036619D02*
X009436Y036619D01*
X009436Y036641D02*
X009664Y036641D01*
X009664Y036663D02*
X009436Y036663D01*
X009436Y036685D02*
X009664Y036685D01*
X009664Y036707D02*
X009436Y036707D01*
X009436Y036729D02*
X009664Y036729D01*
X009664Y036751D02*
X009436Y036751D01*
X009436Y036773D02*
X009664Y036773D01*
X008936Y036789D02*
X008936Y036311D01*
X008936Y036789D02*
X009164Y036789D01*
X009164Y036311D01*
X008936Y036311D01*
X008936Y036333D02*
X009164Y036333D01*
X009164Y036355D02*
X008936Y036355D01*
X008936Y036377D02*
X009164Y036377D01*
X009164Y036399D02*
X008936Y036399D01*
X008936Y036421D02*
X009164Y036421D01*
X009164Y036443D02*
X008936Y036443D01*
X008936Y036465D02*
X009164Y036465D01*
X009164Y036487D02*
X008936Y036487D01*
X008936Y036509D02*
X009164Y036509D01*
X009164Y036531D02*
X008936Y036531D01*
X008936Y036553D02*
X009164Y036553D01*
X009164Y036575D02*
X008936Y036575D01*
X008936Y036597D02*
X009164Y036597D01*
X009164Y036619D02*
X008936Y036619D01*
X008936Y036641D02*
X009164Y036641D01*
X009164Y036663D02*
X008936Y036663D01*
X008936Y036685D02*
X009164Y036685D01*
X009164Y036707D02*
X008936Y036707D01*
X008936Y036729D02*
X009164Y036729D01*
X009164Y036751D02*
X008936Y036751D01*
X008936Y036773D02*
X009164Y036773D01*
X008436Y036789D02*
X008436Y036311D01*
X008436Y036789D02*
X008664Y036789D01*
X008664Y036311D01*
X008436Y036311D01*
X008436Y036333D02*
X008664Y036333D01*
X008664Y036355D02*
X008436Y036355D01*
X008436Y036377D02*
X008664Y036377D01*
X008664Y036399D02*
X008436Y036399D01*
X008436Y036421D02*
X008664Y036421D01*
X008664Y036443D02*
X008436Y036443D01*
X008436Y036465D02*
X008664Y036465D01*
X008664Y036487D02*
X008436Y036487D01*
X008436Y036509D02*
X008664Y036509D01*
X008664Y036531D02*
X008436Y036531D01*
X008436Y036553D02*
X008664Y036553D01*
X008664Y036575D02*
X008436Y036575D01*
X008436Y036597D02*
X008664Y036597D01*
X008664Y036619D02*
X008436Y036619D01*
X008436Y036641D02*
X008664Y036641D01*
X008664Y036663D02*
X008436Y036663D01*
X008436Y036685D02*
X008664Y036685D01*
X008664Y036707D02*
X008436Y036707D01*
X008436Y036729D02*
X008664Y036729D01*
X008664Y036751D02*
X008436Y036751D01*
X008436Y036773D02*
X008664Y036773D01*
X007936Y036789D02*
X007936Y036311D01*
X007936Y036789D02*
X008164Y036789D01*
X008164Y036311D01*
X007936Y036311D01*
X007936Y036333D02*
X008164Y036333D01*
X008164Y036355D02*
X007936Y036355D01*
X007936Y036377D02*
X008164Y036377D01*
X008164Y036399D02*
X007936Y036399D01*
X007936Y036421D02*
X008164Y036421D01*
X008164Y036443D02*
X007936Y036443D01*
X007936Y036465D02*
X008164Y036465D01*
X008164Y036487D02*
X007936Y036487D01*
X007936Y036509D02*
X008164Y036509D01*
X008164Y036531D02*
X007936Y036531D01*
X007936Y036553D02*
X008164Y036553D01*
X008164Y036575D02*
X007936Y036575D01*
X007936Y036597D02*
X008164Y036597D01*
X008164Y036619D02*
X007936Y036619D01*
X007936Y036641D02*
X008164Y036641D01*
X008164Y036663D02*
X007936Y036663D01*
X007936Y036685D02*
X008164Y036685D01*
X008164Y036707D02*
X007936Y036707D01*
X007936Y036729D02*
X008164Y036729D01*
X008164Y036751D02*
X007936Y036751D01*
X007936Y036773D02*
X008164Y036773D01*
X007436Y036789D02*
X007436Y036311D01*
X007436Y036789D02*
X007664Y036789D01*
X007664Y036311D01*
X007436Y036311D01*
X007436Y036333D02*
X007664Y036333D01*
X007664Y036355D02*
X007436Y036355D01*
X007436Y036377D02*
X007664Y036377D01*
X007664Y036399D02*
X007436Y036399D01*
X007436Y036421D02*
X007664Y036421D01*
X007664Y036443D02*
X007436Y036443D01*
X007436Y036465D02*
X007664Y036465D01*
X007664Y036487D02*
X007436Y036487D01*
X007436Y036509D02*
X007664Y036509D01*
X007664Y036531D02*
X007436Y036531D01*
X007436Y036553D02*
X007664Y036553D01*
X007664Y036575D02*
X007436Y036575D01*
X007436Y036597D02*
X007664Y036597D01*
X007664Y036619D02*
X007436Y036619D01*
X007436Y036641D02*
X007664Y036641D01*
X007664Y036663D02*
X007436Y036663D01*
X007436Y036685D02*
X007664Y036685D01*
X007664Y036707D02*
X007436Y036707D01*
X007436Y036729D02*
X007664Y036729D01*
X007664Y036751D02*
X007436Y036751D01*
X007436Y036773D02*
X007664Y036773D01*
X006936Y036789D02*
X006936Y036311D01*
X006936Y036789D02*
X007164Y036789D01*
X007164Y036311D01*
X006936Y036311D01*
X006936Y036333D02*
X007164Y036333D01*
X007164Y036355D02*
X006936Y036355D01*
X006936Y036377D02*
X007164Y036377D01*
X007164Y036399D02*
X006936Y036399D01*
X006936Y036421D02*
X007164Y036421D01*
X007164Y036443D02*
X006936Y036443D01*
X006936Y036465D02*
X007164Y036465D01*
X007164Y036487D02*
X006936Y036487D01*
X006936Y036509D02*
X007164Y036509D01*
X007164Y036531D02*
X006936Y036531D01*
X006936Y036553D02*
X007164Y036553D01*
X007164Y036575D02*
X006936Y036575D01*
X006936Y036597D02*
X007164Y036597D01*
X007164Y036619D02*
X006936Y036619D01*
X006936Y036641D02*
X007164Y036641D01*
X007164Y036663D02*
X006936Y036663D01*
X006936Y036685D02*
X007164Y036685D01*
X007164Y036707D02*
X006936Y036707D01*
X006936Y036729D02*
X007164Y036729D01*
X007164Y036751D02*
X006936Y036751D01*
X006936Y036773D02*
X007164Y036773D01*
X014436Y036789D02*
X014436Y036311D01*
X014436Y036789D02*
X014664Y036789D01*
X014664Y036311D01*
X014436Y036311D01*
X014436Y036333D02*
X014664Y036333D01*
X014664Y036355D02*
X014436Y036355D01*
X014436Y036377D02*
X014664Y036377D01*
X014664Y036399D02*
X014436Y036399D01*
X014436Y036421D02*
X014664Y036421D01*
X014664Y036443D02*
X014436Y036443D01*
X014436Y036465D02*
X014664Y036465D01*
X014664Y036487D02*
X014436Y036487D01*
X014436Y036509D02*
X014664Y036509D01*
X014664Y036531D02*
X014436Y036531D01*
X014436Y036553D02*
X014664Y036553D01*
X014664Y036575D02*
X014436Y036575D01*
X014436Y036597D02*
X014664Y036597D01*
X014664Y036619D02*
X014436Y036619D01*
X014436Y036641D02*
X014664Y036641D01*
X014664Y036663D02*
X014436Y036663D01*
X014436Y036685D02*
X014664Y036685D01*
X014664Y036707D02*
X014436Y036707D01*
X014436Y036729D02*
X014664Y036729D01*
X014664Y036751D02*
X014436Y036751D01*
X014436Y036773D02*
X014664Y036773D01*
X014936Y036789D02*
X014936Y036311D01*
X014936Y036789D02*
X015164Y036789D01*
X015164Y036311D01*
X014936Y036311D01*
X014936Y036333D02*
X015164Y036333D01*
X015164Y036355D02*
X014936Y036355D01*
X014936Y036377D02*
X015164Y036377D01*
X015164Y036399D02*
X014936Y036399D01*
X014936Y036421D02*
X015164Y036421D01*
X015164Y036443D02*
X014936Y036443D01*
X014936Y036465D02*
X015164Y036465D01*
X015164Y036487D02*
X014936Y036487D01*
X014936Y036509D02*
X015164Y036509D01*
X015164Y036531D02*
X014936Y036531D01*
X014936Y036553D02*
X015164Y036553D01*
X015164Y036575D02*
X014936Y036575D01*
X014936Y036597D02*
X015164Y036597D01*
X015164Y036619D02*
X014936Y036619D01*
X014936Y036641D02*
X015164Y036641D01*
X015164Y036663D02*
X014936Y036663D01*
X014936Y036685D02*
X015164Y036685D01*
X015164Y036707D02*
X014936Y036707D01*
X014936Y036729D02*
X015164Y036729D01*
X015164Y036751D02*
X014936Y036751D01*
X014936Y036773D02*
X015164Y036773D01*
X015436Y036789D02*
X015436Y036311D01*
X015436Y036789D02*
X015664Y036789D01*
X015664Y036311D01*
X015436Y036311D01*
X015436Y036333D02*
X015664Y036333D01*
X015664Y036355D02*
X015436Y036355D01*
X015436Y036377D02*
X015664Y036377D01*
X015664Y036399D02*
X015436Y036399D01*
X015436Y036421D02*
X015664Y036421D01*
X015664Y036443D02*
X015436Y036443D01*
X015436Y036465D02*
X015664Y036465D01*
X015664Y036487D02*
X015436Y036487D01*
X015436Y036509D02*
X015664Y036509D01*
X015664Y036531D02*
X015436Y036531D01*
X015436Y036553D02*
X015664Y036553D01*
X015664Y036575D02*
X015436Y036575D01*
X015436Y036597D02*
X015664Y036597D01*
X015664Y036619D02*
X015436Y036619D01*
X015436Y036641D02*
X015664Y036641D01*
X015664Y036663D02*
X015436Y036663D01*
X015436Y036685D02*
X015664Y036685D01*
X015664Y036707D02*
X015436Y036707D01*
X015436Y036729D02*
X015664Y036729D01*
X015664Y036751D02*
X015436Y036751D01*
X015436Y036773D02*
X015664Y036773D01*
X015436Y037061D02*
X015436Y037539D01*
X015664Y037539D01*
X015664Y037061D01*
X015436Y037061D01*
X015436Y037083D02*
X015664Y037083D01*
X015664Y037105D02*
X015436Y037105D01*
X015436Y037127D02*
X015664Y037127D01*
X015664Y037149D02*
X015436Y037149D01*
X015436Y037171D02*
X015664Y037171D01*
X015664Y037193D02*
X015436Y037193D01*
X015436Y037215D02*
X015664Y037215D01*
X015664Y037237D02*
X015436Y037237D01*
X015436Y037259D02*
X015664Y037259D01*
X015664Y037281D02*
X015436Y037281D01*
X015436Y037303D02*
X015664Y037303D01*
X015664Y037325D02*
X015436Y037325D01*
X015436Y037347D02*
X015664Y037347D01*
X015664Y037369D02*
X015436Y037369D01*
X015436Y037391D02*
X015664Y037391D01*
X015664Y037413D02*
X015436Y037413D01*
X015436Y037435D02*
X015664Y037435D01*
X015664Y037457D02*
X015436Y037457D01*
X015436Y037479D02*
X015664Y037479D01*
X015664Y037501D02*
X015436Y037501D01*
X015436Y037523D02*
X015664Y037523D01*
X015936Y037539D02*
X015936Y037061D01*
X015936Y037539D02*
X016164Y037539D01*
X016164Y037061D01*
X015936Y037061D01*
X015936Y037083D02*
X016164Y037083D01*
X016164Y037105D02*
X015936Y037105D01*
X015936Y037127D02*
X016164Y037127D01*
X016164Y037149D02*
X015936Y037149D01*
X015936Y037171D02*
X016164Y037171D01*
X016164Y037193D02*
X015936Y037193D01*
X015936Y037215D02*
X016164Y037215D01*
X016164Y037237D02*
X015936Y037237D01*
X015936Y037259D02*
X016164Y037259D01*
X016164Y037281D02*
X015936Y037281D01*
X015936Y037303D02*
X016164Y037303D01*
X016164Y037325D02*
X015936Y037325D01*
X015936Y037347D02*
X016164Y037347D01*
X016164Y037369D02*
X015936Y037369D01*
X015936Y037391D02*
X016164Y037391D01*
X016164Y037413D02*
X015936Y037413D01*
X015936Y037435D02*
X016164Y037435D01*
X016164Y037457D02*
X015936Y037457D01*
X015936Y037479D02*
X016164Y037479D01*
X016164Y037501D02*
X015936Y037501D01*
X015936Y037523D02*
X016164Y037523D01*
X016436Y037539D02*
X016436Y037061D01*
X016436Y037539D02*
X016664Y037539D01*
X016664Y037061D01*
X016436Y037061D01*
X016436Y037083D02*
X016664Y037083D01*
X016664Y037105D02*
X016436Y037105D01*
X016436Y037127D02*
X016664Y037127D01*
X016664Y037149D02*
X016436Y037149D01*
X016436Y037171D02*
X016664Y037171D01*
X016664Y037193D02*
X016436Y037193D01*
X016436Y037215D02*
X016664Y037215D01*
X016664Y037237D02*
X016436Y037237D01*
X016436Y037259D02*
X016664Y037259D01*
X016664Y037281D02*
X016436Y037281D01*
X016436Y037303D02*
X016664Y037303D01*
X016664Y037325D02*
X016436Y037325D01*
X016436Y037347D02*
X016664Y037347D01*
X016664Y037369D02*
X016436Y037369D01*
X016436Y037391D02*
X016664Y037391D01*
X016664Y037413D02*
X016436Y037413D01*
X016436Y037435D02*
X016664Y037435D01*
X016664Y037457D02*
X016436Y037457D01*
X016436Y037479D02*
X016664Y037479D01*
X016664Y037501D02*
X016436Y037501D01*
X016436Y037523D02*
X016664Y037523D01*
X016936Y037539D02*
X016936Y037061D01*
X016936Y037539D02*
X017164Y037539D01*
X017164Y037061D01*
X016936Y037061D01*
X016936Y037083D02*
X017164Y037083D01*
X017164Y037105D02*
X016936Y037105D01*
X016936Y037127D02*
X017164Y037127D01*
X017164Y037149D02*
X016936Y037149D01*
X016936Y037171D02*
X017164Y037171D01*
X017164Y037193D02*
X016936Y037193D01*
X016936Y037215D02*
X017164Y037215D01*
X017164Y037237D02*
X016936Y037237D01*
X016936Y037259D02*
X017164Y037259D01*
X017164Y037281D02*
X016936Y037281D01*
X016936Y037303D02*
X017164Y037303D01*
X017164Y037325D02*
X016936Y037325D01*
X016936Y037347D02*
X017164Y037347D01*
X017164Y037369D02*
X016936Y037369D01*
X016936Y037391D02*
X017164Y037391D01*
X017164Y037413D02*
X016936Y037413D01*
X016936Y037435D02*
X017164Y037435D01*
X017164Y037457D02*
X016936Y037457D01*
X016936Y037479D02*
X017164Y037479D01*
X017164Y037501D02*
X016936Y037501D01*
X016936Y037523D02*
X017164Y037523D01*
X017436Y037539D02*
X017436Y037061D01*
X017436Y037539D02*
X017664Y037539D01*
X017664Y037061D01*
X017436Y037061D01*
X017436Y037083D02*
X017664Y037083D01*
X017664Y037105D02*
X017436Y037105D01*
X017436Y037127D02*
X017664Y037127D01*
X017664Y037149D02*
X017436Y037149D01*
X017436Y037171D02*
X017664Y037171D01*
X017664Y037193D02*
X017436Y037193D01*
X017436Y037215D02*
X017664Y037215D01*
X017664Y037237D02*
X017436Y037237D01*
X017436Y037259D02*
X017664Y037259D01*
X017664Y037281D02*
X017436Y037281D01*
X017436Y037303D02*
X017664Y037303D01*
X017664Y037325D02*
X017436Y037325D01*
X017436Y037347D02*
X017664Y037347D01*
X017664Y037369D02*
X017436Y037369D01*
X017436Y037391D02*
X017664Y037391D01*
X017664Y037413D02*
X017436Y037413D01*
X017436Y037435D02*
X017664Y037435D01*
X017664Y037457D02*
X017436Y037457D01*
X017436Y037479D02*
X017664Y037479D01*
X017664Y037501D02*
X017436Y037501D01*
X017436Y037523D02*
X017664Y037523D01*
X017936Y037539D02*
X017936Y037061D01*
X017936Y037539D02*
X018164Y037539D01*
X018164Y037061D01*
X017936Y037061D01*
X017936Y037083D02*
X018164Y037083D01*
X018164Y037105D02*
X017936Y037105D01*
X017936Y037127D02*
X018164Y037127D01*
X018164Y037149D02*
X017936Y037149D01*
X017936Y037171D02*
X018164Y037171D01*
X018164Y037193D02*
X017936Y037193D01*
X017936Y037215D02*
X018164Y037215D01*
X018164Y037237D02*
X017936Y037237D01*
X017936Y037259D02*
X018164Y037259D01*
X018164Y037281D02*
X017936Y037281D01*
X017936Y037303D02*
X018164Y037303D01*
X018164Y037325D02*
X017936Y037325D01*
X017936Y037347D02*
X018164Y037347D01*
X018164Y037369D02*
X017936Y037369D01*
X017936Y037391D02*
X018164Y037391D01*
X018164Y037413D02*
X017936Y037413D01*
X017936Y037435D02*
X018164Y037435D01*
X018164Y037457D02*
X017936Y037457D01*
X017936Y037479D02*
X018164Y037479D01*
X018164Y037501D02*
X017936Y037501D01*
X017936Y037523D02*
X018164Y037523D01*
X018436Y037539D02*
X018436Y037061D01*
X018436Y037539D02*
X018664Y037539D01*
X018664Y037061D01*
X018436Y037061D01*
X018436Y037083D02*
X018664Y037083D01*
X018664Y037105D02*
X018436Y037105D01*
X018436Y037127D02*
X018664Y037127D01*
X018664Y037149D02*
X018436Y037149D01*
X018436Y037171D02*
X018664Y037171D01*
X018664Y037193D02*
X018436Y037193D01*
X018436Y037215D02*
X018664Y037215D01*
X018664Y037237D02*
X018436Y037237D01*
X018436Y037259D02*
X018664Y037259D01*
X018664Y037281D02*
X018436Y037281D01*
X018436Y037303D02*
X018664Y037303D01*
X018664Y037325D02*
X018436Y037325D01*
X018436Y037347D02*
X018664Y037347D01*
X018664Y037369D02*
X018436Y037369D01*
X018436Y037391D02*
X018664Y037391D01*
X018664Y037413D02*
X018436Y037413D01*
X018436Y037435D02*
X018664Y037435D01*
X018664Y037457D02*
X018436Y037457D01*
X018436Y037479D02*
X018664Y037479D01*
X018664Y037501D02*
X018436Y037501D01*
X018436Y037523D02*
X018664Y037523D01*
X018936Y037539D02*
X018936Y037061D01*
X018936Y037539D02*
X019164Y037539D01*
X019164Y037061D01*
X018936Y037061D01*
X018936Y037083D02*
X019164Y037083D01*
X019164Y037105D02*
X018936Y037105D01*
X018936Y037127D02*
X019164Y037127D01*
X019164Y037149D02*
X018936Y037149D01*
X018936Y037171D02*
X019164Y037171D01*
X019164Y037193D02*
X018936Y037193D01*
X018936Y037215D02*
X019164Y037215D01*
X019164Y037237D02*
X018936Y037237D01*
X018936Y037259D02*
X019164Y037259D01*
X019164Y037281D02*
X018936Y037281D01*
X018936Y037303D02*
X019164Y037303D01*
X019164Y037325D02*
X018936Y037325D01*
X018936Y037347D02*
X019164Y037347D01*
X019164Y037369D02*
X018936Y037369D01*
X018936Y037391D02*
X019164Y037391D01*
X019164Y037413D02*
X018936Y037413D01*
X018936Y037435D02*
X019164Y037435D01*
X019164Y037457D02*
X018936Y037457D01*
X018936Y037479D02*
X019164Y037479D01*
X019164Y037501D02*
X018936Y037501D01*
X018936Y037523D02*
X019164Y037523D01*
X018936Y036789D02*
X018936Y036311D01*
X018936Y036789D02*
X019164Y036789D01*
X019164Y036311D01*
X018936Y036311D01*
X018936Y036333D02*
X019164Y036333D01*
X019164Y036355D02*
X018936Y036355D01*
X018936Y036377D02*
X019164Y036377D01*
X019164Y036399D02*
X018936Y036399D01*
X018936Y036421D02*
X019164Y036421D01*
X019164Y036443D02*
X018936Y036443D01*
X018936Y036465D02*
X019164Y036465D01*
X019164Y036487D02*
X018936Y036487D01*
X018936Y036509D02*
X019164Y036509D01*
X019164Y036531D02*
X018936Y036531D01*
X018936Y036553D02*
X019164Y036553D01*
X019164Y036575D02*
X018936Y036575D01*
X018936Y036597D02*
X019164Y036597D01*
X019164Y036619D02*
X018936Y036619D01*
X018936Y036641D02*
X019164Y036641D01*
X019164Y036663D02*
X018936Y036663D01*
X018936Y036685D02*
X019164Y036685D01*
X019164Y036707D02*
X018936Y036707D01*
X018936Y036729D02*
X019164Y036729D01*
X019164Y036751D02*
X018936Y036751D01*
X018936Y036773D02*
X019164Y036773D01*
X018436Y036789D02*
X018436Y036311D01*
X018436Y036789D02*
X018664Y036789D01*
X018664Y036311D01*
X018436Y036311D01*
X018436Y036333D02*
X018664Y036333D01*
X018664Y036355D02*
X018436Y036355D01*
X018436Y036377D02*
X018664Y036377D01*
X018664Y036399D02*
X018436Y036399D01*
X018436Y036421D02*
X018664Y036421D01*
X018664Y036443D02*
X018436Y036443D01*
X018436Y036465D02*
X018664Y036465D01*
X018664Y036487D02*
X018436Y036487D01*
X018436Y036509D02*
X018664Y036509D01*
X018664Y036531D02*
X018436Y036531D01*
X018436Y036553D02*
X018664Y036553D01*
X018664Y036575D02*
X018436Y036575D01*
X018436Y036597D02*
X018664Y036597D01*
X018664Y036619D02*
X018436Y036619D01*
X018436Y036641D02*
X018664Y036641D01*
X018664Y036663D02*
X018436Y036663D01*
X018436Y036685D02*
X018664Y036685D01*
X018664Y036707D02*
X018436Y036707D01*
X018436Y036729D02*
X018664Y036729D01*
X018664Y036751D02*
X018436Y036751D01*
X018436Y036773D02*
X018664Y036773D01*
X017936Y036789D02*
X017936Y036311D01*
X017936Y036789D02*
X018164Y036789D01*
X018164Y036311D01*
X017936Y036311D01*
X017936Y036333D02*
X018164Y036333D01*
X018164Y036355D02*
X017936Y036355D01*
X017936Y036377D02*
X018164Y036377D01*
X018164Y036399D02*
X017936Y036399D01*
X017936Y036421D02*
X018164Y036421D01*
X018164Y036443D02*
X017936Y036443D01*
X017936Y036465D02*
X018164Y036465D01*
X018164Y036487D02*
X017936Y036487D01*
X017936Y036509D02*
X018164Y036509D01*
X018164Y036531D02*
X017936Y036531D01*
X017936Y036553D02*
X018164Y036553D01*
X018164Y036575D02*
X017936Y036575D01*
X017936Y036597D02*
X018164Y036597D01*
X018164Y036619D02*
X017936Y036619D01*
X017936Y036641D02*
X018164Y036641D01*
X018164Y036663D02*
X017936Y036663D01*
X017936Y036685D02*
X018164Y036685D01*
X018164Y036707D02*
X017936Y036707D01*
X017936Y036729D02*
X018164Y036729D01*
X018164Y036751D02*
X017936Y036751D01*
X017936Y036773D02*
X018164Y036773D01*
X017436Y036789D02*
X017436Y036311D01*
X017436Y036789D02*
X017664Y036789D01*
X017664Y036311D01*
X017436Y036311D01*
X017436Y036333D02*
X017664Y036333D01*
X017664Y036355D02*
X017436Y036355D01*
X017436Y036377D02*
X017664Y036377D01*
X017664Y036399D02*
X017436Y036399D01*
X017436Y036421D02*
X017664Y036421D01*
X017664Y036443D02*
X017436Y036443D01*
X017436Y036465D02*
X017664Y036465D01*
X017664Y036487D02*
X017436Y036487D01*
X017436Y036509D02*
X017664Y036509D01*
X017664Y036531D02*
X017436Y036531D01*
X017436Y036553D02*
X017664Y036553D01*
X017664Y036575D02*
X017436Y036575D01*
X017436Y036597D02*
X017664Y036597D01*
X017664Y036619D02*
X017436Y036619D01*
X017436Y036641D02*
X017664Y036641D01*
X017664Y036663D02*
X017436Y036663D01*
X017436Y036685D02*
X017664Y036685D01*
X017664Y036707D02*
X017436Y036707D01*
X017436Y036729D02*
X017664Y036729D01*
X017664Y036751D02*
X017436Y036751D01*
X017436Y036773D02*
X017664Y036773D01*
X016936Y036789D02*
X016936Y036311D01*
X016936Y036789D02*
X017164Y036789D01*
X017164Y036311D01*
X016936Y036311D01*
X016936Y036333D02*
X017164Y036333D01*
X017164Y036355D02*
X016936Y036355D01*
X016936Y036377D02*
X017164Y036377D01*
X017164Y036399D02*
X016936Y036399D01*
X016936Y036421D02*
X017164Y036421D01*
X017164Y036443D02*
X016936Y036443D01*
X016936Y036465D02*
X017164Y036465D01*
X017164Y036487D02*
X016936Y036487D01*
X016936Y036509D02*
X017164Y036509D01*
X017164Y036531D02*
X016936Y036531D01*
X016936Y036553D02*
X017164Y036553D01*
X017164Y036575D02*
X016936Y036575D01*
X016936Y036597D02*
X017164Y036597D01*
X017164Y036619D02*
X016936Y036619D01*
X016936Y036641D02*
X017164Y036641D01*
X017164Y036663D02*
X016936Y036663D01*
X016936Y036685D02*
X017164Y036685D01*
X017164Y036707D02*
X016936Y036707D01*
X016936Y036729D02*
X017164Y036729D01*
X017164Y036751D02*
X016936Y036751D01*
X016936Y036773D02*
X017164Y036773D01*
X016436Y036789D02*
X016436Y036311D01*
X016436Y036789D02*
X016664Y036789D01*
X016664Y036311D01*
X016436Y036311D01*
X016436Y036333D02*
X016664Y036333D01*
X016664Y036355D02*
X016436Y036355D01*
X016436Y036377D02*
X016664Y036377D01*
X016664Y036399D02*
X016436Y036399D01*
X016436Y036421D02*
X016664Y036421D01*
X016664Y036443D02*
X016436Y036443D01*
X016436Y036465D02*
X016664Y036465D01*
X016664Y036487D02*
X016436Y036487D01*
X016436Y036509D02*
X016664Y036509D01*
X016664Y036531D02*
X016436Y036531D01*
X016436Y036553D02*
X016664Y036553D01*
X016664Y036575D02*
X016436Y036575D01*
X016436Y036597D02*
X016664Y036597D01*
X016664Y036619D02*
X016436Y036619D01*
X016436Y036641D02*
X016664Y036641D01*
X016664Y036663D02*
X016436Y036663D01*
X016436Y036685D02*
X016664Y036685D01*
X016664Y036707D02*
X016436Y036707D01*
X016436Y036729D02*
X016664Y036729D01*
X016664Y036751D02*
X016436Y036751D01*
X016436Y036773D02*
X016664Y036773D01*
X015936Y036789D02*
X015936Y036311D01*
X015936Y036789D02*
X016164Y036789D01*
X016164Y036311D01*
X015936Y036311D01*
X015936Y036333D02*
X016164Y036333D01*
X016164Y036355D02*
X015936Y036355D01*
X015936Y036377D02*
X016164Y036377D01*
X016164Y036399D02*
X015936Y036399D01*
X015936Y036421D02*
X016164Y036421D01*
X016164Y036443D02*
X015936Y036443D01*
X015936Y036465D02*
X016164Y036465D01*
X016164Y036487D02*
X015936Y036487D01*
X015936Y036509D02*
X016164Y036509D01*
X016164Y036531D02*
X015936Y036531D01*
X015936Y036553D02*
X016164Y036553D01*
X016164Y036575D02*
X015936Y036575D01*
X015936Y036597D02*
X016164Y036597D01*
X016164Y036619D02*
X015936Y036619D01*
X015936Y036641D02*
X016164Y036641D01*
X016164Y036663D02*
X015936Y036663D01*
X015936Y036685D02*
X016164Y036685D01*
X016164Y036707D02*
X015936Y036707D01*
X015936Y036729D02*
X016164Y036729D01*
X016164Y036751D02*
X015936Y036751D01*
X015936Y036773D02*
X016164Y036773D01*
X014936Y037061D02*
X014936Y037539D01*
X015164Y037539D01*
X015164Y037061D01*
X014936Y037061D01*
X014936Y037083D02*
X015164Y037083D01*
X015164Y037105D02*
X014936Y037105D01*
X014936Y037127D02*
X015164Y037127D01*
X015164Y037149D02*
X014936Y037149D01*
X014936Y037171D02*
X015164Y037171D01*
X015164Y037193D02*
X014936Y037193D01*
X014936Y037215D02*
X015164Y037215D01*
X015164Y037237D02*
X014936Y037237D01*
X014936Y037259D02*
X015164Y037259D01*
X015164Y037281D02*
X014936Y037281D01*
X014936Y037303D02*
X015164Y037303D01*
X015164Y037325D02*
X014936Y037325D01*
X014936Y037347D02*
X015164Y037347D01*
X015164Y037369D02*
X014936Y037369D01*
X014936Y037391D02*
X015164Y037391D01*
X015164Y037413D02*
X014936Y037413D01*
X014936Y037435D02*
X015164Y037435D01*
X015164Y037457D02*
X014936Y037457D01*
X014936Y037479D02*
X015164Y037479D01*
X015164Y037501D02*
X014936Y037501D01*
X014936Y037523D02*
X015164Y037523D01*
X014436Y037539D02*
X014436Y037061D01*
X014436Y037539D02*
X014664Y037539D01*
X014664Y037061D01*
X014436Y037061D01*
X014436Y037083D02*
X014664Y037083D01*
X014664Y037105D02*
X014436Y037105D01*
X014436Y037127D02*
X014664Y037127D01*
X014664Y037149D02*
X014436Y037149D01*
X014436Y037171D02*
X014664Y037171D01*
X014664Y037193D02*
X014436Y037193D01*
X014436Y037215D02*
X014664Y037215D01*
X014664Y037237D02*
X014436Y037237D01*
X014436Y037259D02*
X014664Y037259D01*
X014664Y037281D02*
X014436Y037281D01*
X014436Y037303D02*
X014664Y037303D01*
X014664Y037325D02*
X014436Y037325D01*
X014436Y037347D02*
X014664Y037347D01*
X014664Y037369D02*
X014436Y037369D01*
X014436Y037391D02*
X014664Y037391D01*
X014664Y037413D02*
X014436Y037413D01*
X014436Y037435D02*
X014664Y037435D01*
X014664Y037457D02*
X014436Y037457D01*
X014436Y037479D02*
X014664Y037479D01*
X014664Y037501D02*
X014436Y037501D01*
X014436Y037523D02*
X014664Y037523D01*
X021911Y034014D02*
X022389Y034014D01*
X022389Y033786D01*
X021911Y033786D01*
X021911Y034014D01*
X021911Y033808D02*
X022389Y033808D01*
X022389Y033830D02*
X021911Y033830D01*
X021911Y033852D02*
X022389Y033852D01*
X022389Y033874D02*
X021911Y033874D01*
X021911Y033896D02*
X022389Y033896D01*
X022389Y033918D02*
X021911Y033918D01*
X021911Y033940D02*
X022389Y033940D01*
X022389Y033962D02*
X021911Y033962D01*
X021911Y033984D02*
X022389Y033984D01*
X022389Y034006D02*
X021911Y034006D01*
X021911Y033514D02*
X022389Y033514D01*
X022389Y033286D01*
X021911Y033286D01*
X021911Y033514D01*
X021911Y033308D02*
X022389Y033308D01*
X022389Y033330D02*
X021911Y033330D01*
X021911Y033352D02*
X022389Y033352D01*
X022389Y033374D02*
X021911Y033374D01*
X021911Y033396D02*
X022389Y033396D01*
X022389Y033418D02*
X021911Y033418D01*
X021911Y033440D02*
X022389Y033440D01*
X022389Y033462D02*
X021911Y033462D01*
X021911Y033484D02*
X022389Y033484D01*
X022389Y033506D02*
X021911Y033506D01*
X021911Y033014D02*
X022389Y033014D01*
X022389Y032786D01*
X021911Y032786D01*
X021911Y033014D01*
X021911Y032808D02*
X022389Y032808D01*
X022389Y032830D02*
X021911Y032830D01*
X021911Y032852D02*
X022389Y032852D01*
X022389Y032874D02*
X021911Y032874D01*
X021911Y032896D02*
X022389Y032896D01*
X022389Y032918D02*
X021911Y032918D01*
X021911Y032940D02*
X022389Y032940D01*
X022389Y032962D02*
X021911Y032962D01*
X021911Y032984D02*
X022389Y032984D01*
X022389Y033006D02*
X021911Y033006D01*
X021911Y032514D02*
X022389Y032514D01*
X022389Y032286D01*
X021911Y032286D01*
X021911Y032514D01*
X021911Y032308D02*
X022389Y032308D01*
X022389Y032330D02*
X021911Y032330D01*
X021911Y032352D02*
X022389Y032352D01*
X022389Y032374D02*
X021911Y032374D01*
X021911Y032396D02*
X022389Y032396D01*
X022389Y032418D02*
X021911Y032418D01*
X021911Y032440D02*
X022389Y032440D01*
X022389Y032462D02*
X021911Y032462D01*
X021911Y032484D02*
X022389Y032484D01*
X022389Y032506D02*
X021911Y032506D01*
X021911Y032014D02*
X022389Y032014D01*
X022389Y031786D01*
X021911Y031786D01*
X021911Y032014D01*
X021911Y031808D02*
X022389Y031808D01*
X022389Y031830D02*
X021911Y031830D01*
X021911Y031852D02*
X022389Y031852D01*
X022389Y031874D02*
X021911Y031874D01*
X021911Y031896D02*
X022389Y031896D01*
X022389Y031918D02*
X021911Y031918D01*
X021911Y031940D02*
X022389Y031940D01*
X022389Y031962D02*
X021911Y031962D01*
X021911Y031984D02*
X022389Y031984D01*
X022389Y032006D02*
X021911Y032006D01*
X021911Y031514D02*
X022389Y031514D01*
X022389Y031286D01*
X021911Y031286D01*
X021911Y031514D01*
X021911Y031308D02*
X022389Y031308D01*
X022389Y031330D02*
X021911Y031330D01*
X021911Y031352D02*
X022389Y031352D01*
X022389Y031374D02*
X021911Y031374D01*
X021911Y031396D02*
X022389Y031396D01*
X022389Y031418D02*
X021911Y031418D01*
X021911Y031440D02*
X022389Y031440D01*
X022389Y031462D02*
X021911Y031462D01*
X021911Y031484D02*
X022389Y031484D01*
X022389Y031506D02*
X021911Y031506D01*
X021911Y031014D02*
X022389Y031014D01*
X022389Y030786D01*
X021911Y030786D01*
X021911Y031014D01*
X021911Y030808D02*
X022389Y030808D01*
X022389Y030830D02*
X021911Y030830D01*
X021911Y030852D02*
X022389Y030852D01*
X022389Y030874D02*
X021911Y030874D01*
X021911Y030896D02*
X022389Y030896D01*
X022389Y030918D02*
X021911Y030918D01*
X021911Y030940D02*
X022389Y030940D01*
X022389Y030962D02*
X021911Y030962D01*
X021911Y030984D02*
X022389Y030984D01*
X022389Y031006D02*
X021911Y031006D01*
X021911Y030514D02*
X022389Y030514D01*
X022389Y030286D01*
X021911Y030286D01*
X021911Y030514D01*
X021911Y030308D02*
X022389Y030308D01*
X022389Y030330D02*
X021911Y030330D01*
X021911Y030352D02*
X022389Y030352D01*
X022389Y030374D02*
X021911Y030374D01*
X021911Y030396D02*
X022389Y030396D01*
X022389Y030418D02*
X021911Y030418D01*
X021911Y030440D02*
X022389Y030440D01*
X022389Y030462D02*
X021911Y030462D01*
X021911Y030484D02*
X022389Y030484D01*
X022389Y030506D02*
X021911Y030506D01*
X021911Y030014D02*
X022389Y030014D01*
X022389Y029786D01*
X021911Y029786D01*
X021911Y030014D01*
X021911Y029808D02*
X022389Y029808D01*
X022389Y029830D02*
X021911Y029830D01*
X021911Y029852D02*
X022389Y029852D01*
X022389Y029874D02*
X021911Y029874D01*
X021911Y029896D02*
X022389Y029896D01*
X022389Y029918D02*
X021911Y029918D01*
X021911Y029940D02*
X022389Y029940D01*
X022389Y029962D02*
X021911Y029962D01*
X021911Y029984D02*
X022389Y029984D01*
X022389Y030006D02*
X021911Y030006D01*
X021911Y029514D02*
X022389Y029514D01*
X022389Y029286D01*
X021911Y029286D01*
X021911Y029514D01*
X021911Y029308D02*
X022389Y029308D01*
X022389Y029330D02*
X021911Y029330D01*
X021911Y029352D02*
X022389Y029352D01*
X022389Y029374D02*
X021911Y029374D01*
X021911Y029396D02*
X022389Y029396D01*
X022389Y029418D02*
X021911Y029418D01*
X021911Y029440D02*
X022389Y029440D01*
X022389Y029462D02*
X021911Y029462D01*
X021911Y029484D02*
X022389Y029484D01*
X022389Y029506D02*
X021911Y029506D01*
X021911Y029014D02*
X022389Y029014D01*
X022389Y028786D01*
X021911Y028786D01*
X021911Y029014D01*
X021911Y028808D02*
X022389Y028808D01*
X022389Y028830D02*
X021911Y028830D01*
X021911Y028852D02*
X022389Y028852D01*
X022389Y028874D02*
X021911Y028874D01*
X021911Y028896D02*
X022389Y028896D01*
X022389Y028918D02*
X021911Y028918D01*
X021911Y028940D02*
X022389Y028940D01*
X022389Y028962D02*
X021911Y028962D01*
X021911Y028984D02*
X022389Y028984D01*
X022389Y029006D02*
X021911Y029006D01*
X021911Y028514D02*
X022389Y028514D01*
X022389Y028286D01*
X021911Y028286D01*
X021911Y028514D01*
X021911Y028308D02*
X022389Y028308D01*
X022389Y028330D02*
X021911Y028330D01*
X021911Y028352D02*
X022389Y028352D01*
X022389Y028374D02*
X021911Y028374D01*
X021911Y028396D02*
X022389Y028396D01*
X022389Y028418D02*
X021911Y028418D01*
X021911Y028440D02*
X022389Y028440D01*
X022389Y028462D02*
X021911Y028462D01*
X021911Y028484D02*
X022389Y028484D01*
X022389Y028506D02*
X021911Y028506D01*
X021911Y028014D02*
X022389Y028014D01*
X022389Y027786D01*
X021911Y027786D01*
X021911Y028014D01*
X021911Y027808D02*
X022389Y027808D01*
X022389Y027830D02*
X021911Y027830D01*
X021911Y027852D02*
X022389Y027852D01*
X022389Y027874D02*
X021911Y027874D01*
X021911Y027896D02*
X022389Y027896D01*
X022389Y027918D02*
X021911Y027918D01*
X021911Y027940D02*
X022389Y027940D01*
X022389Y027962D02*
X021911Y027962D01*
X021911Y027984D02*
X022389Y027984D01*
X022389Y028006D02*
X021911Y028006D01*
X021911Y027514D02*
X022389Y027514D01*
X022389Y027286D01*
X021911Y027286D01*
X021911Y027514D01*
X021911Y027308D02*
X022389Y027308D01*
X022389Y027330D02*
X021911Y027330D01*
X021911Y027352D02*
X022389Y027352D01*
X022389Y027374D02*
X021911Y027374D01*
X021911Y027396D02*
X022389Y027396D01*
X022389Y027418D02*
X021911Y027418D01*
X021911Y027440D02*
X022389Y027440D01*
X022389Y027462D02*
X021911Y027462D01*
X021911Y027484D02*
X022389Y027484D01*
X022389Y027506D02*
X021911Y027506D01*
X021911Y027014D02*
X022389Y027014D01*
X022389Y026786D01*
X021911Y026786D01*
X021911Y027014D01*
X021911Y026808D02*
X022389Y026808D01*
X022389Y026830D02*
X021911Y026830D01*
X021911Y026852D02*
X022389Y026852D01*
X022389Y026874D02*
X021911Y026874D01*
X021911Y026896D02*
X022389Y026896D01*
X022389Y026918D02*
X021911Y026918D01*
X021911Y026940D02*
X022389Y026940D01*
X022389Y026962D02*
X021911Y026962D01*
X021911Y026984D02*
X022389Y026984D01*
X022389Y027006D02*
X021911Y027006D01*
X021911Y026514D02*
X022389Y026514D01*
X022389Y026286D01*
X021911Y026286D01*
X021911Y026514D01*
X021911Y026308D02*
X022389Y026308D01*
X022389Y026330D02*
X021911Y026330D01*
X021911Y026352D02*
X022389Y026352D01*
X022389Y026374D02*
X021911Y026374D01*
X021911Y026396D02*
X022389Y026396D01*
X022389Y026418D02*
X021911Y026418D01*
X021911Y026440D02*
X022389Y026440D01*
X022389Y026462D02*
X021911Y026462D01*
X021911Y026484D02*
X022389Y026484D01*
X022389Y026506D02*
X021911Y026506D01*
X021911Y026014D02*
X022389Y026014D01*
X022389Y025786D01*
X021911Y025786D01*
X021911Y026014D01*
X021911Y025808D02*
X022389Y025808D01*
X022389Y025830D02*
X021911Y025830D01*
X021911Y025852D02*
X022389Y025852D01*
X022389Y025874D02*
X021911Y025874D01*
X021911Y025896D02*
X022389Y025896D01*
X022389Y025918D02*
X021911Y025918D01*
X021911Y025940D02*
X022389Y025940D01*
X022389Y025962D02*
X021911Y025962D01*
X021911Y025984D02*
X022389Y025984D01*
X022389Y026006D02*
X021911Y026006D01*
X021911Y025514D02*
X022389Y025514D01*
X022389Y025286D01*
X021911Y025286D01*
X021911Y025514D01*
X021911Y025308D02*
X022389Y025308D01*
X022389Y025330D02*
X021911Y025330D01*
X021911Y025352D02*
X022389Y025352D01*
X022389Y025374D02*
X021911Y025374D01*
X021911Y025396D02*
X022389Y025396D01*
X022389Y025418D02*
X021911Y025418D01*
X021911Y025440D02*
X022389Y025440D01*
X022389Y025462D02*
X021911Y025462D01*
X021911Y025484D02*
X022389Y025484D01*
X022389Y025506D02*
X021911Y025506D01*
X021911Y025014D02*
X022389Y025014D01*
X022389Y024786D01*
X021911Y024786D01*
X021911Y025014D01*
X021911Y024808D02*
X022389Y024808D01*
X022389Y024830D02*
X021911Y024830D01*
X021911Y024852D02*
X022389Y024852D01*
X022389Y024874D02*
X021911Y024874D01*
X021911Y024896D02*
X022389Y024896D01*
X022389Y024918D02*
X021911Y024918D01*
X021911Y024940D02*
X022389Y024940D01*
X022389Y024962D02*
X021911Y024962D01*
X021911Y024984D02*
X022389Y024984D01*
X022389Y025006D02*
X021911Y025006D01*
X021911Y024514D02*
X022389Y024514D01*
X022389Y024286D01*
X021911Y024286D01*
X021911Y024514D01*
X021911Y024308D02*
X022389Y024308D01*
X022389Y024330D02*
X021911Y024330D01*
X021911Y024352D02*
X022389Y024352D01*
X022389Y024374D02*
X021911Y024374D01*
X021911Y024396D02*
X022389Y024396D01*
X022389Y024418D02*
X021911Y024418D01*
X021911Y024440D02*
X022389Y024440D01*
X022389Y024462D02*
X021911Y024462D01*
X021911Y024484D02*
X022389Y024484D01*
X022389Y024506D02*
X021911Y024506D01*
X021911Y024014D02*
X022389Y024014D01*
X022389Y023786D01*
X021911Y023786D01*
X021911Y024014D01*
X021911Y023808D02*
X022389Y023808D01*
X022389Y023830D02*
X021911Y023830D01*
X021911Y023852D02*
X022389Y023852D01*
X022389Y023874D02*
X021911Y023874D01*
X021911Y023896D02*
X022389Y023896D01*
X022389Y023918D02*
X021911Y023918D01*
X021911Y023940D02*
X022389Y023940D01*
X022389Y023962D02*
X021911Y023962D01*
X021911Y023984D02*
X022389Y023984D01*
X022389Y024006D02*
X021911Y024006D01*
X021911Y023514D02*
X022389Y023514D01*
X022389Y023286D01*
X021911Y023286D01*
X021911Y023514D01*
X021911Y023308D02*
X022389Y023308D01*
X022389Y023330D02*
X021911Y023330D01*
X021911Y023352D02*
X022389Y023352D01*
X022389Y023374D02*
X021911Y023374D01*
X021911Y023396D02*
X022389Y023396D01*
X022389Y023418D02*
X021911Y023418D01*
X021911Y023440D02*
X022389Y023440D01*
X022389Y023462D02*
X021911Y023462D01*
X021911Y023484D02*
X022389Y023484D01*
X022389Y023506D02*
X021911Y023506D01*
X021911Y023014D02*
X022389Y023014D01*
X022389Y022786D01*
X021911Y022786D01*
X021911Y023014D01*
X021911Y022808D02*
X022389Y022808D01*
X022389Y022830D02*
X021911Y022830D01*
X021911Y022852D02*
X022389Y022852D01*
X022389Y022874D02*
X021911Y022874D01*
X021911Y022896D02*
X022389Y022896D01*
X022389Y022918D02*
X021911Y022918D01*
X021911Y022940D02*
X022389Y022940D01*
X022389Y022962D02*
X021911Y022962D01*
X021911Y022984D02*
X022389Y022984D01*
X022389Y023006D02*
X021911Y023006D01*
X021911Y022514D02*
X022389Y022514D01*
X022389Y022286D01*
X021911Y022286D01*
X021911Y022514D01*
X021911Y022308D02*
X022389Y022308D01*
X022389Y022330D02*
X021911Y022330D01*
X021911Y022352D02*
X022389Y022352D01*
X022389Y022374D02*
X021911Y022374D01*
X021911Y022396D02*
X022389Y022396D01*
X022389Y022418D02*
X021911Y022418D01*
X021911Y022440D02*
X022389Y022440D01*
X022389Y022462D02*
X021911Y022462D01*
X021911Y022484D02*
X022389Y022484D01*
X022389Y022506D02*
X021911Y022506D01*
X021911Y022014D02*
X022389Y022014D01*
X022389Y021786D01*
X021911Y021786D01*
X021911Y022014D01*
X021911Y021808D02*
X022389Y021808D01*
X022389Y021830D02*
X021911Y021830D01*
X021911Y021852D02*
X022389Y021852D01*
X022389Y021874D02*
X021911Y021874D01*
X021911Y021896D02*
X022389Y021896D01*
X022389Y021918D02*
X021911Y021918D01*
X021911Y021940D02*
X022389Y021940D01*
X022389Y021962D02*
X021911Y021962D01*
X021911Y021984D02*
X022389Y021984D01*
X022389Y022006D02*
X021911Y022006D01*
X021911Y021514D02*
X022389Y021514D01*
X022389Y021286D01*
X021911Y021286D01*
X021911Y021514D01*
X021911Y021308D02*
X022389Y021308D01*
X022389Y021330D02*
X021911Y021330D01*
X021911Y021352D02*
X022389Y021352D01*
X022389Y021374D02*
X021911Y021374D01*
X021911Y021396D02*
X022389Y021396D01*
X022389Y021418D02*
X021911Y021418D01*
X021911Y021440D02*
X022389Y021440D01*
X022389Y021462D02*
X021911Y021462D01*
X021911Y021484D02*
X022389Y021484D01*
X022389Y021506D02*
X021911Y021506D01*
X021911Y021014D02*
X022389Y021014D01*
X022389Y020786D01*
X021911Y020786D01*
X021911Y021014D01*
X021911Y020808D02*
X022389Y020808D01*
X022389Y020830D02*
X021911Y020830D01*
X021911Y020852D02*
X022389Y020852D01*
X022389Y020874D02*
X021911Y020874D01*
X021911Y020896D02*
X022389Y020896D01*
X022389Y020918D02*
X021911Y020918D01*
X021911Y020940D02*
X022389Y020940D01*
X022389Y020962D02*
X021911Y020962D01*
X021911Y020984D02*
X022389Y020984D01*
X022389Y021006D02*
X021911Y021006D01*
X021911Y020514D02*
X022389Y020514D01*
X022389Y020286D01*
X021911Y020286D01*
X021911Y020514D01*
X021911Y020308D02*
X022389Y020308D01*
X022389Y020330D02*
X021911Y020330D01*
X021911Y020352D02*
X022389Y020352D01*
X022389Y020374D02*
X021911Y020374D01*
X021911Y020396D02*
X022389Y020396D01*
X022389Y020418D02*
X021911Y020418D01*
X021911Y020440D02*
X022389Y020440D01*
X022389Y020462D02*
X021911Y020462D01*
X021911Y020484D02*
X022389Y020484D01*
X022389Y020506D02*
X021911Y020506D01*
X021911Y020014D02*
X022389Y020014D01*
X022389Y019786D01*
X021911Y019786D01*
X021911Y020014D01*
X021911Y019808D02*
X022389Y019808D01*
X022389Y019830D02*
X021911Y019830D01*
X021911Y019852D02*
X022389Y019852D01*
X022389Y019874D02*
X021911Y019874D01*
X021911Y019896D02*
X022389Y019896D01*
X022389Y019918D02*
X021911Y019918D01*
X021911Y019940D02*
X022389Y019940D01*
X022389Y019962D02*
X021911Y019962D01*
X021911Y019984D02*
X022389Y019984D01*
X022389Y020006D02*
X021911Y020006D01*
X021911Y019514D02*
X022389Y019514D01*
X022389Y019286D01*
X021911Y019286D01*
X021911Y019514D01*
X021911Y019308D02*
X022389Y019308D01*
X022389Y019330D02*
X021911Y019330D01*
X021911Y019352D02*
X022389Y019352D01*
X022389Y019374D02*
X021911Y019374D01*
X021911Y019396D02*
X022389Y019396D01*
X022389Y019418D02*
X021911Y019418D01*
X021911Y019440D02*
X022389Y019440D01*
X022389Y019462D02*
X021911Y019462D01*
X021911Y019484D02*
X022389Y019484D01*
X022389Y019506D02*
X021911Y019506D01*
X021911Y019014D02*
X022389Y019014D01*
X022389Y018786D01*
X021911Y018786D01*
X021911Y019014D01*
X021911Y018808D02*
X022389Y018808D01*
X022389Y018830D02*
X021911Y018830D01*
X021911Y018852D02*
X022389Y018852D01*
X022389Y018874D02*
X021911Y018874D01*
X021911Y018896D02*
X022389Y018896D01*
X022389Y018918D02*
X021911Y018918D01*
X021911Y018940D02*
X022389Y018940D01*
X022389Y018962D02*
X021911Y018962D01*
X021911Y018984D02*
X022389Y018984D01*
X022389Y019006D02*
X021911Y019006D01*
X021911Y018514D02*
X022389Y018514D01*
X022389Y018286D01*
X021911Y018286D01*
X021911Y018514D01*
X021911Y018308D02*
X022389Y018308D01*
X022389Y018330D02*
X021911Y018330D01*
X021911Y018352D02*
X022389Y018352D01*
X022389Y018374D02*
X021911Y018374D01*
X021911Y018396D02*
X022389Y018396D01*
X022389Y018418D02*
X021911Y018418D01*
X021911Y018440D02*
X022389Y018440D01*
X022389Y018462D02*
X021911Y018462D01*
X021911Y018484D02*
X022389Y018484D01*
X022389Y018506D02*
X021911Y018506D01*
X021911Y018014D02*
X022389Y018014D01*
X022389Y017786D01*
X021911Y017786D01*
X021911Y018014D01*
X021911Y017808D02*
X022389Y017808D01*
X022389Y017830D02*
X021911Y017830D01*
X021911Y017852D02*
X022389Y017852D01*
X022389Y017874D02*
X021911Y017874D01*
X021911Y017896D02*
X022389Y017896D01*
X022389Y017918D02*
X021911Y017918D01*
X021911Y017940D02*
X022389Y017940D01*
X022389Y017962D02*
X021911Y017962D01*
X021911Y017984D02*
X022389Y017984D01*
X022389Y018006D02*
X021911Y018006D01*
X021911Y017514D02*
X022389Y017514D01*
X022389Y017286D01*
X021911Y017286D01*
X021911Y017514D01*
X021911Y017308D02*
X022389Y017308D01*
X022389Y017330D02*
X021911Y017330D01*
X021911Y017352D02*
X022389Y017352D01*
X022389Y017374D02*
X021911Y017374D01*
X021911Y017396D02*
X022389Y017396D01*
X022389Y017418D02*
X021911Y017418D01*
X021911Y017440D02*
X022389Y017440D01*
X022389Y017462D02*
X021911Y017462D01*
X021911Y017484D02*
X022389Y017484D01*
X022389Y017506D02*
X021911Y017506D01*
X021911Y017014D02*
X022389Y017014D01*
X022389Y016786D01*
X021911Y016786D01*
X021911Y017014D01*
X021911Y016808D02*
X022389Y016808D01*
X022389Y016830D02*
X021911Y016830D01*
X021911Y016852D02*
X022389Y016852D01*
X022389Y016874D02*
X021911Y016874D01*
X021911Y016896D02*
X022389Y016896D01*
X022389Y016918D02*
X021911Y016918D01*
X021911Y016940D02*
X022389Y016940D01*
X022389Y016962D02*
X021911Y016962D01*
X021911Y016984D02*
X022389Y016984D01*
X022389Y017006D02*
X021911Y017006D01*
X021911Y016514D02*
X022389Y016514D01*
X022389Y016286D01*
X021911Y016286D01*
X021911Y016514D01*
X021911Y016308D02*
X022389Y016308D01*
X022389Y016330D02*
X021911Y016330D01*
X021911Y016352D02*
X022389Y016352D01*
X022389Y016374D02*
X021911Y016374D01*
X021911Y016396D02*
X022389Y016396D01*
X022389Y016418D02*
X021911Y016418D01*
X021911Y016440D02*
X022389Y016440D01*
X022389Y016462D02*
X021911Y016462D01*
X021911Y016484D02*
X022389Y016484D01*
X022389Y016506D02*
X021911Y016506D01*
X021911Y016014D02*
X022389Y016014D01*
X022389Y015786D01*
X021911Y015786D01*
X021911Y016014D01*
X021911Y015808D02*
X022389Y015808D01*
X022389Y015830D02*
X021911Y015830D01*
X021911Y015852D02*
X022389Y015852D01*
X022389Y015874D02*
X021911Y015874D01*
X021911Y015896D02*
X022389Y015896D01*
X022389Y015918D02*
X021911Y015918D01*
X021911Y015940D02*
X022389Y015940D01*
X022389Y015962D02*
X021911Y015962D01*
X021911Y015984D02*
X022389Y015984D01*
X022389Y016006D02*
X021911Y016006D01*
X021911Y015514D02*
X022389Y015514D01*
X022389Y015286D01*
X021911Y015286D01*
X021911Y015514D01*
X021911Y015308D02*
X022389Y015308D01*
X022389Y015330D02*
X021911Y015330D01*
X021911Y015352D02*
X022389Y015352D01*
X022389Y015374D02*
X021911Y015374D01*
X021911Y015396D02*
X022389Y015396D01*
X022389Y015418D02*
X021911Y015418D01*
X021911Y015440D02*
X022389Y015440D01*
X022389Y015462D02*
X021911Y015462D01*
X021911Y015484D02*
X022389Y015484D01*
X022389Y015506D02*
X021911Y015506D01*
X021911Y015014D02*
X022389Y015014D01*
X022389Y014786D01*
X021911Y014786D01*
X021911Y015014D01*
X021911Y014808D02*
X022389Y014808D01*
X022389Y014830D02*
X021911Y014830D01*
X021911Y014852D02*
X022389Y014852D01*
X022389Y014874D02*
X021911Y014874D01*
X021911Y014896D02*
X022389Y014896D01*
X022389Y014918D02*
X021911Y014918D01*
X021911Y014940D02*
X022389Y014940D01*
X022389Y014962D02*
X021911Y014962D01*
X021911Y014984D02*
X022389Y014984D01*
X022389Y015006D02*
X021911Y015006D01*
X021911Y014514D02*
X022389Y014514D01*
X022389Y014286D01*
X021911Y014286D01*
X021911Y014514D01*
X021911Y014308D02*
X022389Y014308D01*
X022389Y014330D02*
X021911Y014330D01*
X021911Y014352D02*
X022389Y014352D01*
X022389Y014374D02*
X021911Y014374D01*
X021911Y014396D02*
X022389Y014396D01*
X022389Y014418D02*
X021911Y014418D01*
X021911Y014440D02*
X022389Y014440D01*
X022389Y014462D02*
X021911Y014462D01*
X021911Y014484D02*
X022389Y014484D01*
X022389Y014506D02*
X021911Y014506D01*
X021911Y014014D02*
X022389Y014014D01*
X022389Y013786D01*
X021911Y013786D01*
X021911Y014014D01*
X021911Y013808D02*
X022389Y013808D01*
X022389Y013830D02*
X021911Y013830D01*
X021911Y013852D02*
X022389Y013852D01*
X022389Y013874D02*
X021911Y013874D01*
X021911Y013896D02*
X022389Y013896D01*
X022389Y013918D02*
X021911Y013918D01*
X021911Y013940D02*
X022389Y013940D01*
X022389Y013962D02*
X021911Y013962D01*
X021911Y013984D02*
X022389Y013984D01*
X022389Y014006D02*
X021911Y014006D01*
X021911Y013514D02*
X022389Y013514D01*
X022389Y013286D01*
X021911Y013286D01*
X021911Y013514D01*
X021911Y013308D02*
X022389Y013308D01*
X022389Y013330D02*
X021911Y013330D01*
X021911Y013352D02*
X022389Y013352D01*
X022389Y013374D02*
X021911Y013374D01*
X021911Y013396D02*
X022389Y013396D01*
X022389Y013418D02*
X021911Y013418D01*
X021911Y013440D02*
X022389Y013440D01*
X022389Y013462D02*
X021911Y013462D01*
X021911Y013484D02*
X022389Y013484D01*
X022389Y013506D02*
X021911Y013506D01*
X021911Y013014D02*
X022389Y013014D01*
X022389Y012786D01*
X021911Y012786D01*
X021911Y013014D01*
X021911Y012808D02*
X022389Y012808D01*
X022389Y012830D02*
X021911Y012830D01*
X021911Y012852D02*
X022389Y012852D01*
X022389Y012874D02*
X021911Y012874D01*
X021911Y012896D02*
X022389Y012896D01*
X022389Y012918D02*
X021911Y012918D01*
X021911Y012940D02*
X022389Y012940D01*
X022389Y012962D02*
X021911Y012962D01*
X021911Y012984D02*
X022389Y012984D01*
X022389Y013006D02*
X021911Y013006D01*
X021911Y012514D02*
X022389Y012514D01*
X022389Y012286D01*
X021911Y012286D01*
X021911Y012514D01*
X021911Y012308D02*
X022389Y012308D01*
X022389Y012330D02*
X021911Y012330D01*
X021911Y012352D02*
X022389Y012352D01*
X022389Y012374D02*
X021911Y012374D01*
X021911Y012396D02*
X022389Y012396D01*
X022389Y012418D02*
X021911Y012418D01*
X021911Y012440D02*
X022389Y012440D01*
X022389Y012462D02*
X021911Y012462D01*
X021911Y012484D02*
X022389Y012484D01*
X022389Y012506D02*
X021911Y012506D01*
X021911Y012014D02*
X022389Y012014D01*
X022389Y011786D01*
X021911Y011786D01*
X021911Y012014D01*
X021911Y011808D02*
X022389Y011808D01*
X022389Y011830D02*
X021911Y011830D01*
X021911Y011852D02*
X022389Y011852D01*
X022389Y011874D02*
X021911Y011874D01*
X021911Y011896D02*
X022389Y011896D01*
X022389Y011918D02*
X021911Y011918D01*
X021911Y011940D02*
X022389Y011940D01*
X022389Y011962D02*
X021911Y011962D01*
X021911Y011984D02*
X022389Y011984D01*
X022389Y012006D02*
X021911Y012006D01*
X021911Y011514D02*
X022389Y011514D01*
X022389Y011286D01*
X021911Y011286D01*
X021911Y011514D01*
X021911Y011308D02*
X022389Y011308D01*
X022389Y011330D02*
X021911Y011330D01*
X021911Y011352D02*
X022389Y011352D01*
X022389Y011374D02*
X021911Y011374D01*
X021911Y011396D02*
X022389Y011396D01*
X022389Y011418D02*
X021911Y011418D01*
X021911Y011440D02*
X022389Y011440D01*
X022389Y011462D02*
X021911Y011462D01*
X021911Y011484D02*
X022389Y011484D01*
X022389Y011506D02*
X021911Y011506D01*
X021911Y011014D02*
X022389Y011014D01*
X022389Y010786D01*
X021911Y010786D01*
X021911Y011014D01*
X021911Y010808D02*
X022389Y010808D01*
X022389Y010830D02*
X021911Y010830D01*
X021911Y010852D02*
X022389Y010852D01*
X022389Y010874D02*
X021911Y010874D01*
X021911Y010896D02*
X022389Y010896D01*
X022389Y010918D02*
X021911Y010918D01*
X021911Y010940D02*
X022389Y010940D01*
X022389Y010962D02*
X021911Y010962D01*
X021911Y010984D02*
X022389Y010984D01*
X022389Y011006D02*
X021911Y011006D01*
X021911Y010514D02*
X022389Y010514D01*
X022389Y010286D01*
X021911Y010286D01*
X021911Y010514D01*
X021911Y010308D02*
X022389Y010308D01*
X022389Y010330D02*
X021911Y010330D01*
X021911Y010352D02*
X022389Y010352D01*
X022389Y010374D02*
X021911Y010374D01*
X021911Y010396D02*
X022389Y010396D01*
X022389Y010418D02*
X021911Y010418D01*
X021911Y010440D02*
X022389Y010440D01*
X022389Y010462D02*
X021911Y010462D01*
X021911Y010484D02*
X022389Y010484D01*
X022389Y010506D02*
X021911Y010506D01*
X021911Y010014D02*
X022389Y010014D01*
X022389Y009786D01*
X021911Y009786D01*
X021911Y010014D01*
X021911Y009808D02*
X022389Y009808D01*
X022389Y009830D02*
X021911Y009830D01*
X021911Y009852D02*
X022389Y009852D01*
X022389Y009874D02*
X021911Y009874D01*
X021911Y009896D02*
X022389Y009896D01*
X022389Y009918D02*
X021911Y009918D01*
X021911Y009940D02*
X022389Y009940D01*
X022389Y009962D02*
X021911Y009962D01*
X021911Y009984D02*
X022389Y009984D01*
X022389Y010006D02*
X021911Y010006D01*
X021911Y009514D02*
X022389Y009514D01*
X022389Y009286D01*
X021911Y009286D01*
X021911Y009514D01*
X021911Y009308D02*
X022389Y009308D01*
X022389Y009330D02*
X021911Y009330D01*
X021911Y009352D02*
X022389Y009352D01*
X022389Y009374D02*
X021911Y009374D01*
X021911Y009396D02*
X022389Y009396D01*
X022389Y009418D02*
X021911Y009418D01*
X021911Y009440D02*
X022389Y009440D01*
X022389Y009462D02*
X021911Y009462D01*
X021911Y009484D02*
X022389Y009484D01*
X022389Y009506D02*
X021911Y009506D01*
X021911Y009014D02*
X022389Y009014D01*
X022389Y008786D01*
X021911Y008786D01*
X021911Y009014D01*
X021911Y008808D02*
X022389Y008808D01*
X022389Y008830D02*
X021911Y008830D01*
X021911Y008852D02*
X022389Y008852D01*
X022389Y008874D02*
X021911Y008874D01*
X021911Y008896D02*
X022389Y008896D01*
X022389Y008918D02*
X021911Y008918D01*
X021911Y008940D02*
X022389Y008940D01*
X022389Y008962D02*
X021911Y008962D01*
X021911Y008984D02*
X022389Y008984D01*
X022389Y009006D02*
X021911Y009006D01*
X021911Y008514D02*
X022389Y008514D01*
X022389Y008286D01*
X021911Y008286D01*
X021911Y008514D01*
X021911Y008308D02*
X022389Y008308D01*
X022389Y008330D02*
X021911Y008330D01*
X021911Y008352D02*
X022389Y008352D01*
X022389Y008374D02*
X021911Y008374D01*
X021911Y008396D02*
X022389Y008396D01*
X022389Y008418D02*
X021911Y008418D01*
X021911Y008440D02*
X022389Y008440D01*
X022389Y008462D02*
X021911Y008462D01*
X021911Y008484D02*
X022389Y008484D01*
X022389Y008506D02*
X021911Y008506D01*
X021911Y008014D02*
X022389Y008014D01*
X022389Y007786D01*
X021911Y007786D01*
X021911Y008014D01*
X021911Y007808D02*
X022389Y007808D01*
X022389Y007830D02*
X021911Y007830D01*
X021911Y007852D02*
X022389Y007852D01*
X022389Y007874D02*
X021911Y007874D01*
X021911Y007896D02*
X022389Y007896D01*
X022389Y007918D02*
X021911Y007918D01*
X021911Y007940D02*
X022389Y007940D01*
X022389Y007962D02*
X021911Y007962D01*
X021911Y007984D02*
X022389Y007984D01*
X022389Y008006D02*
X021911Y008006D01*
X021911Y007514D02*
X022389Y007514D01*
X022389Y007286D01*
X021911Y007286D01*
X021911Y007514D01*
X021911Y007308D02*
X022389Y007308D01*
X022389Y007330D02*
X021911Y007330D01*
X021911Y007352D02*
X022389Y007352D01*
X022389Y007374D02*
X021911Y007374D01*
X021911Y007396D02*
X022389Y007396D01*
X022389Y007418D02*
X021911Y007418D01*
X021911Y007440D02*
X022389Y007440D01*
X022389Y007462D02*
X021911Y007462D01*
X021911Y007484D02*
X022389Y007484D01*
X022389Y007506D02*
X021911Y007506D01*
X021911Y007014D02*
X022389Y007014D01*
X022389Y006786D01*
X021911Y006786D01*
X021911Y007014D01*
X021911Y006808D02*
X022389Y006808D01*
X022389Y006830D02*
X021911Y006830D01*
X021911Y006852D02*
X022389Y006852D01*
X022389Y006874D02*
X021911Y006874D01*
X021911Y006896D02*
X022389Y006896D01*
X022389Y006918D02*
X021911Y006918D01*
X021911Y006940D02*
X022389Y006940D01*
X022389Y006962D02*
X021911Y006962D01*
X021911Y006984D02*
X022389Y006984D01*
X022389Y007006D02*
X021911Y007006D01*
X021911Y006514D02*
X022389Y006514D01*
X022389Y006286D01*
X021911Y006286D01*
X021911Y006514D01*
X021911Y006308D02*
X022389Y006308D01*
X022389Y006330D02*
X021911Y006330D01*
X021911Y006352D02*
X022389Y006352D01*
X022389Y006374D02*
X021911Y006374D01*
X021911Y006396D02*
X022389Y006396D01*
X022389Y006418D02*
X021911Y006418D01*
X021911Y006440D02*
X022389Y006440D01*
X022389Y006462D02*
X021911Y006462D01*
X021911Y006484D02*
X022389Y006484D01*
X022389Y006506D02*
X021911Y006506D01*
X021911Y006014D02*
X022389Y006014D01*
X022389Y005786D01*
X021911Y005786D01*
X021911Y006014D01*
X021911Y005808D02*
X022389Y005808D01*
X022389Y005830D02*
X021911Y005830D01*
X021911Y005852D02*
X022389Y005852D01*
X022389Y005874D02*
X021911Y005874D01*
X021911Y005896D02*
X022389Y005896D01*
X022389Y005918D02*
X021911Y005918D01*
X021911Y005940D02*
X022389Y005940D01*
X022389Y005962D02*
X021911Y005962D01*
X021911Y005984D02*
X022389Y005984D01*
X022389Y006006D02*
X021911Y006006D01*
X021911Y005514D02*
X022389Y005514D01*
X022389Y005286D01*
X021911Y005286D01*
X021911Y005514D01*
X021911Y005308D02*
X022389Y005308D01*
X022389Y005330D02*
X021911Y005330D01*
X021911Y005352D02*
X022389Y005352D01*
X022389Y005374D02*
X021911Y005374D01*
X021911Y005396D02*
X022389Y005396D01*
X022389Y005418D02*
X021911Y005418D01*
X021911Y005440D02*
X022389Y005440D01*
X022389Y005462D02*
X021911Y005462D01*
X021911Y005484D02*
X022389Y005484D01*
X022389Y005506D02*
X021911Y005506D01*
X021911Y005014D02*
X022389Y005014D01*
X022389Y004786D01*
X021911Y004786D01*
X021911Y005014D01*
X021911Y004808D02*
X022389Y004808D01*
X022389Y004830D02*
X021911Y004830D01*
X021911Y004852D02*
X022389Y004852D01*
X022389Y004874D02*
X021911Y004874D01*
X021911Y004896D02*
X022389Y004896D01*
X022389Y004918D02*
X021911Y004918D01*
X021911Y004940D02*
X022389Y004940D01*
X022389Y004962D02*
X021911Y004962D01*
X021911Y004984D02*
X022389Y004984D01*
X022389Y005006D02*
X021911Y005006D01*
X021911Y004514D02*
X022389Y004514D01*
X022389Y004286D01*
X021911Y004286D01*
X021911Y004514D01*
X021911Y004308D02*
X022389Y004308D01*
X022389Y004330D02*
X021911Y004330D01*
X021911Y004352D02*
X022389Y004352D01*
X022389Y004374D02*
X021911Y004374D01*
X021911Y004396D02*
X022389Y004396D01*
X022389Y004418D02*
X021911Y004418D01*
X021911Y004440D02*
X022389Y004440D01*
X022389Y004462D02*
X021911Y004462D01*
X021911Y004484D02*
X022389Y004484D01*
X022389Y004506D02*
X021911Y004506D01*
X022611Y004514D02*
X023089Y004514D01*
X023089Y004286D01*
X022611Y004286D01*
X022611Y004514D01*
X022611Y004308D02*
X023089Y004308D01*
X023089Y004330D02*
X022611Y004330D01*
X022611Y004352D02*
X023089Y004352D01*
X023089Y004374D02*
X022611Y004374D01*
X022611Y004396D02*
X023089Y004396D01*
X023089Y004418D02*
X022611Y004418D01*
X022611Y004440D02*
X023089Y004440D01*
X023089Y004462D02*
X022611Y004462D01*
X022611Y004484D02*
X023089Y004484D01*
X023089Y004506D02*
X022611Y004506D01*
X022611Y005014D02*
X023089Y005014D01*
X023089Y004786D01*
X022611Y004786D01*
X022611Y005014D01*
X022611Y004808D02*
X023089Y004808D01*
X023089Y004830D02*
X022611Y004830D01*
X022611Y004852D02*
X023089Y004852D01*
X023089Y004874D02*
X022611Y004874D01*
X022611Y004896D02*
X023089Y004896D01*
X023089Y004918D02*
X022611Y004918D01*
X022611Y004940D02*
X023089Y004940D01*
X023089Y004962D02*
X022611Y004962D01*
X022611Y004984D02*
X023089Y004984D01*
X023089Y005006D02*
X022611Y005006D01*
X022611Y005514D02*
X023089Y005514D01*
X023089Y005286D01*
X022611Y005286D01*
X022611Y005514D01*
X022611Y005308D02*
X023089Y005308D01*
X023089Y005330D02*
X022611Y005330D01*
X022611Y005352D02*
X023089Y005352D01*
X023089Y005374D02*
X022611Y005374D01*
X022611Y005396D02*
X023089Y005396D01*
X023089Y005418D02*
X022611Y005418D01*
X022611Y005440D02*
X023089Y005440D01*
X023089Y005462D02*
X022611Y005462D01*
X022611Y005484D02*
X023089Y005484D01*
X023089Y005506D02*
X022611Y005506D01*
X022611Y006014D02*
X023089Y006014D01*
X023089Y005786D01*
X022611Y005786D01*
X022611Y006014D01*
X022611Y005808D02*
X023089Y005808D01*
X023089Y005830D02*
X022611Y005830D01*
X022611Y005852D02*
X023089Y005852D01*
X023089Y005874D02*
X022611Y005874D01*
X022611Y005896D02*
X023089Y005896D01*
X023089Y005918D02*
X022611Y005918D01*
X022611Y005940D02*
X023089Y005940D01*
X023089Y005962D02*
X022611Y005962D01*
X022611Y005984D02*
X023089Y005984D01*
X023089Y006006D02*
X022611Y006006D01*
X022611Y006514D02*
X023089Y006514D01*
X023089Y006286D01*
X022611Y006286D01*
X022611Y006514D01*
X022611Y006308D02*
X023089Y006308D01*
X023089Y006330D02*
X022611Y006330D01*
X022611Y006352D02*
X023089Y006352D01*
X023089Y006374D02*
X022611Y006374D01*
X022611Y006396D02*
X023089Y006396D01*
X023089Y006418D02*
X022611Y006418D01*
X022611Y006440D02*
X023089Y006440D01*
X023089Y006462D02*
X022611Y006462D01*
X022611Y006484D02*
X023089Y006484D01*
X023089Y006506D02*
X022611Y006506D01*
X022611Y007014D02*
X023089Y007014D01*
X023089Y006786D01*
X022611Y006786D01*
X022611Y007014D01*
X022611Y006808D02*
X023089Y006808D01*
X023089Y006830D02*
X022611Y006830D01*
X022611Y006852D02*
X023089Y006852D01*
X023089Y006874D02*
X022611Y006874D01*
X022611Y006896D02*
X023089Y006896D01*
X023089Y006918D02*
X022611Y006918D01*
X022611Y006940D02*
X023089Y006940D01*
X023089Y006962D02*
X022611Y006962D01*
X022611Y006984D02*
X023089Y006984D01*
X023089Y007006D02*
X022611Y007006D01*
X022611Y007514D02*
X023089Y007514D01*
X023089Y007286D01*
X022611Y007286D01*
X022611Y007514D01*
X022611Y007308D02*
X023089Y007308D01*
X023089Y007330D02*
X022611Y007330D01*
X022611Y007352D02*
X023089Y007352D01*
X023089Y007374D02*
X022611Y007374D01*
X022611Y007396D02*
X023089Y007396D01*
X023089Y007418D02*
X022611Y007418D01*
X022611Y007440D02*
X023089Y007440D01*
X023089Y007462D02*
X022611Y007462D01*
X022611Y007484D02*
X023089Y007484D01*
X023089Y007506D02*
X022611Y007506D01*
X022611Y008014D02*
X023089Y008014D01*
X023089Y007786D01*
X022611Y007786D01*
X022611Y008014D01*
X022611Y007808D02*
X023089Y007808D01*
X023089Y007830D02*
X022611Y007830D01*
X022611Y007852D02*
X023089Y007852D01*
X023089Y007874D02*
X022611Y007874D01*
X022611Y007896D02*
X023089Y007896D01*
X023089Y007918D02*
X022611Y007918D01*
X022611Y007940D02*
X023089Y007940D01*
X023089Y007962D02*
X022611Y007962D01*
X022611Y007984D02*
X023089Y007984D01*
X023089Y008006D02*
X022611Y008006D01*
X022611Y008514D02*
X023089Y008514D01*
X023089Y008286D01*
X022611Y008286D01*
X022611Y008514D01*
X022611Y008308D02*
X023089Y008308D01*
X023089Y008330D02*
X022611Y008330D01*
X022611Y008352D02*
X023089Y008352D01*
X023089Y008374D02*
X022611Y008374D01*
X022611Y008396D02*
X023089Y008396D01*
X023089Y008418D02*
X022611Y008418D01*
X022611Y008440D02*
X023089Y008440D01*
X023089Y008462D02*
X022611Y008462D01*
X022611Y008484D02*
X023089Y008484D01*
X023089Y008506D02*
X022611Y008506D01*
X022611Y009014D02*
X023089Y009014D01*
X023089Y008786D01*
X022611Y008786D01*
X022611Y009014D01*
X022611Y008808D02*
X023089Y008808D01*
X023089Y008830D02*
X022611Y008830D01*
X022611Y008852D02*
X023089Y008852D01*
X023089Y008874D02*
X022611Y008874D01*
X022611Y008896D02*
X023089Y008896D01*
X023089Y008918D02*
X022611Y008918D01*
X022611Y008940D02*
X023089Y008940D01*
X023089Y008962D02*
X022611Y008962D01*
X022611Y008984D02*
X023089Y008984D01*
X023089Y009006D02*
X022611Y009006D01*
X022611Y009286D02*
X023089Y009286D01*
X022611Y009286D02*
X022611Y009514D01*
X023089Y009514D01*
X023089Y009286D01*
X023089Y009308D02*
X022611Y009308D01*
X022611Y009330D02*
X023089Y009330D01*
X023089Y009352D02*
X022611Y009352D01*
X022611Y009374D02*
X023089Y009374D01*
X023089Y009396D02*
X022611Y009396D01*
X022611Y009418D02*
X023089Y009418D01*
X023089Y009440D02*
X022611Y009440D01*
X022611Y009462D02*
X023089Y009462D01*
X023089Y009484D02*
X022611Y009484D01*
X022611Y009506D02*
X023089Y009506D01*
X023089Y009786D02*
X022611Y009786D01*
X022611Y010014D01*
X023089Y010014D01*
X023089Y009786D01*
X023089Y009808D02*
X022611Y009808D01*
X022611Y009830D02*
X023089Y009830D01*
X023089Y009852D02*
X022611Y009852D01*
X022611Y009874D02*
X023089Y009874D01*
X023089Y009896D02*
X022611Y009896D01*
X022611Y009918D02*
X023089Y009918D01*
X023089Y009940D02*
X022611Y009940D01*
X022611Y009962D02*
X023089Y009962D01*
X023089Y009984D02*
X022611Y009984D01*
X022611Y010006D02*
X023089Y010006D01*
X023089Y010286D02*
X022611Y010286D01*
X022611Y010514D01*
X023089Y010514D01*
X023089Y010286D01*
X023089Y010308D02*
X022611Y010308D01*
X022611Y010330D02*
X023089Y010330D01*
X023089Y010352D02*
X022611Y010352D01*
X022611Y010374D02*
X023089Y010374D01*
X023089Y010396D02*
X022611Y010396D01*
X022611Y010418D02*
X023089Y010418D01*
X023089Y010440D02*
X022611Y010440D01*
X022611Y010462D02*
X023089Y010462D01*
X023089Y010484D02*
X022611Y010484D01*
X022611Y010506D02*
X023089Y010506D01*
X023089Y010786D02*
X022611Y010786D01*
X022611Y011014D01*
X023089Y011014D01*
X023089Y010786D01*
X023089Y010808D02*
X022611Y010808D01*
X022611Y010830D02*
X023089Y010830D01*
X023089Y010852D02*
X022611Y010852D01*
X022611Y010874D02*
X023089Y010874D01*
X023089Y010896D02*
X022611Y010896D01*
X022611Y010918D02*
X023089Y010918D01*
X023089Y010940D02*
X022611Y010940D01*
X022611Y010962D02*
X023089Y010962D01*
X023089Y010984D02*
X022611Y010984D01*
X022611Y011006D02*
X023089Y011006D01*
X023089Y011286D02*
X022611Y011286D01*
X022611Y011514D01*
X023089Y011514D01*
X023089Y011286D01*
X023089Y011308D02*
X022611Y011308D01*
X022611Y011330D02*
X023089Y011330D01*
X023089Y011352D02*
X022611Y011352D01*
X022611Y011374D02*
X023089Y011374D01*
X023089Y011396D02*
X022611Y011396D01*
X022611Y011418D02*
X023089Y011418D01*
X023089Y011440D02*
X022611Y011440D01*
X022611Y011462D02*
X023089Y011462D01*
X023089Y011484D02*
X022611Y011484D01*
X022611Y011506D02*
X023089Y011506D01*
X023089Y011786D02*
X022611Y011786D01*
X022611Y012014D01*
X023089Y012014D01*
X023089Y011786D01*
X023089Y011808D02*
X022611Y011808D01*
X022611Y011830D02*
X023089Y011830D01*
X023089Y011852D02*
X022611Y011852D01*
X022611Y011874D02*
X023089Y011874D01*
X023089Y011896D02*
X022611Y011896D01*
X022611Y011918D02*
X023089Y011918D01*
X023089Y011940D02*
X022611Y011940D01*
X022611Y011962D02*
X023089Y011962D01*
X023089Y011984D02*
X022611Y011984D01*
X022611Y012006D02*
X023089Y012006D01*
X023089Y012286D02*
X022611Y012286D01*
X022611Y012514D01*
X023089Y012514D01*
X023089Y012286D01*
X023089Y012308D02*
X022611Y012308D01*
X022611Y012330D02*
X023089Y012330D01*
X023089Y012352D02*
X022611Y012352D01*
X022611Y012374D02*
X023089Y012374D01*
X023089Y012396D02*
X022611Y012396D01*
X022611Y012418D02*
X023089Y012418D01*
X023089Y012440D02*
X022611Y012440D01*
X022611Y012462D02*
X023089Y012462D01*
X023089Y012484D02*
X022611Y012484D01*
X022611Y012506D02*
X023089Y012506D01*
X023089Y012786D02*
X022611Y012786D01*
X022611Y013014D01*
X023089Y013014D01*
X023089Y012786D01*
X023089Y012808D02*
X022611Y012808D01*
X022611Y012830D02*
X023089Y012830D01*
X023089Y012852D02*
X022611Y012852D01*
X022611Y012874D02*
X023089Y012874D01*
X023089Y012896D02*
X022611Y012896D01*
X022611Y012918D02*
X023089Y012918D01*
X023089Y012940D02*
X022611Y012940D01*
X022611Y012962D02*
X023089Y012962D01*
X023089Y012984D02*
X022611Y012984D01*
X022611Y013006D02*
X023089Y013006D01*
X023089Y013286D02*
X022611Y013286D01*
X022611Y013514D01*
X023089Y013514D01*
X023089Y013286D01*
X023089Y013308D02*
X022611Y013308D01*
X022611Y013330D02*
X023089Y013330D01*
X023089Y013352D02*
X022611Y013352D01*
X022611Y013374D02*
X023089Y013374D01*
X023089Y013396D02*
X022611Y013396D01*
X022611Y013418D02*
X023089Y013418D01*
X023089Y013440D02*
X022611Y013440D01*
X022611Y013462D02*
X023089Y013462D01*
X023089Y013484D02*
X022611Y013484D01*
X022611Y013506D02*
X023089Y013506D01*
X023089Y013786D02*
X022611Y013786D01*
X022611Y014014D01*
X023089Y014014D01*
X023089Y013786D01*
X023089Y013808D02*
X022611Y013808D01*
X022611Y013830D02*
X023089Y013830D01*
X023089Y013852D02*
X022611Y013852D01*
X022611Y013874D02*
X023089Y013874D01*
X023089Y013896D02*
X022611Y013896D01*
X022611Y013918D02*
X023089Y013918D01*
X023089Y013940D02*
X022611Y013940D01*
X022611Y013962D02*
X023089Y013962D01*
X023089Y013984D02*
X022611Y013984D01*
X022611Y014006D02*
X023089Y014006D01*
X023089Y014514D02*
X022611Y014514D01*
X023089Y014514D02*
X023089Y014286D01*
X022611Y014286D01*
X022611Y014514D01*
X022611Y014308D02*
X023089Y014308D01*
X023089Y014330D02*
X022611Y014330D01*
X022611Y014352D02*
X023089Y014352D01*
X023089Y014374D02*
X022611Y014374D01*
X022611Y014396D02*
X023089Y014396D01*
X023089Y014418D02*
X022611Y014418D01*
X022611Y014440D02*
X023089Y014440D01*
X023089Y014462D02*
X022611Y014462D01*
X022611Y014484D02*
X023089Y014484D01*
X023089Y014506D02*
X022611Y014506D01*
X022611Y015014D02*
X023089Y015014D01*
X023089Y014786D01*
X022611Y014786D01*
X022611Y015014D01*
X022611Y014808D02*
X023089Y014808D01*
X023089Y014830D02*
X022611Y014830D01*
X022611Y014852D02*
X023089Y014852D01*
X023089Y014874D02*
X022611Y014874D01*
X022611Y014896D02*
X023089Y014896D01*
X023089Y014918D02*
X022611Y014918D01*
X022611Y014940D02*
X023089Y014940D01*
X023089Y014962D02*
X022611Y014962D01*
X022611Y014984D02*
X023089Y014984D01*
X023089Y015006D02*
X022611Y015006D01*
X022611Y015514D02*
X023089Y015514D01*
X023089Y015286D01*
X022611Y015286D01*
X022611Y015514D01*
X022611Y015308D02*
X023089Y015308D01*
X023089Y015330D02*
X022611Y015330D01*
X022611Y015352D02*
X023089Y015352D01*
X023089Y015374D02*
X022611Y015374D01*
X022611Y015396D02*
X023089Y015396D01*
X023089Y015418D02*
X022611Y015418D01*
X022611Y015440D02*
X023089Y015440D01*
X023089Y015462D02*
X022611Y015462D01*
X022611Y015484D02*
X023089Y015484D01*
X023089Y015506D02*
X022611Y015506D01*
X022611Y016014D02*
X023089Y016014D01*
X023089Y015786D01*
X022611Y015786D01*
X022611Y016014D01*
X022611Y015808D02*
X023089Y015808D01*
X023089Y015830D02*
X022611Y015830D01*
X022611Y015852D02*
X023089Y015852D01*
X023089Y015874D02*
X022611Y015874D01*
X022611Y015896D02*
X023089Y015896D01*
X023089Y015918D02*
X022611Y015918D01*
X022611Y015940D02*
X023089Y015940D01*
X023089Y015962D02*
X022611Y015962D01*
X022611Y015984D02*
X023089Y015984D01*
X023089Y016006D02*
X022611Y016006D01*
X022611Y016514D02*
X023089Y016514D01*
X023089Y016286D01*
X022611Y016286D01*
X022611Y016514D01*
X022611Y016308D02*
X023089Y016308D01*
X023089Y016330D02*
X022611Y016330D01*
X022611Y016352D02*
X023089Y016352D01*
X023089Y016374D02*
X022611Y016374D01*
X022611Y016396D02*
X023089Y016396D01*
X023089Y016418D02*
X022611Y016418D01*
X022611Y016440D02*
X023089Y016440D01*
X023089Y016462D02*
X022611Y016462D01*
X022611Y016484D02*
X023089Y016484D01*
X023089Y016506D02*
X022611Y016506D01*
X022611Y017014D02*
X023089Y017014D01*
X023089Y016786D01*
X022611Y016786D01*
X022611Y017014D01*
X022611Y016808D02*
X023089Y016808D01*
X023089Y016830D02*
X022611Y016830D01*
X022611Y016852D02*
X023089Y016852D01*
X023089Y016874D02*
X022611Y016874D01*
X022611Y016896D02*
X023089Y016896D01*
X023089Y016918D02*
X022611Y016918D01*
X022611Y016940D02*
X023089Y016940D01*
X023089Y016962D02*
X022611Y016962D01*
X022611Y016984D02*
X023089Y016984D01*
X023089Y017006D02*
X022611Y017006D01*
X022611Y017514D02*
X023089Y017514D01*
X023089Y017286D01*
X022611Y017286D01*
X022611Y017514D01*
X022611Y017308D02*
X023089Y017308D01*
X023089Y017330D02*
X022611Y017330D01*
X022611Y017352D02*
X023089Y017352D01*
X023089Y017374D02*
X022611Y017374D01*
X022611Y017396D02*
X023089Y017396D01*
X023089Y017418D02*
X022611Y017418D01*
X022611Y017440D02*
X023089Y017440D01*
X023089Y017462D02*
X022611Y017462D01*
X022611Y017484D02*
X023089Y017484D01*
X023089Y017506D02*
X022611Y017506D01*
X022611Y018014D02*
X023089Y018014D01*
X023089Y017786D01*
X022611Y017786D01*
X022611Y018014D01*
X022611Y017808D02*
X023089Y017808D01*
X023089Y017830D02*
X022611Y017830D01*
X022611Y017852D02*
X023089Y017852D01*
X023089Y017874D02*
X022611Y017874D01*
X022611Y017896D02*
X023089Y017896D01*
X023089Y017918D02*
X022611Y017918D01*
X022611Y017940D02*
X023089Y017940D01*
X023089Y017962D02*
X022611Y017962D01*
X022611Y017984D02*
X023089Y017984D01*
X023089Y018006D02*
X022611Y018006D01*
X022611Y018514D02*
X023089Y018514D01*
X023089Y018286D01*
X022611Y018286D01*
X022611Y018514D01*
X022611Y018308D02*
X023089Y018308D01*
X023089Y018330D02*
X022611Y018330D01*
X022611Y018352D02*
X023089Y018352D01*
X023089Y018374D02*
X022611Y018374D01*
X022611Y018396D02*
X023089Y018396D01*
X023089Y018418D02*
X022611Y018418D01*
X022611Y018440D02*
X023089Y018440D01*
X023089Y018462D02*
X022611Y018462D01*
X022611Y018484D02*
X023089Y018484D01*
X023089Y018506D02*
X022611Y018506D01*
X022611Y019014D02*
X023089Y019014D01*
X023089Y018786D01*
X022611Y018786D01*
X022611Y019014D01*
X022611Y018808D02*
X023089Y018808D01*
X023089Y018830D02*
X022611Y018830D01*
X022611Y018852D02*
X023089Y018852D01*
X023089Y018874D02*
X022611Y018874D01*
X022611Y018896D02*
X023089Y018896D01*
X023089Y018918D02*
X022611Y018918D01*
X022611Y018940D02*
X023089Y018940D01*
X023089Y018962D02*
X022611Y018962D01*
X022611Y018984D02*
X023089Y018984D01*
X023089Y019006D02*
X022611Y019006D01*
X022611Y019514D02*
X023089Y019514D01*
X023089Y019286D01*
X022611Y019286D01*
X022611Y019514D01*
X022611Y019308D02*
X023089Y019308D01*
X023089Y019330D02*
X022611Y019330D01*
X022611Y019352D02*
X023089Y019352D01*
X023089Y019374D02*
X022611Y019374D01*
X022611Y019396D02*
X023089Y019396D01*
X023089Y019418D02*
X022611Y019418D01*
X022611Y019440D02*
X023089Y019440D01*
X023089Y019462D02*
X022611Y019462D01*
X022611Y019484D02*
X023089Y019484D01*
X023089Y019506D02*
X022611Y019506D01*
X022611Y020014D02*
X023089Y020014D01*
X023089Y019786D01*
X022611Y019786D01*
X022611Y020014D01*
X022611Y019808D02*
X023089Y019808D01*
X023089Y019830D02*
X022611Y019830D01*
X022611Y019852D02*
X023089Y019852D01*
X023089Y019874D02*
X022611Y019874D01*
X022611Y019896D02*
X023089Y019896D01*
X023089Y019918D02*
X022611Y019918D01*
X022611Y019940D02*
X023089Y019940D01*
X023089Y019962D02*
X022611Y019962D01*
X022611Y019984D02*
X023089Y019984D01*
X023089Y020006D02*
X022611Y020006D01*
X022611Y020514D02*
X023089Y020514D01*
X023089Y020286D01*
X022611Y020286D01*
X022611Y020514D01*
X022611Y020308D02*
X023089Y020308D01*
X023089Y020330D02*
X022611Y020330D01*
X022611Y020352D02*
X023089Y020352D01*
X023089Y020374D02*
X022611Y020374D01*
X022611Y020396D02*
X023089Y020396D01*
X023089Y020418D02*
X022611Y020418D01*
X022611Y020440D02*
X023089Y020440D01*
X023089Y020462D02*
X022611Y020462D01*
X022611Y020484D02*
X023089Y020484D01*
X023089Y020506D02*
X022611Y020506D01*
X022611Y021014D02*
X023089Y021014D01*
X023089Y020786D01*
X022611Y020786D01*
X022611Y021014D01*
X022611Y020808D02*
X023089Y020808D01*
X023089Y020830D02*
X022611Y020830D01*
X022611Y020852D02*
X023089Y020852D01*
X023089Y020874D02*
X022611Y020874D01*
X022611Y020896D02*
X023089Y020896D01*
X023089Y020918D02*
X022611Y020918D01*
X022611Y020940D02*
X023089Y020940D01*
X023089Y020962D02*
X022611Y020962D01*
X022611Y020984D02*
X023089Y020984D01*
X023089Y021006D02*
X022611Y021006D01*
X022611Y021514D02*
X023089Y021514D01*
X023089Y021286D01*
X022611Y021286D01*
X022611Y021514D01*
X022611Y021308D02*
X023089Y021308D01*
X023089Y021330D02*
X022611Y021330D01*
X022611Y021352D02*
X023089Y021352D01*
X023089Y021374D02*
X022611Y021374D01*
X022611Y021396D02*
X023089Y021396D01*
X023089Y021418D02*
X022611Y021418D01*
X022611Y021440D02*
X023089Y021440D01*
X023089Y021462D02*
X022611Y021462D01*
X022611Y021484D02*
X023089Y021484D01*
X023089Y021506D02*
X022611Y021506D01*
X022611Y022014D02*
X023089Y022014D01*
X023089Y021786D01*
X022611Y021786D01*
X022611Y022014D01*
X022611Y021808D02*
X023089Y021808D01*
X023089Y021830D02*
X022611Y021830D01*
X022611Y021852D02*
X023089Y021852D01*
X023089Y021874D02*
X022611Y021874D01*
X022611Y021896D02*
X023089Y021896D01*
X023089Y021918D02*
X022611Y021918D01*
X022611Y021940D02*
X023089Y021940D01*
X023089Y021962D02*
X022611Y021962D01*
X022611Y021984D02*
X023089Y021984D01*
X023089Y022006D02*
X022611Y022006D01*
X022611Y022514D02*
X023089Y022514D01*
X023089Y022286D01*
X022611Y022286D01*
X022611Y022514D01*
X022611Y022308D02*
X023089Y022308D01*
X023089Y022330D02*
X022611Y022330D01*
X022611Y022352D02*
X023089Y022352D01*
X023089Y022374D02*
X022611Y022374D01*
X022611Y022396D02*
X023089Y022396D01*
X023089Y022418D02*
X022611Y022418D01*
X022611Y022440D02*
X023089Y022440D01*
X023089Y022462D02*
X022611Y022462D01*
X022611Y022484D02*
X023089Y022484D01*
X023089Y022506D02*
X022611Y022506D01*
X022611Y023014D02*
X023089Y023014D01*
X023089Y022786D01*
X022611Y022786D01*
X022611Y023014D01*
X022611Y022808D02*
X023089Y022808D01*
X023089Y022830D02*
X022611Y022830D01*
X022611Y022852D02*
X023089Y022852D01*
X023089Y022874D02*
X022611Y022874D01*
X022611Y022896D02*
X023089Y022896D01*
X023089Y022918D02*
X022611Y022918D01*
X022611Y022940D02*
X023089Y022940D01*
X023089Y022962D02*
X022611Y022962D01*
X022611Y022984D02*
X023089Y022984D01*
X023089Y023006D02*
X022611Y023006D01*
X022611Y023514D02*
X023089Y023514D01*
X023089Y023286D01*
X022611Y023286D01*
X022611Y023514D01*
X022611Y023308D02*
X023089Y023308D01*
X023089Y023330D02*
X022611Y023330D01*
X022611Y023352D02*
X023089Y023352D01*
X023089Y023374D02*
X022611Y023374D01*
X022611Y023396D02*
X023089Y023396D01*
X023089Y023418D02*
X022611Y023418D01*
X022611Y023440D02*
X023089Y023440D01*
X023089Y023462D02*
X022611Y023462D01*
X022611Y023484D02*
X023089Y023484D01*
X023089Y023506D02*
X022611Y023506D01*
X022611Y024014D02*
X023089Y024014D01*
X023089Y023786D01*
X022611Y023786D01*
X022611Y024014D01*
X022611Y023808D02*
X023089Y023808D01*
X023089Y023830D02*
X022611Y023830D01*
X022611Y023852D02*
X023089Y023852D01*
X023089Y023874D02*
X022611Y023874D01*
X022611Y023896D02*
X023089Y023896D01*
X023089Y023918D02*
X022611Y023918D01*
X022611Y023940D02*
X023089Y023940D01*
X023089Y023962D02*
X022611Y023962D01*
X022611Y023984D02*
X023089Y023984D01*
X023089Y024006D02*
X022611Y024006D01*
X022611Y024514D02*
X023089Y024514D01*
X023089Y024286D01*
X022611Y024286D01*
X022611Y024514D01*
X022611Y024308D02*
X023089Y024308D01*
X023089Y024330D02*
X022611Y024330D01*
X022611Y024352D02*
X023089Y024352D01*
X023089Y024374D02*
X022611Y024374D01*
X022611Y024396D02*
X023089Y024396D01*
X023089Y024418D02*
X022611Y024418D01*
X022611Y024440D02*
X023089Y024440D01*
X023089Y024462D02*
X022611Y024462D01*
X022611Y024484D02*
X023089Y024484D01*
X023089Y024506D02*
X022611Y024506D01*
X022611Y025014D02*
X023089Y025014D01*
X023089Y024786D01*
X022611Y024786D01*
X022611Y025014D01*
X022611Y024808D02*
X023089Y024808D01*
X023089Y024830D02*
X022611Y024830D01*
X022611Y024852D02*
X023089Y024852D01*
X023089Y024874D02*
X022611Y024874D01*
X022611Y024896D02*
X023089Y024896D01*
X023089Y024918D02*
X022611Y024918D01*
X022611Y024940D02*
X023089Y024940D01*
X023089Y024962D02*
X022611Y024962D01*
X022611Y024984D02*
X023089Y024984D01*
X023089Y025006D02*
X022611Y025006D01*
X022611Y025514D02*
X023089Y025514D01*
X023089Y025286D01*
X022611Y025286D01*
X022611Y025514D01*
X022611Y025308D02*
X023089Y025308D01*
X023089Y025330D02*
X022611Y025330D01*
X022611Y025352D02*
X023089Y025352D01*
X023089Y025374D02*
X022611Y025374D01*
X022611Y025396D02*
X023089Y025396D01*
X023089Y025418D02*
X022611Y025418D01*
X022611Y025440D02*
X023089Y025440D01*
X023089Y025462D02*
X022611Y025462D01*
X022611Y025484D02*
X023089Y025484D01*
X023089Y025506D02*
X022611Y025506D01*
X022611Y026014D02*
X023089Y026014D01*
X023089Y025786D01*
X022611Y025786D01*
X022611Y026014D01*
X022611Y025808D02*
X023089Y025808D01*
X023089Y025830D02*
X022611Y025830D01*
X022611Y025852D02*
X023089Y025852D01*
X023089Y025874D02*
X022611Y025874D01*
X022611Y025896D02*
X023089Y025896D01*
X023089Y025918D02*
X022611Y025918D01*
X022611Y025940D02*
X023089Y025940D01*
X023089Y025962D02*
X022611Y025962D01*
X022611Y025984D02*
X023089Y025984D01*
X023089Y026006D02*
X022611Y026006D01*
X022611Y026514D02*
X023089Y026514D01*
X023089Y026286D01*
X022611Y026286D01*
X022611Y026514D01*
X022611Y026308D02*
X023089Y026308D01*
X023089Y026330D02*
X022611Y026330D01*
X022611Y026352D02*
X023089Y026352D01*
X023089Y026374D02*
X022611Y026374D01*
X022611Y026396D02*
X023089Y026396D01*
X023089Y026418D02*
X022611Y026418D01*
X022611Y026440D02*
X023089Y026440D01*
X023089Y026462D02*
X022611Y026462D01*
X022611Y026484D02*
X023089Y026484D01*
X023089Y026506D02*
X022611Y026506D01*
X022611Y027014D02*
X023089Y027014D01*
X023089Y026786D01*
X022611Y026786D01*
X022611Y027014D01*
X022611Y026808D02*
X023089Y026808D01*
X023089Y026830D02*
X022611Y026830D01*
X022611Y026852D02*
X023089Y026852D01*
X023089Y026874D02*
X022611Y026874D01*
X022611Y026896D02*
X023089Y026896D01*
X023089Y026918D02*
X022611Y026918D01*
X022611Y026940D02*
X023089Y026940D01*
X023089Y026962D02*
X022611Y026962D01*
X022611Y026984D02*
X023089Y026984D01*
X023089Y027006D02*
X022611Y027006D01*
X022611Y027514D02*
X023089Y027514D01*
X023089Y027286D01*
X022611Y027286D01*
X022611Y027514D01*
X022611Y027308D02*
X023089Y027308D01*
X023089Y027330D02*
X022611Y027330D01*
X022611Y027352D02*
X023089Y027352D01*
X023089Y027374D02*
X022611Y027374D01*
X022611Y027396D02*
X023089Y027396D01*
X023089Y027418D02*
X022611Y027418D01*
X022611Y027440D02*
X023089Y027440D01*
X023089Y027462D02*
X022611Y027462D01*
X022611Y027484D02*
X023089Y027484D01*
X023089Y027506D02*
X022611Y027506D01*
X022611Y028014D02*
X023089Y028014D01*
X023089Y027786D01*
X022611Y027786D01*
X022611Y028014D01*
X022611Y027808D02*
X023089Y027808D01*
X023089Y027830D02*
X022611Y027830D01*
X022611Y027852D02*
X023089Y027852D01*
X023089Y027874D02*
X022611Y027874D01*
X022611Y027896D02*
X023089Y027896D01*
X023089Y027918D02*
X022611Y027918D01*
X022611Y027940D02*
X023089Y027940D01*
X023089Y027962D02*
X022611Y027962D01*
X022611Y027984D02*
X023089Y027984D01*
X023089Y028006D02*
X022611Y028006D01*
X022611Y028514D02*
X023089Y028514D01*
X023089Y028286D01*
X022611Y028286D01*
X022611Y028514D01*
X022611Y028308D02*
X023089Y028308D01*
X023089Y028330D02*
X022611Y028330D01*
X022611Y028352D02*
X023089Y028352D01*
X023089Y028374D02*
X022611Y028374D01*
X022611Y028396D02*
X023089Y028396D01*
X023089Y028418D02*
X022611Y028418D01*
X022611Y028440D02*
X023089Y028440D01*
X023089Y028462D02*
X022611Y028462D01*
X022611Y028484D02*
X023089Y028484D01*
X023089Y028506D02*
X022611Y028506D01*
X022611Y029014D02*
X023089Y029014D01*
X023089Y028786D01*
X022611Y028786D01*
X022611Y029014D01*
X022611Y028808D02*
X023089Y028808D01*
X023089Y028830D02*
X022611Y028830D01*
X022611Y028852D02*
X023089Y028852D01*
X023089Y028874D02*
X022611Y028874D01*
X022611Y028896D02*
X023089Y028896D01*
X023089Y028918D02*
X022611Y028918D01*
X022611Y028940D02*
X023089Y028940D01*
X023089Y028962D02*
X022611Y028962D01*
X022611Y028984D02*
X023089Y028984D01*
X023089Y029006D02*
X022611Y029006D01*
X022611Y029514D02*
X023089Y029514D01*
X023089Y029286D01*
X022611Y029286D01*
X022611Y029514D01*
X022611Y029308D02*
X023089Y029308D01*
X023089Y029330D02*
X022611Y029330D01*
X022611Y029352D02*
X023089Y029352D01*
X023089Y029374D02*
X022611Y029374D01*
X022611Y029396D02*
X023089Y029396D01*
X023089Y029418D02*
X022611Y029418D01*
X022611Y029440D02*
X023089Y029440D01*
X023089Y029462D02*
X022611Y029462D01*
X022611Y029484D02*
X023089Y029484D01*
X023089Y029506D02*
X022611Y029506D01*
X022611Y030014D02*
X023089Y030014D01*
X023089Y029786D01*
X022611Y029786D01*
X022611Y030014D01*
X022611Y029808D02*
X023089Y029808D01*
X023089Y029830D02*
X022611Y029830D01*
X022611Y029852D02*
X023089Y029852D01*
X023089Y029874D02*
X022611Y029874D01*
X022611Y029896D02*
X023089Y029896D01*
X023089Y029918D02*
X022611Y029918D01*
X022611Y029940D02*
X023089Y029940D01*
X023089Y029962D02*
X022611Y029962D01*
X022611Y029984D02*
X023089Y029984D01*
X023089Y030006D02*
X022611Y030006D01*
X022611Y030514D02*
X023089Y030514D01*
X023089Y030286D01*
X022611Y030286D01*
X022611Y030514D01*
X022611Y030308D02*
X023089Y030308D01*
X023089Y030330D02*
X022611Y030330D01*
X022611Y030352D02*
X023089Y030352D01*
X023089Y030374D02*
X022611Y030374D01*
X022611Y030396D02*
X023089Y030396D01*
X023089Y030418D02*
X022611Y030418D01*
X022611Y030440D02*
X023089Y030440D01*
X023089Y030462D02*
X022611Y030462D01*
X022611Y030484D02*
X023089Y030484D01*
X023089Y030506D02*
X022611Y030506D01*
X022611Y031014D02*
X023089Y031014D01*
X023089Y030786D01*
X022611Y030786D01*
X022611Y031014D01*
X022611Y030808D02*
X023089Y030808D01*
X023089Y030830D02*
X022611Y030830D01*
X022611Y030852D02*
X023089Y030852D01*
X023089Y030874D02*
X022611Y030874D01*
X022611Y030896D02*
X023089Y030896D01*
X023089Y030918D02*
X022611Y030918D01*
X022611Y030940D02*
X023089Y030940D01*
X023089Y030962D02*
X022611Y030962D01*
X022611Y030984D02*
X023089Y030984D01*
X023089Y031006D02*
X022611Y031006D01*
X022611Y031514D02*
X023089Y031514D01*
X023089Y031286D01*
X022611Y031286D01*
X022611Y031514D01*
X022611Y031308D02*
X023089Y031308D01*
X023089Y031330D02*
X022611Y031330D01*
X022611Y031352D02*
X023089Y031352D01*
X023089Y031374D02*
X022611Y031374D01*
X022611Y031396D02*
X023089Y031396D01*
X023089Y031418D02*
X022611Y031418D01*
X022611Y031440D02*
X023089Y031440D01*
X023089Y031462D02*
X022611Y031462D01*
X022611Y031484D02*
X023089Y031484D01*
X023089Y031506D02*
X022611Y031506D01*
X022611Y032014D02*
X023089Y032014D01*
X023089Y031786D01*
X022611Y031786D01*
X022611Y032014D01*
X022611Y031808D02*
X023089Y031808D01*
X023089Y031830D02*
X022611Y031830D01*
X022611Y031852D02*
X023089Y031852D01*
X023089Y031874D02*
X022611Y031874D01*
X022611Y031896D02*
X023089Y031896D01*
X023089Y031918D02*
X022611Y031918D01*
X022611Y031940D02*
X023089Y031940D01*
X023089Y031962D02*
X022611Y031962D01*
X022611Y031984D02*
X023089Y031984D01*
X023089Y032006D02*
X022611Y032006D01*
X022611Y032514D02*
X023089Y032514D01*
X023089Y032286D01*
X022611Y032286D01*
X022611Y032514D01*
X022611Y032308D02*
X023089Y032308D01*
X023089Y032330D02*
X022611Y032330D01*
X022611Y032352D02*
X023089Y032352D01*
X023089Y032374D02*
X022611Y032374D01*
X022611Y032396D02*
X023089Y032396D01*
X023089Y032418D02*
X022611Y032418D01*
X022611Y032440D02*
X023089Y032440D01*
X023089Y032462D02*
X022611Y032462D01*
X022611Y032484D02*
X023089Y032484D01*
X023089Y032506D02*
X022611Y032506D01*
X022611Y033014D02*
X023089Y033014D01*
X023089Y032786D01*
X022611Y032786D01*
X022611Y033014D01*
X022611Y032808D02*
X023089Y032808D01*
X023089Y032830D02*
X022611Y032830D01*
X022611Y032852D02*
X023089Y032852D01*
X023089Y032874D02*
X022611Y032874D01*
X022611Y032896D02*
X023089Y032896D01*
X023089Y032918D02*
X022611Y032918D01*
X022611Y032940D02*
X023089Y032940D01*
X023089Y032962D02*
X022611Y032962D01*
X022611Y032984D02*
X023089Y032984D01*
X023089Y033006D02*
X022611Y033006D01*
X022611Y033514D02*
X023089Y033514D01*
X023089Y033286D01*
X022611Y033286D01*
X022611Y033514D01*
X022611Y033308D02*
X023089Y033308D01*
X023089Y033330D02*
X022611Y033330D01*
X022611Y033352D02*
X023089Y033352D01*
X023089Y033374D02*
X022611Y033374D01*
X022611Y033396D02*
X023089Y033396D01*
X023089Y033418D02*
X022611Y033418D01*
X022611Y033440D02*
X023089Y033440D01*
X023089Y033462D02*
X022611Y033462D01*
X022611Y033484D02*
X023089Y033484D01*
X023089Y033506D02*
X022611Y033506D01*
X022611Y034014D02*
X023089Y034014D01*
X023089Y033786D01*
X022611Y033786D01*
X022611Y034014D01*
X022611Y033808D02*
X023089Y033808D01*
X023089Y033830D02*
X022611Y033830D01*
X022611Y033852D02*
X023089Y033852D01*
X023089Y033874D02*
X022611Y033874D01*
X022611Y033896D02*
X023089Y033896D01*
X023089Y033918D02*
X022611Y033918D01*
X022611Y033940D02*
X023089Y033940D01*
X023089Y033962D02*
X022611Y033962D01*
X022611Y033984D02*
X023089Y033984D01*
X023089Y034006D02*
X022611Y034006D01*
X003689Y015014D02*
X003211Y015014D01*
X003689Y015014D02*
X003689Y014786D01*
X003211Y014786D01*
X003211Y015014D01*
X003211Y014808D02*
X003689Y014808D01*
X003689Y014830D02*
X003211Y014830D01*
X003211Y014852D02*
X003689Y014852D01*
X003689Y014874D02*
X003211Y014874D01*
X003211Y014896D02*
X003689Y014896D01*
X003689Y014918D02*
X003211Y014918D01*
X003211Y014940D02*
X003689Y014940D01*
X003689Y014962D02*
X003211Y014962D01*
X003211Y014984D02*
X003689Y014984D01*
X003689Y015006D02*
X003211Y015006D01*
X002989Y014786D02*
X002511Y014786D01*
X002511Y015014D01*
X002989Y015014D01*
X002989Y014786D01*
X002989Y014808D02*
X002511Y014808D01*
X002511Y014830D02*
X002989Y014830D01*
X002989Y014852D02*
X002511Y014852D01*
X002511Y014874D02*
X002989Y014874D01*
X002989Y014896D02*
X002511Y014896D01*
X002511Y014918D02*
X002989Y014918D01*
X002989Y014940D02*
X002511Y014940D01*
X002511Y014962D02*
X002989Y014962D01*
X002989Y014984D02*
X002511Y014984D01*
X002511Y015006D02*
X002989Y015006D01*
X002989Y014286D02*
X002511Y014286D01*
X002511Y014514D01*
X002989Y014514D01*
X002989Y014286D01*
X002989Y014308D02*
X002511Y014308D01*
X002511Y014330D02*
X002989Y014330D01*
X002989Y014352D02*
X002511Y014352D01*
X002511Y014374D02*
X002989Y014374D01*
X002989Y014396D02*
X002511Y014396D01*
X002511Y014418D02*
X002989Y014418D01*
X002989Y014440D02*
X002511Y014440D01*
X002511Y014462D02*
X002989Y014462D01*
X002989Y014484D02*
X002511Y014484D01*
X002511Y014506D02*
X002989Y014506D01*
X002989Y013786D02*
X002511Y013786D01*
X002511Y014014D01*
X002989Y014014D01*
X002989Y013786D01*
X002989Y013808D02*
X002511Y013808D01*
X002511Y013830D02*
X002989Y013830D01*
X002989Y013852D02*
X002511Y013852D01*
X002511Y013874D02*
X002989Y013874D01*
X002989Y013896D02*
X002511Y013896D01*
X002511Y013918D02*
X002989Y013918D01*
X002989Y013940D02*
X002511Y013940D01*
X002511Y013962D02*
X002989Y013962D01*
X002989Y013984D02*
X002511Y013984D01*
X002511Y014006D02*
X002989Y014006D01*
X002989Y013286D02*
X002511Y013286D01*
X002511Y013514D01*
X002989Y013514D01*
X002989Y013286D01*
X002989Y013308D02*
X002511Y013308D01*
X002511Y013330D02*
X002989Y013330D01*
X002989Y013352D02*
X002511Y013352D01*
X002511Y013374D02*
X002989Y013374D01*
X002989Y013396D02*
X002511Y013396D01*
X002511Y013418D02*
X002989Y013418D01*
X002989Y013440D02*
X002511Y013440D01*
X002511Y013462D02*
X002989Y013462D01*
X002989Y013484D02*
X002511Y013484D01*
X002511Y013506D02*
X002989Y013506D01*
X003211Y013514D02*
X003689Y013514D01*
X003689Y013286D01*
X003211Y013286D01*
X003211Y013514D01*
X003211Y013308D02*
X003689Y013308D01*
X003689Y013330D02*
X003211Y013330D01*
X003211Y013352D02*
X003689Y013352D01*
X003689Y013374D02*
X003211Y013374D01*
X003211Y013396D02*
X003689Y013396D01*
X003689Y013418D02*
X003211Y013418D01*
X003211Y013440D02*
X003689Y013440D01*
X003689Y013462D02*
X003211Y013462D01*
X003211Y013484D02*
X003689Y013484D01*
X003689Y013506D02*
X003211Y013506D01*
X003211Y014014D02*
X003689Y014014D01*
X003689Y013786D01*
X003211Y013786D01*
X003211Y014014D01*
X003211Y013808D02*
X003689Y013808D01*
X003689Y013830D02*
X003211Y013830D01*
X003211Y013852D02*
X003689Y013852D01*
X003689Y013874D02*
X003211Y013874D01*
X003211Y013896D02*
X003689Y013896D01*
X003689Y013918D02*
X003211Y013918D01*
X003211Y013940D02*
X003689Y013940D01*
X003689Y013962D02*
X003211Y013962D01*
X003211Y013984D02*
X003689Y013984D01*
X003689Y014006D02*
X003211Y014006D01*
X003211Y014514D02*
X003689Y014514D01*
X003689Y014286D01*
X003211Y014286D01*
X003211Y014514D01*
X003211Y014308D02*
X003689Y014308D01*
X003689Y014330D02*
X003211Y014330D01*
X003211Y014352D02*
X003689Y014352D01*
X003689Y014374D02*
X003211Y014374D01*
X003211Y014396D02*
X003689Y014396D01*
X003689Y014418D02*
X003211Y014418D01*
X003211Y014440D02*
X003689Y014440D01*
X003689Y014462D02*
X003211Y014462D01*
X003211Y014484D02*
X003689Y014484D01*
X003689Y014506D02*
X003211Y014506D01*
X003211Y013014D02*
X003689Y013014D01*
X003689Y012786D01*
X003211Y012786D01*
X003211Y013014D01*
X003211Y012808D02*
X003689Y012808D01*
X003689Y012830D02*
X003211Y012830D01*
X003211Y012852D02*
X003689Y012852D01*
X003689Y012874D02*
X003211Y012874D01*
X003211Y012896D02*
X003689Y012896D01*
X003689Y012918D02*
X003211Y012918D01*
X003211Y012940D02*
X003689Y012940D01*
X003689Y012962D02*
X003211Y012962D01*
X003211Y012984D02*
X003689Y012984D01*
X003689Y013006D02*
X003211Y013006D01*
X002989Y012786D02*
X002511Y012786D01*
X002511Y013014D01*
X002989Y013014D01*
X002989Y012786D01*
X002989Y012808D02*
X002511Y012808D01*
X002511Y012830D02*
X002989Y012830D01*
X002989Y012852D02*
X002511Y012852D01*
X002511Y012874D02*
X002989Y012874D01*
X002989Y012896D02*
X002511Y012896D01*
X002511Y012918D02*
X002989Y012918D01*
X002989Y012940D02*
X002511Y012940D01*
X002511Y012962D02*
X002989Y012962D01*
X002989Y012984D02*
X002511Y012984D01*
X002511Y013006D02*
X002989Y013006D01*
X002989Y012286D02*
X002511Y012286D01*
X002511Y012514D01*
X002989Y012514D01*
X002989Y012286D01*
X002989Y012308D02*
X002511Y012308D01*
X002511Y012330D02*
X002989Y012330D01*
X002989Y012352D02*
X002511Y012352D01*
X002511Y012374D02*
X002989Y012374D01*
X002989Y012396D02*
X002511Y012396D01*
X002511Y012418D02*
X002989Y012418D01*
X002989Y012440D02*
X002511Y012440D01*
X002511Y012462D02*
X002989Y012462D01*
X002989Y012484D02*
X002511Y012484D01*
X002511Y012506D02*
X002989Y012506D01*
X002989Y011786D02*
X002511Y011786D01*
X002511Y012014D01*
X002989Y012014D01*
X002989Y011786D01*
X002989Y011808D02*
X002511Y011808D01*
X002511Y011830D02*
X002989Y011830D01*
X002989Y011852D02*
X002511Y011852D01*
X002511Y011874D02*
X002989Y011874D01*
X002989Y011896D02*
X002511Y011896D01*
X002511Y011918D02*
X002989Y011918D01*
X002989Y011940D02*
X002511Y011940D01*
X002511Y011962D02*
X002989Y011962D01*
X002989Y011984D02*
X002511Y011984D01*
X002511Y012006D02*
X002989Y012006D01*
X003211Y012014D02*
X003689Y012014D01*
X003689Y011786D01*
X003211Y011786D01*
X003211Y012014D01*
X003211Y011808D02*
X003689Y011808D01*
X003689Y011830D02*
X003211Y011830D01*
X003211Y011852D02*
X003689Y011852D01*
X003689Y011874D02*
X003211Y011874D01*
X003211Y011896D02*
X003689Y011896D01*
X003689Y011918D02*
X003211Y011918D01*
X003211Y011940D02*
X003689Y011940D01*
X003689Y011962D02*
X003211Y011962D01*
X003211Y011984D02*
X003689Y011984D01*
X003689Y012006D02*
X003211Y012006D01*
X003211Y012514D02*
X003689Y012514D01*
X003689Y012286D01*
X003211Y012286D01*
X003211Y012514D01*
X003211Y012308D02*
X003689Y012308D01*
X003689Y012330D02*
X003211Y012330D01*
X003211Y012352D02*
X003689Y012352D01*
X003689Y012374D02*
X003211Y012374D01*
X003211Y012396D02*
X003689Y012396D01*
X003689Y012418D02*
X003211Y012418D01*
X003211Y012440D02*
X003689Y012440D01*
X003689Y012462D02*
X003211Y012462D01*
X003211Y012484D02*
X003689Y012484D01*
X003689Y012506D02*
X003211Y012506D01*
X003211Y011514D02*
X003689Y011514D01*
X003689Y011286D01*
X003211Y011286D01*
X003211Y011514D01*
X003211Y011308D02*
X003689Y011308D01*
X003689Y011330D02*
X003211Y011330D01*
X003211Y011352D02*
X003689Y011352D01*
X003689Y011374D02*
X003211Y011374D01*
X003211Y011396D02*
X003689Y011396D01*
X003689Y011418D02*
X003211Y011418D01*
X003211Y011440D02*
X003689Y011440D01*
X003689Y011462D02*
X003211Y011462D01*
X003211Y011484D02*
X003689Y011484D01*
X003689Y011506D02*
X003211Y011506D01*
X002989Y011286D02*
X002511Y011286D01*
X002511Y011514D01*
X002989Y011514D01*
X002989Y011286D01*
X002989Y011308D02*
X002511Y011308D01*
X002511Y011330D02*
X002989Y011330D01*
X002989Y011352D02*
X002511Y011352D01*
X002511Y011374D02*
X002989Y011374D01*
X002989Y011396D02*
X002511Y011396D01*
X002511Y011418D02*
X002989Y011418D01*
X002989Y011440D02*
X002511Y011440D01*
X002511Y011462D02*
X002989Y011462D01*
X002989Y011484D02*
X002511Y011484D01*
X002511Y011506D02*
X002989Y011506D01*
X002989Y010786D02*
X002511Y010786D01*
X002511Y011014D01*
X002989Y011014D01*
X002989Y010786D01*
X002989Y010808D02*
X002511Y010808D01*
X002511Y010830D02*
X002989Y010830D01*
X002989Y010852D02*
X002511Y010852D01*
X002511Y010874D02*
X002989Y010874D01*
X002989Y010896D02*
X002511Y010896D01*
X002511Y010918D02*
X002989Y010918D01*
X002989Y010940D02*
X002511Y010940D01*
X002511Y010962D02*
X002989Y010962D01*
X002989Y010984D02*
X002511Y010984D01*
X002511Y011006D02*
X002989Y011006D01*
X002989Y010286D02*
X002511Y010286D01*
X002511Y010514D01*
X002989Y010514D01*
X002989Y010286D01*
X002989Y010308D02*
X002511Y010308D01*
X002511Y010330D02*
X002989Y010330D01*
X002989Y010352D02*
X002511Y010352D01*
X002511Y010374D02*
X002989Y010374D01*
X002989Y010396D02*
X002511Y010396D01*
X002511Y010418D02*
X002989Y010418D01*
X002989Y010440D02*
X002511Y010440D01*
X002511Y010462D02*
X002989Y010462D01*
X002989Y010484D02*
X002511Y010484D01*
X002511Y010506D02*
X002989Y010506D01*
X002989Y010014D02*
X002511Y010014D01*
X002989Y010014D02*
X002989Y009786D01*
X002511Y009786D01*
X002511Y010014D01*
X002511Y009808D02*
X002989Y009808D01*
X002989Y009830D02*
X002511Y009830D01*
X002511Y009852D02*
X002989Y009852D01*
X002989Y009874D02*
X002511Y009874D01*
X002511Y009896D02*
X002989Y009896D01*
X002989Y009918D02*
X002511Y009918D01*
X002511Y009940D02*
X002989Y009940D01*
X002989Y009962D02*
X002511Y009962D01*
X002511Y009984D02*
X002989Y009984D01*
X002989Y010006D02*
X002511Y010006D01*
X002511Y009514D02*
X002989Y009514D01*
X002989Y009286D01*
X002511Y009286D01*
X002511Y009514D01*
X002511Y009308D02*
X002989Y009308D01*
X002989Y009330D02*
X002511Y009330D01*
X002511Y009352D02*
X002989Y009352D01*
X002989Y009374D02*
X002511Y009374D01*
X002511Y009396D02*
X002989Y009396D01*
X002989Y009418D02*
X002511Y009418D01*
X002511Y009440D02*
X002989Y009440D01*
X002989Y009462D02*
X002511Y009462D01*
X002511Y009484D02*
X002989Y009484D01*
X002989Y009506D02*
X002511Y009506D01*
X002511Y009014D02*
X002989Y009014D01*
X002989Y008786D01*
X002511Y008786D01*
X002511Y009014D01*
X002511Y008808D02*
X002989Y008808D01*
X002989Y008830D02*
X002511Y008830D01*
X002511Y008852D02*
X002989Y008852D01*
X002989Y008874D02*
X002511Y008874D01*
X002511Y008896D02*
X002989Y008896D01*
X002989Y008918D02*
X002511Y008918D01*
X002511Y008940D02*
X002989Y008940D01*
X002989Y008962D02*
X002511Y008962D01*
X002511Y008984D02*
X002989Y008984D01*
X002989Y009006D02*
X002511Y009006D01*
X002511Y008514D02*
X002989Y008514D01*
X002989Y008286D01*
X002511Y008286D01*
X002511Y008514D01*
X002511Y008308D02*
X002989Y008308D01*
X002989Y008330D02*
X002511Y008330D01*
X002511Y008352D02*
X002989Y008352D01*
X002989Y008374D02*
X002511Y008374D01*
X002511Y008396D02*
X002989Y008396D01*
X002989Y008418D02*
X002511Y008418D01*
X002511Y008440D02*
X002989Y008440D01*
X002989Y008462D02*
X002511Y008462D01*
X002511Y008484D02*
X002989Y008484D01*
X002989Y008506D02*
X002511Y008506D01*
X002511Y008014D02*
X002989Y008014D01*
X002989Y007786D01*
X002511Y007786D01*
X002511Y008014D01*
X002511Y007808D02*
X002989Y007808D01*
X002989Y007830D02*
X002511Y007830D01*
X002511Y007852D02*
X002989Y007852D01*
X002989Y007874D02*
X002511Y007874D01*
X002511Y007896D02*
X002989Y007896D01*
X002989Y007918D02*
X002511Y007918D01*
X002511Y007940D02*
X002989Y007940D01*
X002989Y007962D02*
X002511Y007962D01*
X002511Y007984D02*
X002989Y007984D01*
X002989Y008006D02*
X002511Y008006D01*
X002511Y007514D02*
X002989Y007514D01*
X002989Y007286D01*
X002511Y007286D01*
X002511Y007514D01*
X002511Y007308D02*
X002989Y007308D01*
X002989Y007330D02*
X002511Y007330D01*
X002511Y007352D02*
X002989Y007352D01*
X002989Y007374D02*
X002511Y007374D01*
X002511Y007396D02*
X002989Y007396D01*
X002989Y007418D02*
X002511Y007418D01*
X002511Y007440D02*
X002989Y007440D01*
X002989Y007462D02*
X002511Y007462D01*
X002511Y007484D02*
X002989Y007484D01*
X002989Y007506D02*
X002511Y007506D01*
X002511Y007014D02*
X002989Y007014D01*
X002989Y006786D01*
X002511Y006786D01*
X002511Y007014D01*
X002511Y006808D02*
X002989Y006808D01*
X002989Y006830D02*
X002511Y006830D01*
X002511Y006852D02*
X002989Y006852D01*
X002989Y006874D02*
X002511Y006874D01*
X002511Y006896D02*
X002989Y006896D01*
X002989Y006918D02*
X002511Y006918D01*
X002511Y006940D02*
X002989Y006940D01*
X002989Y006962D02*
X002511Y006962D01*
X002511Y006984D02*
X002989Y006984D01*
X002989Y007006D02*
X002511Y007006D01*
X002511Y006514D02*
X002989Y006514D01*
X002989Y006286D01*
X002511Y006286D01*
X002511Y006514D01*
X002511Y006308D02*
X002989Y006308D01*
X002989Y006330D02*
X002511Y006330D01*
X002511Y006352D02*
X002989Y006352D01*
X002989Y006374D02*
X002511Y006374D01*
X002511Y006396D02*
X002989Y006396D01*
X002989Y006418D02*
X002511Y006418D01*
X002511Y006440D02*
X002989Y006440D01*
X002989Y006462D02*
X002511Y006462D01*
X002511Y006484D02*
X002989Y006484D01*
X002989Y006506D02*
X002511Y006506D01*
X002511Y006014D02*
X002989Y006014D01*
X002989Y005786D01*
X002511Y005786D01*
X002511Y006014D01*
X002511Y005808D02*
X002989Y005808D01*
X002989Y005830D02*
X002511Y005830D01*
X002511Y005852D02*
X002989Y005852D01*
X002989Y005874D02*
X002511Y005874D01*
X002511Y005896D02*
X002989Y005896D01*
X002989Y005918D02*
X002511Y005918D01*
X002511Y005940D02*
X002989Y005940D01*
X002989Y005962D02*
X002511Y005962D01*
X002511Y005984D02*
X002989Y005984D01*
X002989Y006006D02*
X002511Y006006D01*
X002511Y005514D02*
X002989Y005514D01*
X002989Y005286D01*
X002511Y005286D01*
X002511Y005514D01*
X002511Y005308D02*
X002989Y005308D01*
X002989Y005330D02*
X002511Y005330D01*
X002511Y005352D02*
X002989Y005352D01*
X002989Y005374D02*
X002511Y005374D01*
X002511Y005396D02*
X002989Y005396D01*
X002989Y005418D02*
X002511Y005418D01*
X002511Y005440D02*
X002989Y005440D01*
X002989Y005462D02*
X002511Y005462D01*
X002511Y005484D02*
X002989Y005484D01*
X002989Y005506D02*
X002511Y005506D01*
X002511Y005014D02*
X002989Y005014D01*
X002989Y004786D01*
X002511Y004786D01*
X002511Y005014D01*
X002511Y004808D02*
X002989Y004808D01*
X002989Y004830D02*
X002511Y004830D01*
X002511Y004852D02*
X002989Y004852D01*
X002989Y004874D02*
X002511Y004874D01*
X002511Y004896D02*
X002989Y004896D01*
X002989Y004918D02*
X002511Y004918D01*
X002511Y004940D02*
X002989Y004940D01*
X002989Y004962D02*
X002511Y004962D01*
X002511Y004984D02*
X002989Y004984D01*
X002989Y005006D02*
X002511Y005006D01*
X002511Y004514D02*
X002989Y004514D01*
X002989Y004286D01*
X002511Y004286D01*
X002511Y004514D01*
X002511Y004308D02*
X002989Y004308D01*
X002989Y004330D02*
X002511Y004330D01*
X002511Y004352D02*
X002989Y004352D01*
X002989Y004374D02*
X002511Y004374D01*
X002511Y004396D02*
X002989Y004396D01*
X002989Y004418D02*
X002511Y004418D01*
X002511Y004440D02*
X002989Y004440D01*
X002989Y004462D02*
X002511Y004462D01*
X002511Y004484D02*
X002989Y004484D01*
X002989Y004506D02*
X002511Y004506D01*
X003211Y004514D02*
X003689Y004514D01*
X003689Y004286D01*
X003211Y004286D01*
X003211Y004514D01*
X003211Y004308D02*
X003689Y004308D01*
X003689Y004330D02*
X003211Y004330D01*
X003211Y004352D02*
X003689Y004352D01*
X003689Y004374D02*
X003211Y004374D01*
X003211Y004396D02*
X003689Y004396D01*
X003689Y004418D02*
X003211Y004418D01*
X003211Y004440D02*
X003689Y004440D01*
X003689Y004462D02*
X003211Y004462D01*
X003211Y004484D02*
X003689Y004484D01*
X003689Y004506D02*
X003211Y004506D01*
X003211Y005014D02*
X003689Y005014D01*
X003689Y004786D01*
X003211Y004786D01*
X003211Y005014D01*
X003211Y004808D02*
X003689Y004808D01*
X003689Y004830D02*
X003211Y004830D01*
X003211Y004852D02*
X003689Y004852D01*
X003689Y004874D02*
X003211Y004874D01*
X003211Y004896D02*
X003689Y004896D01*
X003689Y004918D02*
X003211Y004918D01*
X003211Y004940D02*
X003689Y004940D01*
X003689Y004962D02*
X003211Y004962D01*
X003211Y004984D02*
X003689Y004984D01*
X003689Y005006D02*
X003211Y005006D01*
X003211Y005514D02*
X003689Y005514D01*
X003689Y005286D01*
X003211Y005286D01*
X003211Y005514D01*
X003211Y005308D02*
X003689Y005308D01*
X003689Y005330D02*
X003211Y005330D01*
X003211Y005352D02*
X003689Y005352D01*
X003689Y005374D02*
X003211Y005374D01*
X003211Y005396D02*
X003689Y005396D01*
X003689Y005418D02*
X003211Y005418D01*
X003211Y005440D02*
X003689Y005440D01*
X003689Y005462D02*
X003211Y005462D01*
X003211Y005484D02*
X003689Y005484D01*
X003689Y005506D02*
X003211Y005506D01*
X003211Y006014D02*
X003689Y006014D01*
X003689Y005786D01*
X003211Y005786D01*
X003211Y006014D01*
X003211Y005808D02*
X003689Y005808D01*
X003689Y005830D02*
X003211Y005830D01*
X003211Y005852D02*
X003689Y005852D01*
X003689Y005874D02*
X003211Y005874D01*
X003211Y005896D02*
X003689Y005896D01*
X003689Y005918D02*
X003211Y005918D01*
X003211Y005940D02*
X003689Y005940D01*
X003689Y005962D02*
X003211Y005962D01*
X003211Y005984D02*
X003689Y005984D01*
X003689Y006006D02*
X003211Y006006D01*
X003211Y006514D02*
X003689Y006514D01*
X003689Y006286D01*
X003211Y006286D01*
X003211Y006514D01*
X003211Y006308D02*
X003689Y006308D01*
X003689Y006330D02*
X003211Y006330D01*
X003211Y006352D02*
X003689Y006352D01*
X003689Y006374D02*
X003211Y006374D01*
X003211Y006396D02*
X003689Y006396D01*
X003689Y006418D02*
X003211Y006418D01*
X003211Y006440D02*
X003689Y006440D01*
X003689Y006462D02*
X003211Y006462D01*
X003211Y006484D02*
X003689Y006484D01*
X003689Y006506D02*
X003211Y006506D01*
X003211Y007014D02*
X003689Y007014D01*
X003689Y006786D01*
X003211Y006786D01*
X003211Y007014D01*
X003211Y006808D02*
X003689Y006808D01*
X003689Y006830D02*
X003211Y006830D01*
X003211Y006852D02*
X003689Y006852D01*
X003689Y006874D02*
X003211Y006874D01*
X003211Y006896D02*
X003689Y006896D01*
X003689Y006918D02*
X003211Y006918D01*
X003211Y006940D02*
X003689Y006940D01*
X003689Y006962D02*
X003211Y006962D01*
X003211Y006984D02*
X003689Y006984D01*
X003689Y007006D02*
X003211Y007006D01*
X003211Y007514D02*
X003689Y007514D01*
X003689Y007286D01*
X003211Y007286D01*
X003211Y007514D01*
X003211Y007308D02*
X003689Y007308D01*
X003689Y007330D02*
X003211Y007330D01*
X003211Y007352D02*
X003689Y007352D01*
X003689Y007374D02*
X003211Y007374D01*
X003211Y007396D02*
X003689Y007396D01*
X003689Y007418D02*
X003211Y007418D01*
X003211Y007440D02*
X003689Y007440D01*
X003689Y007462D02*
X003211Y007462D01*
X003211Y007484D02*
X003689Y007484D01*
X003689Y007506D02*
X003211Y007506D01*
X003211Y008014D02*
X003689Y008014D01*
X003689Y007786D01*
X003211Y007786D01*
X003211Y008014D01*
X003211Y007808D02*
X003689Y007808D01*
X003689Y007830D02*
X003211Y007830D01*
X003211Y007852D02*
X003689Y007852D01*
X003689Y007874D02*
X003211Y007874D01*
X003211Y007896D02*
X003689Y007896D01*
X003689Y007918D02*
X003211Y007918D01*
X003211Y007940D02*
X003689Y007940D01*
X003689Y007962D02*
X003211Y007962D01*
X003211Y007984D02*
X003689Y007984D01*
X003689Y008006D02*
X003211Y008006D01*
X003211Y008514D02*
X003689Y008514D01*
X003689Y008286D01*
X003211Y008286D01*
X003211Y008514D01*
X003211Y008308D02*
X003689Y008308D01*
X003689Y008330D02*
X003211Y008330D01*
X003211Y008352D02*
X003689Y008352D01*
X003689Y008374D02*
X003211Y008374D01*
X003211Y008396D02*
X003689Y008396D01*
X003689Y008418D02*
X003211Y008418D01*
X003211Y008440D02*
X003689Y008440D01*
X003689Y008462D02*
X003211Y008462D01*
X003211Y008484D02*
X003689Y008484D01*
X003689Y008506D02*
X003211Y008506D01*
X003211Y009014D02*
X003689Y009014D01*
X003689Y008786D01*
X003211Y008786D01*
X003211Y009014D01*
X003211Y008808D02*
X003689Y008808D01*
X003689Y008830D02*
X003211Y008830D01*
X003211Y008852D02*
X003689Y008852D01*
X003689Y008874D02*
X003211Y008874D01*
X003211Y008896D02*
X003689Y008896D01*
X003689Y008918D02*
X003211Y008918D01*
X003211Y008940D02*
X003689Y008940D01*
X003689Y008962D02*
X003211Y008962D01*
X003211Y008984D02*
X003689Y008984D01*
X003689Y009006D02*
X003211Y009006D01*
X003211Y009514D02*
X003689Y009514D01*
X003689Y009286D01*
X003211Y009286D01*
X003211Y009514D01*
X003211Y009308D02*
X003689Y009308D01*
X003689Y009330D02*
X003211Y009330D01*
X003211Y009352D02*
X003689Y009352D01*
X003689Y009374D02*
X003211Y009374D01*
X003211Y009396D02*
X003689Y009396D01*
X003689Y009418D02*
X003211Y009418D01*
X003211Y009440D02*
X003689Y009440D01*
X003689Y009462D02*
X003211Y009462D01*
X003211Y009484D02*
X003689Y009484D01*
X003689Y009506D02*
X003211Y009506D01*
X003211Y010014D02*
X003689Y010014D01*
X003689Y009786D01*
X003211Y009786D01*
X003211Y010014D01*
X003211Y009808D02*
X003689Y009808D01*
X003689Y009830D02*
X003211Y009830D01*
X003211Y009852D02*
X003689Y009852D01*
X003689Y009874D02*
X003211Y009874D01*
X003211Y009896D02*
X003689Y009896D01*
X003689Y009918D02*
X003211Y009918D01*
X003211Y009940D02*
X003689Y009940D01*
X003689Y009962D02*
X003211Y009962D01*
X003211Y009984D02*
X003689Y009984D01*
X003689Y010006D02*
X003211Y010006D01*
X003211Y010514D02*
X003689Y010514D01*
X003689Y010286D01*
X003211Y010286D01*
X003211Y010514D01*
X003211Y010308D02*
X003689Y010308D01*
X003689Y010330D02*
X003211Y010330D01*
X003211Y010352D02*
X003689Y010352D01*
X003689Y010374D02*
X003211Y010374D01*
X003211Y010396D02*
X003689Y010396D01*
X003689Y010418D02*
X003211Y010418D01*
X003211Y010440D02*
X003689Y010440D01*
X003689Y010462D02*
X003211Y010462D01*
X003211Y010484D02*
X003689Y010484D01*
X003689Y010506D02*
X003211Y010506D01*
X003211Y011014D02*
X003689Y011014D01*
X003689Y010786D01*
X003211Y010786D01*
X003211Y011014D01*
X003211Y010808D02*
X003689Y010808D01*
X003689Y010830D02*
X003211Y010830D01*
X003211Y010852D02*
X003689Y010852D01*
X003689Y010874D02*
X003211Y010874D01*
X003211Y010896D02*
X003689Y010896D01*
X003689Y010918D02*
X003211Y010918D01*
X003211Y010940D02*
X003689Y010940D01*
X003689Y010962D02*
X003211Y010962D01*
X003211Y010984D02*
X003689Y010984D01*
X003689Y011006D02*
X003211Y011006D01*
X006436Y002039D02*
X006436Y001561D01*
X006436Y002039D02*
X006664Y002039D01*
X006664Y001561D01*
X006436Y001561D01*
X006436Y001583D02*
X006664Y001583D01*
X006664Y001605D02*
X006436Y001605D01*
X006436Y001627D02*
X006664Y001627D01*
X006664Y001649D02*
X006436Y001649D01*
X006436Y001671D02*
X006664Y001671D01*
X006664Y001693D02*
X006436Y001693D01*
X006436Y001715D02*
X006664Y001715D01*
X006664Y001737D02*
X006436Y001737D01*
X006436Y001759D02*
X006664Y001759D01*
X006664Y001781D02*
X006436Y001781D01*
X006436Y001803D02*
X006664Y001803D01*
X006664Y001825D02*
X006436Y001825D01*
X006436Y001847D02*
X006664Y001847D01*
X006664Y001869D02*
X006436Y001869D01*
X006436Y001891D02*
X006664Y001891D01*
X006664Y001913D02*
X006436Y001913D01*
X006436Y001935D02*
X006664Y001935D01*
X006664Y001957D02*
X006436Y001957D01*
X006436Y001979D02*
X006664Y001979D01*
X006664Y002001D02*
X006436Y002001D01*
X006436Y002023D02*
X006664Y002023D01*
X006936Y002039D02*
X006936Y001561D01*
X006936Y002039D02*
X007164Y002039D01*
X007164Y001561D01*
X006936Y001561D01*
X006936Y001583D02*
X007164Y001583D01*
X007164Y001605D02*
X006936Y001605D01*
X006936Y001627D02*
X007164Y001627D01*
X007164Y001649D02*
X006936Y001649D01*
X006936Y001671D02*
X007164Y001671D01*
X007164Y001693D02*
X006936Y001693D01*
X006936Y001715D02*
X007164Y001715D01*
X007164Y001737D02*
X006936Y001737D01*
X006936Y001759D02*
X007164Y001759D01*
X007164Y001781D02*
X006936Y001781D01*
X006936Y001803D02*
X007164Y001803D01*
X007164Y001825D02*
X006936Y001825D01*
X006936Y001847D02*
X007164Y001847D01*
X007164Y001869D02*
X006936Y001869D01*
X006936Y001891D02*
X007164Y001891D01*
X007164Y001913D02*
X006936Y001913D01*
X006936Y001935D02*
X007164Y001935D01*
X007164Y001957D02*
X006936Y001957D01*
X006936Y001979D02*
X007164Y001979D01*
X007164Y002001D02*
X006936Y002001D01*
X006936Y002023D02*
X007164Y002023D01*
X007436Y002039D02*
X007436Y001561D01*
X007436Y002039D02*
X007664Y002039D01*
X007664Y001561D01*
X007436Y001561D01*
X007436Y001583D02*
X007664Y001583D01*
X007664Y001605D02*
X007436Y001605D01*
X007436Y001627D02*
X007664Y001627D01*
X007664Y001649D02*
X007436Y001649D01*
X007436Y001671D02*
X007664Y001671D01*
X007664Y001693D02*
X007436Y001693D01*
X007436Y001715D02*
X007664Y001715D01*
X007664Y001737D02*
X007436Y001737D01*
X007436Y001759D02*
X007664Y001759D01*
X007664Y001781D02*
X007436Y001781D01*
X007436Y001803D02*
X007664Y001803D01*
X007664Y001825D02*
X007436Y001825D01*
X007436Y001847D02*
X007664Y001847D01*
X007664Y001869D02*
X007436Y001869D01*
X007436Y001891D02*
X007664Y001891D01*
X007664Y001913D02*
X007436Y001913D01*
X007436Y001935D02*
X007664Y001935D01*
X007664Y001957D02*
X007436Y001957D01*
X007436Y001979D02*
X007664Y001979D01*
X007664Y002001D02*
X007436Y002001D01*
X007436Y002023D02*
X007664Y002023D01*
X007936Y002039D02*
X007936Y001561D01*
X007936Y002039D02*
X008164Y002039D01*
X008164Y001561D01*
X007936Y001561D01*
X007936Y001583D02*
X008164Y001583D01*
X008164Y001605D02*
X007936Y001605D01*
X007936Y001627D02*
X008164Y001627D01*
X008164Y001649D02*
X007936Y001649D01*
X007936Y001671D02*
X008164Y001671D01*
X008164Y001693D02*
X007936Y001693D01*
X007936Y001715D02*
X008164Y001715D01*
X008164Y001737D02*
X007936Y001737D01*
X007936Y001759D02*
X008164Y001759D01*
X008164Y001781D02*
X007936Y001781D01*
X007936Y001803D02*
X008164Y001803D01*
X008164Y001825D02*
X007936Y001825D01*
X007936Y001847D02*
X008164Y001847D01*
X008164Y001869D02*
X007936Y001869D01*
X007936Y001891D02*
X008164Y001891D01*
X008164Y001913D02*
X007936Y001913D01*
X007936Y001935D02*
X008164Y001935D01*
X008164Y001957D02*
X007936Y001957D01*
X007936Y001979D02*
X008164Y001979D01*
X008164Y002001D02*
X007936Y002001D01*
X007936Y002023D02*
X008164Y002023D01*
X008436Y002039D02*
X008436Y001561D01*
X008436Y002039D02*
X008664Y002039D01*
X008664Y001561D01*
X008436Y001561D01*
X008436Y001583D02*
X008664Y001583D01*
X008664Y001605D02*
X008436Y001605D01*
X008436Y001627D02*
X008664Y001627D01*
X008664Y001649D02*
X008436Y001649D01*
X008436Y001671D02*
X008664Y001671D01*
X008664Y001693D02*
X008436Y001693D01*
X008436Y001715D02*
X008664Y001715D01*
X008664Y001737D02*
X008436Y001737D01*
X008436Y001759D02*
X008664Y001759D01*
X008664Y001781D02*
X008436Y001781D01*
X008436Y001803D02*
X008664Y001803D01*
X008664Y001825D02*
X008436Y001825D01*
X008436Y001847D02*
X008664Y001847D01*
X008664Y001869D02*
X008436Y001869D01*
X008436Y001891D02*
X008664Y001891D01*
X008664Y001913D02*
X008436Y001913D01*
X008436Y001935D02*
X008664Y001935D01*
X008664Y001957D02*
X008436Y001957D01*
X008436Y001979D02*
X008664Y001979D01*
X008664Y002001D02*
X008436Y002001D01*
X008436Y002023D02*
X008664Y002023D01*
X008936Y002039D02*
X008936Y001561D01*
X008936Y002039D02*
X009164Y002039D01*
X009164Y001561D01*
X008936Y001561D01*
X008936Y001583D02*
X009164Y001583D01*
X009164Y001605D02*
X008936Y001605D01*
X008936Y001627D02*
X009164Y001627D01*
X009164Y001649D02*
X008936Y001649D01*
X008936Y001671D02*
X009164Y001671D01*
X009164Y001693D02*
X008936Y001693D01*
X008936Y001715D02*
X009164Y001715D01*
X009164Y001737D02*
X008936Y001737D01*
X008936Y001759D02*
X009164Y001759D01*
X009164Y001781D02*
X008936Y001781D01*
X008936Y001803D02*
X009164Y001803D01*
X009164Y001825D02*
X008936Y001825D01*
X008936Y001847D02*
X009164Y001847D01*
X009164Y001869D02*
X008936Y001869D01*
X008936Y001891D02*
X009164Y001891D01*
X009164Y001913D02*
X008936Y001913D01*
X008936Y001935D02*
X009164Y001935D01*
X009164Y001957D02*
X008936Y001957D01*
X008936Y001979D02*
X009164Y001979D01*
X009164Y002001D02*
X008936Y002001D01*
X008936Y002023D02*
X009164Y002023D01*
X009436Y002039D02*
X009436Y001561D01*
X009436Y002039D02*
X009664Y002039D01*
X009664Y001561D01*
X009436Y001561D01*
X009436Y001583D02*
X009664Y001583D01*
X009664Y001605D02*
X009436Y001605D01*
X009436Y001627D02*
X009664Y001627D01*
X009664Y001649D02*
X009436Y001649D01*
X009436Y001671D02*
X009664Y001671D01*
X009664Y001693D02*
X009436Y001693D01*
X009436Y001715D02*
X009664Y001715D01*
X009664Y001737D02*
X009436Y001737D01*
X009436Y001759D02*
X009664Y001759D01*
X009664Y001781D02*
X009436Y001781D01*
X009436Y001803D02*
X009664Y001803D01*
X009664Y001825D02*
X009436Y001825D01*
X009436Y001847D02*
X009664Y001847D01*
X009664Y001869D02*
X009436Y001869D01*
X009436Y001891D02*
X009664Y001891D01*
X009664Y001913D02*
X009436Y001913D01*
X009436Y001935D02*
X009664Y001935D01*
X009664Y001957D02*
X009436Y001957D01*
X009436Y001979D02*
X009664Y001979D01*
X009664Y002001D02*
X009436Y002001D01*
X009436Y002023D02*
X009664Y002023D01*
X009936Y002039D02*
X009936Y001561D01*
X009936Y002039D02*
X010164Y002039D01*
X010164Y001561D01*
X009936Y001561D01*
X009936Y001583D02*
X010164Y001583D01*
X010164Y001605D02*
X009936Y001605D01*
X009936Y001627D02*
X010164Y001627D01*
X010164Y001649D02*
X009936Y001649D01*
X009936Y001671D02*
X010164Y001671D01*
X010164Y001693D02*
X009936Y001693D01*
X009936Y001715D02*
X010164Y001715D01*
X010164Y001737D02*
X009936Y001737D01*
X009936Y001759D02*
X010164Y001759D01*
X010164Y001781D02*
X009936Y001781D01*
X009936Y001803D02*
X010164Y001803D01*
X010164Y001825D02*
X009936Y001825D01*
X009936Y001847D02*
X010164Y001847D01*
X010164Y001869D02*
X009936Y001869D01*
X009936Y001891D02*
X010164Y001891D01*
X010164Y001913D02*
X009936Y001913D01*
X009936Y001935D02*
X010164Y001935D01*
X010164Y001957D02*
X009936Y001957D01*
X009936Y001979D02*
X010164Y001979D01*
X010164Y002001D02*
X009936Y002001D01*
X009936Y002023D02*
X010164Y002023D01*
X010436Y002039D02*
X010436Y001561D01*
X010436Y002039D02*
X010664Y002039D01*
X010664Y001561D01*
X010436Y001561D01*
X010436Y001583D02*
X010664Y001583D01*
X010664Y001605D02*
X010436Y001605D01*
X010436Y001627D02*
X010664Y001627D01*
X010664Y001649D02*
X010436Y001649D01*
X010436Y001671D02*
X010664Y001671D01*
X010664Y001693D02*
X010436Y001693D01*
X010436Y001715D02*
X010664Y001715D01*
X010664Y001737D02*
X010436Y001737D01*
X010436Y001759D02*
X010664Y001759D01*
X010664Y001781D02*
X010436Y001781D01*
X010436Y001803D02*
X010664Y001803D01*
X010664Y001825D02*
X010436Y001825D01*
X010436Y001847D02*
X010664Y001847D01*
X010664Y001869D02*
X010436Y001869D01*
X010436Y001891D02*
X010664Y001891D01*
X010664Y001913D02*
X010436Y001913D01*
X010436Y001935D02*
X010664Y001935D01*
X010664Y001957D02*
X010436Y001957D01*
X010436Y001979D02*
X010664Y001979D01*
X010664Y002001D02*
X010436Y002001D01*
X010436Y002023D02*
X010664Y002023D01*
X010936Y002039D02*
X010936Y001561D01*
X010936Y002039D02*
X011164Y002039D01*
X011164Y001561D01*
X010936Y001561D01*
X010936Y001583D02*
X011164Y001583D01*
X011164Y001605D02*
X010936Y001605D01*
X010936Y001627D02*
X011164Y001627D01*
X011164Y001649D02*
X010936Y001649D01*
X010936Y001671D02*
X011164Y001671D01*
X011164Y001693D02*
X010936Y001693D01*
X010936Y001715D02*
X011164Y001715D01*
X011164Y001737D02*
X010936Y001737D01*
X010936Y001759D02*
X011164Y001759D01*
X011164Y001781D02*
X010936Y001781D01*
X010936Y001803D02*
X011164Y001803D01*
X011164Y001825D02*
X010936Y001825D01*
X010936Y001847D02*
X011164Y001847D01*
X011164Y001869D02*
X010936Y001869D01*
X010936Y001891D02*
X011164Y001891D01*
X011164Y001913D02*
X010936Y001913D01*
X010936Y001935D02*
X011164Y001935D01*
X011164Y001957D02*
X010936Y001957D01*
X010936Y001979D02*
X011164Y001979D01*
X011164Y002001D02*
X010936Y002001D01*
X010936Y002023D02*
X011164Y002023D01*
X014436Y002039D02*
X014436Y001561D01*
X014436Y002039D02*
X014664Y002039D01*
X014664Y001561D01*
X014436Y001561D01*
X014436Y001583D02*
X014664Y001583D01*
X014664Y001605D02*
X014436Y001605D01*
X014436Y001627D02*
X014664Y001627D01*
X014664Y001649D02*
X014436Y001649D01*
X014436Y001671D02*
X014664Y001671D01*
X014664Y001693D02*
X014436Y001693D01*
X014436Y001715D02*
X014664Y001715D01*
X014664Y001737D02*
X014436Y001737D01*
X014436Y001759D02*
X014664Y001759D01*
X014664Y001781D02*
X014436Y001781D01*
X014436Y001803D02*
X014664Y001803D01*
X014664Y001825D02*
X014436Y001825D01*
X014436Y001847D02*
X014664Y001847D01*
X014664Y001869D02*
X014436Y001869D01*
X014436Y001891D02*
X014664Y001891D01*
X014664Y001913D02*
X014436Y001913D01*
X014436Y001935D02*
X014664Y001935D01*
X014664Y001957D02*
X014436Y001957D01*
X014436Y001979D02*
X014664Y001979D01*
X014664Y002001D02*
X014436Y002001D01*
X014436Y002023D02*
X014664Y002023D01*
X014936Y002039D02*
X014936Y001561D01*
X014936Y002039D02*
X015164Y002039D01*
X015164Y001561D01*
X014936Y001561D01*
X014936Y001583D02*
X015164Y001583D01*
X015164Y001605D02*
X014936Y001605D01*
X014936Y001627D02*
X015164Y001627D01*
X015164Y001649D02*
X014936Y001649D01*
X014936Y001671D02*
X015164Y001671D01*
X015164Y001693D02*
X014936Y001693D01*
X014936Y001715D02*
X015164Y001715D01*
X015164Y001737D02*
X014936Y001737D01*
X014936Y001759D02*
X015164Y001759D01*
X015164Y001781D02*
X014936Y001781D01*
X014936Y001803D02*
X015164Y001803D01*
X015164Y001825D02*
X014936Y001825D01*
X014936Y001847D02*
X015164Y001847D01*
X015164Y001869D02*
X014936Y001869D01*
X014936Y001891D02*
X015164Y001891D01*
X015164Y001913D02*
X014936Y001913D01*
X014936Y001935D02*
X015164Y001935D01*
X015164Y001957D02*
X014936Y001957D01*
X014936Y001979D02*
X015164Y001979D01*
X015164Y002001D02*
X014936Y002001D01*
X014936Y002023D02*
X015164Y002023D01*
X015436Y002039D02*
X015436Y001561D01*
X015436Y002039D02*
X015664Y002039D01*
X015664Y001561D01*
X015436Y001561D01*
X015436Y001583D02*
X015664Y001583D01*
X015664Y001605D02*
X015436Y001605D01*
X015436Y001627D02*
X015664Y001627D01*
X015664Y001649D02*
X015436Y001649D01*
X015436Y001671D02*
X015664Y001671D01*
X015664Y001693D02*
X015436Y001693D01*
X015436Y001715D02*
X015664Y001715D01*
X015664Y001737D02*
X015436Y001737D01*
X015436Y001759D02*
X015664Y001759D01*
X015664Y001781D02*
X015436Y001781D01*
X015436Y001803D02*
X015664Y001803D01*
X015664Y001825D02*
X015436Y001825D01*
X015436Y001847D02*
X015664Y001847D01*
X015664Y001869D02*
X015436Y001869D01*
X015436Y001891D02*
X015664Y001891D01*
X015664Y001913D02*
X015436Y001913D01*
X015436Y001935D02*
X015664Y001935D01*
X015664Y001957D02*
X015436Y001957D01*
X015436Y001979D02*
X015664Y001979D01*
X015664Y002001D02*
X015436Y002001D01*
X015436Y002023D02*
X015664Y002023D01*
X015936Y002039D02*
X015936Y001561D01*
X015936Y002039D02*
X016164Y002039D01*
X016164Y001561D01*
X015936Y001561D01*
X015936Y001583D02*
X016164Y001583D01*
X016164Y001605D02*
X015936Y001605D01*
X015936Y001627D02*
X016164Y001627D01*
X016164Y001649D02*
X015936Y001649D01*
X015936Y001671D02*
X016164Y001671D01*
X016164Y001693D02*
X015936Y001693D01*
X015936Y001715D02*
X016164Y001715D01*
X016164Y001737D02*
X015936Y001737D01*
X015936Y001759D02*
X016164Y001759D01*
X016164Y001781D02*
X015936Y001781D01*
X015936Y001803D02*
X016164Y001803D01*
X016164Y001825D02*
X015936Y001825D01*
X015936Y001847D02*
X016164Y001847D01*
X016164Y001869D02*
X015936Y001869D01*
X015936Y001891D02*
X016164Y001891D01*
X016164Y001913D02*
X015936Y001913D01*
X015936Y001935D02*
X016164Y001935D01*
X016164Y001957D02*
X015936Y001957D01*
X015936Y001979D02*
X016164Y001979D01*
X016164Y002001D02*
X015936Y002001D01*
X015936Y002023D02*
X016164Y002023D01*
X016436Y002039D02*
X016436Y001561D01*
X016436Y002039D02*
X016664Y002039D01*
X016664Y001561D01*
X016436Y001561D01*
X016436Y001583D02*
X016664Y001583D01*
X016664Y001605D02*
X016436Y001605D01*
X016436Y001627D02*
X016664Y001627D01*
X016664Y001649D02*
X016436Y001649D01*
X016436Y001671D02*
X016664Y001671D01*
X016664Y001693D02*
X016436Y001693D01*
X016436Y001715D02*
X016664Y001715D01*
X016664Y001737D02*
X016436Y001737D01*
X016436Y001759D02*
X016664Y001759D01*
X016664Y001781D02*
X016436Y001781D01*
X016436Y001803D02*
X016664Y001803D01*
X016664Y001825D02*
X016436Y001825D01*
X016436Y001847D02*
X016664Y001847D01*
X016664Y001869D02*
X016436Y001869D01*
X016436Y001891D02*
X016664Y001891D01*
X016664Y001913D02*
X016436Y001913D01*
X016436Y001935D02*
X016664Y001935D01*
X016664Y001957D02*
X016436Y001957D01*
X016436Y001979D02*
X016664Y001979D01*
X016664Y002001D02*
X016436Y002001D01*
X016436Y002023D02*
X016664Y002023D01*
X016936Y002039D02*
X016936Y001561D01*
X016936Y002039D02*
X017164Y002039D01*
X017164Y001561D01*
X016936Y001561D01*
X016936Y001583D02*
X017164Y001583D01*
X017164Y001605D02*
X016936Y001605D01*
X016936Y001627D02*
X017164Y001627D01*
X017164Y001649D02*
X016936Y001649D01*
X016936Y001671D02*
X017164Y001671D01*
X017164Y001693D02*
X016936Y001693D01*
X016936Y001715D02*
X017164Y001715D01*
X017164Y001737D02*
X016936Y001737D01*
X016936Y001759D02*
X017164Y001759D01*
X017164Y001781D02*
X016936Y001781D01*
X016936Y001803D02*
X017164Y001803D01*
X017164Y001825D02*
X016936Y001825D01*
X016936Y001847D02*
X017164Y001847D01*
X017164Y001869D02*
X016936Y001869D01*
X016936Y001891D02*
X017164Y001891D01*
X017164Y001913D02*
X016936Y001913D01*
X016936Y001935D02*
X017164Y001935D01*
X017164Y001957D02*
X016936Y001957D01*
X016936Y001979D02*
X017164Y001979D01*
X017164Y002001D02*
X016936Y002001D01*
X016936Y002023D02*
X017164Y002023D01*
X017436Y002039D02*
X017436Y001561D01*
X017436Y002039D02*
X017664Y002039D01*
X017664Y001561D01*
X017436Y001561D01*
X017436Y001583D02*
X017664Y001583D01*
X017664Y001605D02*
X017436Y001605D01*
X017436Y001627D02*
X017664Y001627D01*
X017664Y001649D02*
X017436Y001649D01*
X017436Y001671D02*
X017664Y001671D01*
X017664Y001693D02*
X017436Y001693D01*
X017436Y001715D02*
X017664Y001715D01*
X017664Y001737D02*
X017436Y001737D01*
X017436Y001759D02*
X017664Y001759D01*
X017664Y001781D02*
X017436Y001781D01*
X017436Y001803D02*
X017664Y001803D01*
X017664Y001825D02*
X017436Y001825D01*
X017436Y001847D02*
X017664Y001847D01*
X017664Y001869D02*
X017436Y001869D01*
X017436Y001891D02*
X017664Y001891D01*
X017664Y001913D02*
X017436Y001913D01*
X017436Y001935D02*
X017664Y001935D01*
X017664Y001957D02*
X017436Y001957D01*
X017436Y001979D02*
X017664Y001979D01*
X017664Y002001D02*
X017436Y002001D01*
X017436Y002023D02*
X017664Y002023D01*
X017936Y002039D02*
X017936Y001561D01*
X017936Y002039D02*
X018164Y002039D01*
X018164Y001561D01*
X017936Y001561D01*
X017936Y001583D02*
X018164Y001583D01*
X018164Y001605D02*
X017936Y001605D01*
X017936Y001627D02*
X018164Y001627D01*
X018164Y001649D02*
X017936Y001649D01*
X017936Y001671D02*
X018164Y001671D01*
X018164Y001693D02*
X017936Y001693D01*
X017936Y001715D02*
X018164Y001715D01*
X018164Y001737D02*
X017936Y001737D01*
X017936Y001759D02*
X018164Y001759D01*
X018164Y001781D02*
X017936Y001781D01*
X017936Y001803D02*
X018164Y001803D01*
X018164Y001825D02*
X017936Y001825D01*
X017936Y001847D02*
X018164Y001847D01*
X018164Y001869D02*
X017936Y001869D01*
X017936Y001891D02*
X018164Y001891D01*
X018164Y001913D02*
X017936Y001913D01*
X017936Y001935D02*
X018164Y001935D01*
X018164Y001957D02*
X017936Y001957D01*
X017936Y001979D02*
X018164Y001979D01*
X018164Y002001D02*
X017936Y002001D01*
X017936Y002023D02*
X018164Y002023D01*
X018436Y002039D02*
X018436Y001561D01*
X018436Y002039D02*
X018664Y002039D01*
X018664Y001561D01*
X018436Y001561D01*
X018436Y001583D02*
X018664Y001583D01*
X018664Y001605D02*
X018436Y001605D01*
X018436Y001627D02*
X018664Y001627D01*
X018664Y001649D02*
X018436Y001649D01*
X018436Y001671D02*
X018664Y001671D01*
X018664Y001693D02*
X018436Y001693D01*
X018436Y001715D02*
X018664Y001715D01*
X018664Y001737D02*
X018436Y001737D01*
X018436Y001759D02*
X018664Y001759D01*
X018664Y001781D02*
X018436Y001781D01*
X018436Y001803D02*
X018664Y001803D01*
X018664Y001825D02*
X018436Y001825D01*
X018436Y001847D02*
X018664Y001847D01*
X018664Y001869D02*
X018436Y001869D01*
X018436Y001891D02*
X018664Y001891D01*
X018664Y001913D02*
X018436Y001913D01*
X018436Y001935D02*
X018664Y001935D01*
X018664Y001957D02*
X018436Y001957D01*
X018436Y001979D02*
X018664Y001979D01*
X018664Y002001D02*
X018436Y002001D01*
X018436Y002023D02*
X018664Y002023D01*
X018936Y002039D02*
X018936Y001561D01*
X018936Y002039D02*
X019164Y002039D01*
X019164Y001561D01*
X018936Y001561D01*
X018936Y001583D02*
X019164Y001583D01*
X019164Y001605D02*
X018936Y001605D01*
X018936Y001627D02*
X019164Y001627D01*
X019164Y001649D02*
X018936Y001649D01*
X018936Y001671D02*
X019164Y001671D01*
X019164Y001693D02*
X018936Y001693D01*
X018936Y001715D02*
X019164Y001715D01*
X019164Y001737D02*
X018936Y001737D01*
X018936Y001759D02*
X019164Y001759D01*
X019164Y001781D02*
X018936Y001781D01*
X018936Y001803D02*
X019164Y001803D01*
X019164Y001825D02*
X018936Y001825D01*
X018936Y001847D02*
X019164Y001847D01*
X019164Y001869D02*
X018936Y001869D01*
X018936Y001891D02*
X019164Y001891D01*
X019164Y001913D02*
X018936Y001913D01*
X018936Y001935D02*
X019164Y001935D01*
X019164Y001957D02*
X018936Y001957D01*
X018936Y001979D02*
X019164Y001979D01*
X019164Y002001D02*
X018936Y002001D01*
X018936Y002023D02*
X019164Y002023D01*
M02*
