G75*
%MOIN*%
%OFA0B0*%
%FSLAX24Y24*%
%IPPOS*%
%LPD*%
%AMOC8*
5,1,8,0,0,1.08239X$1,22.5*
%
%ADD10C,0.0000*%
D10*
X000100Y000100D02*
X000100Y039220D01*
X025592Y039220D01*
X025592Y000100D01*
X000100Y000100D01*
X005009Y003350D02*
X005011Y003398D01*
X005017Y003446D01*
X005027Y003493D01*
X005040Y003539D01*
X005058Y003584D01*
X005078Y003628D01*
X005103Y003670D01*
X005131Y003709D01*
X005161Y003746D01*
X005195Y003780D01*
X005232Y003812D01*
X005270Y003841D01*
X005311Y003866D01*
X005354Y003888D01*
X005399Y003906D01*
X005445Y003920D01*
X005492Y003931D01*
X005540Y003938D01*
X005588Y003941D01*
X005636Y003940D01*
X005684Y003935D01*
X005732Y003926D01*
X005778Y003914D01*
X005823Y003897D01*
X005867Y003877D01*
X005909Y003854D01*
X005949Y003827D01*
X005987Y003797D01*
X006022Y003764D01*
X006054Y003728D01*
X006084Y003690D01*
X006110Y003649D01*
X006132Y003606D01*
X006152Y003562D01*
X006167Y003517D01*
X006179Y003470D01*
X006187Y003422D01*
X006191Y003374D01*
X006191Y003326D01*
X006187Y003278D01*
X006179Y003230D01*
X006167Y003183D01*
X006152Y003138D01*
X006132Y003094D01*
X006110Y003051D01*
X006084Y003010D01*
X006054Y002972D01*
X006022Y002936D01*
X005987Y002903D01*
X005949Y002873D01*
X005909Y002846D01*
X005867Y002823D01*
X005823Y002803D01*
X005778Y002786D01*
X005732Y002774D01*
X005684Y002765D01*
X005636Y002760D01*
X005588Y002759D01*
X005540Y002762D01*
X005492Y002769D01*
X005445Y002780D01*
X005399Y002794D01*
X005354Y002812D01*
X005311Y002834D01*
X005270Y002859D01*
X005232Y002888D01*
X005195Y002920D01*
X005161Y002954D01*
X005131Y002991D01*
X005103Y003030D01*
X005078Y003072D01*
X005058Y003116D01*
X005040Y003161D01*
X005027Y003207D01*
X005017Y003254D01*
X005011Y003302D01*
X005009Y003350D01*
X019509Y003350D02*
X019511Y003398D01*
X019517Y003446D01*
X019527Y003493D01*
X019540Y003539D01*
X019558Y003584D01*
X019578Y003628D01*
X019603Y003670D01*
X019631Y003709D01*
X019661Y003746D01*
X019695Y003780D01*
X019732Y003812D01*
X019770Y003841D01*
X019811Y003866D01*
X019854Y003888D01*
X019899Y003906D01*
X019945Y003920D01*
X019992Y003931D01*
X020040Y003938D01*
X020088Y003941D01*
X020136Y003940D01*
X020184Y003935D01*
X020232Y003926D01*
X020278Y003914D01*
X020323Y003897D01*
X020367Y003877D01*
X020409Y003854D01*
X020449Y003827D01*
X020487Y003797D01*
X020522Y003764D01*
X020554Y003728D01*
X020584Y003690D01*
X020610Y003649D01*
X020632Y003606D01*
X020652Y003562D01*
X020667Y003517D01*
X020679Y003470D01*
X020687Y003422D01*
X020691Y003374D01*
X020691Y003326D01*
X020687Y003278D01*
X020679Y003230D01*
X020667Y003183D01*
X020652Y003138D01*
X020632Y003094D01*
X020610Y003051D01*
X020584Y003010D01*
X020554Y002972D01*
X020522Y002936D01*
X020487Y002903D01*
X020449Y002873D01*
X020409Y002846D01*
X020367Y002823D01*
X020323Y002803D01*
X020278Y002786D01*
X020232Y002774D01*
X020184Y002765D01*
X020136Y002760D01*
X020088Y002759D01*
X020040Y002762D01*
X019992Y002769D01*
X019945Y002780D01*
X019899Y002794D01*
X019854Y002812D01*
X019811Y002834D01*
X019770Y002859D01*
X019732Y002888D01*
X019695Y002920D01*
X019661Y002954D01*
X019631Y002991D01*
X019603Y003030D01*
X019578Y003072D01*
X019558Y003116D01*
X019540Y003161D01*
X019527Y003207D01*
X019517Y003254D01*
X019511Y003302D01*
X019509Y003350D01*
X019509Y034850D02*
X019511Y034898D01*
X019517Y034946D01*
X019527Y034993D01*
X019540Y035039D01*
X019558Y035084D01*
X019578Y035128D01*
X019603Y035170D01*
X019631Y035209D01*
X019661Y035246D01*
X019695Y035280D01*
X019732Y035312D01*
X019770Y035341D01*
X019811Y035366D01*
X019854Y035388D01*
X019899Y035406D01*
X019945Y035420D01*
X019992Y035431D01*
X020040Y035438D01*
X020088Y035441D01*
X020136Y035440D01*
X020184Y035435D01*
X020232Y035426D01*
X020278Y035414D01*
X020323Y035397D01*
X020367Y035377D01*
X020409Y035354D01*
X020449Y035327D01*
X020487Y035297D01*
X020522Y035264D01*
X020554Y035228D01*
X020584Y035190D01*
X020610Y035149D01*
X020632Y035106D01*
X020652Y035062D01*
X020667Y035017D01*
X020679Y034970D01*
X020687Y034922D01*
X020691Y034874D01*
X020691Y034826D01*
X020687Y034778D01*
X020679Y034730D01*
X020667Y034683D01*
X020652Y034638D01*
X020632Y034594D01*
X020610Y034551D01*
X020584Y034510D01*
X020554Y034472D01*
X020522Y034436D01*
X020487Y034403D01*
X020449Y034373D01*
X020409Y034346D01*
X020367Y034323D01*
X020323Y034303D01*
X020278Y034286D01*
X020232Y034274D01*
X020184Y034265D01*
X020136Y034260D01*
X020088Y034259D01*
X020040Y034262D01*
X019992Y034269D01*
X019945Y034280D01*
X019899Y034294D01*
X019854Y034312D01*
X019811Y034334D01*
X019770Y034359D01*
X019732Y034388D01*
X019695Y034420D01*
X019661Y034454D01*
X019631Y034491D01*
X019603Y034530D01*
X019578Y034572D01*
X019558Y034616D01*
X019540Y034661D01*
X019527Y034707D01*
X019517Y034754D01*
X019511Y034802D01*
X019509Y034850D01*
X005009Y034850D02*
X005011Y034898D01*
X005017Y034946D01*
X005027Y034993D01*
X005040Y035039D01*
X005058Y035084D01*
X005078Y035128D01*
X005103Y035170D01*
X005131Y035209D01*
X005161Y035246D01*
X005195Y035280D01*
X005232Y035312D01*
X005270Y035341D01*
X005311Y035366D01*
X005354Y035388D01*
X005399Y035406D01*
X005445Y035420D01*
X005492Y035431D01*
X005540Y035438D01*
X005588Y035441D01*
X005636Y035440D01*
X005684Y035435D01*
X005732Y035426D01*
X005778Y035414D01*
X005823Y035397D01*
X005867Y035377D01*
X005909Y035354D01*
X005949Y035327D01*
X005987Y035297D01*
X006022Y035264D01*
X006054Y035228D01*
X006084Y035190D01*
X006110Y035149D01*
X006132Y035106D01*
X006152Y035062D01*
X006167Y035017D01*
X006179Y034970D01*
X006187Y034922D01*
X006191Y034874D01*
X006191Y034826D01*
X006187Y034778D01*
X006179Y034730D01*
X006167Y034683D01*
X006152Y034638D01*
X006132Y034594D01*
X006110Y034551D01*
X006084Y034510D01*
X006054Y034472D01*
X006022Y034436D01*
X005987Y034403D01*
X005949Y034373D01*
X005909Y034346D01*
X005867Y034323D01*
X005823Y034303D01*
X005778Y034286D01*
X005732Y034274D01*
X005684Y034265D01*
X005636Y034260D01*
X005588Y034259D01*
X005540Y034262D01*
X005492Y034269D01*
X005445Y034280D01*
X005399Y034294D01*
X005354Y034312D01*
X005311Y034334D01*
X005270Y034359D01*
X005232Y034388D01*
X005195Y034420D01*
X005161Y034454D01*
X005131Y034491D01*
X005103Y034530D01*
X005078Y034572D01*
X005058Y034616D01*
X005040Y034661D01*
X005027Y034707D01*
X005017Y034754D01*
X005011Y034802D01*
X005009Y034850D01*
M02*
