G75*
%MOIN*%
%OFA0B0*%
%FSLAX25Y25*%
%IPPOS*%
%LPD*%
%AMOC8*
5,1,8,0,0,1.08239X$1,22.5*
%
%ADD10C,0.00000*%
%ADD11C,0.07400*%
%ADD12C,0.00800*%
%ADD13C,0.02000*%
D10*
X0001000Y0001000D02*
X0001000Y0392201D01*
X0255921Y0392201D01*
X0255921Y0001000D01*
X0001000Y0001000D01*
X0050094Y0033500D02*
X0050096Y0033653D01*
X0050102Y0033807D01*
X0050112Y0033960D01*
X0050126Y0034112D01*
X0050144Y0034265D01*
X0050166Y0034416D01*
X0050191Y0034567D01*
X0050221Y0034718D01*
X0050255Y0034868D01*
X0050292Y0035016D01*
X0050333Y0035164D01*
X0050378Y0035310D01*
X0050427Y0035456D01*
X0050480Y0035600D01*
X0050536Y0035742D01*
X0050596Y0035883D01*
X0050660Y0036023D01*
X0050727Y0036161D01*
X0050798Y0036297D01*
X0050873Y0036431D01*
X0050950Y0036563D01*
X0051032Y0036693D01*
X0051116Y0036821D01*
X0051204Y0036947D01*
X0051295Y0037070D01*
X0051389Y0037191D01*
X0051487Y0037309D01*
X0051587Y0037425D01*
X0051691Y0037538D01*
X0051797Y0037649D01*
X0051906Y0037757D01*
X0052018Y0037862D01*
X0052132Y0037963D01*
X0052250Y0038062D01*
X0052369Y0038158D01*
X0052491Y0038251D01*
X0052616Y0038340D01*
X0052743Y0038427D01*
X0052872Y0038509D01*
X0053003Y0038589D01*
X0053136Y0038665D01*
X0053271Y0038738D01*
X0053408Y0038807D01*
X0053547Y0038872D01*
X0053687Y0038934D01*
X0053829Y0038992D01*
X0053972Y0039047D01*
X0054117Y0039098D01*
X0054263Y0039145D01*
X0054410Y0039188D01*
X0054558Y0039227D01*
X0054707Y0039263D01*
X0054857Y0039294D01*
X0055008Y0039322D01*
X0055159Y0039346D01*
X0055312Y0039366D01*
X0055464Y0039382D01*
X0055617Y0039394D01*
X0055770Y0039402D01*
X0055923Y0039406D01*
X0056077Y0039406D01*
X0056230Y0039402D01*
X0056383Y0039394D01*
X0056536Y0039382D01*
X0056688Y0039366D01*
X0056841Y0039346D01*
X0056992Y0039322D01*
X0057143Y0039294D01*
X0057293Y0039263D01*
X0057442Y0039227D01*
X0057590Y0039188D01*
X0057737Y0039145D01*
X0057883Y0039098D01*
X0058028Y0039047D01*
X0058171Y0038992D01*
X0058313Y0038934D01*
X0058453Y0038872D01*
X0058592Y0038807D01*
X0058729Y0038738D01*
X0058864Y0038665D01*
X0058997Y0038589D01*
X0059128Y0038509D01*
X0059257Y0038427D01*
X0059384Y0038340D01*
X0059509Y0038251D01*
X0059631Y0038158D01*
X0059750Y0038062D01*
X0059868Y0037963D01*
X0059982Y0037862D01*
X0060094Y0037757D01*
X0060203Y0037649D01*
X0060309Y0037538D01*
X0060413Y0037425D01*
X0060513Y0037309D01*
X0060611Y0037191D01*
X0060705Y0037070D01*
X0060796Y0036947D01*
X0060884Y0036821D01*
X0060968Y0036693D01*
X0061050Y0036563D01*
X0061127Y0036431D01*
X0061202Y0036297D01*
X0061273Y0036161D01*
X0061340Y0036023D01*
X0061404Y0035883D01*
X0061464Y0035742D01*
X0061520Y0035600D01*
X0061573Y0035456D01*
X0061622Y0035310D01*
X0061667Y0035164D01*
X0061708Y0035016D01*
X0061745Y0034868D01*
X0061779Y0034718D01*
X0061809Y0034567D01*
X0061834Y0034416D01*
X0061856Y0034265D01*
X0061874Y0034112D01*
X0061888Y0033960D01*
X0061898Y0033807D01*
X0061904Y0033653D01*
X0061906Y0033500D01*
X0061904Y0033347D01*
X0061898Y0033193D01*
X0061888Y0033040D01*
X0061874Y0032888D01*
X0061856Y0032735D01*
X0061834Y0032584D01*
X0061809Y0032433D01*
X0061779Y0032282D01*
X0061745Y0032132D01*
X0061708Y0031984D01*
X0061667Y0031836D01*
X0061622Y0031690D01*
X0061573Y0031544D01*
X0061520Y0031400D01*
X0061464Y0031258D01*
X0061404Y0031117D01*
X0061340Y0030977D01*
X0061273Y0030839D01*
X0061202Y0030703D01*
X0061127Y0030569D01*
X0061050Y0030437D01*
X0060968Y0030307D01*
X0060884Y0030179D01*
X0060796Y0030053D01*
X0060705Y0029930D01*
X0060611Y0029809D01*
X0060513Y0029691D01*
X0060413Y0029575D01*
X0060309Y0029462D01*
X0060203Y0029351D01*
X0060094Y0029243D01*
X0059982Y0029138D01*
X0059868Y0029037D01*
X0059750Y0028938D01*
X0059631Y0028842D01*
X0059509Y0028749D01*
X0059384Y0028660D01*
X0059257Y0028573D01*
X0059128Y0028491D01*
X0058997Y0028411D01*
X0058864Y0028335D01*
X0058729Y0028262D01*
X0058592Y0028193D01*
X0058453Y0028128D01*
X0058313Y0028066D01*
X0058171Y0028008D01*
X0058028Y0027953D01*
X0057883Y0027902D01*
X0057737Y0027855D01*
X0057590Y0027812D01*
X0057442Y0027773D01*
X0057293Y0027737D01*
X0057143Y0027706D01*
X0056992Y0027678D01*
X0056841Y0027654D01*
X0056688Y0027634D01*
X0056536Y0027618D01*
X0056383Y0027606D01*
X0056230Y0027598D01*
X0056077Y0027594D01*
X0055923Y0027594D01*
X0055770Y0027598D01*
X0055617Y0027606D01*
X0055464Y0027618D01*
X0055312Y0027634D01*
X0055159Y0027654D01*
X0055008Y0027678D01*
X0054857Y0027706D01*
X0054707Y0027737D01*
X0054558Y0027773D01*
X0054410Y0027812D01*
X0054263Y0027855D01*
X0054117Y0027902D01*
X0053972Y0027953D01*
X0053829Y0028008D01*
X0053687Y0028066D01*
X0053547Y0028128D01*
X0053408Y0028193D01*
X0053271Y0028262D01*
X0053136Y0028335D01*
X0053003Y0028411D01*
X0052872Y0028491D01*
X0052743Y0028573D01*
X0052616Y0028660D01*
X0052491Y0028749D01*
X0052369Y0028842D01*
X0052250Y0028938D01*
X0052132Y0029037D01*
X0052018Y0029138D01*
X0051906Y0029243D01*
X0051797Y0029351D01*
X0051691Y0029462D01*
X0051587Y0029575D01*
X0051487Y0029691D01*
X0051389Y0029809D01*
X0051295Y0029930D01*
X0051204Y0030053D01*
X0051116Y0030179D01*
X0051032Y0030307D01*
X0050950Y0030437D01*
X0050873Y0030569D01*
X0050798Y0030703D01*
X0050727Y0030839D01*
X0050660Y0030977D01*
X0050596Y0031117D01*
X0050536Y0031258D01*
X0050480Y0031400D01*
X0050427Y0031544D01*
X0050378Y0031690D01*
X0050333Y0031836D01*
X0050292Y0031984D01*
X0050255Y0032132D01*
X0050221Y0032282D01*
X0050191Y0032433D01*
X0050166Y0032584D01*
X0050144Y0032735D01*
X0050126Y0032888D01*
X0050112Y0033040D01*
X0050102Y0033193D01*
X0050096Y0033347D01*
X0050094Y0033500D01*
X0195094Y0033500D02*
X0195096Y0033653D01*
X0195102Y0033807D01*
X0195112Y0033960D01*
X0195126Y0034112D01*
X0195144Y0034265D01*
X0195166Y0034416D01*
X0195191Y0034567D01*
X0195221Y0034718D01*
X0195255Y0034868D01*
X0195292Y0035016D01*
X0195333Y0035164D01*
X0195378Y0035310D01*
X0195427Y0035456D01*
X0195480Y0035600D01*
X0195536Y0035742D01*
X0195596Y0035883D01*
X0195660Y0036023D01*
X0195727Y0036161D01*
X0195798Y0036297D01*
X0195873Y0036431D01*
X0195950Y0036563D01*
X0196032Y0036693D01*
X0196116Y0036821D01*
X0196204Y0036947D01*
X0196295Y0037070D01*
X0196389Y0037191D01*
X0196487Y0037309D01*
X0196587Y0037425D01*
X0196691Y0037538D01*
X0196797Y0037649D01*
X0196906Y0037757D01*
X0197018Y0037862D01*
X0197132Y0037963D01*
X0197250Y0038062D01*
X0197369Y0038158D01*
X0197491Y0038251D01*
X0197616Y0038340D01*
X0197743Y0038427D01*
X0197872Y0038509D01*
X0198003Y0038589D01*
X0198136Y0038665D01*
X0198271Y0038738D01*
X0198408Y0038807D01*
X0198547Y0038872D01*
X0198687Y0038934D01*
X0198829Y0038992D01*
X0198972Y0039047D01*
X0199117Y0039098D01*
X0199263Y0039145D01*
X0199410Y0039188D01*
X0199558Y0039227D01*
X0199707Y0039263D01*
X0199857Y0039294D01*
X0200008Y0039322D01*
X0200159Y0039346D01*
X0200312Y0039366D01*
X0200464Y0039382D01*
X0200617Y0039394D01*
X0200770Y0039402D01*
X0200923Y0039406D01*
X0201077Y0039406D01*
X0201230Y0039402D01*
X0201383Y0039394D01*
X0201536Y0039382D01*
X0201688Y0039366D01*
X0201841Y0039346D01*
X0201992Y0039322D01*
X0202143Y0039294D01*
X0202293Y0039263D01*
X0202442Y0039227D01*
X0202590Y0039188D01*
X0202737Y0039145D01*
X0202883Y0039098D01*
X0203028Y0039047D01*
X0203171Y0038992D01*
X0203313Y0038934D01*
X0203453Y0038872D01*
X0203592Y0038807D01*
X0203729Y0038738D01*
X0203864Y0038665D01*
X0203997Y0038589D01*
X0204128Y0038509D01*
X0204257Y0038427D01*
X0204384Y0038340D01*
X0204509Y0038251D01*
X0204631Y0038158D01*
X0204750Y0038062D01*
X0204868Y0037963D01*
X0204982Y0037862D01*
X0205094Y0037757D01*
X0205203Y0037649D01*
X0205309Y0037538D01*
X0205413Y0037425D01*
X0205513Y0037309D01*
X0205611Y0037191D01*
X0205705Y0037070D01*
X0205796Y0036947D01*
X0205884Y0036821D01*
X0205968Y0036693D01*
X0206050Y0036563D01*
X0206127Y0036431D01*
X0206202Y0036297D01*
X0206273Y0036161D01*
X0206340Y0036023D01*
X0206404Y0035883D01*
X0206464Y0035742D01*
X0206520Y0035600D01*
X0206573Y0035456D01*
X0206622Y0035310D01*
X0206667Y0035164D01*
X0206708Y0035016D01*
X0206745Y0034868D01*
X0206779Y0034718D01*
X0206809Y0034567D01*
X0206834Y0034416D01*
X0206856Y0034265D01*
X0206874Y0034112D01*
X0206888Y0033960D01*
X0206898Y0033807D01*
X0206904Y0033653D01*
X0206906Y0033500D01*
X0206904Y0033347D01*
X0206898Y0033193D01*
X0206888Y0033040D01*
X0206874Y0032888D01*
X0206856Y0032735D01*
X0206834Y0032584D01*
X0206809Y0032433D01*
X0206779Y0032282D01*
X0206745Y0032132D01*
X0206708Y0031984D01*
X0206667Y0031836D01*
X0206622Y0031690D01*
X0206573Y0031544D01*
X0206520Y0031400D01*
X0206464Y0031258D01*
X0206404Y0031117D01*
X0206340Y0030977D01*
X0206273Y0030839D01*
X0206202Y0030703D01*
X0206127Y0030569D01*
X0206050Y0030437D01*
X0205968Y0030307D01*
X0205884Y0030179D01*
X0205796Y0030053D01*
X0205705Y0029930D01*
X0205611Y0029809D01*
X0205513Y0029691D01*
X0205413Y0029575D01*
X0205309Y0029462D01*
X0205203Y0029351D01*
X0205094Y0029243D01*
X0204982Y0029138D01*
X0204868Y0029037D01*
X0204750Y0028938D01*
X0204631Y0028842D01*
X0204509Y0028749D01*
X0204384Y0028660D01*
X0204257Y0028573D01*
X0204128Y0028491D01*
X0203997Y0028411D01*
X0203864Y0028335D01*
X0203729Y0028262D01*
X0203592Y0028193D01*
X0203453Y0028128D01*
X0203313Y0028066D01*
X0203171Y0028008D01*
X0203028Y0027953D01*
X0202883Y0027902D01*
X0202737Y0027855D01*
X0202590Y0027812D01*
X0202442Y0027773D01*
X0202293Y0027737D01*
X0202143Y0027706D01*
X0201992Y0027678D01*
X0201841Y0027654D01*
X0201688Y0027634D01*
X0201536Y0027618D01*
X0201383Y0027606D01*
X0201230Y0027598D01*
X0201077Y0027594D01*
X0200923Y0027594D01*
X0200770Y0027598D01*
X0200617Y0027606D01*
X0200464Y0027618D01*
X0200312Y0027634D01*
X0200159Y0027654D01*
X0200008Y0027678D01*
X0199857Y0027706D01*
X0199707Y0027737D01*
X0199558Y0027773D01*
X0199410Y0027812D01*
X0199263Y0027855D01*
X0199117Y0027902D01*
X0198972Y0027953D01*
X0198829Y0028008D01*
X0198687Y0028066D01*
X0198547Y0028128D01*
X0198408Y0028193D01*
X0198271Y0028262D01*
X0198136Y0028335D01*
X0198003Y0028411D01*
X0197872Y0028491D01*
X0197743Y0028573D01*
X0197616Y0028660D01*
X0197491Y0028749D01*
X0197369Y0028842D01*
X0197250Y0028938D01*
X0197132Y0029037D01*
X0197018Y0029138D01*
X0196906Y0029243D01*
X0196797Y0029351D01*
X0196691Y0029462D01*
X0196587Y0029575D01*
X0196487Y0029691D01*
X0196389Y0029809D01*
X0196295Y0029930D01*
X0196204Y0030053D01*
X0196116Y0030179D01*
X0196032Y0030307D01*
X0195950Y0030437D01*
X0195873Y0030569D01*
X0195798Y0030703D01*
X0195727Y0030839D01*
X0195660Y0030977D01*
X0195596Y0031117D01*
X0195536Y0031258D01*
X0195480Y0031400D01*
X0195427Y0031544D01*
X0195378Y0031690D01*
X0195333Y0031836D01*
X0195292Y0031984D01*
X0195255Y0032132D01*
X0195221Y0032282D01*
X0195191Y0032433D01*
X0195166Y0032584D01*
X0195144Y0032735D01*
X0195126Y0032888D01*
X0195112Y0033040D01*
X0195102Y0033193D01*
X0195096Y0033347D01*
X0195094Y0033500D01*
X0195094Y0348500D02*
X0195096Y0348653D01*
X0195102Y0348807D01*
X0195112Y0348960D01*
X0195126Y0349112D01*
X0195144Y0349265D01*
X0195166Y0349416D01*
X0195191Y0349567D01*
X0195221Y0349718D01*
X0195255Y0349868D01*
X0195292Y0350016D01*
X0195333Y0350164D01*
X0195378Y0350310D01*
X0195427Y0350456D01*
X0195480Y0350600D01*
X0195536Y0350742D01*
X0195596Y0350883D01*
X0195660Y0351023D01*
X0195727Y0351161D01*
X0195798Y0351297D01*
X0195873Y0351431D01*
X0195950Y0351563D01*
X0196032Y0351693D01*
X0196116Y0351821D01*
X0196204Y0351947D01*
X0196295Y0352070D01*
X0196389Y0352191D01*
X0196487Y0352309D01*
X0196587Y0352425D01*
X0196691Y0352538D01*
X0196797Y0352649D01*
X0196906Y0352757D01*
X0197018Y0352862D01*
X0197132Y0352963D01*
X0197250Y0353062D01*
X0197369Y0353158D01*
X0197491Y0353251D01*
X0197616Y0353340D01*
X0197743Y0353427D01*
X0197872Y0353509D01*
X0198003Y0353589D01*
X0198136Y0353665D01*
X0198271Y0353738D01*
X0198408Y0353807D01*
X0198547Y0353872D01*
X0198687Y0353934D01*
X0198829Y0353992D01*
X0198972Y0354047D01*
X0199117Y0354098D01*
X0199263Y0354145D01*
X0199410Y0354188D01*
X0199558Y0354227D01*
X0199707Y0354263D01*
X0199857Y0354294D01*
X0200008Y0354322D01*
X0200159Y0354346D01*
X0200312Y0354366D01*
X0200464Y0354382D01*
X0200617Y0354394D01*
X0200770Y0354402D01*
X0200923Y0354406D01*
X0201077Y0354406D01*
X0201230Y0354402D01*
X0201383Y0354394D01*
X0201536Y0354382D01*
X0201688Y0354366D01*
X0201841Y0354346D01*
X0201992Y0354322D01*
X0202143Y0354294D01*
X0202293Y0354263D01*
X0202442Y0354227D01*
X0202590Y0354188D01*
X0202737Y0354145D01*
X0202883Y0354098D01*
X0203028Y0354047D01*
X0203171Y0353992D01*
X0203313Y0353934D01*
X0203453Y0353872D01*
X0203592Y0353807D01*
X0203729Y0353738D01*
X0203864Y0353665D01*
X0203997Y0353589D01*
X0204128Y0353509D01*
X0204257Y0353427D01*
X0204384Y0353340D01*
X0204509Y0353251D01*
X0204631Y0353158D01*
X0204750Y0353062D01*
X0204868Y0352963D01*
X0204982Y0352862D01*
X0205094Y0352757D01*
X0205203Y0352649D01*
X0205309Y0352538D01*
X0205413Y0352425D01*
X0205513Y0352309D01*
X0205611Y0352191D01*
X0205705Y0352070D01*
X0205796Y0351947D01*
X0205884Y0351821D01*
X0205968Y0351693D01*
X0206050Y0351563D01*
X0206127Y0351431D01*
X0206202Y0351297D01*
X0206273Y0351161D01*
X0206340Y0351023D01*
X0206404Y0350883D01*
X0206464Y0350742D01*
X0206520Y0350600D01*
X0206573Y0350456D01*
X0206622Y0350310D01*
X0206667Y0350164D01*
X0206708Y0350016D01*
X0206745Y0349868D01*
X0206779Y0349718D01*
X0206809Y0349567D01*
X0206834Y0349416D01*
X0206856Y0349265D01*
X0206874Y0349112D01*
X0206888Y0348960D01*
X0206898Y0348807D01*
X0206904Y0348653D01*
X0206906Y0348500D01*
X0206904Y0348347D01*
X0206898Y0348193D01*
X0206888Y0348040D01*
X0206874Y0347888D01*
X0206856Y0347735D01*
X0206834Y0347584D01*
X0206809Y0347433D01*
X0206779Y0347282D01*
X0206745Y0347132D01*
X0206708Y0346984D01*
X0206667Y0346836D01*
X0206622Y0346690D01*
X0206573Y0346544D01*
X0206520Y0346400D01*
X0206464Y0346258D01*
X0206404Y0346117D01*
X0206340Y0345977D01*
X0206273Y0345839D01*
X0206202Y0345703D01*
X0206127Y0345569D01*
X0206050Y0345437D01*
X0205968Y0345307D01*
X0205884Y0345179D01*
X0205796Y0345053D01*
X0205705Y0344930D01*
X0205611Y0344809D01*
X0205513Y0344691D01*
X0205413Y0344575D01*
X0205309Y0344462D01*
X0205203Y0344351D01*
X0205094Y0344243D01*
X0204982Y0344138D01*
X0204868Y0344037D01*
X0204750Y0343938D01*
X0204631Y0343842D01*
X0204509Y0343749D01*
X0204384Y0343660D01*
X0204257Y0343573D01*
X0204128Y0343491D01*
X0203997Y0343411D01*
X0203864Y0343335D01*
X0203729Y0343262D01*
X0203592Y0343193D01*
X0203453Y0343128D01*
X0203313Y0343066D01*
X0203171Y0343008D01*
X0203028Y0342953D01*
X0202883Y0342902D01*
X0202737Y0342855D01*
X0202590Y0342812D01*
X0202442Y0342773D01*
X0202293Y0342737D01*
X0202143Y0342706D01*
X0201992Y0342678D01*
X0201841Y0342654D01*
X0201688Y0342634D01*
X0201536Y0342618D01*
X0201383Y0342606D01*
X0201230Y0342598D01*
X0201077Y0342594D01*
X0200923Y0342594D01*
X0200770Y0342598D01*
X0200617Y0342606D01*
X0200464Y0342618D01*
X0200312Y0342634D01*
X0200159Y0342654D01*
X0200008Y0342678D01*
X0199857Y0342706D01*
X0199707Y0342737D01*
X0199558Y0342773D01*
X0199410Y0342812D01*
X0199263Y0342855D01*
X0199117Y0342902D01*
X0198972Y0342953D01*
X0198829Y0343008D01*
X0198687Y0343066D01*
X0198547Y0343128D01*
X0198408Y0343193D01*
X0198271Y0343262D01*
X0198136Y0343335D01*
X0198003Y0343411D01*
X0197872Y0343491D01*
X0197743Y0343573D01*
X0197616Y0343660D01*
X0197491Y0343749D01*
X0197369Y0343842D01*
X0197250Y0343938D01*
X0197132Y0344037D01*
X0197018Y0344138D01*
X0196906Y0344243D01*
X0196797Y0344351D01*
X0196691Y0344462D01*
X0196587Y0344575D01*
X0196487Y0344691D01*
X0196389Y0344809D01*
X0196295Y0344930D01*
X0196204Y0345053D01*
X0196116Y0345179D01*
X0196032Y0345307D01*
X0195950Y0345437D01*
X0195873Y0345569D01*
X0195798Y0345703D01*
X0195727Y0345839D01*
X0195660Y0345977D01*
X0195596Y0346117D01*
X0195536Y0346258D01*
X0195480Y0346400D01*
X0195427Y0346544D01*
X0195378Y0346690D01*
X0195333Y0346836D01*
X0195292Y0346984D01*
X0195255Y0347132D01*
X0195221Y0347282D01*
X0195191Y0347433D01*
X0195166Y0347584D01*
X0195144Y0347735D01*
X0195126Y0347888D01*
X0195112Y0348040D01*
X0195102Y0348193D01*
X0195096Y0348347D01*
X0195094Y0348500D01*
X0050094Y0348500D02*
X0050096Y0348653D01*
X0050102Y0348807D01*
X0050112Y0348960D01*
X0050126Y0349112D01*
X0050144Y0349265D01*
X0050166Y0349416D01*
X0050191Y0349567D01*
X0050221Y0349718D01*
X0050255Y0349868D01*
X0050292Y0350016D01*
X0050333Y0350164D01*
X0050378Y0350310D01*
X0050427Y0350456D01*
X0050480Y0350600D01*
X0050536Y0350742D01*
X0050596Y0350883D01*
X0050660Y0351023D01*
X0050727Y0351161D01*
X0050798Y0351297D01*
X0050873Y0351431D01*
X0050950Y0351563D01*
X0051032Y0351693D01*
X0051116Y0351821D01*
X0051204Y0351947D01*
X0051295Y0352070D01*
X0051389Y0352191D01*
X0051487Y0352309D01*
X0051587Y0352425D01*
X0051691Y0352538D01*
X0051797Y0352649D01*
X0051906Y0352757D01*
X0052018Y0352862D01*
X0052132Y0352963D01*
X0052250Y0353062D01*
X0052369Y0353158D01*
X0052491Y0353251D01*
X0052616Y0353340D01*
X0052743Y0353427D01*
X0052872Y0353509D01*
X0053003Y0353589D01*
X0053136Y0353665D01*
X0053271Y0353738D01*
X0053408Y0353807D01*
X0053547Y0353872D01*
X0053687Y0353934D01*
X0053829Y0353992D01*
X0053972Y0354047D01*
X0054117Y0354098D01*
X0054263Y0354145D01*
X0054410Y0354188D01*
X0054558Y0354227D01*
X0054707Y0354263D01*
X0054857Y0354294D01*
X0055008Y0354322D01*
X0055159Y0354346D01*
X0055312Y0354366D01*
X0055464Y0354382D01*
X0055617Y0354394D01*
X0055770Y0354402D01*
X0055923Y0354406D01*
X0056077Y0354406D01*
X0056230Y0354402D01*
X0056383Y0354394D01*
X0056536Y0354382D01*
X0056688Y0354366D01*
X0056841Y0354346D01*
X0056992Y0354322D01*
X0057143Y0354294D01*
X0057293Y0354263D01*
X0057442Y0354227D01*
X0057590Y0354188D01*
X0057737Y0354145D01*
X0057883Y0354098D01*
X0058028Y0354047D01*
X0058171Y0353992D01*
X0058313Y0353934D01*
X0058453Y0353872D01*
X0058592Y0353807D01*
X0058729Y0353738D01*
X0058864Y0353665D01*
X0058997Y0353589D01*
X0059128Y0353509D01*
X0059257Y0353427D01*
X0059384Y0353340D01*
X0059509Y0353251D01*
X0059631Y0353158D01*
X0059750Y0353062D01*
X0059868Y0352963D01*
X0059982Y0352862D01*
X0060094Y0352757D01*
X0060203Y0352649D01*
X0060309Y0352538D01*
X0060413Y0352425D01*
X0060513Y0352309D01*
X0060611Y0352191D01*
X0060705Y0352070D01*
X0060796Y0351947D01*
X0060884Y0351821D01*
X0060968Y0351693D01*
X0061050Y0351563D01*
X0061127Y0351431D01*
X0061202Y0351297D01*
X0061273Y0351161D01*
X0061340Y0351023D01*
X0061404Y0350883D01*
X0061464Y0350742D01*
X0061520Y0350600D01*
X0061573Y0350456D01*
X0061622Y0350310D01*
X0061667Y0350164D01*
X0061708Y0350016D01*
X0061745Y0349868D01*
X0061779Y0349718D01*
X0061809Y0349567D01*
X0061834Y0349416D01*
X0061856Y0349265D01*
X0061874Y0349112D01*
X0061888Y0348960D01*
X0061898Y0348807D01*
X0061904Y0348653D01*
X0061906Y0348500D01*
X0061904Y0348347D01*
X0061898Y0348193D01*
X0061888Y0348040D01*
X0061874Y0347888D01*
X0061856Y0347735D01*
X0061834Y0347584D01*
X0061809Y0347433D01*
X0061779Y0347282D01*
X0061745Y0347132D01*
X0061708Y0346984D01*
X0061667Y0346836D01*
X0061622Y0346690D01*
X0061573Y0346544D01*
X0061520Y0346400D01*
X0061464Y0346258D01*
X0061404Y0346117D01*
X0061340Y0345977D01*
X0061273Y0345839D01*
X0061202Y0345703D01*
X0061127Y0345569D01*
X0061050Y0345437D01*
X0060968Y0345307D01*
X0060884Y0345179D01*
X0060796Y0345053D01*
X0060705Y0344930D01*
X0060611Y0344809D01*
X0060513Y0344691D01*
X0060413Y0344575D01*
X0060309Y0344462D01*
X0060203Y0344351D01*
X0060094Y0344243D01*
X0059982Y0344138D01*
X0059868Y0344037D01*
X0059750Y0343938D01*
X0059631Y0343842D01*
X0059509Y0343749D01*
X0059384Y0343660D01*
X0059257Y0343573D01*
X0059128Y0343491D01*
X0058997Y0343411D01*
X0058864Y0343335D01*
X0058729Y0343262D01*
X0058592Y0343193D01*
X0058453Y0343128D01*
X0058313Y0343066D01*
X0058171Y0343008D01*
X0058028Y0342953D01*
X0057883Y0342902D01*
X0057737Y0342855D01*
X0057590Y0342812D01*
X0057442Y0342773D01*
X0057293Y0342737D01*
X0057143Y0342706D01*
X0056992Y0342678D01*
X0056841Y0342654D01*
X0056688Y0342634D01*
X0056536Y0342618D01*
X0056383Y0342606D01*
X0056230Y0342598D01*
X0056077Y0342594D01*
X0055923Y0342594D01*
X0055770Y0342598D01*
X0055617Y0342606D01*
X0055464Y0342618D01*
X0055312Y0342634D01*
X0055159Y0342654D01*
X0055008Y0342678D01*
X0054857Y0342706D01*
X0054707Y0342737D01*
X0054558Y0342773D01*
X0054410Y0342812D01*
X0054263Y0342855D01*
X0054117Y0342902D01*
X0053972Y0342953D01*
X0053829Y0343008D01*
X0053687Y0343066D01*
X0053547Y0343128D01*
X0053408Y0343193D01*
X0053271Y0343262D01*
X0053136Y0343335D01*
X0053003Y0343411D01*
X0052872Y0343491D01*
X0052743Y0343573D01*
X0052616Y0343660D01*
X0052491Y0343749D01*
X0052369Y0343842D01*
X0052250Y0343938D01*
X0052132Y0344037D01*
X0052018Y0344138D01*
X0051906Y0344243D01*
X0051797Y0344351D01*
X0051691Y0344462D01*
X0051587Y0344575D01*
X0051487Y0344691D01*
X0051389Y0344809D01*
X0051295Y0344930D01*
X0051204Y0345053D01*
X0051116Y0345179D01*
X0051032Y0345307D01*
X0050950Y0345437D01*
X0050873Y0345569D01*
X0050798Y0345703D01*
X0050727Y0345839D01*
X0050660Y0345977D01*
X0050596Y0346117D01*
X0050536Y0346258D01*
X0050480Y0346400D01*
X0050427Y0346544D01*
X0050378Y0346690D01*
X0050333Y0346836D01*
X0050292Y0346984D01*
X0050255Y0347132D01*
X0050221Y0347282D01*
X0050191Y0347433D01*
X0050166Y0347584D01*
X0050144Y0347735D01*
X0050126Y0347888D01*
X0050112Y0348040D01*
X0050102Y0348193D01*
X0050096Y0348347D01*
X0050094Y0348500D01*
D11*
X0068500Y0336000D03*
X0068500Y0326000D03*
X0068500Y0316000D03*
X0068500Y0306000D03*
X0068500Y0296000D03*
X0068500Y0286000D03*
X0068500Y0276000D03*
X0068500Y0266000D03*
X0068500Y0256000D03*
X0068500Y0246000D03*
X0068500Y0236000D03*
X0068500Y0226000D03*
X0068500Y0216000D03*
X0068500Y0206000D03*
X0068500Y0196000D03*
X0068500Y0186000D03*
X0068500Y0176000D03*
X0068500Y0166000D03*
X0068500Y0156000D03*
X0068500Y0146000D03*
X0068500Y0136000D03*
X0068500Y0126000D03*
X0068500Y0116000D03*
X0068500Y0106000D03*
X0068500Y0096000D03*
X0068500Y0086000D03*
X0068500Y0076000D03*
X0068500Y0066000D03*
X0068500Y0056000D03*
X0068500Y0046000D03*
X0078500Y0046000D03*
X0078500Y0056000D03*
X0078500Y0066000D03*
X0078500Y0076000D03*
X0078500Y0086000D03*
X0078500Y0096000D03*
X0078500Y0106000D03*
X0078500Y0116000D03*
X0078500Y0126000D03*
X0078500Y0136000D03*
X0078500Y0146000D03*
X0078500Y0156000D03*
X0078500Y0166000D03*
X0078500Y0176000D03*
X0078500Y0186000D03*
X0078500Y0196000D03*
X0078500Y0206000D03*
X0078500Y0216000D03*
X0078500Y0226000D03*
X0078500Y0236000D03*
X0078500Y0246000D03*
X0078500Y0256000D03*
X0078500Y0266000D03*
X0078500Y0276000D03*
X0078500Y0286000D03*
X0078500Y0296000D03*
X0078500Y0306000D03*
X0078500Y0316000D03*
X0078500Y0326000D03*
X0078500Y0336000D03*
X0088500Y0336000D03*
X0088500Y0326000D03*
X0088500Y0316000D03*
X0088500Y0306000D03*
X0088500Y0296000D03*
X0088500Y0286000D03*
X0088500Y0276000D03*
X0088500Y0266000D03*
X0088500Y0256000D03*
X0088500Y0246000D03*
X0088500Y0236000D03*
X0088500Y0226000D03*
X0088500Y0216000D03*
X0088500Y0206000D03*
X0088500Y0196000D03*
X0088500Y0186000D03*
X0088500Y0176000D03*
X0088500Y0166000D03*
X0088500Y0156000D03*
X0088500Y0146000D03*
X0088500Y0136000D03*
X0088500Y0126000D03*
X0088500Y0116000D03*
X0088500Y0106000D03*
X0088500Y0096000D03*
X0088500Y0086000D03*
X0088500Y0076000D03*
X0088500Y0066000D03*
X0088500Y0056000D03*
X0088500Y0046000D03*
X0098500Y0046000D03*
X0098500Y0056000D03*
X0098500Y0066000D03*
X0098500Y0076000D03*
X0098500Y0086000D03*
X0098500Y0096000D03*
X0098500Y0106000D03*
X0098500Y0116000D03*
X0098500Y0126000D03*
X0098500Y0136000D03*
X0098500Y0146000D03*
X0098500Y0156000D03*
X0098500Y0166000D03*
X0098500Y0176000D03*
X0098500Y0186000D03*
X0098500Y0196000D03*
X0098500Y0206000D03*
X0098500Y0216000D03*
X0098500Y0226000D03*
X0098500Y0236000D03*
X0098500Y0246000D03*
X0098500Y0256000D03*
X0098500Y0266000D03*
X0098500Y0276000D03*
X0098500Y0286000D03*
X0098500Y0296000D03*
X0098500Y0306000D03*
X0098500Y0316000D03*
X0098500Y0326000D03*
X0098500Y0336000D03*
X0108500Y0336000D03*
X0108500Y0326000D03*
X0108500Y0316000D03*
X0108500Y0306000D03*
X0108500Y0296000D03*
X0108500Y0286000D03*
X0108500Y0276000D03*
X0108500Y0266000D03*
X0108500Y0256000D03*
X0108500Y0246000D03*
X0108500Y0236000D03*
X0108500Y0226000D03*
X0108500Y0216000D03*
X0108500Y0206000D03*
X0108500Y0196000D03*
X0108500Y0186000D03*
X0108500Y0176000D03*
X0108500Y0166000D03*
X0108500Y0156000D03*
X0108500Y0146000D03*
X0108500Y0136000D03*
X0108500Y0126000D03*
X0108500Y0116000D03*
X0108500Y0106000D03*
X0108500Y0096000D03*
X0108500Y0086000D03*
X0108500Y0076000D03*
X0108500Y0066000D03*
X0108500Y0056000D03*
X0108500Y0046000D03*
X0148500Y0046000D03*
X0148500Y0056000D03*
X0148500Y0066000D03*
X0148500Y0076000D03*
X0148500Y0086000D03*
X0148500Y0096000D03*
X0148500Y0106000D03*
X0148500Y0116000D03*
X0148500Y0126000D03*
X0148500Y0136000D03*
X0148500Y0146000D03*
X0148500Y0156000D03*
X0148500Y0166000D03*
X0148500Y0176000D03*
X0148500Y0186000D03*
X0148500Y0196000D03*
X0148500Y0206000D03*
X0148500Y0216000D03*
X0148500Y0226000D03*
X0148500Y0236000D03*
X0148500Y0246000D03*
X0148500Y0256000D03*
X0148500Y0266000D03*
X0148500Y0276000D03*
X0148500Y0286000D03*
X0148500Y0296000D03*
X0148500Y0306000D03*
X0148500Y0316000D03*
X0148500Y0326000D03*
X0148500Y0336000D03*
X0158500Y0336000D03*
X0158500Y0326000D03*
X0158500Y0316000D03*
X0158500Y0306000D03*
X0158500Y0296000D03*
X0158500Y0286000D03*
X0158500Y0276000D03*
X0158500Y0266000D03*
X0158500Y0256000D03*
X0158500Y0246000D03*
X0158500Y0236000D03*
X0158500Y0226000D03*
X0158500Y0216000D03*
X0158500Y0206000D03*
X0158500Y0196000D03*
X0158500Y0186000D03*
X0158500Y0176000D03*
X0158500Y0166000D03*
X0158500Y0156000D03*
X0158500Y0146000D03*
X0158500Y0136000D03*
X0158500Y0126000D03*
X0158500Y0116000D03*
X0158500Y0106000D03*
X0158500Y0096000D03*
X0158500Y0086000D03*
X0158500Y0076000D03*
X0158500Y0066000D03*
X0158500Y0056000D03*
X0158500Y0046000D03*
X0168500Y0046000D03*
X0168500Y0056000D03*
X0168500Y0066000D03*
X0168500Y0076000D03*
X0168500Y0086000D03*
X0168500Y0096000D03*
X0168500Y0106000D03*
X0168500Y0116000D03*
X0168500Y0126000D03*
X0168500Y0136000D03*
X0168500Y0146000D03*
X0168500Y0156000D03*
X0168500Y0166000D03*
X0168500Y0176000D03*
X0168500Y0186000D03*
X0168500Y0196000D03*
X0168500Y0206000D03*
X0168500Y0216000D03*
X0168500Y0226000D03*
X0168500Y0236000D03*
X0168500Y0246000D03*
X0168500Y0256000D03*
X0168500Y0266000D03*
X0168500Y0276000D03*
X0168500Y0286000D03*
X0168500Y0296000D03*
X0168500Y0306000D03*
X0168500Y0316000D03*
X0168500Y0326000D03*
X0168500Y0336000D03*
X0178500Y0336000D03*
X0178500Y0326000D03*
X0178500Y0316000D03*
X0178500Y0306000D03*
X0178500Y0296000D03*
X0178500Y0286000D03*
X0178500Y0276000D03*
X0178500Y0266000D03*
X0178500Y0256000D03*
X0178500Y0246000D03*
X0178500Y0236000D03*
X0178500Y0226000D03*
X0178500Y0216000D03*
X0178500Y0206000D03*
X0178500Y0196000D03*
X0178500Y0186000D03*
X0178500Y0176000D03*
X0178500Y0166000D03*
X0178500Y0156000D03*
X0178500Y0146000D03*
X0178500Y0136000D03*
X0178500Y0126000D03*
X0178500Y0116000D03*
X0178500Y0106000D03*
X0178500Y0096000D03*
X0178500Y0086000D03*
X0178500Y0076000D03*
X0178500Y0066000D03*
X0178500Y0056000D03*
X0178500Y0046000D03*
X0188500Y0046000D03*
X0188500Y0056000D03*
X0188500Y0066000D03*
X0188500Y0076000D03*
X0188500Y0086000D03*
X0188500Y0096000D03*
X0188500Y0106000D03*
X0188500Y0116000D03*
X0188500Y0126000D03*
X0188500Y0136000D03*
X0188500Y0146000D03*
X0188500Y0156000D03*
X0188500Y0166000D03*
X0188500Y0176000D03*
X0188500Y0186000D03*
X0188500Y0196000D03*
X0188500Y0206000D03*
X0188500Y0216000D03*
X0188500Y0226000D03*
X0188500Y0236000D03*
X0188500Y0246000D03*
X0188500Y0256000D03*
X0188500Y0266000D03*
X0188500Y0276000D03*
X0188500Y0286000D03*
X0188500Y0296000D03*
X0188500Y0306000D03*
X0188500Y0316000D03*
X0188500Y0326000D03*
X0188500Y0336000D03*
D12*
X0183400Y0338600D02*
X0183400Y0331400D01*
X0178600Y0326600D01*
X0178500Y0326000D01*
X0183400Y0321000D02*
X0178600Y0316200D01*
X0178500Y0316000D01*
X0183400Y0321000D02*
X0190600Y0321000D01*
X0197000Y0314600D01*
X0205800Y0314600D01*
X0213000Y0318600D02*
X0190600Y0296200D01*
X0189000Y0296200D01*
X0188500Y0296000D01*
X0190600Y0301000D02*
X0183400Y0301000D01*
X0178600Y0305800D01*
X0178500Y0306000D01*
X0168500Y0316000D02*
X0168200Y0316200D01*
X0163400Y0321000D01*
X0145000Y0321000D01*
X0142600Y0318600D01*
X0140200Y0314600D02*
X0148200Y0306600D01*
X0148500Y0306000D01*
X0145800Y0301000D02*
X0161000Y0301000D01*
X0163400Y0303400D01*
X0163400Y0310600D01*
X0158600Y0315400D01*
X0158500Y0316000D01*
X0158500Y0326000D02*
X0158600Y0326600D01*
X0163400Y0331400D01*
X0163400Y0338600D01*
X0161000Y0341000D01*
X0161000Y0341800D01*
X0155400Y0347400D01*
X0155400Y0377800D01*
X0157800Y0380200D01*
X0170600Y0380200D01*
X0173000Y0377800D01*
X0173000Y0377000D01*
X0169800Y0377800D02*
X0169800Y0363400D01*
X0168200Y0361800D01*
X0168200Y0358600D01*
X0181000Y0345800D01*
X0181000Y0341000D01*
X0183400Y0338600D01*
X0178500Y0336000D02*
X0177800Y0336200D01*
X0161000Y0353000D01*
X0161000Y0377800D01*
X0157800Y0377000D02*
X0157800Y0350600D01*
X0168200Y0340200D01*
X0168200Y0336200D01*
X0168500Y0336000D01*
X0152200Y0347400D02*
X0143400Y0338600D01*
X0143400Y0331400D01*
X0148200Y0326600D01*
X0148500Y0326000D01*
X0140200Y0314600D02*
X0140200Y0343400D01*
X0149800Y0353000D01*
X0147400Y0357000D02*
X0142600Y0361800D01*
X0138600Y0367400D02*
X0138600Y0308200D01*
X0145800Y0301000D01*
X0137000Y0289800D02*
X0145800Y0281000D01*
X0161000Y0281000D01*
X0163400Y0283400D01*
X0163400Y0290600D01*
X0158600Y0295400D01*
X0158500Y0296000D01*
X0137000Y0289800D02*
X0137000Y0368200D01*
X0153800Y0385000D01*
X0183400Y0385000D01*
X0190600Y0377800D01*
X0190600Y0376200D01*
X0175400Y0361000D01*
X0170600Y0361000D01*
X0177800Y0377000D02*
X0173000Y0381800D01*
X0155400Y0381800D01*
X0152200Y0378600D01*
X0152200Y0347400D01*
X0138600Y0367400D02*
X0154600Y0383400D01*
X0174600Y0383400D01*
X0180200Y0377800D01*
X0186600Y0377800D01*
X0192200Y0378600D02*
X0184200Y0386600D01*
X0153000Y0386600D01*
X0135400Y0369000D01*
X0135400Y0271400D01*
X0145800Y0261000D01*
X0153000Y0261000D01*
X0157800Y0256200D01*
X0158500Y0256000D01*
X0163400Y0258600D02*
X0163400Y0243400D01*
X0161000Y0241000D01*
X0145800Y0241000D01*
X0143400Y0238600D01*
X0143400Y0231400D01*
X0148200Y0226600D01*
X0148500Y0226000D01*
X0158500Y0226000D02*
X0158600Y0226600D01*
X0163400Y0231400D01*
X0163400Y0238600D01*
X0165800Y0241000D01*
X0190600Y0241000D01*
X0213000Y0263400D01*
X0233000Y0263400D01*
X0233000Y0266600D02*
X0213000Y0266600D01*
X0210600Y0269000D01*
X0198600Y0269000D01*
X0190600Y0261000D01*
X0185800Y0261000D01*
X0183400Y0258600D01*
X0183400Y0253000D01*
X0181000Y0261000D02*
X0165800Y0261000D01*
X0163400Y0258600D01*
X0181000Y0261000D02*
X0183400Y0263400D01*
X0183400Y0278600D01*
X0185800Y0281000D01*
X0190600Y0281000D01*
X0209800Y0300200D01*
X0218600Y0300200D01*
X0240200Y0278600D01*
X0240200Y0157800D01*
X0233800Y0151400D01*
X0233800Y0148200D01*
X0217000Y0129000D02*
X0215400Y0129000D01*
X0193000Y0106600D01*
X0189000Y0106600D01*
X0188500Y0106000D01*
X0190600Y0101000D02*
X0173800Y0101000D01*
X0169000Y0096200D01*
X0168500Y0096000D01*
X0168500Y0086000D02*
X0168200Y0085800D01*
X0163400Y0081000D01*
X0145800Y0081000D01*
X0141800Y0077000D01*
X0141800Y0042600D01*
X0162600Y0021800D01*
X0171400Y0021800D01*
X0174600Y0025000D01*
X0187400Y0025000D01*
X0189800Y0024200D02*
X0185800Y0020200D01*
X0161800Y0020200D01*
X0140200Y0041800D01*
X0140200Y0095400D01*
X0145800Y0101000D01*
X0153000Y0101000D01*
X0157800Y0096200D01*
X0158500Y0096000D01*
X0158500Y0106000D02*
X0158600Y0106600D01*
X0163400Y0111400D01*
X0163400Y0118600D01*
X0165800Y0121000D01*
X0181000Y0121000D01*
X0183400Y0123400D01*
X0183400Y0138600D01*
X0185800Y0141000D01*
X0190600Y0141000D01*
X0194600Y0145000D01*
X0208200Y0145000D01*
X0239400Y0113800D01*
X0239400Y0100200D01*
X0237000Y0099400D02*
X0241800Y0094600D01*
X0241800Y0048200D01*
X0207400Y0013800D01*
X0153800Y0013800D01*
X0132200Y0035400D01*
X0132200Y0129800D01*
X0148200Y0145800D01*
X0148500Y0146000D01*
X0148500Y0136000D02*
X0148200Y0135400D01*
X0137000Y0124200D01*
X0137000Y0037800D01*
X0156200Y0018600D01*
X0199400Y0018600D01*
X0210600Y0029800D01*
X0210600Y0040200D01*
X0237800Y0067400D01*
X0237800Y0091400D01*
X0233000Y0096200D01*
X0233000Y0093000D02*
X0210600Y0115400D01*
X0210600Y0117000D01*
X0209000Y0118600D01*
X0207400Y0118600D01*
X0193800Y0105000D01*
X0193800Y0104200D01*
X0190600Y0101000D01*
X0188200Y0096200D02*
X0188500Y0096000D01*
X0188200Y0096200D02*
X0208200Y0116200D01*
X0211400Y0109000D02*
X0189000Y0086600D01*
X0188500Y0086000D01*
X0193000Y0083400D02*
X0190600Y0081000D01*
X0183400Y0081000D01*
X0178600Y0085800D01*
X0178500Y0086000D01*
X0188500Y0076000D02*
X0189000Y0076200D01*
X0201800Y0076200D01*
X0216200Y0090600D01*
X0216200Y0097000D01*
X0217000Y0088200D02*
X0195400Y0066600D01*
X0189000Y0066600D01*
X0188500Y0066000D01*
X0193000Y0063400D02*
X0190600Y0061000D01*
X0183400Y0061000D01*
X0178600Y0065800D01*
X0178500Y0066000D01*
X0181000Y0061000D02*
X0165800Y0061000D01*
X0163400Y0063400D01*
X0163400Y0070600D01*
X0158600Y0075400D01*
X0158500Y0076000D01*
X0158500Y0066000D02*
X0158600Y0065800D01*
X0163400Y0061000D01*
X0163400Y0043400D01*
X0170600Y0036200D01*
X0170600Y0024200D01*
X0168200Y0029800D02*
X0157000Y0029800D01*
X0143400Y0043400D01*
X0143400Y0061000D01*
X0148200Y0065800D01*
X0148500Y0066000D01*
X0168500Y0046000D02*
X0169000Y0045800D01*
X0169000Y0044200D01*
X0173800Y0039400D01*
X0189000Y0039400D01*
X0198600Y0049000D01*
X0213000Y0049000D01*
X0208200Y0041000D02*
X0197800Y0041000D01*
X0189800Y0033000D01*
X0189800Y0024200D01*
X0181000Y0041000D02*
X0183400Y0043400D01*
X0183400Y0058600D01*
X0181000Y0061000D01*
X0188500Y0056000D02*
X0189000Y0056200D01*
X0192200Y0056200D01*
X0214600Y0078600D01*
X0217000Y0078600D01*
X0213800Y0069000D02*
X0211400Y0069000D01*
X0189000Y0046600D01*
X0188500Y0046000D01*
X0181000Y0041000D02*
X0176200Y0041000D01*
X0175400Y0041800D01*
X0174600Y0041800D01*
X0193000Y0063400D02*
X0196200Y0063400D01*
X0193000Y0083400D02*
X0205800Y0083400D01*
X0211400Y0109000D02*
X0213800Y0109000D01*
X0233000Y0093000D02*
X0233000Y0089000D01*
X0233000Y0079400D02*
X0233000Y0065800D01*
X0208200Y0041000D01*
X0237000Y0099400D02*
X0237000Y0101800D01*
X0234600Y0104200D01*
X0212200Y0144200D02*
X0208200Y0148200D01*
X0194600Y0148200D01*
X0189000Y0146600D02*
X0188500Y0146000D01*
X0189000Y0146600D02*
X0209800Y0167400D01*
X0209800Y0169000D01*
X0210600Y0178600D02*
X0188200Y0156200D01*
X0188500Y0156000D01*
X0190600Y0161000D02*
X0185800Y0161000D01*
X0183400Y0163400D01*
X0183400Y0178600D01*
X0181000Y0181000D01*
X0173800Y0181000D01*
X0169000Y0185800D01*
X0168500Y0186000D01*
X0168500Y0196000D02*
X0169000Y0196200D01*
X0173800Y0201000D01*
X0190600Y0201000D01*
X0193800Y0204200D01*
X0193800Y0205000D01*
X0233000Y0244200D01*
X0233800Y0246600D02*
X0216200Y0246600D01*
X0190600Y0221000D01*
X0165800Y0221000D01*
X0163400Y0218600D01*
X0163400Y0211400D01*
X0158600Y0206600D01*
X0158500Y0206000D01*
X0178500Y0186000D02*
X0178600Y0185800D01*
X0183400Y0181000D01*
X0190600Y0181000D01*
X0193800Y0184200D01*
X0193800Y0185000D01*
X0197800Y0189000D01*
X0188500Y0186000D02*
X0188200Y0186600D01*
X0208200Y0206600D01*
X0210600Y0209800D02*
X0210600Y0193000D01*
X0193800Y0176200D01*
X0193800Y0164200D01*
X0190600Y0161000D01*
X0196200Y0172200D02*
X0206600Y0182600D01*
X0207400Y0194600D02*
X0189000Y0176200D01*
X0188500Y0176000D01*
X0188500Y0196000D02*
X0189000Y0196200D01*
X0213000Y0220200D01*
X0217000Y0220200D01*
X0214600Y0229000D02*
X0209000Y0229000D01*
X0189000Y0209000D01*
X0189000Y0206600D01*
X0188500Y0206000D01*
X0188500Y0216000D02*
X0189000Y0216200D01*
X0211400Y0238600D01*
X0217000Y0238600D01*
X0214600Y0249000D02*
X0192200Y0226600D01*
X0189000Y0226600D01*
X0188500Y0226000D01*
X0188500Y0236000D02*
X0189000Y0236200D01*
X0211400Y0258600D01*
X0217000Y0258600D01*
X0209800Y0266600D02*
X0189000Y0245800D01*
X0188500Y0246000D01*
X0188500Y0266000D02*
X0189000Y0266600D01*
X0189000Y0269000D01*
X0209000Y0289000D01*
X0212200Y0289000D01*
X0210600Y0297800D02*
X0189000Y0276200D01*
X0188500Y0276000D01*
X0188500Y0286000D02*
X0189000Y0286600D01*
X0190600Y0286600D01*
X0213000Y0309000D01*
X0215400Y0309000D01*
X0217000Y0318600D02*
X0213000Y0318600D01*
X0210600Y0297800D02*
X0217000Y0297800D01*
X0233000Y0304200D02*
X0233000Y0305800D01*
X0192200Y0346600D01*
X0192200Y0378600D01*
X0193000Y0303400D02*
X0190600Y0301000D01*
X0193000Y0303400D02*
X0194600Y0303400D01*
X0233800Y0246600D02*
X0236200Y0244200D01*
X0233000Y0233800D02*
X0233000Y0232200D01*
X0210600Y0209800D01*
X0207400Y0198600D02*
X0207400Y0194600D01*
X0174600Y0161800D02*
X0171400Y0161800D01*
X0170600Y0161000D01*
X0165800Y0161000D01*
X0161000Y0156200D01*
X0158600Y0156200D01*
X0158500Y0156000D01*
X0163400Y0131400D02*
X0158600Y0126600D01*
X0158500Y0126000D01*
X0163400Y0131400D02*
X0165000Y0131400D01*
X0188500Y0126000D02*
X0189000Y0126600D01*
X0192200Y0126600D01*
X0195400Y0129800D01*
X0195400Y0130600D01*
X0207400Y0142600D01*
X0207400Y0138600D02*
X0207400Y0134600D01*
X0189000Y0116200D01*
X0188500Y0116000D01*
X0126600Y0128200D02*
X0126600Y0033000D01*
X0109000Y0015400D01*
X0056200Y0015400D01*
X0012200Y0059400D01*
X0012200Y0098600D01*
X0022600Y0109000D01*
X0019400Y0110600D02*
X0018600Y0110600D01*
X0010600Y0102600D01*
X0010600Y0058600D01*
X0055400Y0013800D01*
X0109800Y0013800D01*
X0128200Y0032200D01*
X0128200Y0136200D01*
X0109000Y0155400D01*
X0108500Y0156000D01*
X0108500Y0146000D02*
X0109000Y0145800D01*
X0126600Y0128200D01*
X0120200Y0124200D02*
X0109000Y0135400D01*
X0108500Y0136000D01*
X0120200Y0124200D02*
X0120200Y0031400D01*
X0107400Y0018600D01*
X0057800Y0018600D01*
X0020200Y0056200D01*
X0020200Y0065000D01*
X0015400Y0069800D01*
X0015400Y0098600D01*
X0020200Y0103400D01*
X0020200Y0100200D02*
X0048200Y0128200D01*
X0048200Y0147400D01*
X0049800Y0149000D01*
X0057800Y0149000D01*
X0065800Y0141000D01*
X0081000Y0141000D01*
X0083400Y0138600D01*
X0083400Y0123400D01*
X0085800Y0121000D01*
X0093000Y0121000D01*
X0097800Y0116200D01*
X0098500Y0116000D01*
X0088500Y0106000D02*
X0088200Y0105800D01*
X0083400Y0101000D01*
X0065800Y0101000D01*
X0048200Y0118600D01*
X0045000Y0118600D01*
X0025800Y0099400D01*
X0022600Y0099400D01*
X0020200Y0100200D02*
X0020200Y0097800D01*
X0021800Y0096200D01*
X0022600Y0089000D02*
X0057800Y0089000D01*
X0065800Y0081000D01*
X0081000Y0081000D01*
X0083400Y0083400D01*
X0083400Y0090600D01*
X0088200Y0095400D01*
X0088500Y0096000D01*
X0088500Y0086000D02*
X0088200Y0085800D01*
X0083400Y0081000D01*
X0083400Y0063400D01*
X0081000Y0061000D01*
X0065800Y0061000D01*
X0065000Y0060200D01*
X0062600Y0060200D01*
X0043400Y0079400D01*
X0022600Y0079400D01*
X0023400Y0071400D02*
X0023400Y0061800D01*
X0037000Y0048200D01*
X0037000Y0041800D01*
X0058600Y0020200D01*
X0106600Y0020200D01*
X0118600Y0032200D01*
X0118600Y0073000D01*
X0110600Y0081000D01*
X0105800Y0081000D01*
X0103400Y0083400D01*
X0103400Y0090600D01*
X0098600Y0095400D01*
X0098500Y0096000D01*
X0098500Y0076000D02*
X0098600Y0075400D01*
X0103400Y0070600D01*
X0103400Y0063400D01*
X0105800Y0061000D01*
X0110600Y0061000D01*
X0115400Y0056200D01*
X0115400Y0045800D01*
X0101000Y0031400D01*
X0101000Y0022600D01*
X0105800Y0022600D02*
X0105800Y0029800D01*
X0117000Y0041000D01*
X0117000Y0067400D01*
X0109000Y0075400D01*
X0108500Y0076000D01*
X0108500Y0056000D02*
X0108200Y0055400D01*
X0103400Y0050600D01*
X0103400Y0042600D01*
X0083400Y0022600D01*
X0074600Y0022600D02*
X0097800Y0045800D01*
X0098500Y0046000D01*
X0088500Y0046000D02*
X0088200Y0045800D01*
X0081800Y0039400D01*
X0065000Y0039400D01*
X0063400Y0041000D01*
X0045000Y0041000D01*
X0039400Y0043400D02*
X0063400Y0043400D01*
X0065800Y0041000D01*
X0081000Y0041000D01*
X0083400Y0043400D01*
X0083400Y0050600D01*
X0088200Y0055400D01*
X0088500Y0056000D01*
X0068500Y0056000D02*
X0068200Y0056200D01*
X0064200Y0056200D01*
X0043400Y0077000D01*
X0039400Y0077000D01*
X0039400Y0069000D02*
X0041800Y0069000D01*
X0064200Y0046600D01*
X0068200Y0046600D01*
X0068500Y0046000D01*
X0068500Y0066000D02*
X0068200Y0066600D01*
X0049000Y0085800D01*
X0063400Y0086600D02*
X0068200Y0086600D01*
X0068500Y0086000D01*
X0063400Y0086600D02*
X0041000Y0109000D01*
X0039400Y0109000D01*
X0045800Y0116200D02*
X0048200Y0116200D01*
X0068200Y0096200D01*
X0068500Y0096000D01*
X0068500Y0106000D02*
X0068200Y0106600D01*
X0049800Y0125000D01*
X0049800Y0126600D01*
X0045800Y0132200D02*
X0041000Y0137000D01*
X0041000Y0158600D01*
X0045800Y0169000D02*
X0068200Y0146600D01*
X0068500Y0146000D01*
X0068500Y0156000D02*
X0068200Y0156200D01*
X0060200Y0164200D01*
X0060200Y0165000D01*
X0046600Y0178600D01*
X0056200Y0172200D02*
X0039400Y0189000D01*
X0049800Y0195400D02*
X0069000Y0176200D01*
X0068500Y0176000D01*
X0061800Y0181000D02*
X0061800Y0165000D01*
X0065800Y0161000D01*
X0081000Y0161000D01*
X0083400Y0163400D01*
X0083400Y0178600D01*
X0085800Y0181000D01*
X0093000Y0181000D01*
X0097800Y0185800D01*
X0098500Y0186000D01*
X0101000Y0201000D02*
X0103400Y0203400D01*
X0103400Y0210600D01*
X0098600Y0215400D01*
X0098500Y0216000D01*
X0093000Y0221000D02*
X0097800Y0225800D01*
X0098500Y0226000D01*
X0093000Y0221000D02*
X0065800Y0221000D01*
X0025000Y0261800D01*
X0023400Y0261800D01*
X0022600Y0253800D02*
X0022600Y0250600D01*
X0043400Y0229800D01*
X0043400Y0224200D01*
X0063400Y0204200D01*
X0063400Y0203400D01*
X0065800Y0201000D01*
X0101000Y0201000D01*
X0093000Y0241000D02*
X0085800Y0241000D01*
X0083400Y0243400D01*
X0083400Y0258600D01*
X0081000Y0261000D01*
X0065800Y0261000D01*
X0040200Y0286600D01*
X0023400Y0286600D01*
X0020200Y0286600D02*
X0020200Y0275400D01*
X0021800Y0273800D01*
X0020200Y0286600D02*
X0034600Y0301000D01*
X0045800Y0301000D01*
X0065800Y0281000D01*
X0081000Y0281000D01*
X0083400Y0278600D01*
X0083400Y0263400D01*
X0085800Y0261000D01*
X0103400Y0261000D01*
X0108200Y0256200D01*
X0108500Y0256000D01*
X0108500Y0266000D02*
X0109000Y0266600D01*
X0118600Y0276200D01*
X0118600Y0361800D01*
X0098600Y0381800D01*
X0064200Y0381800D01*
X0025800Y0343400D01*
X0025800Y0309000D01*
X0023400Y0306600D01*
X0023400Y0301800D01*
X0039400Y0309000D02*
X0043400Y0309000D01*
X0065800Y0286600D01*
X0068200Y0286600D01*
X0068500Y0286000D01*
X0068200Y0276200D02*
X0068500Y0276000D01*
X0068200Y0276200D02*
X0045800Y0298600D01*
X0042600Y0298600D01*
X0042600Y0289000D02*
X0045800Y0289000D01*
X0068200Y0266600D01*
X0068500Y0266000D01*
X0068200Y0256200D02*
X0068500Y0256000D01*
X0068200Y0256200D02*
X0045800Y0278600D01*
X0039400Y0278600D01*
X0039400Y0269000D02*
X0043400Y0269000D01*
X0065800Y0246600D01*
X0068200Y0246600D01*
X0068500Y0246000D01*
X0068200Y0238600D02*
X0068200Y0236200D01*
X0068500Y0236000D01*
X0068200Y0238600D02*
X0046600Y0260200D01*
X0046600Y0261800D01*
X0042600Y0249000D02*
X0059400Y0232200D01*
X0048200Y0229000D02*
X0068200Y0209000D01*
X0068200Y0206600D01*
X0068500Y0206000D01*
X0068500Y0216000D02*
X0068200Y0216200D01*
X0047400Y0237000D01*
X0045000Y0237000D01*
X0045800Y0229000D02*
X0048200Y0229000D01*
X0045800Y0218600D02*
X0039400Y0218600D01*
X0045800Y0218600D02*
X0068200Y0196200D01*
X0068500Y0196000D01*
X0068200Y0186600D02*
X0065800Y0186600D01*
X0043400Y0209000D01*
X0039400Y0209000D01*
X0049800Y0198600D02*
X0049800Y0195400D01*
X0061800Y0181000D02*
X0023400Y0219400D01*
X0023400Y0221800D01*
X0068200Y0186600D02*
X0068500Y0186000D01*
X0050600Y0146600D02*
X0050600Y0144200D01*
X0068200Y0126600D01*
X0068500Y0126000D01*
X0063400Y0124200D02*
X0063400Y0123400D01*
X0065800Y0121000D01*
X0073000Y0121000D01*
X0077800Y0125800D01*
X0078500Y0126000D01*
X0068500Y0116000D02*
X0068200Y0116200D01*
X0050600Y0133800D01*
X0050600Y0137000D01*
X0061800Y0125800D02*
X0063400Y0124200D01*
X0022600Y0113800D02*
X0019400Y0110600D01*
X0068200Y0022600D02*
X0074600Y0022600D01*
X0093000Y0241000D02*
X0097800Y0245800D01*
X0098500Y0246000D01*
X0088500Y0276000D02*
X0088200Y0276200D01*
X0083400Y0281000D01*
X0083400Y0298600D01*
X0081000Y0301000D01*
X0065800Y0301000D01*
X0028200Y0338600D01*
X0028200Y0342600D01*
X0039400Y0318600D02*
X0045800Y0318600D01*
X0068200Y0296200D01*
X0068500Y0296000D01*
X0065800Y0321000D02*
X0083400Y0321000D01*
X0088200Y0316200D01*
X0088500Y0316000D01*
X0098600Y0306600D02*
X0098500Y0306000D01*
X0098600Y0306600D02*
X0103400Y0311400D01*
X0103400Y0338600D01*
X0101000Y0341000D01*
X0098600Y0341000D01*
X0086600Y0353000D01*
X0093800Y0353800D02*
X0108200Y0339400D01*
X0108200Y0336200D01*
X0108500Y0336000D01*
X0113800Y0337800D02*
X0113800Y0331400D01*
X0109000Y0326600D01*
X0108500Y0326000D01*
X0113800Y0337800D02*
X0095400Y0356200D01*
X0095400Y0377800D01*
X0097000Y0380200D02*
X0077800Y0380200D01*
X0075400Y0377800D01*
X0075400Y0346600D01*
X0083400Y0338600D01*
X0083400Y0331400D01*
X0078600Y0326600D01*
X0078500Y0326000D01*
X0065800Y0321000D02*
X0063400Y0323400D01*
X0063400Y0338600D01*
X0065000Y0340200D01*
X0065000Y0361000D01*
X0077800Y0357800D02*
X0097800Y0337800D01*
X0097800Y0336200D01*
X0098500Y0336000D01*
X0093800Y0353800D02*
X0093800Y0357000D01*
X0081000Y0369800D01*
X0081000Y0377800D01*
X0077800Y0377000D02*
X0077800Y0357800D01*
X0098600Y0378600D02*
X0097000Y0380200D01*
X0105800Y0361000D02*
X0105800Y0356200D01*
X0117000Y0345000D01*
X0117000Y0294600D01*
X0109000Y0286600D01*
X0108500Y0286000D01*
X0103400Y0283400D02*
X0101000Y0281000D01*
X0093800Y0281000D01*
X0089000Y0285800D01*
X0088500Y0286000D01*
X0103400Y0283400D02*
X0103400Y0298600D01*
X0105800Y0301000D01*
X0110600Y0301000D01*
X0115400Y0305800D01*
X0115400Y0338600D01*
X0110600Y0343400D01*
X0110600Y0348200D01*
D13*
X0110600Y0348200D03*
X0105800Y0361000D03*
X0098600Y0345800D03*
X0092200Y0340200D03*
X0090600Y0352200D03*
X0086600Y0353000D03*
X0085000Y0358600D03*
X0089000Y0358600D03*
X0077800Y0377000D03*
X0081000Y0377800D03*
X0085000Y0377800D03*
X0095400Y0377800D03*
X0098600Y0378600D03*
X0065000Y0361000D03*
X0039400Y0318600D03*
X0039400Y0309000D03*
X0042600Y0298600D03*
X0042600Y0289000D03*
X0039400Y0278600D03*
X0039400Y0269000D03*
X0046600Y0261800D03*
X0042600Y0249000D03*
X0045000Y0237000D03*
X0045800Y0229000D03*
X0043400Y0221000D03*
X0039400Y0218600D03*
X0039400Y0209000D03*
X0049800Y0198600D03*
X0039400Y0189000D03*
X0046600Y0178600D03*
X0045800Y0169000D03*
X0041000Y0158600D03*
X0050600Y0146600D03*
X0050600Y0137000D03*
X0045800Y0132200D03*
X0049800Y0126600D03*
X0045800Y0116200D03*
X0039400Y0109000D03*
X0049000Y0085800D03*
X0057000Y0096200D03*
X0061800Y0109800D03*
X0061800Y0125800D03*
X0059400Y0141800D03*
X0064200Y0169800D03*
X0056200Y0172200D03*
X0065000Y0190600D03*
X0064200Y0209800D03*
X0059400Y0232200D03*
X0065000Y0250600D03*
X0062600Y0269000D03*
X0065000Y0290600D03*
X0059400Y0301800D03*
X0061800Y0311400D03*
X0028200Y0342600D03*
X0022600Y0337000D03*
X0022600Y0333800D03*
X0022600Y0324200D03*
X0021000Y0321800D03*
X0022600Y0319400D03*
X0022600Y0309000D03*
X0023400Y0301800D03*
X0022600Y0292200D03*
X0023400Y0286600D03*
X0022600Y0282600D03*
X0022600Y0279400D03*
X0021800Y0273800D03*
X0023400Y0266600D03*
X0023400Y0261800D03*
X0022600Y0258600D03*
X0022600Y0253800D03*
X0022600Y0247400D03*
X0023400Y0241800D03*
X0023400Y0236200D03*
X0023400Y0231400D03*
X0023400Y0226600D03*
X0023400Y0221800D03*
X0023400Y0216200D03*
X0023400Y0211400D03*
X0023400Y0206600D03*
X0023400Y0201800D03*
X0023400Y0196200D03*
X0023400Y0191400D03*
X0023400Y0186600D03*
X0023400Y0181800D03*
X0023400Y0176200D03*
X0023400Y0171400D03*
X0022600Y0168200D03*
X0022600Y0164200D03*
X0017800Y0153800D03*
X0019400Y0149000D03*
X0023400Y0131400D03*
X0022600Y0123400D03*
X0022600Y0119400D03*
X0022600Y0113800D03*
X0022600Y0109000D03*
X0020200Y0103400D03*
X0022600Y0099400D03*
X0021800Y0096200D03*
X0022600Y0089000D03*
X0021000Y0086600D03*
X0022600Y0084200D03*
X0022600Y0079400D03*
X0023400Y0071400D03*
X0017800Y0064200D03*
X0017800Y0061000D03*
X0022600Y0059400D03*
X0039400Y0069000D03*
X0039400Y0077000D03*
X0055400Y0048200D03*
X0063400Y0062600D03*
X0061800Y0081800D03*
X0083400Y0113000D03*
X0113000Y0052200D03*
X0105800Y0022600D03*
X0101000Y0022600D03*
X0083400Y0022600D03*
X0083400Y0036200D03*
X0068200Y0022600D03*
X0045000Y0041000D03*
X0039400Y0043400D03*
X0017800Y0086600D03*
X0083400Y0193000D03*
X0165000Y0131400D03*
X0174600Y0161800D03*
X0194600Y0148200D03*
X0193000Y0130600D03*
X0207400Y0138600D03*
X0207400Y0142600D03*
X0212200Y0144200D03*
X0211400Y0156200D03*
X0209800Y0169000D03*
X0210600Y0178600D03*
X0206600Y0182600D03*
X0197800Y0189000D03*
X0207400Y0198600D03*
X0208200Y0206600D03*
X0217000Y0220200D03*
X0214600Y0229000D03*
X0217000Y0238600D03*
X0214600Y0249000D03*
X0217000Y0258600D03*
X0209800Y0266600D03*
X0209000Y0277000D03*
X0212200Y0289000D03*
X0217000Y0297800D03*
X0215400Y0309000D03*
X0217000Y0318600D03*
X0205800Y0314600D03*
X0194600Y0303400D03*
X0193000Y0292200D03*
X0193000Y0269800D03*
X0194600Y0254600D03*
X0183400Y0253000D03*
X0192200Y0230600D03*
X0193000Y0209800D03*
X0196200Y0172200D03*
X0196200Y0168200D03*
X0217000Y0129000D03*
X0208200Y0116200D03*
X0213800Y0109000D03*
X0216200Y0097000D03*
X0217000Y0088200D03*
X0217000Y0078600D03*
X0213800Y0069000D03*
X0205800Y0083400D03*
X0196200Y0063400D03*
X0213000Y0049000D03*
X0225000Y0040200D03*
X0233000Y0049000D03*
X0233000Y0054600D03*
X0233000Y0059400D03*
X0236200Y0062600D03*
X0235400Y0069000D03*
X0233000Y0079400D03*
X0234600Y0081800D03*
X0233000Y0089000D03*
X0235400Y0090600D03*
X0233000Y0096200D03*
X0233000Y0101800D03*
X0234600Y0104200D03*
X0233000Y0109000D03*
X0234600Y0111400D03*
X0233000Y0113800D03*
X0239400Y0100200D03*
X0233000Y0133000D03*
X0233800Y0148200D03*
X0233000Y0153800D03*
X0233000Y0158600D03*
X0233000Y0161800D03*
X0233000Y0169000D03*
X0233000Y0173800D03*
X0233000Y0178600D03*
X0233000Y0183400D03*
X0233000Y0189000D03*
X0233000Y0193800D03*
X0233000Y0198600D03*
X0233000Y0203400D03*
X0233000Y0209000D03*
X0234600Y0211400D03*
X0233000Y0213800D03*
X0237800Y0209800D03*
X0233000Y0221800D03*
X0233000Y0225800D03*
X0233000Y0229000D03*
X0233000Y0233800D03*
X0233000Y0244200D03*
X0236200Y0244200D03*
X0233000Y0253800D03*
X0233000Y0258600D03*
X0233000Y0263400D03*
X0233000Y0266600D03*
X0233000Y0273800D03*
X0236200Y0273800D03*
X0233000Y0278600D03*
X0235400Y0286600D03*
X0233000Y0289000D03*
X0233000Y0296200D03*
X0233000Y0299400D03*
X0233000Y0304200D03*
X0233000Y0309000D03*
X0233000Y0313800D03*
X0233000Y0320200D03*
X0233000Y0323400D03*
X0233000Y0329000D03*
X0188200Y0352200D03*
X0183400Y0341800D03*
X0170600Y0361000D03*
X0168200Y0355400D03*
X0163400Y0341800D03*
X0157800Y0341800D03*
X0149800Y0353000D03*
X0147400Y0357000D03*
X0142600Y0361800D03*
X0157800Y0377000D03*
X0161000Y0377800D03*
X0165800Y0377800D03*
X0169800Y0377800D03*
X0173000Y0377000D03*
X0177800Y0377000D03*
X0186600Y0377800D03*
X0142600Y0318600D03*
X0111400Y0321000D03*
X0193000Y0109800D03*
X0174600Y0041800D03*
X0172200Y0037800D03*
X0168200Y0029800D03*
X0170600Y0024200D03*
X0164200Y0039400D03*
X0187400Y0025000D03*
M02*
