G75*
%MOIN*%
%OFA0B0*%
%FSLAX25Y25*%
%IPPOS*%
%LPD*%
%AMOC8*
5,1,8,0,0,1.08239X$1,22.5*
%
%ADD10C,0.00000*%
%ADD11C,0.00800*%
D10*
X0001000Y0001000D02*
X0001000Y0392201D01*
X0255921Y0392201D01*
X0255921Y0001000D01*
X0001000Y0001000D01*
X0050094Y0033500D02*
X0050096Y0033653D01*
X0050102Y0033807D01*
X0050112Y0033960D01*
X0050126Y0034112D01*
X0050144Y0034265D01*
X0050166Y0034416D01*
X0050191Y0034567D01*
X0050221Y0034718D01*
X0050255Y0034868D01*
X0050292Y0035016D01*
X0050333Y0035164D01*
X0050378Y0035310D01*
X0050427Y0035456D01*
X0050480Y0035600D01*
X0050536Y0035742D01*
X0050596Y0035883D01*
X0050660Y0036023D01*
X0050727Y0036161D01*
X0050798Y0036297D01*
X0050873Y0036431D01*
X0050950Y0036563D01*
X0051032Y0036693D01*
X0051116Y0036821D01*
X0051204Y0036947D01*
X0051295Y0037070D01*
X0051389Y0037191D01*
X0051487Y0037309D01*
X0051587Y0037425D01*
X0051691Y0037538D01*
X0051797Y0037649D01*
X0051906Y0037757D01*
X0052018Y0037862D01*
X0052132Y0037963D01*
X0052250Y0038062D01*
X0052369Y0038158D01*
X0052491Y0038251D01*
X0052616Y0038340D01*
X0052743Y0038427D01*
X0052872Y0038509D01*
X0053003Y0038589D01*
X0053136Y0038665D01*
X0053271Y0038738D01*
X0053408Y0038807D01*
X0053547Y0038872D01*
X0053687Y0038934D01*
X0053829Y0038992D01*
X0053972Y0039047D01*
X0054117Y0039098D01*
X0054263Y0039145D01*
X0054410Y0039188D01*
X0054558Y0039227D01*
X0054707Y0039263D01*
X0054857Y0039294D01*
X0055008Y0039322D01*
X0055159Y0039346D01*
X0055312Y0039366D01*
X0055464Y0039382D01*
X0055617Y0039394D01*
X0055770Y0039402D01*
X0055923Y0039406D01*
X0056077Y0039406D01*
X0056230Y0039402D01*
X0056383Y0039394D01*
X0056536Y0039382D01*
X0056688Y0039366D01*
X0056841Y0039346D01*
X0056992Y0039322D01*
X0057143Y0039294D01*
X0057293Y0039263D01*
X0057442Y0039227D01*
X0057590Y0039188D01*
X0057737Y0039145D01*
X0057883Y0039098D01*
X0058028Y0039047D01*
X0058171Y0038992D01*
X0058313Y0038934D01*
X0058453Y0038872D01*
X0058592Y0038807D01*
X0058729Y0038738D01*
X0058864Y0038665D01*
X0058997Y0038589D01*
X0059128Y0038509D01*
X0059257Y0038427D01*
X0059384Y0038340D01*
X0059509Y0038251D01*
X0059631Y0038158D01*
X0059750Y0038062D01*
X0059868Y0037963D01*
X0059982Y0037862D01*
X0060094Y0037757D01*
X0060203Y0037649D01*
X0060309Y0037538D01*
X0060413Y0037425D01*
X0060513Y0037309D01*
X0060611Y0037191D01*
X0060705Y0037070D01*
X0060796Y0036947D01*
X0060884Y0036821D01*
X0060968Y0036693D01*
X0061050Y0036563D01*
X0061127Y0036431D01*
X0061202Y0036297D01*
X0061273Y0036161D01*
X0061340Y0036023D01*
X0061404Y0035883D01*
X0061464Y0035742D01*
X0061520Y0035600D01*
X0061573Y0035456D01*
X0061622Y0035310D01*
X0061667Y0035164D01*
X0061708Y0035016D01*
X0061745Y0034868D01*
X0061779Y0034718D01*
X0061809Y0034567D01*
X0061834Y0034416D01*
X0061856Y0034265D01*
X0061874Y0034112D01*
X0061888Y0033960D01*
X0061898Y0033807D01*
X0061904Y0033653D01*
X0061906Y0033500D01*
X0061904Y0033347D01*
X0061898Y0033193D01*
X0061888Y0033040D01*
X0061874Y0032888D01*
X0061856Y0032735D01*
X0061834Y0032584D01*
X0061809Y0032433D01*
X0061779Y0032282D01*
X0061745Y0032132D01*
X0061708Y0031984D01*
X0061667Y0031836D01*
X0061622Y0031690D01*
X0061573Y0031544D01*
X0061520Y0031400D01*
X0061464Y0031258D01*
X0061404Y0031117D01*
X0061340Y0030977D01*
X0061273Y0030839D01*
X0061202Y0030703D01*
X0061127Y0030569D01*
X0061050Y0030437D01*
X0060968Y0030307D01*
X0060884Y0030179D01*
X0060796Y0030053D01*
X0060705Y0029930D01*
X0060611Y0029809D01*
X0060513Y0029691D01*
X0060413Y0029575D01*
X0060309Y0029462D01*
X0060203Y0029351D01*
X0060094Y0029243D01*
X0059982Y0029138D01*
X0059868Y0029037D01*
X0059750Y0028938D01*
X0059631Y0028842D01*
X0059509Y0028749D01*
X0059384Y0028660D01*
X0059257Y0028573D01*
X0059128Y0028491D01*
X0058997Y0028411D01*
X0058864Y0028335D01*
X0058729Y0028262D01*
X0058592Y0028193D01*
X0058453Y0028128D01*
X0058313Y0028066D01*
X0058171Y0028008D01*
X0058028Y0027953D01*
X0057883Y0027902D01*
X0057737Y0027855D01*
X0057590Y0027812D01*
X0057442Y0027773D01*
X0057293Y0027737D01*
X0057143Y0027706D01*
X0056992Y0027678D01*
X0056841Y0027654D01*
X0056688Y0027634D01*
X0056536Y0027618D01*
X0056383Y0027606D01*
X0056230Y0027598D01*
X0056077Y0027594D01*
X0055923Y0027594D01*
X0055770Y0027598D01*
X0055617Y0027606D01*
X0055464Y0027618D01*
X0055312Y0027634D01*
X0055159Y0027654D01*
X0055008Y0027678D01*
X0054857Y0027706D01*
X0054707Y0027737D01*
X0054558Y0027773D01*
X0054410Y0027812D01*
X0054263Y0027855D01*
X0054117Y0027902D01*
X0053972Y0027953D01*
X0053829Y0028008D01*
X0053687Y0028066D01*
X0053547Y0028128D01*
X0053408Y0028193D01*
X0053271Y0028262D01*
X0053136Y0028335D01*
X0053003Y0028411D01*
X0052872Y0028491D01*
X0052743Y0028573D01*
X0052616Y0028660D01*
X0052491Y0028749D01*
X0052369Y0028842D01*
X0052250Y0028938D01*
X0052132Y0029037D01*
X0052018Y0029138D01*
X0051906Y0029243D01*
X0051797Y0029351D01*
X0051691Y0029462D01*
X0051587Y0029575D01*
X0051487Y0029691D01*
X0051389Y0029809D01*
X0051295Y0029930D01*
X0051204Y0030053D01*
X0051116Y0030179D01*
X0051032Y0030307D01*
X0050950Y0030437D01*
X0050873Y0030569D01*
X0050798Y0030703D01*
X0050727Y0030839D01*
X0050660Y0030977D01*
X0050596Y0031117D01*
X0050536Y0031258D01*
X0050480Y0031400D01*
X0050427Y0031544D01*
X0050378Y0031690D01*
X0050333Y0031836D01*
X0050292Y0031984D01*
X0050255Y0032132D01*
X0050221Y0032282D01*
X0050191Y0032433D01*
X0050166Y0032584D01*
X0050144Y0032735D01*
X0050126Y0032888D01*
X0050112Y0033040D01*
X0050102Y0033193D01*
X0050096Y0033347D01*
X0050094Y0033500D01*
X0195094Y0033500D02*
X0195096Y0033653D01*
X0195102Y0033807D01*
X0195112Y0033960D01*
X0195126Y0034112D01*
X0195144Y0034265D01*
X0195166Y0034416D01*
X0195191Y0034567D01*
X0195221Y0034718D01*
X0195255Y0034868D01*
X0195292Y0035016D01*
X0195333Y0035164D01*
X0195378Y0035310D01*
X0195427Y0035456D01*
X0195480Y0035600D01*
X0195536Y0035742D01*
X0195596Y0035883D01*
X0195660Y0036023D01*
X0195727Y0036161D01*
X0195798Y0036297D01*
X0195873Y0036431D01*
X0195950Y0036563D01*
X0196032Y0036693D01*
X0196116Y0036821D01*
X0196204Y0036947D01*
X0196295Y0037070D01*
X0196389Y0037191D01*
X0196487Y0037309D01*
X0196587Y0037425D01*
X0196691Y0037538D01*
X0196797Y0037649D01*
X0196906Y0037757D01*
X0197018Y0037862D01*
X0197132Y0037963D01*
X0197250Y0038062D01*
X0197369Y0038158D01*
X0197491Y0038251D01*
X0197616Y0038340D01*
X0197743Y0038427D01*
X0197872Y0038509D01*
X0198003Y0038589D01*
X0198136Y0038665D01*
X0198271Y0038738D01*
X0198408Y0038807D01*
X0198547Y0038872D01*
X0198687Y0038934D01*
X0198829Y0038992D01*
X0198972Y0039047D01*
X0199117Y0039098D01*
X0199263Y0039145D01*
X0199410Y0039188D01*
X0199558Y0039227D01*
X0199707Y0039263D01*
X0199857Y0039294D01*
X0200008Y0039322D01*
X0200159Y0039346D01*
X0200312Y0039366D01*
X0200464Y0039382D01*
X0200617Y0039394D01*
X0200770Y0039402D01*
X0200923Y0039406D01*
X0201077Y0039406D01*
X0201230Y0039402D01*
X0201383Y0039394D01*
X0201536Y0039382D01*
X0201688Y0039366D01*
X0201841Y0039346D01*
X0201992Y0039322D01*
X0202143Y0039294D01*
X0202293Y0039263D01*
X0202442Y0039227D01*
X0202590Y0039188D01*
X0202737Y0039145D01*
X0202883Y0039098D01*
X0203028Y0039047D01*
X0203171Y0038992D01*
X0203313Y0038934D01*
X0203453Y0038872D01*
X0203592Y0038807D01*
X0203729Y0038738D01*
X0203864Y0038665D01*
X0203997Y0038589D01*
X0204128Y0038509D01*
X0204257Y0038427D01*
X0204384Y0038340D01*
X0204509Y0038251D01*
X0204631Y0038158D01*
X0204750Y0038062D01*
X0204868Y0037963D01*
X0204982Y0037862D01*
X0205094Y0037757D01*
X0205203Y0037649D01*
X0205309Y0037538D01*
X0205413Y0037425D01*
X0205513Y0037309D01*
X0205611Y0037191D01*
X0205705Y0037070D01*
X0205796Y0036947D01*
X0205884Y0036821D01*
X0205968Y0036693D01*
X0206050Y0036563D01*
X0206127Y0036431D01*
X0206202Y0036297D01*
X0206273Y0036161D01*
X0206340Y0036023D01*
X0206404Y0035883D01*
X0206464Y0035742D01*
X0206520Y0035600D01*
X0206573Y0035456D01*
X0206622Y0035310D01*
X0206667Y0035164D01*
X0206708Y0035016D01*
X0206745Y0034868D01*
X0206779Y0034718D01*
X0206809Y0034567D01*
X0206834Y0034416D01*
X0206856Y0034265D01*
X0206874Y0034112D01*
X0206888Y0033960D01*
X0206898Y0033807D01*
X0206904Y0033653D01*
X0206906Y0033500D01*
X0206904Y0033347D01*
X0206898Y0033193D01*
X0206888Y0033040D01*
X0206874Y0032888D01*
X0206856Y0032735D01*
X0206834Y0032584D01*
X0206809Y0032433D01*
X0206779Y0032282D01*
X0206745Y0032132D01*
X0206708Y0031984D01*
X0206667Y0031836D01*
X0206622Y0031690D01*
X0206573Y0031544D01*
X0206520Y0031400D01*
X0206464Y0031258D01*
X0206404Y0031117D01*
X0206340Y0030977D01*
X0206273Y0030839D01*
X0206202Y0030703D01*
X0206127Y0030569D01*
X0206050Y0030437D01*
X0205968Y0030307D01*
X0205884Y0030179D01*
X0205796Y0030053D01*
X0205705Y0029930D01*
X0205611Y0029809D01*
X0205513Y0029691D01*
X0205413Y0029575D01*
X0205309Y0029462D01*
X0205203Y0029351D01*
X0205094Y0029243D01*
X0204982Y0029138D01*
X0204868Y0029037D01*
X0204750Y0028938D01*
X0204631Y0028842D01*
X0204509Y0028749D01*
X0204384Y0028660D01*
X0204257Y0028573D01*
X0204128Y0028491D01*
X0203997Y0028411D01*
X0203864Y0028335D01*
X0203729Y0028262D01*
X0203592Y0028193D01*
X0203453Y0028128D01*
X0203313Y0028066D01*
X0203171Y0028008D01*
X0203028Y0027953D01*
X0202883Y0027902D01*
X0202737Y0027855D01*
X0202590Y0027812D01*
X0202442Y0027773D01*
X0202293Y0027737D01*
X0202143Y0027706D01*
X0201992Y0027678D01*
X0201841Y0027654D01*
X0201688Y0027634D01*
X0201536Y0027618D01*
X0201383Y0027606D01*
X0201230Y0027598D01*
X0201077Y0027594D01*
X0200923Y0027594D01*
X0200770Y0027598D01*
X0200617Y0027606D01*
X0200464Y0027618D01*
X0200312Y0027634D01*
X0200159Y0027654D01*
X0200008Y0027678D01*
X0199857Y0027706D01*
X0199707Y0027737D01*
X0199558Y0027773D01*
X0199410Y0027812D01*
X0199263Y0027855D01*
X0199117Y0027902D01*
X0198972Y0027953D01*
X0198829Y0028008D01*
X0198687Y0028066D01*
X0198547Y0028128D01*
X0198408Y0028193D01*
X0198271Y0028262D01*
X0198136Y0028335D01*
X0198003Y0028411D01*
X0197872Y0028491D01*
X0197743Y0028573D01*
X0197616Y0028660D01*
X0197491Y0028749D01*
X0197369Y0028842D01*
X0197250Y0028938D01*
X0197132Y0029037D01*
X0197018Y0029138D01*
X0196906Y0029243D01*
X0196797Y0029351D01*
X0196691Y0029462D01*
X0196587Y0029575D01*
X0196487Y0029691D01*
X0196389Y0029809D01*
X0196295Y0029930D01*
X0196204Y0030053D01*
X0196116Y0030179D01*
X0196032Y0030307D01*
X0195950Y0030437D01*
X0195873Y0030569D01*
X0195798Y0030703D01*
X0195727Y0030839D01*
X0195660Y0030977D01*
X0195596Y0031117D01*
X0195536Y0031258D01*
X0195480Y0031400D01*
X0195427Y0031544D01*
X0195378Y0031690D01*
X0195333Y0031836D01*
X0195292Y0031984D01*
X0195255Y0032132D01*
X0195221Y0032282D01*
X0195191Y0032433D01*
X0195166Y0032584D01*
X0195144Y0032735D01*
X0195126Y0032888D01*
X0195112Y0033040D01*
X0195102Y0033193D01*
X0195096Y0033347D01*
X0195094Y0033500D01*
X0195094Y0348500D02*
X0195096Y0348653D01*
X0195102Y0348807D01*
X0195112Y0348960D01*
X0195126Y0349112D01*
X0195144Y0349265D01*
X0195166Y0349416D01*
X0195191Y0349567D01*
X0195221Y0349718D01*
X0195255Y0349868D01*
X0195292Y0350016D01*
X0195333Y0350164D01*
X0195378Y0350310D01*
X0195427Y0350456D01*
X0195480Y0350600D01*
X0195536Y0350742D01*
X0195596Y0350883D01*
X0195660Y0351023D01*
X0195727Y0351161D01*
X0195798Y0351297D01*
X0195873Y0351431D01*
X0195950Y0351563D01*
X0196032Y0351693D01*
X0196116Y0351821D01*
X0196204Y0351947D01*
X0196295Y0352070D01*
X0196389Y0352191D01*
X0196487Y0352309D01*
X0196587Y0352425D01*
X0196691Y0352538D01*
X0196797Y0352649D01*
X0196906Y0352757D01*
X0197018Y0352862D01*
X0197132Y0352963D01*
X0197250Y0353062D01*
X0197369Y0353158D01*
X0197491Y0353251D01*
X0197616Y0353340D01*
X0197743Y0353427D01*
X0197872Y0353509D01*
X0198003Y0353589D01*
X0198136Y0353665D01*
X0198271Y0353738D01*
X0198408Y0353807D01*
X0198547Y0353872D01*
X0198687Y0353934D01*
X0198829Y0353992D01*
X0198972Y0354047D01*
X0199117Y0354098D01*
X0199263Y0354145D01*
X0199410Y0354188D01*
X0199558Y0354227D01*
X0199707Y0354263D01*
X0199857Y0354294D01*
X0200008Y0354322D01*
X0200159Y0354346D01*
X0200312Y0354366D01*
X0200464Y0354382D01*
X0200617Y0354394D01*
X0200770Y0354402D01*
X0200923Y0354406D01*
X0201077Y0354406D01*
X0201230Y0354402D01*
X0201383Y0354394D01*
X0201536Y0354382D01*
X0201688Y0354366D01*
X0201841Y0354346D01*
X0201992Y0354322D01*
X0202143Y0354294D01*
X0202293Y0354263D01*
X0202442Y0354227D01*
X0202590Y0354188D01*
X0202737Y0354145D01*
X0202883Y0354098D01*
X0203028Y0354047D01*
X0203171Y0353992D01*
X0203313Y0353934D01*
X0203453Y0353872D01*
X0203592Y0353807D01*
X0203729Y0353738D01*
X0203864Y0353665D01*
X0203997Y0353589D01*
X0204128Y0353509D01*
X0204257Y0353427D01*
X0204384Y0353340D01*
X0204509Y0353251D01*
X0204631Y0353158D01*
X0204750Y0353062D01*
X0204868Y0352963D01*
X0204982Y0352862D01*
X0205094Y0352757D01*
X0205203Y0352649D01*
X0205309Y0352538D01*
X0205413Y0352425D01*
X0205513Y0352309D01*
X0205611Y0352191D01*
X0205705Y0352070D01*
X0205796Y0351947D01*
X0205884Y0351821D01*
X0205968Y0351693D01*
X0206050Y0351563D01*
X0206127Y0351431D01*
X0206202Y0351297D01*
X0206273Y0351161D01*
X0206340Y0351023D01*
X0206404Y0350883D01*
X0206464Y0350742D01*
X0206520Y0350600D01*
X0206573Y0350456D01*
X0206622Y0350310D01*
X0206667Y0350164D01*
X0206708Y0350016D01*
X0206745Y0349868D01*
X0206779Y0349718D01*
X0206809Y0349567D01*
X0206834Y0349416D01*
X0206856Y0349265D01*
X0206874Y0349112D01*
X0206888Y0348960D01*
X0206898Y0348807D01*
X0206904Y0348653D01*
X0206906Y0348500D01*
X0206904Y0348347D01*
X0206898Y0348193D01*
X0206888Y0348040D01*
X0206874Y0347888D01*
X0206856Y0347735D01*
X0206834Y0347584D01*
X0206809Y0347433D01*
X0206779Y0347282D01*
X0206745Y0347132D01*
X0206708Y0346984D01*
X0206667Y0346836D01*
X0206622Y0346690D01*
X0206573Y0346544D01*
X0206520Y0346400D01*
X0206464Y0346258D01*
X0206404Y0346117D01*
X0206340Y0345977D01*
X0206273Y0345839D01*
X0206202Y0345703D01*
X0206127Y0345569D01*
X0206050Y0345437D01*
X0205968Y0345307D01*
X0205884Y0345179D01*
X0205796Y0345053D01*
X0205705Y0344930D01*
X0205611Y0344809D01*
X0205513Y0344691D01*
X0205413Y0344575D01*
X0205309Y0344462D01*
X0205203Y0344351D01*
X0205094Y0344243D01*
X0204982Y0344138D01*
X0204868Y0344037D01*
X0204750Y0343938D01*
X0204631Y0343842D01*
X0204509Y0343749D01*
X0204384Y0343660D01*
X0204257Y0343573D01*
X0204128Y0343491D01*
X0203997Y0343411D01*
X0203864Y0343335D01*
X0203729Y0343262D01*
X0203592Y0343193D01*
X0203453Y0343128D01*
X0203313Y0343066D01*
X0203171Y0343008D01*
X0203028Y0342953D01*
X0202883Y0342902D01*
X0202737Y0342855D01*
X0202590Y0342812D01*
X0202442Y0342773D01*
X0202293Y0342737D01*
X0202143Y0342706D01*
X0201992Y0342678D01*
X0201841Y0342654D01*
X0201688Y0342634D01*
X0201536Y0342618D01*
X0201383Y0342606D01*
X0201230Y0342598D01*
X0201077Y0342594D01*
X0200923Y0342594D01*
X0200770Y0342598D01*
X0200617Y0342606D01*
X0200464Y0342618D01*
X0200312Y0342634D01*
X0200159Y0342654D01*
X0200008Y0342678D01*
X0199857Y0342706D01*
X0199707Y0342737D01*
X0199558Y0342773D01*
X0199410Y0342812D01*
X0199263Y0342855D01*
X0199117Y0342902D01*
X0198972Y0342953D01*
X0198829Y0343008D01*
X0198687Y0343066D01*
X0198547Y0343128D01*
X0198408Y0343193D01*
X0198271Y0343262D01*
X0198136Y0343335D01*
X0198003Y0343411D01*
X0197872Y0343491D01*
X0197743Y0343573D01*
X0197616Y0343660D01*
X0197491Y0343749D01*
X0197369Y0343842D01*
X0197250Y0343938D01*
X0197132Y0344037D01*
X0197018Y0344138D01*
X0196906Y0344243D01*
X0196797Y0344351D01*
X0196691Y0344462D01*
X0196587Y0344575D01*
X0196487Y0344691D01*
X0196389Y0344809D01*
X0196295Y0344930D01*
X0196204Y0345053D01*
X0196116Y0345179D01*
X0196032Y0345307D01*
X0195950Y0345437D01*
X0195873Y0345569D01*
X0195798Y0345703D01*
X0195727Y0345839D01*
X0195660Y0345977D01*
X0195596Y0346117D01*
X0195536Y0346258D01*
X0195480Y0346400D01*
X0195427Y0346544D01*
X0195378Y0346690D01*
X0195333Y0346836D01*
X0195292Y0346984D01*
X0195255Y0347132D01*
X0195221Y0347282D01*
X0195191Y0347433D01*
X0195166Y0347584D01*
X0195144Y0347735D01*
X0195126Y0347888D01*
X0195112Y0348040D01*
X0195102Y0348193D01*
X0195096Y0348347D01*
X0195094Y0348500D01*
X0050094Y0348500D02*
X0050096Y0348653D01*
X0050102Y0348807D01*
X0050112Y0348960D01*
X0050126Y0349112D01*
X0050144Y0349265D01*
X0050166Y0349416D01*
X0050191Y0349567D01*
X0050221Y0349718D01*
X0050255Y0349868D01*
X0050292Y0350016D01*
X0050333Y0350164D01*
X0050378Y0350310D01*
X0050427Y0350456D01*
X0050480Y0350600D01*
X0050536Y0350742D01*
X0050596Y0350883D01*
X0050660Y0351023D01*
X0050727Y0351161D01*
X0050798Y0351297D01*
X0050873Y0351431D01*
X0050950Y0351563D01*
X0051032Y0351693D01*
X0051116Y0351821D01*
X0051204Y0351947D01*
X0051295Y0352070D01*
X0051389Y0352191D01*
X0051487Y0352309D01*
X0051587Y0352425D01*
X0051691Y0352538D01*
X0051797Y0352649D01*
X0051906Y0352757D01*
X0052018Y0352862D01*
X0052132Y0352963D01*
X0052250Y0353062D01*
X0052369Y0353158D01*
X0052491Y0353251D01*
X0052616Y0353340D01*
X0052743Y0353427D01*
X0052872Y0353509D01*
X0053003Y0353589D01*
X0053136Y0353665D01*
X0053271Y0353738D01*
X0053408Y0353807D01*
X0053547Y0353872D01*
X0053687Y0353934D01*
X0053829Y0353992D01*
X0053972Y0354047D01*
X0054117Y0354098D01*
X0054263Y0354145D01*
X0054410Y0354188D01*
X0054558Y0354227D01*
X0054707Y0354263D01*
X0054857Y0354294D01*
X0055008Y0354322D01*
X0055159Y0354346D01*
X0055312Y0354366D01*
X0055464Y0354382D01*
X0055617Y0354394D01*
X0055770Y0354402D01*
X0055923Y0354406D01*
X0056077Y0354406D01*
X0056230Y0354402D01*
X0056383Y0354394D01*
X0056536Y0354382D01*
X0056688Y0354366D01*
X0056841Y0354346D01*
X0056992Y0354322D01*
X0057143Y0354294D01*
X0057293Y0354263D01*
X0057442Y0354227D01*
X0057590Y0354188D01*
X0057737Y0354145D01*
X0057883Y0354098D01*
X0058028Y0354047D01*
X0058171Y0353992D01*
X0058313Y0353934D01*
X0058453Y0353872D01*
X0058592Y0353807D01*
X0058729Y0353738D01*
X0058864Y0353665D01*
X0058997Y0353589D01*
X0059128Y0353509D01*
X0059257Y0353427D01*
X0059384Y0353340D01*
X0059509Y0353251D01*
X0059631Y0353158D01*
X0059750Y0353062D01*
X0059868Y0352963D01*
X0059982Y0352862D01*
X0060094Y0352757D01*
X0060203Y0352649D01*
X0060309Y0352538D01*
X0060413Y0352425D01*
X0060513Y0352309D01*
X0060611Y0352191D01*
X0060705Y0352070D01*
X0060796Y0351947D01*
X0060884Y0351821D01*
X0060968Y0351693D01*
X0061050Y0351563D01*
X0061127Y0351431D01*
X0061202Y0351297D01*
X0061273Y0351161D01*
X0061340Y0351023D01*
X0061404Y0350883D01*
X0061464Y0350742D01*
X0061520Y0350600D01*
X0061573Y0350456D01*
X0061622Y0350310D01*
X0061667Y0350164D01*
X0061708Y0350016D01*
X0061745Y0349868D01*
X0061779Y0349718D01*
X0061809Y0349567D01*
X0061834Y0349416D01*
X0061856Y0349265D01*
X0061874Y0349112D01*
X0061888Y0348960D01*
X0061898Y0348807D01*
X0061904Y0348653D01*
X0061906Y0348500D01*
X0061904Y0348347D01*
X0061898Y0348193D01*
X0061888Y0348040D01*
X0061874Y0347888D01*
X0061856Y0347735D01*
X0061834Y0347584D01*
X0061809Y0347433D01*
X0061779Y0347282D01*
X0061745Y0347132D01*
X0061708Y0346984D01*
X0061667Y0346836D01*
X0061622Y0346690D01*
X0061573Y0346544D01*
X0061520Y0346400D01*
X0061464Y0346258D01*
X0061404Y0346117D01*
X0061340Y0345977D01*
X0061273Y0345839D01*
X0061202Y0345703D01*
X0061127Y0345569D01*
X0061050Y0345437D01*
X0060968Y0345307D01*
X0060884Y0345179D01*
X0060796Y0345053D01*
X0060705Y0344930D01*
X0060611Y0344809D01*
X0060513Y0344691D01*
X0060413Y0344575D01*
X0060309Y0344462D01*
X0060203Y0344351D01*
X0060094Y0344243D01*
X0059982Y0344138D01*
X0059868Y0344037D01*
X0059750Y0343938D01*
X0059631Y0343842D01*
X0059509Y0343749D01*
X0059384Y0343660D01*
X0059257Y0343573D01*
X0059128Y0343491D01*
X0058997Y0343411D01*
X0058864Y0343335D01*
X0058729Y0343262D01*
X0058592Y0343193D01*
X0058453Y0343128D01*
X0058313Y0343066D01*
X0058171Y0343008D01*
X0058028Y0342953D01*
X0057883Y0342902D01*
X0057737Y0342855D01*
X0057590Y0342812D01*
X0057442Y0342773D01*
X0057293Y0342737D01*
X0057143Y0342706D01*
X0056992Y0342678D01*
X0056841Y0342654D01*
X0056688Y0342634D01*
X0056536Y0342618D01*
X0056383Y0342606D01*
X0056230Y0342598D01*
X0056077Y0342594D01*
X0055923Y0342594D01*
X0055770Y0342598D01*
X0055617Y0342606D01*
X0055464Y0342618D01*
X0055312Y0342634D01*
X0055159Y0342654D01*
X0055008Y0342678D01*
X0054857Y0342706D01*
X0054707Y0342737D01*
X0054558Y0342773D01*
X0054410Y0342812D01*
X0054263Y0342855D01*
X0054117Y0342902D01*
X0053972Y0342953D01*
X0053829Y0343008D01*
X0053687Y0343066D01*
X0053547Y0343128D01*
X0053408Y0343193D01*
X0053271Y0343262D01*
X0053136Y0343335D01*
X0053003Y0343411D01*
X0052872Y0343491D01*
X0052743Y0343573D01*
X0052616Y0343660D01*
X0052491Y0343749D01*
X0052369Y0343842D01*
X0052250Y0343938D01*
X0052132Y0344037D01*
X0052018Y0344138D01*
X0051906Y0344243D01*
X0051797Y0344351D01*
X0051691Y0344462D01*
X0051587Y0344575D01*
X0051487Y0344691D01*
X0051389Y0344809D01*
X0051295Y0344930D01*
X0051204Y0345053D01*
X0051116Y0345179D01*
X0051032Y0345307D01*
X0050950Y0345437D01*
X0050873Y0345569D01*
X0050798Y0345703D01*
X0050727Y0345839D01*
X0050660Y0345977D01*
X0050596Y0346117D01*
X0050536Y0346258D01*
X0050480Y0346400D01*
X0050427Y0346544D01*
X0050378Y0346690D01*
X0050333Y0346836D01*
X0050292Y0346984D01*
X0050255Y0347132D01*
X0050221Y0347282D01*
X0050191Y0347433D01*
X0050166Y0347584D01*
X0050144Y0347735D01*
X0050126Y0347888D01*
X0050112Y0348040D01*
X0050102Y0348193D01*
X0050096Y0348347D01*
X0050094Y0348500D01*
D11*
X0063500Y0338500D02*
X0063500Y0333500D01*
X0066000Y0331000D01*
X0063500Y0328500D01*
X0063500Y0323500D01*
X0066000Y0321000D01*
X0063500Y0318500D01*
X0063500Y0313500D01*
X0066000Y0311000D01*
X0063500Y0308500D01*
X0063500Y0303500D01*
X0066000Y0301000D01*
X0063500Y0298500D01*
X0063500Y0293500D01*
X0066000Y0291000D01*
X0063500Y0288500D01*
X0063500Y0283500D01*
X0066000Y0281000D01*
X0063500Y0278500D01*
X0063500Y0273500D01*
X0066000Y0271000D01*
X0063500Y0268500D01*
X0063500Y0263500D01*
X0066000Y0261000D01*
X0063500Y0258500D01*
X0063500Y0253500D01*
X0066000Y0251000D01*
X0063500Y0248500D01*
X0063500Y0243500D01*
X0066000Y0241000D01*
X0063500Y0238500D01*
X0063500Y0233500D01*
X0066000Y0231000D01*
X0063500Y0228500D01*
X0063500Y0223500D01*
X0066000Y0221000D01*
X0063500Y0218500D01*
X0063500Y0213500D01*
X0066000Y0211000D01*
X0063500Y0208500D01*
X0063500Y0203500D01*
X0066000Y0201000D01*
X0063500Y0198500D01*
X0063500Y0193500D01*
X0066000Y0191000D01*
X0063500Y0188500D01*
X0063500Y0183500D01*
X0066000Y0181000D01*
X0063500Y0178500D01*
X0063500Y0173500D01*
X0066000Y0171000D01*
X0063500Y0168500D01*
X0063500Y0163500D01*
X0066000Y0161000D01*
X0063500Y0158500D01*
X0063500Y0153500D01*
X0066000Y0151000D01*
X0063500Y0148500D01*
X0063500Y0143500D01*
X0066000Y0141000D01*
X0063500Y0138500D01*
X0063500Y0133500D01*
X0066000Y0131000D01*
X0063500Y0128500D01*
X0063500Y0123500D01*
X0066000Y0121000D01*
X0063500Y0118500D01*
X0063500Y0113500D01*
X0066000Y0111000D01*
X0063500Y0108500D01*
X0063500Y0103500D01*
X0066000Y0101000D01*
X0063500Y0098500D01*
X0063500Y0093500D01*
X0066000Y0091000D01*
X0063500Y0088500D01*
X0063500Y0083500D01*
X0066000Y0081000D01*
X0063500Y0078500D01*
X0063500Y0073500D01*
X0066000Y0071000D01*
X0063500Y0068500D01*
X0063500Y0063500D01*
X0066000Y0061000D01*
X0063500Y0058500D01*
X0063500Y0053500D01*
X0066000Y0051000D01*
X0063500Y0048500D01*
X0063500Y0043500D01*
X0066000Y0041000D01*
X0071000Y0041000D01*
X0073500Y0043500D01*
X0076000Y0041000D01*
X0081000Y0041000D01*
X0083500Y0043500D01*
X0086000Y0041000D01*
X0091000Y0041000D01*
X0093500Y0043500D01*
X0096000Y0041000D01*
X0101000Y0041000D01*
X0103500Y0043500D01*
X0106000Y0041000D01*
X0111000Y0041000D01*
X0113500Y0043500D01*
X0113500Y0048500D01*
X0111000Y0051000D01*
X0106000Y0051000D01*
X0103500Y0048500D01*
X0103500Y0043500D01*
X0103500Y0048500D01*
X0101000Y0051000D01*
X0096000Y0051000D01*
X0093500Y0048500D01*
X0093500Y0043500D01*
X0093500Y0048500D01*
X0091000Y0051000D01*
X0086000Y0051000D01*
X0083500Y0048500D01*
X0083500Y0043500D01*
X0083500Y0048500D01*
X0081000Y0051000D01*
X0076000Y0051000D01*
X0073500Y0048500D01*
X0073500Y0043500D01*
X0073500Y0048500D01*
X0071000Y0051000D01*
X0066000Y0051000D01*
X0071000Y0051000D01*
X0073500Y0053500D01*
X0076000Y0051000D01*
X0081000Y0051000D01*
X0083500Y0053500D01*
X0086000Y0051000D01*
X0091000Y0051000D01*
X0093500Y0053500D01*
X0096000Y0051000D01*
X0101000Y0051000D01*
X0103500Y0053500D01*
X0106000Y0051000D01*
X0111000Y0051000D01*
X0113500Y0053500D01*
X0113500Y0058500D01*
X0111000Y0061000D01*
X0106000Y0061000D01*
X0103500Y0058500D01*
X0103500Y0053500D01*
X0103500Y0058500D01*
X0101000Y0061000D01*
X0096000Y0061000D01*
X0093500Y0058500D01*
X0093500Y0053500D01*
X0093500Y0058500D01*
X0091000Y0061000D01*
X0086000Y0061000D01*
X0083500Y0058500D01*
X0083500Y0053500D01*
X0083500Y0058500D01*
X0081000Y0061000D01*
X0076000Y0061000D01*
X0073500Y0058500D01*
X0073500Y0053500D01*
X0073500Y0058500D01*
X0071000Y0061000D01*
X0066000Y0061000D01*
X0071000Y0061000D01*
X0073500Y0063500D01*
X0076000Y0061000D01*
X0081000Y0061000D01*
X0083500Y0063500D01*
X0086000Y0061000D01*
X0091000Y0061000D01*
X0093500Y0063500D01*
X0096000Y0061000D01*
X0101000Y0061000D01*
X0103500Y0063500D01*
X0106000Y0061000D01*
X0111000Y0061000D01*
X0113500Y0063500D01*
X0113500Y0068500D01*
X0111000Y0071000D01*
X0106000Y0071000D01*
X0103500Y0068500D01*
X0103500Y0063500D01*
X0103500Y0068500D01*
X0101000Y0071000D01*
X0096000Y0071000D01*
X0093500Y0068500D01*
X0093500Y0063500D01*
X0093500Y0068500D01*
X0091000Y0071000D01*
X0086000Y0071000D01*
X0083500Y0068500D01*
X0083500Y0063500D01*
X0083500Y0068500D01*
X0081000Y0071000D01*
X0076000Y0071000D01*
X0073500Y0068500D01*
X0073500Y0063500D01*
X0073500Y0068500D01*
X0071000Y0071000D01*
X0066000Y0071000D01*
X0071000Y0071000D01*
X0073500Y0073500D01*
X0076000Y0071000D01*
X0081000Y0071000D01*
X0083500Y0073500D01*
X0086000Y0071000D01*
X0091000Y0071000D01*
X0093500Y0073500D01*
X0096000Y0071000D01*
X0101000Y0071000D01*
X0103500Y0073500D01*
X0106000Y0071000D01*
X0111000Y0071000D01*
X0113500Y0073500D01*
X0113500Y0078500D01*
X0111000Y0081000D01*
X0106000Y0081000D01*
X0103500Y0078500D01*
X0103500Y0073500D01*
X0103500Y0078500D01*
X0101000Y0081000D01*
X0096000Y0081000D01*
X0093500Y0078500D01*
X0093500Y0073500D01*
X0093500Y0078500D01*
X0091000Y0081000D01*
X0086000Y0081000D01*
X0083500Y0078500D01*
X0083500Y0073500D01*
X0083500Y0078500D01*
X0081000Y0081000D01*
X0076000Y0081000D01*
X0073500Y0078500D01*
X0073500Y0073500D01*
X0073500Y0078500D01*
X0071000Y0081000D01*
X0066000Y0081000D01*
X0071000Y0081000D01*
X0073500Y0083500D01*
X0076000Y0081000D01*
X0081000Y0081000D01*
X0083500Y0083500D01*
X0086000Y0081000D01*
X0091000Y0081000D01*
X0093500Y0083500D01*
X0096000Y0081000D01*
X0101000Y0081000D01*
X0103500Y0083500D01*
X0106000Y0081000D01*
X0111000Y0081000D01*
X0113500Y0083500D01*
X0113500Y0088500D01*
X0111000Y0091000D01*
X0106000Y0091000D01*
X0103500Y0088500D01*
X0103500Y0083500D01*
X0103500Y0088500D01*
X0101000Y0091000D01*
X0096000Y0091000D01*
X0093500Y0088500D01*
X0093500Y0083500D01*
X0093500Y0088500D01*
X0091000Y0091000D01*
X0086000Y0091000D01*
X0083500Y0088500D01*
X0083500Y0083500D01*
X0083500Y0088500D01*
X0081000Y0091000D01*
X0076000Y0091000D01*
X0073500Y0088500D01*
X0073500Y0083500D01*
X0073500Y0088500D01*
X0071000Y0091000D01*
X0066000Y0091000D01*
X0071000Y0091000D01*
X0073500Y0093500D01*
X0076000Y0091000D01*
X0081000Y0091000D01*
X0083500Y0093500D01*
X0086000Y0091000D01*
X0091000Y0091000D01*
X0093500Y0093500D01*
X0096000Y0091000D01*
X0101000Y0091000D01*
X0103500Y0093500D01*
X0106000Y0091000D01*
X0111000Y0091000D01*
X0113500Y0093500D01*
X0113500Y0098500D01*
X0111000Y0101000D01*
X0106000Y0101000D01*
X0103500Y0098500D01*
X0103500Y0093500D01*
X0103500Y0098500D01*
X0101000Y0101000D01*
X0096000Y0101000D01*
X0093500Y0098500D01*
X0093500Y0093500D01*
X0093500Y0098500D01*
X0091000Y0101000D01*
X0086000Y0101000D01*
X0083500Y0098500D01*
X0083500Y0093500D01*
X0083500Y0098500D01*
X0081000Y0101000D01*
X0076000Y0101000D01*
X0073500Y0098500D01*
X0073500Y0093500D01*
X0073500Y0098500D01*
X0071000Y0101000D01*
X0066000Y0101000D01*
X0071000Y0101000D01*
X0073500Y0103500D01*
X0076000Y0101000D01*
X0081000Y0101000D01*
X0083500Y0103500D01*
X0086000Y0101000D01*
X0091000Y0101000D01*
X0093500Y0103500D01*
X0096000Y0101000D01*
X0101000Y0101000D01*
X0103500Y0103500D01*
X0106000Y0101000D01*
X0111000Y0101000D01*
X0113500Y0103500D01*
X0113500Y0108500D01*
X0111000Y0111000D01*
X0106000Y0111000D01*
X0103500Y0108500D01*
X0103500Y0103500D01*
X0103500Y0108500D01*
X0101000Y0111000D01*
X0096000Y0111000D01*
X0093500Y0108500D01*
X0093500Y0103500D01*
X0093500Y0108500D01*
X0091000Y0111000D01*
X0086000Y0111000D01*
X0083500Y0108500D01*
X0083500Y0103500D01*
X0083500Y0108500D01*
X0081000Y0111000D01*
X0076000Y0111000D01*
X0073500Y0108500D01*
X0073500Y0103500D01*
X0073500Y0108500D01*
X0071000Y0111000D01*
X0066000Y0111000D01*
X0071000Y0111000D01*
X0073500Y0113500D01*
X0076000Y0111000D01*
X0081000Y0111000D01*
X0083500Y0113500D01*
X0086000Y0111000D01*
X0091000Y0111000D01*
X0093500Y0113500D01*
X0096000Y0111000D01*
X0101000Y0111000D01*
X0103500Y0113500D01*
X0106000Y0111000D01*
X0111000Y0111000D01*
X0113500Y0113500D01*
X0113500Y0118500D01*
X0111000Y0121000D01*
X0106000Y0121000D01*
X0103500Y0118500D01*
X0103500Y0113500D01*
X0103500Y0118500D01*
X0101000Y0121000D01*
X0096000Y0121000D01*
X0093500Y0118500D01*
X0093500Y0113500D01*
X0093500Y0118500D01*
X0091000Y0121000D01*
X0086000Y0121000D01*
X0083500Y0118500D01*
X0083500Y0113500D01*
X0083500Y0118500D01*
X0081000Y0121000D01*
X0076000Y0121000D01*
X0073500Y0118500D01*
X0073500Y0113500D01*
X0073500Y0118500D01*
X0071000Y0121000D01*
X0066000Y0121000D01*
X0071000Y0121000D01*
X0073500Y0123500D01*
X0076000Y0121000D01*
X0081000Y0121000D01*
X0083500Y0123500D01*
X0086000Y0121000D01*
X0091000Y0121000D01*
X0093500Y0123500D01*
X0096000Y0121000D01*
X0101000Y0121000D01*
X0103500Y0123500D01*
X0106000Y0121000D01*
X0111000Y0121000D01*
X0113500Y0123500D01*
X0113500Y0128500D01*
X0111000Y0131000D01*
X0106000Y0131000D01*
X0103500Y0128500D01*
X0103500Y0123500D01*
X0103500Y0128500D01*
X0101000Y0131000D01*
X0096000Y0131000D01*
X0093500Y0128500D01*
X0093500Y0123500D01*
X0093500Y0128500D01*
X0091000Y0131000D01*
X0086000Y0131000D01*
X0083500Y0128500D01*
X0083500Y0123500D01*
X0083500Y0128500D01*
X0081000Y0131000D01*
X0076000Y0131000D01*
X0073500Y0128500D01*
X0073500Y0123500D01*
X0073500Y0128500D01*
X0071000Y0131000D01*
X0066000Y0131000D01*
X0071000Y0131000D01*
X0073500Y0133500D01*
X0076000Y0131000D01*
X0081000Y0131000D01*
X0083500Y0133500D01*
X0086000Y0131000D01*
X0091000Y0131000D01*
X0093500Y0133500D01*
X0096000Y0131000D01*
X0101000Y0131000D01*
X0103500Y0133500D01*
X0106000Y0131000D01*
X0111000Y0131000D01*
X0113500Y0133500D01*
X0113500Y0138500D01*
X0111000Y0141000D01*
X0106000Y0141000D01*
X0103500Y0138500D01*
X0103500Y0133500D01*
X0103500Y0138500D01*
X0101000Y0141000D01*
X0096000Y0141000D01*
X0093500Y0138500D01*
X0093500Y0133500D01*
X0093500Y0138500D01*
X0091000Y0141000D01*
X0086000Y0141000D01*
X0083500Y0138500D01*
X0083500Y0133500D01*
X0083500Y0138500D01*
X0081000Y0141000D01*
X0076000Y0141000D01*
X0073500Y0138500D01*
X0073500Y0133500D01*
X0073500Y0138500D01*
X0071000Y0141000D01*
X0066000Y0141000D01*
X0071000Y0141000D01*
X0073500Y0143500D01*
X0076000Y0141000D01*
X0081000Y0141000D01*
X0083500Y0143500D01*
X0086000Y0141000D01*
X0091000Y0141000D01*
X0093500Y0143500D01*
X0096000Y0141000D01*
X0101000Y0141000D01*
X0103500Y0143500D01*
X0106000Y0141000D01*
X0111000Y0141000D01*
X0113500Y0143500D01*
X0113500Y0148500D01*
X0111000Y0151000D01*
X0106000Y0151000D01*
X0103500Y0148500D01*
X0103500Y0143500D01*
X0103500Y0148500D01*
X0101000Y0151000D01*
X0096000Y0151000D01*
X0093500Y0148500D01*
X0093500Y0143500D01*
X0093500Y0148500D01*
X0091000Y0151000D01*
X0086000Y0151000D01*
X0083500Y0148500D01*
X0083500Y0143500D01*
X0083500Y0148500D01*
X0081000Y0151000D01*
X0076000Y0151000D01*
X0073500Y0148500D01*
X0073500Y0143500D01*
X0073500Y0148500D01*
X0071000Y0151000D01*
X0066000Y0151000D01*
X0071000Y0151000D01*
X0073500Y0153500D01*
X0076000Y0151000D01*
X0081000Y0151000D01*
X0083500Y0153500D01*
X0086000Y0151000D01*
X0091000Y0151000D01*
X0093500Y0153500D01*
X0096000Y0151000D01*
X0101000Y0151000D01*
X0103500Y0153500D01*
X0106000Y0151000D01*
X0111000Y0151000D01*
X0113500Y0153500D01*
X0113500Y0158500D01*
X0111000Y0161000D01*
X0106000Y0161000D01*
X0103500Y0158500D01*
X0103500Y0153500D01*
X0103500Y0158500D01*
X0101000Y0161000D01*
X0096000Y0161000D01*
X0093500Y0158500D01*
X0093500Y0153500D01*
X0093500Y0158500D01*
X0091000Y0161000D01*
X0086000Y0161000D01*
X0083500Y0158500D01*
X0083500Y0153500D01*
X0083500Y0158500D01*
X0081000Y0161000D01*
X0076000Y0161000D01*
X0073500Y0158500D01*
X0073500Y0153500D01*
X0073500Y0158500D01*
X0071000Y0161000D01*
X0066000Y0161000D01*
X0071000Y0161000D01*
X0073500Y0163500D01*
X0076000Y0161000D01*
X0081000Y0161000D01*
X0083500Y0163500D01*
X0086000Y0161000D01*
X0091000Y0161000D01*
X0093500Y0163500D01*
X0096000Y0161000D01*
X0101000Y0161000D01*
X0103500Y0163500D01*
X0106000Y0161000D01*
X0111000Y0161000D01*
X0113500Y0163500D01*
X0113500Y0168500D01*
X0111000Y0171000D01*
X0106000Y0171000D01*
X0103500Y0168500D01*
X0103500Y0163500D01*
X0103500Y0168500D01*
X0101000Y0171000D01*
X0096000Y0171000D01*
X0093500Y0168500D01*
X0093500Y0163500D01*
X0093500Y0168500D01*
X0091000Y0171000D01*
X0086000Y0171000D01*
X0083500Y0168500D01*
X0083500Y0163500D01*
X0083500Y0168500D01*
X0081000Y0171000D01*
X0076000Y0171000D01*
X0073500Y0168500D01*
X0073500Y0163500D01*
X0073500Y0168500D01*
X0071000Y0171000D01*
X0066000Y0171000D01*
X0071000Y0171000D01*
X0073500Y0173500D01*
X0076000Y0171000D01*
X0081000Y0171000D01*
X0083500Y0173500D01*
X0086000Y0171000D01*
X0091000Y0171000D01*
X0093500Y0173500D01*
X0096000Y0171000D01*
X0101000Y0171000D01*
X0103500Y0173500D01*
X0106000Y0171000D01*
X0111000Y0171000D01*
X0113500Y0173500D01*
X0113500Y0178500D01*
X0111000Y0181000D01*
X0106000Y0181000D01*
X0103500Y0178500D01*
X0103500Y0173500D01*
X0103500Y0178500D01*
X0101000Y0181000D01*
X0096000Y0181000D01*
X0093500Y0178500D01*
X0093500Y0173500D01*
X0093500Y0178500D01*
X0091000Y0181000D01*
X0086000Y0181000D01*
X0083500Y0178500D01*
X0083500Y0173500D01*
X0083500Y0178500D01*
X0081000Y0181000D01*
X0076000Y0181000D01*
X0073500Y0178500D01*
X0073500Y0173500D01*
X0073500Y0178500D01*
X0071000Y0181000D01*
X0066000Y0181000D01*
X0071000Y0181000D01*
X0073500Y0183500D01*
X0076000Y0181000D01*
X0081000Y0181000D01*
X0083500Y0183500D01*
X0086000Y0181000D01*
X0091000Y0181000D01*
X0093500Y0183500D01*
X0096000Y0181000D01*
X0101000Y0181000D01*
X0103500Y0183500D01*
X0106000Y0181000D01*
X0111000Y0181000D01*
X0113500Y0183500D01*
X0113500Y0188500D01*
X0111000Y0191000D01*
X0106000Y0191000D01*
X0103500Y0188500D01*
X0103500Y0183500D01*
X0103500Y0188500D01*
X0101000Y0191000D01*
X0096000Y0191000D01*
X0093500Y0188500D01*
X0093500Y0183500D01*
X0093500Y0188500D01*
X0091000Y0191000D01*
X0086000Y0191000D01*
X0083500Y0188500D01*
X0083500Y0183500D01*
X0083500Y0188500D01*
X0081000Y0191000D01*
X0076000Y0191000D01*
X0073500Y0188500D01*
X0073500Y0183500D01*
X0073500Y0188500D01*
X0071000Y0191000D01*
X0066000Y0191000D01*
X0071000Y0191000D01*
X0073500Y0193500D01*
X0076000Y0191000D01*
X0081000Y0191000D01*
X0083500Y0193500D01*
X0086000Y0191000D01*
X0091000Y0191000D01*
X0093500Y0193500D01*
X0096000Y0191000D01*
X0101000Y0191000D01*
X0103500Y0193500D01*
X0106000Y0191000D01*
X0111000Y0191000D01*
X0113500Y0193500D01*
X0113500Y0198500D01*
X0111000Y0201000D01*
X0106000Y0201000D01*
X0103500Y0198500D01*
X0103500Y0193500D01*
X0103500Y0198500D01*
X0101000Y0201000D01*
X0096000Y0201000D01*
X0093500Y0198500D01*
X0093500Y0193500D01*
X0093500Y0198500D01*
X0091000Y0201000D01*
X0086000Y0201000D01*
X0083500Y0198500D01*
X0083500Y0193500D01*
X0083500Y0198500D01*
X0081000Y0201000D01*
X0076000Y0201000D01*
X0073500Y0198500D01*
X0073500Y0193500D01*
X0073500Y0198500D01*
X0071000Y0201000D01*
X0066000Y0201000D01*
X0071000Y0201000D01*
X0073500Y0203500D01*
X0076000Y0201000D01*
X0081000Y0201000D01*
X0083500Y0203500D01*
X0086000Y0201000D01*
X0091000Y0201000D01*
X0093500Y0203500D01*
X0096000Y0201000D01*
X0101000Y0201000D01*
X0103500Y0203500D01*
X0106000Y0201000D01*
X0111000Y0201000D01*
X0113500Y0203500D01*
X0113500Y0208500D01*
X0111000Y0211000D01*
X0106000Y0211000D01*
X0103500Y0208500D01*
X0103500Y0203500D01*
X0103500Y0208500D01*
X0101000Y0211000D01*
X0096000Y0211000D01*
X0093500Y0208500D01*
X0093500Y0203500D01*
X0093500Y0208500D01*
X0091000Y0211000D01*
X0086000Y0211000D01*
X0083500Y0208500D01*
X0083500Y0203500D01*
X0083500Y0208500D01*
X0081000Y0211000D01*
X0076000Y0211000D01*
X0073500Y0208500D01*
X0073500Y0203500D01*
X0073500Y0208500D01*
X0071000Y0211000D01*
X0066000Y0211000D01*
X0071000Y0211000D01*
X0073500Y0213500D01*
X0076000Y0211000D01*
X0081000Y0211000D01*
X0083500Y0213500D01*
X0086000Y0211000D01*
X0091000Y0211000D01*
X0093500Y0213500D01*
X0096000Y0211000D01*
X0101000Y0211000D01*
X0103500Y0213500D01*
X0106000Y0211000D01*
X0111000Y0211000D01*
X0113500Y0213500D01*
X0113500Y0218500D01*
X0111000Y0221000D01*
X0106000Y0221000D01*
X0103500Y0218500D01*
X0103500Y0213500D01*
X0103500Y0218500D01*
X0101000Y0221000D01*
X0096000Y0221000D01*
X0093500Y0218500D01*
X0093500Y0213500D01*
X0093500Y0218500D01*
X0091000Y0221000D01*
X0086000Y0221000D01*
X0083500Y0218500D01*
X0083500Y0213500D01*
X0083500Y0218500D01*
X0081000Y0221000D01*
X0076000Y0221000D01*
X0073500Y0218500D01*
X0073500Y0213500D01*
X0073500Y0218500D01*
X0071000Y0221000D01*
X0066000Y0221000D01*
X0071000Y0221000D01*
X0073500Y0223500D01*
X0076000Y0221000D01*
X0081000Y0221000D01*
X0083500Y0223500D01*
X0086000Y0221000D01*
X0091000Y0221000D01*
X0093500Y0223500D01*
X0096000Y0221000D01*
X0101000Y0221000D01*
X0103500Y0223500D01*
X0106000Y0221000D01*
X0111000Y0221000D01*
X0113500Y0223500D01*
X0113500Y0228500D01*
X0111000Y0231000D01*
X0106000Y0231000D01*
X0103500Y0228500D01*
X0103500Y0223500D01*
X0103500Y0228500D01*
X0101000Y0231000D01*
X0096000Y0231000D01*
X0093500Y0228500D01*
X0093500Y0223500D01*
X0093500Y0228500D01*
X0091000Y0231000D01*
X0086000Y0231000D01*
X0083500Y0228500D01*
X0083500Y0223500D01*
X0083500Y0228500D01*
X0081000Y0231000D01*
X0076000Y0231000D01*
X0073500Y0228500D01*
X0073500Y0223500D01*
X0073500Y0228500D01*
X0071000Y0231000D01*
X0066000Y0231000D01*
X0071000Y0231000D01*
X0073500Y0233500D01*
X0076000Y0231000D01*
X0081000Y0231000D01*
X0083500Y0233500D01*
X0086000Y0231000D01*
X0091000Y0231000D01*
X0093500Y0233500D01*
X0096000Y0231000D01*
X0101000Y0231000D01*
X0103500Y0233500D01*
X0106000Y0231000D01*
X0111000Y0231000D01*
X0113500Y0233500D01*
X0113500Y0238500D01*
X0111000Y0241000D01*
X0106000Y0241000D01*
X0103500Y0238500D01*
X0103500Y0233500D01*
X0103500Y0238500D01*
X0101000Y0241000D01*
X0096000Y0241000D01*
X0093500Y0238500D01*
X0093500Y0233500D01*
X0093500Y0238500D01*
X0091000Y0241000D01*
X0086000Y0241000D01*
X0083500Y0238500D01*
X0083500Y0233500D01*
X0083500Y0238500D01*
X0081000Y0241000D01*
X0076000Y0241000D01*
X0073500Y0238500D01*
X0073500Y0233500D01*
X0073500Y0238500D01*
X0071000Y0241000D01*
X0066000Y0241000D01*
X0071000Y0241000D01*
X0073500Y0243500D01*
X0076000Y0241000D01*
X0081000Y0241000D01*
X0083500Y0243500D01*
X0086000Y0241000D01*
X0091000Y0241000D01*
X0093500Y0243500D01*
X0096000Y0241000D01*
X0101000Y0241000D01*
X0103500Y0243500D01*
X0106000Y0241000D01*
X0111000Y0241000D01*
X0113500Y0243500D01*
X0113500Y0248500D01*
X0111000Y0251000D01*
X0106000Y0251000D01*
X0103500Y0248500D01*
X0103500Y0243500D01*
X0103500Y0248500D01*
X0101000Y0251000D01*
X0096000Y0251000D01*
X0093500Y0248500D01*
X0093500Y0243500D01*
X0093500Y0248500D01*
X0091000Y0251000D01*
X0086000Y0251000D01*
X0083500Y0248500D01*
X0083500Y0243500D01*
X0083500Y0248500D01*
X0081000Y0251000D01*
X0076000Y0251000D01*
X0073500Y0248500D01*
X0073500Y0243500D01*
X0073500Y0248500D01*
X0071000Y0251000D01*
X0066000Y0251000D01*
X0071000Y0251000D01*
X0073500Y0253500D01*
X0076000Y0251000D01*
X0081000Y0251000D01*
X0083500Y0253500D01*
X0086000Y0251000D01*
X0091000Y0251000D01*
X0093500Y0253500D01*
X0096000Y0251000D01*
X0101000Y0251000D01*
X0103500Y0253500D01*
X0106000Y0251000D01*
X0111000Y0251000D01*
X0113500Y0253500D01*
X0113500Y0258500D01*
X0111000Y0261000D01*
X0106000Y0261000D01*
X0103500Y0258500D01*
X0103500Y0253500D01*
X0103500Y0258500D01*
X0101000Y0261000D01*
X0096000Y0261000D01*
X0093500Y0258500D01*
X0093500Y0253500D01*
X0093500Y0258500D01*
X0091000Y0261000D01*
X0086000Y0261000D01*
X0083500Y0258500D01*
X0083500Y0253500D01*
X0083500Y0258500D01*
X0081000Y0261000D01*
X0076000Y0261000D01*
X0073500Y0258500D01*
X0073500Y0253500D01*
X0073500Y0258500D01*
X0071000Y0261000D01*
X0066000Y0261000D01*
X0071000Y0261000D01*
X0073500Y0263500D01*
X0076000Y0261000D01*
X0081000Y0261000D01*
X0083500Y0263500D01*
X0086000Y0261000D01*
X0091000Y0261000D01*
X0093500Y0263500D01*
X0096000Y0261000D01*
X0101000Y0261000D01*
X0103500Y0263500D01*
X0106000Y0261000D01*
X0111000Y0261000D01*
X0113500Y0263500D01*
X0113500Y0268500D01*
X0111000Y0271000D01*
X0106000Y0271000D01*
X0103500Y0268500D01*
X0103500Y0263500D01*
X0103500Y0268500D01*
X0101000Y0271000D01*
X0096000Y0271000D01*
X0093500Y0268500D01*
X0093500Y0263500D01*
X0093500Y0268500D01*
X0091000Y0271000D01*
X0086000Y0271000D01*
X0083500Y0268500D01*
X0083500Y0263500D01*
X0083500Y0268500D01*
X0081000Y0271000D01*
X0076000Y0271000D01*
X0073500Y0268500D01*
X0073500Y0263500D01*
X0073500Y0268500D01*
X0071000Y0271000D01*
X0066000Y0271000D01*
X0071000Y0271000D01*
X0073500Y0273500D01*
X0076000Y0271000D01*
X0081000Y0271000D01*
X0083500Y0273500D01*
X0086000Y0271000D01*
X0091000Y0271000D01*
X0093500Y0273500D01*
X0096000Y0271000D01*
X0101000Y0271000D01*
X0103500Y0273500D01*
X0106000Y0271000D01*
X0111000Y0271000D01*
X0113500Y0273500D01*
X0113500Y0278500D01*
X0111000Y0281000D01*
X0106000Y0281000D01*
X0103500Y0278500D01*
X0103500Y0273500D01*
X0103500Y0278500D01*
X0101000Y0281000D01*
X0096000Y0281000D01*
X0093500Y0278500D01*
X0093500Y0273500D01*
X0093500Y0278500D01*
X0091000Y0281000D01*
X0086000Y0281000D01*
X0083500Y0278500D01*
X0083500Y0273500D01*
X0083500Y0278500D01*
X0081000Y0281000D01*
X0076000Y0281000D01*
X0073500Y0278500D01*
X0073500Y0273500D01*
X0073500Y0278500D01*
X0071000Y0281000D01*
X0066000Y0281000D01*
X0071000Y0281000D01*
X0073500Y0283500D01*
X0076000Y0281000D01*
X0081000Y0281000D01*
X0083500Y0283500D01*
X0086000Y0281000D01*
X0091000Y0281000D01*
X0093500Y0283500D01*
X0096000Y0281000D01*
X0101000Y0281000D01*
X0103500Y0283500D01*
X0106000Y0281000D01*
X0111000Y0281000D01*
X0113500Y0283500D01*
X0113500Y0288500D01*
X0111000Y0291000D01*
X0106000Y0291000D01*
X0103500Y0288500D01*
X0103500Y0283500D01*
X0103500Y0288500D01*
X0101000Y0291000D01*
X0096000Y0291000D01*
X0093500Y0288500D01*
X0093500Y0283500D01*
X0093500Y0288500D01*
X0091000Y0291000D01*
X0086000Y0291000D01*
X0083500Y0288500D01*
X0083500Y0283500D01*
X0083500Y0288500D01*
X0081000Y0291000D01*
X0076000Y0291000D01*
X0073500Y0288500D01*
X0073500Y0283500D01*
X0073500Y0288500D01*
X0071000Y0291000D01*
X0066000Y0291000D01*
X0071000Y0291000D01*
X0073500Y0293500D01*
X0076000Y0291000D01*
X0081000Y0291000D01*
X0083500Y0293500D01*
X0086000Y0291000D01*
X0091000Y0291000D01*
X0093500Y0293500D01*
X0096000Y0291000D01*
X0101000Y0291000D01*
X0103500Y0293500D01*
X0106000Y0291000D01*
X0111000Y0291000D01*
X0113500Y0293500D01*
X0113500Y0298500D01*
X0111000Y0301000D01*
X0106000Y0301000D01*
X0103500Y0298500D01*
X0103500Y0293500D01*
X0103500Y0298500D01*
X0101000Y0301000D01*
X0096000Y0301000D01*
X0093500Y0298500D01*
X0093500Y0293500D01*
X0093500Y0298500D01*
X0091000Y0301000D01*
X0086000Y0301000D01*
X0083500Y0298500D01*
X0083500Y0293500D01*
X0083500Y0298500D01*
X0081000Y0301000D01*
X0076000Y0301000D01*
X0073500Y0298500D01*
X0073500Y0293500D01*
X0073500Y0298500D01*
X0071000Y0301000D01*
X0066000Y0301000D01*
X0071000Y0301000D01*
X0073500Y0303500D01*
X0076000Y0301000D01*
X0081000Y0301000D01*
X0083500Y0303500D01*
X0086000Y0301000D01*
X0091000Y0301000D01*
X0093500Y0303500D01*
X0096000Y0301000D01*
X0101000Y0301000D01*
X0103500Y0303500D01*
X0106000Y0301000D01*
X0111000Y0301000D01*
X0113500Y0303500D01*
X0113500Y0308500D01*
X0111000Y0311000D01*
X0106000Y0311000D01*
X0103500Y0308500D01*
X0103500Y0303500D01*
X0103500Y0308500D01*
X0101000Y0311000D01*
X0096000Y0311000D01*
X0093500Y0308500D01*
X0093500Y0303500D01*
X0093500Y0308500D01*
X0091000Y0311000D01*
X0086000Y0311000D01*
X0083500Y0308500D01*
X0083500Y0303500D01*
X0083500Y0308500D01*
X0081000Y0311000D01*
X0076000Y0311000D01*
X0073500Y0308500D01*
X0073500Y0303500D01*
X0073500Y0308500D01*
X0071000Y0311000D01*
X0066000Y0311000D01*
X0071000Y0311000D01*
X0073500Y0313500D01*
X0076000Y0311000D01*
X0081000Y0311000D01*
X0083500Y0313500D01*
X0086000Y0311000D01*
X0091000Y0311000D01*
X0093500Y0313500D01*
X0096000Y0311000D01*
X0101000Y0311000D01*
X0103500Y0313500D01*
X0106000Y0311000D01*
X0111000Y0311000D01*
X0113500Y0313500D01*
X0113500Y0318500D01*
X0111000Y0321000D01*
X0106000Y0321000D01*
X0103500Y0318500D01*
X0103500Y0313500D01*
X0103500Y0318500D01*
X0101000Y0321000D01*
X0096000Y0321000D01*
X0093500Y0318500D01*
X0093500Y0313500D01*
X0093500Y0318500D01*
X0091000Y0321000D01*
X0086000Y0321000D01*
X0083500Y0318500D01*
X0083500Y0313500D01*
X0083500Y0318500D01*
X0081000Y0321000D01*
X0076000Y0321000D01*
X0073500Y0318500D01*
X0073500Y0313500D01*
X0073500Y0318500D01*
X0071000Y0321000D01*
X0066000Y0321000D01*
X0071000Y0321000D01*
X0073500Y0323500D01*
X0076000Y0321000D01*
X0081000Y0321000D01*
X0083500Y0323500D01*
X0086000Y0321000D01*
X0091000Y0321000D01*
X0093500Y0323500D01*
X0096000Y0321000D01*
X0101000Y0321000D01*
X0103500Y0323500D01*
X0106000Y0321000D01*
X0111000Y0321000D01*
X0113500Y0323500D01*
X0113500Y0328500D01*
X0111000Y0331000D01*
X0106000Y0331000D01*
X0103500Y0328500D01*
X0103500Y0323500D01*
X0103500Y0328500D01*
X0101000Y0331000D01*
X0096000Y0331000D01*
X0093500Y0328500D01*
X0093500Y0323500D01*
X0093500Y0328500D01*
X0091000Y0331000D01*
X0086000Y0331000D01*
X0083500Y0328500D01*
X0083500Y0323500D01*
X0083500Y0328500D01*
X0081000Y0331000D01*
X0076000Y0331000D01*
X0073500Y0328500D01*
X0073500Y0323500D01*
X0073500Y0328500D01*
X0071000Y0331000D01*
X0066000Y0331000D01*
X0071000Y0331000D01*
X0073500Y0333500D01*
X0076000Y0331000D01*
X0081000Y0331000D01*
X0083500Y0333500D01*
X0086000Y0331000D01*
X0091000Y0331000D01*
X0093500Y0333500D01*
X0096000Y0331000D01*
X0101000Y0331000D01*
X0103500Y0333500D01*
X0106000Y0331000D01*
X0111000Y0331000D01*
X0113500Y0333500D01*
X0113500Y0338500D01*
X0111000Y0341000D01*
X0106000Y0341000D01*
X0103500Y0338500D01*
X0103500Y0333500D01*
X0103500Y0338500D01*
X0101000Y0341000D01*
X0096000Y0341000D01*
X0093500Y0338500D01*
X0093500Y0333500D01*
X0093500Y0338500D01*
X0091000Y0341000D01*
X0086000Y0341000D01*
X0083500Y0338500D01*
X0083500Y0333500D01*
X0083500Y0338500D01*
X0081000Y0341000D01*
X0076000Y0341000D01*
X0073500Y0338500D01*
X0073500Y0333500D01*
X0073500Y0338500D01*
X0071000Y0341000D01*
X0066000Y0341000D01*
X0063500Y0338500D01*
X0143500Y0338500D02*
X0143500Y0333500D01*
X0146000Y0331000D01*
X0143500Y0328500D01*
X0143500Y0323500D01*
X0146000Y0321000D01*
X0143500Y0318500D01*
X0143500Y0313500D01*
X0146000Y0311000D01*
X0143500Y0308500D01*
X0143500Y0303500D01*
X0146000Y0301000D01*
X0143500Y0298500D01*
X0143500Y0293500D01*
X0146000Y0291000D01*
X0143500Y0288500D01*
X0143500Y0283500D01*
X0146000Y0281000D01*
X0143500Y0278500D01*
X0143500Y0273500D01*
X0146000Y0271000D01*
X0143500Y0268500D01*
X0143500Y0263500D01*
X0146000Y0261000D01*
X0143500Y0258500D01*
X0143500Y0253500D01*
X0146000Y0251000D01*
X0143500Y0248500D01*
X0143500Y0243500D01*
X0146000Y0241000D01*
X0143500Y0238500D01*
X0143500Y0233500D01*
X0146000Y0231000D01*
X0143500Y0228500D01*
X0143500Y0223500D01*
X0146000Y0221000D01*
X0143500Y0218500D01*
X0143500Y0213500D01*
X0146000Y0211000D01*
X0143500Y0208500D01*
X0143500Y0203500D01*
X0146000Y0201000D01*
X0143500Y0198500D01*
X0143500Y0193500D01*
X0146000Y0191000D01*
X0143500Y0188500D01*
X0143500Y0183500D01*
X0146000Y0181000D01*
X0143500Y0178500D01*
X0143500Y0173500D01*
X0146000Y0171000D01*
X0143500Y0168500D01*
X0143500Y0163500D01*
X0146000Y0161000D01*
X0143500Y0158500D01*
X0143500Y0153500D01*
X0146000Y0151000D01*
X0143500Y0148500D01*
X0143500Y0143500D01*
X0146000Y0141000D01*
X0143500Y0138500D01*
X0143500Y0133500D01*
X0146000Y0131000D01*
X0143500Y0128500D01*
X0143500Y0123500D01*
X0146000Y0121000D01*
X0143500Y0118500D01*
X0143500Y0113500D01*
X0146000Y0111000D01*
X0143500Y0108500D01*
X0143500Y0103500D01*
X0146000Y0101000D01*
X0143500Y0098500D01*
X0143500Y0093500D01*
X0146000Y0091000D01*
X0143500Y0088500D01*
X0143500Y0083500D01*
X0146000Y0081000D01*
X0143500Y0078500D01*
X0143500Y0073500D01*
X0146000Y0071000D01*
X0143500Y0068500D01*
X0143500Y0063500D01*
X0146000Y0061000D01*
X0143500Y0058500D01*
X0143500Y0053500D01*
X0146000Y0051000D01*
X0143500Y0048500D01*
X0143500Y0043500D01*
X0146000Y0041000D01*
X0151000Y0041000D01*
X0153500Y0043500D01*
X0156000Y0041000D01*
X0161000Y0041000D01*
X0163500Y0043500D01*
X0166000Y0041000D01*
X0171000Y0041000D01*
X0173500Y0043500D01*
X0176000Y0041000D01*
X0181000Y0041000D01*
X0183500Y0043500D01*
X0186000Y0041000D01*
X0191000Y0041000D01*
X0193500Y0043500D01*
X0193500Y0048500D01*
X0191000Y0051000D01*
X0186000Y0051000D01*
X0183500Y0048500D01*
X0183500Y0043500D01*
X0183500Y0048500D01*
X0181000Y0051000D01*
X0176000Y0051000D01*
X0173500Y0048500D01*
X0173500Y0043500D01*
X0173500Y0048500D01*
X0171000Y0051000D01*
X0166000Y0051000D01*
X0163500Y0048500D01*
X0163500Y0043500D01*
X0163500Y0048500D01*
X0161000Y0051000D01*
X0156000Y0051000D01*
X0153500Y0048500D01*
X0153500Y0043500D01*
X0153500Y0048500D01*
X0151000Y0051000D01*
X0146000Y0051000D01*
X0151000Y0051000D01*
X0153500Y0053500D01*
X0156000Y0051000D01*
X0161000Y0051000D01*
X0163500Y0053500D01*
X0166000Y0051000D01*
X0171000Y0051000D01*
X0173500Y0053500D01*
X0176000Y0051000D01*
X0181000Y0051000D01*
X0183500Y0053500D01*
X0186000Y0051000D01*
X0191000Y0051000D01*
X0193500Y0053500D01*
X0193500Y0058500D01*
X0191000Y0061000D01*
X0186000Y0061000D01*
X0183500Y0058500D01*
X0183500Y0053500D01*
X0183500Y0058500D01*
X0181000Y0061000D01*
X0176000Y0061000D01*
X0173500Y0058500D01*
X0173500Y0053500D01*
X0173500Y0058500D01*
X0171000Y0061000D01*
X0166000Y0061000D01*
X0163500Y0058500D01*
X0163500Y0053500D01*
X0163500Y0058500D01*
X0161000Y0061000D01*
X0156000Y0061000D01*
X0153500Y0058500D01*
X0153500Y0053500D01*
X0153500Y0058500D01*
X0151000Y0061000D01*
X0146000Y0061000D01*
X0151000Y0061000D01*
X0153500Y0063500D01*
X0156000Y0061000D01*
X0161000Y0061000D01*
X0163500Y0063500D01*
X0166000Y0061000D01*
X0171000Y0061000D01*
X0173500Y0063500D01*
X0176000Y0061000D01*
X0181000Y0061000D01*
X0183500Y0063500D01*
X0186000Y0061000D01*
X0191000Y0061000D01*
X0193500Y0063500D01*
X0193500Y0068500D01*
X0191000Y0071000D01*
X0186000Y0071000D01*
X0183500Y0068500D01*
X0183500Y0063500D01*
X0183500Y0068500D01*
X0181000Y0071000D01*
X0176000Y0071000D01*
X0173500Y0068500D01*
X0173500Y0063500D01*
X0173500Y0068500D01*
X0171000Y0071000D01*
X0166000Y0071000D01*
X0163500Y0068500D01*
X0163500Y0063500D01*
X0163500Y0068500D01*
X0161000Y0071000D01*
X0156000Y0071000D01*
X0153500Y0068500D01*
X0153500Y0063500D01*
X0153500Y0068500D01*
X0151000Y0071000D01*
X0146000Y0071000D01*
X0151000Y0071000D01*
X0153500Y0073500D01*
X0156000Y0071000D01*
X0161000Y0071000D01*
X0163500Y0073500D01*
X0166000Y0071000D01*
X0171000Y0071000D01*
X0173500Y0073500D01*
X0176000Y0071000D01*
X0181000Y0071000D01*
X0183500Y0073500D01*
X0186000Y0071000D01*
X0191000Y0071000D01*
X0193500Y0073500D01*
X0193500Y0078500D01*
X0191000Y0081000D01*
X0186000Y0081000D01*
X0183500Y0078500D01*
X0183500Y0073500D01*
X0183500Y0078500D01*
X0181000Y0081000D01*
X0176000Y0081000D01*
X0173500Y0078500D01*
X0173500Y0073500D01*
X0173500Y0078500D01*
X0171000Y0081000D01*
X0166000Y0081000D01*
X0163500Y0078500D01*
X0163500Y0073500D01*
X0163500Y0078500D01*
X0161000Y0081000D01*
X0156000Y0081000D01*
X0153500Y0078500D01*
X0153500Y0073500D01*
X0153500Y0078500D01*
X0151000Y0081000D01*
X0146000Y0081000D01*
X0151000Y0081000D01*
X0153500Y0083500D01*
X0156000Y0081000D01*
X0161000Y0081000D01*
X0163500Y0083500D01*
X0166000Y0081000D01*
X0171000Y0081000D01*
X0173500Y0083500D01*
X0176000Y0081000D01*
X0181000Y0081000D01*
X0183500Y0083500D01*
X0186000Y0081000D01*
X0191000Y0081000D01*
X0193500Y0083500D01*
X0193500Y0088500D01*
X0191000Y0091000D01*
X0186000Y0091000D01*
X0183500Y0088500D01*
X0183500Y0083500D01*
X0183500Y0088500D01*
X0181000Y0091000D01*
X0176000Y0091000D01*
X0173500Y0088500D01*
X0173500Y0083500D01*
X0173500Y0088500D01*
X0171000Y0091000D01*
X0166000Y0091000D01*
X0163500Y0088500D01*
X0163500Y0083500D01*
X0163500Y0088500D01*
X0161000Y0091000D01*
X0156000Y0091000D01*
X0153500Y0088500D01*
X0153500Y0083500D01*
X0153500Y0088500D01*
X0151000Y0091000D01*
X0146000Y0091000D01*
X0151000Y0091000D01*
X0153500Y0093500D01*
X0156000Y0091000D01*
X0161000Y0091000D01*
X0163500Y0093500D01*
X0166000Y0091000D01*
X0171000Y0091000D01*
X0173500Y0093500D01*
X0176000Y0091000D01*
X0181000Y0091000D01*
X0183500Y0093500D01*
X0186000Y0091000D01*
X0191000Y0091000D01*
X0193500Y0093500D01*
X0193500Y0098500D01*
X0191000Y0101000D01*
X0186000Y0101000D01*
X0183500Y0098500D01*
X0183500Y0093500D01*
X0183500Y0098500D01*
X0181000Y0101000D01*
X0176000Y0101000D01*
X0173500Y0098500D01*
X0173500Y0093500D01*
X0173500Y0098500D01*
X0171000Y0101000D01*
X0166000Y0101000D01*
X0163500Y0098500D01*
X0163500Y0093500D01*
X0163500Y0098500D01*
X0161000Y0101000D01*
X0156000Y0101000D01*
X0153500Y0098500D01*
X0153500Y0093500D01*
X0153500Y0098500D01*
X0151000Y0101000D01*
X0146000Y0101000D01*
X0151000Y0101000D01*
X0153500Y0103500D01*
X0156000Y0101000D01*
X0161000Y0101000D01*
X0163500Y0103500D01*
X0166000Y0101000D01*
X0171000Y0101000D01*
X0173500Y0103500D01*
X0176000Y0101000D01*
X0181000Y0101000D01*
X0183500Y0103500D01*
X0186000Y0101000D01*
X0191000Y0101000D01*
X0193500Y0103500D01*
X0193500Y0108500D01*
X0191000Y0111000D01*
X0186000Y0111000D01*
X0183500Y0108500D01*
X0183500Y0103500D01*
X0183500Y0108500D01*
X0181000Y0111000D01*
X0176000Y0111000D01*
X0173500Y0108500D01*
X0173500Y0103500D01*
X0173500Y0108500D01*
X0171000Y0111000D01*
X0166000Y0111000D01*
X0163500Y0108500D01*
X0163500Y0103500D01*
X0163500Y0108500D01*
X0161000Y0111000D01*
X0156000Y0111000D01*
X0153500Y0108500D01*
X0153500Y0103500D01*
X0153500Y0108500D01*
X0151000Y0111000D01*
X0146000Y0111000D01*
X0151000Y0111000D01*
X0153500Y0113500D01*
X0156000Y0111000D01*
X0161000Y0111000D01*
X0163500Y0113500D01*
X0166000Y0111000D01*
X0171000Y0111000D01*
X0173500Y0113500D01*
X0176000Y0111000D01*
X0181000Y0111000D01*
X0183500Y0113500D01*
X0186000Y0111000D01*
X0191000Y0111000D01*
X0193500Y0113500D01*
X0193500Y0118500D01*
X0191000Y0121000D01*
X0186000Y0121000D01*
X0183500Y0118500D01*
X0183500Y0113500D01*
X0183500Y0118500D01*
X0181000Y0121000D01*
X0176000Y0121000D01*
X0173500Y0118500D01*
X0173500Y0113500D01*
X0173500Y0118500D01*
X0171000Y0121000D01*
X0166000Y0121000D01*
X0163500Y0118500D01*
X0163500Y0113500D01*
X0163500Y0118500D01*
X0161000Y0121000D01*
X0156000Y0121000D01*
X0153500Y0118500D01*
X0153500Y0113500D01*
X0153500Y0118500D01*
X0151000Y0121000D01*
X0146000Y0121000D01*
X0151000Y0121000D01*
X0153500Y0123500D01*
X0156000Y0121000D01*
X0161000Y0121000D01*
X0163500Y0123500D01*
X0166000Y0121000D01*
X0171000Y0121000D01*
X0173500Y0123500D01*
X0176000Y0121000D01*
X0181000Y0121000D01*
X0183500Y0123500D01*
X0186000Y0121000D01*
X0191000Y0121000D01*
X0193500Y0123500D01*
X0193500Y0128500D01*
X0191000Y0131000D01*
X0186000Y0131000D01*
X0183500Y0128500D01*
X0183500Y0123500D01*
X0183500Y0128500D01*
X0181000Y0131000D01*
X0176000Y0131000D01*
X0173500Y0128500D01*
X0173500Y0123500D01*
X0173500Y0128500D01*
X0171000Y0131000D01*
X0166000Y0131000D01*
X0163500Y0128500D01*
X0163500Y0123500D01*
X0163500Y0128500D01*
X0161000Y0131000D01*
X0156000Y0131000D01*
X0153500Y0128500D01*
X0153500Y0123500D01*
X0153500Y0128500D01*
X0151000Y0131000D01*
X0146000Y0131000D01*
X0151000Y0131000D01*
X0153500Y0133500D01*
X0156000Y0131000D01*
X0161000Y0131000D01*
X0163500Y0133500D01*
X0166000Y0131000D01*
X0171000Y0131000D01*
X0173500Y0133500D01*
X0176000Y0131000D01*
X0181000Y0131000D01*
X0183500Y0133500D01*
X0186000Y0131000D01*
X0191000Y0131000D01*
X0193500Y0133500D01*
X0193500Y0138500D01*
X0191000Y0141000D01*
X0186000Y0141000D01*
X0183500Y0138500D01*
X0183500Y0133500D01*
X0183500Y0138500D01*
X0181000Y0141000D01*
X0176000Y0141000D01*
X0173500Y0138500D01*
X0173500Y0133500D01*
X0173500Y0138500D01*
X0171000Y0141000D01*
X0166000Y0141000D01*
X0163500Y0138500D01*
X0163500Y0133500D01*
X0163500Y0138500D01*
X0161000Y0141000D01*
X0156000Y0141000D01*
X0153500Y0138500D01*
X0153500Y0133500D01*
X0153500Y0138500D01*
X0151000Y0141000D01*
X0146000Y0141000D01*
X0151000Y0141000D01*
X0153500Y0143500D01*
X0156000Y0141000D01*
X0161000Y0141000D01*
X0163500Y0143500D01*
X0166000Y0141000D01*
X0171000Y0141000D01*
X0173500Y0143500D01*
X0176000Y0141000D01*
X0181000Y0141000D01*
X0183500Y0143500D01*
X0186000Y0141000D01*
X0191000Y0141000D01*
X0193500Y0143500D01*
X0193500Y0148500D01*
X0191000Y0151000D01*
X0186000Y0151000D01*
X0183500Y0148500D01*
X0183500Y0143500D01*
X0183500Y0148500D01*
X0181000Y0151000D01*
X0176000Y0151000D01*
X0173500Y0148500D01*
X0173500Y0143500D01*
X0173500Y0148500D01*
X0171000Y0151000D01*
X0166000Y0151000D01*
X0163500Y0148500D01*
X0163500Y0143500D01*
X0163500Y0148500D01*
X0161000Y0151000D01*
X0156000Y0151000D01*
X0153500Y0148500D01*
X0153500Y0143500D01*
X0153500Y0148500D01*
X0151000Y0151000D01*
X0146000Y0151000D01*
X0151000Y0151000D01*
X0153500Y0153500D01*
X0156000Y0151000D01*
X0161000Y0151000D01*
X0163500Y0153500D01*
X0166000Y0151000D01*
X0171000Y0151000D01*
X0173500Y0153500D01*
X0176000Y0151000D01*
X0181000Y0151000D01*
X0183500Y0153500D01*
X0186000Y0151000D01*
X0191000Y0151000D01*
X0193500Y0153500D01*
X0193500Y0158500D01*
X0191000Y0161000D01*
X0186000Y0161000D01*
X0183500Y0158500D01*
X0183500Y0153500D01*
X0183500Y0158500D01*
X0181000Y0161000D01*
X0176000Y0161000D01*
X0173500Y0158500D01*
X0173500Y0153500D01*
X0173500Y0158500D01*
X0171000Y0161000D01*
X0166000Y0161000D01*
X0163500Y0158500D01*
X0163500Y0153500D01*
X0163500Y0158500D01*
X0161000Y0161000D01*
X0156000Y0161000D01*
X0153500Y0158500D01*
X0153500Y0153500D01*
X0153500Y0158500D01*
X0151000Y0161000D01*
X0146000Y0161000D01*
X0151000Y0161000D01*
X0153500Y0163500D01*
X0156000Y0161000D01*
X0161000Y0161000D01*
X0163500Y0163500D01*
X0166000Y0161000D01*
X0171000Y0161000D01*
X0173500Y0163500D01*
X0176000Y0161000D01*
X0181000Y0161000D01*
X0183500Y0163500D01*
X0186000Y0161000D01*
X0191000Y0161000D01*
X0193500Y0163500D01*
X0193500Y0168500D01*
X0191000Y0171000D01*
X0186000Y0171000D01*
X0183500Y0168500D01*
X0183500Y0163500D01*
X0183500Y0168500D01*
X0181000Y0171000D01*
X0176000Y0171000D01*
X0173500Y0168500D01*
X0173500Y0163500D01*
X0173500Y0168500D01*
X0171000Y0171000D01*
X0166000Y0171000D01*
X0163500Y0168500D01*
X0163500Y0163500D01*
X0163500Y0168500D01*
X0161000Y0171000D01*
X0156000Y0171000D01*
X0153500Y0168500D01*
X0153500Y0163500D01*
X0153500Y0168500D01*
X0151000Y0171000D01*
X0146000Y0171000D01*
X0151000Y0171000D01*
X0153500Y0173500D01*
X0156000Y0171000D01*
X0161000Y0171000D01*
X0163500Y0173500D01*
X0166000Y0171000D01*
X0171000Y0171000D01*
X0173500Y0173500D01*
X0176000Y0171000D01*
X0181000Y0171000D01*
X0183500Y0173500D01*
X0186000Y0171000D01*
X0191000Y0171000D01*
X0193500Y0173500D01*
X0193500Y0178500D01*
X0191000Y0181000D01*
X0186000Y0181000D01*
X0183500Y0178500D01*
X0183500Y0173500D01*
X0183500Y0178500D01*
X0181000Y0181000D01*
X0176000Y0181000D01*
X0173500Y0178500D01*
X0173500Y0173500D01*
X0173500Y0178500D01*
X0171000Y0181000D01*
X0166000Y0181000D01*
X0163500Y0178500D01*
X0163500Y0173500D01*
X0163500Y0178500D01*
X0161000Y0181000D01*
X0156000Y0181000D01*
X0153500Y0178500D01*
X0153500Y0173500D01*
X0153500Y0178500D01*
X0151000Y0181000D01*
X0146000Y0181000D01*
X0151000Y0181000D01*
X0153500Y0183500D01*
X0156000Y0181000D01*
X0161000Y0181000D01*
X0163500Y0183500D01*
X0166000Y0181000D01*
X0171000Y0181000D01*
X0173500Y0183500D01*
X0176000Y0181000D01*
X0181000Y0181000D01*
X0183500Y0183500D01*
X0186000Y0181000D01*
X0191000Y0181000D01*
X0193500Y0183500D01*
X0193500Y0188500D01*
X0191000Y0191000D01*
X0186000Y0191000D01*
X0183500Y0188500D01*
X0183500Y0183500D01*
X0183500Y0188500D01*
X0181000Y0191000D01*
X0176000Y0191000D01*
X0173500Y0188500D01*
X0173500Y0183500D01*
X0173500Y0188500D01*
X0171000Y0191000D01*
X0166000Y0191000D01*
X0163500Y0188500D01*
X0163500Y0183500D01*
X0163500Y0188500D01*
X0161000Y0191000D01*
X0156000Y0191000D01*
X0153500Y0188500D01*
X0153500Y0183500D01*
X0153500Y0188500D01*
X0151000Y0191000D01*
X0146000Y0191000D01*
X0151000Y0191000D01*
X0153500Y0193500D01*
X0156000Y0191000D01*
X0161000Y0191000D01*
X0163500Y0193500D01*
X0166000Y0191000D01*
X0171000Y0191000D01*
X0173500Y0193500D01*
X0176000Y0191000D01*
X0181000Y0191000D01*
X0183500Y0193500D01*
X0186000Y0191000D01*
X0191000Y0191000D01*
X0193500Y0193500D01*
X0193500Y0198500D01*
X0191000Y0201000D01*
X0186000Y0201000D01*
X0183500Y0198500D01*
X0183500Y0193500D01*
X0183500Y0198500D01*
X0181000Y0201000D01*
X0176000Y0201000D01*
X0173500Y0198500D01*
X0173500Y0193500D01*
X0173500Y0198500D01*
X0171000Y0201000D01*
X0166000Y0201000D01*
X0163500Y0198500D01*
X0163500Y0193500D01*
X0163500Y0198500D01*
X0161000Y0201000D01*
X0156000Y0201000D01*
X0153500Y0198500D01*
X0153500Y0193500D01*
X0153500Y0198500D01*
X0151000Y0201000D01*
X0146000Y0201000D01*
X0151000Y0201000D01*
X0153500Y0203500D01*
X0156000Y0201000D01*
X0161000Y0201000D01*
X0163500Y0203500D01*
X0166000Y0201000D01*
X0171000Y0201000D01*
X0173500Y0203500D01*
X0176000Y0201000D01*
X0181000Y0201000D01*
X0183500Y0203500D01*
X0186000Y0201000D01*
X0191000Y0201000D01*
X0193500Y0203500D01*
X0193500Y0208500D01*
X0191000Y0211000D01*
X0186000Y0211000D01*
X0183500Y0208500D01*
X0183500Y0203500D01*
X0183500Y0208500D01*
X0181000Y0211000D01*
X0176000Y0211000D01*
X0173500Y0208500D01*
X0173500Y0203500D01*
X0173500Y0208500D01*
X0171000Y0211000D01*
X0166000Y0211000D01*
X0163500Y0208500D01*
X0163500Y0203500D01*
X0163500Y0208500D01*
X0161000Y0211000D01*
X0156000Y0211000D01*
X0153500Y0208500D01*
X0153500Y0203500D01*
X0153500Y0208500D01*
X0151000Y0211000D01*
X0146000Y0211000D01*
X0151000Y0211000D01*
X0153500Y0213500D01*
X0156000Y0211000D01*
X0161000Y0211000D01*
X0163500Y0213500D01*
X0166000Y0211000D01*
X0171000Y0211000D01*
X0173500Y0213500D01*
X0176000Y0211000D01*
X0181000Y0211000D01*
X0183500Y0213500D01*
X0186000Y0211000D01*
X0191000Y0211000D01*
X0193500Y0213500D01*
X0193500Y0218500D01*
X0191000Y0221000D01*
X0186000Y0221000D01*
X0183500Y0218500D01*
X0183500Y0213500D01*
X0183500Y0218500D01*
X0181000Y0221000D01*
X0176000Y0221000D01*
X0173500Y0218500D01*
X0173500Y0213500D01*
X0173500Y0218500D01*
X0171000Y0221000D01*
X0166000Y0221000D01*
X0163500Y0218500D01*
X0163500Y0213500D01*
X0163500Y0218500D01*
X0161000Y0221000D01*
X0156000Y0221000D01*
X0153500Y0218500D01*
X0153500Y0213500D01*
X0153500Y0218500D01*
X0151000Y0221000D01*
X0146000Y0221000D01*
X0151000Y0221000D01*
X0153500Y0223500D01*
X0156000Y0221000D01*
X0161000Y0221000D01*
X0163500Y0223500D01*
X0166000Y0221000D01*
X0171000Y0221000D01*
X0173500Y0223500D01*
X0176000Y0221000D01*
X0181000Y0221000D01*
X0183500Y0223500D01*
X0186000Y0221000D01*
X0191000Y0221000D01*
X0193500Y0223500D01*
X0193500Y0228500D01*
X0191000Y0231000D01*
X0186000Y0231000D01*
X0183500Y0228500D01*
X0183500Y0223500D01*
X0183500Y0228500D01*
X0181000Y0231000D01*
X0176000Y0231000D01*
X0173500Y0228500D01*
X0173500Y0223500D01*
X0173500Y0228500D01*
X0171000Y0231000D01*
X0166000Y0231000D01*
X0163500Y0228500D01*
X0163500Y0223500D01*
X0163500Y0228500D01*
X0161000Y0231000D01*
X0156000Y0231000D01*
X0153500Y0228500D01*
X0153500Y0223500D01*
X0153500Y0228500D01*
X0151000Y0231000D01*
X0146000Y0231000D01*
X0151000Y0231000D01*
X0153500Y0233500D01*
X0156000Y0231000D01*
X0161000Y0231000D01*
X0163500Y0233500D01*
X0166000Y0231000D01*
X0171000Y0231000D01*
X0173500Y0233500D01*
X0176000Y0231000D01*
X0181000Y0231000D01*
X0183500Y0233500D01*
X0186000Y0231000D01*
X0191000Y0231000D01*
X0193500Y0233500D01*
X0193500Y0238500D01*
X0191000Y0241000D01*
X0186000Y0241000D01*
X0183500Y0238500D01*
X0183500Y0233500D01*
X0183500Y0238500D01*
X0181000Y0241000D01*
X0176000Y0241000D01*
X0173500Y0238500D01*
X0173500Y0233500D01*
X0173500Y0238500D01*
X0171000Y0241000D01*
X0166000Y0241000D01*
X0163500Y0238500D01*
X0163500Y0233500D01*
X0163500Y0238500D01*
X0161000Y0241000D01*
X0156000Y0241000D01*
X0153500Y0238500D01*
X0153500Y0233500D01*
X0153500Y0238500D01*
X0151000Y0241000D01*
X0146000Y0241000D01*
X0151000Y0241000D01*
X0153500Y0243500D01*
X0156000Y0241000D01*
X0161000Y0241000D01*
X0163500Y0243500D01*
X0166000Y0241000D01*
X0171000Y0241000D01*
X0173500Y0243500D01*
X0176000Y0241000D01*
X0181000Y0241000D01*
X0183500Y0243500D01*
X0186000Y0241000D01*
X0191000Y0241000D01*
X0193500Y0243500D01*
X0193500Y0248500D01*
X0191000Y0251000D01*
X0186000Y0251000D01*
X0183500Y0248500D01*
X0183500Y0243500D01*
X0183500Y0248500D01*
X0181000Y0251000D01*
X0176000Y0251000D01*
X0173500Y0248500D01*
X0173500Y0243500D01*
X0173500Y0248500D01*
X0171000Y0251000D01*
X0166000Y0251000D01*
X0163500Y0248500D01*
X0163500Y0243500D01*
X0163500Y0248500D01*
X0161000Y0251000D01*
X0156000Y0251000D01*
X0153500Y0248500D01*
X0153500Y0243500D01*
X0153500Y0248500D01*
X0151000Y0251000D01*
X0146000Y0251000D01*
X0151000Y0251000D01*
X0153500Y0253500D01*
X0156000Y0251000D01*
X0161000Y0251000D01*
X0163500Y0253500D01*
X0166000Y0251000D01*
X0171000Y0251000D01*
X0173500Y0253500D01*
X0176000Y0251000D01*
X0181000Y0251000D01*
X0183500Y0253500D01*
X0186000Y0251000D01*
X0191000Y0251000D01*
X0193500Y0253500D01*
X0193500Y0258500D01*
X0191000Y0261000D01*
X0186000Y0261000D01*
X0183500Y0258500D01*
X0183500Y0253500D01*
X0183500Y0258500D01*
X0181000Y0261000D01*
X0176000Y0261000D01*
X0173500Y0258500D01*
X0173500Y0253500D01*
X0173500Y0258500D01*
X0171000Y0261000D01*
X0166000Y0261000D01*
X0163500Y0258500D01*
X0163500Y0253500D01*
X0163500Y0258500D01*
X0161000Y0261000D01*
X0156000Y0261000D01*
X0153500Y0258500D01*
X0153500Y0253500D01*
X0153500Y0258500D01*
X0151000Y0261000D01*
X0146000Y0261000D01*
X0151000Y0261000D01*
X0153500Y0263500D01*
X0156000Y0261000D01*
X0161000Y0261000D01*
X0163500Y0263500D01*
X0166000Y0261000D01*
X0171000Y0261000D01*
X0173500Y0263500D01*
X0176000Y0261000D01*
X0181000Y0261000D01*
X0183500Y0263500D01*
X0186000Y0261000D01*
X0191000Y0261000D01*
X0193500Y0263500D01*
X0193500Y0268500D01*
X0191000Y0271000D01*
X0186000Y0271000D01*
X0183500Y0268500D01*
X0183500Y0263500D01*
X0183500Y0268500D01*
X0181000Y0271000D01*
X0176000Y0271000D01*
X0173500Y0268500D01*
X0173500Y0263500D01*
X0173500Y0268500D01*
X0171000Y0271000D01*
X0166000Y0271000D01*
X0163500Y0268500D01*
X0163500Y0263500D01*
X0163500Y0268500D01*
X0161000Y0271000D01*
X0156000Y0271000D01*
X0153500Y0268500D01*
X0153500Y0263500D01*
X0153500Y0268500D01*
X0151000Y0271000D01*
X0146000Y0271000D01*
X0151000Y0271000D01*
X0153500Y0273500D01*
X0156000Y0271000D01*
X0161000Y0271000D01*
X0163500Y0273500D01*
X0166000Y0271000D01*
X0171000Y0271000D01*
X0173500Y0273500D01*
X0176000Y0271000D01*
X0181000Y0271000D01*
X0183500Y0273500D01*
X0186000Y0271000D01*
X0191000Y0271000D01*
X0193500Y0273500D01*
X0193500Y0278500D01*
X0191000Y0281000D01*
X0186000Y0281000D01*
X0183500Y0278500D01*
X0183500Y0273500D01*
X0183500Y0278500D01*
X0181000Y0281000D01*
X0176000Y0281000D01*
X0173500Y0278500D01*
X0173500Y0273500D01*
X0173500Y0278500D01*
X0171000Y0281000D01*
X0166000Y0281000D01*
X0163500Y0278500D01*
X0163500Y0273500D01*
X0163500Y0278500D01*
X0161000Y0281000D01*
X0156000Y0281000D01*
X0153500Y0278500D01*
X0153500Y0273500D01*
X0153500Y0278500D01*
X0151000Y0281000D01*
X0146000Y0281000D01*
X0151000Y0281000D01*
X0153500Y0283500D01*
X0156000Y0281000D01*
X0161000Y0281000D01*
X0163500Y0283500D01*
X0166000Y0281000D01*
X0171000Y0281000D01*
X0173500Y0283500D01*
X0176000Y0281000D01*
X0181000Y0281000D01*
X0183500Y0283500D01*
X0186000Y0281000D01*
X0191000Y0281000D01*
X0193500Y0283500D01*
X0193500Y0288500D01*
X0191000Y0291000D01*
X0186000Y0291000D01*
X0183500Y0288500D01*
X0183500Y0283500D01*
X0183500Y0288500D01*
X0181000Y0291000D01*
X0176000Y0291000D01*
X0173500Y0288500D01*
X0173500Y0283500D01*
X0173500Y0288500D01*
X0171000Y0291000D01*
X0166000Y0291000D01*
X0163500Y0288500D01*
X0163500Y0283500D01*
X0163500Y0288500D01*
X0161000Y0291000D01*
X0156000Y0291000D01*
X0153500Y0288500D01*
X0153500Y0283500D01*
X0153500Y0288500D01*
X0151000Y0291000D01*
X0146000Y0291000D01*
X0151000Y0291000D01*
X0153500Y0293500D01*
X0156000Y0291000D01*
X0161000Y0291000D01*
X0163500Y0293500D01*
X0166000Y0291000D01*
X0171000Y0291000D01*
X0173500Y0293500D01*
X0176000Y0291000D01*
X0181000Y0291000D01*
X0183500Y0293500D01*
X0186000Y0291000D01*
X0191000Y0291000D01*
X0193500Y0293500D01*
X0193500Y0298500D01*
X0191000Y0301000D01*
X0186000Y0301000D01*
X0183500Y0298500D01*
X0183500Y0293500D01*
X0183500Y0298500D01*
X0181000Y0301000D01*
X0176000Y0301000D01*
X0173500Y0298500D01*
X0173500Y0293500D01*
X0173500Y0298500D01*
X0171000Y0301000D01*
X0166000Y0301000D01*
X0163500Y0298500D01*
X0163500Y0293500D01*
X0163500Y0298500D01*
X0161000Y0301000D01*
X0156000Y0301000D01*
X0153500Y0298500D01*
X0153500Y0293500D01*
X0153500Y0298500D01*
X0151000Y0301000D01*
X0146000Y0301000D01*
X0151000Y0301000D01*
X0153500Y0303500D01*
X0156000Y0301000D01*
X0161000Y0301000D01*
X0163500Y0303500D01*
X0166000Y0301000D01*
X0171000Y0301000D01*
X0173500Y0303500D01*
X0176000Y0301000D01*
X0181000Y0301000D01*
X0183500Y0303500D01*
X0186000Y0301000D01*
X0191000Y0301000D01*
X0193500Y0303500D01*
X0193500Y0308500D01*
X0191000Y0311000D01*
X0186000Y0311000D01*
X0183500Y0308500D01*
X0183500Y0303500D01*
X0183500Y0308500D01*
X0181000Y0311000D01*
X0176000Y0311000D01*
X0173500Y0308500D01*
X0173500Y0303500D01*
X0173500Y0308500D01*
X0171000Y0311000D01*
X0166000Y0311000D01*
X0163500Y0308500D01*
X0163500Y0303500D01*
X0163500Y0308500D01*
X0161000Y0311000D01*
X0156000Y0311000D01*
X0153500Y0308500D01*
X0153500Y0303500D01*
X0153500Y0308500D01*
X0151000Y0311000D01*
X0146000Y0311000D01*
X0151000Y0311000D01*
X0153500Y0313500D01*
X0156000Y0311000D01*
X0161000Y0311000D01*
X0163500Y0313500D01*
X0166000Y0311000D01*
X0171000Y0311000D01*
X0173500Y0313500D01*
X0176000Y0311000D01*
X0181000Y0311000D01*
X0183500Y0313500D01*
X0186000Y0311000D01*
X0191000Y0311000D01*
X0193500Y0313500D01*
X0193500Y0318500D01*
X0191000Y0321000D01*
X0186000Y0321000D01*
X0183500Y0318500D01*
X0183500Y0313500D01*
X0183500Y0318500D01*
X0181000Y0321000D01*
X0176000Y0321000D01*
X0173500Y0318500D01*
X0173500Y0313500D01*
X0173500Y0318500D01*
X0171000Y0321000D01*
X0166000Y0321000D01*
X0163500Y0318500D01*
X0163500Y0313500D01*
X0163500Y0318500D01*
X0161000Y0321000D01*
X0156000Y0321000D01*
X0153500Y0318500D01*
X0153500Y0313500D01*
X0153500Y0318500D01*
X0151000Y0321000D01*
X0146000Y0321000D01*
X0151000Y0321000D01*
X0153500Y0323500D01*
X0156000Y0321000D01*
X0161000Y0321000D01*
X0163500Y0323500D01*
X0166000Y0321000D01*
X0171000Y0321000D01*
X0173500Y0323500D01*
X0176000Y0321000D01*
X0181000Y0321000D01*
X0183500Y0323500D01*
X0186000Y0321000D01*
X0191000Y0321000D01*
X0193500Y0323500D01*
X0193500Y0328500D01*
X0191000Y0331000D01*
X0186000Y0331000D01*
X0183500Y0328500D01*
X0183500Y0323500D01*
X0183500Y0328500D01*
X0181000Y0331000D01*
X0176000Y0331000D01*
X0173500Y0328500D01*
X0173500Y0323500D01*
X0173500Y0328500D01*
X0171000Y0331000D01*
X0166000Y0331000D01*
X0163500Y0328500D01*
X0163500Y0323500D01*
X0163500Y0328500D01*
X0161000Y0331000D01*
X0156000Y0331000D01*
X0153500Y0328500D01*
X0153500Y0323500D01*
X0153500Y0328500D01*
X0151000Y0331000D01*
X0146000Y0331000D01*
X0151000Y0331000D01*
X0153500Y0333500D01*
X0156000Y0331000D01*
X0161000Y0331000D01*
X0163500Y0333500D01*
X0166000Y0331000D01*
X0171000Y0331000D01*
X0173500Y0333500D01*
X0176000Y0331000D01*
X0181000Y0331000D01*
X0183500Y0333500D01*
X0186000Y0331000D01*
X0191000Y0331000D01*
X0193500Y0333500D01*
X0193500Y0338500D01*
X0191000Y0341000D01*
X0186000Y0341000D01*
X0183500Y0338500D01*
X0183500Y0333500D01*
X0183500Y0338500D01*
X0181000Y0341000D01*
X0176000Y0341000D01*
X0173500Y0338500D01*
X0173500Y0333500D01*
X0173500Y0338500D01*
X0171000Y0341000D01*
X0166000Y0341000D01*
X0163500Y0338500D01*
X0163500Y0333500D01*
X0163500Y0338500D01*
X0161000Y0341000D01*
X0156000Y0341000D01*
X0153500Y0338500D01*
X0153500Y0333500D01*
X0153500Y0338500D01*
X0151000Y0341000D01*
X0146000Y0341000D01*
X0143500Y0338500D01*
M02*
