%
M48
M72
T01C0.01200
T02C0.04000
T03C0.15748
%
T01
X21800Y55450
X21800Y61050
X21800Y65850
X21800Y70650
X21800Y75450
X21000Y78650
X21800Y85850
X21800Y91450
X21800Y96250
X21800Y101050
X21800Y105850
X21800Y111450
X21800Y116250
X21800Y121050
X21800Y125850
X21800Y131450
X21800Y136250
X21800Y141050
X21800Y145850
X21800Y151450
X21800Y156250
X21800Y161050
X21800Y165850
X21800Y171450
X21800Y176250
X21800Y181050
X21800Y185850
X21800Y191450
X21800Y196250
X21800Y201050
X21800Y205850
X21800Y211450
X21800Y216250
X21800Y221050
X21800Y225850
X21800Y231450
X21800Y236250
X21800Y241050
X21800Y245850
X21800Y251450
X21800Y256250
X21800Y261050
X21800Y265850
X21800Y271450
X21800Y276250
X21800Y281050
X21800Y285850
X21800Y290650
X21800Y296250
X21800Y301050
X21800Y305850
X21800Y311450
X21800Y315450
X21800Y321850
X21800Y325850
X21800Y331450
X21800Y336250
X21800Y341050
X39400Y331450
X61800Y333850
X67400Y341850
X91400Y349050
X98600Y372250
X94600Y375450
X89800Y375450
X84200Y375450
X79400Y375450
X74600Y392250
X62600Y383450
X109000Y375450
X121000Y364250
X144200Y365850
X153800Y370650
X158600Y375450
X172200Y373050
X177800Y375450
X183400Y375450
X188200Y375450
X193000Y375450
X197800Y392250
X178600Y359450
X172200Y357050
X176200Y349050
X202600Y309050
X202600Y289050
X202600Y269050
X202600Y249050
X202600Y229050
X202600Y209050
X202600Y189050
X202600Y169050
X202600Y149050
X202600Y129050
X202600Y109050
X202600Y89050
X202600Y69050
X173800Y40250
X170600Y45050
X173000Y33850
X173800Y22650
X177000Y22650
X182600Y22650
X187400Y22650
X193800Y21850
X197800Y5050
X161000Y45050
X152200Y109850
X161800Y118650
X106600Y34650
X98600Y25850
X94600Y22650
X90600Y22650
X85000Y22650
X80200Y22650
X73800Y21850
X62600Y13850
X76200Y44250
X74600Y68250
X73800Y89050
X73800Y109050
X73800Y129050
X73800Y149050
X73800Y169050
X73800Y189050
X73800Y209050
X73800Y229050
X73800Y249050
X73800Y269050
X74600Y288250
X75400Y309050
X150600Y289050
X210600Y341850
X214600Y336250
X238600Y331450
X255400Y341850
X256200Y336250
X256200Y331450
X256200Y325850
X256200Y321850
X256200Y315450
X255400Y306650
X255400Y301050
X256200Y295450
X255400Y291450
X255400Y286650
X255400Y281050
X256200Y275450
X255400Y271450
X255400Y266650
X255400Y261050
X256200Y255450
X255400Y251450
X255400Y246650
X255400Y241050
X256200Y235450
X255400Y231450
X255400Y226650
X255400Y221050
X256200Y215450
X255400Y211450
X255400Y206650
X255400Y201050
X256200Y195450
X255400Y191450
X255400Y186650
X255400Y181050
X256200Y175450
X255400Y171450
X255400Y166650
X255400Y161050
X256200Y155450
X255400Y151450
X255400Y146650
X255400Y141050
X256200Y135450
X255400Y131450
X255400Y126650
X255400Y121050
X256200Y115450
X255400Y111450
X255400Y106650
X255400Y101050
X256200Y95450
X255400Y91450
X255400Y86650
X255400Y81050
X255400Y75450
X256200Y69850
X255400Y61050
X256200Y50650
X273000Y70650
X98600Y44250
X96200Y41850
X170600Y392250
T02
X168795Y343700
X168795Y333700
X168795Y323700
X168795Y313700
X168795Y303700
X168795Y293700
X168795Y283700
X168795Y273700
X168795Y263700
X168795Y253700
X168795Y243700
X168795Y233700
X168795Y223700
X168795Y213700
X168795Y203700
X168795Y193700
X168795Y183700
X168795Y173700
X168795Y163700
X168795Y153700
X168795Y143700
X168795Y133700
X168795Y123700
X168795Y113700
X168795Y103700
X168795Y93700
X168795Y83700
X168795Y73700
X168795Y63700
X168795Y53700
X158795Y53700
X158795Y63700
X158795Y73700
X158795Y83700
X158795Y93700
X158795Y103700
X158795Y113700
X158795Y123700
X158795Y133700
X158795Y143700
X158795Y153700
X158795Y163700
X158795Y173700
X158795Y183700
X158795Y193700
X158795Y203700
X158795Y213700
X158795Y223700
X158795Y233700
X158795Y243700
X158795Y253700
X158795Y263700
X158795Y273700
X158795Y283700
X158795Y293700
X158795Y303700
X158795Y313700
X158795Y323700
X158795Y333700
X158795Y343700
X178795Y343700
X178795Y333700
X178795Y323700
X178795Y313700
X178795Y303700
X178795Y293700
X178795Y283700
X178795Y273700
X178795Y263700
X178795Y253700
X178795Y243700
X178795Y233700
X178795Y223700
X178795Y213700
X178795Y203700
X178795Y193700
X178795Y183700
X178795Y173700
X178795Y163700
X178795Y153700
X178795Y143700
X178795Y133700
X178795Y123700
X178795Y113700
X178795Y103700
X178795Y93700
X178795Y83700
X178795Y73700
X178795Y63700
X178795Y53700
X188795Y53700
X188795Y63700
X188795Y73700
X188795Y83700
X188795Y93700
X188795Y103700
X188795Y113700
X188795Y123700
X188795Y133700
X188795Y143700
X188795Y153700
X188795Y163700
X188795Y173700
X188795Y183700
X188795Y193700
X188795Y203700
X188795Y213700
X188795Y223700
X188795Y233700
X188795Y243700
X188795Y253700
X188795Y263700
X188795Y273700
X188795Y283700
X188795Y293700
X188795Y303700
X188795Y313700
X188795Y323700
X188795Y333700
X188795Y343700
X198795Y343700
X198795Y333700
X198795Y323700
X198795Y313700
X198795Y303700
X198795Y293700
X198795Y283700
X198795Y273700
X198795Y263700
X198795Y253700
X198795Y243700
X198795Y233700
X198795Y223700
X198795Y213700
X198795Y203700
X198795Y193700
X198795Y183700
X198795Y173700
X198795Y163700
X198795Y153700
X198795Y143700
X198795Y133700
X198795Y123700
X198795Y113700
X198795Y103700
X198795Y93700
X198795Y83700
X198795Y73700
X198795Y63700
X198795Y53700
X118795Y53700
X108795Y53700
X108795Y63700
X108795Y73700
X118795Y73700
X118795Y63700
X118795Y83700
X118795Y93700
X108795Y93700
X108795Y83700
X98795Y83700
X98795Y93700
X98795Y103700
X98795Y113700
X98795Y123700
X98795Y133700
X98795Y143700
X98795Y153700
X98795Y163700
X98795Y173700
X98795Y183700
X98795Y193700
X98795Y203700
X98795Y213700
X98795Y223700
X98795Y233700
X98795Y243700
X98795Y253700
X98795Y263700
X98795Y273700
X98795Y283700
X98795Y293700
X98795Y303700
X98795Y313700
X98795Y323700
X98795Y333700
X98795Y343700
X88795Y343700
X88795Y333700
X88795Y323700
X88795Y313700
X88795Y303700
X88795Y293700
X88795Y283700
X88795Y273700
X88795Y263700
X88795Y253700
X88795Y243700
X88795Y233700
X88795Y223700
X88795Y213700
X88795Y203700
X88795Y193700
X88795Y183700
X88795Y173700
X88795Y163700
X88795Y153700
X88795Y143700
X88795Y133700
X88795Y123700
X88795Y113700
X88795Y103700
X88795Y93700
X88795Y83700
X88795Y73700
X88795Y63700
X88795Y53700
X78795Y53700
X78795Y63700
X78795Y73700
X78795Y83700
X78795Y93700
X78795Y103700
X78795Y113700
X78795Y123700
X78795Y133700
X78795Y143700
X78795Y153700
X78795Y163700
X78795Y173700
X78795Y183700
X78795Y193700
X78795Y203700
X78795Y213700
X78795Y223700
X78795Y233700
X78795Y243700
X78795Y253700
X78795Y263700
X78795Y273700
X78795Y283700
X78795Y293700
X78795Y303700
X78795Y313700
X78795Y323700
X78795Y333700
X78795Y343700
X108795Y343700
X108795Y333700
X108795Y323700
X108795Y313700
X108795Y303700
X108795Y293700
X108795Y283700
X108795Y273700
X108795Y263700
X108795Y253700
X108795Y243700
X108795Y233700
X108795Y223700
X108795Y213700
X108795Y203700
X108795Y193700
X108795Y183700
X108795Y173700
X108795Y163700
X108795Y153700
X108795Y143700
X108795Y133700
X108795Y123700
X108795Y113700
X108795Y103700
X118795Y103700
X118795Y113700
X118795Y123700
X118795Y133700
X118795Y143700
X118795Y153700
X118795Y163700
X118795Y173700
X118795Y183700
X118795Y193700
X118795Y203700
X118795Y213700
X118795Y223700
X118795Y233700
X118795Y243700
X118795Y253700
X118795Y263700
X118795Y273700
X118795Y283700
X118795Y293700
X118795Y303700
X118795Y313700
X118795Y323700
X118795Y333700
X118795Y343700
X98795Y73700
X98795Y63700
X98795Y53700
T03
X54150Y39252
X223441Y39252
X223441Y358149
X54150Y358149
M30
