%
M48
M72
T01C0.01200
T02C0.15748
%
T01
X13850Y47450
X5050Y56250
X5050Y61050
X5050Y66650
X5050Y71450
X5050Y76250
X5050Y81050
X5050Y86650
X5050Y91450
X5050Y96250
X5050Y101050
X5050Y106650
X5050Y111450
X5050Y116250
X5050Y121050
X5050Y126650
X5050Y131450
X5050Y136250
X5050Y141050
X5050Y146650
X5050Y151450
X5050Y156250
X5050Y161050
X5050Y166650
X5050Y171450
X5050Y176250
X5050Y181050
X5050Y186650
X5050Y191450
X5050Y196250
X5050Y201050
X5050Y206650
X5050Y211450
X5050Y216250
X5050Y221050
X5050Y226650
X5050Y231450
X5050Y236250
X5050Y241050
X5050Y246650
X5050Y251450
X5050Y256250
X5050Y261050
X5050Y266650
X5050Y271450
X5050Y276250
X5050Y281050
X5050Y286650
X5050Y291450
X5050Y296250
X5050Y301050
X5050Y306650
X5050Y311450
X5050Y316250
X5050Y321050
X5050Y326650
X5050Y331450
X5050Y336250
X5050Y341050
X13850Y349850
X40250Y345850
X40250Y341050
X40250Y336250
X40250Y331450
X40250Y325850
X40250Y321050
X40250Y316250
X40250Y310650
X40250Y305850
X42650Y303450
X40250Y299450
X43450Y293850
X40250Y290650
X40250Y285850
X42650Y283450
X40250Y279450
X41050Y274650
X41850Y271450
X41050Y265050
X41050Y261850
X43450Y254650
X40250Y250650
X40250Y246650
X42650Y240250
X40250Y238650
X40250Y235450
X41850Y233050
X40250Y230650
X41850Y228250
X40250Y225850
X41850Y223450
X40250Y221050
X41850Y218650
X40250Y216250
X40250Y213050
X40250Y206650
X41850Y204250
X40250Y201850
X40250Y198650
X41850Y196250
X40250Y193850
X41850Y190650
X40250Y188250
X41850Y185850
X42650Y181850
X40250Y177850
X41850Y175450
X40250Y169050
X41850Y166650
X40250Y158650
X40250Y155450
X41850Y151450
X40250Y149050
X40250Y145850
X40250Y139450
X40250Y136250
X40250Y129050
X42650Y127450
X40250Y119450
X40250Y116250
X40250Y106650
X40250Y103450
X40250Y96250
X41850Y93850
X40250Y91450
X40250Y86650
X40250Y81850
X40250Y76250
X40250Y71450
X40250Y65850
X40250Y61850
X40250Y56250
X40250Y51450
X61050Y47450
X63450Y13850
X72250Y5050
X77850Y5050
X82650Y5050
X87450Y5050
X92250Y5050
X97850Y5050
X102650Y5050
X109050Y22650
X114650Y21850
X119450Y22650
X124250Y22650
X129050Y22650
X132250Y5050
X137850Y5050
X142650Y5050
X147450Y5050
X157850Y5050
X162650Y5050
X172250Y5050
X177850Y5050
X182650Y5050
X187450Y5050
X192250Y5050
X197850Y5050
X202650Y5050
X207450Y5050
X216250Y13850
X192250Y58650
X192250Y78650
X206650Y74650
X206650Y83450
X201050Y103450
X209050Y113050
X211450Y110650
X210650Y119450
X207450Y122650
X192250Y117050
X209850Y148250
X209050Y170650
X192250Y173850
X206650Y199450
X209850Y205850
X209050Y218650
X209850Y225050
X209050Y238650
X209850Y244250
X209850Y253850
X209050Y277050
X210650Y284250
X209050Y286650
X209050Y296250
X209050Y305850
X209050Y334650
X234650Y332250
X239450Y330650
X239450Y325850
X235450Y322650
X239450Y320250
X239450Y317050
X237050Y314650
X234650Y312250
X239450Y310650
X237850Y303450
X239450Y301050
X234650Y302650
X236250Y293850
X236250Y290650
X239450Y290650
X239450Y282650
X239450Y279450
X236250Y274650
X236250Y271450
X239450Y271450
X239450Y268250
X237850Y263450
X239450Y261050
X239450Y257850
X239450Y251450
X239450Y248250
X239450Y245050
X236250Y251450
X239450Y236250
X236250Y235450
X239450Y230650
X239450Y227450
X237050Y222650
X239450Y221050
X237050Y216250
X237050Y213050
X239450Y211450
X239450Y208250
X237050Y204250
X239450Y198650
X239450Y195450
X239450Y190650
X237850Y188250
X239450Y185850
X235450Y186650
X239450Y181050
X237850Y178650
X239450Y176250
X237850Y168250
X239450Y165850
X239450Y161850
X239450Y158650
X239450Y155450
X237050Y151450
X239450Y149050
X239450Y145850
X237050Y141850
X239450Y139450
X237850Y136250
X236250Y133850
X239450Y133850
X239450Y129050
X239450Y125850
X239450Y121050
X239450Y115450
X237850Y113050
X239450Y106650
X239450Y99450
X239450Y92250
X237850Y89850
X239450Y86650
X239450Y81050
X236250Y72250
X239450Y71450
X239450Y68250
X239450Y65050
X248250Y47450
X257050Y53050
X256250Y56250
X256250Y61050
X256250Y73050
X256250Y76250
X256250Y79450
X256250Y84250
X256250Y89850
X256250Y96250
X256250Y101050
X256250Y107450
X256250Y110650
X256250Y116250
X256250Y119450
X256250Y123450
X256250Y129050
X256250Y132250
X256250Y143450
X256250Y146650
X256250Y153050
X256250Y156250
X256250Y163450
X256250Y166650
X256250Y171450
X256250Y174650
X256250Y177850
X256250Y182650
X256250Y185850
X256250Y194650
X256250Y197850
X256250Y201050
X256250Y205850
X256250Y209050
X256250Y212250
X256250Y218650
X256250Y225050
X256250Y233850
X256250Y237850
X256250Y241050
X256250Y244250
X256250Y248250
X256250Y253850
X256250Y257850
X256250Y267450
X256250Y270650
X256250Y274650
X257050Y281850
X273850Y283450
X273850Y290650
X273850Y293850
X273850Y298650
X273850Y303450
X273850Y308250
X273850Y313050
X273850Y321850
X273850Y325050
X273850Y330650
X273850Y333850
X273850Y344250
X261850Y349850
X239450Y345850
X239450Y341050
X239450Y337050
X206650Y375450
X201850Y375450
X197050Y375450
X191450Y375450
X186650Y375450
X181850Y375450
X177050Y375450
X169050Y375450
X165850Y375450
X161850Y375450
X154650Y375450
X151450Y375450
X145850Y375450
X142650Y375450
X137850Y375450
X134650Y375450
X127450Y375450
X122650Y375450
X117850Y375450
X112250Y375450
X107450Y375450
X102650Y375450
X97850Y375450
X92250Y375450
X87450Y375450
X82650Y375450
X77850Y375450
X72250Y375450
X63450Y384250
X45850Y333850
X45850Y323450
X45850Y313850
X22650Y306650
X22650Y296250
X22650Y285850
X22650Y271450
X22650Y261050
X22650Y256250
X22650Y246650
X22650Y211450
X22650Y171450
X22650Y161050
X22650Y141050
X22650Y131450
X22650Y121050
X22650Y111450
X68250Y110650
X70650Y113050
X69850Y121850
X70650Y132250
X70650Y141850
X70650Y161850
X70650Y171450
X86650Y164250
X86650Y179450
X69850Y209050
X69050Y244250
X70650Y257850
X70650Y267450
X70650Y277050
X87450Y300250
X85850Y316250
X70650Y325850
X126650Y342650
X130650Y333050
X132250Y325050
X133850Y314650
X146650Y323450
X149050Y313850
X149050Y333050
X149050Y360250
X157850Y286650
X149050Y274650
X145050Y284250
X134650Y274650
X130650Y256250
X130650Y245850
X130650Y236250
X130650Y226650
X130650Y217050
X130650Y207450
X125050Y188250
X130650Y180250
X130650Y170650
X130650Y161050
X130650Y151450
X130650Y141850
X130650Y132250
X134650Y122650
X130650Y113050
X131450Y103450
X145050Y93850
X149050Y103450
X148250Y113050
X156250Y103450
X159450Y103450
X149050Y141850
X152250Y151450
X149050Y161050
X149050Y170650
X149050Y180250
X157850Y168250
X149050Y207450
X149050Y217050
X149050Y226650
X149050Y245850
X149050Y255450
X157850Y257850
X193850Y267450
X233850Y157850
X273850Y211450
X273850Y233050
X273850Y101050
X273850Y96250
X273850Y81050
X273850Y66650
X273850Y61050
X261850Y47450
X174650Y60250
X165050Y54650
X149050Y32250
X149850Y22650
X165050Y22650
X146650Y64250
X92250Y81850
X90650Y84250
X89050Y81850
X90650Y74650
X89050Y72250
X91450Y54650
X68250Y101050
X88250Y122650
X216250Y384250
T02
X224291Y358149
X55000Y358149
X55000Y39252
X224291Y39252
M30
