%
M48
M72
T01C0.01200
T02C0.04000
T03C0.11811
%
T01
X39400Y43400
X45000Y41000
X55400Y48200
X63400Y62600
X61800Y81800
X57000Y96200
X49000Y85800
X39400Y77000
X39400Y69000
X23400Y71400
X22600Y79400
X22600Y84200
X21000Y86600
X22600Y89000
X17800Y86600
X21800Y96200
X22600Y99400
X20200Y103400
X22600Y109000
X22600Y113800
X22600Y119400
X22600Y123400
X23400Y131400
X19400Y149000
X17800Y153800
X22600Y164200
X22600Y168200
X23400Y171400
X23400Y176200
X23400Y181800
X23400Y186600
X23400Y191400
X23400Y196200
X23400Y201800
X23400Y206600
X23400Y211400
X23400Y216200
X23400Y221800
X23400Y226600
X23400Y231400
X23400Y236200
X23400Y241800
X22600Y247400
X22600Y253800
X22600Y258600
X23400Y261800
X23400Y266600
X21800Y273800
X22600Y279400
X22600Y282600
X23400Y286600
X22600Y292200
X23400Y301800
X22600Y309000
X22600Y319400
X21000Y321800
X22600Y324200
X22600Y333800
X22600Y337000
X28200Y342600
X39400Y318600
X39400Y309000
X42600Y298600
X42600Y289000
X39400Y278600
X39400Y269000
X46600Y261800
X42600Y249000
X45000Y237000
X45800Y229000
X43400Y221000
X39400Y218600
X39400Y209000
X49800Y198600
X39400Y189000
X46600Y178600
X45800Y169000
X41000Y158600
X50600Y146600
X50600Y137000
X45800Y132200
X49800Y126600
X45800Y116200
X39400Y109000
X61800Y109800
X61800Y125800
X59400Y141800
X64200Y169800
X56200Y172200
X65000Y190600
X64200Y209800
X59400Y232200
X65000Y250600
X62600Y269000
X65000Y290600
X59400Y301800
X61800Y311400
X65000Y361000
X77800Y377000
X81000Y377800
X85000Y377800
X95400Y377800
X98600Y378600
X105800Y361000
X110600Y348200
X98600Y345800
X92200Y340200
X90600Y352200
X86600Y353000
X85000Y358600
X89000Y358600
X111400Y321000
X142600Y318600
X157800Y341800
X163400Y341800
X168200Y355400
X170600Y361000
X173000Y377000
X169800Y377800
X165800Y377800
X161000Y377800
X157800Y377000
X147400Y357000
X149800Y353000
X142600Y361800
X177800Y377000
X186600Y377800
X188200Y352200
X183400Y341800
X205800Y314600
X215400Y309000
X217000Y318600
X233000Y320200
X233000Y323400
X233000Y329000
X233000Y313800
X233000Y309000
X233000Y304200
X233000Y299400
X233000Y296200
X233000Y289000
X235400Y286600
X233000Y278600
X233000Y273800
X236200Y273800
X233000Y266600
X233000Y263400
X233000Y258600
X233000Y253800
X233000Y244200
X236200Y244200
X233000Y233800
X233000Y229000
X233000Y225800
X233000Y221800
X233000Y213800
X234600Y211400
X233000Y209000
X237800Y209800
X233000Y203400
X233000Y198600
X233000Y193800
X233000Y189000
X233000Y183400
X233000Y178600
X233000Y173800
X233000Y169000
X233000Y161800
X233000Y158600
X233000Y153800
X233800Y148200
X233000Y133000
X233000Y113800
X234600Y111400
X233000Y109000
X234600Y104200
X233000Y101800
X233000Y96200
X235400Y90600
X233000Y89000
X234600Y81800
X233000Y79400
X235400Y69000
X236200Y62600
X233000Y59400
X233000Y54600
X233000Y49000
X225000Y40200
X213000Y49000
X187400Y25000
X172200Y37800
X174600Y41800
X168200Y29800
X170600Y24200
X164200Y39400
X196200Y63400
X205800Y83400
X217000Y78600
X213800Y69000
X217000Y88200
X216200Y97000
X213800Y109000
X208200Y116200
X217000Y129000
X207400Y138600
X207400Y142600
X212200Y144200
X211400Y156200
X209800Y169000
X210600Y178600
X206600Y182600
X197800Y189000
X207400Y198600
X208200Y206600
X217000Y220200
X214600Y229000
X217000Y238600
X214600Y249000
X217000Y258600
X209800Y266600
X209000Y277000
X212200Y289000
X217000Y297800
X194600Y303400
X193000Y292200
X193000Y269800
X194600Y254600
X183400Y253000
X192200Y230600
X193000Y209800
X196200Y172200
X196200Y168200
X194600Y148200
X193000Y130600
X193000Y109800
X165000Y131400
X174600Y161800
X239400Y100200
X113000Y52200
X105800Y22600
X101000Y22600
X83400Y22600
X83400Y36200
X68200Y22600
X22600Y59400
X17800Y61000
X17800Y64200
X83400Y113000
X83400Y193000
T02
X68500Y46000
X68500Y56000
X68500Y66000
X68500Y76000
X68500Y86000
X68500Y96000
X68500Y106000
X68500Y116000
X68500Y126000
X68500Y136000
X68500Y146000
X68500Y156000
X68500Y166000
X68500Y176000
X68500Y186000
X68500Y196000
X68500Y206000
X68500Y216000
X68500Y226000
X68500Y236000
X68500Y246000
X68500Y256000
X68500Y266000
X68500Y276000
X68500Y286000
X68500Y296000
X68500Y306000
X68500Y316000
X68500Y326000
X68500Y336000
X78500Y336000
X78500Y326000
X78500Y316000
X78500Y306000
X78500Y296000
X78500Y286000
X78500Y276000
X78500Y266000
X78500Y256000
X78500Y246000
X78500Y236000
X78500Y226000
X78500Y216000
X78500Y206000
X78500Y196000
X78500Y186000
X78500Y176000
X78500Y166000
X78500Y156000
X78500Y146000
X78500Y136000
X78500Y126000
X78500Y116000
X78500Y106000
X78500Y96000
X78500Y86000
X78500Y76000
X78500Y66000
X78500Y56000
X78500Y46000
X88500Y46000
X88500Y56000
X88500Y66000
X88500Y76000
X88500Y86000
X88500Y96000
X88500Y106000
X88500Y116000
X88500Y126000
X88500Y136000
X88500Y146000
X88500Y156000
X88500Y166000
X88500Y176000
X88500Y186000
X88500Y196000
X88500Y206000
X88500Y216000
X88500Y226000
X88500Y236000
X88500Y246000
X88500Y256000
X88500Y266000
X88500Y276000
X88500Y286000
X88500Y296000
X88500Y306000
X88500Y316000
X88500Y326000
X88500Y336000
X98500Y336000
X98500Y326000
X98500Y316000
X98500Y306000
X98500Y296000
X98500Y286000
X98500Y276000
X98500Y266000
X98500Y256000
X98500Y246000
X98500Y236000
X98500Y226000
X98500Y216000
X98500Y206000
X98500Y196000
X98500Y186000
X98500Y176000
X98500Y166000
X98500Y156000
X98500Y146000
X98500Y136000
X98500Y126000
X98500Y116000
X98500Y106000
X98500Y96000
X98500Y86000
X98500Y76000
X98500Y66000
X98500Y56000
X98500Y46000
X108500Y46000
X108500Y56000
X108500Y66000
X108500Y76000
X108500Y86000
X108500Y96000
X108500Y106000
X108500Y116000
X108500Y126000
X108500Y136000
X108500Y146000
X108500Y156000
X108500Y166000
X108500Y176000
X108500Y186000
X108500Y196000
X108500Y206000
X108500Y216000
X108500Y226000
X108500Y236000
X108500Y246000
X108500Y256000
X108500Y266000
X108500Y276000
X108500Y286000
X108500Y296000
X108500Y306000
X108500Y316000
X108500Y326000
X108500Y336000
X148500Y336000
X148500Y326000
X148500Y316000
X148500Y306000
X148500Y296000
X148500Y286000
X148500Y276000
X148500Y266000
X148500Y256000
X148500Y246000
X148500Y236000
X148500Y226000
X148500Y216000
X148500Y206000
X148500Y196000
X148500Y186000
X148500Y176000
X148500Y166000
X148500Y156000
X148500Y146000
X148500Y136000
X148500Y126000
X148500Y116000
X148500Y106000
X148500Y96000
X148500Y86000
X148500Y76000
X148500Y66000
X148500Y56000
X148500Y46000
X158500Y46000
X158500Y56000
X158500Y66000
X158500Y76000
X158500Y86000
X158500Y96000
X158500Y106000
X158500Y116000
X158500Y126000
X158500Y136000
X158500Y146000
X158500Y156000
X158500Y166000
X158500Y176000
X158500Y186000
X158500Y196000
X158500Y206000
X158500Y216000
X158500Y226000
X158500Y236000
X158500Y246000
X158500Y256000
X158500Y266000
X158500Y276000
X158500Y286000
X158500Y296000
X158500Y306000
X158500Y316000
X158500Y326000
X158500Y336000
X168500Y336000
X168500Y326000
X168500Y316000
X168500Y306000
X168500Y296000
X168500Y286000
X168500Y276000
X168500Y266000
X168500Y256000
X168500Y246000
X168500Y236000
X168500Y226000
X168500Y216000
X168500Y206000
X168500Y196000
X168500Y186000
X168500Y176000
X168500Y166000
X168500Y156000
X168500Y146000
X168500Y136000
X168500Y126000
X168500Y116000
X168500Y106000
X168500Y96000
X168500Y86000
X168500Y76000
X168500Y66000
X168500Y56000
X168500Y46000
X178500Y46000
X178500Y56000
X178500Y66000
X178500Y76000
X178500Y86000
X178500Y96000
X178500Y106000
X178500Y116000
X178500Y126000
X178500Y136000
X178500Y146000
X178500Y156000
X178500Y166000
X178500Y176000
X178500Y186000
X178500Y196000
X178500Y206000
X178500Y216000
X178500Y226000
X178500Y236000
X178500Y246000
X178500Y256000
X178500Y266000
X178500Y276000
X178500Y286000
X178500Y296000
X178500Y306000
X178500Y316000
X178500Y326000
X178500Y336000
X188500Y336000
X188500Y326000
X188500Y316000
X188500Y306000
X188500Y296000
X188500Y286000
X188500Y276000
X188500Y266000
X188500Y256000
X188500Y246000
X188500Y236000
X188500Y226000
X188500Y216000
X188500Y206000
X188500Y196000
X188500Y186000
X188500Y176000
X188500Y166000
X188500Y156000
X188500Y146000
X188500Y136000
X188500Y126000
X188500Y116000
X188500Y106000
X188500Y96000
X188500Y86000
X188500Y76000
X188500Y66000
X188500Y56000
X188500Y46000
T03
X56000Y348500
X201000Y348500
X201000Y33500
X56000Y33500
M30
