%
M48
M72
T01C0.01200
T02C0.11811
%
T01
X28000Y40600
X23200Y49000
X23200Y54400
X23200Y59200
X23200Y64000
X23200Y69400
X23200Y74200
X23200Y79000
X23200Y84400
X23200Y89200
X23200Y94000
X23200Y99400
X23200Y104200
X23200Y109000
X23200Y113800
X23200Y119200
X23200Y124000
X23200Y129400
X23200Y134200
X23200Y139000
X23200Y144400
X23200Y149200
X23200Y154000
X23200Y159400
X23200Y164200
X23200Y169000
X23200Y174400
X23200Y179200
X23200Y184000
X23200Y189400
X23200Y194200
X23200Y199000
X23200Y204400
X23200Y209200
X23200Y214000
X23200Y219400
X23200Y224200
X23200Y229000
X23200Y234400
X23200Y239200
X23200Y244000
X23200Y249400
X23200Y254200
X23200Y259000
X23200Y264400
X23200Y269200
X23200Y274000
X23200Y279400
X23200Y284200
X23200Y289000
X23200Y294400
X23200Y299200
X23200Y304000
X23200Y309400
X23200Y314200
X23200Y319000
X23200Y324400
X23200Y329200
X23200Y334000
X28000Y342400
X34600Y342400
X38800Y334000
X38800Y329200
X38800Y323800
X38800Y319000
X38800Y314200
X41200Y311800
X38800Y309400
X38800Y304000
X38800Y299200
X38800Y294400
X38800Y289000
X38800Y284200
X38800Y279400
X38800Y274000
X38800Y269200
X38800Y264400
X38800Y259000
X38800Y254200
X38800Y249400
X38800Y244000
X38800Y239200
X38800Y234400
X38800Y229000
X38800Y224200
X38800Y218800
X38800Y214000
X38800Y209200
X38800Y204400
X38800Y199000
X38800Y194200
X38800Y189400
X38800Y184000
X38800Y179200
X38800Y174400
X38800Y169000
X38800Y164200
X38800Y159400
X38800Y154000
X38800Y149200
X38800Y144400
X38800Y139000
X38800Y134200
X38800Y129400
X38800Y124000
X38800Y119200
X38800Y114400
X38800Y109000
X38800Y104200
X38800Y99400
X38800Y94000
X38800Y89200
X38800Y84400
X38800Y79000
X38800Y74200
X38800Y69400
X38800Y64000
X38800Y59200
X38800Y54400
X38800Y49000
X34600Y40600
X65800Y22600
X70600Y22600
X76000Y22600
X80800Y22600
X85600Y22600
X91000Y22600
X95800Y22600
X100600Y22600
X106000Y22600
X113800Y18400
X142000Y18400
X151000Y22600
X155800Y22600
X160600Y22600
X166000Y22600
X170800Y22600
X175600Y22600
X181000Y22600
X185800Y22600
X193600Y18400
X217000Y44200
X217000Y49000
X217000Y54400
X217000Y59200
X217000Y64000
X217000Y68800
X217000Y74200
X217000Y79000
X217000Y83800
X217000Y89200
X217000Y94000
X217000Y99400
X217000Y104200
X217000Y109000
X217000Y114400
X217000Y119200
X217000Y124000
X217000Y128800
X217000Y134200
X217000Y139000
X217000Y144400
X217000Y149200
X217000Y154000
X217000Y158800
X217000Y164200
X217000Y169000
X217000Y173800
X217000Y179200
X217000Y184000
X217000Y188800
X217000Y194200
X217000Y199000
X217000Y203800
X217000Y209200
X217000Y214000
X217000Y218800
X217000Y224200
X217000Y229000
X217000Y233800
X217000Y239200
X217000Y244000
X217000Y248800
X217000Y254200
X217000Y259000
X217000Y263800
X217000Y269200
X217000Y274000
X217000Y278800
X217000Y284200
X217000Y289000
X217000Y294400
X217000Y299200
X217000Y304000
X217000Y308800
X217000Y314200
X217000Y319000
X217000Y324400
X217000Y329200
X217000Y334000
X217000Y339400
X209800Y331600
X199600Y321400
X208600Y316600
X194800Y306400
X175600Y290200
X165400Y310000
X152800Y320200
X152800Y330400
X141400Y328000
X133000Y320200
X134200Y311800
X137800Y300400
X143200Y300400
X139600Y290200
X152800Y290200
X152200Y280000
X160000Y281800
X160000Y271600
X152800Y270400
X152200Y260200
X152200Y250000
X160600Y241600
X161800Y232000
X152200Y232000
X141400Y226600
X140800Y239200
X139000Y250000
X141400Y256000
X163000Y260200
X166000Y262000
X165400Y250000
X181000Y259000
X199000Y256600
X233200Y254200
X233200Y249400
X233200Y244000
X233200Y239200
X233200Y234400
X233200Y229000
X233200Y224200
X233200Y219400
X233200Y214000
X233200Y209200
X233200Y204400
X233200Y199000
X233200Y194200
X233200Y189400
X233200Y184000
X233200Y179200
X233200Y174400
X233200Y169000
X233200Y164200
X233200Y159400
X233200Y154000
X233200Y149200
X233200Y143800
X233200Y139000
X233200Y134200
X233200Y129400
X233200Y124000
X233200Y119200
X233200Y114400
X233200Y109000
X233200Y104200
X233200Y98800
X233200Y94000
X233200Y89200
X233200Y83800
X233200Y79000
X233200Y74200
X233200Y69400
X233200Y64000
X233200Y59200
X233200Y53800
X233200Y49000
X229000Y40600
X181600Y77800
X167800Y73600
X167800Y62800
X169000Y51400
X154600Y65800
X141400Y79600
X139600Y91600
X146200Y91600
X155800Y99400
X167800Y113800
X167800Y116800
X175600Y112000
X175600Y121600
X180400Y120400
X171400Y131200
X166000Y140200
X166000Y150400
X154000Y149200
X154000Y152200
X152800Y170200
X152800Y180400
X154600Y187600
X154600Y197200
X154600Y209200
X162400Y220000
X164800Y210400
X165400Y190000
X139000Y202000
X136600Y191800
X134200Y172000
X130600Y161800
X123400Y172000
X121000Y161800
X118600Y151600
X116200Y140200
X115000Y134800
X104200Y131800
X101800Y126400
X101200Y122800
X97000Y121600
X91000Y130000
X85000Y141400
X91000Y150400
X91000Y160000
X85000Y171400
X90400Y180400
X91000Y190000
X101800Y176800
X105400Y161800
X104200Y151600
X101800Y146200
X117400Y181600
X104200Y191800
X102400Y209800
X104800Y220000
X112000Y220000
X117400Y221800
X117400Y211600
X104200Y230200
X92200Y230200
X91000Y240400
X91000Y250000
X103000Y259600
X101800Y267400
X101800Y270400
X101800Y278200
X101800Y286000
X101800Y296800
X101800Y301600
X101800Y304600
X99400Y320200
X108400Y320200
X113200Y311800
X118000Y320200
X100600Y353200
X100600Y361000
X95800Y361000
X90400Y361000
X85600Y361000
X80800Y361000
X76000Y361000
X70600Y361000
X65800Y361000
X52600Y316600
X56200Y306400
X75400Y296800
X88600Y298000
X94600Y271000
X85600Y270400
X115600Y275800
X115600Y259600
X118600Y241600
X67600Y200200
X130000Y151600
X139000Y142000
X141400Y130000
X152800Y131800
X136600Y112000
X119800Y91600
X115000Y97600
X117400Y101800
X104800Y90400
X104200Y71800
X104200Y61600
X110800Y60400
X117400Y71800
X140800Y62800
X233200Y259000
X233200Y263800
X233200Y269200
X233200Y274000
X233200Y278800
X233200Y284200
X233200Y289000
X233200Y294400
X233200Y299200
X233200Y304000
X233200Y309400
X233200Y314200
X233200Y319000
X233200Y324400
X233200Y329200
X233200Y334000
X233200Y338800
X190600Y361000
X185800Y361000
X181000Y361000
X175600Y361000
X170800Y361000
X166000Y361000
X160600Y361000
X155800Y361000
X150400Y361000
X145000Y361000
X142000Y373000
X150400Y377800
X155800Y377800
X160600Y377800
X166000Y377800
X170800Y377800
X175600Y377800
X180400Y377800
X185200Y377800
X193600Y373000
X175600Y340000
X110800Y361000
X106000Y361000
X106000Y377800
X110800Y377800
X100600Y377800
X95800Y377800
X94600Y382600
X90400Y377800
X85600Y377800
X80800Y377800
X76000Y377800
X70600Y377800
X65800Y377800
T02
X56000Y348500
X201000Y348500
X201000Y33500
X56000Y33500
M30
