G75*
%MOIN*%
%OFA0B0*%
%FSLAX25Y25*%
%IPPOS*%
%LPD*%
%AMOC8*
5,1,8,0,0,1.08239X$1,22.5*
%
%ADD10C,0.00000*%
%ADD11C,0.00800*%
D10*
X0001000Y0001000D02*
X0001000Y0394701D01*
X0318421Y0394701D01*
X0318421Y0001000D01*
X0001000Y0001000D01*
X0071897Y0043402D02*
X0071899Y0043555D01*
X0071905Y0043709D01*
X0071915Y0043862D01*
X0071929Y0044014D01*
X0071947Y0044167D01*
X0071969Y0044318D01*
X0071994Y0044469D01*
X0072024Y0044620D01*
X0072058Y0044770D01*
X0072095Y0044918D01*
X0072136Y0045066D01*
X0072181Y0045212D01*
X0072230Y0045358D01*
X0072283Y0045502D01*
X0072339Y0045644D01*
X0072399Y0045785D01*
X0072463Y0045925D01*
X0072530Y0046063D01*
X0072601Y0046199D01*
X0072676Y0046333D01*
X0072753Y0046465D01*
X0072835Y0046595D01*
X0072919Y0046723D01*
X0073007Y0046849D01*
X0073098Y0046972D01*
X0073192Y0047093D01*
X0073290Y0047211D01*
X0073390Y0047327D01*
X0073494Y0047440D01*
X0073600Y0047551D01*
X0073709Y0047659D01*
X0073821Y0047764D01*
X0073935Y0047865D01*
X0074053Y0047964D01*
X0074172Y0048060D01*
X0074294Y0048153D01*
X0074419Y0048242D01*
X0074546Y0048329D01*
X0074675Y0048411D01*
X0074806Y0048491D01*
X0074939Y0048567D01*
X0075074Y0048640D01*
X0075211Y0048709D01*
X0075350Y0048774D01*
X0075490Y0048836D01*
X0075632Y0048894D01*
X0075775Y0048949D01*
X0075920Y0049000D01*
X0076066Y0049047D01*
X0076213Y0049090D01*
X0076361Y0049129D01*
X0076510Y0049165D01*
X0076660Y0049196D01*
X0076811Y0049224D01*
X0076962Y0049248D01*
X0077115Y0049268D01*
X0077267Y0049284D01*
X0077420Y0049296D01*
X0077573Y0049304D01*
X0077726Y0049308D01*
X0077880Y0049308D01*
X0078033Y0049304D01*
X0078186Y0049296D01*
X0078339Y0049284D01*
X0078491Y0049268D01*
X0078644Y0049248D01*
X0078795Y0049224D01*
X0078946Y0049196D01*
X0079096Y0049165D01*
X0079245Y0049129D01*
X0079393Y0049090D01*
X0079540Y0049047D01*
X0079686Y0049000D01*
X0079831Y0048949D01*
X0079974Y0048894D01*
X0080116Y0048836D01*
X0080256Y0048774D01*
X0080395Y0048709D01*
X0080532Y0048640D01*
X0080667Y0048567D01*
X0080800Y0048491D01*
X0080931Y0048411D01*
X0081060Y0048329D01*
X0081187Y0048242D01*
X0081312Y0048153D01*
X0081434Y0048060D01*
X0081553Y0047964D01*
X0081671Y0047865D01*
X0081785Y0047764D01*
X0081897Y0047659D01*
X0082006Y0047551D01*
X0082112Y0047440D01*
X0082216Y0047327D01*
X0082316Y0047211D01*
X0082414Y0047093D01*
X0082508Y0046972D01*
X0082599Y0046849D01*
X0082687Y0046723D01*
X0082771Y0046595D01*
X0082853Y0046465D01*
X0082930Y0046333D01*
X0083005Y0046199D01*
X0083076Y0046063D01*
X0083143Y0045925D01*
X0083207Y0045785D01*
X0083267Y0045644D01*
X0083323Y0045502D01*
X0083376Y0045358D01*
X0083425Y0045212D01*
X0083470Y0045066D01*
X0083511Y0044918D01*
X0083548Y0044770D01*
X0083582Y0044620D01*
X0083612Y0044469D01*
X0083637Y0044318D01*
X0083659Y0044167D01*
X0083677Y0044014D01*
X0083691Y0043862D01*
X0083701Y0043709D01*
X0083707Y0043555D01*
X0083709Y0043402D01*
X0083707Y0043249D01*
X0083701Y0043095D01*
X0083691Y0042942D01*
X0083677Y0042790D01*
X0083659Y0042637D01*
X0083637Y0042486D01*
X0083612Y0042335D01*
X0083582Y0042184D01*
X0083548Y0042034D01*
X0083511Y0041886D01*
X0083470Y0041738D01*
X0083425Y0041592D01*
X0083376Y0041446D01*
X0083323Y0041302D01*
X0083267Y0041160D01*
X0083207Y0041019D01*
X0083143Y0040879D01*
X0083076Y0040741D01*
X0083005Y0040605D01*
X0082930Y0040471D01*
X0082853Y0040339D01*
X0082771Y0040209D01*
X0082687Y0040081D01*
X0082599Y0039955D01*
X0082508Y0039832D01*
X0082414Y0039711D01*
X0082316Y0039593D01*
X0082216Y0039477D01*
X0082112Y0039364D01*
X0082006Y0039253D01*
X0081897Y0039145D01*
X0081785Y0039040D01*
X0081671Y0038939D01*
X0081553Y0038840D01*
X0081434Y0038744D01*
X0081312Y0038651D01*
X0081187Y0038562D01*
X0081060Y0038475D01*
X0080931Y0038393D01*
X0080800Y0038313D01*
X0080667Y0038237D01*
X0080532Y0038164D01*
X0080395Y0038095D01*
X0080256Y0038030D01*
X0080116Y0037968D01*
X0079974Y0037910D01*
X0079831Y0037855D01*
X0079686Y0037804D01*
X0079540Y0037757D01*
X0079393Y0037714D01*
X0079245Y0037675D01*
X0079096Y0037639D01*
X0078946Y0037608D01*
X0078795Y0037580D01*
X0078644Y0037556D01*
X0078491Y0037536D01*
X0078339Y0037520D01*
X0078186Y0037508D01*
X0078033Y0037500D01*
X0077880Y0037496D01*
X0077726Y0037496D01*
X0077573Y0037500D01*
X0077420Y0037508D01*
X0077267Y0037520D01*
X0077115Y0037536D01*
X0076962Y0037556D01*
X0076811Y0037580D01*
X0076660Y0037608D01*
X0076510Y0037639D01*
X0076361Y0037675D01*
X0076213Y0037714D01*
X0076066Y0037757D01*
X0075920Y0037804D01*
X0075775Y0037855D01*
X0075632Y0037910D01*
X0075490Y0037968D01*
X0075350Y0038030D01*
X0075211Y0038095D01*
X0075074Y0038164D01*
X0074939Y0038237D01*
X0074806Y0038313D01*
X0074675Y0038393D01*
X0074546Y0038475D01*
X0074419Y0038562D01*
X0074294Y0038651D01*
X0074172Y0038744D01*
X0074053Y0038840D01*
X0073935Y0038939D01*
X0073821Y0039040D01*
X0073709Y0039145D01*
X0073600Y0039253D01*
X0073494Y0039364D01*
X0073390Y0039477D01*
X0073290Y0039593D01*
X0073192Y0039711D01*
X0073098Y0039832D01*
X0073007Y0039955D01*
X0072919Y0040081D01*
X0072835Y0040209D01*
X0072753Y0040339D01*
X0072676Y0040471D01*
X0072601Y0040605D01*
X0072530Y0040741D01*
X0072463Y0040879D01*
X0072399Y0041019D01*
X0072339Y0041160D01*
X0072283Y0041302D01*
X0072230Y0041446D01*
X0072181Y0041592D01*
X0072136Y0041738D01*
X0072095Y0041886D01*
X0072058Y0042034D01*
X0072024Y0042184D01*
X0071994Y0042335D01*
X0071969Y0042486D01*
X0071947Y0042637D01*
X0071929Y0042790D01*
X0071915Y0042942D01*
X0071905Y0043095D01*
X0071899Y0043249D01*
X0071897Y0043402D01*
X0233314Y0043402D02*
X0233316Y0043555D01*
X0233322Y0043709D01*
X0233332Y0043862D01*
X0233346Y0044014D01*
X0233364Y0044167D01*
X0233386Y0044318D01*
X0233411Y0044469D01*
X0233441Y0044620D01*
X0233475Y0044770D01*
X0233512Y0044918D01*
X0233553Y0045066D01*
X0233598Y0045212D01*
X0233647Y0045358D01*
X0233700Y0045502D01*
X0233756Y0045644D01*
X0233816Y0045785D01*
X0233880Y0045925D01*
X0233947Y0046063D01*
X0234018Y0046199D01*
X0234093Y0046333D01*
X0234170Y0046465D01*
X0234252Y0046595D01*
X0234336Y0046723D01*
X0234424Y0046849D01*
X0234515Y0046972D01*
X0234609Y0047093D01*
X0234707Y0047211D01*
X0234807Y0047327D01*
X0234911Y0047440D01*
X0235017Y0047551D01*
X0235126Y0047659D01*
X0235238Y0047764D01*
X0235352Y0047865D01*
X0235470Y0047964D01*
X0235589Y0048060D01*
X0235711Y0048153D01*
X0235836Y0048242D01*
X0235963Y0048329D01*
X0236092Y0048411D01*
X0236223Y0048491D01*
X0236356Y0048567D01*
X0236491Y0048640D01*
X0236628Y0048709D01*
X0236767Y0048774D01*
X0236907Y0048836D01*
X0237049Y0048894D01*
X0237192Y0048949D01*
X0237337Y0049000D01*
X0237483Y0049047D01*
X0237630Y0049090D01*
X0237778Y0049129D01*
X0237927Y0049165D01*
X0238077Y0049196D01*
X0238228Y0049224D01*
X0238379Y0049248D01*
X0238532Y0049268D01*
X0238684Y0049284D01*
X0238837Y0049296D01*
X0238990Y0049304D01*
X0239143Y0049308D01*
X0239297Y0049308D01*
X0239450Y0049304D01*
X0239603Y0049296D01*
X0239756Y0049284D01*
X0239908Y0049268D01*
X0240061Y0049248D01*
X0240212Y0049224D01*
X0240363Y0049196D01*
X0240513Y0049165D01*
X0240662Y0049129D01*
X0240810Y0049090D01*
X0240957Y0049047D01*
X0241103Y0049000D01*
X0241248Y0048949D01*
X0241391Y0048894D01*
X0241533Y0048836D01*
X0241673Y0048774D01*
X0241812Y0048709D01*
X0241949Y0048640D01*
X0242084Y0048567D01*
X0242217Y0048491D01*
X0242348Y0048411D01*
X0242477Y0048329D01*
X0242604Y0048242D01*
X0242729Y0048153D01*
X0242851Y0048060D01*
X0242970Y0047964D01*
X0243088Y0047865D01*
X0243202Y0047764D01*
X0243314Y0047659D01*
X0243423Y0047551D01*
X0243529Y0047440D01*
X0243633Y0047327D01*
X0243733Y0047211D01*
X0243831Y0047093D01*
X0243925Y0046972D01*
X0244016Y0046849D01*
X0244104Y0046723D01*
X0244188Y0046595D01*
X0244270Y0046465D01*
X0244347Y0046333D01*
X0244422Y0046199D01*
X0244493Y0046063D01*
X0244560Y0045925D01*
X0244624Y0045785D01*
X0244684Y0045644D01*
X0244740Y0045502D01*
X0244793Y0045358D01*
X0244842Y0045212D01*
X0244887Y0045066D01*
X0244928Y0044918D01*
X0244965Y0044770D01*
X0244999Y0044620D01*
X0245029Y0044469D01*
X0245054Y0044318D01*
X0245076Y0044167D01*
X0245094Y0044014D01*
X0245108Y0043862D01*
X0245118Y0043709D01*
X0245124Y0043555D01*
X0245126Y0043402D01*
X0245124Y0043249D01*
X0245118Y0043095D01*
X0245108Y0042942D01*
X0245094Y0042790D01*
X0245076Y0042637D01*
X0245054Y0042486D01*
X0245029Y0042335D01*
X0244999Y0042184D01*
X0244965Y0042034D01*
X0244928Y0041886D01*
X0244887Y0041738D01*
X0244842Y0041592D01*
X0244793Y0041446D01*
X0244740Y0041302D01*
X0244684Y0041160D01*
X0244624Y0041019D01*
X0244560Y0040879D01*
X0244493Y0040741D01*
X0244422Y0040605D01*
X0244347Y0040471D01*
X0244270Y0040339D01*
X0244188Y0040209D01*
X0244104Y0040081D01*
X0244016Y0039955D01*
X0243925Y0039832D01*
X0243831Y0039711D01*
X0243733Y0039593D01*
X0243633Y0039477D01*
X0243529Y0039364D01*
X0243423Y0039253D01*
X0243314Y0039145D01*
X0243202Y0039040D01*
X0243088Y0038939D01*
X0242970Y0038840D01*
X0242851Y0038744D01*
X0242729Y0038651D01*
X0242604Y0038562D01*
X0242477Y0038475D01*
X0242348Y0038393D01*
X0242217Y0038313D01*
X0242084Y0038237D01*
X0241949Y0038164D01*
X0241812Y0038095D01*
X0241673Y0038030D01*
X0241533Y0037968D01*
X0241391Y0037910D01*
X0241248Y0037855D01*
X0241103Y0037804D01*
X0240957Y0037757D01*
X0240810Y0037714D01*
X0240662Y0037675D01*
X0240513Y0037639D01*
X0240363Y0037608D01*
X0240212Y0037580D01*
X0240061Y0037556D01*
X0239908Y0037536D01*
X0239756Y0037520D01*
X0239603Y0037508D01*
X0239450Y0037500D01*
X0239297Y0037496D01*
X0239143Y0037496D01*
X0238990Y0037500D01*
X0238837Y0037508D01*
X0238684Y0037520D01*
X0238532Y0037536D01*
X0238379Y0037556D01*
X0238228Y0037580D01*
X0238077Y0037608D01*
X0237927Y0037639D01*
X0237778Y0037675D01*
X0237630Y0037714D01*
X0237483Y0037757D01*
X0237337Y0037804D01*
X0237192Y0037855D01*
X0237049Y0037910D01*
X0236907Y0037968D01*
X0236767Y0038030D01*
X0236628Y0038095D01*
X0236491Y0038164D01*
X0236356Y0038237D01*
X0236223Y0038313D01*
X0236092Y0038393D01*
X0235963Y0038475D01*
X0235836Y0038562D01*
X0235711Y0038651D01*
X0235589Y0038744D01*
X0235470Y0038840D01*
X0235352Y0038939D01*
X0235238Y0039040D01*
X0235126Y0039145D01*
X0235017Y0039253D01*
X0234911Y0039364D01*
X0234807Y0039477D01*
X0234707Y0039593D01*
X0234609Y0039711D01*
X0234515Y0039832D01*
X0234424Y0039955D01*
X0234336Y0040081D01*
X0234252Y0040209D01*
X0234170Y0040339D01*
X0234093Y0040471D01*
X0234018Y0040605D01*
X0233947Y0040741D01*
X0233880Y0040879D01*
X0233816Y0041019D01*
X0233756Y0041160D01*
X0233700Y0041302D01*
X0233647Y0041446D01*
X0233598Y0041592D01*
X0233553Y0041738D01*
X0233512Y0041886D01*
X0233475Y0042034D01*
X0233441Y0042184D01*
X0233411Y0042335D01*
X0233386Y0042486D01*
X0233364Y0042637D01*
X0233346Y0042790D01*
X0233332Y0042942D01*
X0233322Y0043095D01*
X0233316Y0043249D01*
X0233314Y0043402D01*
X0233314Y0340646D02*
X0233316Y0340799D01*
X0233322Y0340953D01*
X0233332Y0341106D01*
X0233346Y0341258D01*
X0233364Y0341411D01*
X0233386Y0341562D01*
X0233411Y0341713D01*
X0233441Y0341864D01*
X0233475Y0342014D01*
X0233512Y0342162D01*
X0233553Y0342310D01*
X0233598Y0342456D01*
X0233647Y0342602D01*
X0233700Y0342746D01*
X0233756Y0342888D01*
X0233816Y0343029D01*
X0233880Y0343169D01*
X0233947Y0343307D01*
X0234018Y0343443D01*
X0234093Y0343577D01*
X0234170Y0343709D01*
X0234252Y0343839D01*
X0234336Y0343967D01*
X0234424Y0344093D01*
X0234515Y0344216D01*
X0234609Y0344337D01*
X0234707Y0344455D01*
X0234807Y0344571D01*
X0234911Y0344684D01*
X0235017Y0344795D01*
X0235126Y0344903D01*
X0235238Y0345008D01*
X0235352Y0345109D01*
X0235470Y0345208D01*
X0235589Y0345304D01*
X0235711Y0345397D01*
X0235836Y0345486D01*
X0235963Y0345573D01*
X0236092Y0345655D01*
X0236223Y0345735D01*
X0236356Y0345811D01*
X0236491Y0345884D01*
X0236628Y0345953D01*
X0236767Y0346018D01*
X0236907Y0346080D01*
X0237049Y0346138D01*
X0237192Y0346193D01*
X0237337Y0346244D01*
X0237483Y0346291D01*
X0237630Y0346334D01*
X0237778Y0346373D01*
X0237927Y0346409D01*
X0238077Y0346440D01*
X0238228Y0346468D01*
X0238379Y0346492D01*
X0238532Y0346512D01*
X0238684Y0346528D01*
X0238837Y0346540D01*
X0238990Y0346548D01*
X0239143Y0346552D01*
X0239297Y0346552D01*
X0239450Y0346548D01*
X0239603Y0346540D01*
X0239756Y0346528D01*
X0239908Y0346512D01*
X0240061Y0346492D01*
X0240212Y0346468D01*
X0240363Y0346440D01*
X0240513Y0346409D01*
X0240662Y0346373D01*
X0240810Y0346334D01*
X0240957Y0346291D01*
X0241103Y0346244D01*
X0241248Y0346193D01*
X0241391Y0346138D01*
X0241533Y0346080D01*
X0241673Y0346018D01*
X0241812Y0345953D01*
X0241949Y0345884D01*
X0242084Y0345811D01*
X0242217Y0345735D01*
X0242348Y0345655D01*
X0242477Y0345573D01*
X0242604Y0345486D01*
X0242729Y0345397D01*
X0242851Y0345304D01*
X0242970Y0345208D01*
X0243088Y0345109D01*
X0243202Y0345008D01*
X0243314Y0344903D01*
X0243423Y0344795D01*
X0243529Y0344684D01*
X0243633Y0344571D01*
X0243733Y0344455D01*
X0243831Y0344337D01*
X0243925Y0344216D01*
X0244016Y0344093D01*
X0244104Y0343967D01*
X0244188Y0343839D01*
X0244270Y0343709D01*
X0244347Y0343577D01*
X0244422Y0343443D01*
X0244493Y0343307D01*
X0244560Y0343169D01*
X0244624Y0343029D01*
X0244684Y0342888D01*
X0244740Y0342746D01*
X0244793Y0342602D01*
X0244842Y0342456D01*
X0244887Y0342310D01*
X0244928Y0342162D01*
X0244965Y0342014D01*
X0244999Y0341864D01*
X0245029Y0341713D01*
X0245054Y0341562D01*
X0245076Y0341411D01*
X0245094Y0341258D01*
X0245108Y0341106D01*
X0245118Y0340953D01*
X0245124Y0340799D01*
X0245126Y0340646D01*
X0245124Y0340493D01*
X0245118Y0340339D01*
X0245108Y0340186D01*
X0245094Y0340034D01*
X0245076Y0339881D01*
X0245054Y0339730D01*
X0245029Y0339579D01*
X0244999Y0339428D01*
X0244965Y0339278D01*
X0244928Y0339130D01*
X0244887Y0338982D01*
X0244842Y0338836D01*
X0244793Y0338690D01*
X0244740Y0338546D01*
X0244684Y0338404D01*
X0244624Y0338263D01*
X0244560Y0338123D01*
X0244493Y0337985D01*
X0244422Y0337849D01*
X0244347Y0337715D01*
X0244270Y0337583D01*
X0244188Y0337453D01*
X0244104Y0337325D01*
X0244016Y0337199D01*
X0243925Y0337076D01*
X0243831Y0336955D01*
X0243733Y0336837D01*
X0243633Y0336721D01*
X0243529Y0336608D01*
X0243423Y0336497D01*
X0243314Y0336389D01*
X0243202Y0336284D01*
X0243088Y0336183D01*
X0242970Y0336084D01*
X0242851Y0335988D01*
X0242729Y0335895D01*
X0242604Y0335806D01*
X0242477Y0335719D01*
X0242348Y0335637D01*
X0242217Y0335557D01*
X0242084Y0335481D01*
X0241949Y0335408D01*
X0241812Y0335339D01*
X0241673Y0335274D01*
X0241533Y0335212D01*
X0241391Y0335154D01*
X0241248Y0335099D01*
X0241103Y0335048D01*
X0240957Y0335001D01*
X0240810Y0334958D01*
X0240662Y0334919D01*
X0240513Y0334883D01*
X0240363Y0334852D01*
X0240212Y0334824D01*
X0240061Y0334800D01*
X0239908Y0334780D01*
X0239756Y0334764D01*
X0239603Y0334752D01*
X0239450Y0334744D01*
X0239297Y0334740D01*
X0239143Y0334740D01*
X0238990Y0334744D01*
X0238837Y0334752D01*
X0238684Y0334764D01*
X0238532Y0334780D01*
X0238379Y0334800D01*
X0238228Y0334824D01*
X0238077Y0334852D01*
X0237927Y0334883D01*
X0237778Y0334919D01*
X0237630Y0334958D01*
X0237483Y0335001D01*
X0237337Y0335048D01*
X0237192Y0335099D01*
X0237049Y0335154D01*
X0236907Y0335212D01*
X0236767Y0335274D01*
X0236628Y0335339D01*
X0236491Y0335408D01*
X0236356Y0335481D01*
X0236223Y0335557D01*
X0236092Y0335637D01*
X0235963Y0335719D01*
X0235836Y0335806D01*
X0235711Y0335895D01*
X0235589Y0335988D01*
X0235470Y0336084D01*
X0235352Y0336183D01*
X0235238Y0336284D01*
X0235126Y0336389D01*
X0235017Y0336497D01*
X0234911Y0336608D01*
X0234807Y0336721D01*
X0234707Y0336837D01*
X0234609Y0336955D01*
X0234515Y0337076D01*
X0234424Y0337199D01*
X0234336Y0337325D01*
X0234252Y0337453D01*
X0234170Y0337583D01*
X0234093Y0337715D01*
X0234018Y0337849D01*
X0233947Y0337985D01*
X0233880Y0338123D01*
X0233816Y0338263D01*
X0233756Y0338404D01*
X0233700Y0338546D01*
X0233647Y0338690D01*
X0233598Y0338836D01*
X0233553Y0338982D01*
X0233512Y0339130D01*
X0233475Y0339278D01*
X0233441Y0339428D01*
X0233411Y0339579D01*
X0233386Y0339730D01*
X0233364Y0339881D01*
X0233346Y0340034D01*
X0233332Y0340186D01*
X0233322Y0340339D01*
X0233316Y0340493D01*
X0233314Y0340646D01*
X0071897Y0340646D02*
X0071899Y0340799D01*
X0071905Y0340953D01*
X0071915Y0341106D01*
X0071929Y0341258D01*
X0071947Y0341411D01*
X0071969Y0341562D01*
X0071994Y0341713D01*
X0072024Y0341864D01*
X0072058Y0342014D01*
X0072095Y0342162D01*
X0072136Y0342310D01*
X0072181Y0342456D01*
X0072230Y0342602D01*
X0072283Y0342746D01*
X0072339Y0342888D01*
X0072399Y0343029D01*
X0072463Y0343169D01*
X0072530Y0343307D01*
X0072601Y0343443D01*
X0072676Y0343577D01*
X0072753Y0343709D01*
X0072835Y0343839D01*
X0072919Y0343967D01*
X0073007Y0344093D01*
X0073098Y0344216D01*
X0073192Y0344337D01*
X0073290Y0344455D01*
X0073390Y0344571D01*
X0073494Y0344684D01*
X0073600Y0344795D01*
X0073709Y0344903D01*
X0073821Y0345008D01*
X0073935Y0345109D01*
X0074053Y0345208D01*
X0074172Y0345304D01*
X0074294Y0345397D01*
X0074419Y0345486D01*
X0074546Y0345573D01*
X0074675Y0345655D01*
X0074806Y0345735D01*
X0074939Y0345811D01*
X0075074Y0345884D01*
X0075211Y0345953D01*
X0075350Y0346018D01*
X0075490Y0346080D01*
X0075632Y0346138D01*
X0075775Y0346193D01*
X0075920Y0346244D01*
X0076066Y0346291D01*
X0076213Y0346334D01*
X0076361Y0346373D01*
X0076510Y0346409D01*
X0076660Y0346440D01*
X0076811Y0346468D01*
X0076962Y0346492D01*
X0077115Y0346512D01*
X0077267Y0346528D01*
X0077420Y0346540D01*
X0077573Y0346548D01*
X0077726Y0346552D01*
X0077880Y0346552D01*
X0078033Y0346548D01*
X0078186Y0346540D01*
X0078339Y0346528D01*
X0078491Y0346512D01*
X0078644Y0346492D01*
X0078795Y0346468D01*
X0078946Y0346440D01*
X0079096Y0346409D01*
X0079245Y0346373D01*
X0079393Y0346334D01*
X0079540Y0346291D01*
X0079686Y0346244D01*
X0079831Y0346193D01*
X0079974Y0346138D01*
X0080116Y0346080D01*
X0080256Y0346018D01*
X0080395Y0345953D01*
X0080532Y0345884D01*
X0080667Y0345811D01*
X0080800Y0345735D01*
X0080931Y0345655D01*
X0081060Y0345573D01*
X0081187Y0345486D01*
X0081312Y0345397D01*
X0081434Y0345304D01*
X0081553Y0345208D01*
X0081671Y0345109D01*
X0081785Y0345008D01*
X0081897Y0344903D01*
X0082006Y0344795D01*
X0082112Y0344684D01*
X0082216Y0344571D01*
X0082316Y0344455D01*
X0082414Y0344337D01*
X0082508Y0344216D01*
X0082599Y0344093D01*
X0082687Y0343967D01*
X0082771Y0343839D01*
X0082853Y0343709D01*
X0082930Y0343577D01*
X0083005Y0343443D01*
X0083076Y0343307D01*
X0083143Y0343169D01*
X0083207Y0343029D01*
X0083267Y0342888D01*
X0083323Y0342746D01*
X0083376Y0342602D01*
X0083425Y0342456D01*
X0083470Y0342310D01*
X0083511Y0342162D01*
X0083548Y0342014D01*
X0083582Y0341864D01*
X0083612Y0341713D01*
X0083637Y0341562D01*
X0083659Y0341411D01*
X0083677Y0341258D01*
X0083691Y0341106D01*
X0083701Y0340953D01*
X0083707Y0340799D01*
X0083709Y0340646D01*
X0083707Y0340493D01*
X0083701Y0340339D01*
X0083691Y0340186D01*
X0083677Y0340034D01*
X0083659Y0339881D01*
X0083637Y0339730D01*
X0083612Y0339579D01*
X0083582Y0339428D01*
X0083548Y0339278D01*
X0083511Y0339130D01*
X0083470Y0338982D01*
X0083425Y0338836D01*
X0083376Y0338690D01*
X0083323Y0338546D01*
X0083267Y0338404D01*
X0083207Y0338263D01*
X0083143Y0338123D01*
X0083076Y0337985D01*
X0083005Y0337849D01*
X0082930Y0337715D01*
X0082853Y0337583D01*
X0082771Y0337453D01*
X0082687Y0337325D01*
X0082599Y0337199D01*
X0082508Y0337076D01*
X0082414Y0336955D01*
X0082316Y0336837D01*
X0082216Y0336721D01*
X0082112Y0336608D01*
X0082006Y0336497D01*
X0081897Y0336389D01*
X0081785Y0336284D01*
X0081671Y0336183D01*
X0081553Y0336084D01*
X0081434Y0335988D01*
X0081312Y0335895D01*
X0081187Y0335806D01*
X0081060Y0335719D01*
X0080931Y0335637D01*
X0080800Y0335557D01*
X0080667Y0335481D01*
X0080532Y0335408D01*
X0080395Y0335339D01*
X0080256Y0335274D01*
X0080116Y0335212D01*
X0079974Y0335154D01*
X0079831Y0335099D01*
X0079686Y0335048D01*
X0079540Y0335001D01*
X0079393Y0334958D01*
X0079245Y0334919D01*
X0079096Y0334883D01*
X0078946Y0334852D01*
X0078795Y0334824D01*
X0078644Y0334800D01*
X0078491Y0334780D01*
X0078339Y0334764D01*
X0078186Y0334752D01*
X0078033Y0334744D01*
X0077880Y0334740D01*
X0077726Y0334740D01*
X0077573Y0334744D01*
X0077420Y0334752D01*
X0077267Y0334764D01*
X0077115Y0334780D01*
X0076962Y0334800D01*
X0076811Y0334824D01*
X0076660Y0334852D01*
X0076510Y0334883D01*
X0076361Y0334919D01*
X0076213Y0334958D01*
X0076066Y0335001D01*
X0075920Y0335048D01*
X0075775Y0335099D01*
X0075632Y0335154D01*
X0075490Y0335212D01*
X0075350Y0335274D01*
X0075211Y0335339D01*
X0075074Y0335408D01*
X0074939Y0335481D01*
X0074806Y0335557D01*
X0074675Y0335637D01*
X0074546Y0335719D01*
X0074419Y0335806D01*
X0074294Y0335895D01*
X0074172Y0335988D01*
X0074053Y0336084D01*
X0073935Y0336183D01*
X0073821Y0336284D01*
X0073709Y0336389D01*
X0073600Y0336497D01*
X0073494Y0336608D01*
X0073390Y0336721D01*
X0073290Y0336837D01*
X0073192Y0336955D01*
X0073098Y0337076D01*
X0073007Y0337199D01*
X0072919Y0337325D01*
X0072835Y0337453D01*
X0072753Y0337583D01*
X0072676Y0337715D01*
X0072601Y0337849D01*
X0072530Y0337985D01*
X0072463Y0338123D01*
X0072399Y0338263D01*
X0072339Y0338404D01*
X0072283Y0338546D01*
X0072230Y0338690D01*
X0072181Y0338836D01*
X0072136Y0338982D01*
X0072095Y0339130D01*
X0072058Y0339278D01*
X0072024Y0339428D01*
X0071994Y0339579D01*
X0071969Y0339730D01*
X0071947Y0339881D01*
X0071929Y0340034D01*
X0071915Y0340186D01*
X0071905Y0340339D01*
X0071899Y0340493D01*
X0071897Y0340646D01*
D11*
X0094677Y0339957D02*
X0094677Y0334957D01*
X0097177Y0332457D01*
X0094677Y0329957D01*
X0094677Y0324957D01*
X0097177Y0322457D01*
X0094677Y0319957D01*
X0094677Y0314957D01*
X0097177Y0312457D01*
X0094677Y0309957D01*
X0094677Y0304957D01*
X0097177Y0302457D01*
X0094677Y0299957D01*
X0094677Y0294957D01*
X0097177Y0292457D01*
X0094677Y0289957D01*
X0094677Y0284957D01*
X0097177Y0282457D01*
X0094677Y0279957D01*
X0094677Y0274957D01*
X0097177Y0272457D01*
X0094677Y0269957D01*
X0094677Y0264957D01*
X0097177Y0262457D01*
X0094677Y0259957D01*
X0094677Y0254957D01*
X0097177Y0252457D01*
X0094677Y0249957D01*
X0094677Y0244957D01*
X0097177Y0242457D01*
X0094677Y0239957D01*
X0094677Y0234957D01*
X0097177Y0232457D01*
X0094677Y0229957D01*
X0094677Y0224957D01*
X0097177Y0222457D01*
X0094677Y0219957D01*
X0094677Y0214957D01*
X0097177Y0212457D01*
X0094677Y0209957D01*
X0094677Y0204957D01*
X0097177Y0202457D01*
X0094677Y0199957D01*
X0094677Y0194957D01*
X0097177Y0192457D01*
X0094677Y0189957D01*
X0094677Y0184957D01*
X0097177Y0182457D01*
X0094677Y0179957D01*
X0094677Y0174957D01*
X0097177Y0172457D01*
X0094677Y0169957D01*
X0094677Y0164957D01*
X0097177Y0162457D01*
X0094677Y0159957D01*
X0094677Y0154957D01*
X0097177Y0152457D01*
X0094677Y0149957D01*
X0094677Y0144957D01*
X0097177Y0142457D01*
X0094677Y0139957D01*
X0094677Y0134957D01*
X0097177Y0132457D01*
X0094677Y0129957D01*
X0094677Y0124957D01*
X0097177Y0122457D01*
X0094677Y0119957D01*
X0094677Y0114957D01*
X0097177Y0112457D01*
X0094677Y0109957D01*
X0094677Y0104957D01*
X0097177Y0102457D01*
X0094677Y0099957D01*
X0094677Y0094957D01*
X0097177Y0092457D01*
X0094677Y0089957D01*
X0094677Y0084957D01*
X0097177Y0082457D01*
X0094677Y0079957D01*
X0094677Y0074957D01*
X0097177Y0072457D01*
X0094677Y0069957D01*
X0094677Y0064957D01*
X0097177Y0062457D01*
X0094677Y0059957D01*
X0094677Y0054957D01*
X0097177Y0052457D01*
X0094677Y0049957D01*
X0094677Y0044957D01*
X0097177Y0042457D01*
X0102177Y0042457D01*
X0104677Y0044957D01*
X0107177Y0042457D01*
X0112177Y0042457D01*
X0114677Y0044957D01*
X0117177Y0042457D01*
X0122177Y0042457D01*
X0124677Y0044957D01*
X0127177Y0042457D01*
X0132177Y0042457D01*
X0134677Y0044957D01*
X0137177Y0042457D01*
X0142177Y0042457D01*
X0144677Y0044957D01*
X0144677Y0049957D01*
X0142177Y0052457D01*
X0137177Y0052457D01*
X0134677Y0049957D01*
X0134677Y0044957D01*
X0134677Y0049957D01*
X0132177Y0052457D01*
X0127177Y0052457D01*
X0124677Y0049957D01*
X0124677Y0044957D01*
X0124677Y0049957D01*
X0122177Y0052457D01*
X0117177Y0052457D01*
X0114677Y0049957D01*
X0114677Y0044957D01*
X0114677Y0049957D01*
X0112177Y0052457D01*
X0107177Y0052457D01*
X0104677Y0049957D01*
X0104677Y0044957D01*
X0104677Y0049957D01*
X0102177Y0052457D01*
X0097177Y0052457D01*
X0102177Y0052457D01*
X0104677Y0054957D01*
X0107177Y0052457D01*
X0112177Y0052457D01*
X0114677Y0054957D01*
X0117177Y0052457D01*
X0122177Y0052457D01*
X0124677Y0054957D01*
X0127177Y0052457D01*
X0132177Y0052457D01*
X0134677Y0054957D01*
X0137177Y0052457D01*
X0142177Y0052457D01*
X0144677Y0054957D01*
X0144677Y0059957D01*
X0142177Y0062457D01*
X0137177Y0062457D01*
X0134677Y0059957D01*
X0134677Y0054957D01*
X0134677Y0059957D01*
X0132177Y0062457D01*
X0127177Y0062457D01*
X0124677Y0059957D01*
X0124677Y0054957D01*
X0124677Y0059957D01*
X0122177Y0062457D01*
X0117177Y0062457D01*
X0114677Y0059957D01*
X0114677Y0054957D01*
X0114677Y0059957D01*
X0112177Y0062457D01*
X0107177Y0062457D01*
X0104677Y0059957D01*
X0104677Y0054957D01*
X0104677Y0059957D01*
X0102177Y0062457D01*
X0097177Y0062457D01*
X0102177Y0062457D01*
X0104677Y0064957D01*
X0107177Y0062457D01*
X0112177Y0062457D01*
X0114677Y0064957D01*
X0117177Y0062457D01*
X0122177Y0062457D01*
X0124677Y0064957D01*
X0127177Y0062457D01*
X0132177Y0062457D01*
X0134677Y0064957D01*
X0137177Y0062457D01*
X0142177Y0062457D01*
X0144677Y0064957D01*
X0144677Y0069957D01*
X0142177Y0072457D01*
X0137177Y0072457D01*
X0134677Y0069957D01*
X0134677Y0064957D01*
X0134677Y0069957D01*
X0132177Y0072457D01*
X0127177Y0072457D01*
X0124677Y0069957D01*
X0124677Y0064957D01*
X0124677Y0069957D01*
X0122177Y0072457D01*
X0117177Y0072457D01*
X0114677Y0069957D01*
X0114677Y0064957D01*
X0114677Y0069957D01*
X0112177Y0072457D01*
X0107177Y0072457D01*
X0104677Y0069957D01*
X0104677Y0064957D01*
X0104677Y0069957D01*
X0102177Y0072457D01*
X0097177Y0072457D01*
X0102177Y0072457D01*
X0104677Y0074957D01*
X0107177Y0072457D01*
X0112177Y0072457D01*
X0114677Y0074957D01*
X0117177Y0072457D01*
X0122177Y0072457D01*
X0124677Y0074957D01*
X0127177Y0072457D01*
X0132177Y0072457D01*
X0134677Y0074957D01*
X0137177Y0072457D01*
X0142177Y0072457D01*
X0144677Y0074957D01*
X0144677Y0079957D01*
X0142177Y0082457D01*
X0137177Y0082457D01*
X0134677Y0079957D01*
X0134677Y0074957D01*
X0134677Y0079957D01*
X0132177Y0082457D01*
X0127177Y0082457D01*
X0124677Y0079957D01*
X0124677Y0074957D01*
X0124677Y0079957D01*
X0122177Y0082457D01*
X0117177Y0082457D01*
X0114677Y0079957D01*
X0114677Y0074957D01*
X0114677Y0079957D01*
X0112177Y0082457D01*
X0107177Y0082457D01*
X0104677Y0079957D01*
X0104677Y0074957D01*
X0104677Y0079957D01*
X0102177Y0082457D01*
X0097177Y0082457D01*
X0102177Y0082457D01*
X0104677Y0084957D01*
X0107177Y0082457D01*
X0112177Y0082457D01*
X0114677Y0084957D01*
X0117177Y0082457D01*
X0122177Y0082457D01*
X0124677Y0084957D01*
X0127177Y0082457D01*
X0132177Y0082457D01*
X0134677Y0084957D01*
X0137177Y0082457D01*
X0142177Y0082457D01*
X0144677Y0084957D01*
X0144677Y0089957D01*
X0142177Y0092457D01*
X0137177Y0092457D01*
X0134677Y0089957D01*
X0134677Y0084957D01*
X0134677Y0089957D01*
X0132177Y0092457D01*
X0127177Y0092457D01*
X0124677Y0089957D01*
X0124677Y0084957D01*
X0124677Y0089957D01*
X0122177Y0092457D01*
X0117177Y0092457D01*
X0114677Y0089957D01*
X0114677Y0084957D01*
X0114677Y0089957D01*
X0112177Y0092457D01*
X0107177Y0092457D01*
X0104677Y0089957D01*
X0104677Y0084957D01*
X0104677Y0089957D01*
X0102177Y0092457D01*
X0097177Y0092457D01*
X0102177Y0092457D01*
X0104677Y0094957D01*
X0107177Y0092457D01*
X0112177Y0092457D01*
X0114677Y0094957D01*
X0117177Y0092457D01*
X0122177Y0092457D01*
X0124677Y0094957D01*
X0127177Y0092457D01*
X0132177Y0092457D01*
X0134677Y0094957D01*
X0137177Y0092457D01*
X0142177Y0092457D01*
X0144677Y0094957D01*
X0144677Y0099957D01*
X0142177Y0102457D01*
X0137177Y0102457D01*
X0134677Y0099957D01*
X0134677Y0094957D01*
X0134677Y0099957D01*
X0132177Y0102457D01*
X0127177Y0102457D01*
X0124677Y0099957D01*
X0124677Y0094957D01*
X0124677Y0099957D01*
X0122177Y0102457D01*
X0117177Y0102457D01*
X0114677Y0099957D01*
X0114677Y0094957D01*
X0114677Y0099957D01*
X0112177Y0102457D01*
X0107177Y0102457D01*
X0104677Y0099957D01*
X0104677Y0094957D01*
X0104677Y0099957D01*
X0102177Y0102457D01*
X0097177Y0102457D01*
X0102177Y0102457D01*
X0104677Y0104957D01*
X0107177Y0102457D01*
X0112177Y0102457D01*
X0114677Y0104957D01*
X0117177Y0102457D01*
X0122177Y0102457D01*
X0124677Y0104957D01*
X0127177Y0102457D01*
X0132177Y0102457D01*
X0134677Y0104957D01*
X0137177Y0102457D01*
X0142177Y0102457D01*
X0144677Y0104957D01*
X0144677Y0109957D01*
X0142177Y0112457D01*
X0137177Y0112457D01*
X0134677Y0109957D01*
X0134677Y0104957D01*
X0134677Y0109957D01*
X0132177Y0112457D01*
X0127177Y0112457D01*
X0124677Y0109957D01*
X0124677Y0104957D01*
X0124677Y0109957D01*
X0122177Y0112457D01*
X0117177Y0112457D01*
X0114677Y0109957D01*
X0114677Y0104957D01*
X0114677Y0109957D01*
X0112177Y0112457D01*
X0107177Y0112457D01*
X0104677Y0109957D01*
X0104677Y0104957D01*
X0104677Y0109957D01*
X0102177Y0112457D01*
X0097177Y0112457D01*
X0102177Y0112457D01*
X0104677Y0114957D01*
X0107177Y0112457D01*
X0112177Y0112457D01*
X0114677Y0114957D01*
X0117177Y0112457D01*
X0122177Y0112457D01*
X0124677Y0114957D01*
X0127177Y0112457D01*
X0132177Y0112457D01*
X0134677Y0114957D01*
X0137177Y0112457D01*
X0142177Y0112457D01*
X0144677Y0114957D01*
X0144677Y0119957D01*
X0142177Y0122457D01*
X0137177Y0122457D01*
X0134677Y0119957D01*
X0134677Y0114957D01*
X0134677Y0119957D01*
X0132177Y0122457D01*
X0127177Y0122457D01*
X0124677Y0119957D01*
X0124677Y0114957D01*
X0124677Y0119957D01*
X0122177Y0122457D01*
X0117177Y0122457D01*
X0114677Y0119957D01*
X0114677Y0114957D01*
X0114677Y0119957D01*
X0112177Y0122457D01*
X0107177Y0122457D01*
X0104677Y0119957D01*
X0104677Y0114957D01*
X0104677Y0119957D01*
X0102177Y0122457D01*
X0097177Y0122457D01*
X0102177Y0122457D01*
X0104677Y0124957D01*
X0107177Y0122457D01*
X0112177Y0122457D01*
X0114677Y0124957D01*
X0117177Y0122457D01*
X0122177Y0122457D01*
X0124677Y0124957D01*
X0127177Y0122457D01*
X0132177Y0122457D01*
X0134677Y0124957D01*
X0137177Y0122457D01*
X0142177Y0122457D01*
X0144677Y0124957D01*
X0144677Y0129957D01*
X0142177Y0132457D01*
X0137177Y0132457D01*
X0134677Y0129957D01*
X0134677Y0124957D01*
X0134677Y0129957D01*
X0132177Y0132457D01*
X0127177Y0132457D01*
X0124677Y0129957D01*
X0124677Y0124957D01*
X0124677Y0129957D01*
X0122177Y0132457D01*
X0117177Y0132457D01*
X0114677Y0129957D01*
X0114677Y0124957D01*
X0114677Y0129957D01*
X0112177Y0132457D01*
X0107177Y0132457D01*
X0104677Y0129957D01*
X0104677Y0124957D01*
X0104677Y0129957D01*
X0102177Y0132457D01*
X0097177Y0132457D01*
X0102177Y0132457D01*
X0104677Y0134957D01*
X0107177Y0132457D01*
X0112177Y0132457D01*
X0114677Y0134957D01*
X0117177Y0132457D01*
X0122177Y0132457D01*
X0124677Y0134957D01*
X0127177Y0132457D01*
X0132177Y0132457D01*
X0134677Y0134957D01*
X0137177Y0132457D01*
X0142177Y0132457D01*
X0144677Y0134957D01*
X0144677Y0139957D01*
X0142177Y0142457D01*
X0137177Y0142457D01*
X0134677Y0139957D01*
X0134677Y0134957D01*
X0134677Y0139957D01*
X0132177Y0142457D01*
X0127177Y0142457D01*
X0124677Y0139957D01*
X0124677Y0134957D01*
X0124677Y0139957D01*
X0122177Y0142457D01*
X0117177Y0142457D01*
X0114677Y0139957D01*
X0114677Y0134957D01*
X0114677Y0139957D01*
X0112177Y0142457D01*
X0107177Y0142457D01*
X0104677Y0139957D01*
X0104677Y0134957D01*
X0104677Y0139957D01*
X0102177Y0142457D01*
X0097177Y0142457D01*
X0102177Y0142457D01*
X0104677Y0144957D01*
X0107177Y0142457D01*
X0112177Y0142457D01*
X0114677Y0144957D01*
X0117177Y0142457D01*
X0122177Y0142457D01*
X0124677Y0144957D01*
X0127177Y0142457D01*
X0132177Y0142457D01*
X0134677Y0144957D01*
X0137177Y0142457D01*
X0142177Y0142457D01*
X0144677Y0144957D01*
X0144677Y0149957D01*
X0142177Y0152457D01*
X0137177Y0152457D01*
X0134677Y0149957D01*
X0134677Y0144957D01*
X0134677Y0149957D01*
X0132177Y0152457D01*
X0127177Y0152457D01*
X0124677Y0149957D01*
X0124677Y0144957D01*
X0124677Y0149957D01*
X0122177Y0152457D01*
X0117177Y0152457D01*
X0114677Y0149957D01*
X0114677Y0144957D01*
X0114677Y0149957D01*
X0112177Y0152457D01*
X0107177Y0152457D01*
X0104677Y0149957D01*
X0104677Y0144957D01*
X0104677Y0149957D01*
X0102177Y0152457D01*
X0097177Y0152457D01*
X0102177Y0152457D01*
X0104677Y0154957D01*
X0107177Y0152457D01*
X0112177Y0152457D01*
X0114677Y0154957D01*
X0117177Y0152457D01*
X0122177Y0152457D01*
X0124677Y0154957D01*
X0127177Y0152457D01*
X0132177Y0152457D01*
X0134677Y0154957D01*
X0137177Y0152457D01*
X0142177Y0152457D01*
X0144677Y0154957D01*
X0144677Y0159957D01*
X0142177Y0162457D01*
X0137177Y0162457D01*
X0134677Y0159957D01*
X0134677Y0154957D01*
X0134677Y0159957D01*
X0132177Y0162457D01*
X0127177Y0162457D01*
X0124677Y0159957D01*
X0124677Y0154957D01*
X0124677Y0159957D01*
X0122177Y0162457D01*
X0117177Y0162457D01*
X0114677Y0159957D01*
X0114677Y0154957D01*
X0114677Y0159957D01*
X0112177Y0162457D01*
X0107177Y0162457D01*
X0104677Y0159957D01*
X0104677Y0154957D01*
X0104677Y0159957D01*
X0102177Y0162457D01*
X0097177Y0162457D01*
X0102177Y0162457D01*
X0104677Y0164957D01*
X0107177Y0162457D01*
X0112177Y0162457D01*
X0114677Y0164957D01*
X0117177Y0162457D01*
X0122177Y0162457D01*
X0124677Y0164957D01*
X0127177Y0162457D01*
X0132177Y0162457D01*
X0134677Y0164957D01*
X0137177Y0162457D01*
X0142177Y0162457D01*
X0144677Y0164957D01*
X0144677Y0169957D01*
X0142177Y0172457D01*
X0137177Y0172457D01*
X0134677Y0169957D01*
X0134677Y0164957D01*
X0134677Y0169957D01*
X0132177Y0172457D01*
X0127177Y0172457D01*
X0124677Y0169957D01*
X0124677Y0164957D01*
X0124677Y0169957D01*
X0122177Y0172457D01*
X0117177Y0172457D01*
X0114677Y0169957D01*
X0114677Y0164957D01*
X0114677Y0169957D01*
X0112177Y0172457D01*
X0107177Y0172457D01*
X0104677Y0169957D01*
X0104677Y0164957D01*
X0104677Y0169957D01*
X0102177Y0172457D01*
X0097177Y0172457D01*
X0102177Y0172457D01*
X0104677Y0174957D01*
X0107177Y0172457D01*
X0112177Y0172457D01*
X0114677Y0174957D01*
X0117177Y0172457D01*
X0122177Y0172457D01*
X0124677Y0174957D01*
X0127177Y0172457D01*
X0132177Y0172457D01*
X0134677Y0174957D01*
X0137177Y0172457D01*
X0142177Y0172457D01*
X0144677Y0174957D01*
X0144677Y0179957D01*
X0142177Y0182457D01*
X0137177Y0182457D01*
X0134677Y0179957D01*
X0134677Y0174957D01*
X0134677Y0179957D01*
X0132177Y0182457D01*
X0127177Y0182457D01*
X0124677Y0179957D01*
X0124677Y0174957D01*
X0124677Y0179957D01*
X0122177Y0182457D01*
X0117177Y0182457D01*
X0114677Y0179957D01*
X0114677Y0174957D01*
X0114677Y0179957D01*
X0112177Y0182457D01*
X0107177Y0182457D01*
X0104677Y0179957D01*
X0104677Y0174957D01*
X0104677Y0179957D01*
X0102177Y0182457D01*
X0097177Y0182457D01*
X0102177Y0182457D01*
X0104677Y0184957D01*
X0107177Y0182457D01*
X0112177Y0182457D01*
X0114677Y0184957D01*
X0117177Y0182457D01*
X0122177Y0182457D01*
X0124677Y0184957D01*
X0127177Y0182457D01*
X0132177Y0182457D01*
X0134677Y0184957D01*
X0137177Y0182457D01*
X0142177Y0182457D01*
X0144677Y0184957D01*
X0144677Y0189957D01*
X0142177Y0192457D01*
X0137177Y0192457D01*
X0134677Y0189957D01*
X0134677Y0184957D01*
X0134677Y0189957D01*
X0132177Y0192457D01*
X0127177Y0192457D01*
X0124677Y0189957D01*
X0124677Y0184957D01*
X0124677Y0189957D01*
X0122177Y0192457D01*
X0117177Y0192457D01*
X0114677Y0189957D01*
X0114677Y0184957D01*
X0114677Y0189957D01*
X0112177Y0192457D01*
X0107177Y0192457D01*
X0104677Y0189957D01*
X0104677Y0184957D01*
X0104677Y0189957D01*
X0102177Y0192457D01*
X0097177Y0192457D01*
X0102177Y0192457D01*
X0104677Y0194957D01*
X0107177Y0192457D01*
X0112177Y0192457D01*
X0114677Y0194957D01*
X0117177Y0192457D01*
X0122177Y0192457D01*
X0124677Y0194957D01*
X0127177Y0192457D01*
X0132177Y0192457D01*
X0134677Y0194957D01*
X0137177Y0192457D01*
X0142177Y0192457D01*
X0144677Y0194957D01*
X0144677Y0199957D01*
X0142177Y0202457D01*
X0137177Y0202457D01*
X0134677Y0199957D01*
X0134677Y0194957D01*
X0134677Y0199957D01*
X0132177Y0202457D01*
X0127177Y0202457D01*
X0124677Y0199957D01*
X0124677Y0194957D01*
X0124677Y0199957D01*
X0122177Y0202457D01*
X0117177Y0202457D01*
X0114677Y0199957D01*
X0114677Y0194957D01*
X0114677Y0199957D01*
X0112177Y0202457D01*
X0107177Y0202457D01*
X0104677Y0199957D01*
X0104677Y0194957D01*
X0104677Y0199957D01*
X0102177Y0202457D01*
X0097177Y0202457D01*
X0102177Y0202457D01*
X0104677Y0204957D01*
X0107177Y0202457D01*
X0112177Y0202457D01*
X0114677Y0204957D01*
X0117177Y0202457D01*
X0122177Y0202457D01*
X0124677Y0204957D01*
X0127177Y0202457D01*
X0132177Y0202457D01*
X0134677Y0204957D01*
X0137177Y0202457D01*
X0142177Y0202457D01*
X0144677Y0204957D01*
X0144677Y0209957D01*
X0142177Y0212457D01*
X0137177Y0212457D01*
X0134677Y0209957D01*
X0134677Y0204957D01*
X0134677Y0209957D01*
X0132177Y0212457D01*
X0127177Y0212457D01*
X0124677Y0209957D01*
X0124677Y0204957D01*
X0124677Y0209957D01*
X0122177Y0212457D01*
X0117177Y0212457D01*
X0114677Y0209957D01*
X0114677Y0204957D01*
X0114677Y0209957D01*
X0112177Y0212457D01*
X0107177Y0212457D01*
X0104677Y0209957D01*
X0104677Y0204957D01*
X0104677Y0209957D01*
X0102177Y0212457D01*
X0097177Y0212457D01*
X0102177Y0212457D01*
X0104677Y0214957D01*
X0107177Y0212457D01*
X0112177Y0212457D01*
X0114677Y0214957D01*
X0117177Y0212457D01*
X0122177Y0212457D01*
X0124677Y0214957D01*
X0127177Y0212457D01*
X0132177Y0212457D01*
X0134677Y0214957D01*
X0137177Y0212457D01*
X0142177Y0212457D01*
X0144677Y0214957D01*
X0144677Y0219957D01*
X0142177Y0222457D01*
X0137177Y0222457D01*
X0134677Y0219957D01*
X0134677Y0214957D01*
X0134677Y0219957D01*
X0132177Y0222457D01*
X0127177Y0222457D01*
X0124677Y0219957D01*
X0124677Y0214957D01*
X0124677Y0219957D01*
X0122177Y0222457D01*
X0117177Y0222457D01*
X0114677Y0219957D01*
X0114677Y0214957D01*
X0114677Y0219957D01*
X0112177Y0222457D01*
X0107177Y0222457D01*
X0104677Y0219957D01*
X0104677Y0214957D01*
X0104677Y0219957D01*
X0102177Y0222457D01*
X0097177Y0222457D01*
X0102177Y0222457D01*
X0104677Y0224957D01*
X0107177Y0222457D01*
X0112177Y0222457D01*
X0114677Y0224957D01*
X0117177Y0222457D01*
X0122177Y0222457D01*
X0124677Y0224957D01*
X0127177Y0222457D01*
X0132177Y0222457D01*
X0134677Y0224957D01*
X0137177Y0222457D01*
X0142177Y0222457D01*
X0144677Y0224957D01*
X0144677Y0229957D01*
X0142177Y0232457D01*
X0137177Y0232457D01*
X0134677Y0229957D01*
X0134677Y0224957D01*
X0134677Y0229957D01*
X0132177Y0232457D01*
X0127177Y0232457D01*
X0124677Y0229957D01*
X0124677Y0224957D01*
X0124677Y0229957D01*
X0122177Y0232457D01*
X0117177Y0232457D01*
X0114677Y0229957D01*
X0114677Y0224957D01*
X0114677Y0229957D01*
X0112177Y0232457D01*
X0107177Y0232457D01*
X0104677Y0229957D01*
X0104677Y0224957D01*
X0104677Y0229957D01*
X0102177Y0232457D01*
X0097177Y0232457D01*
X0102177Y0232457D01*
X0104677Y0234957D01*
X0107177Y0232457D01*
X0112177Y0232457D01*
X0114677Y0234957D01*
X0117177Y0232457D01*
X0122177Y0232457D01*
X0124677Y0234957D01*
X0127177Y0232457D01*
X0132177Y0232457D01*
X0134677Y0234957D01*
X0137177Y0232457D01*
X0142177Y0232457D01*
X0144677Y0234957D01*
X0144677Y0239957D01*
X0142177Y0242457D01*
X0137177Y0242457D01*
X0134677Y0239957D01*
X0134677Y0234957D01*
X0134677Y0239957D01*
X0132177Y0242457D01*
X0127177Y0242457D01*
X0124677Y0239957D01*
X0124677Y0234957D01*
X0124677Y0239957D01*
X0122177Y0242457D01*
X0117177Y0242457D01*
X0114677Y0239957D01*
X0114677Y0234957D01*
X0114677Y0239957D01*
X0112177Y0242457D01*
X0107177Y0242457D01*
X0104677Y0239957D01*
X0104677Y0234957D01*
X0104677Y0239957D01*
X0102177Y0242457D01*
X0097177Y0242457D01*
X0102177Y0242457D01*
X0104677Y0244957D01*
X0107177Y0242457D01*
X0112177Y0242457D01*
X0114677Y0244957D01*
X0117177Y0242457D01*
X0122177Y0242457D01*
X0124677Y0244957D01*
X0127177Y0242457D01*
X0132177Y0242457D01*
X0134677Y0244957D01*
X0137177Y0242457D01*
X0142177Y0242457D01*
X0144677Y0244957D01*
X0144677Y0249957D01*
X0142177Y0252457D01*
X0137177Y0252457D01*
X0134677Y0249957D01*
X0134677Y0244957D01*
X0134677Y0249957D01*
X0132177Y0252457D01*
X0127177Y0252457D01*
X0124677Y0249957D01*
X0124677Y0244957D01*
X0124677Y0249957D01*
X0122177Y0252457D01*
X0117177Y0252457D01*
X0114677Y0249957D01*
X0114677Y0244957D01*
X0114677Y0249957D01*
X0112177Y0252457D01*
X0107177Y0252457D01*
X0104677Y0249957D01*
X0104677Y0244957D01*
X0104677Y0249957D01*
X0102177Y0252457D01*
X0097177Y0252457D01*
X0102177Y0252457D01*
X0104677Y0254957D01*
X0107177Y0252457D01*
X0112177Y0252457D01*
X0114677Y0254957D01*
X0117177Y0252457D01*
X0122177Y0252457D01*
X0124677Y0254957D01*
X0127177Y0252457D01*
X0132177Y0252457D01*
X0134677Y0254957D01*
X0137177Y0252457D01*
X0142177Y0252457D01*
X0144677Y0254957D01*
X0144677Y0259957D01*
X0142177Y0262457D01*
X0137177Y0262457D01*
X0134677Y0259957D01*
X0134677Y0254957D01*
X0134677Y0259957D01*
X0132177Y0262457D01*
X0127177Y0262457D01*
X0124677Y0259957D01*
X0124677Y0254957D01*
X0124677Y0259957D01*
X0122177Y0262457D01*
X0117177Y0262457D01*
X0114677Y0259957D01*
X0114677Y0254957D01*
X0114677Y0259957D01*
X0112177Y0262457D01*
X0107177Y0262457D01*
X0104677Y0259957D01*
X0104677Y0254957D01*
X0104677Y0259957D01*
X0102177Y0262457D01*
X0097177Y0262457D01*
X0102177Y0262457D01*
X0104677Y0264957D01*
X0107177Y0262457D01*
X0112177Y0262457D01*
X0114677Y0264957D01*
X0117177Y0262457D01*
X0122177Y0262457D01*
X0124677Y0264957D01*
X0127177Y0262457D01*
X0132177Y0262457D01*
X0134677Y0264957D01*
X0137177Y0262457D01*
X0142177Y0262457D01*
X0144677Y0264957D01*
X0144677Y0269957D01*
X0142177Y0272457D01*
X0137177Y0272457D01*
X0134677Y0269957D01*
X0134677Y0264957D01*
X0134677Y0269957D01*
X0132177Y0272457D01*
X0127177Y0272457D01*
X0124677Y0269957D01*
X0124677Y0264957D01*
X0124677Y0269957D01*
X0122177Y0272457D01*
X0117177Y0272457D01*
X0114677Y0269957D01*
X0114677Y0264957D01*
X0114677Y0269957D01*
X0112177Y0272457D01*
X0107177Y0272457D01*
X0104677Y0269957D01*
X0104677Y0264957D01*
X0104677Y0269957D01*
X0102177Y0272457D01*
X0097177Y0272457D01*
X0102177Y0272457D01*
X0104677Y0274957D01*
X0107177Y0272457D01*
X0112177Y0272457D01*
X0114677Y0274957D01*
X0117177Y0272457D01*
X0122177Y0272457D01*
X0124677Y0274957D01*
X0127177Y0272457D01*
X0132177Y0272457D01*
X0134677Y0274957D01*
X0137177Y0272457D01*
X0142177Y0272457D01*
X0144677Y0274957D01*
X0144677Y0279957D01*
X0142177Y0282457D01*
X0137177Y0282457D01*
X0134677Y0279957D01*
X0134677Y0274957D01*
X0134677Y0279957D01*
X0132177Y0282457D01*
X0127177Y0282457D01*
X0124677Y0279957D01*
X0124677Y0274957D01*
X0124677Y0279957D01*
X0122177Y0282457D01*
X0117177Y0282457D01*
X0114677Y0279957D01*
X0114677Y0274957D01*
X0114677Y0279957D01*
X0112177Y0282457D01*
X0107177Y0282457D01*
X0104677Y0279957D01*
X0104677Y0274957D01*
X0104677Y0279957D01*
X0102177Y0282457D01*
X0097177Y0282457D01*
X0102177Y0282457D01*
X0104677Y0284957D01*
X0107177Y0282457D01*
X0112177Y0282457D01*
X0114677Y0284957D01*
X0117177Y0282457D01*
X0122177Y0282457D01*
X0124677Y0284957D01*
X0127177Y0282457D01*
X0132177Y0282457D01*
X0134677Y0284957D01*
X0137177Y0282457D01*
X0142177Y0282457D01*
X0144677Y0284957D01*
X0144677Y0289957D01*
X0142177Y0292457D01*
X0137177Y0292457D01*
X0134677Y0289957D01*
X0134677Y0284957D01*
X0134677Y0289957D01*
X0132177Y0292457D01*
X0127177Y0292457D01*
X0124677Y0289957D01*
X0124677Y0284957D01*
X0124677Y0289957D01*
X0122177Y0292457D01*
X0117177Y0292457D01*
X0114677Y0289957D01*
X0114677Y0284957D01*
X0114677Y0289957D01*
X0112177Y0292457D01*
X0107177Y0292457D01*
X0104677Y0289957D01*
X0104677Y0284957D01*
X0104677Y0289957D01*
X0102177Y0292457D01*
X0097177Y0292457D01*
X0102177Y0292457D01*
X0104677Y0294957D01*
X0107177Y0292457D01*
X0112177Y0292457D01*
X0114677Y0294957D01*
X0117177Y0292457D01*
X0122177Y0292457D01*
X0124677Y0294957D01*
X0127177Y0292457D01*
X0132177Y0292457D01*
X0134677Y0294957D01*
X0137177Y0292457D01*
X0142177Y0292457D01*
X0144677Y0294957D01*
X0144677Y0299957D01*
X0142177Y0302457D01*
X0137177Y0302457D01*
X0134677Y0299957D01*
X0134677Y0294957D01*
X0134677Y0299957D01*
X0132177Y0302457D01*
X0127177Y0302457D01*
X0124677Y0299957D01*
X0124677Y0294957D01*
X0124677Y0299957D01*
X0122177Y0302457D01*
X0117177Y0302457D01*
X0114677Y0299957D01*
X0114677Y0294957D01*
X0114677Y0299957D01*
X0112177Y0302457D01*
X0107177Y0302457D01*
X0104677Y0299957D01*
X0104677Y0294957D01*
X0104677Y0299957D01*
X0102177Y0302457D01*
X0097177Y0302457D01*
X0102177Y0302457D01*
X0104677Y0304957D01*
X0107177Y0302457D01*
X0112177Y0302457D01*
X0114677Y0304957D01*
X0117177Y0302457D01*
X0122177Y0302457D01*
X0124677Y0304957D01*
X0127177Y0302457D01*
X0132177Y0302457D01*
X0134677Y0304957D01*
X0137177Y0302457D01*
X0142177Y0302457D01*
X0144677Y0304957D01*
X0144677Y0309957D01*
X0142177Y0312457D01*
X0137177Y0312457D01*
X0134677Y0309957D01*
X0134677Y0304957D01*
X0134677Y0309957D01*
X0132177Y0312457D01*
X0127177Y0312457D01*
X0124677Y0309957D01*
X0124677Y0304957D01*
X0124677Y0309957D01*
X0122177Y0312457D01*
X0117177Y0312457D01*
X0114677Y0309957D01*
X0114677Y0304957D01*
X0114677Y0309957D01*
X0112177Y0312457D01*
X0107177Y0312457D01*
X0104677Y0309957D01*
X0104677Y0304957D01*
X0104677Y0309957D01*
X0102177Y0312457D01*
X0097177Y0312457D01*
X0102177Y0312457D01*
X0104677Y0314957D01*
X0107177Y0312457D01*
X0112177Y0312457D01*
X0114677Y0314957D01*
X0117177Y0312457D01*
X0122177Y0312457D01*
X0124677Y0314957D01*
X0127177Y0312457D01*
X0132177Y0312457D01*
X0134677Y0314957D01*
X0137177Y0312457D01*
X0142177Y0312457D01*
X0144677Y0314957D01*
X0144677Y0319957D01*
X0142177Y0322457D01*
X0137177Y0322457D01*
X0134677Y0319957D01*
X0134677Y0314957D01*
X0134677Y0319957D01*
X0132177Y0322457D01*
X0127177Y0322457D01*
X0124677Y0319957D01*
X0124677Y0314957D01*
X0124677Y0319957D01*
X0122177Y0322457D01*
X0117177Y0322457D01*
X0114677Y0319957D01*
X0114677Y0314957D01*
X0114677Y0319957D01*
X0112177Y0322457D01*
X0107177Y0322457D01*
X0104677Y0319957D01*
X0104677Y0314957D01*
X0104677Y0319957D01*
X0102177Y0322457D01*
X0097177Y0322457D01*
X0102177Y0322457D01*
X0104677Y0324957D01*
X0107177Y0322457D01*
X0112177Y0322457D01*
X0114677Y0324957D01*
X0117177Y0322457D01*
X0122177Y0322457D01*
X0124677Y0324957D01*
X0127177Y0322457D01*
X0132177Y0322457D01*
X0134677Y0324957D01*
X0137177Y0322457D01*
X0142177Y0322457D01*
X0144677Y0324957D01*
X0144677Y0329957D01*
X0142177Y0332457D01*
X0137177Y0332457D01*
X0134677Y0329957D01*
X0134677Y0324957D01*
X0134677Y0329957D01*
X0132177Y0332457D01*
X0127177Y0332457D01*
X0124677Y0329957D01*
X0124677Y0324957D01*
X0124677Y0329957D01*
X0122177Y0332457D01*
X0117177Y0332457D01*
X0114677Y0329957D01*
X0114677Y0324957D01*
X0114677Y0329957D01*
X0112177Y0332457D01*
X0107177Y0332457D01*
X0104677Y0329957D01*
X0104677Y0324957D01*
X0104677Y0329957D01*
X0102177Y0332457D01*
X0097177Y0332457D01*
X0102177Y0332457D01*
X0104677Y0334957D01*
X0107177Y0332457D01*
X0112177Y0332457D01*
X0114677Y0334957D01*
X0117177Y0332457D01*
X0122177Y0332457D01*
X0124677Y0334957D01*
X0127177Y0332457D01*
X0132177Y0332457D01*
X0134677Y0334957D01*
X0137177Y0332457D01*
X0142177Y0332457D01*
X0144677Y0334957D01*
X0144677Y0339957D01*
X0142177Y0342457D01*
X0137177Y0342457D01*
X0134677Y0339957D01*
X0134677Y0334957D01*
X0134677Y0339957D01*
X0132177Y0342457D01*
X0127177Y0342457D01*
X0124677Y0339957D01*
X0124677Y0334957D01*
X0124677Y0339957D01*
X0122177Y0342457D01*
X0117177Y0342457D01*
X0114677Y0339957D01*
X0114677Y0334957D01*
X0114677Y0339957D01*
X0112177Y0342457D01*
X0107177Y0342457D01*
X0104677Y0339957D01*
X0104677Y0334957D01*
X0104677Y0339957D01*
X0102177Y0342457D01*
X0097177Y0342457D01*
X0094677Y0339957D01*
X0174677Y0339957D02*
X0174677Y0334957D01*
X0177177Y0332457D01*
X0174677Y0329957D01*
X0174677Y0324957D01*
X0177177Y0322457D01*
X0174677Y0319957D01*
X0174677Y0314957D01*
X0177177Y0312457D01*
X0174677Y0309957D01*
X0174677Y0304957D01*
X0177177Y0302457D01*
X0174677Y0299957D01*
X0174677Y0294957D01*
X0177177Y0292457D01*
X0174677Y0289957D01*
X0174677Y0284957D01*
X0177177Y0282457D01*
X0174677Y0279957D01*
X0174677Y0274957D01*
X0177177Y0272457D01*
X0174677Y0269957D01*
X0174677Y0264957D01*
X0177177Y0262457D01*
X0174677Y0259957D01*
X0174677Y0254957D01*
X0177177Y0252457D01*
X0174677Y0249957D01*
X0174677Y0244957D01*
X0177177Y0242457D01*
X0174677Y0239957D01*
X0174677Y0234957D01*
X0177177Y0232457D01*
X0174677Y0229957D01*
X0174677Y0224957D01*
X0177177Y0222457D01*
X0174677Y0219957D01*
X0174677Y0214957D01*
X0177177Y0212457D01*
X0174677Y0209957D01*
X0174677Y0204957D01*
X0177177Y0202457D01*
X0174677Y0199957D01*
X0174677Y0194957D01*
X0177177Y0192457D01*
X0174677Y0189957D01*
X0174677Y0184957D01*
X0177177Y0182457D01*
X0174677Y0179957D01*
X0174677Y0174957D01*
X0177177Y0172457D01*
X0174677Y0169957D01*
X0174677Y0164957D01*
X0177177Y0162457D01*
X0174677Y0159957D01*
X0174677Y0154957D01*
X0177177Y0152457D01*
X0174677Y0149957D01*
X0174677Y0144957D01*
X0177177Y0142457D01*
X0174677Y0139957D01*
X0174677Y0134957D01*
X0177177Y0132457D01*
X0174677Y0129957D01*
X0174677Y0124957D01*
X0177177Y0122457D01*
X0174677Y0119957D01*
X0174677Y0114957D01*
X0177177Y0112457D01*
X0174677Y0109957D01*
X0174677Y0104957D01*
X0177177Y0102457D01*
X0174677Y0099957D01*
X0174677Y0094957D01*
X0177177Y0092457D01*
X0174677Y0089957D01*
X0174677Y0084957D01*
X0177177Y0082457D01*
X0174677Y0079957D01*
X0174677Y0074957D01*
X0177177Y0072457D01*
X0174677Y0069957D01*
X0174677Y0064957D01*
X0177177Y0062457D01*
X0174677Y0059957D01*
X0174677Y0054957D01*
X0177177Y0052457D01*
X0174677Y0049957D01*
X0174677Y0044957D01*
X0177177Y0042457D01*
X0182177Y0042457D01*
X0184677Y0044957D01*
X0187177Y0042457D01*
X0192177Y0042457D01*
X0194677Y0044957D01*
X0197177Y0042457D01*
X0202177Y0042457D01*
X0204677Y0044957D01*
X0207177Y0042457D01*
X0212177Y0042457D01*
X0214677Y0044957D01*
X0217177Y0042457D01*
X0222177Y0042457D01*
X0224677Y0044957D01*
X0224677Y0049957D01*
X0222177Y0052457D01*
X0217177Y0052457D01*
X0214677Y0049957D01*
X0214677Y0044957D01*
X0214677Y0049957D01*
X0212177Y0052457D01*
X0207177Y0052457D01*
X0204677Y0049957D01*
X0204677Y0044957D01*
X0204677Y0049957D01*
X0202177Y0052457D01*
X0197177Y0052457D01*
X0194677Y0049957D01*
X0194677Y0044957D01*
X0194677Y0049957D01*
X0192177Y0052457D01*
X0187177Y0052457D01*
X0184677Y0049957D01*
X0184677Y0044957D01*
X0184677Y0049957D01*
X0182177Y0052457D01*
X0177177Y0052457D01*
X0182177Y0052457D01*
X0184677Y0054957D01*
X0187177Y0052457D01*
X0192177Y0052457D01*
X0194677Y0054957D01*
X0197177Y0052457D01*
X0202177Y0052457D01*
X0204677Y0054957D01*
X0207177Y0052457D01*
X0212177Y0052457D01*
X0214677Y0054957D01*
X0217177Y0052457D01*
X0222177Y0052457D01*
X0224677Y0054957D01*
X0224677Y0059957D01*
X0222177Y0062457D01*
X0217177Y0062457D01*
X0214677Y0059957D01*
X0214677Y0054957D01*
X0214677Y0059957D01*
X0212177Y0062457D01*
X0207177Y0062457D01*
X0204677Y0059957D01*
X0204677Y0054957D01*
X0204677Y0059957D01*
X0202177Y0062457D01*
X0197177Y0062457D01*
X0194677Y0059957D01*
X0194677Y0054957D01*
X0194677Y0059957D01*
X0192177Y0062457D01*
X0187177Y0062457D01*
X0184677Y0059957D01*
X0184677Y0054957D01*
X0184677Y0059957D01*
X0182177Y0062457D01*
X0177177Y0062457D01*
X0182177Y0062457D01*
X0184677Y0064957D01*
X0187177Y0062457D01*
X0192177Y0062457D01*
X0194677Y0064957D01*
X0197177Y0062457D01*
X0202177Y0062457D01*
X0204677Y0064957D01*
X0207177Y0062457D01*
X0212177Y0062457D01*
X0214677Y0064957D01*
X0217177Y0062457D01*
X0222177Y0062457D01*
X0224677Y0064957D01*
X0224677Y0069957D01*
X0222177Y0072457D01*
X0217177Y0072457D01*
X0214677Y0069957D01*
X0214677Y0064957D01*
X0214677Y0069957D01*
X0212177Y0072457D01*
X0207177Y0072457D01*
X0204677Y0069957D01*
X0204677Y0064957D01*
X0204677Y0069957D01*
X0202177Y0072457D01*
X0197177Y0072457D01*
X0194677Y0069957D01*
X0194677Y0064957D01*
X0194677Y0069957D01*
X0192177Y0072457D01*
X0187177Y0072457D01*
X0184677Y0069957D01*
X0184677Y0064957D01*
X0184677Y0069957D01*
X0182177Y0072457D01*
X0177177Y0072457D01*
X0182177Y0072457D01*
X0184677Y0074957D01*
X0187177Y0072457D01*
X0192177Y0072457D01*
X0194677Y0074957D01*
X0197177Y0072457D01*
X0202177Y0072457D01*
X0204677Y0074957D01*
X0207177Y0072457D01*
X0212177Y0072457D01*
X0214677Y0074957D01*
X0217177Y0072457D01*
X0222177Y0072457D01*
X0224677Y0074957D01*
X0224677Y0079957D01*
X0222177Y0082457D01*
X0217177Y0082457D01*
X0214677Y0079957D01*
X0214677Y0074957D01*
X0214677Y0079957D01*
X0212177Y0082457D01*
X0207177Y0082457D01*
X0204677Y0079957D01*
X0204677Y0074957D01*
X0204677Y0079957D01*
X0202177Y0082457D01*
X0197177Y0082457D01*
X0194677Y0079957D01*
X0194677Y0074957D01*
X0194677Y0079957D01*
X0192177Y0082457D01*
X0187177Y0082457D01*
X0184677Y0079957D01*
X0184677Y0074957D01*
X0184677Y0079957D01*
X0182177Y0082457D01*
X0177177Y0082457D01*
X0182177Y0082457D01*
X0184677Y0084957D01*
X0187177Y0082457D01*
X0192177Y0082457D01*
X0194677Y0084957D01*
X0197177Y0082457D01*
X0202177Y0082457D01*
X0204677Y0084957D01*
X0207177Y0082457D01*
X0212177Y0082457D01*
X0214677Y0084957D01*
X0217177Y0082457D01*
X0222177Y0082457D01*
X0224677Y0084957D01*
X0224677Y0089957D01*
X0222177Y0092457D01*
X0217177Y0092457D01*
X0214677Y0089957D01*
X0214677Y0084957D01*
X0214677Y0089957D01*
X0212177Y0092457D01*
X0207177Y0092457D01*
X0204677Y0089957D01*
X0204677Y0084957D01*
X0204677Y0089957D01*
X0202177Y0092457D01*
X0197177Y0092457D01*
X0194677Y0089957D01*
X0194677Y0084957D01*
X0194677Y0089957D01*
X0192177Y0092457D01*
X0187177Y0092457D01*
X0184677Y0089957D01*
X0184677Y0084957D01*
X0184677Y0089957D01*
X0182177Y0092457D01*
X0177177Y0092457D01*
X0182177Y0092457D01*
X0184677Y0094957D01*
X0187177Y0092457D01*
X0192177Y0092457D01*
X0194677Y0094957D01*
X0197177Y0092457D01*
X0202177Y0092457D01*
X0204677Y0094957D01*
X0207177Y0092457D01*
X0212177Y0092457D01*
X0214677Y0094957D01*
X0217177Y0092457D01*
X0222177Y0092457D01*
X0224677Y0094957D01*
X0224677Y0099957D01*
X0222177Y0102457D01*
X0217177Y0102457D01*
X0214677Y0099957D01*
X0214677Y0094957D01*
X0214677Y0099957D01*
X0212177Y0102457D01*
X0207177Y0102457D01*
X0204677Y0099957D01*
X0204677Y0094957D01*
X0204677Y0099957D01*
X0202177Y0102457D01*
X0197177Y0102457D01*
X0194677Y0099957D01*
X0194677Y0094957D01*
X0194677Y0099957D01*
X0192177Y0102457D01*
X0187177Y0102457D01*
X0184677Y0099957D01*
X0184677Y0094957D01*
X0184677Y0099957D01*
X0182177Y0102457D01*
X0177177Y0102457D01*
X0182177Y0102457D01*
X0184677Y0104957D01*
X0187177Y0102457D01*
X0192177Y0102457D01*
X0194677Y0104957D01*
X0197177Y0102457D01*
X0202177Y0102457D01*
X0204677Y0104957D01*
X0207177Y0102457D01*
X0212177Y0102457D01*
X0214677Y0104957D01*
X0217177Y0102457D01*
X0222177Y0102457D01*
X0224677Y0104957D01*
X0224677Y0109957D01*
X0222177Y0112457D01*
X0217177Y0112457D01*
X0214677Y0109957D01*
X0214677Y0104957D01*
X0214677Y0109957D01*
X0212177Y0112457D01*
X0207177Y0112457D01*
X0204677Y0109957D01*
X0204677Y0104957D01*
X0204677Y0109957D01*
X0202177Y0112457D01*
X0197177Y0112457D01*
X0194677Y0109957D01*
X0194677Y0104957D01*
X0194677Y0109957D01*
X0192177Y0112457D01*
X0187177Y0112457D01*
X0184677Y0109957D01*
X0184677Y0104957D01*
X0184677Y0109957D01*
X0182177Y0112457D01*
X0177177Y0112457D01*
X0182177Y0112457D01*
X0184677Y0114957D01*
X0187177Y0112457D01*
X0192177Y0112457D01*
X0194677Y0114957D01*
X0197177Y0112457D01*
X0202177Y0112457D01*
X0204677Y0114957D01*
X0207177Y0112457D01*
X0212177Y0112457D01*
X0214677Y0114957D01*
X0217177Y0112457D01*
X0222177Y0112457D01*
X0224677Y0114957D01*
X0224677Y0119957D01*
X0222177Y0122457D01*
X0217177Y0122457D01*
X0214677Y0119957D01*
X0214677Y0114957D01*
X0214677Y0119957D01*
X0212177Y0122457D01*
X0207177Y0122457D01*
X0204677Y0119957D01*
X0204677Y0114957D01*
X0204677Y0119957D01*
X0202177Y0122457D01*
X0197177Y0122457D01*
X0194677Y0119957D01*
X0194677Y0114957D01*
X0194677Y0119957D01*
X0192177Y0122457D01*
X0187177Y0122457D01*
X0184677Y0119957D01*
X0184677Y0114957D01*
X0184677Y0119957D01*
X0182177Y0122457D01*
X0177177Y0122457D01*
X0182177Y0122457D01*
X0184677Y0124957D01*
X0187177Y0122457D01*
X0192177Y0122457D01*
X0194677Y0124957D01*
X0197177Y0122457D01*
X0202177Y0122457D01*
X0204677Y0124957D01*
X0207177Y0122457D01*
X0212177Y0122457D01*
X0214677Y0124957D01*
X0217177Y0122457D01*
X0222177Y0122457D01*
X0224677Y0124957D01*
X0224677Y0129957D01*
X0222177Y0132457D01*
X0217177Y0132457D01*
X0214677Y0129957D01*
X0214677Y0124957D01*
X0214677Y0129957D01*
X0212177Y0132457D01*
X0207177Y0132457D01*
X0204677Y0129957D01*
X0204677Y0124957D01*
X0204677Y0129957D01*
X0202177Y0132457D01*
X0197177Y0132457D01*
X0194677Y0129957D01*
X0194677Y0124957D01*
X0194677Y0129957D01*
X0192177Y0132457D01*
X0187177Y0132457D01*
X0184677Y0129957D01*
X0184677Y0124957D01*
X0184677Y0129957D01*
X0182177Y0132457D01*
X0177177Y0132457D01*
X0182177Y0132457D01*
X0184677Y0134957D01*
X0187177Y0132457D01*
X0192177Y0132457D01*
X0194677Y0134957D01*
X0197177Y0132457D01*
X0202177Y0132457D01*
X0204677Y0134957D01*
X0207177Y0132457D01*
X0212177Y0132457D01*
X0214677Y0134957D01*
X0217177Y0132457D01*
X0222177Y0132457D01*
X0224677Y0134957D01*
X0224677Y0139957D01*
X0222177Y0142457D01*
X0217177Y0142457D01*
X0214677Y0139957D01*
X0214677Y0134957D01*
X0214677Y0139957D01*
X0212177Y0142457D01*
X0207177Y0142457D01*
X0204677Y0139957D01*
X0204677Y0134957D01*
X0204677Y0139957D01*
X0202177Y0142457D01*
X0197177Y0142457D01*
X0194677Y0139957D01*
X0194677Y0134957D01*
X0194677Y0139957D01*
X0192177Y0142457D01*
X0187177Y0142457D01*
X0184677Y0139957D01*
X0184677Y0134957D01*
X0184677Y0139957D01*
X0182177Y0142457D01*
X0177177Y0142457D01*
X0182177Y0142457D01*
X0184677Y0144957D01*
X0187177Y0142457D01*
X0192177Y0142457D01*
X0194677Y0144957D01*
X0197177Y0142457D01*
X0202177Y0142457D01*
X0204677Y0144957D01*
X0207177Y0142457D01*
X0212177Y0142457D01*
X0214677Y0144957D01*
X0217177Y0142457D01*
X0222177Y0142457D01*
X0224677Y0144957D01*
X0224677Y0149957D01*
X0222177Y0152457D01*
X0217177Y0152457D01*
X0214677Y0149957D01*
X0214677Y0144957D01*
X0214677Y0149957D01*
X0212177Y0152457D01*
X0207177Y0152457D01*
X0204677Y0149957D01*
X0204677Y0144957D01*
X0204677Y0149957D01*
X0202177Y0152457D01*
X0197177Y0152457D01*
X0194677Y0149957D01*
X0194677Y0144957D01*
X0194677Y0149957D01*
X0192177Y0152457D01*
X0187177Y0152457D01*
X0184677Y0149957D01*
X0184677Y0144957D01*
X0184677Y0149957D01*
X0182177Y0152457D01*
X0177177Y0152457D01*
X0182177Y0152457D01*
X0184677Y0154957D01*
X0187177Y0152457D01*
X0192177Y0152457D01*
X0194677Y0154957D01*
X0197177Y0152457D01*
X0202177Y0152457D01*
X0204677Y0154957D01*
X0207177Y0152457D01*
X0212177Y0152457D01*
X0214677Y0154957D01*
X0217177Y0152457D01*
X0222177Y0152457D01*
X0224677Y0154957D01*
X0224677Y0159957D01*
X0222177Y0162457D01*
X0217177Y0162457D01*
X0214677Y0159957D01*
X0214677Y0154957D01*
X0214677Y0159957D01*
X0212177Y0162457D01*
X0207177Y0162457D01*
X0204677Y0159957D01*
X0204677Y0154957D01*
X0204677Y0159957D01*
X0202177Y0162457D01*
X0197177Y0162457D01*
X0194677Y0159957D01*
X0194677Y0154957D01*
X0194677Y0159957D01*
X0192177Y0162457D01*
X0187177Y0162457D01*
X0184677Y0159957D01*
X0184677Y0154957D01*
X0184677Y0159957D01*
X0182177Y0162457D01*
X0177177Y0162457D01*
X0182177Y0162457D01*
X0184677Y0164957D01*
X0187177Y0162457D01*
X0192177Y0162457D01*
X0194677Y0164957D01*
X0197177Y0162457D01*
X0202177Y0162457D01*
X0204677Y0164957D01*
X0207177Y0162457D01*
X0212177Y0162457D01*
X0214677Y0164957D01*
X0217177Y0162457D01*
X0222177Y0162457D01*
X0224677Y0164957D01*
X0224677Y0169957D01*
X0222177Y0172457D01*
X0217177Y0172457D01*
X0214677Y0169957D01*
X0214677Y0164957D01*
X0214677Y0169957D01*
X0212177Y0172457D01*
X0207177Y0172457D01*
X0204677Y0169957D01*
X0204677Y0164957D01*
X0204677Y0169957D01*
X0202177Y0172457D01*
X0197177Y0172457D01*
X0194677Y0169957D01*
X0194677Y0164957D01*
X0194677Y0169957D01*
X0192177Y0172457D01*
X0187177Y0172457D01*
X0184677Y0169957D01*
X0184677Y0164957D01*
X0184677Y0169957D01*
X0182177Y0172457D01*
X0177177Y0172457D01*
X0182177Y0172457D01*
X0184677Y0174957D01*
X0187177Y0172457D01*
X0192177Y0172457D01*
X0194677Y0174957D01*
X0197177Y0172457D01*
X0202177Y0172457D01*
X0204677Y0174957D01*
X0207177Y0172457D01*
X0212177Y0172457D01*
X0214677Y0174957D01*
X0217177Y0172457D01*
X0222177Y0172457D01*
X0224677Y0174957D01*
X0224677Y0179957D01*
X0222177Y0182457D01*
X0217177Y0182457D01*
X0214677Y0179957D01*
X0214677Y0174957D01*
X0214677Y0179957D01*
X0212177Y0182457D01*
X0207177Y0182457D01*
X0204677Y0179957D01*
X0204677Y0174957D01*
X0204677Y0179957D01*
X0202177Y0182457D01*
X0197177Y0182457D01*
X0194677Y0179957D01*
X0194677Y0174957D01*
X0194677Y0179957D01*
X0192177Y0182457D01*
X0187177Y0182457D01*
X0184677Y0179957D01*
X0184677Y0174957D01*
X0184677Y0179957D01*
X0182177Y0182457D01*
X0177177Y0182457D01*
X0182177Y0182457D01*
X0184677Y0184957D01*
X0187177Y0182457D01*
X0192177Y0182457D01*
X0194677Y0184957D01*
X0197177Y0182457D01*
X0202177Y0182457D01*
X0204677Y0184957D01*
X0207177Y0182457D01*
X0212177Y0182457D01*
X0214677Y0184957D01*
X0217177Y0182457D01*
X0222177Y0182457D01*
X0224677Y0184957D01*
X0224677Y0189957D01*
X0222177Y0192457D01*
X0217177Y0192457D01*
X0214677Y0189957D01*
X0214677Y0184957D01*
X0214677Y0189957D01*
X0212177Y0192457D01*
X0207177Y0192457D01*
X0204677Y0189957D01*
X0204677Y0184957D01*
X0204677Y0189957D01*
X0202177Y0192457D01*
X0197177Y0192457D01*
X0194677Y0189957D01*
X0194677Y0184957D01*
X0194677Y0189957D01*
X0192177Y0192457D01*
X0187177Y0192457D01*
X0184677Y0189957D01*
X0184677Y0184957D01*
X0184677Y0189957D01*
X0182177Y0192457D01*
X0177177Y0192457D01*
X0182177Y0192457D01*
X0184677Y0194957D01*
X0187177Y0192457D01*
X0192177Y0192457D01*
X0194677Y0194957D01*
X0197177Y0192457D01*
X0202177Y0192457D01*
X0204677Y0194957D01*
X0207177Y0192457D01*
X0212177Y0192457D01*
X0214677Y0194957D01*
X0217177Y0192457D01*
X0222177Y0192457D01*
X0224677Y0194957D01*
X0224677Y0199957D01*
X0222177Y0202457D01*
X0217177Y0202457D01*
X0214677Y0199957D01*
X0214677Y0194957D01*
X0214677Y0199957D01*
X0212177Y0202457D01*
X0207177Y0202457D01*
X0204677Y0199957D01*
X0204677Y0194957D01*
X0204677Y0199957D01*
X0202177Y0202457D01*
X0197177Y0202457D01*
X0194677Y0199957D01*
X0194677Y0194957D01*
X0194677Y0199957D01*
X0192177Y0202457D01*
X0187177Y0202457D01*
X0184677Y0199957D01*
X0184677Y0194957D01*
X0184677Y0199957D01*
X0182177Y0202457D01*
X0177177Y0202457D01*
X0182177Y0202457D01*
X0184677Y0204957D01*
X0187177Y0202457D01*
X0192177Y0202457D01*
X0194677Y0204957D01*
X0197177Y0202457D01*
X0202177Y0202457D01*
X0204677Y0204957D01*
X0207177Y0202457D01*
X0212177Y0202457D01*
X0214677Y0204957D01*
X0217177Y0202457D01*
X0222177Y0202457D01*
X0224677Y0204957D01*
X0224677Y0209957D01*
X0222177Y0212457D01*
X0217177Y0212457D01*
X0214677Y0209957D01*
X0214677Y0204957D01*
X0214677Y0209957D01*
X0212177Y0212457D01*
X0207177Y0212457D01*
X0204677Y0209957D01*
X0204677Y0204957D01*
X0204677Y0209957D01*
X0202177Y0212457D01*
X0197177Y0212457D01*
X0194677Y0209957D01*
X0194677Y0204957D01*
X0194677Y0209957D01*
X0192177Y0212457D01*
X0187177Y0212457D01*
X0184677Y0209957D01*
X0184677Y0204957D01*
X0184677Y0209957D01*
X0182177Y0212457D01*
X0177177Y0212457D01*
X0182177Y0212457D01*
X0184677Y0214957D01*
X0187177Y0212457D01*
X0192177Y0212457D01*
X0194677Y0214957D01*
X0197177Y0212457D01*
X0202177Y0212457D01*
X0204677Y0214957D01*
X0207177Y0212457D01*
X0212177Y0212457D01*
X0214677Y0214957D01*
X0217177Y0212457D01*
X0222177Y0212457D01*
X0224677Y0214957D01*
X0224677Y0219957D01*
X0222177Y0222457D01*
X0217177Y0222457D01*
X0214677Y0219957D01*
X0214677Y0214957D01*
X0214677Y0219957D01*
X0212177Y0222457D01*
X0207177Y0222457D01*
X0204677Y0219957D01*
X0204677Y0214957D01*
X0204677Y0219957D01*
X0202177Y0222457D01*
X0197177Y0222457D01*
X0194677Y0219957D01*
X0194677Y0214957D01*
X0194677Y0219957D01*
X0192177Y0222457D01*
X0187177Y0222457D01*
X0184677Y0219957D01*
X0184677Y0214957D01*
X0184677Y0219957D01*
X0182177Y0222457D01*
X0177177Y0222457D01*
X0182177Y0222457D01*
X0184677Y0224957D01*
X0187177Y0222457D01*
X0192177Y0222457D01*
X0194677Y0224957D01*
X0197177Y0222457D01*
X0202177Y0222457D01*
X0204677Y0224957D01*
X0207177Y0222457D01*
X0212177Y0222457D01*
X0214677Y0224957D01*
X0217177Y0222457D01*
X0222177Y0222457D01*
X0224677Y0224957D01*
X0224677Y0229957D01*
X0222177Y0232457D01*
X0217177Y0232457D01*
X0214677Y0229957D01*
X0214677Y0224957D01*
X0214677Y0229957D01*
X0212177Y0232457D01*
X0207177Y0232457D01*
X0204677Y0229957D01*
X0204677Y0224957D01*
X0204677Y0229957D01*
X0202177Y0232457D01*
X0197177Y0232457D01*
X0194677Y0229957D01*
X0194677Y0224957D01*
X0194677Y0229957D01*
X0192177Y0232457D01*
X0187177Y0232457D01*
X0184677Y0229957D01*
X0184677Y0224957D01*
X0184677Y0229957D01*
X0182177Y0232457D01*
X0177177Y0232457D01*
X0182177Y0232457D01*
X0184677Y0234957D01*
X0187177Y0232457D01*
X0192177Y0232457D01*
X0194677Y0234957D01*
X0197177Y0232457D01*
X0202177Y0232457D01*
X0204677Y0234957D01*
X0207177Y0232457D01*
X0212177Y0232457D01*
X0214677Y0234957D01*
X0217177Y0232457D01*
X0222177Y0232457D01*
X0224677Y0234957D01*
X0224677Y0239957D01*
X0222177Y0242457D01*
X0217177Y0242457D01*
X0214677Y0239957D01*
X0214677Y0234957D01*
X0214677Y0239957D01*
X0212177Y0242457D01*
X0207177Y0242457D01*
X0204677Y0239957D01*
X0204677Y0234957D01*
X0204677Y0239957D01*
X0202177Y0242457D01*
X0197177Y0242457D01*
X0194677Y0239957D01*
X0194677Y0234957D01*
X0194677Y0239957D01*
X0192177Y0242457D01*
X0187177Y0242457D01*
X0184677Y0239957D01*
X0184677Y0234957D01*
X0184677Y0239957D01*
X0182177Y0242457D01*
X0177177Y0242457D01*
X0182177Y0242457D01*
X0184677Y0244957D01*
X0187177Y0242457D01*
X0192177Y0242457D01*
X0194677Y0244957D01*
X0197177Y0242457D01*
X0202177Y0242457D01*
X0204677Y0244957D01*
X0207177Y0242457D01*
X0212177Y0242457D01*
X0214677Y0244957D01*
X0217177Y0242457D01*
X0222177Y0242457D01*
X0224677Y0244957D01*
X0224677Y0249957D01*
X0222177Y0252457D01*
X0217177Y0252457D01*
X0214677Y0249957D01*
X0214677Y0244957D01*
X0214677Y0249957D01*
X0212177Y0252457D01*
X0207177Y0252457D01*
X0204677Y0249957D01*
X0204677Y0244957D01*
X0204677Y0249957D01*
X0202177Y0252457D01*
X0197177Y0252457D01*
X0194677Y0249957D01*
X0194677Y0244957D01*
X0194677Y0249957D01*
X0192177Y0252457D01*
X0187177Y0252457D01*
X0184677Y0249957D01*
X0184677Y0244957D01*
X0184677Y0249957D01*
X0182177Y0252457D01*
X0177177Y0252457D01*
X0182177Y0252457D01*
X0184677Y0254957D01*
X0187177Y0252457D01*
X0192177Y0252457D01*
X0194677Y0254957D01*
X0197177Y0252457D01*
X0202177Y0252457D01*
X0204677Y0254957D01*
X0207177Y0252457D01*
X0212177Y0252457D01*
X0214677Y0254957D01*
X0217177Y0252457D01*
X0222177Y0252457D01*
X0224677Y0254957D01*
X0224677Y0259957D01*
X0222177Y0262457D01*
X0217177Y0262457D01*
X0214677Y0259957D01*
X0214677Y0254957D01*
X0214677Y0259957D01*
X0212177Y0262457D01*
X0207177Y0262457D01*
X0204677Y0259957D01*
X0204677Y0254957D01*
X0204677Y0259957D01*
X0202177Y0262457D01*
X0197177Y0262457D01*
X0194677Y0259957D01*
X0194677Y0254957D01*
X0194677Y0259957D01*
X0192177Y0262457D01*
X0187177Y0262457D01*
X0184677Y0259957D01*
X0184677Y0254957D01*
X0184677Y0259957D01*
X0182177Y0262457D01*
X0177177Y0262457D01*
X0182177Y0262457D01*
X0184677Y0264957D01*
X0187177Y0262457D01*
X0192177Y0262457D01*
X0194677Y0264957D01*
X0197177Y0262457D01*
X0202177Y0262457D01*
X0204677Y0264957D01*
X0207177Y0262457D01*
X0212177Y0262457D01*
X0214677Y0264957D01*
X0217177Y0262457D01*
X0222177Y0262457D01*
X0224677Y0264957D01*
X0224677Y0269957D01*
X0222177Y0272457D01*
X0217177Y0272457D01*
X0214677Y0269957D01*
X0214677Y0264957D01*
X0214677Y0269957D01*
X0212177Y0272457D01*
X0207177Y0272457D01*
X0204677Y0269957D01*
X0204677Y0264957D01*
X0204677Y0269957D01*
X0202177Y0272457D01*
X0197177Y0272457D01*
X0194677Y0269957D01*
X0194677Y0264957D01*
X0194677Y0269957D01*
X0192177Y0272457D01*
X0187177Y0272457D01*
X0184677Y0269957D01*
X0184677Y0264957D01*
X0184677Y0269957D01*
X0182177Y0272457D01*
X0177177Y0272457D01*
X0182177Y0272457D01*
X0184677Y0274957D01*
X0187177Y0272457D01*
X0192177Y0272457D01*
X0194677Y0274957D01*
X0197177Y0272457D01*
X0202177Y0272457D01*
X0204677Y0274957D01*
X0207177Y0272457D01*
X0212177Y0272457D01*
X0214677Y0274957D01*
X0217177Y0272457D01*
X0222177Y0272457D01*
X0224677Y0274957D01*
X0224677Y0279957D01*
X0222177Y0282457D01*
X0217177Y0282457D01*
X0214677Y0279957D01*
X0214677Y0274957D01*
X0214677Y0279957D01*
X0212177Y0282457D01*
X0207177Y0282457D01*
X0204677Y0279957D01*
X0204677Y0274957D01*
X0204677Y0279957D01*
X0202177Y0282457D01*
X0197177Y0282457D01*
X0194677Y0279957D01*
X0194677Y0274957D01*
X0194677Y0279957D01*
X0192177Y0282457D01*
X0187177Y0282457D01*
X0184677Y0279957D01*
X0184677Y0274957D01*
X0184677Y0279957D01*
X0182177Y0282457D01*
X0177177Y0282457D01*
X0182177Y0282457D01*
X0184677Y0284957D01*
X0187177Y0282457D01*
X0192177Y0282457D01*
X0194677Y0284957D01*
X0197177Y0282457D01*
X0202177Y0282457D01*
X0204677Y0284957D01*
X0207177Y0282457D01*
X0212177Y0282457D01*
X0214677Y0284957D01*
X0217177Y0282457D01*
X0222177Y0282457D01*
X0224677Y0284957D01*
X0224677Y0289957D01*
X0222177Y0292457D01*
X0217177Y0292457D01*
X0214677Y0289957D01*
X0214677Y0284957D01*
X0214677Y0289957D01*
X0212177Y0292457D01*
X0207177Y0292457D01*
X0204677Y0289957D01*
X0204677Y0284957D01*
X0204677Y0289957D01*
X0202177Y0292457D01*
X0197177Y0292457D01*
X0194677Y0289957D01*
X0194677Y0284957D01*
X0194677Y0289957D01*
X0192177Y0292457D01*
X0187177Y0292457D01*
X0184677Y0289957D01*
X0184677Y0284957D01*
X0184677Y0289957D01*
X0182177Y0292457D01*
X0177177Y0292457D01*
X0182177Y0292457D01*
X0184677Y0294957D01*
X0187177Y0292457D01*
X0192177Y0292457D01*
X0194677Y0294957D01*
X0197177Y0292457D01*
X0202177Y0292457D01*
X0204677Y0294957D01*
X0207177Y0292457D01*
X0212177Y0292457D01*
X0214677Y0294957D01*
X0217177Y0292457D01*
X0222177Y0292457D01*
X0224677Y0294957D01*
X0224677Y0299957D01*
X0222177Y0302457D01*
X0217177Y0302457D01*
X0214677Y0299957D01*
X0214677Y0294957D01*
X0214677Y0299957D01*
X0212177Y0302457D01*
X0207177Y0302457D01*
X0204677Y0299957D01*
X0204677Y0294957D01*
X0204677Y0299957D01*
X0202177Y0302457D01*
X0197177Y0302457D01*
X0194677Y0299957D01*
X0194677Y0294957D01*
X0194677Y0299957D01*
X0192177Y0302457D01*
X0187177Y0302457D01*
X0184677Y0299957D01*
X0184677Y0294957D01*
X0184677Y0299957D01*
X0182177Y0302457D01*
X0177177Y0302457D01*
X0182177Y0302457D01*
X0184677Y0304957D01*
X0187177Y0302457D01*
X0192177Y0302457D01*
X0194677Y0304957D01*
X0197177Y0302457D01*
X0202177Y0302457D01*
X0204677Y0304957D01*
X0207177Y0302457D01*
X0212177Y0302457D01*
X0214677Y0304957D01*
X0217177Y0302457D01*
X0222177Y0302457D01*
X0224677Y0304957D01*
X0224677Y0309957D01*
X0222177Y0312457D01*
X0217177Y0312457D01*
X0214677Y0309957D01*
X0214677Y0304957D01*
X0214677Y0309957D01*
X0212177Y0312457D01*
X0207177Y0312457D01*
X0204677Y0309957D01*
X0204677Y0304957D01*
X0204677Y0309957D01*
X0202177Y0312457D01*
X0197177Y0312457D01*
X0194677Y0309957D01*
X0194677Y0304957D01*
X0194677Y0309957D01*
X0192177Y0312457D01*
X0187177Y0312457D01*
X0184677Y0309957D01*
X0184677Y0304957D01*
X0184677Y0309957D01*
X0182177Y0312457D01*
X0177177Y0312457D01*
X0182177Y0312457D01*
X0184677Y0314957D01*
X0187177Y0312457D01*
X0192177Y0312457D01*
X0194677Y0314957D01*
X0197177Y0312457D01*
X0202177Y0312457D01*
X0204677Y0314957D01*
X0207177Y0312457D01*
X0212177Y0312457D01*
X0214677Y0314957D01*
X0217177Y0312457D01*
X0222177Y0312457D01*
X0224677Y0314957D01*
X0224677Y0319957D01*
X0222177Y0322457D01*
X0217177Y0322457D01*
X0214677Y0319957D01*
X0214677Y0314957D01*
X0214677Y0319957D01*
X0212177Y0322457D01*
X0207177Y0322457D01*
X0204677Y0319957D01*
X0204677Y0314957D01*
X0204677Y0319957D01*
X0202177Y0322457D01*
X0197177Y0322457D01*
X0194677Y0319957D01*
X0194677Y0314957D01*
X0194677Y0319957D01*
X0192177Y0322457D01*
X0187177Y0322457D01*
X0184677Y0319957D01*
X0184677Y0314957D01*
X0184677Y0319957D01*
X0182177Y0322457D01*
X0177177Y0322457D01*
X0182177Y0322457D01*
X0184677Y0324957D01*
X0187177Y0322457D01*
X0192177Y0322457D01*
X0194677Y0324957D01*
X0197177Y0322457D01*
X0202177Y0322457D01*
X0204677Y0324957D01*
X0207177Y0322457D01*
X0212177Y0322457D01*
X0214677Y0324957D01*
X0217177Y0322457D01*
X0222177Y0322457D01*
X0224677Y0324957D01*
X0224677Y0329957D01*
X0222177Y0332457D01*
X0217177Y0332457D01*
X0214677Y0329957D01*
X0214677Y0324957D01*
X0214677Y0329957D01*
X0212177Y0332457D01*
X0207177Y0332457D01*
X0204677Y0329957D01*
X0204677Y0324957D01*
X0204677Y0329957D01*
X0202177Y0332457D01*
X0197177Y0332457D01*
X0194677Y0329957D01*
X0194677Y0324957D01*
X0194677Y0329957D01*
X0192177Y0332457D01*
X0187177Y0332457D01*
X0184677Y0329957D01*
X0184677Y0324957D01*
X0184677Y0329957D01*
X0182177Y0332457D01*
X0177177Y0332457D01*
X0182177Y0332457D01*
X0184677Y0334957D01*
X0187177Y0332457D01*
X0192177Y0332457D01*
X0194677Y0334957D01*
X0197177Y0332457D01*
X0202177Y0332457D01*
X0204677Y0334957D01*
X0207177Y0332457D01*
X0212177Y0332457D01*
X0214677Y0334957D01*
X0217177Y0332457D01*
X0222177Y0332457D01*
X0224677Y0334957D01*
X0224677Y0339957D01*
X0222177Y0342457D01*
X0217177Y0342457D01*
X0214677Y0339957D01*
X0214677Y0334957D01*
X0214677Y0339957D01*
X0212177Y0342457D01*
X0207177Y0342457D01*
X0204677Y0339957D01*
X0204677Y0334957D01*
X0204677Y0339957D01*
X0202177Y0342457D01*
X0197177Y0342457D01*
X0194677Y0339957D01*
X0194677Y0334957D01*
X0194677Y0339957D01*
X0192177Y0342457D01*
X0187177Y0342457D01*
X0184677Y0339957D01*
X0184677Y0334957D01*
X0184677Y0339957D01*
X0182177Y0342457D01*
X0177177Y0342457D01*
X0174677Y0339957D01*
M02*
