G75*
%MOIN*%
%OFA0B0*%
%FSLAX25Y25*%
%IPPOS*%
%LPD*%
%AMOC8*
5,1,8,0,0,1.08239X$1,22.5*
%
%ADD10C,0.00000*%
%ADD11C,0.16548*%
%ADD12C,0.08200*%
D10*
X0001000Y0001850D02*
X0001000Y0395551D01*
X0276591Y0395551D01*
X0276591Y0001850D01*
X0001000Y0001850D01*
X0046276Y0039252D02*
X0046278Y0039445D01*
X0046285Y0039638D01*
X0046297Y0039831D01*
X0046314Y0040024D01*
X0046335Y0040216D01*
X0046361Y0040407D01*
X0046392Y0040598D01*
X0046427Y0040788D01*
X0046467Y0040977D01*
X0046512Y0041165D01*
X0046561Y0041352D01*
X0046615Y0041538D01*
X0046673Y0041722D01*
X0046736Y0041905D01*
X0046804Y0042086D01*
X0046875Y0042265D01*
X0046952Y0042443D01*
X0047032Y0042619D01*
X0047117Y0042792D01*
X0047206Y0042964D01*
X0047299Y0043133D01*
X0047396Y0043300D01*
X0047498Y0043465D01*
X0047603Y0043627D01*
X0047712Y0043786D01*
X0047826Y0043943D01*
X0047943Y0044096D01*
X0048063Y0044247D01*
X0048188Y0044395D01*
X0048316Y0044540D01*
X0048447Y0044681D01*
X0048582Y0044820D01*
X0048721Y0044955D01*
X0048862Y0045086D01*
X0049007Y0045214D01*
X0049155Y0045339D01*
X0049306Y0045459D01*
X0049459Y0045576D01*
X0049616Y0045690D01*
X0049775Y0045799D01*
X0049937Y0045904D01*
X0050102Y0046006D01*
X0050269Y0046103D01*
X0050438Y0046196D01*
X0050610Y0046285D01*
X0050783Y0046370D01*
X0050959Y0046450D01*
X0051137Y0046527D01*
X0051316Y0046598D01*
X0051497Y0046666D01*
X0051680Y0046729D01*
X0051864Y0046787D01*
X0052050Y0046841D01*
X0052237Y0046890D01*
X0052425Y0046935D01*
X0052614Y0046975D01*
X0052804Y0047010D01*
X0052995Y0047041D01*
X0053186Y0047067D01*
X0053378Y0047088D01*
X0053571Y0047105D01*
X0053764Y0047117D01*
X0053957Y0047124D01*
X0054150Y0047126D01*
X0054343Y0047124D01*
X0054536Y0047117D01*
X0054729Y0047105D01*
X0054922Y0047088D01*
X0055114Y0047067D01*
X0055305Y0047041D01*
X0055496Y0047010D01*
X0055686Y0046975D01*
X0055875Y0046935D01*
X0056063Y0046890D01*
X0056250Y0046841D01*
X0056436Y0046787D01*
X0056620Y0046729D01*
X0056803Y0046666D01*
X0056984Y0046598D01*
X0057163Y0046527D01*
X0057341Y0046450D01*
X0057517Y0046370D01*
X0057690Y0046285D01*
X0057862Y0046196D01*
X0058031Y0046103D01*
X0058198Y0046006D01*
X0058363Y0045904D01*
X0058525Y0045799D01*
X0058684Y0045690D01*
X0058841Y0045576D01*
X0058994Y0045459D01*
X0059145Y0045339D01*
X0059293Y0045214D01*
X0059438Y0045086D01*
X0059579Y0044955D01*
X0059718Y0044820D01*
X0059853Y0044681D01*
X0059984Y0044540D01*
X0060112Y0044395D01*
X0060237Y0044247D01*
X0060357Y0044096D01*
X0060474Y0043943D01*
X0060588Y0043786D01*
X0060697Y0043627D01*
X0060802Y0043465D01*
X0060904Y0043300D01*
X0061001Y0043133D01*
X0061094Y0042964D01*
X0061183Y0042792D01*
X0061268Y0042619D01*
X0061348Y0042443D01*
X0061425Y0042265D01*
X0061496Y0042086D01*
X0061564Y0041905D01*
X0061627Y0041722D01*
X0061685Y0041538D01*
X0061739Y0041352D01*
X0061788Y0041165D01*
X0061833Y0040977D01*
X0061873Y0040788D01*
X0061908Y0040598D01*
X0061939Y0040407D01*
X0061965Y0040216D01*
X0061986Y0040024D01*
X0062003Y0039831D01*
X0062015Y0039638D01*
X0062022Y0039445D01*
X0062024Y0039252D01*
X0062022Y0039059D01*
X0062015Y0038866D01*
X0062003Y0038673D01*
X0061986Y0038480D01*
X0061965Y0038288D01*
X0061939Y0038097D01*
X0061908Y0037906D01*
X0061873Y0037716D01*
X0061833Y0037527D01*
X0061788Y0037339D01*
X0061739Y0037152D01*
X0061685Y0036966D01*
X0061627Y0036782D01*
X0061564Y0036599D01*
X0061496Y0036418D01*
X0061425Y0036239D01*
X0061348Y0036061D01*
X0061268Y0035885D01*
X0061183Y0035712D01*
X0061094Y0035540D01*
X0061001Y0035371D01*
X0060904Y0035204D01*
X0060802Y0035039D01*
X0060697Y0034877D01*
X0060588Y0034718D01*
X0060474Y0034561D01*
X0060357Y0034408D01*
X0060237Y0034257D01*
X0060112Y0034109D01*
X0059984Y0033964D01*
X0059853Y0033823D01*
X0059718Y0033684D01*
X0059579Y0033549D01*
X0059438Y0033418D01*
X0059293Y0033290D01*
X0059145Y0033165D01*
X0058994Y0033045D01*
X0058841Y0032928D01*
X0058684Y0032814D01*
X0058525Y0032705D01*
X0058363Y0032600D01*
X0058198Y0032498D01*
X0058031Y0032401D01*
X0057862Y0032308D01*
X0057690Y0032219D01*
X0057517Y0032134D01*
X0057341Y0032054D01*
X0057163Y0031977D01*
X0056984Y0031906D01*
X0056803Y0031838D01*
X0056620Y0031775D01*
X0056436Y0031717D01*
X0056250Y0031663D01*
X0056063Y0031614D01*
X0055875Y0031569D01*
X0055686Y0031529D01*
X0055496Y0031494D01*
X0055305Y0031463D01*
X0055114Y0031437D01*
X0054922Y0031416D01*
X0054729Y0031399D01*
X0054536Y0031387D01*
X0054343Y0031380D01*
X0054150Y0031378D01*
X0053957Y0031380D01*
X0053764Y0031387D01*
X0053571Y0031399D01*
X0053378Y0031416D01*
X0053186Y0031437D01*
X0052995Y0031463D01*
X0052804Y0031494D01*
X0052614Y0031529D01*
X0052425Y0031569D01*
X0052237Y0031614D01*
X0052050Y0031663D01*
X0051864Y0031717D01*
X0051680Y0031775D01*
X0051497Y0031838D01*
X0051316Y0031906D01*
X0051137Y0031977D01*
X0050959Y0032054D01*
X0050783Y0032134D01*
X0050610Y0032219D01*
X0050438Y0032308D01*
X0050269Y0032401D01*
X0050102Y0032498D01*
X0049937Y0032600D01*
X0049775Y0032705D01*
X0049616Y0032814D01*
X0049459Y0032928D01*
X0049306Y0033045D01*
X0049155Y0033165D01*
X0049007Y0033290D01*
X0048862Y0033418D01*
X0048721Y0033549D01*
X0048582Y0033684D01*
X0048447Y0033823D01*
X0048316Y0033964D01*
X0048188Y0034109D01*
X0048063Y0034257D01*
X0047943Y0034408D01*
X0047826Y0034561D01*
X0047712Y0034718D01*
X0047603Y0034877D01*
X0047498Y0035039D01*
X0047396Y0035204D01*
X0047299Y0035371D01*
X0047206Y0035540D01*
X0047117Y0035712D01*
X0047032Y0035885D01*
X0046952Y0036061D01*
X0046875Y0036239D01*
X0046804Y0036418D01*
X0046736Y0036599D01*
X0046673Y0036782D01*
X0046615Y0036966D01*
X0046561Y0037152D01*
X0046512Y0037339D01*
X0046467Y0037527D01*
X0046427Y0037716D01*
X0046392Y0037906D01*
X0046361Y0038097D01*
X0046335Y0038288D01*
X0046314Y0038480D01*
X0046297Y0038673D01*
X0046285Y0038866D01*
X0046278Y0039059D01*
X0046276Y0039252D01*
X0215567Y0039252D02*
X0215569Y0039445D01*
X0215576Y0039638D01*
X0215588Y0039831D01*
X0215605Y0040024D01*
X0215626Y0040216D01*
X0215652Y0040407D01*
X0215683Y0040598D01*
X0215718Y0040788D01*
X0215758Y0040977D01*
X0215803Y0041165D01*
X0215852Y0041352D01*
X0215906Y0041538D01*
X0215964Y0041722D01*
X0216027Y0041905D01*
X0216095Y0042086D01*
X0216166Y0042265D01*
X0216243Y0042443D01*
X0216323Y0042619D01*
X0216408Y0042792D01*
X0216497Y0042964D01*
X0216590Y0043133D01*
X0216687Y0043300D01*
X0216789Y0043465D01*
X0216894Y0043627D01*
X0217003Y0043786D01*
X0217117Y0043943D01*
X0217234Y0044096D01*
X0217354Y0044247D01*
X0217479Y0044395D01*
X0217607Y0044540D01*
X0217738Y0044681D01*
X0217873Y0044820D01*
X0218012Y0044955D01*
X0218153Y0045086D01*
X0218298Y0045214D01*
X0218446Y0045339D01*
X0218597Y0045459D01*
X0218750Y0045576D01*
X0218907Y0045690D01*
X0219066Y0045799D01*
X0219228Y0045904D01*
X0219393Y0046006D01*
X0219560Y0046103D01*
X0219729Y0046196D01*
X0219901Y0046285D01*
X0220074Y0046370D01*
X0220250Y0046450D01*
X0220428Y0046527D01*
X0220607Y0046598D01*
X0220788Y0046666D01*
X0220971Y0046729D01*
X0221155Y0046787D01*
X0221341Y0046841D01*
X0221528Y0046890D01*
X0221716Y0046935D01*
X0221905Y0046975D01*
X0222095Y0047010D01*
X0222286Y0047041D01*
X0222477Y0047067D01*
X0222669Y0047088D01*
X0222862Y0047105D01*
X0223055Y0047117D01*
X0223248Y0047124D01*
X0223441Y0047126D01*
X0223634Y0047124D01*
X0223827Y0047117D01*
X0224020Y0047105D01*
X0224213Y0047088D01*
X0224405Y0047067D01*
X0224596Y0047041D01*
X0224787Y0047010D01*
X0224977Y0046975D01*
X0225166Y0046935D01*
X0225354Y0046890D01*
X0225541Y0046841D01*
X0225727Y0046787D01*
X0225911Y0046729D01*
X0226094Y0046666D01*
X0226275Y0046598D01*
X0226454Y0046527D01*
X0226632Y0046450D01*
X0226808Y0046370D01*
X0226981Y0046285D01*
X0227153Y0046196D01*
X0227322Y0046103D01*
X0227489Y0046006D01*
X0227654Y0045904D01*
X0227816Y0045799D01*
X0227975Y0045690D01*
X0228132Y0045576D01*
X0228285Y0045459D01*
X0228436Y0045339D01*
X0228584Y0045214D01*
X0228729Y0045086D01*
X0228870Y0044955D01*
X0229009Y0044820D01*
X0229144Y0044681D01*
X0229275Y0044540D01*
X0229403Y0044395D01*
X0229528Y0044247D01*
X0229648Y0044096D01*
X0229765Y0043943D01*
X0229879Y0043786D01*
X0229988Y0043627D01*
X0230093Y0043465D01*
X0230195Y0043300D01*
X0230292Y0043133D01*
X0230385Y0042964D01*
X0230474Y0042792D01*
X0230559Y0042619D01*
X0230639Y0042443D01*
X0230716Y0042265D01*
X0230787Y0042086D01*
X0230855Y0041905D01*
X0230918Y0041722D01*
X0230976Y0041538D01*
X0231030Y0041352D01*
X0231079Y0041165D01*
X0231124Y0040977D01*
X0231164Y0040788D01*
X0231199Y0040598D01*
X0231230Y0040407D01*
X0231256Y0040216D01*
X0231277Y0040024D01*
X0231294Y0039831D01*
X0231306Y0039638D01*
X0231313Y0039445D01*
X0231315Y0039252D01*
X0231313Y0039059D01*
X0231306Y0038866D01*
X0231294Y0038673D01*
X0231277Y0038480D01*
X0231256Y0038288D01*
X0231230Y0038097D01*
X0231199Y0037906D01*
X0231164Y0037716D01*
X0231124Y0037527D01*
X0231079Y0037339D01*
X0231030Y0037152D01*
X0230976Y0036966D01*
X0230918Y0036782D01*
X0230855Y0036599D01*
X0230787Y0036418D01*
X0230716Y0036239D01*
X0230639Y0036061D01*
X0230559Y0035885D01*
X0230474Y0035712D01*
X0230385Y0035540D01*
X0230292Y0035371D01*
X0230195Y0035204D01*
X0230093Y0035039D01*
X0229988Y0034877D01*
X0229879Y0034718D01*
X0229765Y0034561D01*
X0229648Y0034408D01*
X0229528Y0034257D01*
X0229403Y0034109D01*
X0229275Y0033964D01*
X0229144Y0033823D01*
X0229009Y0033684D01*
X0228870Y0033549D01*
X0228729Y0033418D01*
X0228584Y0033290D01*
X0228436Y0033165D01*
X0228285Y0033045D01*
X0228132Y0032928D01*
X0227975Y0032814D01*
X0227816Y0032705D01*
X0227654Y0032600D01*
X0227489Y0032498D01*
X0227322Y0032401D01*
X0227153Y0032308D01*
X0226981Y0032219D01*
X0226808Y0032134D01*
X0226632Y0032054D01*
X0226454Y0031977D01*
X0226275Y0031906D01*
X0226094Y0031838D01*
X0225911Y0031775D01*
X0225727Y0031717D01*
X0225541Y0031663D01*
X0225354Y0031614D01*
X0225166Y0031569D01*
X0224977Y0031529D01*
X0224787Y0031494D01*
X0224596Y0031463D01*
X0224405Y0031437D01*
X0224213Y0031416D01*
X0224020Y0031399D01*
X0223827Y0031387D01*
X0223634Y0031380D01*
X0223441Y0031378D01*
X0223248Y0031380D01*
X0223055Y0031387D01*
X0222862Y0031399D01*
X0222669Y0031416D01*
X0222477Y0031437D01*
X0222286Y0031463D01*
X0222095Y0031494D01*
X0221905Y0031529D01*
X0221716Y0031569D01*
X0221528Y0031614D01*
X0221341Y0031663D01*
X0221155Y0031717D01*
X0220971Y0031775D01*
X0220788Y0031838D01*
X0220607Y0031906D01*
X0220428Y0031977D01*
X0220250Y0032054D01*
X0220074Y0032134D01*
X0219901Y0032219D01*
X0219729Y0032308D01*
X0219560Y0032401D01*
X0219393Y0032498D01*
X0219228Y0032600D01*
X0219066Y0032705D01*
X0218907Y0032814D01*
X0218750Y0032928D01*
X0218597Y0033045D01*
X0218446Y0033165D01*
X0218298Y0033290D01*
X0218153Y0033418D01*
X0218012Y0033549D01*
X0217873Y0033684D01*
X0217738Y0033823D01*
X0217607Y0033964D01*
X0217479Y0034109D01*
X0217354Y0034257D01*
X0217234Y0034408D01*
X0217117Y0034561D01*
X0217003Y0034718D01*
X0216894Y0034877D01*
X0216789Y0035039D01*
X0216687Y0035204D01*
X0216590Y0035371D01*
X0216497Y0035540D01*
X0216408Y0035712D01*
X0216323Y0035885D01*
X0216243Y0036061D01*
X0216166Y0036239D01*
X0216095Y0036418D01*
X0216027Y0036599D01*
X0215964Y0036782D01*
X0215906Y0036966D01*
X0215852Y0037152D01*
X0215803Y0037339D01*
X0215758Y0037527D01*
X0215718Y0037716D01*
X0215683Y0037906D01*
X0215652Y0038097D01*
X0215626Y0038288D01*
X0215605Y0038480D01*
X0215588Y0038673D01*
X0215576Y0038866D01*
X0215569Y0039059D01*
X0215567Y0039252D01*
X0215567Y0358149D02*
X0215569Y0358342D01*
X0215576Y0358535D01*
X0215588Y0358728D01*
X0215605Y0358921D01*
X0215626Y0359113D01*
X0215652Y0359304D01*
X0215683Y0359495D01*
X0215718Y0359685D01*
X0215758Y0359874D01*
X0215803Y0360062D01*
X0215852Y0360249D01*
X0215906Y0360435D01*
X0215964Y0360619D01*
X0216027Y0360802D01*
X0216095Y0360983D01*
X0216166Y0361162D01*
X0216243Y0361340D01*
X0216323Y0361516D01*
X0216408Y0361689D01*
X0216497Y0361861D01*
X0216590Y0362030D01*
X0216687Y0362197D01*
X0216789Y0362362D01*
X0216894Y0362524D01*
X0217003Y0362683D01*
X0217117Y0362840D01*
X0217234Y0362993D01*
X0217354Y0363144D01*
X0217479Y0363292D01*
X0217607Y0363437D01*
X0217738Y0363578D01*
X0217873Y0363717D01*
X0218012Y0363852D01*
X0218153Y0363983D01*
X0218298Y0364111D01*
X0218446Y0364236D01*
X0218597Y0364356D01*
X0218750Y0364473D01*
X0218907Y0364587D01*
X0219066Y0364696D01*
X0219228Y0364801D01*
X0219393Y0364903D01*
X0219560Y0365000D01*
X0219729Y0365093D01*
X0219901Y0365182D01*
X0220074Y0365267D01*
X0220250Y0365347D01*
X0220428Y0365424D01*
X0220607Y0365495D01*
X0220788Y0365563D01*
X0220971Y0365626D01*
X0221155Y0365684D01*
X0221341Y0365738D01*
X0221528Y0365787D01*
X0221716Y0365832D01*
X0221905Y0365872D01*
X0222095Y0365907D01*
X0222286Y0365938D01*
X0222477Y0365964D01*
X0222669Y0365985D01*
X0222862Y0366002D01*
X0223055Y0366014D01*
X0223248Y0366021D01*
X0223441Y0366023D01*
X0223634Y0366021D01*
X0223827Y0366014D01*
X0224020Y0366002D01*
X0224213Y0365985D01*
X0224405Y0365964D01*
X0224596Y0365938D01*
X0224787Y0365907D01*
X0224977Y0365872D01*
X0225166Y0365832D01*
X0225354Y0365787D01*
X0225541Y0365738D01*
X0225727Y0365684D01*
X0225911Y0365626D01*
X0226094Y0365563D01*
X0226275Y0365495D01*
X0226454Y0365424D01*
X0226632Y0365347D01*
X0226808Y0365267D01*
X0226981Y0365182D01*
X0227153Y0365093D01*
X0227322Y0365000D01*
X0227489Y0364903D01*
X0227654Y0364801D01*
X0227816Y0364696D01*
X0227975Y0364587D01*
X0228132Y0364473D01*
X0228285Y0364356D01*
X0228436Y0364236D01*
X0228584Y0364111D01*
X0228729Y0363983D01*
X0228870Y0363852D01*
X0229009Y0363717D01*
X0229144Y0363578D01*
X0229275Y0363437D01*
X0229403Y0363292D01*
X0229528Y0363144D01*
X0229648Y0362993D01*
X0229765Y0362840D01*
X0229879Y0362683D01*
X0229988Y0362524D01*
X0230093Y0362362D01*
X0230195Y0362197D01*
X0230292Y0362030D01*
X0230385Y0361861D01*
X0230474Y0361689D01*
X0230559Y0361516D01*
X0230639Y0361340D01*
X0230716Y0361162D01*
X0230787Y0360983D01*
X0230855Y0360802D01*
X0230918Y0360619D01*
X0230976Y0360435D01*
X0231030Y0360249D01*
X0231079Y0360062D01*
X0231124Y0359874D01*
X0231164Y0359685D01*
X0231199Y0359495D01*
X0231230Y0359304D01*
X0231256Y0359113D01*
X0231277Y0358921D01*
X0231294Y0358728D01*
X0231306Y0358535D01*
X0231313Y0358342D01*
X0231315Y0358149D01*
X0231313Y0357956D01*
X0231306Y0357763D01*
X0231294Y0357570D01*
X0231277Y0357377D01*
X0231256Y0357185D01*
X0231230Y0356994D01*
X0231199Y0356803D01*
X0231164Y0356613D01*
X0231124Y0356424D01*
X0231079Y0356236D01*
X0231030Y0356049D01*
X0230976Y0355863D01*
X0230918Y0355679D01*
X0230855Y0355496D01*
X0230787Y0355315D01*
X0230716Y0355136D01*
X0230639Y0354958D01*
X0230559Y0354782D01*
X0230474Y0354609D01*
X0230385Y0354437D01*
X0230292Y0354268D01*
X0230195Y0354101D01*
X0230093Y0353936D01*
X0229988Y0353774D01*
X0229879Y0353615D01*
X0229765Y0353458D01*
X0229648Y0353305D01*
X0229528Y0353154D01*
X0229403Y0353006D01*
X0229275Y0352861D01*
X0229144Y0352720D01*
X0229009Y0352581D01*
X0228870Y0352446D01*
X0228729Y0352315D01*
X0228584Y0352187D01*
X0228436Y0352062D01*
X0228285Y0351942D01*
X0228132Y0351825D01*
X0227975Y0351711D01*
X0227816Y0351602D01*
X0227654Y0351497D01*
X0227489Y0351395D01*
X0227322Y0351298D01*
X0227153Y0351205D01*
X0226981Y0351116D01*
X0226808Y0351031D01*
X0226632Y0350951D01*
X0226454Y0350874D01*
X0226275Y0350803D01*
X0226094Y0350735D01*
X0225911Y0350672D01*
X0225727Y0350614D01*
X0225541Y0350560D01*
X0225354Y0350511D01*
X0225166Y0350466D01*
X0224977Y0350426D01*
X0224787Y0350391D01*
X0224596Y0350360D01*
X0224405Y0350334D01*
X0224213Y0350313D01*
X0224020Y0350296D01*
X0223827Y0350284D01*
X0223634Y0350277D01*
X0223441Y0350275D01*
X0223248Y0350277D01*
X0223055Y0350284D01*
X0222862Y0350296D01*
X0222669Y0350313D01*
X0222477Y0350334D01*
X0222286Y0350360D01*
X0222095Y0350391D01*
X0221905Y0350426D01*
X0221716Y0350466D01*
X0221528Y0350511D01*
X0221341Y0350560D01*
X0221155Y0350614D01*
X0220971Y0350672D01*
X0220788Y0350735D01*
X0220607Y0350803D01*
X0220428Y0350874D01*
X0220250Y0350951D01*
X0220074Y0351031D01*
X0219901Y0351116D01*
X0219729Y0351205D01*
X0219560Y0351298D01*
X0219393Y0351395D01*
X0219228Y0351497D01*
X0219066Y0351602D01*
X0218907Y0351711D01*
X0218750Y0351825D01*
X0218597Y0351942D01*
X0218446Y0352062D01*
X0218298Y0352187D01*
X0218153Y0352315D01*
X0218012Y0352446D01*
X0217873Y0352581D01*
X0217738Y0352720D01*
X0217607Y0352861D01*
X0217479Y0353006D01*
X0217354Y0353154D01*
X0217234Y0353305D01*
X0217117Y0353458D01*
X0217003Y0353615D01*
X0216894Y0353774D01*
X0216789Y0353936D01*
X0216687Y0354101D01*
X0216590Y0354268D01*
X0216497Y0354437D01*
X0216408Y0354609D01*
X0216323Y0354782D01*
X0216243Y0354958D01*
X0216166Y0355136D01*
X0216095Y0355315D01*
X0216027Y0355496D01*
X0215964Y0355679D01*
X0215906Y0355863D01*
X0215852Y0356049D01*
X0215803Y0356236D01*
X0215758Y0356424D01*
X0215718Y0356613D01*
X0215683Y0356803D01*
X0215652Y0356994D01*
X0215626Y0357185D01*
X0215605Y0357377D01*
X0215588Y0357570D01*
X0215576Y0357763D01*
X0215569Y0357956D01*
X0215567Y0358149D01*
X0046276Y0358149D02*
X0046278Y0358342D01*
X0046285Y0358535D01*
X0046297Y0358728D01*
X0046314Y0358921D01*
X0046335Y0359113D01*
X0046361Y0359304D01*
X0046392Y0359495D01*
X0046427Y0359685D01*
X0046467Y0359874D01*
X0046512Y0360062D01*
X0046561Y0360249D01*
X0046615Y0360435D01*
X0046673Y0360619D01*
X0046736Y0360802D01*
X0046804Y0360983D01*
X0046875Y0361162D01*
X0046952Y0361340D01*
X0047032Y0361516D01*
X0047117Y0361689D01*
X0047206Y0361861D01*
X0047299Y0362030D01*
X0047396Y0362197D01*
X0047498Y0362362D01*
X0047603Y0362524D01*
X0047712Y0362683D01*
X0047826Y0362840D01*
X0047943Y0362993D01*
X0048063Y0363144D01*
X0048188Y0363292D01*
X0048316Y0363437D01*
X0048447Y0363578D01*
X0048582Y0363717D01*
X0048721Y0363852D01*
X0048862Y0363983D01*
X0049007Y0364111D01*
X0049155Y0364236D01*
X0049306Y0364356D01*
X0049459Y0364473D01*
X0049616Y0364587D01*
X0049775Y0364696D01*
X0049937Y0364801D01*
X0050102Y0364903D01*
X0050269Y0365000D01*
X0050438Y0365093D01*
X0050610Y0365182D01*
X0050783Y0365267D01*
X0050959Y0365347D01*
X0051137Y0365424D01*
X0051316Y0365495D01*
X0051497Y0365563D01*
X0051680Y0365626D01*
X0051864Y0365684D01*
X0052050Y0365738D01*
X0052237Y0365787D01*
X0052425Y0365832D01*
X0052614Y0365872D01*
X0052804Y0365907D01*
X0052995Y0365938D01*
X0053186Y0365964D01*
X0053378Y0365985D01*
X0053571Y0366002D01*
X0053764Y0366014D01*
X0053957Y0366021D01*
X0054150Y0366023D01*
X0054343Y0366021D01*
X0054536Y0366014D01*
X0054729Y0366002D01*
X0054922Y0365985D01*
X0055114Y0365964D01*
X0055305Y0365938D01*
X0055496Y0365907D01*
X0055686Y0365872D01*
X0055875Y0365832D01*
X0056063Y0365787D01*
X0056250Y0365738D01*
X0056436Y0365684D01*
X0056620Y0365626D01*
X0056803Y0365563D01*
X0056984Y0365495D01*
X0057163Y0365424D01*
X0057341Y0365347D01*
X0057517Y0365267D01*
X0057690Y0365182D01*
X0057862Y0365093D01*
X0058031Y0365000D01*
X0058198Y0364903D01*
X0058363Y0364801D01*
X0058525Y0364696D01*
X0058684Y0364587D01*
X0058841Y0364473D01*
X0058994Y0364356D01*
X0059145Y0364236D01*
X0059293Y0364111D01*
X0059438Y0363983D01*
X0059579Y0363852D01*
X0059718Y0363717D01*
X0059853Y0363578D01*
X0059984Y0363437D01*
X0060112Y0363292D01*
X0060237Y0363144D01*
X0060357Y0362993D01*
X0060474Y0362840D01*
X0060588Y0362683D01*
X0060697Y0362524D01*
X0060802Y0362362D01*
X0060904Y0362197D01*
X0061001Y0362030D01*
X0061094Y0361861D01*
X0061183Y0361689D01*
X0061268Y0361516D01*
X0061348Y0361340D01*
X0061425Y0361162D01*
X0061496Y0360983D01*
X0061564Y0360802D01*
X0061627Y0360619D01*
X0061685Y0360435D01*
X0061739Y0360249D01*
X0061788Y0360062D01*
X0061833Y0359874D01*
X0061873Y0359685D01*
X0061908Y0359495D01*
X0061939Y0359304D01*
X0061965Y0359113D01*
X0061986Y0358921D01*
X0062003Y0358728D01*
X0062015Y0358535D01*
X0062022Y0358342D01*
X0062024Y0358149D01*
X0062022Y0357956D01*
X0062015Y0357763D01*
X0062003Y0357570D01*
X0061986Y0357377D01*
X0061965Y0357185D01*
X0061939Y0356994D01*
X0061908Y0356803D01*
X0061873Y0356613D01*
X0061833Y0356424D01*
X0061788Y0356236D01*
X0061739Y0356049D01*
X0061685Y0355863D01*
X0061627Y0355679D01*
X0061564Y0355496D01*
X0061496Y0355315D01*
X0061425Y0355136D01*
X0061348Y0354958D01*
X0061268Y0354782D01*
X0061183Y0354609D01*
X0061094Y0354437D01*
X0061001Y0354268D01*
X0060904Y0354101D01*
X0060802Y0353936D01*
X0060697Y0353774D01*
X0060588Y0353615D01*
X0060474Y0353458D01*
X0060357Y0353305D01*
X0060237Y0353154D01*
X0060112Y0353006D01*
X0059984Y0352861D01*
X0059853Y0352720D01*
X0059718Y0352581D01*
X0059579Y0352446D01*
X0059438Y0352315D01*
X0059293Y0352187D01*
X0059145Y0352062D01*
X0058994Y0351942D01*
X0058841Y0351825D01*
X0058684Y0351711D01*
X0058525Y0351602D01*
X0058363Y0351497D01*
X0058198Y0351395D01*
X0058031Y0351298D01*
X0057862Y0351205D01*
X0057690Y0351116D01*
X0057517Y0351031D01*
X0057341Y0350951D01*
X0057163Y0350874D01*
X0056984Y0350803D01*
X0056803Y0350735D01*
X0056620Y0350672D01*
X0056436Y0350614D01*
X0056250Y0350560D01*
X0056063Y0350511D01*
X0055875Y0350466D01*
X0055686Y0350426D01*
X0055496Y0350391D01*
X0055305Y0350360D01*
X0055114Y0350334D01*
X0054922Y0350313D01*
X0054729Y0350296D01*
X0054536Y0350284D01*
X0054343Y0350277D01*
X0054150Y0350275D01*
X0053957Y0350277D01*
X0053764Y0350284D01*
X0053571Y0350296D01*
X0053378Y0350313D01*
X0053186Y0350334D01*
X0052995Y0350360D01*
X0052804Y0350391D01*
X0052614Y0350426D01*
X0052425Y0350466D01*
X0052237Y0350511D01*
X0052050Y0350560D01*
X0051864Y0350614D01*
X0051680Y0350672D01*
X0051497Y0350735D01*
X0051316Y0350803D01*
X0051137Y0350874D01*
X0050959Y0350951D01*
X0050783Y0351031D01*
X0050610Y0351116D01*
X0050438Y0351205D01*
X0050269Y0351298D01*
X0050102Y0351395D01*
X0049937Y0351497D01*
X0049775Y0351602D01*
X0049616Y0351711D01*
X0049459Y0351825D01*
X0049306Y0351942D01*
X0049155Y0352062D01*
X0049007Y0352187D01*
X0048862Y0352315D01*
X0048721Y0352446D01*
X0048582Y0352581D01*
X0048447Y0352720D01*
X0048316Y0352861D01*
X0048188Y0353006D01*
X0048063Y0353154D01*
X0047943Y0353305D01*
X0047826Y0353458D01*
X0047712Y0353615D01*
X0047603Y0353774D01*
X0047498Y0353936D01*
X0047396Y0354101D01*
X0047299Y0354268D01*
X0047206Y0354437D01*
X0047117Y0354609D01*
X0047032Y0354782D01*
X0046952Y0354958D01*
X0046875Y0355136D01*
X0046804Y0355315D01*
X0046736Y0355496D01*
X0046673Y0355679D01*
X0046615Y0355863D01*
X0046561Y0356049D01*
X0046512Y0356236D01*
X0046467Y0356424D01*
X0046427Y0356613D01*
X0046392Y0356803D01*
X0046361Y0356994D01*
X0046335Y0357185D01*
X0046314Y0357377D01*
X0046297Y0357570D01*
X0046285Y0357763D01*
X0046278Y0357956D01*
X0046276Y0358149D01*
D11*
X0054150Y0358149D03*
X0223441Y0358149D03*
X0223441Y0039252D03*
X0054150Y0039252D03*
D12*
X0078795Y0053700D03*
X0088795Y0053700D03*
X0088795Y0063700D03*
X0088795Y0073700D03*
X0078795Y0073700D03*
X0078795Y0063700D03*
X0078795Y0083700D03*
X0078795Y0093700D03*
X0088795Y0093700D03*
X0088795Y0083700D03*
X0098795Y0083700D03*
X0098795Y0093700D03*
X0098795Y0103700D03*
X0098795Y0113700D03*
X0098795Y0123700D03*
X0098795Y0133700D03*
X0098795Y0143700D03*
X0098795Y0153700D03*
X0098795Y0163700D03*
X0098795Y0173700D03*
X0098795Y0183700D03*
X0098795Y0193700D03*
X0098795Y0203700D03*
X0098795Y0213700D03*
X0098795Y0223700D03*
X0098795Y0233700D03*
X0098795Y0243700D03*
X0098795Y0253700D03*
X0098795Y0263700D03*
X0098795Y0273700D03*
X0098795Y0283700D03*
X0098795Y0293700D03*
X0098795Y0303700D03*
X0098795Y0313700D03*
X0098795Y0323700D03*
X0098795Y0333700D03*
X0098795Y0343700D03*
X0088795Y0343700D03*
X0088795Y0333700D03*
X0088795Y0323700D03*
X0088795Y0313700D03*
X0088795Y0303700D03*
X0088795Y0293700D03*
X0088795Y0283700D03*
X0088795Y0273700D03*
X0088795Y0263700D03*
X0088795Y0253700D03*
X0088795Y0243700D03*
X0088795Y0233700D03*
X0088795Y0223700D03*
X0088795Y0213700D03*
X0088795Y0203700D03*
X0088795Y0193700D03*
X0088795Y0183700D03*
X0088795Y0173700D03*
X0088795Y0163700D03*
X0088795Y0153700D03*
X0088795Y0143700D03*
X0088795Y0133700D03*
X0088795Y0123700D03*
X0088795Y0113700D03*
X0088795Y0103700D03*
X0078795Y0103700D03*
X0078795Y0113700D03*
X0078795Y0123700D03*
X0078795Y0133700D03*
X0078795Y0143700D03*
X0078795Y0153700D03*
X0078795Y0163700D03*
X0078795Y0173700D03*
X0078795Y0183700D03*
X0078795Y0193700D03*
X0078795Y0203700D03*
X0078795Y0213700D03*
X0078795Y0223700D03*
X0078795Y0233700D03*
X0078795Y0243700D03*
X0078795Y0253700D03*
X0078795Y0263700D03*
X0078795Y0273700D03*
X0078795Y0283700D03*
X0078795Y0293700D03*
X0078795Y0303700D03*
X0078795Y0313700D03*
X0078795Y0323700D03*
X0078795Y0333700D03*
X0078795Y0343700D03*
X0108795Y0343700D03*
X0108795Y0333700D03*
X0108795Y0323700D03*
X0108795Y0313700D03*
X0108795Y0303700D03*
X0108795Y0293700D03*
X0108795Y0283700D03*
X0108795Y0273700D03*
X0108795Y0263700D03*
X0108795Y0253700D03*
X0108795Y0243700D03*
X0108795Y0233700D03*
X0108795Y0223700D03*
X0108795Y0213700D03*
X0108795Y0203700D03*
X0108795Y0193700D03*
X0108795Y0183700D03*
X0108795Y0173700D03*
X0108795Y0163700D03*
X0108795Y0153700D03*
X0108795Y0143700D03*
X0108795Y0133700D03*
X0108795Y0123700D03*
X0108795Y0113700D03*
X0108795Y0103700D03*
X0108795Y0093700D03*
X0108795Y0083700D03*
X0108795Y0073700D03*
X0108795Y0063700D03*
X0108795Y0053700D03*
X0118795Y0053700D03*
X0118795Y0063700D03*
X0118795Y0073700D03*
X0118795Y0083700D03*
X0118795Y0093700D03*
X0118795Y0103700D03*
X0118795Y0113700D03*
X0118795Y0123700D03*
X0118795Y0133700D03*
X0118795Y0143700D03*
X0118795Y0153700D03*
X0118795Y0163700D03*
X0118795Y0173700D03*
X0118795Y0183700D03*
X0118795Y0193700D03*
X0118795Y0203700D03*
X0118795Y0213700D03*
X0118795Y0223700D03*
X0118795Y0233700D03*
X0118795Y0243700D03*
X0118795Y0253700D03*
X0118795Y0263700D03*
X0118795Y0273700D03*
X0118795Y0283700D03*
X0118795Y0293700D03*
X0118795Y0303700D03*
X0118795Y0313700D03*
X0118795Y0323700D03*
X0118795Y0333700D03*
X0118795Y0343700D03*
X0158795Y0343700D03*
X0158795Y0333700D03*
X0158795Y0323700D03*
X0158795Y0313700D03*
X0158795Y0303700D03*
X0158795Y0293700D03*
X0158795Y0283700D03*
X0158795Y0273700D03*
X0158795Y0263700D03*
X0158795Y0253700D03*
X0158795Y0243700D03*
X0158795Y0233700D03*
X0158795Y0223700D03*
X0158795Y0213700D03*
X0158795Y0203700D03*
X0158795Y0193700D03*
X0158795Y0183700D03*
X0158795Y0173700D03*
X0158795Y0163700D03*
X0158795Y0153700D03*
X0158795Y0143700D03*
X0158795Y0133700D03*
X0158795Y0123700D03*
X0158795Y0113700D03*
X0158795Y0103700D03*
X0158795Y0093700D03*
X0158795Y0083700D03*
X0158795Y0073700D03*
X0158795Y0063700D03*
X0158795Y0053700D03*
X0168795Y0053700D03*
X0168795Y0063700D03*
X0168795Y0073700D03*
X0168795Y0083700D03*
X0168795Y0093700D03*
X0168795Y0103700D03*
X0168795Y0113700D03*
X0168795Y0123700D03*
X0168795Y0133700D03*
X0168795Y0143700D03*
X0168795Y0153700D03*
X0168795Y0163700D03*
X0168795Y0173700D03*
X0168795Y0183700D03*
X0168795Y0193700D03*
X0168795Y0203700D03*
X0168795Y0213700D03*
X0168795Y0223700D03*
X0168795Y0233700D03*
X0168795Y0243700D03*
X0168795Y0253700D03*
X0168795Y0263700D03*
X0168795Y0273700D03*
X0168795Y0283700D03*
X0168795Y0293700D03*
X0168795Y0303700D03*
X0168795Y0313700D03*
X0168795Y0323700D03*
X0168795Y0333700D03*
X0168795Y0343700D03*
X0178795Y0343700D03*
X0178795Y0333700D03*
X0178795Y0323700D03*
X0178795Y0313700D03*
X0178795Y0303700D03*
X0178795Y0293700D03*
X0178795Y0283700D03*
X0178795Y0273700D03*
X0178795Y0263700D03*
X0178795Y0253700D03*
X0178795Y0243700D03*
X0178795Y0233700D03*
X0178795Y0223700D03*
X0178795Y0213700D03*
X0178795Y0203700D03*
X0178795Y0193700D03*
X0178795Y0183700D03*
X0178795Y0173700D03*
X0178795Y0163700D03*
X0178795Y0153700D03*
X0178795Y0143700D03*
X0178795Y0133700D03*
X0178795Y0123700D03*
X0178795Y0113700D03*
X0178795Y0103700D03*
X0178795Y0093700D03*
X0178795Y0083700D03*
X0178795Y0073700D03*
X0178795Y0063700D03*
X0178795Y0053700D03*
X0188795Y0053700D03*
X0188795Y0063700D03*
X0188795Y0073700D03*
X0188795Y0083700D03*
X0188795Y0093700D03*
X0188795Y0103700D03*
X0188795Y0113700D03*
X0188795Y0123700D03*
X0188795Y0133700D03*
X0188795Y0143700D03*
X0188795Y0153700D03*
X0188795Y0163700D03*
X0188795Y0173700D03*
X0188795Y0183700D03*
X0188795Y0193700D03*
X0188795Y0203700D03*
X0188795Y0213700D03*
X0188795Y0223700D03*
X0188795Y0233700D03*
X0188795Y0243700D03*
X0188795Y0253700D03*
X0188795Y0263700D03*
X0188795Y0273700D03*
X0188795Y0283700D03*
X0188795Y0293700D03*
X0188795Y0303700D03*
X0188795Y0313700D03*
X0188795Y0323700D03*
X0188795Y0333700D03*
X0188795Y0343700D03*
X0198795Y0343700D03*
X0198795Y0333700D03*
X0198795Y0323700D03*
X0198795Y0313700D03*
X0198795Y0303700D03*
X0198795Y0293700D03*
X0198795Y0283700D03*
X0198795Y0273700D03*
X0198795Y0263700D03*
X0198795Y0253700D03*
X0198795Y0243700D03*
X0198795Y0233700D03*
X0198795Y0223700D03*
X0198795Y0213700D03*
X0198795Y0203700D03*
X0198795Y0193700D03*
X0198795Y0183700D03*
X0198795Y0173700D03*
X0198795Y0163700D03*
X0198795Y0153700D03*
X0198795Y0143700D03*
X0198795Y0133700D03*
X0198795Y0123700D03*
X0198795Y0113700D03*
X0198795Y0103700D03*
X0198795Y0093700D03*
X0198795Y0083700D03*
X0198795Y0073700D03*
X0198795Y0063700D03*
X0198795Y0053700D03*
X0098795Y0053700D03*
X0098795Y0063700D03*
X0098795Y0073700D03*
M02*
