G75*
%MOIN*%
%OFA0B0*%
%FSLAX25Y25*%
%IPPOS*%
%LPD*%
%AMOC8*
5,1,8,0,0,1.08239X$1,22.5*
%
%ADD10C,0.00000*%
D10*
X0001850Y0001850D02*
X0001850Y0395551D01*
X0277441Y0395551D01*
X0277441Y0001850D01*
X0001850Y0001850D01*
X0047126Y0039252D02*
X0047128Y0039445D01*
X0047135Y0039638D01*
X0047147Y0039831D01*
X0047164Y0040024D01*
X0047185Y0040216D01*
X0047211Y0040407D01*
X0047242Y0040598D01*
X0047277Y0040788D01*
X0047317Y0040977D01*
X0047362Y0041165D01*
X0047411Y0041352D01*
X0047465Y0041538D01*
X0047523Y0041722D01*
X0047586Y0041905D01*
X0047654Y0042086D01*
X0047725Y0042265D01*
X0047802Y0042443D01*
X0047882Y0042619D01*
X0047967Y0042792D01*
X0048056Y0042964D01*
X0048149Y0043133D01*
X0048246Y0043300D01*
X0048348Y0043465D01*
X0048453Y0043627D01*
X0048562Y0043786D01*
X0048676Y0043943D01*
X0048793Y0044096D01*
X0048913Y0044247D01*
X0049038Y0044395D01*
X0049166Y0044540D01*
X0049297Y0044681D01*
X0049432Y0044820D01*
X0049571Y0044955D01*
X0049712Y0045086D01*
X0049857Y0045214D01*
X0050005Y0045339D01*
X0050156Y0045459D01*
X0050309Y0045576D01*
X0050466Y0045690D01*
X0050625Y0045799D01*
X0050787Y0045904D01*
X0050952Y0046006D01*
X0051119Y0046103D01*
X0051288Y0046196D01*
X0051460Y0046285D01*
X0051633Y0046370D01*
X0051809Y0046450D01*
X0051987Y0046527D01*
X0052166Y0046598D01*
X0052347Y0046666D01*
X0052530Y0046729D01*
X0052714Y0046787D01*
X0052900Y0046841D01*
X0053087Y0046890D01*
X0053275Y0046935D01*
X0053464Y0046975D01*
X0053654Y0047010D01*
X0053845Y0047041D01*
X0054036Y0047067D01*
X0054228Y0047088D01*
X0054421Y0047105D01*
X0054614Y0047117D01*
X0054807Y0047124D01*
X0055000Y0047126D01*
X0055193Y0047124D01*
X0055386Y0047117D01*
X0055579Y0047105D01*
X0055772Y0047088D01*
X0055964Y0047067D01*
X0056155Y0047041D01*
X0056346Y0047010D01*
X0056536Y0046975D01*
X0056725Y0046935D01*
X0056913Y0046890D01*
X0057100Y0046841D01*
X0057286Y0046787D01*
X0057470Y0046729D01*
X0057653Y0046666D01*
X0057834Y0046598D01*
X0058013Y0046527D01*
X0058191Y0046450D01*
X0058367Y0046370D01*
X0058540Y0046285D01*
X0058712Y0046196D01*
X0058881Y0046103D01*
X0059048Y0046006D01*
X0059213Y0045904D01*
X0059375Y0045799D01*
X0059534Y0045690D01*
X0059691Y0045576D01*
X0059844Y0045459D01*
X0059995Y0045339D01*
X0060143Y0045214D01*
X0060288Y0045086D01*
X0060429Y0044955D01*
X0060568Y0044820D01*
X0060703Y0044681D01*
X0060834Y0044540D01*
X0060962Y0044395D01*
X0061087Y0044247D01*
X0061207Y0044096D01*
X0061324Y0043943D01*
X0061438Y0043786D01*
X0061547Y0043627D01*
X0061652Y0043465D01*
X0061754Y0043300D01*
X0061851Y0043133D01*
X0061944Y0042964D01*
X0062033Y0042792D01*
X0062118Y0042619D01*
X0062198Y0042443D01*
X0062275Y0042265D01*
X0062346Y0042086D01*
X0062414Y0041905D01*
X0062477Y0041722D01*
X0062535Y0041538D01*
X0062589Y0041352D01*
X0062638Y0041165D01*
X0062683Y0040977D01*
X0062723Y0040788D01*
X0062758Y0040598D01*
X0062789Y0040407D01*
X0062815Y0040216D01*
X0062836Y0040024D01*
X0062853Y0039831D01*
X0062865Y0039638D01*
X0062872Y0039445D01*
X0062874Y0039252D01*
X0062872Y0039059D01*
X0062865Y0038866D01*
X0062853Y0038673D01*
X0062836Y0038480D01*
X0062815Y0038288D01*
X0062789Y0038097D01*
X0062758Y0037906D01*
X0062723Y0037716D01*
X0062683Y0037527D01*
X0062638Y0037339D01*
X0062589Y0037152D01*
X0062535Y0036966D01*
X0062477Y0036782D01*
X0062414Y0036599D01*
X0062346Y0036418D01*
X0062275Y0036239D01*
X0062198Y0036061D01*
X0062118Y0035885D01*
X0062033Y0035712D01*
X0061944Y0035540D01*
X0061851Y0035371D01*
X0061754Y0035204D01*
X0061652Y0035039D01*
X0061547Y0034877D01*
X0061438Y0034718D01*
X0061324Y0034561D01*
X0061207Y0034408D01*
X0061087Y0034257D01*
X0060962Y0034109D01*
X0060834Y0033964D01*
X0060703Y0033823D01*
X0060568Y0033684D01*
X0060429Y0033549D01*
X0060288Y0033418D01*
X0060143Y0033290D01*
X0059995Y0033165D01*
X0059844Y0033045D01*
X0059691Y0032928D01*
X0059534Y0032814D01*
X0059375Y0032705D01*
X0059213Y0032600D01*
X0059048Y0032498D01*
X0058881Y0032401D01*
X0058712Y0032308D01*
X0058540Y0032219D01*
X0058367Y0032134D01*
X0058191Y0032054D01*
X0058013Y0031977D01*
X0057834Y0031906D01*
X0057653Y0031838D01*
X0057470Y0031775D01*
X0057286Y0031717D01*
X0057100Y0031663D01*
X0056913Y0031614D01*
X0056725Y0031569D01*
X0056536Y0031529D01*
X0056346Y0031494D01*
X0056155Y0031463D01*
X0055964Y0031437D01*
X0055772Y0031416D01*
X0055579Y0031399D01*
X0055386Y0031387D01*
X0055193Y0031380D01*
X0055000Y0031378D01*
X0054807Y0031380D01*
X0054614Y0031387D01*
X0054421Y0031399D01*
X0054228Y0031416D01*
X0054036Y0031437D01*
X0053845Y0031463D01*
X0053654Y0031494D01*
X0053464Y0031529D01*
X0053275Y0031569D01*
X0053087Y0031614D01*
X0052900Y0031663D01*
X0052714Y0031717D01*
X0052530Y0031775D01*
X0052347Y0031838D01*
X0052166Y0031906D01*
X0051987Y0031977D01*
X0051809Y0032054D01*
X0051633Y0032134D01*
X0051460Y0032219D01*
X0051288Y0032308D01*
X0051119Y0032401D01*
X0050952Y0032498D01*
X0050787Y0032600D01*
X0050625Y0032705D01*
X0050466Y0032814D01*
X0050309Y0032928D01*
X0050156Y0033045D01*
X0050005Y0033165D01*
X0049857Y0033290D01*
X0049712Y0033418D01*
X0049571Y0033549D01*
X0049432Y0033684D01*
X0049297Y0033823D01*
X0049166Y0033964D01*
X0049038Y0034109D01*
X0048913Y0034257D01*
X0048793Y0034408D01*
X0048676Y0034561D01*
X0048562Y0034718D01*
X0048453Y0034877D01*
X0048348Y0035039D01*
X0048246Y0035204D01*
X0048149Y0035371D01*
X0048056Y0035540D01*
X0047967Y0035712D01*
X0047882Y0035885D01*
X0047802Y0036061D01*
X0047725Y0036239D01*
X0047654Y0036418D01*
X0047586Y0036599D01*
X0047523Y0036782D01*
X0047465Y0036966D01*
X0047411Y0037152D01*
X0047362Y0037339D01*
X0047317Y0037527D01*
X0047277Y0037716D01*
X0047242Y0037906D01*
X0047211Y0038097D01*
X0047185Y0038288D01*
X0047164Y0038480D01*
X0047147Y0038673D01*
X0047135Y0038866D01*
X0047128Y0039059D01*
X0047126Y0039252D01*
X0216417Y0039252D02*
X0216419Y0039445D01*
X0216426Y0039638D01*
X0216438Y0039831D01*
X0216455Y0040024D01*
X0216476Y0040216D01*
X0216502Y0040407D01*
X0216533Y0040598D01*
X0216568Y0040788D01*
X0216608Y0040977D01*
X0216653Y0041165D01*
X0216702Y0041352D01*
X0216756Y0041538D01*
X0216814Y0041722D01*
X0216877Y0041905D01*
X0216945Y0042086D01*
X0217016Y0042265D01*
X0217093Y0042443D01*
X0217173Y0042619D01*
X0217258Y0042792D01*
X0217347Y0042964D01*
X0217440Y0043133D01*
X0217537Y0043300D01*
X0217639Y0043465D01*
X0217744Y0043627D01*
X0217853Y0043786D01*
X0217967Y0043943D01*
X0218084Y0044096D01*
X0218204Y0044247D01*
X0218329Y0044395D01*
X0218457Y0044540D01*
X0218588Y0044681D01*
X0218723Y0044820D01*
X0218862Y0044955D01*
X0219003Y0045086D01*
X0219148Y0045214D01*
X0219296Y0045339D01*
X0219447Y0045459D01*
X0219600Y0045576D01*
X0219757Y0045690D01*
X0219916Y0045799D01*
X0220078Y0045904D01*
X0220243Y0046006D01*
X0220410Y0046103D01*
X0220579Y0046196D01*
X0220751Y0046285D01*
X0220924Y0046370D01*
X0221100Y0046450D01*
X0221278Y0046527D01*
X0221457Y0046598D01*
X0221638Y0046666D01*
X0221821Y0046729D01*
X0222005Y0046787D01*
X0222191Y0046841D01*
X0222378Y0046890D01*
X0222566Y0046935D01*
X0222755Y0046975D01*
X0222945Y0047010D01*
X0223136Y0047041D01*
X0223327Y0047067D01*
X0223519Y0047088D01*
X0223712Y0047105D01*
X0223905Y0047117D01*
X0224098Y0047124D01*
X0224291Y0047126D01*
X0224484Y0047124D01*
X0224677Y0047117D01*
X0224870Y0047105D01*
X0225063Y0047088D01*
X0225255Y0047067D01*
X0225446Y0047041D01*
X0225637Y0047010D01*
X0225827Y0046975D01*
X0226016Y0046935D01*
X0226204Y0046890D01*
X0226391Y0046841D01*
X0226577Y0046787D01*
X0226761Y0046729D01*
X0226944Y0046666D01*
X0227125Y0046598D01*
X0227304Y0046527D01*
X0227482Y0046450D01*
X0227658Y0046370D01*
X0227831Y0046285D01*
X0228003Y0046196D01*
X0228172Y0046103D01*
X0228339Y0046006D01*
X0228504Y0045904D01*
X0228666Y0045799D01*
X0228825Y0045690D01*
X0228982Y0045576D01*
X0229135Y0045459D01*
X0229286Y0045339D01*
X0229434Y0045214D01*
X0229579Y0045086D01*
X0229720Y0044955D01*
X0229859Y0044820D01*
X0229994Y0044681D01*
X0230125Y0044540D01*
X0230253Y0044395D01*
X0230378Y0044247D01*
X0230498Y0044096D01*
X0230615Y0043943D01*
X0230729Y0043786D01*
X0230838Y0043627D01*
X0230943Y0043465D01*
X0231045Y0043300D01*
X0231142Y0043133D01*
X0231235Y0042964D01*
X0231324Y0042792D01*
X0231409Y0042619D01*
X0231489Y0042443D01*
X0231566Y0042265D01*
X0231637Y0042086D01*
X0231705Y0041905D01*
X0231768Y0041722D01*
X0231826Y0041538D01*
X0231880Y0041352D01*
X0231929Y0041165D01*
X0231974Y0040977D01*
X0232014Y0040788D01*
X0232049Y0040598D01*
X0232080Y0040407D01*
X0232106Y0040216D01*
X0232127Y0040024D01*
X0232144Y0039831D01*
X0232156Y0039638D01*
X0232163Y0039445D01*
X0232165Y0039252D01*
X0232163Y0039059D01*
X0232156Y0038866D01*
X0232144Y0038673D01*
X0232127Y0038480D01*
X0232106Y0038288D01*
X0232080Y0038097D01*
X0232049Y0037906D01*
X0232014Y0037716D01*
X0231974Y0037527D01*
X0231929Y0037339D01*
X0231880Y0037152D01*
X0231826Y0036966D01*
X0231768Y0036782D01*
X0231705Y0036599D01*
X0231637Y0036418D01*
X0231566Y0036239D01*
X0231489Y0036061D01*
X0231409Y0035885D01*
X0231324Y0035712D01*
X0231235Y0035540D01*
X0231142Y0035371D01*
X0231045Y0035204D01*
X0230943Y0035039D01*
X0230838Y0034877D01*
X0230729Y0034718D01*
X0230615Y0034561D01*
X0230498Y0034408D01*
X0230378Y0034257D01*
X0230253Y0034109D01*
X0230125Y0033964D01*
X0229994Y0033823D01*
X0229859Y0033684D01*
X0229720Y0033549D01*
X0229579Y0033418D01*
X0229434Y0033290D01*
X0229286Y0033165D01*
X0229135Y0033045D01*
X0228982Y0032928D01*
X0228825Y0032814D01*
X0228666Y0032705D01*
X0228504Y0032600D01*
X0228339Y0032498D01*
X0228172Y0032401D01*
X0228003Y0032308D01*
X0227831Y0032219D01*
X0227658Y0032134D01*
X0227482Y0032054D01*
X0227304Y0031977D01*
X0227125Y0031906D01*
X0226944Y0031838D01*
X0226761Y0031775D01*
X0226577Y0031717D01*
X0226391Y0031663D01*
X0226204Y0031614D01*
X0226016Y0031569D01*
X0225827Y0031529D01*
X0225637Y0031494D01*
X0225446Y0031463D01*
X0225255Y0031437D01*
X0225063Y0031416D01*
X0224870Y0031399D01*
X0224677Y0031387D01*
X0224484Y0031380D01*
X0224291Y0031378D01*
X0224098Y0031380D01*
X0223905Y0031387D01*
X0223712Y0031399D01*
X0223519Y0031416D01*
X0223327Y0031437D01*
X0223136Y0031463D01*
X0222945Y0031494D01*
X0222755Y0031529D01*
X0222566Y0031569D01*
X0222378Y0031614D01*
X0222191Y0031663D01*
X0222005Y0031717D01*
X0221821Y0031775D01*
X0221638Y0031838D01*
X0221457Y0031906D01*
X0221278Y0031977D01*
X0221100Y0032054D01*
X0220924Y0032134D01*
X0220751Y0032219D01*
X0220579Y0032308D01*
X0220410Y0032401D01*
X0220243Y0032498D01*
X0220078Y0032600D01*
X0219916Y0032705D01*
X0219757Y0032814D01*
X0219600Y0032928D01*
X0219447Y0033045D01*
X0219296Y0033165D01*
X0219148Y0033290D01*
X0219003Y0033418D01*
X0218862Y0033549D01*
X0218723Y0033684D01*
X0218588Y0033823D01*
X0218457Y0033964D01*
X0218329Y0034109D01*
X0218204Y0034257D01*
X0218084Y0034408D01*
X0217967Y0034561D01*
X0217853Y0034718D01*
X0217744Y0034877D01*
X0217639Y0035039D01*
X0217537Y0035204D01*
X0217440Y0035371D01*
X0217347Y0035540D01*
X0217258Y0035712D01*
X0217173Y0035885D01*
X0217093Y0036061D01*
X0217016Y0036239D01*
X0216945Y0036418D01*
X0216877Y0036599D01*
X0216814Y0036782D01*
X0216756Y0036966D01*
X0216702Y0037152D01*
X0216653Y0037339D01*
X0216608Y0037527D01*
X0216568Y0037716D01*
X0216533Y0037906D01*
X0216502Y0038097D01*
X0216476Y0038288D01*
X0216455Y0038480D01*
X0216438Y0038673D01*
X0216426Y0038866D01*
X0216419Y0039059D01*
X0216417Y0039252D01*
X0216417Y0358149D02*
X0216419Y0358342D01*
X0216426Y0358535D01*
X0216438Y0358728D01*
X0216455Y0358921D01*
X0216476Y0359113D01*
X0216502Y0359304D01*
X0216533Y0359495D01*
X0216568Y0359685D01*
X0216608Y0359874D01*
X0216653Y0360062D01*
X0216702Y0360249D01*
X0216756Y0360435D01*
X0216814Y0360619D01*
X0216877Y0360802D01*
X0216945Y0360983D01*
X0217016Y0361162D01*
X0217093Y0361340D01*
X0217173Y0361516D01*
X0217258Y0361689D01*
X0217347Y0361861D01*
X0217440Y0362030D01*
X0217537Y0362197D01*
X0217639Y0362362D01*
X0217744Y0362524D01*
X0217853Y0362683D01*
X0217967Y0362840D01*
X0218084Y0362993D01*
X0218204Y0363144D01*
X0218329Y0363292D01*
X0218457Y0363437D01*
X0218588Y0363578D01*
X0218723Y0363717D01*
X0218862Y0363852D01*
X0219003Y0363983D01*
X0219148Y0364111D01*
X0219296Y0364236D01*
X0219447Y0364356D01*
X0219600Y0364473D01*
X0219757Y0364587D01*
X0219916Y0364696D01*
X0220078Y0364801D01*
X0220243Y0364903D01*
X0220410Y0365000D01*
X0220579Y0365093D01*
X0220751Y0365182D01*
X0220924Y0365267D01*
X0221100Y0365347D01*
X0221278Y0365424D01*
X0221457Y0365495D01*
X0221638Y0365563D01*
X0221821Y0365626D01*
X0222005Y0365684D01*
X0222191Y0365738D01*
X0222378Y0365787D01*
X0222566Y0365832D01*
X0222755Y0365872D01*
X0222945Y0365907D01*
X0223136Y0365938D01*
X0223327Y0365964D01*
X0223519Y0365985D01*
X0223712Y0366002D01*
X0223905Y0366014D01*
X0224098Y0366021D01*
X0224291Y0366023D01*
X0224484Y0366021D01*
X0224677Y0366014D01*
X0224870Y0366002D01*
X0225063Y0365985D01*
X0225255Y0365964D01*
X0225446Y0365938D01*
X0225637Y0365907D01*
X0225827Y0365872D01*
X0226016Y0365832D01*
X0226204Y0365787D01*
X0226391Y0365738D01*
X0226577Y0365684D01*
X0226761Y0365626D01*
X0226944Y0365563D01*
X0227125Y0365495D01*
X0227304Y0365424D01*
X0227482Y0365347D01*
X0227658Y0365267D01*
X0227831Y0365182D01*
X0228003Y0365093D01*
X0228172Y0365000D01*
X0228339Y0364903D01*
X0228504Y0364801D01*
X0228666Y0364696D01*
X0228825Y0364587D01*
X0228982Y0364473D01*
X0229135Y0364356D01*
X0229286Y0364236D01*
X0229434Y0364111D01*
X0229579Y0363983D01*
X0229720Y0363852D01*
X0229859Y0363717D01*
X0229994Y0363578D01*
X0230125Y0363437D01*
X0230253Y0363292D01*
X0230378Y0363144D01*
X0230498Y0362993D01*
X0230615Y0362840D01*
X0230729Y0362683D01*
X0230838Y0362524D01*
X0230943Y0362362D01*
X0231045Y0362197D01*
X0231142Y0362030D01*
X0231235Y0361861D01*
X0231324Y0361689D01*
X0231409Y0361516D01*
X0231489Y0361340D01*
X0231566Y0361162D01*
X0231637Y0360983D01*
X0231705Y0360802D01*
X0231768Y0360619D01*
X0231826Y0360435D01*
X0231880Y0360249D01*
X0231929Y0360062D01*
X0231974Y0359874D01*
X0232014Y0359685D01*
X0232049Y0359495D01*
X0232080Y0359304D01*
X0232106Y0359113D01*
X0232127Y0358921D01*
X0232144Y0358728D01*
X0232156Y0358535D01*
X0232163Y0358342D01*
X0232165Y0358149D01*
X0232163Y0357956D01*
X0232156Y0357763D01*
X0232144Y0357570D01*
X0232127Y0357377D01*
X0232106Y0357185D01*
X0232080Y0356994D01*
X0232049Y0356803D01*
X0232014Y0356613D01*
X0231974Y0356424D01*
X0231929Y0356236D01*
X0231880Y0356049D01*
X0231826Y0355863D01*
X0231768Y0355679D01*
X0231705Y0355496D01*
X0231637Y0355315D01*
X0231566Y0355136D01*
X0231489Y0354958D01*
X0231409Y0354782D01*
X0231324Y0354609D01*
X0231235Y0354437D01*
X0231142Y0354268D01*
X0231045Y0354101D01*
X0230943Y0353936D01*
X0230838Y0353774D01*
X0230729Y0353615D01*
X0230615Y0353458D01*
X0230498Y0353305D01*
X0230378Y0353154D01*
X0230253Y0353006D01*
X0230125Y0352861D01*
X0229994Y0352720D01*
X0229859Y0352581D01*
X0229720Y0352446D01*
X0229579Y0352315D01*
X0229434Y0352187D01*
X0229286Y0352062D01*
X0229135Y0351942D01*
X0228982Y0351825D01*
X0228825Y0351711D01*
X0228666Y0351602D01*
X0228504Y0351497D01*
X0228339Y0351395D01*
X0228172Y0351298D01*
X0228003Y0351205D01*
X0227831Y0351116D01*
X0227658Y0351031D01*
X0227482Y0350951D01*
X0227304Y0350874D01*
X0227125Y0350803D01*
X0226944Y0350735D01*
X0226761Y0350672D01*
X0226577Y0350614D01*
X0226391Y0350560D01*
X0226204Y0350511D01*
X0226016Y0350466D01*
X0225827Y0350426D01*
X0225637Y0350391D01*
X0225446Y0350360D01*
X0225255Y0350334D01*
X0225063Y0350313D01*
X0224870Y0350296D01*
X0224677Y0350284D01*
X0224484Y0350277D01*
X0224291Y0350275D01*
X0224098Y0350277D01*
X0223905Y0350284D01*
X0223712Y0350296D01*
X0223519Y0350313D01*
X0223327Y0350334D01*
X0223136Y0350360D01*
X0222945Y0350391D01*
X0222755Y0350426D01*
X0222566Y0350466D01*
X0222378Y0350511D01*
X0222191Y0350560D01*
X0222005Y0350614D01*
X0221821Y0350672D01*
X0221638Y0350735D01*
X0221457Y0350803D01*
X0221278Y0350874D01*
X0221100Y0350951D01*
X0220924Y0351031D01*
X0220751Y0351116D01*
X0220579Y0351205D01*
X0220410Y0351298D01*
X0220243Y0351395D01*
X0220078Y0351497D01*
X0219916Y0351602D01*
X0219757Y0351711D01*
X0219600Y0351825D01*
X0219447Y0351942D01*
X0219296Y0352062D01*
X0219148Y0352187D01*
X0219003Y0352315D01*
X0218862Y0352446D01*
X0218723Y0352581D01*
X0218588Y0352720D01*
X0218457Y0352861D01*
X0218329Y0353006D01*
X0218204Y0353154D01*
X0218084Y0353305D01*
X0217967Y0353458D01*
X0217853Y0353615D01*
X0217744Y0353774D01*
X0217639Y0353936D01*
X0217537Y0354101D01*
X0217440Y0354268D01*
X0217347Y0354437D01*
X0217258Y0354609D01*
X0217173Y0354782D01*
X0217093Y0354958D01*
X0217016Y0355136D01*
X0216945Y0355315D01*
X0216877Y0355496D01*
X0216814Y0355679D01*
X0216756Y0355863D01*
X0216702Y0356049D01*
X0216653Y0356236D01*
X0216608Y0356424D01*
X0216568Y0356613D01*
X0216533Y0356803D01*
X0216502Y0356994D01*
X0216476Y0357185D01*
X0216455Y0357377D01*
X0216438Y0357570D01*
X0216426Y0357763D01*
X0216419Y0357956D01*
X0216417Y0358149D01*
X0047126Y0358149D02*
X0047128Y0358342D01*
X0047135Y0358535D01*
X0047147Y0358728D01*
X0047164Y0358921D01*
X0047185Y0359113D01*
X0047211Y0359304D01*
X0047242Y0359495D01*
X0047277Y0359685D01*
X0047317Y0359874D01*
X0047362Y0360062D01*
X0047411Y0360249D01*
X0047465Y0360435D01*
X0047523Y0360619D01*
X0047586Y0360802D01*
X0047654Y0360983D01*
X0047725Y0361162D01*
X0047802Y0361340D01*
X0047882Y0361516D01*
X0047967Y0361689D01*
X0048056Y0361861D01*
X0048149Y0362030D01*
X0048246Y0362197D01*
X0048348Y0362362D01*
X0048453Y0362524D01*
X0048562Y0362683D01*
X0048676Y0362840D01*
X0048793Y0362993D01*
X0048913Y0363144D01*
X0049038Y0363292D01*
X0049166Y0363437D01*
X0049297Y0363578D01*
X0049432Y0363717D01*
X0049571Y0363852D01*
X0049712Y0363983D01*
X0049857Y0364111D01*
X0050005Y0364236D01*
X0050156Y0364356D01*
X0050309Y0364473D01*
X0050466Y0364587D01*
X0050625Y0364696D01*
X0050787Y0364801D01*
X0050952Y0364903D01*
X0051119Y0365000D01*
X0051288Y0365093D01*
X0051460Y0365182D01*
X0051633Y0365267D01*
X0051809Y0365347D01*
X0051987Y0365424D01*
X0052166Y0365495D01*
X0052347Y0365563D01*
X0052530Y0365626D01*
X0052714Y0365684D01*
X0052900Y0365738D01*
X0053087Y0365787D01*
X0053275Y0365832D01*
X0053464Y0365872D01*
X0053654Y0365907D01*
X0053845Y0365938D01*
X0054036Y0365964D01*
X0054228Y0365985D01*
X0054421Y0366002D01*
X0054614Y0366014D01*
X0054807Y0366021D01*
X0055000Y0366023D01*
X0055193Y0366021D01*
X0055386Y0366014D01*
X0055579Y0366002D01*
X0055772Y0365985D01*
X0055964Y0365964D01*
X0056155Y0365938D01*
X0056346Y0365907D01*
X0056536Y0365872D01*
X0056725Y0365832D01*
X0056913Y0365787D01*
X0057100Y0365738D01*
X0057286Y0365684D01*
X0057470Y0365626D01*
X0057653Y0365563D01*
X0057834Y0365495D01*
X0058013Y0365424D01*
X0058191Y0365347D01*
X0058367Y0365267D01*
X0058540Y0365182D01*
X0058712Y0365093D01*
X0058881Y0365000D01*
X0059048Y0364903D01*
X0059213Y0364801D01*
X0059375Y0364696D01*
X0059534Y0364587D01*
X0059691Y0364473D01*
X0059844Y0364356D01*
X0059995Y0364236D01*
X0060143Y0364111D01*
X0060288Y0363983D01*
X0060429Y0363852D01*
X0060568Y0363717D01*
X0060703Y0363578D01*
X0060834Y0363437D01*
X0060962Y0363292D01*
X0061087Y0363144D01*
X0061207Y0362993D01*
X0061324Y0362840D01*
X0061438Y0362683D01*
X0061547Y0362524D01*
X0061652Y0362362D01*
X0061754Y0362197D01*
X0061851Y0362030D01*
X0061944Y0361861D01*
X0062033Y0361689D01*
X0062118Y0361516D01*
X0062198Y0361340D01*
X0062275Y0361162D01*
X0062346Y0360983D01*
X0062414Y0360802D01*
X0062477Y0360619D01*
X0062535Y0360435D01*
X0062589Y0360249D01*
X0062638Y0360062D01*
X0062683Y0359874D01*
X0062723Y0359685D01*
X0062758Y0359495D01*
X0062789Y0359304D01*
X0062815Y0359113D01*
X0062836Y0358921D01*
X0062853Y0358728D01*
X0062865Y0358535D01*
X0062872Y0358342D01*
X0062874Y0358149D01*
X0062872Y0357956D01*
X0062865Y0357763D01*
X0062853Y0357570D01*
X0062836Y0357377D01*
X0062815Y0357185D01*
X0062789Y0356994D01*
X0062758Y0356803D01*
X0062723Y0356613D01*
X0062683Y0356424D01*
X0062638Y0356236D01*
X0062589Y0356049D01*
X0062535Y0355863D01*
X0062477Y0355679D01*
X0062414Y0355496D01*
X0062346Y0355315D01*
X0062275Y0355136D01*
X0062198Y0354958D01*
X0062118Y0354782D01*
X0062033Y0354609D01*
X0061944Y0354437D01*
X0061851Y0354268D01*
X0061754Y0354101D01*
X0061652Y0353936D01*
X0061547Y0353774D01*
X0061438Y0353615D01*
X0061324Y0353458D01*
X0061207Y0353305D01*
X0061087Y0353154D01*
X0060962Y0353006D01*
X0060834Y0352861D01*
X0060703Y0352720D01*
X0060568Y0352581D01*
X0060429Y0352446D01*
X0060288Y0352315D01*
X0060143Y0352187D01*
X0059995Y0352062D01*
X0059844Y0351942D01*
X0059691Y0351825D01*
X0059534Y0351711D01*
X0059375Y0351602D01*
X0059213Y0351497D01*
X0059048Y0351395D01*
X0058881Y0351298D01*
X0058712Y0351205D01*
X0058540Y0351116D01*
X0058367Y0351031D01*
X0058191Y0350951D01*
X0058013Y0350874D01*
X0057834Y0350803D01*
X0057653Y0350735D01*
X0057470Y0350672D01*
X0057286Y0350614D01*
X0057100Y0350560D01*
X0056913Y0350511D01*
X0056725Y0350466D01*
X0056536Y0350426D01*
X0056346Y0350391D01*
X0056155Y0350360D01*
X0055964Y0350334D01*
X0055772Y0350313D01*
X0055579Y0350296D01*
X0055386Y0350284D01*
X0055193Y0350277D01*
X0055000Y0350275D01*
X0054807Y0350277D01*
X0054614Y0350284D01*
X0054421Y0350296D01*
X0054228Y0350313D01*
X0054036Y0350334D01*
X0053845Y0350360D01*
X0053654Y0350391D01*
X0053464Y0350426D01*
X0053275Y0350466D01*
X0053087Y0350511D01*
X0052900Y0350560D01*
X0052714Y0350614D01*
X0052530Y0350672D01*
X0052347Y0350735D01*
X0052166Y0350803D01*
X0051987Y0350874D01*
X0051809Y0350951D01*
X0051633Y0351031D01*
X0051460Y0351116D01*
X0051288Y0351205D01*
X0051119Y0351298D01*
X0050952Y0351395D01*
X0050787Y0351497D01*
X0050625Y0351602D01*
X0050466Y0351711D01*
X0050309Y0351825D01*
X0050156Y0351942D01*
X0050005Y0352062D01*
X0049857Y0352187D01*
X0049712Y0352315D01*
X0049571Y0352446D01*
X0049432Y0352581D01*
X0049297Y0352720D01*
X0049166Y0352861D01*
X0049038Y0353006D01*
X0048913Y0353154D01*
X0048793Y0353305D01*
X0048676Y0353458D01*
X0048562Y0353615D01*
X0048453Y0353774D01*
X0048348Y0353936D01*
X0048246Y0354101D01*
X0048149Y0354268D01*
X0048056Y0354437D01*
X0047967Y0354609D01*
X0047882Y0354782D01*
X0047802Y0354958D01*
X0047725Y0355136D01*
X0047654Y0355315D01*
X0047586Y0355496D01*
X0047523Y0355679D01*
X0047465Y0355863D01*
X0047411Y0356049D01*
X0047362Y0356236D01*
X0047317Y0356424D01*
X0047277Y0356613D01*
X0047242Y0356803D01*
X0047211Y0356994D01*
X0047185Y0357185D01*
X0047164Y0357377D01*
X0047147Y0357570D01*
X0047135Y0357763D01*
X0047128Y0357956D01*
X0047126Y0358149D01*
M02*
