%
M48
M72
T01C0.01200
T02C0.15748
%
T01
X13850Y47450
X5050Y56250
X5050Y61050
X5050Y66650
X5050Y71450
X5050Y76250
X5050Y81050
X5050Y86650
X5050Y91450
X5050Y96250
X5050Y101050
X5050Y106650
X5050Y111450
X5050Y116250
X5050Y121050
X5050Y126650
X5050Y131450
X5050Y136250
X5050Y141050
X5050Y146650
X5050Y151450
X5050Y156250
X5050Y161050
X5050Y166650
X5050Y171450
X5050Y176250
X5050Y181050
X5050Y186650
X5050Y191450
X5050Y196250
X5050Y201050
X5050Y206650
X5050Y211450
X5050Y216250
X5050Y221050
X5050Y226650
X5050Y231450
X5050Y236250
X5050Y241050
X5050Y246650
X5050Y251450
X5050Y256250
X5050Y261050
X5050Y266650
X5050Y271450
X5050Y276250
X5050Y281050
X5050Y286650
X5050Y291450
X5050Y296250
X5050Y301050
X5050Y306650
X5050Y311450
X5050Y316250
X5050Y321050
X5050Y326650
X5050Y331450
X5050Y336250
X5050Y341050
X22650Y347450
X40250Y341050
X41850Y335450
X40250Y330650
X40250Y321050
X41850Y315450
X41850Y305850
X41050Y301050
X43450Y295450
X41050Y290650
X43450Y285850
X41050Y281050
X44250Y275450
X41850Y270650
X44250Y265850
X41850Y261050
X44250Y255450
X41850Y250650
X44250Y245850
X41850Y241050
X45050Y235450
X41850Y230650
X45050Y225850
X41850Y221050
X45050Y214650
X42650Y210650
X45050Y205850
X42650Y201050
X45850Y195450
X53050Y190650
X53050Y181050
X53050Y171450
X45850Y175450
X45050Y185850
X45850Y165850
X53050Y161850
X53050Y151450
X45850Y153850
X45850Y145850
X45850Y136250
X53050Y131450
X53050Y141850
X45850Y126650
X45850Y116250
X52250Y111450
X45850Y106650
X52250Y101850
X45850Y96250
X52250Y91450
X45850Y86650
X52250Y81850
X45050Y77850
X51450Y71450
X45050Y68250
X51450Y61850
X45050Y56250
X51450Y51450
X63450Y13850
X72250Y5050
X77850Y5050
X82650Y5050
X87450Y5050
X92250Y5050
X97850Y5050
X102650Y5050
X108250Y22650
X112250Y26650
X117850Y29850
X127450Y29850
X122650Y5050
X132250Y5050
X137850Y5050
X142650Y5050
X147450Y5050
X151450Y29850
X157050Y32250
X161850Y29850
X166650Y54650
X157050Y63450
X166650Y72250
X166650Y81850
X166650Y91450
X166650Y101050
X166650Y110650
X166650Y120250
X166650Y129850
X166650Y140250
X166650Y149850
X164250Y151450
X166650Y161050
X166650Y170650
X166650Y180250
X166650Y197850
X166650Y207450
X166650Y217050
X166650Y226650
X166650Y236250
X166650Y245850
X166650Y255450
X166650Y265050
X166650Y274650
X166650Y284250
X166650Y293850
X166650Y304250
X166650Y313850
X166650Y323450
X166650Y333050
X166650Y342650
X171450Y343450
X177850Y342650
X183450Y325050
X183450Y315450
X183450Y305850
X183450Y296250
X183450Y286650
X181850Y284250
X183450Y274650
X183450Y265050
X183450Y248250
X181050Y237850
X183450Y236250
X183450Y226650
X183450Y217050
X183450Y199450
X183450Y189850
X183450Y180250
X183450Y170650
X183450Y161050
X183450Y151450
X183450Y141850
X183450Y132250
X181850Y122650
X183450Y120250
X183450Y110650
X183450Y101050
X183450Y91450
X183450Y81850
X183450Y64250
X183450Y54650
X198650Y51450
X212250Y54650
X212250Y64250
X212250Y74650
X212250Y84250
X212250Y93850
X212250Y103450
X212250Y113050
X209850Y125050
X209850Y134650
X209850Y144250
X212250Y151450
X209850Y163450
X229850Y171450
X233050Y176250
X229850Y181050
X232250Y185850
X233050Y194650
X232250Y204250
X239450Y216250
X239450Y225850
X229050Y231450
X229050Y242650
X228250Y252250
X229050Y261850
X228250Y271450
X228250Y281050
X228250Y290650
X228250Y300250
X227450Y309850
X227450Y319450
X227450Y329050
X227450Y338650
X209850Y337050
X209850Y327450
X209850Y317850
X209850Y308250
X209850Y298650
X209850Y289050
X209850Y281050
X209850Y269850
X209850Y260250
X209850Y250650
X209850Y241050
X209850Y230650
X209850Y221050
X209850Y211450
X209850Y201850
X209850Y192250
X233050Y165050
X233050Y156250
X233050Y145850
X233050Y136250
X233050Y126650
X233050Y116250
X233050Y106650
X232250Y97050
X233050Y87450
X232250Y77850
X232250Y68250
X229850Y58650
X257050Y55450
X265850Y47450
X273850Y61050
X273850Y66650
X273850Y71450
X273850Y76250
X273850Y81050
X273850Y86650
X273850Y91450
X273850Y96250
X273850Y101050
X273850Y106650
X273850Y111450
X273850Y116250
X273850Y121050
X273850Y126650
X273850Y131450
X273850Y141050
X273850Y151450
X273850Y161050
X273850Y171450
X273850Y181050
X273850Y191450
X273850Y201050
X273850Y211450
X273850Y221050
X273850Y231450
X273850Y241050
X273850Y251450
X273850Y261050
X256250Y256250
X256250Y246650
X256250Y235450
X256250Y223450
X256250Y215450
X256250Y203450
X256250Y198650
X256250Y185850
X256250Y175450
X256250Y161850
X256250Y155450
X256250Y142650
X256250Y133050
X216250Y13850
X207450Y5050
X202650Y5050
X197850Y5050
X192250Y5050
X187450Y5050
X182650Y5050
X177850Y5050
X172250Y5050
X167450Y5050
X134650Y72250
X125050Y92250
X113850Y101050
X113850Y110650
X113850Y120250
X113850Y130650
X113850Y140250
X113850Y149850
X113850Y159450
X113850Y169050
X111450Y170650
X113850Y180250
X113850Y197850
X113850Y207450
X113850Y217050
X113850Y226650
X113850Y236250
X113850Y245850
X113850Y255450
X113850Y265050
X113850Y274650
X113850Y284250
X113850Y293850
X113850Y304250
X113850Y313850
X111450Y315450
X113850Y325050
X113050Y334650
X111450Y345050
X105850Y332250
X96250Y325050
X96250Y315450
X99450Y305850
X96250Y304250
X96250Y293850
X96250Y284250
X96250Y274650
X96250Y265050
X96250Y255450
X96250Y245850
X96250Y236250
X96250Y226650
X96250Y217050
X96250Y207450
X96250Y197850
X96250Y180250
X96250Y170650
X96250Y161050
X96250Y151450
X99450Y141850
X96250Y140250
X96250Y129850
X96250Y120250
X96250Y110650
X96250Y101050
X99450Y82650
X96250Y81850
X96250Y72250
X96250Y62650
X84250Y54650
X109050Y54650
X117050Y64250
X113850Y72250
X113850Y81850
X112250Y84250
X134650Y110650
X137050Y120250
X134650Y122650
X134650Y132250
X131450Y141850
X131450Y151450
X131450Y161050
X131450Y170650
X131450Y180250
X126650Y189850
X131450Y207450
X131450Y217050
X131450Y226650
X131450Y236250
X131450Y245850
X131450Y255450
X131450Y265050
X129050Y274650
X129050Y284250
X129050Y293850
X127450Y296250
X131450Y313850
X134650Y315450
X129050Y325050
X126650Y342650
X130650Y352250
X134650Y375450
X137850Y375450
X141850Y375450
X146650Y375450
X150650Y375450
X157050Y375450
X161850Y375450
X166650Y375450
X160250Y350650
X160250Y347450
X160250Y344250
X149050Y334650
X149050Y325050
X149050Y315450
X149050Y305850
X147450Y296250
X146650Y286650
X146650Y277050
X149050Y274650
X149050Y265050
X149050Y255450
X149050Y245850
X147450Y236250
X146650Y226650
X146650Y217050
X149050Y207450
X149050Y197850
X149050Y180250
X149050Y170650
X146650Y161050
X149050Y151450
X149050Y141850
X152250Y132250
X146650Y129850
X147450Y113050
X149050Y110650
X149050Y101050
X149050Y91450
X53050Y121850
X51450Y309050
X53050Y322650
X41850Y345850
X63450Y384250
X72250Y392250
X77850Y392250
X82650Y392250
X87450Y392250
X95450Y375450
X100250Y375450
X105050Y375450
X112250Y375450
X102650Y365050
X107450Y392250
X122650Y392250
X127450Y392250
X186650Y375450
X197050Y375450
X201850Y375450
X206650Y375450
X195450Y343450
X256250Y341050
X256250Y334650
X256250Y331450
X256250Y325050
X256250Y321850
X256250Y315450
X256250Y312250
X256250Y304250
X256250Y301050
X256250Y296250
X256250Y293050
X256250Y281850
X256250Y278650
X256250Y275450
X256250Y270650
X256250Y267450
T02
X224291Y358149
X55000Y358149
X55000Y39252
X224291Y39252
M30
