G75*
%MOIN*%
%OFA0B0*%
%FSLAX25Y25*%
%IPPOS*%
%LPD*%
%AMOC8*
5,1,8,0,0,1.08239X$1,22.5*
%
%ADD10C,0.00000*%
%ADD11C,0.08200*%
%ADD12C,0.04737*%
D10*
X0001000Y0002650D02*
X0001000Y0396351D01*
X0250921Y0396351D01*
X0250921Y0002650D01*
X0001000Y0002650D01*
D11*
X0066000Y0047650D03*
X0066000Y0057650D03*
X0066000Y0067650D03*
X0066000Y0077650D03*
X0066000Y0087650D03*
X0066000Y0097650D03*
X0066000Y0107650D03*
X0066000Y0117650D03*
X0066000Y0127650D03*
X0066000Y0137650D03*
X0066000Y0147650D03*
X0066000Y0157650D03*
X0066000Y0167650D03*
X0066000Y0177650D03*
X0066000Y0187650D03*
X0076000Y0187650D03*
X0076000Y0177650D03*
X0076000Y0167650D03*
X0076000Y0157650D03*
X0076000Y0147650D03*
X0076000Y0137650D03*
X0076000Y0127650D03*
X0076000Y0117650D03*
X0076000Y0107650D03*
X0076000Y0097650D03*
X0076000Y0087650D03*
X0076000Y0077650D03*
X0076000Y0067650D03*
X0076000Y0057650D03*
X0076000Y0047650D03*
X0086000Y0047650D03*
X0086000Y0057650D03*
X0086000Y0067650D03*
X0086000Y0077650D03*
X0086000Y0087650D03*
X0086000Y0097650D03*
X0086000Y0107650D03*
X0086000Y0117650D03*
X0086000Y0127650D03*
X0086000Y0137650D03*
X0086000Y0147650D03*
X0086000Y0157650D03*
X0086000Y0167650D03*
X0086000Y0177650D03*
X0086000Y0187650D03*
X0096000Y0187650D03*
X0096000Y0177650D03*
X0096000Y0167650D03*
X0096000Y0157650D03*
X0096000Y0147650D03*
X0096000Y0137650D03*
X0096000Y0127650D03*
X0096000Y0117650D03*
X0096000Y0107650D03*
X0096000Y0097650D03*
X0096000Y0087650D03*
X0096000Y0077650D03*
X0096000Y0067650D03*
X0096000Y0057650D03*
X0096000Y0047650D03*
X0106000Y0047650D03*
X0106000Y0057650D03*
X0106000Y0067650D03*
X0106000Y0077650D03*
X0106000Y0087650D03*
X0106000Y0097650D03*
X0106000Y0107650D03*
X0106000Y0117650D03*
X0106000Y0127650D03*
X0106000Y0137650D03*
X0106000Y0147650D03*
X0106000Y0157650D03*
X0106000Y0167650D03*
X0106000Y0177650D03*
X0106000Y0187650D03*
X0106000Y0207650D03*
X0106000Y0217650D03*
X0106000Y0227650D03*
X0106000Y0237650D03*
X0106000Y0247650D03*
X0106000Y0257650D03*
X0106000Y0267650D03*
X0106000Y0277650D03*
X0106000Y0287650D03*
X0106000Y0297650D03*
X0106000Y0307650D03*
X0106000Y0317650D03*
X0106000Y0327650D03*
X0106000Y0337650D03*
X0106000Y0347650D03*
X0096000Y0347650D03*
X0096000Y0337650D03*
X0096000Y0327650D03*
X0096000Y0317650D03*
X0096000Y0307650D03*
X0096000Y0297650D03*
X0096000Y0287650D03*
X0096000Y0277650D03*
X0096000Y0267650D03*
X0096000Y0257650D03*
X0096000Y0247650D03*
X0096000Y0237650D03*
X0096000Y0227650D03*
X0096000Y0217650D03*
X0096000Y0207650D03*
X0086000Y0207650D03*
X0086000Y0217650D03*
X0086000Y0227650D03*
X0086000Y0237650D03*
X0086000Y0247650D03*
X0086000Y0257650D03*
X0086000Y0267650D03*
X0086000Y0277650D03*
X0086000Y0287650D03*
X0086000Y0297650D03*
X0086000Y0307650D03*
X0086000Y0317650D03*
X0086000Y0327650D03*
X0086000Y0337650D03*
X0086000Y0347650D03*
X0076000Y0347650D03*
X0076000Y0337650D03*
X0076000Y0327650D03*
X0076000Y0317650D03*
X0076000Y0307650D03*
X0076000Y0297650D03*
X0076000Y0287650D03*
X0076000Y0277650D03*
X0076000Y0267650D03*
X0076000Y0257650D03*
X0076000Y0247650D03*
X0076000Y0237650D03*
X0076000Y0227650D03*
X0076000Y0217650D03*
X0076000Y0207650D03*
X0066000Y0207650D03*
X0066000Y0217650D03*
X0066000Y0227650D03*
X0066000Y0237650D03*
X0066000Y0247650D03*
X0066000Y0257650D03*
X0066000Y0267650D03*
X0066000Y0277650D03*
X0066000Y0287650D03*
X0066000Y0297650D03*
X0066000Y0307650D03*
X0066000Y0317650D03*
X0066000Y0327650D03*
X0066000Y0337650D03*
X0066000Y0347650D03*
X0146000Y0347650D03*
X0146000Y0337650D03*
X0146000Y0327650D03*
X0146000Y0317650D03*
X0146000Y0307650D03*
X0146000Y0297650D03*
X0146000Y0287650D03*
X0146000Y0277650D03*
X0146000Y0267650D03*
X0146000Y0257650D03*
X0146000Y0247650D03*
X0146000Y0237650D03*
X0146000Y0227650D03*
X0146000Y0217650D03*
X0146000Y0207650D03*
X0156000Y0207650D03*
X0156000Y0217650D03*
X0156000Y0227650D03*
X0156000Y0237650D03*
X0156000Y0247650D03*
X0156000Y0257650D03*
X0156000Y0267650D03*
X0156000Y0277650D03*
X0156000Y0287650D03*
X0156000Y0297650D03*
X0156000Y0307650D03*
X0156000Y0317650D03*
X0156000Y0327650D03*
X0156000Y0337650D03*
X0156000Y0347650D03*
X0166000Y0347650D03*
X0166000Y0337650D03*
X0166000Y0327650D03*
X0166000Y0317650D03*
X0166000Y0307650D03*
X0166000Y0297650D03*
X0166000Y0287650D03*
X0166000Y0277650D03*
X0166000Y0267650D03*
X0166000Y0257650D03*
X0166000Y0247650D03*
X0166000Y0237650D03*
X0166000Y0227650D03*
X0166000Y0217650D03*
X0166000Y0207650D03*
X0176000Y0207650D03*
X0176000Y0217650D03*
X0176000Y0227650D03*
X0176000Y0237650D03*
X0176000Y0247650D03*
X0176000Y0257650D03*
X0176000Y0267650D03*
X0176000Y0277650D03*
X0176000Y0287650D03*
X0176000Y0297650D03*
X0176000Y0307650D03*
X0176000Y0317650D03*
X0176000Y0327650D03*
X0176000Y0337650D03*
X0176000Y0347650D03*
X0186000Y0347650D03*
X0186000Y0337650D03*
X0186000Y0327650D03*
X0186000Y0317650D03*
X0186000Y0307650D03*
X0186000Y0297650D03*
X0186000Y0287650D03*
X0186000Y0277650D03*
X0186000Y0267650D03*
X0186000Y0257650D03*
X0186000Y0247650D03*
X0186000Y0237650D03*
X0186000Y0227650D03*
X0186000Y0217650D03*
X0186000Y0207650D03*
X0186000Y0187650D03*
X0186000Y0177650D03*
X0186000Y0167650D03*
X0186000Y0157650D03*
X0186000Y0147650D03*
X0186000Y0137650D03*
X0186000Y0127650D03*
X0186000Y0117650D03*
X0186000Y0107650D03*
X0186000Y0097650D03*
X0186000Y0087650D03*
X0186000Y0077650D03*
X0186000Y0067650D03*
X0186000Y0057650D03*
X0186000Y0047650D03*
X0176000Y0047650D03*
X0176000Y0057650D03*
X0176000Y0067650D03*
X0176000Y0077650D03*
X0176000Y0087650D03*
X0176000Y0097650D03*
X0176000Y0107650D03*
X0176000Y0117650D03*
X0176000Y0127650D03*
X0176000Y0137650D03*
X0176000Y0147650D03*
X0176000Y0157650D03*
X0176000Y0167650D03*
X0176000Y0177650D03*
X0176000Y0187650D03*
X0166000Y0187650D03*
X0166000Y0177650D03*
X0166000Y0167650D03*
X0166000Y0157650D03*
X0166000Y0147650D03*
X0166000Y0137650D03*
X0166000Y0127650D03*
X0166000Y0117650D03*
X0166000Y0107650D03*
X0166000Y0097650D03*
X0166000Y0087650D03*
X0166000Y0077650D03*
X0166000Y0067650D03*
X0166000Y0057650D03*
X0166000Y0047650D03*
X0156000Y0047650D03*
X0156000Y0057650D03*
X0156000Y0067650D03*
X0156000Y0077650D03*
X0156000Y0087650D03*
X0156000Y0097650D03*
X0156000Y0107650D03*
X0156000Y0117650D03*
X0156000Y0127650D03*
X0156000Y0137650D03*
X0156000Y0147650D03*
X0156000Y0157650D03*
X0156000Y0167650D03*
X0156000Y0177650D03*
X0156000Y0187650D03*
X0146000Y0187650D03*
X0146000Y0177650D03*
X0146000Y0167650D03*
X0146000Y0157650D03*
X0146000Y0147650D03*
X0146000Y0137650D03*
X0146000Y0127650D03*
X0146000Y0117650D03*
X0146000Y0107650D03*
X0146000Y0097650D03*
X0146000Y0087650D03*
X0146000Y0077650D03*
X0146000Y0067650D03*
X0146000Y0057650D03*
X0146000Y0047650D03*
D12*
X0143500Y0027650D03*
X0148500Y0027650D03*
X0153500Y0027650D03*
X0158500Y0027650D03*
X0163500Y0027650D03*
X0168500Y0027650D03*
X0173500Y0027650D03*
X0178500Y0027650D03*
X0183500Y0027650D03*
X0188500Y0027650D03*
X0206000Y0045150D03*
X0206000Y0050150D03*
X0206000Y0055150D03*
X0206000Y0060150D03*
X0206000Y0065150D03*
X0206000Y0070150D03*
X0206000Y0075150D03*
X0206000Y0080150D03*
X0206000Y0085150D03*
X0206000Y0090150D03*
X0206000Y0095150D03*
X0206000Y0100150D03*
X0206000Y0105150D03*
X0206000Y0110150D03*
X0206000Y0115150D03*
X0206000Y0120150D03*
X0206000Y0125150D03*
X0206000Y0130150D03*
X0206000Y0135150D03*
X0206000Y0140150D03*
X0206000Y0145150D03*
X0206000Y0150150D03*
X0206000Y0155150D03*
X0206000Y0160150D03*
X0206000Y0165150D03*
X0206000Y0170150D03*
X0206000Y0175150D03*
X0206000Y0180150D03*
X0206000Y0185150D03*
X0206000Y0190150D03*
X0213500Y0190150D03*
X0213500Y0185150D03*
X0213500Y0180150D03*
X0213500Y0175150D03*
X0213500Y0170150D03*
X0213500Y0165150D03*
X0213500Y0160150D03*
X0213500Y0155150D03*
X0213500Y0150150D03*
X0213500Y0145150D03*
X0213500Y0140150D03*
X0213500Y0135150D03*
X0213500Y0130150D03*
X0213500Y0125150D03*
X0213500Y0120150D03*
X0213500Y0115150D03*
X0213500Y0110150D03*
X0213500Y0105150D03*
X0213500Y0100150D03*
X0213500Y0095150D03*
X0213500Y0090150D03*
X0213500Y0085150D03*
X0213500Y0080150D03*
X0213500Y0075150D03*
X0213500Y0070150D03*
X0213500Y0065150D03*
X0213500Y0060150D03*
X0213500Y0055150D03*
X0213500Y0050150D03*
X0213500Y0045150D03*
X0213500Y0205150D03*
X0213500Y0210150D03*
X0213500Y0215150D03*
X0213500Y0220150D03*
X0213500Y0225150D03*
X0213500Y0230150D03*
X0213500Y0235150D03*
X0213500Y0240150D03*
X0213500Y0245150D03*
X0213500Y0250150D03*
X0213500Y0255150D03*
X0213500Y0260150D03*
X0213500Y0265150D03*
X0213500Y0270150D03*
X0213500Y0275150D03*
X0213500Y0280150D03*
X0213500Y0285150D03*
X0213500Y0290150D03*
X0213500Y0295150D03*
X0213500Y0300150D03*
X0213500Y0305150D03*
X0213500Y0310150D03*
X0213500Y0315150D03*
X0213500Y0320150D03*
X0213500Y0325150D03*
X0213500Y0330150D03*
X0213500Y0335150D03*
X0213500Y0340150D03*
X0213500Y0345150D03*
X0213500Y0350150D03*
X0206000Y0350150D03*
X0206000Y0345150D03*
X0206000Y0340150D03*
X0206000Y0335150D03*
X0206000Y0330150D03*
X0206000Y0325150D03*
X0206000Y0320150D03*
X0206000Y0315150D03*
X0206000Y0310150D03*
X0206000Y0305150D03*
X0206000Y0300150D03*
X0206000Y0295150D03*
X0206000Y0290150D03*
X0206000Y0285150D03*
X0206000Y0280150D03*
X0206000Y0275150D03*
X0206000Y0270150D03*
X0206000Y0265150D03*
X0206000Y0260150D03*
X0206000Y0255150D03*
X0206000Y0250150D03*
X0206000Y0245150D03*
X0206000Y0240150D03*
X0206000Y0235150D03*
X0206000Y0230150D03*
X0206000Y0225150D03*
X0206000Y0220150D03*
X0206000Y0215150D03*
X0206000Y0210150D03*
X0206000Y0205150D03*
X0188500Y0367650D03*
X0183500Y0367650D03*
X0178500Y0367650D03*
X0173500Y0367650D03*
X0168500Y0367650D03*
X0163500Y0367650D03*
X0158500Y0367650D03*
X0153500Y0367650D03*
X0148500Y0367650D03*
X0143500Y0367650D03*
X0143500Y0375150D03*
X0148500Y0375150D03*
X0153500Y0375150D03*
X0158500Y0375150D03*
X0163500Y0375150D03*
X0168500Y0375150D03*
X0173500Y0375150D03*
X0178500Y0375150D03*
X0183500Y0375150D03*
X0188500Y0375150D03*
X0108500Y0375150D03*
X0103500Y0375150D03*
X0098500Y0375150D03*
X0093500Y0375150D03*
X0088500Y0375150D03*
X0083500Y0375150D03*
X0078500Y0375150D03*
X0073500Y0375150D03*
X0068500Y0375150D03*
X0063500Y0375150D03*
X0063500Y0367650D03*
X0068500Y0367650D03*
X0073500Y0367650D03*
X0078500Y0367650D03*
X0083500Y0367650D03*
X0088500Y0367650D03*
X0093500Y0367650D03*
X0098500Y0367650D03*
X0103500Y0367650D03*
X0108500Y0367650D03*
X0046000Y0350150D03*
X0046000Y0345150D03*
X0046000Y0340150D03*
X0046000Y0335150D03*
X0046000Y0330150D03*
X0046000Y0325150D03*
X0046000Y0320150D03*
X0046000Y0315150D03*
X0046000Y0310150D03*
X0046000Y0305150D03*
X0046000Y0300150D03*
X0046000Y0295150D03*
X0046000Y0290150D03*
X0046000Y0285150D03*
X0046000Y0280150D03*
X0046000Y0275150D03*
X0046000Y0270150D03*
X0046000Y0265150D03*
X0046000Y0260150D03*
X0046000Y0255150D03*
X0046000Y0250150D03*
X0046000Y0245150D03*
X0046000Y0240150D03*
X0046000Y0235150D03*
X0046000Y0230150D03*
X0046000Y0225150D03*
X0046000Y0220150D03*
X0046000Y0215150D03*
X0046000Y0210150D03*
X0046000Y0205150D03*
X0038500Y0205150D03*
X0038500Y0210150D03*
X0038500Y0215150D03*
X0038500Y0220150D03*
X0038500Y0225150D03*
X0038500Y0230150D03*
X0038500Y0235150D03*
X0038500Y0240150D03*
X0038500Y0245150D03*
X0038500Y0250150D03*
X0038500Y0255150D03*
X0038500Y0260150D03*
X0038500Y0265150D03*
X0038500Y0270150D03*
X0038500Y0275150D03*
X0038500Y0280150D03*
X0038500Y0285150D03*
X0038500Y0290150D03*
X0038500Y0295150D03*
X0038500Y0300150D03*
X0038500Y0305150D03*
X0038500Y0310150D03*
X0038500Y0315150D03*
X0038500Y0320150D03*
X0038500Y0325150D03*
X0038500Y0330150D03*
X0038500Y0335150D03*
X0038500Y0340150D03*
X0038500Y0345150D03*
X0038500Y0350150D03*
X0038500Y0190150D03*
X0038500Y0185150D03*
X0038500Y0180150D03*
X0038500Y0175150D03*
X0038500Y0170150D03*
X0038500Y0165150D03*
X0038500Y0160150D03*
X0038500Y0155150D03*
X0038500Y0150150D03*
X0038500Y0145150D03*
X0038500Y0140150D03*
X0038500Y0135150D03*
X0038500Y0130150D03*
X0038500Y0125150D03*
X0038500Y0120150D03*
X0038500Y0115150D03*
X0038500Y0110150D03*
X0038500Y0105150D03*
X0038500Y0100150D03*
X0038500Y0095150D03*
X0038500Y0090150D03*
X0038500Y0085150D03*
X0038500Y0080150D03*
X0038500Y0075150D03*
X0038500Y0070150D03*
X0038500Y0065150D03*
X0038500Y0060150D03*
X0038500Y0055150D03*
X0038500Y0050150D03*
X0038500Y0045150D03*
X0046000Y0045150D03*
X0046000Y0050150D03*
X0046000Y0055150D03*
X0046000Y0060150D03*
X0046000Y0065150D03*
X0046000Y0070150D03*
X0046000Y0075150D03*
X0046000Y0080150D03*
X0046000Y0085150D03*
X0046000Y0090150D03*
X0046000Y0095150D03*
X0046000Y0100150D03*
X0046000Y0105150D03*
X0046000Y0110150D03*
X0046000Y0115150D03*
X0046000Y0120150D03*
X0046000Y0125150D03*
X0046000Y0130150D03*
X0046000Y0135150D03*
X0046000Y0140150D03*
X0046000Y0145150D03*
X0046000Y0150150D03*
X0046000Y0155150D03*
X0046000Y0160150D03*
X0046000Y0165150D03*
X0046000Y0170150D03*
X0046000Y0175150D03*
X0046000Y0180150D03*
X0046000Y0185150D03*
X0046000Y0190150D03*
X0063500Y0027650D03*
X0068500Y0027650D03*
X0073500Y0027650D03*
X0078500Y0027650D03*
X0083500Y0027650D03*
X0088500Y0027650D03*
X0093500Y0027650D03*
X0098500Y0027650D03*
X0103500Y0027650D03*
X0108500Y0027650D03*
M02*
