%
M48
M72
T01C0.01200
T02C0.11811
%
T01
X33000Y40200
X41000Y49000
X41000Y54600
X41000Y59400
X41000Y64200
X41000Y69000
X41000Y74600
X41000Y79400
X41000Y84200
X41000Y89000
X41000Y94600
X41000Y99400
X41000Y104200
X41000Y109000
X41000Y114600
X41000Y119400
X41000Y124200
X41000Y129000
X41000Y134600
X41000Y139400
X41000Y144200
X41000Y149000
X41000Y154600
X41000Y159400
X41000Y164200
X41000Y169000
X41000Y174600
X41000Y179400
X41000Y184200
X41000Y189000
X41000Y194600
X41000Y199400
X41000Y204200
X41000Y209000
X41000Y214600
X41000Y219400
X41000Y224200
X41000Y229000
X41000Y234600
X41000Y239400
X41000Y244200
X41000Y249000
X41000Y254600
X41000Y259400
X41000Y264200
X41000Y269000
X41000Y274600
X41000Y279400
X41000Y284200
X41000Y289000
X41000Y294600
X41000Y299400
X41000Y304200
X41000Y309000
X41000Y314600
X41000Y319400
X41000Y324200
X41000Y329000
X41000Y334600
X41000Y339400
X61800Y338600
X61800Y333800
X61800Y329000
X61800Y324200
X61800Y319400
X61800Y314600
X61800Y309000
X61800Y304200
X61800Y299400
X61800Y294600
X61800Y289000
X61800Y284200
X61800Y278600
X61800Y273800
X61800Y269000
X61800Y264200
X61800Y259400
X61800Y254600
X61800Y249000
X61800Y244200
X63400Y241800
X61800Y239400
X61800Y234600
X61800Y229000
X65800Y228200
X61800Y224200
X63400Y221800
X61800Y219400
X61800Y213800
X63400Y211400
X61800Y209000
X61800Y204200
X64200Y200200
X61800Y198600
X61800Y193800
X63400Y191400
X61800Y189000
X61800Y184200
X63400Y181800
X61800Y179400
X61800Y174600
X63400Y172200
X61800Y169000
X61800Y164200
X63400Y161800
X61800Y159400
X61800Y154600
X61800Y149000
X61800Y144200
X61800Y139400
X61800Y134600
X61800Y129000
X61800Y124200
X63400Y121800
X61800Y119400
X61800Y114600
X61800Y109000
X61800Y105000
X63400Y102600
X61800Y99400
X61800Y94600
X61800Y89800
X61800Y84200
X61800Y79400
X61800Y74600
X61800Y69000
X61800Y64200
X61800Y59400
X61800Y54600
X61800Y49800
X61800Y45000
X77000Y69800
X77000Y79400
X87400Y88200
X77000Y97800
X87400Y116200
X89800Y118600
X89800Y128200
X89000Y136200
X87400Y144200
X89800Y146600
X87400Y153800
X89800Y156200
X89800Y165000
X89800Y174600
X89800Y184200
X105800Y187400
X89800Y202600
X107400Y218600
X105800Y225000
X105800Y234600
X89800Y230600
X89800Y249000
X89800Y258600
X105800Y273800
X114600Y285000
X108200Y293800
X105800Y309000
X124200Y331400
X121800Y333800
X129000Y321800
X132200Y314600
X134600Y313000
X140200Y302600
X145000Y313000
X149000Y321800
X150600Y331400
X150600Y336200
X153800Y336200
X151400Y347400
X142600Y338600
X138600Y350600
X135400Y350600
X132200Y350600
X127400Y350600
X121800Y350600
X117800Y350600
X114600Y350600
X110600Y350600
X107400Y350600
X97000Y350600
X88200Y352200
X90600Y371400
X93000Y376200
X104200Y384200
X107400Y384200
X112200Y384200
X117000Y384200
X124200Y384200
X127400Y384200
X132200Y384200
X137000Y384200
X137000Y389000
X145800Y389000
X148200Y386600
X159400Y377000
X169800Y365000
X165800Y357800
X168200Y353000
X165000Y347400
X167400Y342600
X168200Y337800
X166600Y331400
X167400Y321800
X179400Y314600
X181800Y321800
X192200Y324200
X203400Y342600
X210600Y345800
X212200Y350600
X207400Y349800
X201800Y350600
X194600Y350600
X191400Y350600
X181000Y347400
X181800Y343400
X177800Y350600
X150600Y362600
X177800Y384200
X182600Y384200
X186600Y384200
X189800Y384200
X189800Y391400
X197000Y384200
X201800Y384200
X206600Y384200
X212200Y384200
X217800Y384200
X225800Y371400
X221000Y350600
X255400Y337000
X255400Y333800
X255400Y327400
X255400Y324200
X255400Y316200
X255400Y312200
X255400Y309000
X255400Y301800
X255400Y298600
X255400Y293800
X255400Y289000
X255400Y281800
X255400Y278600
X255400Y273800
X255400Y269000
X252200Y265800
X255400Y262600
X255400Y259400
X253000Y257000
X255400Y249000
X253000Y246600
X255400Y242600
X253800Y238600
X255400Y236200
X255400Y233000
X251400Y228200
X253000Y225800
X255400Y224200
X255400Y220200
X253800Y217800
X255400Y209800
X253800Y204200
X255400Y201800
X255400Y198600
X255400Y193800
X255400Y190600
X255400Y184200
X253800Y181800
X255400Y178600
X255400Y172200
X255400Y169000
X255400Y165000
X253800Y162600
X253800Y159400
X255400Y157000
X255400Y153800
X255400Y149800
X255400Y146600
X255400Y139400
X255400Y133800
X255400Y129000
X255400Y125000
X255400Y119400
X255400Y112200
X253800Y105800
X255400Y101000
X255400Y97800
X253800Y93000
X253000Y86600
X255400Y82600
X255400Y74600
X255400Y69800
X255400Y65000
X253000Y63400
X255400Y57800
X272200Y49000
X272200Y44200
X280200Y40200
X293000Y49000
X293000Y54600
X293000Y59400
X293000Y64200
X293000Y69000
X293000Y76200
X293000Y79400
X293000Y85800
X293000Y89000
X293000Y96200
X293000Y99400
X293000Y105800
X293000Y109000
X293000Y116200
X293000Y119400
X293000Y124200
X293000Y131400
X293000Y135400
X293000Y138600
X293000Y144200
X293000Y149000
X276200Y153800
X272200Y153800
X272200Y162600
X273800Y172200
X272200Y174600
X272200Y179400
X272200Y182600
X272200Y185800
X272200Y189000
X273800Y192200
X276200Y190600
X272200Y201800
X273800Y204200
X275400Y206600
X272200Y209000
X273800Y212200
X272200Y214600
X272200Y217800
X272200Y224200
X272200Y227400
X272200Y234600
X272200Y237800
X272200Y246600
X272200Y249800
X272200Y254600
X273800Y257000
X272200Y259400
X272200Y265800
X293000Y269800
X293000Y274600
X293000Y281800
X293000Y285000
X293000Y289800
X293000Y294600
X293000Y301800
X293000Y305000
X293000Y309800
X293000Y319400
X293000Y325000
X293000Y329800
X293000Y334600
X280200Y343400
X276200Y314600
X226600Y312200
X209800Y309000
X201800Y293800
X201000Y285000
X197800Y275400
X190600Y277000
X190600Y286600
X193000Y297800
X169000Y276200
X170600Y265800
X173000Y258600
X175400Y250600
X175400Y246600
X176200Y239400
X176200Y230600
X177000Y221000
X170600Y221000
X170600Y209800
X169000Y191400
X158600Y193000
X145000Y201000
X140200Y211400
X140200Y221000
X153000Y237800
X153000Y247400
X137800Y258600
X140200Y265800
X144200Y277000
X149800Y285000
X149000Y295400
X161800Y293800
X164200Y295400
X162600Y285000
X158600Y267400
X136200Y249000
X193000Y261800
X209800Y244200
X226600Y249000
X226600Y230600
X209800Y215400
X211400Y212200
X209800Y206600
X209800Y187400
X226600Y174600
X227400Y189800
X228200Y144200
X226600Y137000
X228200Y125800
X226600Y118600
X228200Y116200
X226600Y109000
X228200Y97800
X226600Y90600
X228200Y79400
X228200Y69800
X228200Y61000
X233800Y49800
X225800Y24200
X217000Y15400
X212200Y15400
X206600Y33000
X201800Y33000
X197000Y33000
X192200Y33000
X187400Y33000
X181800Y33000
X173000Y24200
X145800Y24200
X137000Y33000
X132200Y33000
X127400Y33000
X121800Y33000
X117000Y33000
X112200Y33000
X107400Y33000
X104200Y33000
X97000Y33000
X89000Y61800
X89800Y72200
X105800Y75400
X111400Y90600
X107400Y100200
X131400Y99400
X146600Y99400
X149000Y109000
X153000Y118600
X149800Y127400
X166600Y127400
X166600Y137000
X166600Y153800
X184200Y155400
X189800Y145000
X209800Y131400
X209800Y103400
X191400Y60200
X187400Y61000
X172200Y62600
X171400Y71400
X169000Y90600
X166600Y99400
X166600Y109000
X166600Y118600
X153800Y97800
X144200Y89000
X141000Y77000
X124200Y53000
X105800Y131400
X146600Y165000
X153800Y173000
X167400Y174600
X149000Y153800
X67400Y246600
X67400Y257000
X67400Y266600
X68200Y276200
X67400Y286600
X67400Y297000
X67400Y306600
X72200Y312200
X67400Y326600
X198600Y389000
X272200Y134600
X272200Y114600
X272200Y104200
X272200Y84200
T02
X239220Y43402
X77803Y43402
X77803Y340646
X239220Y340646
M30
