%
M48
M72
T01C0.01200
T02C0.04000
T03C0.11811
%
T01
X41354Y43815
X44799Y54150
X40862Y59071
X44799Y63992
X44799Y69406
X40862Y71866
X40862Y79248
X44799Y84169
X44799Y94012
X44799Y96965
X42339Y99425
X40862Y104346
X40862Y109268
X40862Y114189
X42339Y119602
X41846Y128953
X40862Y138795
X44799Y149622
X42339Y159465
X42339Y168323
X43323Y176689
X44799Y179642
X44799Y189976
X44799Y195390
X44799Y209169
X44799Y217043
X42339Y219504
X40862Y223933
X42339Y228362
X44799Y239681
X44799Y246571
X41846Y249031
X44799Y258874
X40862Y263795
X44799Y269701
X44799Y273638
X44799Y276591
X41846Y279051
X44799Y288894
X44799Y293815
X44799Y299720
X44799Y304150
X44799Y309563
X40862Y319406
X42831Y324327
X44799Y321866
X44799Y329740
X40862Y334661
X61531Y334169
X61531Y304642
X61531Y274622
X61531Y244110
X61531Y214583
X61531Y184563
X61531Y154543
X88598Y187024
X95488Y173736
X114681Y184563
X135843Y203264
X134366Y210646
X150606Y193421
X163894Y209661
X166354Y187516
X174228Y169799
X194406Y163402
X176197Y142240
X204740Y124524
X223441Y143224
X231315Y156512
X244602Y166354
X255429Y154051
X272161Y147161
X274622Y149622
X276098Y154543
X274622Y159465
X274622Y164386
X274622Y168815
X274622Y179642
X274622Y189484
X274622Y198343
X272161Y209661
X272161Y219504
X274622Y221965
X272161Y228854
X272161Y239681
X274622Y250016
X274622Y258874
X274622Y269209
X272161Y271669
X272161Y275114
X275114Y275606
X274622Y279543
X276098Y283972
X276098Y288894
X276098Y299720
X272161Y304642
X272161Y309563
X272161Y314484
X276098Y319406
X272161Y323835
X272161Y331217
X255429Y334169
X245094Y345980
X225902Y375508
X217043Y384366
X212122Y384366
X207201Y384366
X201787Y384366
X196866Y384366
X191945Y384366
X187024Y384366
X182102Y384366
X179642Y367634
X169799Y358776
X163894Y353854
X166354Y349425
X156512Y348441
X150606Y354346
X145685Y359268
X139287Y367634
X134366Y367634
X126984Y384366
X122063Y384366
X117142Y384366
X112220Y384366
X106807Y384366
X101886Y384366
X93028Y375508
X93028Y359760
X93028Y354839
X109268Y367634
X120094Y343028
X128953Y347949
X130429Y343028
X124524Y314484
X114681Y314484
X95980Y293323
X95980Y263303
X88106Y246571
X95980Y233283
X92535Y206709
X142732Y172260
X134858Y140764
X123539Y111728
X114681Y94504
X94012Y96472
X90075Y106315
X61531Y114681
X61531Y84661
X61531Y54642
X80724Y33480
X128953Y15272
X131906Y15764
X136827Y15764
X166354Y34957
X186531Y15764
X189484Y15272
X236236Y33480
X255429Y54642
X272161Y54150
X276098Y59071
X272161Y63992
X272161Y69406
X272161Y74327
X276098Y79248
X276098Y84169
X275606Y90075
X272161Y90075
X272161Y99425
X272161Y104346
X276098Y109268
X272161Y114189
X272161Y119110
X276098Y121571
X272161Y129937
X272161Y134366
X276098Y138795
X292831Y147161
X292831Y174720
X295291Y184563
X255429Y184563
X255429Y214091
X231315Y216551
X228362Y226394
X223441Y233283
X231315Y246571
X223441Y263303
X215075Y274130
X225409Y286925
X223441Y293323
X223441Y301689
X204740Y314484
X204740Y334169
X203264Y350409
X199819Y350409
X186531Y344996
X209661Y367634
X214583Y367634
X254937Y304642
X255429Y274622
X255429Y244110
X223441Y203264
X206709Y202280
X223441Y173244
X247555Y116650
X255429Y84661
X223441Y81709
X172260Y93520
X147161Y93520
X95488Y143717
X24130Y127476
X21669Y136827
X24130Y111236
X24130Y89583
X23638Y163894
X24130Y166846
X19209Y179150
X24130Y207201
X24130Y292339
X148146Y252476
X155528Y259858
X163402Y263795
X163402Y282496
X163402Y292831
X160449Y303657
X161433Y314976
X158972Y316945
X176197Y302673
X176197Y292831
X196374Y292339
X292831Y311039
X297752Y270685
X292831Y241157
X276098Y43815
T02
X219677Y47457
X219677Y57457
X219677Y67457
X219677Y77457
X219677Y87457
X219677Y97457
X219677Y107457
X219677Y117457
X219677Y127457
X219677Y137457
X219677Y147457
X219677Y157457
X219677Y167457
X219677Y177457
X219677Y187457
X219677Y197457
X219677Y207457
X219677Y217457
X219677Y227457
X219677Y237457
X219677Y247457
X219677Y257457
X219677Y267457
X219677Y277457
X219677Y287457
X219677Y297457
X219677Y307457
X219677Y317457
X219677Y327457
X219677Y337457
X209677Y337457
X199677Y337457
X189677Y337457
X179677Y337457
X179677Y327457
X179677Y317457
X189677Y317457
X189677Y327457
X199677Y327457
X199677Y317457
X209677Y317457
X209677Y327457
X209677Y307457
X209677Y297457
X199677Y297457
X199677Y307457
X189677Y307457
X189677Y297457
X179677Y297457
X179677Y307457
X179677Y287457
X179677Y277457
X189677Y277457
X189677Y287457
X199677Y287457
X199677Y277457
X209677Y277457
X209677Y287457
X209677Y267457
X209677Y257457
X199677Y257457
X199677Y267457
X189677Y267457
X189677Y257457
X179677Y257457
X179677Y267457
X179677Y247457
X179677Y237457
X189677Y237457
X189677Y247457
X199677Y247457
X199677Y237457
X209677Y237457
X209677Y247457
X209677Y227457
X199677Y227457
X189677Y227457
X179677Y227457
X179677Y217457
X179677Y207457
X189677Y207457
X189677Y217457
X199677Y217457
X199677Y207457
X209677Y207457
X209677Y217457
X209677Y197457
X209677Y187457
X199677Y187457
X199677Y197457
X189677Y197457
X189677Y187457
X179677Y187457
X179677Y197457
X179677Y177457
X179677Y167457
X189677Y167457
X189677Y177457
X199677Y177457
X199677Y167457
X209677Y167457
X209677Y177457
X209677Y157457
X209677Y147457
X199677Y147457
X199677Y157457
X189677Y157457
X189677Y147457
X179677Y147457
X179677Y157457
X179677Y137457
X179677Y127457
X189677Y127457
X189677Y137457
X199677Y137457
X199677Y127457
X209677Y127457
X209677Y137457
X209677Y117457
X209677Y107457
X199677Y107457
X199677Y117457
X189677Y117457
X189677Y107457
X179677Y107457
X179677Y117457
X179677Y97457
X179677Y87457
X189677Y87457
X189677Y97457
X199677Y97457
X199677Y87457
X209677Y87457
X209677Y97457
X209677Y77457
X209677Y67457
X199677Y67457
X199677Y77457
X189677Y77457
X189677Y67457
X179677Y67457
X179677Y77457
X179677Y57457
X189677Y57457
X199677Y57457
X209677Y57457
X209677Y47457
X199677Y47457
X189677Y47457
X179677Y47457
X139677Y47457
X139677Y57457
X139677Y67457
X139677Y77457
X139677Y87457
X139677Y97457
X139677Y107457
X139677Y117457
X139677Y127457
X139677Y137457
X139677Y147457
X139677Y157457
X139677Y167457
X139677Y177457
X139677Y187457
X139677Y197457
X139677Y207457
X139677Y217457
X139677Y227457
X139677Y237457
X139677Y247457
X139677Y257457
X139677Y267457
X139677Y277457
X139677Y287457
X139677Y297457
X139677Y307457
X139677Y317457
X139677Y327457
X139677Y337457
X129677Y337457
X119677Y337457
X109677Y337457
X99677Y337457
X99677Y327457
X99677Y317457
X109677Y317457
X109677Y327457
X119677Y327457
X119677Y317457
X129677Y317457
X129677Y327457
X129677Y307457
X129677Y297457
X119677Y297457
X119677Y307457
X109677Y307457
X109677Y297457
X99677Y297457
X99677Y307457
X99677Y287457
X99677Y277457
X109677Y277457
X109677Y287457
X119677Y287457
X119677Y277457
X129677Y277457
X129677Y287457
X129677Y267457
X129677Y257457
X119677Y257457
X119677Y267457
X109677Y267457
X109677Y257457
X99677Y257457
X99677Y267457
X99677Y247457
X99677Y237457
X109677Y237457
X109677Y247457
X119677Y247457
X119677Y237457
X129677Y237457
X129677Y247457
X129677Y227457
X119677Y227457
X109677Y227457
X99677Y227457
X99677Y217457
X99677Y207457
X109677Y207457
X109677Y217457
X119677Y217457
X119677Y207457
X129677Y207457
X129677Y217457
X129677Y197457
X129677Y187457
X119677Y187457
X119677Y197457
X109677Y197457
X109677Y187457
X99677Y187457
X99677Y197457
X99677Y177457
X99677Y167457
X109677Y167457
X109677Y177457
X119677Y177457
X119677Y167457
X129677Y167457
X129677Y177457
X129677Y157457
X129677Y147457
X119677Y147457
X119677Y157457
X109677Y157457
X109677Y147457
X99677Y147457
X99677Y157457
X99677Y137457
X99677Y127457
X109677Y127457
X109677Y137457
X119677Y137457
X119677Y127457
X129677Y127457
X129677Y137457
X129677Y117457
X129677Y107457
X119677Y107457
X119677Y117457
X109677Y117457
X109677Y107457
X99677Y107457
X99677Y117457
X99677Y97457
X99677Y87457
X109677Y87457
X109677Y97457
X119677Y97457
X119677Y87457
X129677Y87457
X129677Y97457
X129677Y77457
X129677Y67457
X119677Y67457
X119677Y77457
X109677Y77457
X109677Y67457
X99677Y67457
X99677Y77457
X99677Y57457
X109677Y57457
X119677Y57457
X129677Y57457
X129677Y47457
X119677Y47457
X109677Y47457
X99677Y47457
T03
X77803Y43402
X239220Y43402
X239220Y340646
X77803Y340646
M30
