G75*
%MOIN*%
%OFA0B0*%
%FSLAX25Y25*%
%IPPOS*%
%LPD*%
%AMOC8*
5,1,8,0,0,1.08239X$1,22.5*
%
%ADD10C,0.00000*%
%ADD11C,0.06000*%
%ADD12C,0.03200*%
%ADD13C,0.00800*%
%ADD14C,0.02000*%
D10*
X0002550Y0001000D02*
X0002550Y0394701D01*
X0232471Y0394701D01*
X0232471Y0001000D01*
X0002550Y0001000D01*
D11*
X0052550Y0041000D03*
X0052550Y0051000D03*
X0052550Y0061000D03*
X0052550Y0071000D03*
X0052550Y0081000D03*
X0052550Y0091000D03*
X0052550Y0101000D03*
X0052550Y0111000D03*
X0052550Y0121000D03*
X0052550Y0131000D03*
X0052550Y0141000D03*
X0052550Y0151000D03*
X0052550Y0161000D03*
X0052550Y0171000D03*
X0052550Y0181000D03*
X0062550Y0181000D03*
X0062550Y0171000D03*
X0062550Y0161000D03*
X0062550Y0151000D03*
X0062550Y0141000D03*
X0062550Y0131000D03*
X0062550Y0121000D03*
X0062550Y0111000D03*
X0062550Y0101000D03*
X0062550Y0091000D03*
X0062550Y0081000D03*
X0062550Y0071000D03*
X0062550Y0061000D03*
X0062550Y0051000D03*
X0062550Y0041000D03*
X0072550Y0041000D03*
X0072550Y0051000D03*
X0072550Y0061000D03*
X0072550Y0071000D03*
X0072550Y0081000D03*
X0072550Y0091000D03*
X0072550Y0101000D03*
X0072550Y0111000D03*
X0072550Y0121000D03*
X0072550Y0131000D03*
X0072550Y0141000D03*
X0072550Y0151000D03*
X0072550Y0161000D03*
X0072550Y0171000D03*
X0072550Y0181000D03*
X0082550Y0181000D03*
X0082550Y0171000D03*
X0082550Y0161000D03*
X0082550Y0151000D03*
X0082550Y0141000D03*
X0082550Y0131000D03*
X0082550Y0121000D03*
X0082550Y0111000D03*
X0082550Y0101000D03*
X0082550Y0091000D03*
X0082550Y0081000D03*
X0082550Y0071000D03*
X0082550Y0061000D03*
X0082550Y0051000D03*
X0082550Y0041000D03*
X0092550Y0041000D03*
X0092550Y0051000D03*
X0092550Y0061000D03*
X0092550Y0071000D03*
X0092550Y0081000D03*
X0092550Y0091000D03*
X0092550Y0101000D03*
X0092550Y0111000D03*
X0092550Y0121000D03*
X0092550Y0131000D03*
X0092550Y0141000D03*
X0092550Y0151000D03*
X0092550Y0161000D03*
X0092550Y0171000D03*
X0092550Y0181000D03*
X0092550Y0201000D03*
X0092550Y0211000D03*
X0092550Y0221000D03*
X0092550Y0231000D03*
X0092550Y0241000D03*
X0092550Y0251000D03*
X0092550Y0261000D03*
X0092550Y0271000D03*
X0092550Y0281000D03*
X0092550Y0291000D03*
X0092550Y0301000D03*
X0092550Y0311000D03*
X0092550Y0321000D03*
X0092550Y0331000D03*
X0092550Y0341000D03*
X0082550Y0341000D03*
X0082550Y0331000D03*
X0082550Y0321000D03*
X0082550Y0311000D03*
X0082550Y0301000D03*
X0082550Y0291000D03*
X0082550Y0281000D03*
X0082550Y0271000D03*
X0082550Y0261000D03*
X0082550Y0251000D03*
X0082550Y0241000D03*
X0082550Y0231000D03*
X0082550Y0221000D03*
X0082550Y0211000D03*
X0082550Y0201000D03*
X0072550Y0201000D03*
X0072550Y0211000D03*
X0072550Y0221000D03*
X0072550Y0231000D03*
X0072550Y0241000D03*
X0072550Y0251000D03*
X0072550Y0261000D03*
X0072550Y0271000D03*
X0072550Y0281000D03*
X0072550Y0291000D03*
X0072550Y0301000D03*
X0072550Y0311000D03*
X0072550Y0321000D03*
X0072550Y0331000D03*
X0072550Y0341000D03*
X0062550Y0341000D03*
X0062550Y0331000D03*
X0062550Y0321000D03*
X0062550Y0311000D03*
X0062550Y0301000D03*
X0062550Y0291000D03*
X0062550Y0281000D03*
X0062550Y0271000D03*
X0062550Y0261000D03*
X0062550Y0251000D03*
X0062550Y0241000D03*
X0062550Y0231000D03*
X0062550Y0221000D03*
X0062550Y0211000D03*
X0062550Y0201000D03*
X0052550Y0201000D03*
X0052550Y0211000D03*
X0052550Y0221000D03*
X0052550Y0231000D03*
X0052550Y0241000D03*
X0052550Y0251000D03*
X0052550Y0261000D03*
X0052550Y0271000D03*
X0052550Y0281000D03*
X0052550Y0291000D03*
X0052550Y0301000D03*
X0052550Y0311000D03*
X0052550Y0321000D03*
X0052550Y0331000D03*
X0052550Y0341000D03*
X0132550Y0341000D03*
X0132550Y0331000D03*
X0132550Y0321000D03*
X0132550Y0311000D03*
X0132550Y0301000D03*
X0132550Y0291000D03*
X0132550Y0281000D03*
X0132550Y0271000D03*
X0132550Y0261000D03*
X0132550Y0251000D03*
X0132550Y0241000D03*
X0132550Y0231000D03*
X0132550Y0221000D03*
X0132550Y0211000D03*
X0132550Y0201000D03*
X0142550Y0201000D03*
X0142550Y0211000D03*
X0142550Y0221000D03*
X0142550Y0231000D03*
X0142550Y0241000D03*
X0142550Y0251000D03*
X0142550Y0261000D03*
X0142550Y0271000D03*
X0142550Y0281000D03*
X0142550Y0291000D03*
X0142550Y0301000D03*
X0142550Y0311000D03*
X0142550Y0321000D03*
X0142550Y0331000D03*
X0142550Y0341000D03*
X0152550Y0341000D03*
X0152550Y0331000D03*
X0152550Y0321000D03*
X0152550Y0311000D03*
X0152550Y0301000D03*
X0152550Y0291000D03*
X0152550Y0281000D03*
X0152550Y0271000D03*
X0152550Y0261000D03*
X0152550Y0251000D03*
X0152550Y0241000D03*
X0152550Y0231000D03*
X0152550Y0221000D03*
X0152550Y0211000D03*
X0152550Y0201000D03*
X0162550Y0201000D03*
X0162550Y0211000D03*
X0162550Y0221000D03*
X0162550Y0231000D03*
X0162550Y0241000D03*
X0162550Y0251000D03*
X0162550Y0261000D03*
X0162550Y0271000D03*
X0162550Y0281000D03*
X0162550Y0291000D03*
X0162550Y0301000D03*
X0162550Y0311000D03*
X0162550Y0321000D03*
X0162550Y0331000D03*
X0162550Y0341000D03*
X0172550Y0341000D03*
X0172550Y0331000D03*
X0172550Y0321000D03*
X0172550Y0311000D03*
X0172550Y0301000D03*
X0172550Y0291000D03*
X0172550Y0281000D03*
X0172550Y0271000D03*
X0172550Y0261000D03*
X0172550Y0251000D03*
X0172550Y0241000D03*
X0172550Y0231000D03*
X0172550Y0221000D03*
X0172550Y0211000D03*
X0172550Y0201000D03*
X0172550Y0181000D03*
X0172550Y0171000D03*
X0172550Y0161000D03*
X0172550Y0151000D03*
X0172550Y0141000D03*
X0172550Y0131000D03*
X0172550Y0121000D03*
X0172550Y0111000D03*
X0172550Y0101000D03*
X0172550Y0091000D03*
X0172550Y0081000D03*
X0172550Y0071000D03*
X0172550Y0061000D03*
X0172550Y0051000D03*
X0172550Y0041000D03*
X0162550Y0041000D03*
X0162550Y0051000D03*
X0162550Y0061000D03*
X0162550Y0071000D03*
X0162550Y0081000D03*
X0162550Y0091000D03*
X0162550Y0101000D03*
X0162550Y0111000D03*
X0162550Y0121000D03*
X0162550Y0131000D03*
X0162550Y0141000D03*
X0162550Y0151000D03*
X0162550Y0161000D03*
X0162550Y0171000D03*
X0162550Y0181000D03*
X0152550Y0181000D03*
X0152550Y0171000D03*
X0152550Y0161000D03*
X0152550Y0151000D03*
X0152550Y0141000D03*
X0152550Y0131000D03*
X0152550Y0121000D03*
X0152550Y0111000D03*
X0152550Y0101000D03*
X0152550Y0091000D03*
X0152550Y0081000D03*
X0152550Y0071000D03*
X0152550Y0061000D03*
X0152550Y0051000D03*
X0152550Y0041000D03*
X0142550Y0041000D03*
X0142550Y0051000D03*
X0142550Y0061000D03*
X0142550Y0071000D03*
X0142550Y0081000D03*
X0142550Y0091000D03*
X0142550Y0101000D03*
X0142550Y0111000D03*
X0142550Y0121000D03*
X0142550Y0131000D03*
X0142550Y0141000D03*
X0142550Y0151000D03*
X0142550Y0161000D03*
X0142550Y0171000D03*
X0142550Y0181000D03*
X0132550Y0181000D03*
X0132550Y0171000D03*
X0132550Y0161000D03*
X0132550Y0151000D03*
X0132550Y0141000D03*
X0132550Y0131000D03*
X0132550Y0121000D03*
X0132550Y0111000D03*
X0132550Y0101000D03*
X0132550Y0091000D03*
X0132550Y0081000D03*
X0132550Y0071000D03*
X0132550Y0061000D03*
X0132550Y0051000D03*
X0132550Y0041000D03*
D12*
X0130050Y0021000D03*
X0135050Y0021000D03*
X0140050Y0021000D03*
X0145050Y0021000D03*
X0150050Y0021000D03*
X0155050Y0021000D03*
X0160050Y0021000D03*
X0165050Y0021000D03*
X0170050Y0021000D03*
X0175050Y0021000D03*
X0192550Y0038500D03*
X0192550Y0043500D03*
X0192550Y0048500D03*
X0192550Y0053500D03*
X0192550Y0058500D03*
X0192550Y0063500D03*
X0192550Y0068500D03*
X0192550Y0073500D03*
X0192550Y0078500D03*
X0192550Y0083500D03*
X0192550Y0088500D03*
X0192550Y0093500D03*
X0192550Y0098500D03*
X0192550Y0103500D03*
X0192550Y0108500D03*
X0192550Y0113500D03*
X0192550Y0118500D03*
X0192550Y0123500D03*
X0192550Y0128500D03*
X0192550Y0133500D03*
X0192550Y0138500D03*
X0192550Y0143500D03*
X0192550Y0148500D03*
X0192550Y0153500D03*
X0192550Y0158500D03*
X0192550Y0163500D03*
X0192550Y0168500D03*
X0192550Y0173500D03*
X0192550Y0178500D03*
X0192550Y0183500D03*
X0192550Y0198500D03*
X0192550Y0203500D03*
X0192550Y0208500D03*
X0192550Y0213500D03*
X0192550Y0218500D03*
X0192550Y0223500D03*
X0192550Y0228500D03*
X0192550Y0233500D03*
X0192550Y0238500D03*
X0192550Y0243500D03*
X0192550Y0248500D03*
X0192550Y0253500D03*
X0192550Y0258500D03*
X0192550Y0263500D03*
X0192550Y0268500D03*
X0192550Y0273500D03*
X0192550Y0278500D03*
X0192550Y0283500D03*
X0192550Y0288500D03*
X0192550Y0293500D03*
X0192550Y0298500D03*
X0192550Y0303500D03*
X0192550Y0308500D03*
X0192550Y0313500D03*
X0192550Y0318500D03*
X0192550Y0323500D03*
X0192550Y0328500D03*
X0192550Y0333500D03*
X0192550Y0338500D03*
X0192550Y0343500D03*
X0200050Y0343500D03*
X0200050Y0338500D03*
X0200050Y0333500D03*
X0200050Y0328500D03*
X0200050Y0323500D03*
X0200050Y0318500D03*
X0200050Y0313500D03*
X0200050Y0308500D03*
X0200050Y0303500D03*
X0200050Y0298500D03*
X0200050Y0293500D03*
X0200050Y0288500D03*
X0200050Y0283500D03*
X0200050Y0278500D03*
X0200050Y0273500D03*
X0200050Y0268500D03*
X0200050Y0263500D03*
X0200050Y0258500D03*
X0200050Y0253500D03*
X0200050Y0248500D03*
X0200050Y0243500D03*
X0200050Y0238500D03*
X0200050Y0233500D03*
X0200050Y0228500D03*
X0200050Y0223500D03*
X0200050Y0218500D03*
X0200050Y0213500D03*
X0200050Y0208500D03*
X0200050Y0203500D03*
X0200050Y0198500D03*
X0200050Y0183500D03*
X0200050Y0178500D03*
X0200050Y0173500D03*
X0200050Y0168500D03*
X0200050Y0163500D03*
X0200050Y0158500D03*
X0200050Y0153500D03*
X0200050Y0148500D03*
X0200050Y0143500D03*
X0200050Y0138500D03*
X0200050Y0133500D03*
X0200050Y0128500D03*
X0200050Y0123500D03*
X0200050Y0118500D03*
X0200050Y0113500D03*
X0200050Y0108500D03*
X0200050Y0103500D03*
X0200050Y0098500D03*
X0200050Y0093500D03*
X0200050Y0088500D03*
X0200050Y0083500D03*
X0200050Y0078500D03*
X0200050Y0073500D03*
X0200050Y0068500D03*
X0200050Y0063500D03*
X0200050Y0058500D03*
X0200050Y0053500D03*
X0200050Y0048500D03*
X0200050Y0043500D03*
X0200050Y0038500D03*
X0095050Y0021000D03*
X0090050Y0021000D03*
X0085050Y0021000D03*
X0080050Y0021000D03*
X0075050Y0021000D03*
X0070050Y0021000D03*
X0065050Y0021000D03*
X0060050Y0021000D03*
X0055050Y0021000D03*
X0050050Y0021000D03*
X0032550Y0038500D03*
X0032550Y0043500D03*
X0032550Y0048500D03*
X0032550Y0053500D03*
X0032550Y0058500D03*
X0032550Y0063500D03*
X0032550Y0068500D03*
X0032550Y0073500D03*
X0032550Y0078500D03*
X0032550Y0083500D03*
X0032550Y0088500D03*
X0032550Y0093500D03*
X0032550Y0098500D03*
X0032550Y0103500D03*
X0032550Y0108500D03*
X0032550Y0113500D03*
X0032550Y0118500D03*
X0032550Y0123500D03*
X0032550Y0128500D03*
X0032550Y0133500D03*
X0032550Y0138500D03*
X0032550Y0143500D03*
X0032550Y0148500D03*
X0032550Y0153500D03*
X0032550Y0158500D03*
X0032550Y0163500D03*
X0032550Y0168500D03*
X0032550Y0173500D03*
X0032550Y0178500D03*
X0032550Y0183500D03*
X0025050Y0183500D03*
X0025050Y0178500D03*
X0025050Y0173500D03*
X0025050Y0168500D03*
X0025050Y0163500D03*
X0025050Y0158500D03*
X0025050Y0153500D03*
X0025050Y0148500D03*
X0025050Y0143500D03*
X0025050Y0138500D03*
X0025050Y0133500D03*
X0025050Y0128500D03*
X0025050Y0123500D03*
X0025050Y0118500D03*
X0025050Y0113500D03*
X0025050Y0108500D03*
X0025050Y0103500D03*
X0025050Y0098500D03*
X0025050Y0093500D03*
X0025050Y0088500D03*
X0025050Y0083500D03*
X0025050Y0078500D03*
X0025050Y0073500D03*
X0025050Y0068500D03*
X0025050Y0063500D03*
X0025050Y0058500D03*
X0025050Y0053500D03*
X0025050Y0048500D03*
X0025050Y0043500D03*
X0025050Y0038500D03*
X0025050Y0198500D03*
X0025050Y0203500D03*
X0025050Y0208500D03*
X0025050Y0213500D03*
X0025050Y0218500D03*
X0025050Y0223500D03*
X0025050Y0228500D03*
X0025050Y0233500D03*
X0025050Y0238500D03*
X0025050Y0243500D03*
X0025050Y0248500D03*
X0025050Y0253500D03*
X0025050Y0258500D03*
X0025050Y0263500D03*
X0025050Y0268500D03*
X0025050Y0273500D03*
X0025050Y0278500D03*
X0025050Y0283500D03*
X0025050Y0288500D03*
X0025050Y0293500D03*
X0025050Y0298500D03*
X0025050Y0303500D03*
X0025050Y0308500D03*
X0025050Y0313500D03*
X0025050Y0318500D03*
X0025050Y0323500D03*
X0025050Y0328500D03*
X0025050Y0333500D03*
X0025050Y0338500D03*
X0025050Y0343500D03*
X0032550Y0343500D03*
X0032550Y0338500D03*
X0032550Y0333500D03*
X0032550Y0328500D03*
X0032550Y0323500D03*
X0032550Y0318500D03*
X0032550Y0313500D03*
X0032550Y0308500D03*
X0032550Y0303500D03*
X0032550Y0298500D03*
X0032550Y0293500D03*
X0032550Y0288500D03*
X0032550Y0283500D03*
X0032550Y0278500D03*
X0032550Y0273500D03*
X0032550Y0268500D03*
X0032550Y0263500D03*
X0032550Y0258500D03*
X0032550Y0253500D03*
X0032550Y0248500D03*
X0032550Y0243500D03*
X0032550Y0238500D03*
X0032550Y0233500D03*
X0032550Y0228500D03*
X0032550Y0223500D03*
X0032550Y0218500D03*
X0032550Y0213500D03*
X0032550Y0208500D03*
X0032550Y0203500D03*
X0032550Y0198500D03*
X0050050Y0361000D03*
X0055050Y0361000D03*
X0060050Y0361000D03*
X0065050Y0361000D03*
X0070050Y0361000D03*
X0075050Y0361000D03*
X0075050Y0368500D03*
X0070050Y0368500D03*
X0065050Y0368500D03*
X0060050Y0368500D03*
X0055050Y0368500D03*
X0050050Y0368500D03*
X0080050Y0368500D03*
X0085050Y0368500D03*
X0090050Y0368500D03*
X0095050Y0368500D03*
X0095050Y0361000D03*
X0090050Y0361000D03*
X0085050Y0361000D03*
X0080050Y0361000D03*
X0130050Y0361000D03*
X0135050Y0361000D03*
X0140050Y0361000D03*
X0145050Y0361000D03*
X0150050Y0361000D03*
X0155050Y0361000D03*
X0155050Y0368500D03*
X0150050Y0368500D03*
X0145050Y0368500D03*
X0140050Y0368500D03*
X0135050Y0368500D03*
X0130050Y0368500D03*
X0160050Y0368500D03*
X0165050Y0368500D03*
X0170050Y0368500D03*
X0175050Y0368500D03*
X0175050Y0361000D03*
X0170050Y0361000D03*
X0165050Y0361000D03*
X0160050Y0361000D03*
D13*
X0161300Y0353500D02*
X0153800Y0346000D01*
X0151300Y0346000D01*
X0147550Y0342250D01*
X0147550Y0339750D01*
X0143800Y0336000D01*
X0140050Y0336000D01*
X0137550Y0329750D02*
X0141300Y0326000D01*
X0143800Y0326000D01*
X0147550Y0322250D01*
X0147550Y0319750D01*
X0151300Y0316000D01*
X0153800Y0316000D01*
X0157550Y0312250D01*
X0157550Y0306000D01*
X0162550Y0301000D01*
X0157550Y0299750D02*
X0161300Y0296000D01*
X0180050Y0296000D01*
X0192550Y0308500D01*
X0192550Y0313500D02*
X0187550Y0313500D01*
X0182550Y0308500D01*
X0185050Y0316000D02*
X0177550Y0316000D01*
X0173800Y0316000D02*
X0177550Y0319750D01*
X0177550Y0323500D01*
X0182550Y0328500D01*
X0192550Y0328500D01*
X0192550Y0323500D02*
X0185050Y0316000D01*
X0177550Y0326000D02*
X0172550Y0321000D01*
X0173800Y0316000D02*
X0161300Y0316000D01*
X0157550Y0319750D01*
X0157550Y0322250D01*
X0163800Y0326000D02*
X0147550Y0326000D01*
X0140050Y0316000D02*
X0137550Y0316000D01*
X0132550Y0311000D01*
X0131300Y0306000D02*
X0146300Y0306000D01*
X0150050Y0306000D02*
X0145050Y0311000D01*
X0142550Y0311000D01*
X0150050Y0306000D02*
X0153800Y0306000D01*
X0157550Y0302250D01*
X0157550Y0299750D01*
X0157550Y0296000D02*
X0162550Y0291000D01*
X0157550Y0286000D02*
X0162550Y0281000D01*
X0157550Y0286000D02*
X0131300Y0286000D01*
X0126300Y0291000D01*
X0122550Y0293500D02*
X0122550Y0294750D01*
X0125050Y0297250D01*
X0131300Y0296000D02*
X0123800Y0303500D01*
X0123800Y0351000D01*
X0121300Y0346000D02*
X0121300Y0338500D01*
X0127550Y0342250D02*
X0127550Y0309750D01*
X0131300Y0306000D01*
X0131300Y0296000D02*
X0157550Y0296000D01*
X0141300Y0276000D02*
X0173800Y0276000D01*
X0175050Y0274750D01*
X0177550Y0274750D01*
X0182550Y0266000D02*
X0147550Y0266000D01*
X0142550Y0261000D01*
X0137550Y0266000D02*
X0132550Y0261000D01*
X0137550Y0266000D02*
X0137550Y0272250D01*
X0141300Y0276000D01*
X0132550Y0281000D02*
X0131300Y0281000D01*
X0118800Y0293500D01*
X0118800Y0302250D01*
X0118800Y0306000D02*
X0113800Y0301000D01*
X0113800Y0276000D01*
X0107550Y0269750D01*
X0107550Y0238500D01*
X0097550Y0252250D02*
X0097550Y0192250D01*
X0087550Y0182250D01*
X0087550Y0169750D01*
X0083800Y0166000D01*
X0071300Y0166000D01*
X0067550Y0162250D01*
X0067550Y0139750D01*
X0071300Y0136000D01*
X0077550Y0136000D01*
X0082550Y0131000D01*
X0072550Y0111000D02*
X0077550Y0106000D01*
X0077550Y0089750D01*
X0073800Y0086000D01*
X0071300Y0086000D01*
X0067550Y0082250D01*
X0067550Y0079750D01*
X0063800Y0076000D01*
X0051300Y0076000D01*
X0043800Y0068500D01*
X0043800Y0039750D01*
X0036300Y0032250D01*
X0026300Y0032250D01*
X0015050Y0043500D01*
X0015050Y0103500D01*
X0025050Y0113500D01*
X0025050Y0118500D02*
X0012550Y0106000D01*
X0012550Y0034750D01*
X0027550Y0019750D01*
X0032550Y0019750D01*
X0028800Y0022250D02*
X0046300Y0022250D01*
X0057550Y0033500D01*
X0071300Y0033500D01*
X0077550Y0039750D01*
X0077550Y0076000D01*
X0072550Y0081000D01*
X0067550Y0086000D02*
X0072550Y0091000D01*
X0067550Y0086000D02*
X0051300Y0086000D01*
X0038800Y0073500D01*
X0038800Y0038500D01*
X0036300Y0037250D02*
X0036300Y0061000D01*
X0047550Y0052250D02*
X0051300Y0056000D01*
X0067550Y0056000D01*
X0072550Y0061000D01*
X0072550Y0051000D02*
X0067550Y0046000D01*
X0067550Y0039750D01*
X0063800Y0036000D01*
X0051300Y0036000D01*
X0040050Y0024750D01*
X0030050Y0024750D01*
X0018800Y0036000D01*
X0018800Y0032250D02*
X0028800Y0022250D01*
X0022550Y0018500D02*
X0022550Y0016000D01*
X0022550Y0018500D02*
X0010050Y0031000D01*
X0010050Y0113500D01*
X0025050Y0128500D01*
X0021300Y0131000D02*
X0007550Y0144750D01*
X0006300Y0152250D02*
X0006300Y0191000D01*
X0011300Y0196000D02*
X0017550Y0189750D01*
X0022550Y0189750D01*
X0025050Y0187250D01*
X0033800Y0187250D01*
X0045050Y0176000D01*
X0068800Y0176000D01*
X0067550Y0189750D02*
X0077550Y0199750D01*
X0077550Y0206000D01*
X0082550Y0211000D01*
X0077550Y0219750D02*
X0077550Y0256000D01*
X0072550Y0261000D01*
X0077550Y0259750D02*
X0081300Y0256000D01*
X0093800Y0256000D01*
X0097550Y0252250D01*
X0093800Y0266000D02*
X0087550Y0266000D01*
X0082550Y0261000D01*
X0077550Y0259750D02*
X0077550Y0312250D01*
X0073800Y0316000D01*
X0071300Y0316000D01*
X0067550Y0319750D01*
X0067550Y0332250D01*
X0063800Y0336000D01*
X0051300Y0336000D01*
X0035050Y0352250D01*
X0031300Y0354750D02*
X0058800Y0354750D01*
X0067550Y0346000D01*
X0067550Y0336000D01*
X0072550Y0331000D01*
X0077550Y0326000D02*
X0072550Y0321000D01*
X0067550Y0316000D02*
X0072550Y0311000D01*
X0067550Y0316000D02*
X0051300Y0316000D01*
X0047550Y0319750D01*
X0047550Y0333500D01*
X0033800Y0347250D01*
X0031300Y0347250D01*
X0028800Y0344750D01*
X0028800Y0312250D01*
X0025050Y0308500D01*
X0032550Y0313500D02*
X0037550Y0313500D01*
X0045050Y0306000D01*
X0045050Y0304750D01*
X0046300Y0303500D01*
X0048800Y0303500D01*
X0051300Y0306000D01*
X0057550Y0306000D01*
X0062550Y0311000D01*
X0067550Y0296000D02*
X0072550Y0291000D01*
X0067550Y0296000D02*
X0051300Y0296000D01*
X0041300Y0306000D01*
X0045050Y0323500D02*
X0041300Y0327250D01*
X0041300Y0334750D01*
X0032550Y0343500D01*
X0032550Y0333500D02*
X0037550Y0328500D01*
X0043800Y0331000D02*
X0043800Y0333500D01*
X0048800Y0348500D02*
X0057550Y0348500D01*
X0060050Y0346000D01*
X0063800Y0346000D01*
X0062550Y0357250D02*
X0077550Y0342250D01*
X0077550Y0326000D01*
X0087550Y0343500D02*
X0087550Y0306000D01*
X0092550Y0301000D01*
X0093800Y0296000D02*
X0087550Y0296000D01*
X0082550Y0291000D01*
X0087550Y0286000D02*
X0082550Y0281000D01*
X0087550Y0276000D02*
X0082550Y0271000D01*
X0087550Y0276000D02*
X0093800Y0276000D01*
X0100050Y0282250D01*
X0100050Y0294750D01*
X0113800Y0308500D01*
X0113800Y0357250D01*
X0093800Y0377250D01*
X0041300Y0377250D01*
X0008800Y0344750D01*
X0008800Y0328500D01*
X0011300Y0326000D01*
X0011300Y0282250D01*
X0025050Y0268500D01*
X0025050Y0283500D02*
X0021300Y0287250D01*
X0021300Y0329750D01*
X0016300Y0334750D01*
X0016300Y0349750D01*
X0041300Y0374750D01*
X0093800Y0374750D01*
X0111300Y0357250D01*
X0111300Y0308500D01*
X0097550Y0294750D01*
X0097550Y0289750D01*
X0093800Y0286000D01*
X0087550Y0286000D01*
X0093800Y0296000D02*
X0108800Y0311000D01*
X0108800Y0338500D01*
X0106300Y0338500D02*
X0106300Y0313500D01*
X0103800Y0314750D02*
X0101300Y0312250D01*
X0101300Y0308500D01*
X0097550Y0307250D02*
X0097550Y0342250D01*
X0090050Y0349750D01*
X0090050Y0361000D01*
X0095050Y0361000D02*
X0095050Y0347250D01*
X0103800Y0338500D01*
X0103800Y0314750D01*
X0111300Y0299750D02*
X0111300Y0276000D01*
X0102550Y0267250D01*
X0102550Y0216000D01*
X0123800Y0243500D02*
X0131300Y0236000D01*
X0157550Y0236000D01*
X0162550Y0231000D01*
X0157550Y0226000D02*
X0162550Y0221000D01*
X0163800Y0216000D02*
X0131300Y0216000D01*
X0125050Y0209750D01*
X0125050Y0148500D01*
X0132550Y0141000D01*
X0137550Y0149750D02*
X0137550Y0162250D01*
X0141300Y0166000D01*
X0157550Y0166000D01*
X0162550Y0171000D01*
X0155050Y0192250D02*
X0147550Y0199750D01*
X0147550Y0206000D01*
X0142550Y0211000D01*
X0152550Y0211000D02*
X0157550Y0206000D01*
X0173800Y0206000D01*
X0181300Y0213500D01*
X0192550Y0213500D01*
X0192550Y0208500D02*
X0186300Y0202250D01*
X0185050Y0202250D01*
X0182550Y0199750D01*
X0182550Y0193500D01*
X0181300Y0192250D01*
X0155050Y0192250D01*
X0147550Y0176000D02*
X0142550Y0171000D01*
X0147550Y0176000D02*
X0185050Y0176000D01*
X0192550Y0168500D01*
X0185050Y0156000D02*
X0147550Y0156000D01*
X0142550Y0151000D01*
X0137550Y0149750D02*
X0141300Y0146000D01*
X0173800Y0146000D01*
X0185050Y0134750D01*
X0185050Y0119750D01*
X0192550Y0113500D02*
X0176300Y0113500D01*
X0173800Y0116000D01*
X0147550Y0116000D01*
X0142550Y0111000D01*
X0132550Y0101000D02*
X0121300Y0089750D01*
X0121300Y0086000D01*
X0125050Y0082250D01*
X0127550Y0086000D02*
X0132550Y0091000D01*
X0127550Y0086000D02*
X0127550Y0039750D01*
X0131300Y0036000D01*
X0135050Y0036000D01*
X0150050Y0021000D01*
X0151300Y0036000D02*
X0147550Y0039750D01*
X0147550Y0072250D01*
X0151300Y0076000D01*
X0157550Y0076000D01*
X0162550Y0081000D01*
X0152550Y0061000D02*
X0157550Y0056000D01*
X0182550Y0056000D01*
X0185050Y0058500D01*
X0192550Y0058500D01*
X0192550Y0048500D02*
X0190050Y0046000D01*
X0170050Y0046000D01*
X0167550Y0046000D02*
X0167550Y0039750D01*
X0180050Y0027250D01*
X0193800Y0027250D01*
X0191300Y0029750D02*
X0198800Y0029750D01*
X0206300Y0037250D01*
X0206300Y0057250D01*
X0200050Y0063500D01*
X0200050Y0058500D02*
X0203800Y0054750D01*
X0203800Y0037250D01*
X0198800Y0032250D01*
X0185050Y0032250D01*
X0182550Y0029750D02*
X0182550Y0039750D01*
X0185050Y0042250D01*
X0188800Y0042250D01*
X0192550Y0038500D01*
X0191300Y0034750D02*
X0186300Y0039750D01*
X0191300Y0034750D02*
X0193800Y0034750D01*
X0196300Y0037250D01*
X0196300Y0039750D01*
X0200050Y0043500D01*
X0208800Y0031000D02*
X0191300Y0013500D01*
X0182550Y0013500D01*
X0187550Y0022250D02*
X0185050Y0024750D01*
X0173800Y0024750D01*
X0162550Y0036000D01*
X0151300Y0036000D01*
X0140050Y0033500D02*
X0132550Y0041000D01*
X0140050Y0033500D02*
X0162550Y0033500D01*
X0175050Y0021000D01*
X0167550Y0046000D02*
X0162550Y0051000D01*
X0142550Y0081000D02*
X0147550Y0086000D01*
X0185050Y0086000D01*
X0192550Y0078500D01*
X0216300Y0078500D02*
X0216300Y0028500D01*
X0195050Y0007250D01*
X0132550Y0007250D01*
X0108800Y0031000D01*
X0108800Y0093500D01*
X0116300Y0101000D01*
X0123800Y0101000D01*
X0092550Y0111000D02*
X0087550Y0106000D01*
X0087550Y0031000D01*
X0085050Y0028500D01*
X0085050Y0021000D01*
X0102550Y0023500D02*
X0102550Y0034750D01*
X0102550Y0023500D02*
X0121300Y0004750D01*
X0200050Y0004750D01*
X0230050Y0034750D01*
X0230050Y0093500D01*
X0221300Y0102250D01*
X0221300Y0361000D01*
X0195050Y0387250D01*
X0146300Y0387250D01*
X0141300Y0392250D01*
X0046300Y0392250D01*
X0006300Y0352250D01*
X0006300Y0316000D01*
X0008800Y0313500D01*
X0008800Y0166000D01*
X0006300Y0152250D02*
X0025050Y0133500D01*
X0020050Y0153500D02*
X0025050Y0158500D01*
X0025050Y0189750D02*
X0067550Y0189750D01*
X0056300Y0192250D02*
X0026300Y0192250D01*
X0023800Y0194750D01*
X0020050Y0194750D02*
X0025050Y0189750D01*
X0020050Y0194750D02*
X0020050Y0208500D01*
X0025050Y0213500D01*
X0028800Y0196000D02*
X0030050Y0196000D01*
X0031300Y0194750D01*
X0033800Y0194750D01*
X0047550Y0208500D01*
X0047550Y0242250D01*
X0051300Y0246000D01*
X0067550Y0246000D01*
X0072550Y0251000D01*
X0077550Y0219750D02*
X0073800Y0216000D01*
X0071300Y0216000D01*
X0067550Y0212250D01*
X0067550Y0207250D01*
X0087550Y0166000D02*
X0082550Y0161000D01*
X0087550Y0166000D02*
X0093800Y0166000D01*
X0106300Y0153500D01*
X0106300Y0023500D01*
X0111300Y0032250D02*
X0133800Y0009750D01*
X0195050Y0009750D01*
X0213800Y0028500D01*
X0213800Y0134750D01*
X0200050Y0148500D01*
X0200050Y0138500D02*
X0208800Y0129750D01*
X0208800Y0031000D01*
X0216300Y0078500D02*
X0226300Y0088500D01*
X0200050Y0123500D02*
X0196300Y0127250D01*
X0196300Y0184750D01*
X0193800Y0187250D01*
X0185050Y0187250D01*
X0182550Y0189750D02*
X0198800Y0189750D01*
X0206300Y0197250D01*
X0206300Y0227250D01*
X0200050Y0233500D01*
X0200050Y0238500D02*
X0218800Y0257250D01*
X0218800Y0358500D01*
X0200050Y0377250D01*
X0196300Y0377250D02*
X0216300Y0357250D01*
X0216300Y0353500D02*
X0192550Y0377250D01*
X0187550Y0369750D02*
X0185050Y0369750D01*
X0172550Y0382250D01*
X0138800Y0382250D01*
X0140050Y0374750D02*
X0128800Y0374750D01*
X0121300Y0367250D01*
X0121300Y0362250D01*
X0118800Y0361000D02*
X0118800Y0306000D01*
X0116300Y0308500D02*
X0102550Y0294750D01*
X0102550Y0274750D01*
X0093800Y0266000D01*
X0116300Y0308500D02*
X0116300Y0361000D01*
X0096300Y0381000D01*
X0096300Y0382250D01*
X0092550Y0372250D02*
X0073800Y0372250D01*
X0070050Y0368500D01*
X0070050Y0361000D02*
X0087550Y0343500D01*
X0098800Y0346000D02*
X0098800Y0362250D01*
X0095050Y0366000D01*
X0095050Y0368500D01*
X0107550Y0372250D02*
X0118800Y0361000D01*
X0123800Y0358500D02*
X0123800Y0367250D01*
X0128800Y0372250D01*
X0146300Y0372250D01*
X0150050Y0368500D01*
X0152550Y0364750D02*
X0128800Y0364750D01*
X0126300Y0362250D01*
X0126300Y0358500D01*
X0137550Y0347250D01*
X0137550Y0329750D01*
X0127550Y0342250D02*
X0132550Y0347250D01*
X0132550Y0349750D01*
X0123800Y0358500D01*
X0132550Y0356000D02*
X0136300Y0356000D01*
X0137550Y0354750D01*
X0137550Y0349750D01*
X0138800Y0348500D01*
X0141300Y0348500D01*
X0145050Y0352250D01*
X0145050Y0361000D01*
X0140050Y0361000D02*
X0140050Y0351000D01*
X0130050Y0377250D02*
X0156300Y0377250D01*
X0165050Y0368500D01*
X0162550Y0374750D02*
X0168800Y0374750D01*
X0171300Y0372250D01*
X0176300Y0372250D01*
X0181300Y0367250D01*
X0181300Y0349750D01*
X0178800Y0356000D02*
X0177550Y0356000D01*
X0172550Y0351000D01*
X0172550Y0349750D01*
X0168800Y0346000D01*
X0161300Y0346000D01*
X0157550Y0342250D01*
X0157550Y0334750D01*
X0162550Y0331000D02*
X0167550Y0336000D01*
X0167550Y0342250D01*
X0177550Y0352250D01*
X0172550Y0353500D02*
X0178800Y0359750D01*
X0178800Y0362250D01*
X0175050Y0366000D01*
X0175050Y0368500D01*
X0172550Y0379750D02*
X0187550Y0364750D01*
X0195050Y0357250D02*
X0173800Y0336000D01*
X0171300Y0336000D01*
X0167550Y0332250D01*
X0167550Y0329750D01*
X0163800Y0326000D01*
X0172550Y0331000D02*
X0191300Y0349750D01*
X0198800Y0349750D01*
X0203800Y0344750D01*
X0203800Y0337250D01*
X0200050Y0333500D01*
X0196300Y0344750D02*
X0196300Y0322250D01*
X0200050Y0318500D01*
X0187550Y0297250D02*
X0187550Y0229750D01*
X0173800Y0216000D01*
X0167550Y0216000D01*
X0162550Y0211000D01*
X0163800Y0216000D02*
X0167550Y0219750D01*
X0167550Y0222250D01*
X0171300Y0226000D01*
X0173800Y0226000D01*
X0181300Y0233500D01*
X0181300Y0259750D01*
X0185050Y0263500D01*
X0185050Y0294750D01*
X0200050Y0273500D02*
X0213800Y0287250D01*
X0213800Y0347250D01*
X0176300Y0384750D01*
X0123800Y0384750D01*
X0113800Y0374750D01*
X0107550Y0372250D02*
X0107550Y0377250D01*
X0098800Y0346000D02*
X0106300Y0338500D01*
X0126300Y0377250D02*
X0128800Y0379750D01*
X0172550Y0379750D01*
X0172550Y0353500D02*
X0161300Y0353500D01*
X0177550Y0333500D02*
X0177550Y0326000D01*
X0177550Y0333500D02*
X0191300Y0347250D01*
X0193800Y0347250D01*
X0196300Y0344750D01*
X0206300Y0359750D02*
X0201300Y0364750D01*
X0223800Y0368500D02*
X0223800Y0359750D01*
X0178800Y0251000D02*
X0173800Y0246000D01*
X0157550Y0246000D01*
X0152550Y0251000D01*
X0137550Y0246000D02*
X0132550Y0241000D01*
X0132550Y0251000D02*
X0125050Y0258500D01*
X0125050Y0282250D01*
X0126300Y0232250D02*
X0126300Y0231000D01*
X0131300Y0226000D01*
X0157550Y0226000D01*
X0177550Y0206000D02*
X0180050Y0203500D01*
X0186300Y0199750D02*
X0191300Y0194750D01*
X0193800Y0194750D01*
X0196300Y0197250D01*
X0196300Y0199750D01*
X0200050Y0203500D01*
X0203800Y0197250D02*
X0198800Y0192250D01*
X0185050Y0192250D01*
X0203800Y0214750D02*
X0200050Y0218500D01*
X0203800Y0214750D02*
X0203800Y0197250D01*
X0185050Y0156000D02*
X0192550Y0148500D01*
X0062550Y0357250D02*
X0031300Y0357250D01*
X0018800Y0344750D01*
X0021300Y0344750D02*
X0031300Y0354750D01*
X0021300Y0344750D02*
X0021300Y0332250D01*
X0025050Y0328500D01*
X0046300Y0351000D02*
X0048800Y0348500D01*
X0025050Y0233500D02*
X0011300Y0219750D01*
X0011300Y0196000D01*
X0021300Y0106000D02*
X0018800Y0103500D01*
X0018800Y0094750D01*
X0020050Y0093500D01*
X0025050Y0093500D01*
X0021300Y0096000D02*
X0021300Y0098500D01*
X0025050Y0103500D02*
X0028800Y0099750D01*
X0028800Y0037250D01*
X0031300Y0034750D01*
X0033800Y0034750D01*
X0036300Y0037250D01*
X0017550Y0062250D02*
X0017550Y0071000D01*
X0025050Y0078500D01*
X0005050Y0034750D02*
X0005050Y0027250D01*
X0007550Y0024750D01*
D14*
X0007550Y0024750D03*
X0010050Y0027250D03*
X0007550Y0029750D03*
X0005050Y0034750D03*
X0012550Y0024750D03*
X0015050Y0022250D03*
X0022550Y0016000D03*
X0032550Y0019750D03*
X0032550Y0027250D03*
X0038800Y0029750D03*
X0043800Y0024750D03*
X0046300Y0034750D03*
X0038800Y0038500D03*
X0047550Y0052250D03*
X0046300Y0058500D03*
X0036300Y0061000D03*
X0036300Y0066000D03*
X0017550Y0062250D03*
X0018800Y0036000D03*
X0018800Y0032250D03*
X0005050Y0012250D03*
X0021300Y0096000D03*
X0021300Y0098500D03*
X0021300Y0106000D03*
X0021300Y0131000D03*
X0020050Y0142250D03*
X0018800Y0146000D03*
X0020050Y0153500D03*
X0017550Y0157250D03*
X0018800Y0163500D03*
X0018800Y0173500D03*
X0011300Y0173500D03*
X0008800Y0166000D03*
X0007550Y0144750D03*
X0020050Y0187250D03*
X0023800Y0194750D03*
X0028800Y0196000D03*
X0038800Y0186000D03*
X0056300Y0192250D03*
X0067550Y0194750D03*
X0075050Y0191000D03*
X0068800Y0176000D03*
X0067550Y0207250D03*
X0067550Y0224750D03*
X0038800Y0223500D03*
X0017550Y0216000D03*
X0013800Y0197250D03*
X0006300Y0191000D03*
X0038800Y0278500D03*
X0041300Y0306000D03*
X0045050Y0323500D03*
X0043800Y0331000D03*
X0043800Y0333500D03*
X0037550Y0328500D03*
X0035050Y0352250D03*
X0040050Y0362250D03*
X0046300Y0351000D03*
X0050050Y0351000D03*
X0056300Y0346000D03*
X0061300Y0348500D03*
X0063800Y0346000D03*
X0071300Y0353500D03*
X0092550Y0351000D03*
X0092550Y0357250D03*
X0101300Y0353500D03*
X0106300Y0354750D03*
X0101300Y0363500D03*
X0103800Y0377250D03*
X0101300Y0379750D03*
X0107550Y0377250D03*
X0113800Y0374750D03*
X0115050Y0379750D03*
X0117550Y0382250D03*
X0120050Y0384750D03*
X0120050Y0388500D03*
X0116300Y0388500D03*
X0126300Y0377250D03*
X0130050Y0377250D03*
X0138800Y0382250D03*
X0140050Y0374750D03*
X0146300Y0374750D03*
X0152550Y0364750D03*
X0162550Y0374750D03*
X0172550Y0374750D03*
X0178800Y0356000D03*
X0177550Y0352250D03*
X0181300Y0349750D03*
X0190050Y0362250D03*
X0192550Y0359750D03*
X0195050Y0357250D03*
X0201300Y0364750D03*
X0206300Y0359750D03*
X0200050Y0377250D03*
X0196300Y0377250D03*
X0192550Y0377250D03*
X0190050Y0374750D03*
X0187550Y0369750D03*
X0187550Y0364750D03*
X0170050Y0351000D03*
X0162550Y0351000D03*
X0163800Y0356000D03*
X0157550Y0334750D03*
X0157550Y0322250D03*
X0147550Y0326000D03*
X0140050Y0316000D03*
X0146300Y0306000D03*
X0140050Y0336000D03*
X0140050Y0351000D03*
X0135050Y0353500D03*
X0132550Y0356000D03*
X0123800Y0351000D03*
X0121300Y0346000D03*
X0121300Y0338500D03*
X0108800Y0338500D03*
X0101300Y0336000D03*
X0106300Y0313500D03*
X0103800Y0311000D03*
X0101300Y0308500D03*
X0097550Y0307250D03*
X0111300Y0299750D03*
X0118800Y0302250D03*
X0125050Y0297250D03*
X0122550Y0293500D03*
X0126300Y0291000D03*
X0125050Y0282250D03*
X0116300Y0269750D03*
X0113800Y0272250D03*
X0118800Y0262250D03*
X0121300Y0256000D03*
X0123800Y0243500D03*
X0126300Y0232250D03*
X0126300Y0214750D03*
X0122550Y0204750D03*
X0115050Y0176000D03*
X0127550Y0154750D03*
X0127550Y0134750D03*
X0125050Y0111000D03*
X0123800Y0104750D03*
X0123800Y0101000D03*
X0123800Y0087250D03*
X0125050Y0082250D03*
X0121300Y0038500D03*
X0111300Y0032250D03*
X0106300Y0023500D03*
X0102550Y0034750D03*
X0116300Y0016000D03*
X0121300Y0011000D03*
X0115050Y0006000D03*
X0108800Y0007250D03*
X0073800Y0032250D03*
X0057550Y0029750D03*
X0067550Y0074750D03*
X0077550Y0084750D03*
X0058800Y0116000D03*
X0103800Y0133500D03*
X0103800Y0137250D03*
X0147550Y0124750D03*
X0177550Y0064750D03*
X0182550Y0059750D03*
X0187550Y0048500D03*
X0186300Y0039750D03*
X0185050Y0032250D03*
X0182550Y0029750D03*
X0180050Y0034750D03*
X0187550Y0022250D03*
X0190050Y0017250D03*
X0193800Y0027250D03*
X0191300Y0029750D03*
X0182550Y0013500D03*
X0162550Y0024750D03*
X0160050Y0027250D03*
X0170050Y0046000D03*
X0187550Y0088500D03*
X0206300Y0111000D03*
X0206300Y0114750D03*
X0220050Y0097250D03*
X0227550Y0092250D03*
X0226300Y0088500D03*
X0223800Y0072250D03*
X0218800Y0059750D03*
X0218800Y0049750D03*
X0218800Y0034750D03*
X0223800Y0032250D03*
X0216300Y0024750D03*
X0221300Y0017250D03*
X0227550Y0016000D03*
X0230050Y0006000D03*
X0211300Y0029750D03*
X0185050Y0119750D03*
X0213800Y0161000D03*
X0203800Y0176000D03*
X0205050Y0192250D03*
X0211300Y0218500D03*
X0187550Y0208500D03*
X0186300Y0199750D03*
X0185050Y0192250D03*
X0182550Y0189750D03*
X0185050Y0187250D03*
X0182550Y0184750D03*
X0180050Y0194750D03*
X0177550Y0197250D03*
X0180050Y0203500D03*
X0177550Y0206000D03*
X0185050Y0218500D03*
X0182550Y0229750D03*
X0178800Y0251000D03*
X0185050Y0259750D03*
X0182550Y0266000D03*
X0177550Y0274750D03*
X0185050Y0294750D03*
X0187550Y0297250D03*
X0182550Y0308500D03*
X0177550Y0316000D03*
X0188800Y0311000D03*
X0208800Y0303500D03*
X0211300Y0313500D03*
X0216300Y0353500D03*
X0216300Y0357250D03*
X0223800Y0359750D03*
X0223800Y0368500D03*
X0213800Y0382250D03*
X0211300Y0389750D03*
X0137550Y0246000D03*
X0107550Y0238500D03*
X0106300Y0233500D03*
X0102550Y0216000D03*
X0068800Y0276000D03*
X0018800Y0319750D03*
X0015050Y0328500D03*
X0018800Y0344750D03*
X0015050Y0354750D03*
X0012550Y0362250D03*
X0021300Y0371000D03*
X0092550Y0372250D03*
X0096300Y0382250D03*
X0121300Y0362250D03*
M02*
