G75*
%MOIN*%
%OFA0B0*%
%FSLAX25Y25*%
%IPPOS*%
%LPD*%
%AMOC8*
5,1,8,0,0,1.08239X$1,22.5*
%
%ADD10C,0.00000*%
%ADD11C,0.08200*%
%ADD12C,0.04737*%
D10*
X0002550Y0001000D02*
X0002550Y0394701D01*
X0232471Y0394701D01*
X0232471Y0001000D01*
X0002550Y0001000D01*
D11*
X0052550Y0041000D03*
X0052550Y0051000D03*
X0052550Y0061000D03*
X0052550Y0071000D03*
X0052550Y0081000D03*
X0052550Y0091000D03*
X0052550Y0101000D03*
X0052550Y0111000D03*
X0052550Y0121000D03*
X0052550Y0131000D03*
X0052550Y0141000D03*
X0052550Y0151000D03*
X0052550Y0161000D03*
X0052550Y0171000D03*
X0052550Y0181000D03*
X0062550Y0181000D03*
X0062550Y0171000D03*
X0062550Y0161000D03*
X0062550Y0151000D03*
X0062550Y0141000D03*
X0062550Y0131000D03*
X0062550Y0121000D03*
X0062550Y0111000D03*
X0062550Y0101000D03*
X0062550Y0091000D03*
X0062550Y0081000D03*
X0062550Y0071000D03*
X0062550Y0061000D03*
X0062550Y0051000D03*
X0062550Y0041000D03*
X0072550Y0041000D03*
X0072550Y0051000D03*
X0072550Y0061000D03*
X0072550Y0071000D03*
X0072550Y0081000D03*
X0072550Y0091000D03*
X0072550Y0101000D03*
X0072550Y0111000D03*
X0072550Y0121000D03*
X0072550Y0131000D03*
X0072550Y0141000D03*
X0072550Y0151000D03*
X0072550Y0161000D03*
X0072550Y0171000D03*
X0072550Y0181000D03*
X0082550Y0181000D03*
X0082550Y0171000D03*
X0082550Y0161000D03*
X0082550Y0151000D03*
X0082550Y0141000D03*
X0082550Y0131000D03*
X0082550Y0121000D03*
X0082550Y0111000D03*
X0082550Y0101000D03*
X0082550Y0091000D03*
X0082550Y0081000D03*
X0082550Y0071000D03*
X0082550Y0061000D03*
X0082550Y0051000D03*
X0082550Y0041000D03*
X0092550Y0041000D03*
X0092550Y0051000D03*
X0092550Y0061000D03*
X0092550Y0071000D03*
X0092550Y0081000D03*
X0092550Y0091000D03*
X0092550Y0101000D03*
X0092550Y0111000D03*
X0092550Y0121000D03*
X0092550Y0131000D03*
X0092550Y0141000D03*
X0092550Y0151000D03*
X0092550Y0161000D03*
X0092550Y0171000D03*
X0092550Y0181000D03*
X0092550Y0201000D03*
X0092550Y0211000D03*
X0092550Y0221000D03*
X0092550Y0231000D03*
X0092550Y0241000D03*
X0092550Y0251000D03*
X0092550Y0261000D03*
X0092550Y0271000D03*
X0092550Y0281000D03*
X0092550Y0291000D03*
X0092550Y0301000D03*
X0092550Y0311000D03*
X0092550Y0321000D03*
X0092550Y0331000D03*
X0092550Y0341000D03*
X0082550Y0341000D03*
X0082550Y0331000D03*
X0082550Y0321000D03*
X0082550Y0311000D03*
X0082550Y0301000D03*
X0082550Y0291000D03*
X0082550Y0281000D03*
X0082550Y0271000D03*
X0082550Y0261000D03*
X0082550Y0251000D03*
X0082550Y0241000D03*
X0082550Y0231000D03*
X0082550Y0221000D03*
X0082550Y0211000D03*
X0082550Y0201000D03*
X0072550Y0201000D03*
X0072550Y0211000D03*
X0072550Y0221000D03*
X0072550Y0231000D03*
X0072550Y0241000D03*
X0072550Y0251000D03*
X0072550Y0261000D03*
X0072550Y0271000D03*
X0072550Y0281000D03*
X0072550Y0291000D03*
X0072550Y0301000D03*
X0072550Y0311000D03*
X0072550Y0321000D03*
X0072550Y0331000D03*
X0072550Y0341000D03*
X0062550Y0341000D03*
X0062550Y0331000D03*
X0062550Y0321000D03*
X0062550Y0311000D03*
X0062550Y0301000D03*
X0062550Y0291000D03*
X0062550Y0281000D03*
X0062550Y0271000D03*
X0062550Y0261000D03*
X0062550Y0251000D03*
X0062550Y0241000D03*
X0062550Y0231000D03*
X0062550Y0221000D03*
X0062550Y0211000D03*
X0062550Y0201000D03*
X0052550Y0201000D03*
X0052550Y0211000D03*
X0052550Y0221000D03*
X0052550Y0231000D03*
X0052550Y0241000D03*
X0052550Y0251000D03*
X0052550Y0261000D03*
X0052550Y0271000D03*
X0052550Y0281000D03*
X0052550Y0291000D03*
X0052550Y0301000D03*
X0052550Y0311000D03*
X0052550Y0321000D03*
X0052550Y0331000D03*
X0052550Y0341000D03*
X0132550Y0341000D03*
X0132550Y0331000D03*
X0132550Y0321000D03*
X0132550Y0311000D03*
X0132550Y0301000D03*
X0132550Y0291000D03*
X0132550Y0281000D03*
X0132550Y0271000D03*
X0132550Y0261000D03*
X0132550Y0251000D03*
X0132550Y0241000D03*
X0132550Y0231000D03*
X0132550Y0221000D03*
X0132550Y0211000D03*
X0132550Y0201000D03*
X0142550Y0201000D03*
X0142550Y0211000D03*
X0142550Y0221000D03*
X0142550Y0231000D03*
X0142550Y0241000D03*
X0142550Y0251000D03*
X0142550Y0261000D03*
X0142550Y0271000D03*
X0142550Y0281000D03*
X0142550Y0291000D03*
X0142550Y0301000D03*
X0142550Y0311000D03*
X0142550Y0321000D03*
X0142550Y0331000D03*
X0142550Y0341000D03*
X0152550Y0341000D03*
X0152550Y0331000D03*
X0152550Y0321000D03*
X0152550Y0311000D03*
X0152550Y0301000D03*
X0152550Y0291000D03*
X0152550Y0281000D03*
X0152550Y0271000D03*
X0152550Y0261000D03*
X0152550Y0251000D03*
X0152550Y0241000D03*
X0152550Y0231000D03*
X0152550Y0221000D03*
X0152550Y0211000D03*
X0152550Y0201000D03*
X0162550Y0201000D03*
X0162550Y0211000D03*
X0162550Y0221000D03*
X0162550Y0231000D03*
X0162550Y0241000D03*
X0162550Y0251000D03*
X0162550Y0261000D03*
X0162550Y0271000D03*
X0162550Y0281000D03*
X0162550Y0291000D03*
X0162550Y0301000D03*
X0162550Y0311000D03*
X0162550Y0321000D03*
X0162550Y0331000D03*
X0162550Y0341000D03*
X0172550Y0341000D03*
X0172550Y0331000D03*
X0172550Y0321000D03*
X0172550Y0311000D03*
X0172550Y0301000D03*
X0172550Y0291000D03*
X0172550Y0281000D03*
X0172550Y0271000D03*
X0172550Y0261000D03*
X0172550Y0251000D03*
X0172550Y0241000D03*
X0172550Y0231000D03*
X0172550Y0221000D03*
X0172550Y0211000D03*
X0172550Y0201000D03*
X0172550Y0181000D03*
X0172550Y0171000D03*
X0172550Y0161000D03*
X0172550Y0151000D03*
X0172550Y0141000D03*
X0172550Y0131000D03*
X0172550Y0121000D03*
X0172550Y0111000D03*
X0172550Y0101000D03*
X0172550Y0091000D03*
X0172550Y0081000D03*
X0172550Y0071000D03*
X0172550Y0061000D03*
X0172550Y0051000D03*
X0172550Y0041000D03*
X0162550Y0041000D03*
X0162550Y0051000D03*
X0162550Y0061000D03*
X0162550Y0071000D03*
X0162550Y0081000D03*
X0162550Y0091000D03*
X0162550Y0101000D03*
X0162550Y0111000D03*
X0162550Y0121000D03*
X0162550Y0131000D03*
X0162550Y0141000D03*
X0162550Y0151000D03*
X0162550Y0161000D03*
X0162550Y0171000D03*
X0162550Y0181000D03*
X0152550Y0181000D03*
X0152550Y0171000D03*
X0152550Y0161000D03*
X0152550Y0151000D03*
X0152550Y0141000D03*
X0152550Y0131000D03*
X0152550Y0121000D03*
X0152550Y0111000D03*
X0152550Y0101000D03*
X0152550Y0091000D03*
X0152550Y0081000D03*
X0152550Y0071000D03*
X0152550Y0061000D03*
X0152550Y0051000D03*
X0152550Y0041000D03*
X0142550Y0041000D03*
X0142550Y0051000D03*
X0142550Y0061000D03*
X0142550Y0071000D03*
X0142550Y0081000D03*
X0142550Y0091000D03*
X0142550Y0101000D03*
X0142550Y0111000D03*
X0142550Y0121000D03*
X0142550Y0131000D03*
X0142550Y0141000D03*
X0142550Y0151000D03*
X0142550Y0161000D03*
X0142550Y0171000D03*
X0142550Y0181000D03*
X0132550Y0181000D03*
X0132550Y0171000D03*
X0132550Y0161000D03*
X0132550Y0151000D03*
X0132550Y0141000D03*
X0132550Y0131000D03*
X0132550Y0121000D03*
X0132550Y0111000D03*
X0132550Y0101000D03*
X0132550Y0091000D03*
X0132550Y0081000D03*
X0132550Y0071000D03*
X0132550Y0061000D03*
X0132550Y0051000D03*
X0132550Y0041000D03*
D12*
X0130050Y0021000D03*
X0135050Y0021000D03*
X0140050Y0021000D03*
X0145050Y0021000D03*
X0150050Y0021000D03*
X0155050Y0021000D03*
X0160050Y0021000D03*
X0165050Y0021000D03*
X0170050Y0021000D03*
X0175050Y0021000D03*
X0192550Y0038500D03*
X0192550Y0043500D03*
X0192550Y0048500D03*
X0192550Y0053500D03*
X0192550Y0058500D03*
X0192550Y0063500D03*
X0192550Y0068500D03*
X0192550Y0073500D03*
X0192550Y0078500D03*
X0192550Y0083500D03*
X0192550Y0088500D03*
X0192550Y0093500D03*
X0192550Y0098500D03*
X0192550Y0103500D03*
X0192550Y0108500D03*
X0192550Y0113500D03*
X0192550Y0118500D03*
X0192550Y0123500D03*
X0192550Y0128500D03*
X0192550Y0133500D03*
X0192550Y0138500D03*
X0192550Y0143500D03*
X0192550Y0148500D03*
X0192550Y0153500D03*
X0192550Y0158500D03*
X0192550Y0163500D03*
X0192550Y0168500D03*
X0192550Y0173500D03*
X0192550Y0178500D03*
X0192550Y0183500D03*
X0192550Y0198500D03*
X0192550Y0203500D03*
X0192550Y0208500D03*
X0192550Y0213500D03*
X0192550Y0218500D03*
X0192550Y0223500D03*
X0192550Y0228500D03*
X0192550Y0233500D03*
X0192550Y0238500D03*
X0192550Y0243500D03*
X0192550Y0248500D03*
X0192550Y0253500D03*
X0192550Y0258500D03*
X0192550Y0263500D03*
X0192550Y0268500D03*
X0192550Y0273500D03*
X0192550Y0278500D03*
X0192550Y0283500D03*
X0192550Y0288500D03*
X0192550Y0293500D03*
X0192550Y0298500D03*
X0192550Y0303500D03*
X0192550Y0308500D03*
X0192550Y0313500D03*
X0192550Y0318500D03*
X0192550Y0323500D03*
X0192550Y0328500D03*
X0192550Y0333500D03*
X0192550Y0338500D03*
X0192550Y0343500D03*
X0200050Y0343500D03*
X0200050Y0338500D03*
X0200050Y0333500D03*
X0200050Y0328500D03*
X0200050Y0323500D03*
X0200050Y0318500D03*
X0200050Y0313500D03*
X0200050Y0308500D03*
X0200050Y0303500D03*
X0200050Y0298500D03*
X0200050Y0293500D03*
X0200050Y0288500D03*
X0200050Y0283500D03*
X0200050Y0278500D03*
X0200050Y0273500D03*
X0200050Y0268500D03*
X0200050Y0263500D03*
X0200050Y0258500D03*
X0200050Y0253500D03*
X0200050Y0248500D03*
X0200050Y0243500D03*
X0200050Y0238500D03*
X0200050Y0233500D03*
X0200050Y0228500D03*
X0200050Y0223500D03*
X0200050Y0218500D03*
X0200050Y0213500D03*
X0200050Y0208500D03*
X0200050Y0203500D03*
X0200050Y0198500D03*
X0200050Y0183500D03*
X0200050Y0178500D03*
X0200050Y0173500D03*
X0200050Y0168500D03*
X0200050Y0163500D03*
X0200050Y0158500D03*
X0200050Y0153500D03*
X0200050Y0148500D03*
X0200050Y0143500D03*
X0200050Y0138500D03*
X0200050Y0133500D03*
X0200050Y0128500D03*
X0200050Y0123500D03*
X0200050Y0118500D03*
X0200050Y0113500D03*
X0200050Y0108500D03*
X0200050Y0103500D03*
X0200050Y0098500D03*
X0200050Y0093500D03*
X0200050Y0088500D03*
X0200050Y0083500D03*
X0200050Y0078500D03*
X0200050Y0073500D03*
X0200050Y0068500D03*
X0200050Y0063500D03*
X0200050Y0058500D03*
X0200050Y0053500D03*
X0200050Y0048500D03*
X0200050Y0043500D03*
X0200050Y0038500D03*
X0095050Y0021000D03*
X0090050Y0021000D03*
X0085050Y0021000D03*
X0080050Y0021000D03*
X0075050Y0021000D03*
X0070050Y0021000D03*
X0065050Y0021000D03*
X0060050Y0021000D03*
X0055050Y0021000D03*
X0050050Y0021000D03*
X0032550Y0038500D03*
X0032550Y0043500D03*
X0032550Y0048500D03*
X0032550Y0053500D03*
X0032550Y0058500D03*
X0032550Y0063500D03*
X0032550Y0068500D03*
X0032550Y0073500D03*
X0032550Y0078500D03*
X0032550Y0083500D03*
X0032550Y0088500D03*
X0032550Y0093500D03*
X0032550Y0098500D03*
X0032550Y0103500D03*
X0032550Y0108500D03*
X0032550Y0113500D03*
X0032550Y0118500D03*
X0032550Y0123500D03*
X0032550Y0128500D03*
X0032550Y0133500D03*
X0032550Y0138500D03*
X0032550Y0143500D03*
X0032550Y0148500D03*
X0032550Y0153500D03*
X0032550Y0158500D03*
X0032550Y0163500D03*
X0032550Y0168500D03*
X0032550Y0173500D03*
X0032550Y0178500D03*
X0032550Y0183500D03*
X0025050Y0183500D03*
X0025050Y0178500D03*
X0025050Y0173500D03*
X0025050Y0168500D03*
X0025050Y0163500D03*
X0025050Y0158500D03*
X0025050Y0153500D03*
X0025050Y0148500D03*
X0025050Y0143500D03*
X0025050Y0138500D03*
X0025050Y0133500D03*
X0025050Y0128500D03*
X0025050Y0123500D03*
X0025050Y0118500D03*
X0025050Y0113500D03*
X0025050Y0108500D03*
X0025050Y0103500D03*
X0025050Y0098500D03*
X0025050Y0093500D03*
X0025050Y0088500D03*
X0025050Y0083500D03*
X0025050Y0078500D03*
X0025050Y0073500D03*
X0025050Y0068500D03*
X0025050Y0063500D03*
X0025050Y0058500D03*
X0025050Y0053500D03*
X0025050Y0048500D03*
X0025050Y0043500D03*
X0025050Y0038500D03*
X0025050Y0198500D03*
X0025050Y0203500D03*
X0025050Y0208500D03*
X0025050Y0213500D03*
X0025050Y0218500D03*
X0025050Y0223500D03*
X0025050Y0228500D03*
X0025050Y0233500D03*
X0025050Y0238500D03*
X0025050Y0243500D03*
X0025050Y0248500D03*
X0025050Y0253500D03*
X0025050Y0258500D03*
X0025050Y0263500D03*
X0025050Y0268500D03*
X0025050Y0273500D03*
X0025050Y0278500D03*
X0025050Y0283500D03*
X0025050Y0288500D03*
X0025050Y0293500D03*
X0025050Y0298500D03*
X0025050Y0303500D03*
X0025050Y0308500D03*
X0025050Y0313500D03*
X0025050Y0318500D03*
X0025050Y0323500D03*
X0025050Y0328500D03*
X0025050Y0333500D03*
X0025050Y0338500D03*
X0025050Y0343500D03*
X0032550Y0343500D03*
X0032550Y0338500D03*
X0032550Y0333500D03*
X0032550Y0328500D03*
X0032550Y0323500D03*
X0032550Y0318500D03*
X0032550Y0313500D03*
X0032550Y0308500D03*
X0032550Y0303500D03*
X0032550Y0298500D03*
X0032550Y0293500D03*
X0032550Y0288500D03*
X0032550Y0283500D03*
X0032550Y0278500D03*
X0032550Y0273500D03*
X0032550Y0268500D03*
X0032550Y0263500D03*
X0032550Y0258500D03*
X0032550Y0253500D03*
X0032550Y0248500D03*
X0032550Y0243500D03*
X0032550Y0238500D03*
X0032550Y0233500D03*
X0032550Y0228500D03*
X0032550Y0223500D03*
X0032550Y0218500D03*
X0032550Y0213500D03*
X0032550Y0208500D03*
X0032550Y0203500D03*
X0032550Y0198500D03*
X0050050Y0361000D03*
X0055050Y0361000D03*
X0060050Y0361000D03*
X0065050Y0361000D03*
X0070050Y0361000D03*
X0075050Y0361000D03*
X0075050Y0368500D03*
X0070050Y0368500D03*
X0065050Y0368500D03*
X0060050Y0368500D03*
X0055050Y0368500D03*
X0050050Y0368500D03*
X0080050Y0368500D03*
X0085050Y0368500D03*
X0090050Y0368500D03*
X0095050Y0368500D03*
X0095050Y0361000D03*
X0090050Y0361000D03*
X0085050Y0361000D03*
X0080050Y0361000D03*
X0130050Y0361000D03*
X0135050Y0361000D03*
X0140050Y0361000D03*
X0145050Y0361000D03*
X0150050Y0361000D03*
X0155050Y0361000D03*
X0155050Y0368500D03*
X0150050Y0368500D03*
X0145050Y0368500D03*
X0140050Y0368500D03*
X0135050Y0368500D03*
X0130050Y0368500D03*
X0160050Y0368500D03*
X0165050Y0368500D03*
X0170050Y0368500D03*
X0175050Y0368500D03*
X0175050Y0361000D03*
X0170050Y0361000D03*
X0165050Y0361000D03*
X0160050Y0361000D03*
M02*
