G75*
%MOIN*%
%OFA0B0*%
%FSLAX25Y25*%
%IPPOS*%
%LPD*%
%AMOC8*
5,1,8,0,0,1.08239X$1,22.5*
%
%ADD10C,0.00000*%
%ADD11C,0.00800*%
%ADD12C,0.00500*%
%ADD13C,0.00100*%
D10*
X0002550Y0001000D02*
X0002550Y0394701D01*
X0232471Y0394701D01*
X0232471Y0001000D01*
X0002550Y0001000D01*
D11*
X0047550Y0038500D02*
X0047550Y0043500D01*
X0050050Y0046000D01*
X0047550Y0048500D01*
X0047550Y0053500D01*
X0050050Y0056000D01*
X0047550Y0058500D01*
X0047550Y0063500D01*
X0050050Y0066000D01*
X0047550Y0068500D01*
X0047550Y0073500D01*
X0050050Y0076000D01*
X0047550Y0078500D01*
X0047550Y0083500D01*
X0050050Y0086000D01*
X0047550Y0088500D01*
X0047550Y0093500D01*
X0050050Y0096000D01*
X0047550Y0098500D01*
X0047550Y0103500D01*
X0050050Y0106000D01*
X0047550Y0108500D01*
X0047550Y0113500D01*
X0050050Y0116000D01*
X0047550Y0118500D01*
X0047550Y0123500D01*
X0050050Y0126000D01*
X0047550Y0128500D01*
X0047550Y0133500D01*
X0050050Y0136000D01*
X0047550Y0138500D01*
X0047550Y0143500D01*
X0050050Y0146000D01*
X0047550Y0148500D01*
X0047550Y0153500D01*
X0050050Y0156000D01*
X0047550Y0158500D01*
X0047550Y0163500D01*
X0050050Y0166000D01*
X0047550Y0168500D01*
X0047550Y0173500D01*
X0050050Y0176000D01*
X0047550Y0178500D01*
X0047550Y0183500D01*
X0050050Y0186000D01*
X0055050Y0186000D01*
X0057550Y0183500D01*
X0057550Y0178500D01*
X0060050Y0176000D01*
X0057550Y0173500D01*
X0057550Y0168500D01*
X0060050Y0166000D01*
X0057550Y0163500D01*
X0057550Y0158500D01*
X0060050Y0156000D01*
X0057550Y0153500D01*
X0057550Y0148500D01*
X0060050Y0146000D01*
X0057550Y0143500D01*
X0057550Y0138500D01*
X0060050Y0136000D01*
X0057550Y0133500D01*
X0057550Y0128500D01*
X0060050Y0126000D01*
X0057550Y0123500D01*
X0057550Y0118500D01*
X0060050Y0116000D01*
X0057550Y0113500D01*
X0057550Y0108500D01*
X0060050Y0106000D01*
X0057550Y0103500D01*
X0057550Y0098500D01*
X0060050Y0096000D01*
X0057550Y0093500D01*
X0057550Y0088500D01*
X0060050Y0086000D01*
X0057550Y0083500D01*
X0057550Y0078500D01*
X0060050Y0076000D01*
X0057550Y0073500D01*
X0057550Y0068500D01*
X0060050Y0066000D01*
X0057550Y0063500D01*
X0057550Y0058500D01*
X0060050Y0056000D01*
X0057550Y0053500D01*
X0057550Y0048500D01*
X0060050Y0046000D01*
X0057550Y0043500D01*
X0057550Y0038500D01*
X0060050Y0036000D01*
X0065050Y0036000D01*
X0067550Y0038500D01*
X0067550Y0043500D01*
X0070050Y0046000D01*
X0067550Y0048500D01*
X0067550Y0053500D01*
X0070050Y0056000D01*
X0067550Y0058500D01*
X0067550Y0063500D01*
X0070050Y0066000D01*
X0067550Y0068500D01*
X0067550Y0073500D01*
X0070050Y0076000D01*
X0067550Y0078500D01*
X0067550Y0083500D01*
X0070050Y0086000D01*
X0067550Y0088500D01*
X0067550Y0093500D01*
X0070050Y0096000D01*
X0067550Y0098500D01*
X0067550Y0103500D01*
X0070050Y0106000D01*
X0067550Y0108500D01*
X0067550Y0113500D01*
X0070050Y0116000D01*
X0067550Y0118500D01*
X0067550Y0123500D01*
X0070050Y0126000D01*
X0067550Y0128500D01*
X0067550Y0133500D01*
X0070050Y0136000D01*
X0067550Y0138500D01*
X0067550Y0143500D01*
X0070050Y0146000D01*
X0067550Y0148500D01*
X0067550Y0153500D01*
X0070050Y0156000D01*
X0067550Y0158500D01*
X0067550Y0163500D01*
X0070050Y0166000D01*
X0067550Y0168500D01*
X0067550Y0173500D01*
X0070050Y0176000D01*
X0067550Y0178500D01*
X0067550Y0183500D01*
X0070050Y0186000D01*
X0075050Y0186000D01*
X0077550Y0183500D01*
X0077550Y0178500D01*
X0080050Y0176000D01*
X0077550Y0173500D01*
X0077550Y0168500D01*
X0080050Y0166000D01*
X0077550Y0163500D01*
X0077550Y0158500D01*
X0080050Y0156000D01*
X0077550Y0153500D01*
X0077550Y0148500D01*
X0080050Y0146000D01*
X0077550Y0143500D01*
X0077550Y0138500D01*
X0080050Y0136000D01*
X0077550Y0133500D01*
X0077550Y0128500D01*
X0080050Y0126000D01*
X0077550Y0123500D01*
X0077550Y0118500D01*
X0080050Y0116000D01*
X0077550Y0113500D01*
X0077550Y0108500D01*
X0080050Y0106000D01*
X0077550Y0103500D01*
X0077550Y0098500D01*
X0080050Y0096000D01*
X0077550Y0093500D01*
X0077550Y0088500D01*
X0080050Y0086000D01*
X0077550Y0083500D01*
X0077550Y0078500D01*
X0080050Y0076000D01*
X0077550Y0073500D01*
X0077550Y0068500D01*
X0080050Y0066000D01*
X0077550Y0063500D01*
X0077550Y0058500D01*
X0080050Y0056000D01*
X0077550Y0053500D01*
X0077550Y0048500D01*
X0080050Y0046000D01*
X0077550Y0043500D01*
X0077550Y0038500D01*
X0080050Y0036000D01*
X0085050Y0036000D01*
X0087550Y0038500D01*
X0087550Y0043500D01*
X0090050Y0046000D01*
X0087550Y0048500D01*
X0087550Y0053500D01*
X0090050Y0056000D01*
X0087550Y0058500D01*
X0087550Y0063500D01*
X0090050Y0066000D01*
X0087550Y0068500D01*
X0087550Y0073500D01*
X0090050Y0076000D01*
X0087550Y0078500D01*
X0087550Y0083500D01*
X0090050Y0086000D01*
X0087550Y0088500D01*
X0087550Y0093500D01*
X0090050Y0096000D01*
X0087550Y0098500D01*
X0087550Y0103500D01*
X0090050Y0106000D01*
X0087550Y0108500D01*
X0087550Y0113500D01*
X0090050Y0116000D01*
X0087550Y0118500D01*
X0087550Y0123500D01*
X0090050Y0126000D01*
X0087550Y0128500D01*
X0087550Y0133500D01*
X0090050Y0136000D01*
X0087550Y0138500D01*
X0087550Y0143500D01*
X0090050Y0146000D01*
X0087550Y0148500D01*
X0087550Y0153500D01*
X0090050Y0156000D01*
X0087550Y0158500D01*
X0087550Y0163500D01*
X0090050Y0166000D01*
X0087550Y0168500D01*
X0087550Y0173500D01*
X0090050Y0176000D01*
X0087550Y0178500D01*
X0087550Y0183500D01*
X0090050Y0186000D01*
X0095050Y0186000D01*
X0097550Y0183500D01*
X0097550Y0178500D01*
X0095050Y0176000D01*
X0097550Y0173500D01*
X0097550Y0168500D01*
X0095050Y0166000D01*
X0097550Y0163500D01*
X0097550Y0158500D01*
X0095050Y0156000D01*
X0097550Y0153500D01*
X0097550Y0148500D01*
X0095050Y0146000D01*
X0097550Y0143500D01*
X0097550Y0138500D01*
X0095050Y0136000D01*
X0097550Y0133500D01*
X0097550Y0128500D01*
X0095050Y0126000D01*
X0097550Y0123500D01*
X0097550Y0118500D01*
X0095050Y0116000D01*
X0097550Y0113500D01*
X0097550Y0108500D01*
X0095050Y0106000D01*
X0097550Y0103500D01*
X0097550Y0098500D01*
X0095050Y0096000D01*
X0097550Y0093500D01*
X0097550Y0088500D01*
X0095050Y0086000D01*
X0097550Y0083500D01*
X0097550Y0078500D01*
X0095050Y0076000D01*
X0097550Y0073500D01*
X0097550Y0068500D01*
X0095050Y0066000D01*
X0097550Y0063500D01*
X0097550Y0058500D01*
X0095050Y0056000D01*
X0097550Y0053500D01*
X0097550Y0048500D01*
X0095050Y0046000D01*
X0097550Y0043500D01*
X0097550Y0038500D01*
X0095050Y0036000D01*
X0090050Y0036000D01*
X0087550Y0038500D01*
X0087550Y0043500D01*
X0085050Y0046000D01*
X0087550Y0048500D01*
X0087550Y0053500D01*
X0085050Y0056000D01*
X0087550Y0058500D01*
X0087550Y0063500D01*
X0085050Y0066000D01*
X0087550Y0068500D01*
X0087550Y0073500D01*
X0085050Y0076000D01*
X0087550Y0078500D01*
X0087550Y0083500D01*
X0085050Y0086000D01*
X0087550Y0088500D01*
X0087550Y0093500D01*
X0085050Y0096000D01*
X0087550Y0098500D01*
X0087550Y0103500D01*
X0085050Y0106000D01*
X0087550Y0108500D01*
X0087550Y0113500D01*
X0085050Y0116000D01*
X0087550Y0118500D01*
X0087550Y0123500D01*
X0085050Y0126000D01*
X0087550Y0128500D01*
X0087550Y0133500D01*
X0085050Y0136000D01*
X0087550Y0138500D01*
X0087550Y0143500D01*
X0085050Y0146000D01*
X0087550Y0148500D01*
X0087550Y0153500D01*
X0085050Y0156000D01*
X0087550Y0158500D01*
X0087550Y0163500D01*
X0085050Y0166000D01*
X0087550Y0168500D01*
X0087550Y0173500D01*
X0085050Y0176000D01*
X0087550Y0178500D01*
X0087550Y0183500D01*
X0085050Y0186000D01*
X0080050Y0186000D01*
X0077550Y0183500D01*
X0077550Y0178500D01*
X0075050Y0176000D01*
X0077550Y0173500D01*
X0077550Y0168500D01*
X0075050Y0166000D01*
X0077550Y0163500D01*
X0077550Y0158500D01*
X0075050Y0156000D01*
X0077550Y0153500D01*
X0077550Y0148500D01*
X0075050Y0146000D01*
X0077550Y0143500D01*
X0077550Y0138500D01*
X0075050Y0136000D01*
X0077550Y0133500D01*
X0077550Y0128500D01*
X0075050Y0126000D01*
X0077550Y0123500D01*
X0077550Y0118500D01*
X0075050Y0116000D01*
X0077550Y0113500D01*
X0077550Y0108500D01*
X0075050Y0106000D01*
X0077550Y0103500D01*
X0077550Y0098500D01*
X0075050Y0096000D01*
X0077550Y0093500D01*
X0077550Y0088500D01*
X0075050Y0086000D01*
X0077550Y0083500D01*
X0077550Y0078500D01*
X0075050Y0076000D01*
X0077550Y0073500D01*
X0077550Y0068500D01*
X0075050Y0066000D01*
X0077550Y0063500D01*
X0077550Y0058500D01*
X0075050Y0056000D01*
X0077550Y0053500D01*
X0077550Y0048500D01*
X0075050Y0046000D01*
X0077550Y0043500D01*
X0077550Y0038500D01*
X0075050Y0036000D01*
X0070050Y0036000D01*
X0067550Y0038500D01*
X0067550Y0043500D01*
X0065050Y0046000D01*
X0067550Y0048500D01*
X0067550Y0053500D01*
X0065050Y0056000D01*
X0067550Y0058500D01*
X0067550Y0063500D01*
X0065050Y0066000D01*
X0067550Y0068500D01*
X0067550Y0073500D01*
X0065050Y0076000D01*
X0067550Y0078500D01*
X0067550Y0083500D01*
X0065050Y0086000D01*
X0067550Y0088500D01*
X0067550Y0093500D01*
X0065050Y0096000D01*
X0067550Y0098500D01*
X0067550Y0103500D01*
X0065050Y0106000D01*
X0067550Y0108500D01*
X0067550Y0113500D01*
X0065050Y0116000D01*
X0067550Y0118500D01*
X0067550Y0123500D01*
X0065050Y0126000D01*
X0067550Y0128500D01*
X0067550Y0133500D01*
X0065050Y0136000D01*
X0067550Y0138500D01*
X0067550Y0143500D01*
X0065050Y0146000D01*
X0067550Y0148500D01*
X0067550Y0153500D01*
X0065050Y0156000D01*
X0067550Y0158500D01*
X0067550Y0163500D01*
X0065050Y0166000D01*
X0067550Y0168500D01*
X0067550Y0173500D01*
X0065050Y0176000D01*
X0067550Y0178500D01*
X0067550Y0183500D01*
X0065050Y0186000D01*
X0060050Y0186000D01*
X0057550Y0183500D01*
X0057550Y0178500D01*
X0055050Y0176000D01*
X0057550Y0173500D01*
X0057550Y0168500D01*
X0055050Y0166000D01*
X0057550Y0163500D01*
X0057550Y0158500D01*
X0055050Y0156000D01*
X0057550Y0153500D01*
X0057550Y0148500D01*
X0055050Y0146000D01*
X0057550Y0143500D01*
X0057550Y0138500D01*
X0055050Y0136000D01*
X0057550Y0133500D01*
X0057550Y0128500D01*
X0055050Y0126000D01*
X0057550Y0123500D01*
X0057550Y0118500D01*
X0055050Y0116000D01*
X0057550Y0113500D01*
X0057550Y0108500D01*
X0055050Y0106000D01*
X0057550Y0103500D01*
X0057550Y0098500D01*
X0055050Y0096000D01*
X0057550Y0093500D01*
X0057550Y0088500D01*
X0055050Y0086000D01*
X0057550Y0083500D01*
X0057550Y0078500D01*
X0055050Y0076000D01*
X0057550Y0073500D01*
X0057550Y0068500D01*
X0055050Y0066000D01*
X0057550Y0063500D01*
X0057550Y0058500D01*
X0055050Y0056000D01*
X0057550Y0053500D01*
X0057550Y0048500D01*
X0055050Y0046000D01*
X0057550Y0043500D01*
X0057550Y0038500D01*
X0055050Y0036000D01*
X0050050Y0036000D01*
X0047550Y0038500D01*
X0127550Y0038500D02*
X0127550Y0043500D01*
X0130050Y0046000D01*
X0127550Y0048500D01*
X0127550Y0053500D01*
X0130050Y0056000D01*
X0127550Y0058500D01*
X0127550Y0063500D01*
X0130050Y0066000D01*
X0127550Y0068500D01*
X0127550Y0073500D01*
X0130050Y0076000D01*
X0127550Y0078500D01*
X0127550Y0083500D01*
X0130050Y0086000D01*
X0127550Y0088500D01*
X0127550Y0093500D01*
X0130050Y0096000D01*
X0127550Y0098500D01*
X0127550Y0103500D01*
X0130050Y0106000D01*
X0127550Y0108500D01*
X0127550Y0113500D01*
X0130050Y0116000D01*
X0127550Y0118500D01*
X0127550Y0123500D01*
X0130050Y0126000D01*
X0127550Y0128500D01*
X0127550Y0133500D01*
X0130050Y0136000D01*
X0127550Y0138500D01*
X0127550Y0143500D01*
X0130050Y0146000D01*
X0127550Y0148500D01*
X0127550Y0153500D01*
X0130050Y0156000D01*
X0127550Y0158500D01*
X0127550Y0163500D01*
X0130050Y0166000D01*
X0127550Y0168500D01*
X0127550Y0173500D01*
X0130050Y0176000D01*
X0127550Y0178500D01*
X0127550Y0183500D01*
X0130050Y0186000D01*
X0135050Y0186000D01*
X0137550Y0183500D01*
X0137550Y0178500D01*
X0140050Y0176000D01*
X0137550Y0173500D01*
X0137550Y0168500D01*
X0140050Y0166000D01*
X0137550Y0163500D01*
X0137550Y0158500D01*
X0140050Y0156000D01*
X0137550Y0153500D01*
X0137550Y0148500D01*
X0140050Y0146000D01*
X0137550Y0143500D01*
X0137550Y0138500D01*
X0140050Y0136000D01*
X0137550Y0133500D01*
X0137550Y0128500D01*
X0140050Y0126000D01*
X0137550Y0123500D01*
X0137550Y0118500D01*
X0140050Y0116000D01*
X0137550Y0113500D01*
X0137550Y0108500D01*
X0140050Y0106000D01*
X0137550Y0103500D01*
X0137550Y0098500D01*
X0140050Y0096000D01*
X0137550Y0093500D01*
X0137550Y0088500D01*
X0140050Y0086000D01*
X0137550Y0083500D01*
X0137550Y0078500D01*
X0140050Y0076000D01*
X0137550Y0073500D01*
X0137550Y0068500D01*
X0140050Y0066000D01*
X0137550Y0063500D01*
X0137550Y0058500D01*
X0140050Y0056000D01*
X0137550Y0053500D01*
X0137550Y0048500D01*
X0140050Y0046000D01*
X0137550Y0043500D01*
X0137550Y0038500D01*
X0140050Y0036000D01*
X0145050Y0036000D01*
X0147550Y0038500D01*
X0147550Y0043500D01*
X0150050Y0046000D01*
X0147550Y0048500D01*
X0147550Y0053500D01*
X0150050Y0056000D01*
X0147550Y0058500D01*
X0147550Y0063500D01*
X0150050Y0066000D01*
X0147550Y0068500D01*
X0147550Y0073500D01*
X0150050Y0076000D01*
X0147550Y0078500D01*
X0147550Y0083500D01*
X0150050Y0086000D01*
X0147550Y0088500D01*
X0147550Y0093500D01*
X0150050Y0096000D01*
X0147550Y0098500D01*
X0147550Y0103500D01*
X0150050Y0106000D01*
X0147550Y0108500D01*
X0147550Y0113500D01*
X0150050Y0116000D01*
X0147550Y0118500D01*
X0147550Y0123500D01*
X0150050Y0126000D01*
X0147550Y0128500D01*
X0147550Y0133500D01*
X0150050Y0136000D01*
X0147550Y0138500D01*
X0147550Y0143500D01*
X0150050Y0146000D01*
X0147550Y0148500D01*
X0147550Y0153500D01*
X0150050Y0156000D01*
X0147550Y0158500D01*
X0147550Y0163500D01*
X0150050Y0166000D01*
X0147550Y0168500D01*
X0147550Y0173500D01*
X0150050Y0176000D01*
X0147550Y0178500D01*
X0147550Y0183500D01*
X0150050Y0186000D01*
X0155050Y0186000D01*
X0157550Y0183500D01*
X0157550Y0178500D01*
X0160050Y0176000D01*
X0157550Y0173500D01*
X0157550Y0168500D01*
X0160050Y0166000D01*
X0157550Y0163500D01*
X0157550Y0158500D01*
X0160050Y0156000D01*
X0157550Y0153500D01*
X0157550Y0148500D01*
X0160050Y0146000D01*
X0157550Y0143500D01*
X0157550Y0138500D01*
X0160050Y0136000D01*
X0157550Y0133500D01*
X0157550Y0128500D01*
X0160050Y0126000D01*
X0157550Y0123500D01*
X0157550Y0118500D01*
X0160050Y0116000D01*
X0157550Y0113500D01*
X0157550Y0108500D01*
X0160050Y0106000D01*
X0157550Y0103500D01*
X0157550Y0098500D01*
X0160050Y0096000D01*
X0157550Y0093500D01*
X0157550Y0088500D01*
X0160050Y0086000D01*
X0157550Y0083500D01*
X0157550Y0078500D01*
X0160050Y0076000D01*
X0157550Y0073500D01*
X0157550Y0068500D01*
X0160050Y0066000D01*
X0157550Y0063500D01*
X0157550Y0058500D01*
X0160050Y0056000D01*
X0157550Y0053500D01*
X0157550Y0048500D01*
X0160050Y0046000D01*
X0157550Y0043500D01*
X0157550Y0038500D01*
X0160050Y0036000D01*
X0165050Y0036000D01*
X0167550Y0038500D01*
X0167550Y0043500D01*
X0170050Y0046000D01*
X0167550Y0048500D01*
X0167550Y0053500D01*
X0170050Y0056000D01*
X0167550Y0058500D01*
X0167550Y0063500D01*
X0170050Y0066000D01*
X0167550Y0068500D01*
X0167550Y0073500D01*
X0170050Y0076000D01*
X0167550Y0078500D01*
X0167550Y0083500D01*
X0170050Y0086000D01*
X0167550Y0088500D01*
X0167550Y0093500D01*
X0170050Y0096000D01*
X0167550Y0098500D01*
X0167550Y0103500D01*
X0170050Y0106000D01*
X0167550Y0108500D01*
X0167550Y0113500D01*
X0170050Y0116000D01*
X0167550Y0118500D01*
X0167550Y0123500D01*
X0170050Y0126000D01*
X0167550Y0128500D01*
X0167550Y0133500D01*
X0170050Y0136000D01*
X0167550Y0138500D01*
X0167550Y0143500D01*
X0170050Y0146000D01*
X0167550Y0148500D01*
X0167550Y0153500D01*
X0170050Y0156000D01*
X0167550Y0158500D01*
X0167550Y0163500D01*
X0170050Y0166000D01*
X0167550Y0168500D01*
X0167550Y0173500D01*
X0170050Y0176000D01*
X0167550Y0178500D01*
X0167550Y0183500D01*
X0170050Y0186000D01*
X0175050Y0186000D01*
X0177550Y0183500D01*
X0177550Y0178500D01*
X0175050Y0176000D01*
X0177550Y0173500D01*
X0177550Y0168500D01*
X0175050Y0166000D01*
X0177550Y0163500D01*
X0177550Y0158500D01*
X0175050Y0156000D01*
X0177550Y0153500D01*
X0177550Y0148500D01*
X0175050Y0146000D01*
X0177550Y0143500D01*
X0177550Y0138500D01*
X0175050Y0136000D01*
X0177550Y0133500D01*
X0177550Y0128500D01*
X0175050Y0126000D01*
X0177550Y0123500D01*
X0177550Y0118500D01*
X0175050Y0116000D01*
X0177550Y0113500D01*
X0177550Y0108500D01*
X0175050Y0106000D01*
X0177550Y0103500D01*
X0177550Y0098500D01*
X0175050Y0096000D01*
X0177550Y0093500D01*
X0177550Y0088500D01*
X0175050Y0086000D01*
X0177550Y0083500D01*
X0177550Y0078500D01*
X0175050Y0076000D01*
X0177550Y0073500D01*
X0177550Y0068500D01*
X0175050Y0066000D01*
X0177550Y0063500D01*
X0177550Y0058500D01*
X0175050Y0056000D01*
X0177550Y0053500D01*
X0177550Y0048500D01*
X0175050Y0046000D01*
X0177550Y0043500D01*
X0177550Y0038500D01*
X0175050Y0036000D01*
X0170050Y0036000D01*
X0167550Y0038500D01*
X0167550Y0043500D01*
X0165050Y0046000D01*
X0167550Y0048500D01*
X0167550Y0053500D01*
X0165050Y0056000D01*
X0167550Y0058500D01*
X0167550Y0063500D01*
X0165050Y0066000D01*
X0167550Y0068500D01*
X0167550Y0073500D01*
X0165050Y0076000D01*
X0167550Y0078500D01*
X0167550Y0083500D01*
X0165050Y0086000D01*
X0167550Y0088500D01*
X0167550Y0093500D01*
X0165050Y0096000D01*
X0167550Y0098500D01*
X0167550Y0103500D01*
X0165050Y0106000D01*
X0167550Y0108500D01*
X0167550Y0113500D01*
X0165050Y0116000D01*
X0167550Y0118500D01*
X0167550Y0123500D01*
X0165050Y0126000D01*
X0167550Y0128500D01*
X0167550Y0133500D01*
X0165050Y0136000D01*
X0167550Y0138500D01*
X0167550Y0143500D01*
X0165050Y0146000D01*
X0167550Y0148500D01*
X0167550Y0153500D01*
X0165050Y0156000D01*
X0167550Y0158500D01*
X0167550Y0163500D01*
X0165050Y0166000D01*
X0167550Y0168500D01*
X0167550Y0173500D01*
X0165050Y0176000D01*
X0167550Y0178500D01*
X0167550Y0183500D01*
X0165050Y0186000D01*
X0160050Y0186000D01*
X0157550Y0183500D01*
X0157550Y0178500D01*
X0155050Y0176000D01*
X0157550Y0173500D01*
X0157550Y0168500D01*
X0155050Y0166000D01*
X0157550Y0163500D01*
X0157550Y0158500D01*
X0155050Y0156000D01*
X0157550Y0153500D01*
X0157550Y0148500D01*
X0155050Y0146000D01*
X0157550Y0143500D01*
X0157550Y0138500D01*
X0155050Y0136000D01*
X0157550Y0133500D01*
X0157550Y0128500D01*
X0155050Y0126000D01*
X0157550Y0123500D01*
X0157550Y0118500D01*
X0155050Y0116000D01*
X0157550Y0113500D01*
X0157550Y0108500D01*
X0155050Y0106000D01*
X0157550Y0103500D01*
X0157550Y0098500D01*
X0155050Y0096000D01*
X0157550Y0093500D01*
X0157550Y0088500D01*
X0155050Y0086000D01*
X0157550Y0083500D01*
X0157550Y0078500D01*
X0155050Y0076000D01*
X0157550Y0073500D01*
X0157550Y0068500D01*
X0155050Y0066000D01*
X0157550Y0063500D01*
X0157550Y0058500D01*
X0155050Y0056000D01*
X0157550Y0053500D01*
X0157550Y0048500D01*
X0155050Y0046000D01*
X0157550Y0043500D01*
X0157550Y0038500D01*
X0155050Y0036000D01*
X0150050Y0036000D01*
X0147550Y0038500D01*
X0147550Y0043500D01*
X0145050Y0046000D01*
X0147550Y0048500D01*
X0147550Y0053500D01*
X0145050Y0056000D01*
X0147550Y0058500D01*
X0147550Y0063500D01*
X0145050Y0066000D01*
X0147550Y0068500D01*
X0147550Y0073500D01*
X0145050Y0076000D01*
X0147550Y0078500D01*
X0147550Y0083500D01*
X0145050Y0086000D01*
X0147550Y0088500D01*
X0147550Y0093500D01*
X0145050Y0096000D01*
X0147550Y0098500D01*
X0147550Y0103500D01*
X0145050Y0106000D01*
X0147550Y0108500D01*
X0147550Y0113500D01*
X0145050Y0116000D01*
X0147550Y0118500D01*
X0147550Y0123500D01*
X0145050Y0126000D01*
X0147550Y0128500D01*
X0147550Y0133500D01*
X0145050Y0136000D01*
X0147550Y0138500D01*
X0147550Y0143500D01*
X0145050Y0146000D01*
X0147550Y0148500D01*
X0147550Y0153500D01*
X0145050Y0156000D01*
X0147550Y0158500D01*
X0147550Y0163500D01*
X0145050Y0166000D01*
X0147550Y0168500D01*
X0147550Y0173500D01*
X0145050Y0176000D01*
X0147550Y0178500D01*
X0147550Y0183500D01*
X0145050Y0186000D01*
X0140050Y0186000D01*
X0137550Y0183500D01*
X0137550Y0178500D01*
X0135050Y0176000D01*
X0137550Y0173500D01*
X0137550Y0168500D01*
X0135050Y0166000D01*
X0137550Y0163500D01*
X0137550Y0158500D01*
X0135050Y0156000D01*
X0137550Y0153500D01*
X0137550Y0148500D01*
X0135050Y0146000D01*
X0137550Y0143500D01*
X0137550Y0138500D01*
X0135050Y0136000D01*
X0137550Y0133500D01*
X0137550Y0128500D01*
X0135050Y0126000D01*
X0137550Y0123500D01*
X0137550Y0118500D01*
X0135050Y0116000D01*
X0137550Y0113500D01*
X0137550Y0108500D01*
X0135050Y0106000D01*
X0137550Y0103500D01*
X0137550Y0098500D01*
X0135050Y0096000D01*
X0137550Y0093500D01*
X0137550Y0088500D01*
X0135050Y0086000D01*
X0137550Y0083500D01*
X0137550Y0078500D01*
X0135050Y0076000D01*
X0137550Y0073500D01*
X0137550Y0068500D01*
X0135050Y0066000D01*
X0137550Y0063500D01*
X0137550Y0058500D01*
X0135050Y0056000D01*
X0137550Y0053500D01*
X0137550Y0048500D01*
X0135050Y0046000D01*
X0137550Y0043500D01*
X0137550Y0038500D01*
X0135050Y0036000D01*
X0130050Y0036000D01*
X0127550Y0038500D01*
X0130050Y0196000D02*
X0127550Y0198500D01*
X0127550Y0203500D01*
X0130050Y0206000D01*
X0127550Y0208500D01*
X0127550Y0213500D01*
X0130050Y0216000D01*
X0127550Y0218500D01*
X0127550Y0223500D01*
X0130050Y0226000D01*
X0127550Y0228500D01*
X0127550Y0233500D01*
X0130050Y0236000D01*
X0127550Y0238500D01*
X0127550Y0243500D01*
X0130050Y0246000D01*
X0127550Y0248500D01*
X0127550Y0253500D01*
X0130050Y0256000D01*
X0127550Y0258500D01*
X0127550Y0263500D01*
X0130050Y0266000D01*
X0127550Y0268500D01*
X0127550Y0273500D01*
X0130050Y0276000D01*
X0127550Y0278500D01*
X0127550Y0283500D01*
X0130050Y0286000D01*
X0127550Y0288500D01*
X0127550Y0293500D01*
X0130050Y0296000D01*
X0127550Y0298500D01*
X0127550Y0303500D01*
X0130050Y0306000D01*
X0127550Y0308500D01*
X0127550Y0313500D01*
X0130050Y0316000D01*
X0127550Y0318500D01*
X0127550Y0323500D01*
X0130050Y0326000D01*
X0127550Y0328500D01*
X0127550Y0333500D01*
X0130050Y0336000D01*
X0127550Y0338500D01*
X0127550Y0343500D01*
X0130050Y0346000D01*
X0135050Y0346000D01*
X0137550Y0343500D01*
X0137550Y0338500D01*
X0140050Y0336000D01*
X0137550Y0333500D01*
X0137550Y0328500D01*
X0140050Y0326000D01*
X0137550Y0323500D01*
X0137550Y0318500D01*
X0140050Y0316000D01*
X0137550Y0313500D01*
X0137550Y0308500D01*
X0140050Y0306000D01*
X0137550Y0303500D01*
X0137550Y0298500D01*
X0140050Y0296000D01*
X0137550Y0293500D01*
X0137550Y0288500D01*
X0140050Y0286000D01*
X0137550Y0283500D01*
X0137550Y0278500D01*
X0140050Y0276000D01*
X0137550Y0273500D01*
X0137550Y0268500D01*
X0140050Y0266000D01*
X0137550Y0263500D01*
X0137550Y0258500D01*
X0140050Y0256000D01*
X0137550Y0253500D01*
X0137550Y0248500D01*
X0140050Y0246000D01*
X0137550Y0243500D01*
X0137550Y0238500D01*
X0140050Y0236000D01*
X0137550Y0233500D01*
X0137550Y0228500D01*
X0140050Y0226000D01*
X0137550Y0223500D01*
X0137550Y0218500D01*
X0140050Y0216000D01*
X0137550Y0213500D01*
X0137550Y0208500D01*
X0140050Y0206000D01*
X0137550Y0203500D01*
X0137550Y0198500D01*
X0140050Y0196000D01*
X0145050Y0196000D01*
X0147550Y0198500D01*
X0147550Y0203500D01*
X0150050Y0206000D01*
X0147550Y0208500D01*
X0147550Y0213500D01*
X0150050Y0216000D01*
X0147550Y0218500D01*
X0147550Y0223500D01*
X0150050Y0226000D01*
X0147550Y0228500D01*
X0147550Y0233500D01*
X0150050Y0236000D01*
X0147550Y0238500D01*
X0147550Y0243500D01*
X0150050Y0246000D01*
X0147550Y0248500D01*
X0147550Y0253500D01*
X0150050Y0256000D01*
X0147550Y0258500D01*
X0147550Y0263500D01*
X0150050Y0266000D01*
X0147550Y0268500D01*
X0147550Y0273500D01*
X0150050Y0276000D01*
X0147550Y0278500D01*
X0147550Y0283500D01*
X0150050Y0286000D01*
X0147550Y0288500D01*
X0147550Y0293500D01*
X0150050Y0296000D01*
X0147550Y0298500D01*
X0147550Y0303500D01*
X0150050Y0306000D01*
X0147550Y0308500D01*
X0147550Y0313500D01*
X0150050Y0316000D01*
X0147550Y0318500D01*
X0147550Y0323500D01*
X0150050Y0326000D01*
X0147550Y0328500D01*
X0147550Y0333500D01*
X0150050Y0336000D01*
X0147550Y0338500D01*
X0147550Y0343500D01*
X0150050Y0346000D01*
X0155050Y0346000D01*
X0157550Y0343500D01*
X0157550Y0338500D01*
X0160050Y0336000D01*
X0157550Y0333500D01*
X0157550Y0328500D01*
X0160050Y0326000D01*
X0157550Y0323500D01*
X0157550Y0318500D01*
X0160050Y0316000D01*
X0157550Y0313500D01*
X0157550Y0308500D01*
X0160050Y0306000D01*
X0157550Y0303500D01*
X0157550Y0298500D01*
X0160050Y0296000D01*
X0157550Y0293500D01*
X0157550Y0288500D01*
X0160050Y0286000D01*
X0157550Y0283500D01*
X0157550Y0278500D01*
X0160050Y0276000D01*
X0157550Y0273500D01*
X0157550Y0268500D01*
X0160050Y0266000D01*
X0157550Y0263500D01*
X0157550Y0258500D01*
X0160050Y0256000D01*
X0157550Y0253500D01*
X0157550Y0248500D01*
X0160050Y0246000D01*
X0157550Y0243500D01*
X0157550Y0238500D01*
X0160050Y0236000D01*
X0157550Y0233500D01*
X0157550Y0228500D01*
X0160050Y0226000D01*
X0157550Y0223500D01*
X0157550Y0218500D01*
X0160050Y0216000D01*
X0157550Y0213500D01*
X0157550Y0208500D01*
X0160050Y0206000D01*
X0157550Y0203500D01*
X0157550Y0198500D01*
X0160050Y0196000D01*
X0165050Y0196000D01*
X0167550Y0198500D01*
X0167550Y0203500D01*
X0170050Y0206000D01*
X0167550Y0208500D01*
X0167550Y0213500D01*
X0170050Y0216000D01*
X0167550Y0218500D01*
X0167550Y0223500D01*
X0170050Y0226000D01*
X0167550Y0228500D01*
X0167550Y0233500D01*
X0170050Y0236000D01*
X0167550Y0238500D01*
X0167550Y0243500D01*
X0170050Y0246000D01*
X0167550Y0248500D01*
X0167550Y0253500D01*
X0170050Y0256000D01*
X0167550Y0258500D01*
X0167550Y0263500D01*
X0170050Y0266000D01*
X0167550Y0268500D01*
X0167550Y0273500D01*
X0170050Y0276000D01*
X0167550Y0278500D01*
X0167550Y0283500D01*
X0170050Y0286000D01*
X0167550Y0288500D01*
X0167550Y0293500D01*
X0170050Y0296000D01*
X0167550Y0298500D01*
X0167550Y0303500D01*
X0170050Y0306000D01*
X0167550Y0308500D01*
X0167550Y0313500D01*
X0170050Y0316000D01*
X0167550Y0318500D01*
X0167550Y0323500D01*
X0170050Y0326000D01*
X0167550Y0328500D01*
X0167550Y0333500D01*
X0170050Y0336000D01*
X0167550Y0338500D01*
X0167550Y0343500D01*
X0170050Y0346000D01*
X0175050Y0346000D01*
X0177550Y0343500D01*
X0177550Y0338500D01*
X0175050Y0336000D01*
X0177550Y0333500D01*
X0177550Y0328500D01*
X0175050Y0326000D01*
X0177550Y0323500D01*
X0177550Y0318500D01*
X0175050Y0316000D01*
X0177550Y0313500D01*
X0177550Y0308500D01*
X0175050Y0306000D01*
X0177550Y0303500D01*
X0177550Y0298500D01*
X0175050Y0296000D01*
X0177550Y0293500D01*
X0177550Y0288500D01*
X0175050Y0286000D01*
X0177550Y0283500D01*
X0177550Y0278500D01*
X0175050Y0276000D01*
X0177550Y0273500D01*
X0177550Y0268500D01*
X0175050Y0266000D01*
X0177550Y0263500D01*
X0177550Y0258500D01*
X0175050Y0256000D01*
X0177550Y0253500D01*
X0177550Y0248500D01*
X0175050Y0246000D01*
X0177550Y0243500D01*
X0177550Y0238500D01*
X0175050Y0236000D01*
X0177550Y0233500D01*
X0177550Y0228500D01*
X0175050Y0226000D01*
X0177550Y0223500D01*
X0177550Y0218500D01*
X0175050Y0216000D01*
X0177550Y0213500D01*
X0177550Y0208500D01*
X0175050Y0206000D01*
X0177550Y0203500D01*
X0177550Y0198500D01*
X0175050Y0196000D01*
X0170050Y0196000D01*
X0167550Y0198500D01*
X0167550Y0203500D01*
X0165050Y0206000D01*
X0167550Y0208500D01*
X0167550Y0213500D01*
X0165050Y0216000D01*
X0167550Y0218500D01*
X0167550Y0223500D01*
X0165050Y0226000D01*
X0167550Y0228500D01*
X0167550Y0233500D01*
X0165050Y0236000D01*
X0167550Y0238500D01*
X0167550Y0243500D01*
X0165050Y0246000D01*
X0167550Y0248500D01*
X0167550Y0253500D01*
X0165050Y0256000D01*
X0167550Y0258500D01*
X0167550Y0263500D01*
X0165050Y0266000D01*
X0167550Y0268500D01*
X0167550Y0273500D01*
X0165050Y0276000D01*
X0167550Y0278500D01*
X0167550Y0283500D01*
X0165050Y0286000D01*
X0167550Y0288500D01*
X0167550Y0293500D01*
X0165050Y0296000D01*
X0167550Y0298500D01*
X0167550Y0303500D01*
X0165050Y0306000D01*
X0167550Y0308500D01*
X0167550Y0313500D01*
X0165050Y0316000D01*
X0167550Y0318500D01*
X0167550Y0323500D01*
X0165050Y0326000D01*
X0167550Y0328500D01*
X0167550Y0333500D01*
X0165050Y0336000D01*
X0167550Y0338500D01*
X0167550Y0343500D01*
X0165050Y0346000D01*
X0160050Y0346000D01*
X0157550Y0343500D01*
X0157550Y0338500D01*
X0155050Y0336000D01*
X0157550Y0333500D01*
X0157550Y0328500D01*
X0155050Y0326000D01*
X0157550Y0323500D01*
X0157550Y0318500D01*
X0155050Y0316000D01*
X0157550Y0313500D01*
X0157550Y0308500D01*
X0155050Y0306000D01*
X0157550Y0303500D01*
X0157550Y0298500D01*
X0155050Y0296000D01*
X0157550Y0293500D01*
X0157550Y0288500D01*
X0155050Y0286000D01*
X0157550Y0283500D01*
X0157550Y0278500D01*
X0155050Y0276000D01*
X0157550Y0273500D01*
X0157550Y0268500D01*
X0155050Y0266000D01*
X0157550Y0263500D01*
X0157550Y0258500D01*
X0155050Y0256000D01*
X0157550Y0253500D01*
X0157550Y0248500D01*
X0155050Y0246000D01*
X0157550Y0243500D01*
X0157550Y0238500D01*
X0155050Y0236000D01*
X0157550Y0233500D01*
X0157550Y0228500D01*
X0155050Y0226000D01*
X0157550Y0223500D01*
X0157550Y0218500D01*
X0155050Y0216000D01*
X0157550Y0213500D01*
X0157550Y0208500D01*
X0155050Y0206000D01*
X0157550Y0203500D01*
X0157550Y0198500D01*
X0155050Y0196000D01*
X0150050Y0196000D01*
X0147550Y0198500D01*
X0147550Y0203500D01*
X0145050Y0206000D01*
X0147550Y0208500D01*
X0147550Y0213500D01*
X0145050Y0216000D01*
X0147550Y0218500D01*
X0147550Y0223500D01*
X0145050Y0226000D01*
X0147550Y0228500D01*
X0147550Y0233500D01*
X0145050Y0236000D01*
X0147550Y0238500D01*
X0147550Y0243500D01*
X0145050Y0246000D01*
X0147550Y0248500D01*
X0147550Y0253500D01*
X0145050Y0256000D01*
X0147550Y0258500D01*
X0147550Y0263500D01*
X0145050Y0266000D01*
X0147550Y0268500D01*
X0147550Y0273500D01*
X0145050Y0276000D01*
X0147550Y0278500D01*
X0147550Y0283500D01*
X0145050Y0286000D01*
X0147550Y0288500D01*
X0147550Y0293500D01*
X0145050Y0296000D01*
X0147550Y0298500D01*
X0147550Y0303500D01*
X0145050Y0306000D01*
X0147550Y0308500D01*
X0147550Y0313500D01*
X0145050Y0316000D01*
X0147550Y0318500D01*
X0147550Y0323500D01*
X0145050Y0326000D01*
X0147550Y0328500D01*
X0147550Y0333500D01*
X0145050Y0336000D01*
X0147550Y0338500D01*
X0147550Y0343500D01*
X0145050Y0346000D01*
X0140050Y0346000D01*
X0137550Y0343500D01*
X0137550Y0338500D01*
X0135050Y0336000D01*
X0137550Y0333500D01*
X0137550Y0328500D01*
X0135050Y0326000D01*
X0137550Y0323500D01*
X0137550Y0318500D01*
X0135050Y0316000D01*
X0137550Y0313500D01*
X0137550Y0308500D01*
X0135050Y0306000D01*
X0137550Y0303500D01*
X0137550Y0298500D01*
X0135050Y0296000D01*
X0137550Y0293500D01*
X0137550Y0288500D01*
X0135050Y0286000D01*
X0137550Y0283500D01*
X0137550Y0278500D01*
X0135050Y0276000D01*
X0137550Y0273500D01*
X0137550Y0268500D01*
X0135050Y0266000D01*
X0137550Y0263500D01*
X0137550Y0258500D01*
X0135050Y0256000D01*
X0137550Y0253500D01*
X0137550Y0248500D01*
X0135050Y0246000D01*
X0137550Y0243500D01*
X0137550Y0238500D01*
X0135050Y0236000D01*
X0137550Y0233500D01*
X0137550Y0228500D01*
X0135050Y0226000D01*
X0137550Y0223500D01*
X0137550Y0218500D01*
X0135050Y0216000D01*
X0137550Y0213500D01*
X0137550Y0208500D01*
X0135050Y0206000D01*
X0137550Y0203500D01*
X0137550Y0198500D01*
X0135050Y0196000D01*
X0130050Y0196000D01*
X0097550Y0198500D02*
X0095050Y0196000D01*
X0090050Y0196000D01*
X0087550Y0198500D01*
X0087550Y0203500D01*
X0090050Y0206000D01*
X0087550Y0208500D01*
X0087550Y0213500D01*
X0090050Y0216000D01*
X0087550Y0218500D01*
X0087550Y0223500D01*
X0090050Y0226000D01*
X0087550Y0228500D01*
X0087550Y0233500D01*
X0090050Y0236000D01*
X0087550Y0238500D01*
X0087550Y0243500D01*
X0090050Y0246000D01*
X0087550Y0248500D01*
X0087550Y0253500D01*
X0090050Y0256000D01*
X0087550Y0258500D01*
X0087550Y0263500D01*
X0090050Y0266000D01*
X0087550Y0268500D01*
X0087550Y0273500D01*
X0090050Y0276000D01*
X0087550Y0278500D01*
X0087550Y0283500D01*
X0090050Y0286000D01*
X0087550Y0288500D01*
X0087550Y0293500D01*
X0090050Y0296000D01*
X0087550Y0298500D01*
X0087550Y0303500D01*
X0090050Y0306000D01*
X0087550Y0308500D01*
X0087550Y0313500D01*
X0090050Y0316000D01*
X0087550Y0318500D01*
X0087550Y0323500D01*
X0090050Y0326000D01*
X0087550Y0328500D01*
X0087550Y0333500D01*
X0090050Y0336000D01*
X0087550Y0338500D01*
X0087550Y0343500D01*
X0090050Y0346000D01*
X0095050Y0346000D01*
X0097550Y0343500D01*
X0097550Y0338500D01*
X0095050Y0336000D01*
X0097550Y0333500D01*
X0097550Y0328500D01*
X0095050Y0326000D01*
X0097550Y0323500D01*
X0097550Y0318500D01*
X0095050Y0316000D01*
X0097550Y0313500D01*
X0097550Y0308500D01*
X0095050Y0306000D01*
X0097550Y0303500D01*
X0097550Y0298500D01*
X0095050Y0296000D01*
X0097550Y0293500D01*
X0097550Y0288500D01*
X0095050Y0286000D01*
X0097550Y0283500D01*
X0097550Y0278500D01*
X0095050Y0276000D01*
X0097550Y0273500D01*
X0097550Y0268500D01*
X0095050Y0266000D01*
X0097550Y0263500D01*
X0097550Y0258500D01*
X0095050Y0256000D01*
X0097550Y0253500D01*
X0097550Y0248500D01*
X0095050Y0246000D01*
X0097550Y0243500D01*
X0097550Y0238500D01*
X0095050Y0236000D01*
X0097550Y0233500D01*
X0097550Y0228500D01*
X0095050Y0226000D01*
X0097550Y0223500D01*
X0097550Y0218500D01*
X0095050Y0216000D01*
X0097550Y0213500D01*
X0097550Y0208500D01*
X0095050Y0206000D01*
X0097550Y0203500D01*
X0097550Y0198500D01*
X0087550Y0198500D02*
X0085050Y0196000D01*
X0080050Y0196000D01*
X0077550Y0198500D01*
X0077550Y0203500D01*
X0080050Y0206000D01*
X0077550Y0208500D01*
X0077550Y0213500D01*
X0080050Y0216000D01*
X0077550Y0218500D01*
X0077550Y0223500D01*
X0080050Y0226000D01*
X0077550Y0228500D01*
X0077550Y0233500D01*
X0080050Y0236000D01*
X0077550Y0238500D01*
X0077550Y0243500D01*
X0080050Y0246000D01*
X0077550Y0248500D01*
X0077550Y0253500D01*
X0080050Y0256000D01*
X0077550Y0258500D01*
X0077550Y0263500D01*
X0080050Y0266000D01*
X0077550Y0268500D01*
X0077550Y0273500D01*
X0080050Y0276000D01*
X0077550Y0278500D01*
X0077550Y0283500D01*
X0080050Y0286000D01*
X0077550Y0288500D01*
X0077550Y0293500D01*
X0080050Y0296000D01*
X0077550Y0298500D01*
X0077550Y0303500D01*
X0080050Y0306000D01*
X0077550Y0308500D01*
X0077550Y0313500D01*
X0080050Y0316000D01*
X0077550Y0318500D01*
X0077550Y0323500D01*
X0080050Y0326000D01*
X0077550Y0328500D01*
X0077550Y0333500D01*
X0080050Y0336000D01*
X0077550Y0338500D01*
X0077550Y0343500D01*
X0080050Y0346000D01*
X0085050Y0346000D01*
X0087550Y0343500D01*
X0087550Y0338500D01*
X0085050Y0336000D01*
X0087550Y0333500D01*
X0087550Y0328500D01*
X0085050Y0326000D01*
X0087550Y0323500D01*
X0087550Y0318500D01*
X0085050Y0316000D01*
X0087550Y0313500D01*
X0087550Y0308500D01*
X0085050Y0306000D01*
X0087550Y0303500D01*
X0087550Y0298500D01*
X0085050Y0296000D01*
X0087550Y0293500D01*
X0087550Y0288500D01*
X0085050Y0286000D01*
X0087550Y0283500D01*
X0087550Y0278500D01*
X0085050Y0276000D01*
X0087550Y0273500D01*
X0087550Y0268500D01*
X0085050Y0266000D01*
X0087550Y0263500D01*
X0087550Y0258500D01*
X0085050Y0256000D01*
X0087550Y0253500D01*
X0087550Y0248500D01*
X0085050Y0246000D01*
X0087550Y0243500D01*
X0087550Y0238500D01*
X0085050Y0236000D01*
X0087550Y0233500D01*
X0087550Y0228500D01*
X0085050Y0226000D01*
X0087550Y0223500D01*
X0087550Y0218500D01*
X0085050Y0216000D01*
X0087550Y0213500D01*
X0087550Y0208500D01*
X0085050Y0206000D01*
X0087550Y0203500D01*
X0087550Y0198500D01*
X0077550Y0198500D02*
X0075050Y0196000D01*
X0070050Y0196000D01*
X0067550Y0198500D01*
X0067550Y0203500D01*
X0070050Y0206000D01*
X0067550Y0208500D01*
X0067550Y0213500D01*
X0070050Y0216000D01*
X0067550Y0218500D01*
X0067550Y0223500D01*
X0070050Y0226000D01*
X0067550Y0228500D01*
X0067550Y0233500D01*
X0070050Y0236000D01*
X0067550Y0238500D01*
X0067550Y0243500D01*
X0070050Y0246000D01*
X0067550Y0248500D01*
X0067550Y0253500D01*
X0070050Y0256000D01*
X0067550Y0258500D01*
X0067550Y0263500D01*
X0070050Y0266000D01*
X0067550Y0268500D01*
X0067550Y0273500D01*
X0070050Y0276000D01*
X0067550Y0278500D01*
X0067550Y0283500D01*
X0070050Y0286000D01*
X0067550Y0288500D01*
X0067550Y0293500D01*
X0070050Y0296000D01*
X0067550Y0298500D01*
X0067550Y0303500D01*
X0070050Y0306000D01*
X0067550Y0308500D01*
X0067550Y0313500D01*
X0070050Y0316000D01*
X0067550Y0318500D01*
X0067550Y0323500D01*
X0070050Y0326000D01*
X0067550Y0328500D01*
X0067550Y0333500D01*
X0070050Y0336000D01*
X0067550Y0338500D01*
X0067550Y0343500D01*
X0070050Y0346000D01*
X0075050Y0346000D01*
X0077550Y0343500D01*
X0077550Y0338500D01*
X0075050Y0336000D01*
X0077550Y0333500D01*
X0077550Y0328500D01*
X0075050Y0326000D01*
X0077550Y0323500D01*
X0077550Y0318500D01*
X0075050Y0316000D01*
X0077550Y0313500D01*
X0077550Y0308500D01*
X0075050Y0306000D01*
X0077550Y0303500D01*
X0077550Y0298500D01*
X0075050Y0296000D01*
X0077550Y0293500D01*
X0077550Y0288500D01*
X0075050Y0286000D01*
X0077550Y0283500D01*
X0077550Y0278500D01*
X0075050Y0276000D01*
X0077550Y0273500D01*
X0077550Y0268500D01*
X0075050Y0266000D01*
X0077550Y0263500D01*
X0077550Y0258500D01*
X0075050Y0256000D01*
X0077550Y0253500D01*
X0077550Y0248500D01*
X0075050Y0246000D01*
X0077550Y0243500D01*
X0077550Y0238500D01*
X0075050Y0236000D01*
X0077550Y0233500D01*
X0077550Y0228500D01*
X0075050Y0226000D01*
X0077550Y0223500D01*
X0077550Y0218500D01*
X0075050Y0216000D01*
X0077550Y0213500D01*
X0077550Y0208500D01*
X0075050Y0206000D01*
X0077550Y0203500D01*
X0077550Y0198500D01*
X0067550Y0198500D02*
X0065050Y0196000D01*
X0060050Y0196000D01*
X0057550Y0198500D01*
X0057550Y0203500D01*
X0060050Y0206000D01*
X0057550Y0208500D01*
X0057550Y0213500D01*
X0060050Y0216000D01*
X0057550Y0218500D01*
X0057550Y0223500D01*
X0060050Y0226000D01*
X0057550Y0228500D01*
X0057550Y0233500D01*
X0060050Y0236000D01*
X0057550Y0238500D01*
X0057550Y0243500D01*
X0060050Y0246000D01*
X0057550Y0248500D01*
X0057550Y0253500D01*
X0060050Y0256000D01*
X0057550Y0258500D01*
X0057550Y0263500D01*
X0060050Y0266000D01*
X0057550Y0268500D01*
X0057550Y0273500D01*
X0060050Y0276000D01*
X0057550Y0278500D01*
X0057550Y0283500D01*
X0060050Y0286000D01*
X0057550Y0288500D01*
X0057550Y0293500D01*
X0060050Y0296000D01*
X0057550Y0298500D01*
X0057550Y0303500D01*
X0060050Y0306000D01*
X0057550Y0308500D01*
X0057550Y0313500D01*
X0060050Y0316000D01*
X0057550Y0318500D01*
X0057550Y0323500D01*
X0060050Y0326000D01*
X0057550Y0328500D01*
X0057550Y0333500D01*
X0060050Y0336000D01*
X0057550Y0338500D01*
X0057550Y0343500D01*
X0060050Y0346000D01*
X0065050Y0346000D01*
X0067550Y0343500D01*
X0067550Y0338500D01*
X0065050Y0336000D01*
X0067550Y0333500D01*
X0067550Y0328500D01*
X0065050Y0326000D01*
X0067550Y0323500D01*
X0067550Y0318500D01*
X0065050Y0316000D01*
X0067550Y0313500D01*
X0067550Y0308500D01*
X0065050Y0306000D01*
X0067550Y0303500D01*
X0067550Y0298500D01*
X0065050Y0296000D01*
X0067550Y0293500D01*
X0067550Y0288500D01*
X0065050Y0286000D01*
X0067550Y0283500D01*
X0067550Y0278500D01*
X0065050Y0276000D01*
X0067550Y0273500D01*
X0067550Y0268500D01*
X0065050Y0266000D01*
X0067550Y0263500D01*
X0067550Y0258500D01*
X0065050Y0256000D01*
X0067550Y0253500D01*
X0067550Y0248500D01*
X0065050Y0246000D01*
X0067550Y0243500D01*
X0067550Y0238500D01*
X0065050Y0236000D01*
X0067550Y0233500D01*
X0067550Y0228500D01*
X0065050Y0226000D01*
X0067550Y0223500D01*
X0067550Y0218500D01*
X0065050Y0216000D01*
X0067550Y0213500D01*
X0067550Y0208500D01*
X0065050Y0206000D01*
X0067550Y0203500D01*
X0067550Y0198500D01*
X0057550Y0198500D02*
X0055050Y0196000D01*
X0050050Y0196000D01*
X0047550Y0198500D01*
X0047550Y0203500D01*
X0050050Y0206000D01*
X0047550Y0208500D01*
X0047550Y0213500D01*
X0050050Y0216000D01*
X0047550Y0218500D01*
X0047550Y0223500D01*
X0050050Y0226000D01*
X0047550Y0228500D01*
X0047550Y0233500D01*
X0050050Y0236000D01*
X0047550Y0238500D01*
X0047550Y0243500D01*
X0050050Y0246000D01*
X0047550Y0248500D01*
X0047550Y0253500D01*
X0050050Y0256000D01*
X0047550Y0258500D01*
X0047550Y0263500D01*
X0050050Y0266000D01*
X0047550Y0268500D01*
X0047550Y0273500D01*
X0050050Y0276000D01*
X0047550Y0278500D01*
X0047550Y0283500D01*
X0050050Y0286000D01*
X0047550Y0288500D01*
X0047550Y0293500D01*
X0050050Y0296000D01*
X0047550Y0298500D01*
X0047550Y0303500D01*
X0050050Y0306000D01*
X0047550Y0308500D01*
X0047550Y0313500D01*
X0050050Y0316000D01*
X0047550Y0318500D01*
X0047550Y0323500D01*
X0050050Y0326000D01*
X0047550Y0328500D01*
X0047550Y0333500D01*
X0050050Y0336000D01*
X0047550Y0338500D01*
X0047550Y0343500D01*
X0050050Y0346000D01*
X0055050Y0346000D01*
X0057550Y0343500D01*
X0057550Y0338500D01*
X0055050Y0336000D01*
X0057550Y0333500D01*
X0057550Y0328500D01*
X0055050Y0326000D01*
X0057550Y0323500D01*
X0057550Y0318500D01*
X0055050Y0316000D01*
X0057550Y0313500D01*
X0057550Y0308500D01*
X0055050Y0306000D01*
X0057550Y0303500D01*
X0057550Y0298500D01*
X0055050Y0296000D01*
X0057550Y0293500D01*
X0057550Y0288500D01*
X0055050Y0286000D01*
X0057550Y0283500D01*
X0057550Y0278500D01*
X0055050Y0276000D01*
X0057550Y0273500D01*
X0057550Y0268500D01*
X0055050Y0266000D01*
X0057550Y0263500D01*
X0057550Y0258500D01*
X0055050Y0256000D01*
X0057550Y0253500D01*
X0057550Y0248500D01*
X0055050Y0246000D01*
X0057550Y0243500D01*
X0057550Y0238500D01*
X0055050Y0236000D01*
X0057550Y0233500D01*
X0057550Y0228500D01*
X0055050Y0226000D01*
X0057550Y0223500D01*
X0057550Y0218500D01*
X0055050Y0216000D01*
X0057550Y0213500D01*
X0057550Y0208500D01*
X0055050Y0206000D01*
X0057550Y0203500D01*
X0057550Y0198500D01*
D12*
X0064500Y0184949D02*
X0064500Y0181946D01*
X0064500Y0183447D02*
X0059996Y0183447D01*
X0061497Y0181946D01*
X0064500Y0180345D02*
X0064500Y0177342D01*
X0064500Y0178843D02*
X0059996Y0178843D01*
X0061497Y0177342D01*
X0060747Y0175741D02*
X0062248Y0175741D01*
X0062999Y0174990D01*
X0062999Y0172738D01*
X0064500Y0172738D02*
X0059996Y0172738D01*
X0059996Y0174990D01*
X0060747Y0175741D01*
X0059996Y0171137D02*
X0059996Y0169636D01*
X0059996Y0170386D02*
X0063749Y0170386D01*
X0064500Y0169636D01*
X0064500Y0168885D01*
X0063749Y0168134D01*
X0069996Y0169636D02*
X0069996Y0171137D01*
X0069996Y0170386D02*
X0073749Y0170386D01*
X0074500Y0169636D01*
X0074500Y0168885D01*
X0073749Y0168134D01*
X0072999Y0172738D02*
X0072999Y0174990D01*
X0072248Y0175741D01*
X0070747Y0175741D01*
X0069996Y0174990D01*
X0069996Y0172738D01*
X0074500Y0172738D01*
X0074500Y0177342D02*
X0074500Y0180345D01*
X0074500Y0178843D02*
X0069996Y0178843D01*
X0071497Y0177342D01*
X0070747Y0181946D02*
X0069996Y0182697D01*
X0069996Y0184198D01*
X0070747Y0184949D01*
X0071497Y0184949D01*
X0074500Y0181946D01*
X0074500Y0184949D01*
X0079996Y0184198D02*
X0079996Y0182697D01*
X0080747Y0181946D01*
X0082248Y0183447D02*
X0082248Y0184198D01*
X0082999Y0184949D01*
X0083749Y0184949D01*
X0084500Y0184198D01*
X0084500Y0182697D01*
X0083749Y0181946D01*
X0084500Y0180345D02*
X0084500Y0177342D01*
X0084500Y0178843D02*
X0079996Y0178843D01*
X0081497Y0177342D01*
X0080747Y0175741D02*
X0082248Y0175741D01*
X0082999Y0174990D01*
X0082999Y0172738D01*
X0084500Y0172738D02*
X0079996Y0172738D01*
X0079996Y0174990D01*
X0080747Y0175741D01*
X0079996Y0171137D02*
X0079996Y0169636D01*
X0079996Y0170386D02*
X0083749Y0170386D01*
X0084500Y0169636D01*
X0084500Y0168885D01*
X0083749Y0168134D01*
X0089996Y0169636D02*
X0089996Y0171137D01*
X0089996Y0170386D02*
X0093749Y0170386D01*
X0094500Y0169636D01*
X0094500Y0168885D01*
X0093749Y0168134D01*
X0092999Y0172738D02*
X0092999Y0174990D01*
X0092248Y0175741D01*
X0090747Y0175741D01*
X0089996Y0174990D01*
X0089996Y0172738D01*
X0094500Y0172738D01*
X0094500Y0177342D02*
X0094500Y0180345D01*
X0094500Y0178843D02*
X0089996Y0178843D01*
X0091497Y0177342D01*
X0092248Y0181946D02*
X0092248Y0184949D01*
X0089996Y0184198D02*
X0092248Y0181946D01*
X0094500Y0184198D02*
X0089996Y0184198D01*
X0082248Y0184198D02*
X0081497Y0184949D01*
X0080747Y0184949D01*
X0079996Y0184198D01*
X0099996Y0184949D02*
X0099996Y0181946D01*
X0102248Y0181946D01*
X0101497Y0183447D01*
X0101497Y0184198D01*
X0102248Y0184949D01*
X0103749Y0184949D01*
X0104500Y0184198D01*
X0104500Y0182697D01*
X0103749Y0181946D01*
X0104500Y0180345D02*
X0104500Y0177342D01*
X0104500Y0178843D02*
X0099996Y0178843D01*
X0101497Y0177342D01*
X0100747Y0175741D02*
X0102248Y0175741D01*
X0102999Y0174990D01*
X0102999Y0172738D01*
X0104500Y0172738D02*
X0099996Y0172738D01*
X0099996Y0174990D01*
X0100747Y0175741D01*
X0099996Y0171137D02*
X0099996Y0169636D01*
X0099996Y0170386D02*
X0103749Y0170386D01*
X0104500Y0169636D01*
X0104500Y0168885D01*
X0103749Y0168134D01*
X0139996Y0169636D02*
X0139996Y0171137D01*
X0139996Y0170386D02*
X0143749Y0170386D01*
X0144500Y0169636D01*
X0144500Y0168885D01*
X0143749Y0168134D01*
X0142999Y0172738D02*
X0142999Y0174990D01*
X0142248Y0175741D01*
X0140747Y0175741D01*
X0139996Y0174990D01*
X0139996Y0172738D01*
X0144500Y0172738D01*
X0144500Y0177342D02*
X0144500Y0180345D01*
X0144500Y0178843D02*
X0139996Y0178843D01*
X0141497Y0177342D01*
X0142248Y0181946D02*
X0142248Y0184198D01*
X0142999Y0184949D01*
X0143749Y0184949D01*
X0144500Y0184198D01*
X0144500Y0182697D01*
X0143749Y0181946D01*
X0142248Y0181946D01*
X0140747Y0183447D01*
X0139996Y0184949D01*
X0149996Y0184949D02*
X0149996Y0181946D01*
X0149996Y0184949D02*
X0150747Y0184949D01*
X0153749Y0181946D01*
X0154500Y0181946D01*
X0154500Y0180345D02*
X0154500Y0177342D01*
X0154500Y0178843D02*
X0149996Y0178843D01*
X0151497Y0177342D01*
X0150747Y0175741D02*
X0152248Y0175741D01*
X0152999Y0174990D01*
X0152999Y0172738D01*
X0154500Y0172738D02*
X0149996Y0172738D01*
X0149996Y0174990D01*
X0150747Y0175741D01*
X0149996Y0171137D02*
X0149996Y0169636D01*
X0149996Y0170386D02*
X0153749Y0170386D01*
X0154500Y0169636D01*
X0154500Y0168885D01*
X0153749Y0168134D01*
X0159996Y0169636D02*
X0159996Y0171137D01*
X0159996Y0170386D02*
X0163749Y0170386D01*
X0164500Y0169636D01*
X0164500Y0168885D01*
X0163749Y0168134D01*
X0162999Y0172738D02*
X0162999Y0174990D01*
X0162248Y0175741D01*
X0160747Y0175741D01*
X0159996Y0174990D01*
X0159996Y0172738D01*
X0164500Y0172738D01*
X0164500Y0177342D02*
X0164500Y0180345D01*
X0164500Y0178843D02*
X0159996Y0178843D01*
X0161497Y0177342D01*
X0161497Y0181946D02*
X0160747Y0181946D01*
X0159996Y0182697D01*
X0159996Y0184198D01*
X0160747Y0184949D01*
X0161497Y0184949D01*
X0162248Y0184198D01*
X0162248Y0182697D01*
X0161497Y0181946D01*
X0162248Y0182697D02*
X0162999Y0181946D01*
X0163749Y0181946D01*
X0164500Y0182697D01*
X0164500Y0184198D01*
X0163749Y0184949D01*
X0162999Y0184949D01*
X0162248Y0184198D01*
X0169996Y0184198D02*
X0169996Y0182697D01*
X0170747Y0181946D01*
X0171497Y0181946D01*
X0172248Y0182697D01*
X0172248Y0184949D01*
X0173749Y0184949D02*
X0170747Y0184949D01*
X0169996Y0184198D01*
X0173749Y0184949D02*
X0174500Y0184198D01*
X0174500Y0182697D01*
X0173749Y0181946D01*
X0174500Y0180345D02*
X0174500Y0177342D01*
X0174500Y0178843D02*
X0169996Y0178843D01*
X0171497Y0177342D01*
X0170747Y0175741D02*
X0172248Y0175741D01*
X0172999Y0174990D01*
X0172999Y0172738D01*
X0174500Y0172738D02*
X0169996Y0172738D01*
X0169996Y0174990D01*
X0170747Y0175741D01*
X0169996Y0171137D02*
X0169996Y0169636D01*
X0169996Y0170386D02*
X0173749Y0170386D01*
X0174500Y0169636D01*
X0174500Y0168885D01*
X0173749Y0168134D01*
X0179996Y0169636D02*
X0179996Y0171137D01*
X0179996Y0170386D02*
X0183749Y0170386D01*
X0184500Y0169636D01*
X0184500Y0168885D01*
X0183749Y0168134D01*
X0182999Y0172738D02*
X0182999Y0174990D01*
X0182248Y0175741D01*
X0180747Y0175741D01*
X0179996Y0174990D01*
X0179996Y0172738D01*
X0184500Y0172738D01*
X0184500Y0177342D02*
X0181497Y0180345D01*
X0180747Y0180345D01*
X0179996Y0179594D01*
X0179996Y0178093D01*
X0180747Y0177342D01*
X0180747Y0181946D02*
X0179996Y0182697D01*
X0179996Y0184198D01*
X0180747Y0184949D01*
X0183749Y0181946D01*
X0184500Y0182697D01*
X0184500Y0184198D01*
X0183749Y0184949D01*
X0180747Y0184949D01*
X0180747Y0181946D02*
X0183749Y0181946D01*
X0184500Y0180345D02*
X0184500Y0177342D01*
X0189050Y0177000D02*
X0190050Y0176000D01*
X0189050Y0175000D01*
X0189050Y0172000D01*
X0190050Y0171000D01*
X0189050Y0170000D01*
X0189050Y0167000D01*
X0190050Y0166000D01*
X0189050Y0165000D01*
X0189050Y0162000D01*
X0191050Y0160000D01*
X0194050Y0160000D01*
X0196050Y0162000D01*
X0196050Y0165000D01*
X0195050Y0166000D01*
X0196050Y0167000D01*
X0196050Y0170000D01*
X0195050Y0171000D01*
X0196050Y0172000D01*
X0196050Y0175000D01*
X0195050Y0176000D01*
X0196050Y0177000D01*
X0196050Y0180000D01*
X0195050Y0181000D01*
X0196050Y0182000D01*
X0196050Y0185000D01*
X0194050Y0187000D01*
X0191050Y0187000D01*
X0189050Y0185000D01*
X0189050Y0182000D01*
X0190050Y0181000D01*
X0189050Y0180000D01*
X0189050Y0177000D01*
X0196550Y0177000D02*
X0197550Y0176000D01*
X0196550Y0175000D01*
X0196550Y0172000D01*
X0197550Y0171000D01*
X0196550Y0170000D01*
X0196550Y0167000D01*
X0197550Y0166000D01*
X0196550Y0165000D01*
X0196550Y0162000D01*
X0198550Y0160000D01*
X0201550Y0160000D01*
X0203550Y0162000D01*
X0203550Y0165000D01*
X0202550Y0166000D01*
X0203550Y0167000D01*
X0203550Y0170000D01*
X0202550Y0171000D01*
X0203550Y0172000D01*
X0203550Y0175000D01*
X0202550Y0176000D01*
X0203550Y0177000D01*
X0203550Y0180000D01*
X0202550Y0181000D01*
X0203550Y0182000D01*
X0203550Y0185000D01*
X0201550Y0187000D01*
X0198550Y0187000D01*
X0196550Y0185000D01*
X0196550Y0182000D01*
X0197550Y0181000D01*
X0196550Y0180000D01*
X0196550Y0177000D01*
X0198550Y0162000D02*
X0196550Y0160000D01*
X0196550Y0157000D01*
X0197550Y0156000D01*
X0196550Y0155000D01*
X0196550Y0152000D01*
X0197550Y0151000D01*
X0196550Y0150000D01*
X0196550Y0147000D01*
X0197550Y0146000D01*
X0196550Y0145000D01*
X0196550Y0142000D01*
X0197550Y0141000D01*
X0196550Y0140000D01*
X0196550Y0137000D01*
X0198550Y0135000D01*
X0201550Y0135000D01*
X0203550Y0137000D01*
X0203550Y0140000D01*
X0202550Y0141000D01*
X0203550Y0142000D01*
X0203550Y0145000D01*
X0202550Y0146000D01*
X0203550Y0147000D01*
X0203550Y0150000D01*
X0202550Y0151000D01*
X0203550Y0152000D01*
X0203550Y0155000D01*
X0202550Y0156000D01*
X0203550Y0157000D01*
X0203550Y0160000D01*
X0201550Y0162000D01*
X0198550Y0162000D01*
X0196050Y0160000D02*
X0196050Y0157000D01*
X0195050Y0156000D01*
X0196050Y0155000D01*
X0196050Y0152000D01*
X0195050Y0151000D01*
X0196050Y0150000D01*
X0196050Y0147000D01*
X0195050Y0146000D01*
X0196050Y0145000D01*
X0196050Y0142000D01*
X0195050Y0141000D01*
X0196050Y0140000D01*
X0196050Y0137000D01*
X0194050Y0135000D01*
X0191050Y0135000D01*
X0189050Y0137000D01*
X0189050Y0140000D01*
X0190050Y0141000D01*
X0189050Y0142000D01*
X0189050Y0145000D01*
X0190050Y0146000D01*
X0189050Y0147000D01*
X0189050Y0150000D01*
X0190050Y0151000D01*
X0189050Y0152000D01*
X0189050Y0155000D01*
X0190050Y0156000D01*
X0189050Y0157000D01*
X0189050Y0160000D01*
X0191050Y0162000D01*
X0194050Y0162000D01*
X0196050Y0160000D01*
X0194050Y0137000D02*
X0191050Y0137000D01*
X0189050Y0135000D01*
X0189050Y0132000D01*
X0190050Y0131000D01*
X0189050Y0130000D01*
X0189050Y0127000D01*
X0190050Y0126000D01*
X0189050Y0125000D01*
X0189050Y0122000D01*
X0190050Y0121000D01*
X0189050Y0120000D01*
X0189050Y0117000D01*
X0190050Y0116000D01*
X0189050Y0115000D01*
X0189050Y0112000D01*
X0191050Y0110000D01*
X0194050Y0110000D01*
X0196050Y0112000D01*
X0196050Y0115000D01*
X0195050Y0116000D01*
X0196050Y0117000D01*
X0196050Y0120000D01*
X0195050Y0121000D01*
X0196050Y0122000D01*
X0196050Y0125000D01*
X0195050Y0126000D01*
X0196050Y0127000D01*
X0196050Y0130000D01*
X0195050Y0131000D01*
X0196050Y0132000D01*
X0196050Y0135000D01*
X0194050Y0137000D01*
X0196550Y0135000D02*
X0198550Y0137000D01*
X0201550Y0137000D01*
X0203550Y0135000D01*
X0203550Y0132000D01*
X0202550Y0131000D01*
X0203550Y0130000D01*
X0203550Y0127000D01*
X0202550Y0126000D01*
X0203550Y0125000D01*
X0203550Y0122000D01*
X0202550Y0121000D01*
X0203550Y0120000D01*
X0203550Y0117000D01*
X0202550Y0116000D01*
X0203550Y0115000D01*
X0203550Y0112000D01*
X0201550Y0110000D01*
X0198550Y0110000D01*
X0196550Y0112000D01*
X0196550Y0115000D01*
X0197550Y0116000D01*
X0196550Y0117000D01*
X0196550Y0120000D01*
X0197550Y0121000D01*
X0196550Y0122000D01*
X0196550Y0125000D01*
X0197550Y0126000D01*
X0196550Y0127000D01*
X0196550Y0130000D01*
X0197550Y0131000D01*
X0196550Y0132000D01*
X0196550Y0135000D01*
X0198550Y0112000D02*
X0201550Y0112000D01*
X0203550Y0110000D01*
X0203550Y0107000D01*
X0202550Y0106000D01*
X0203550Y0105000D01*
X0203550Y0102000D01*
X0202550Y0101000D01*
X0203550Y0100000D01*
X0203550Y0097000D01*
X0202550Y0096000D01*
X0203550Y0095000D01*
X0203550Y0092000D01*
X0202550Y0091000D01*
X0203550Y0090000D01*
X0203550Y0087000D01*
X0201550Y0085000D01*
X0198550Y0085000D01*
X0196550Y0087000D01*
X0196550Y0090000D01*
X0197550Y0091000D01*
X0196550Y0092000D01*
X0196550Y0095000D01*
X0197550Y0096000D01*
X0196550Y0097000D01*
X0196550Y0100000D01*
X0197550Y0101000D01*
X0196550Y0102000D01*
X0196550Y0105000D01*
X0197550Y0106000D01*
X0196550Y0107000D01*
X0196550Y0110000D01*
X0198550Y0112000D01*
X0196050Y0110000D02*
X0194050Y0112000D01*
X0191050Y0112000D01*
X0189050Y0110000D01*
X0189050Y0107000D01*
X0190050Y0106000D01*
X0189050Y0105000D01*
X0189050Y0102000D01*
X0190050Y0101000D01*
X0189050Y0100000D01*
X0189050Y0097000D01*
X0190050Y0096000D01*
X0189050Y0095000D01*
X0189050Y0092000D01*
X0190050Y0091000D01*
X0189050Y0090000D01*
X0189050Y0087000D01*
X0191050Y0085000D01*
X0194050Y0085000D01*
X0196050Y0087000D01*
X0196050Y0090000D01*
X0195050Y0091000D01*
X0196050Y0092000D01*
X0196050Y0095000D01*
X0195050Y0096000D01*
X0196050Y0097000D01*
X0196050Y0100000D01*
X0195050Y0101000D01*
X0196050Y0102000D01*
X0196050Y0105000D01*
X0195050Y0106000D01*
X0196050Y0107000D01*
X0196050Y0110000D01*
X0194050Y0087000D02*
X0191050Y0087000D01*
X0189050Y0085000D01*
X0189050Y0082000D01*
X0190050Y0081000D01*
X0189050Y0080000D01*
X0189050Y0077000D01*
X0190050Y0076000D01*
X0189050Y0075000D01*
X0189050Y0072000D01*
X0190050Y0071000D01*
X0189050Y0070000D01*
X0189050Y0067000D01*
X0190050Y0066000D01*
X0189050Y0065000D01*
X0189050Y0062000D01*
X0191050Y0060000D01*
X0194050Y0060000D01*
X0196050Y0062000D01*
X0196050Y0065000D01*
X0195050Y0066000D01*
X0196050Y0067000D01*
X0196050Y0070000D01*
X0195050Y0071000D01*
X0196050Y0072000D01*
X0196050Y0075000D01*
X0195050Y0076000D01*
X0196050Y0077000D01*
X0196050Y0080000D01*
X0195050Y0081000D01*
X0196050Y0082000D01*
X0196050Y0085000D01*
X0194050Y0087000D01*
X0196550Y0085000D02*
X0196550Y0082000D01*
X0197550Y0081000D01*
X0196550Y0080000D01*
X0196550Y0077000D01*
X0197550Y0076000D01*
X0196550Y0075000D01*
X0196550Y0072000D01*
X0197550Y0071000D01*
X0196550Y0070000D01*
X0196550Y0067000D01*
X0197550Y0066000D01*
X0196550Y0065000D01*
X0196550Y0062000D01*
X0198550Y0060000D01*
X0201550Y0060000D01*
X0203550Y0062000D01*
X0203550Y0065000D01*
X0202550Y0066000D01*
X0203550Y0067000D01*
X0203550Y0070000D01*
X0202550Y0071000D01*
X0203550Y0072000D01*
X0203550Y0075000D01*
X0202550Y0076000D01*
X0203550Y0077000D01*
X0203550Y0080000D01*
X0202550Y0081000D01*
X0203550Y0082000D01*
X0203550Y0085000D01*
X0201550Y0087000D01*
X0198550Y0087000D01*
X0196550Y0085000D01*
X0198550Y0062000D02*
X0196550Y0060000D01*
X0196550Y0057000D01*
X0197550Y0056000D01*
X0196550Y0055000D01*
X0196550Y0052000D01*
X0197550Y0051000D01*
X0196550Y0050000D01*
X0196550Y0047000D01*
X0197550Y0046000D01*
X0196550Y0045000D01*
X0196550Y0042000D01*
X0197550Y0041000D01*
X0196550Y0040000D01*
X0196550Y0037000D01*
X0198550Y0035000D01*
X0201550Y0035000D01*
X0203550Y0037000D01*
X0203550Y0040000D01*
X0202550Y0041000D01*
X0203550Y0042000D01*
X0203550Y0045000D01*
X0202550Y0046000D01*
X0203550Y0047000D01*
X0203550Y0050000D01*
X0202550Y0051000D01*
X0203550Y0052000D01*
X0203550Y0055000D01*
X0202550Y0056000D01*
X0203550Y0057000D01*
X0203550Y0060000D01*
X0201550Y0062000D01*
X0198550Y0062000D01*
X0196050Y0060000D02*
X0196050Y0057000D01*
X0195050Y0056000D01*
X0196050Y0055000D01*
X0196050Y0052000D01*
X0195050Y0051000D01*
X0196050Y0050000D01*
X0196050Y0047000D01*
X0195050Y0046000D01*
X0196050Y0045000D01*
X0196050Y0042000D01*
X0195050Y0041000D01*
X0196050Y0040000D01*
X0196050Y0037000D01*
X0194050Y0035000D01*
X0191050Y0035000D01*
X0189050Y0037000D01*
X0189050Y0040000D01*
X0190050Y0041000D01*
X0189050Y0042000D01*
X0189050Y0045000D01*
X0190050Y0046000D01*
X0189050Y0047000D01*
X0189050Y0050000D01*
X0190050Y0051000D01*
X0189050Y0052000D01*
X0189050Y0055000D01*
X0190050Y0056000D01*
X0189050Y0057000D01*
X0189050Y0060000D01*
X0191050Y0062000D01*
X0194050Y0062000D01*
X0196050Y0060000D01*
X0176550Y0024500D02*
X0178550Y0022500D01*
X0178550Y0019500D01*
X0176550Y0017500D01*
X0173550Y0017500D01*
X0172550Y0018500D01*
X0171550Y0017500D01*
X0168550Y0017500D01*
X0167550Y0018500D01*
X0166550Y0017500D01*
X0163550Y0017500D01*
X0162550Y0018500D01*
X0161550Y0017500D01*
X0158550Y0017500D01*
X0157550Y0018500D01*
X0156550Y0017500D01*
X0153550Y0017500D01*
X0151550Y0019500D01*
X0151550Y0022500D01*
X0153550Y0024500D01*
X0156550Y0024500D01*
X0157550Y0023500D01*
X0158550Y0024500D01*
X0161550Y0024500D01*
X0162550Y0023500D01*
X0163550Y0024500D01*
X0166550Y0024500D01*
X0167550Y0023500D01*
X0168550Y0024500D01*
X0171550Y0024500D01*
X0172550Y0023500D01*
X0173550Y0024500D01*
X0176550Y0024500D01*
X0153550Y0022500D02*
X0153550Y0019500D01*
X0151550Y0017500D01*
X0148550Y0017500D01*
X0147550Y0018500D01*
X0146550Y0017500D01*
X0143550Y0017500D01*
X0142550Y0018500D01*
X0141550Y0017500D01*
X0138550Y0017500D01*
X0137550Y0018500D01*
X0136550Y0017500D01*
X0133550Y0017500D01*
X0132550Y0018500D01*
X0131550Y0017500D01*
X0128550Y0017500D01*
X0126550Y0019500D01*
X0126550Y0022500D01*
X0128550Y0024500D01*
X0131550Y0024500D01*
X0132550Y0023500D01*
X0133550Y0024500D01*
X0136550Y0024500D01*
X0137550Y0023500D01*
X0138550Y0024500D01*
X0141550Y0024500D01*
X0142550Y0023500D01*
X0143550Y0024500D01*
X0146550Y0024500D01*
X0147550Y0023500D01*
X0148550Y0024500D01*
X0151550Y0024500D01*
X0153550Y0022500D01*
X0098550Y0022500D02*
X0098550Y0019500D01*
X0096550Y0017500D01*
X0093550Y0017500D01*
X0092550Y0018500D01*
X0091550Y0017500D01*
X0088550Y0017500D01*
X0087550Y0018500D01*
X0086550Y0017500D01*
X0083550Y0017500D01*
X0082550Y0018500D01*
X0081550Y0017500D01*
X0078550Y0017500D01*
X0077550Y0018500D01*
X0076550Y0017500D01*
X0073550Y0017500D01*
X0071550Y0019500D01*
X0071550Y0022500D01*
X0073550Y0024500D01*
X0076550Y0024500D01*
X0077550Y0023500D01*
X0078550Y0024500D01*
X0081550Y0024500D01*
X0082550Y0023500D01*
X0083550Y0024500D01*
X0086550Y0024500D01*
X0087550Y0023500D01*
X0088550Y0024500D01*
X0091550Y0024500D01*
X0092550Y0023500D01*
X0093550Y0024500D01*
X0096550Y0024500D01*
X0098550Y0022500D01*
X0073550Y0022500D02*
X0073550Y0019500D01*
X0071550Y0017500D01*
X0068550Y0017500D01*
X0067550Y0018500D01*
X0066550Y0017500D01*
X0063550Y0017500D01*
X0062550Y0018500D01*
X0061550Y0017500D01*
X0058550Y0017500D01*
X0057550Y0018500D01*
X0056550Y0017500D01*
X0053550Y0017500D01*
X0052550Y0018500D01*
X0051550Y0017500D01*
X0048550Y0017500D01*
X0046550Y0019500D01*
X0046550Y0022500D01*
X0048550Y0024500D01*
X0051550Y0024500D01*
X0052550Y0023500D01*
X0053550Y0024500D01*
X0056550Y0024500D01*
X0057550Y0023500D01*
X0058550Y0024500D01*
X0061550Y0024500D01*
X0062550Y0023500D01*
X0063550Y0024500D01*
X0066550Y0024500D01*
X0067550Y0023500D01*
X0068550Y0024500D01*
X0071550Y0024500D01*
X0073550Y0022500D01*
X0036050Y0037000D02*
X0034050Y0035000D01*
X0031050Y0035000D01*
X0029050Y0037000D01*
X0029050Y0040000D01*
X0030050Y0041000D01*
X0029050Y0042000D01*
X0029050Y0045000D01*
X0030050Y0046000D01*
X0029050Y0047000D01*
X0029050Y0050000D01*
X0030050Y0051000D01*
X0029050Y0052000D01*
X0029050Y0055000D01*
X0030050Y0056000D01*
X0029050Y0057000D01*
X0029050Y0060000D01*
X0031050Y0062000D01*
X0034050Y0062000D01*
X0036050Y0060000D01*
X0036050Y0057000D01*
X0035050Y0056000D01*
X0036050Y0055000D01*
X0036050Y0052000D01*
X0035050Y0051000D01*
X0036050Y0050000D01*
X0036050Y0047000D01*
X0035050Y0046000D01*
X0036050Y0045000D01*
X0036050Y0042000D01*
X0035050Y0041000D01*
X0036050Y0040000D01*
X0036050Y0037000D01*
X0028550Y0037000D02*
X0026550Y0035000D01*
X0023550Y0035000D01*
X0021550Y0037000D01*
X0021550Y0040000D01*
X0022550Y0041000D01*
X0021550Y0042000D01*
X0021550Y0045000D01*
X0022550Y0046000D01*
X0021550Y0047000D01*
X0021550Y0050000D01*
X0022550Y0051000D01*
X0021550Y0052000D01*
X0021550Y0055000D01*
X0022550Y0056000D01*
X0021550Y0057000D01*
X0021550Y0060000D01*
X0023550Y0062000D01*
X0026550Y0062000D01*
X0028550Y0060000D01*
X0028550Y0057000D01*
X0027550Y0056000D01*
X0028550Y0055000D01*
X0028550Y0052000D01*
X0027550Y0051000D01*
X0028550Y0050000D01*
X0028550Y0047000D01*
X0027550Y0046000D01*
X0028550Y0045000D01*
X0028550Y0042000D01*
X0027550Y0041000D01*
X0028550Y0040000D01*
X0028550Y0037000D01*
X0026550Y0060000D02*
X0023550Y0060000D01*
X0021550Y0062000D01*
X0021550Y0065000D01*
X0022550Y0066000D01*
X0021550Y0067000D01*
X0021550Y0070000D01*
X0022550Y0071000D01*
X0021550Y0072000D01*
X0021550Y0075000D01*
X0022550Y0076000D01*
X0021550Y0077000D01*
X0021550Y0080000D01*
X0022550Y0081000D01*
X0021550Y0082000D01*
X0021550Y0085000D01*
X0023550Y0087000D01*
X0026550Y0087000D01*
X0028550Y0085000D01*
X0028550Y0082000D01*
X0027550Y0081000D01*
X0028550Y0080000D01*
X0028550Y0077000D01*
X0027550Y0076000D01*
X0028550Y0075000D01*
X0028550Y0072000D01*
X0027550Y0071000D01*
X0028550Y0070000D01*
X0028550Y0067000D01*
X0027550Y0066000D01*
X0028550Y0065000D01*
X0028550Y0062000D01*
X0026550Y0060000D01*
X0029050Y0062000D02*
X0029050Y0065000D01*
X0030050Y0066000D01*
X0029050Y0067000D01*
X0029050Y0070000D01*
X0030050Y0071000D01*
X0029050Y0072000D01*
X0029050Y0075000D01*
X0030050Y0076000D01*
X0029050Y0077000D01*
X0029050Y0080000D01*
X0030050Y0081000D01*
X0029050Y0082000D01*
X0029050Y0085000D01*
X0031050Y0087000D01*
X0034050Y0087000D01*
X0036050Y0085000D01*
X0036050Y0082000D01*
X0035050Y0081000D01*
X0036050Y0080000D01*
X0036050Y0077000D01*
X0035050Y0076000D01*
X0036050Y0075000D01*
X0036050Y0072000D01*
X0035050Y0071000D01*
X0036050Y0070000D01*
X0036050Y0067000D01*
X0035050Y0066000D01*
X0036050Y0065000D01*
X0036050Y0062000D01*
X0034050Y0060000D01*
X0031050Y0060000D01*
X0029050Y0062000D01*
X0031050Y0085000D02*
X0029050Y0087000D01*
X0029050Y0090000D01*
X0030050Y0091000D01*
X0029050Y0092000D01*
X0029050Y0095000D01*
X0030050Y0096000D01*
X0029050Y0097000D01*
X0029050Y0100000D01*
X0030050Y0101000D01*
X0029050Y0102000D01*
X0029050Y0105000D01*
X0030050Y0106000D01*
X0029050Y0107000D01*
X0029050Y0110000D01*
X0031050Y0112000D01*
X0034050Y0112000D01*
X0036050Y0110000D01*
X0036050Y0107000D01*
X0035050Y0106000D01*
X0036050Y0105000D01*
X0036050Y0102000D01*
X0035050Y0101000D01*
X0036050Y0100000D01*
X0036050Y0097000D01*
X0035050Y0096000D01*
X0036050Y0095000D01*
X0036050Y0092000D01*
X0035050Y0091000D01*
X0036050Y0090000D01*
X0036050Y0087000D01*
X0034050Y0085000D01*
X0031050Y0085000D01*
X0028550Y0087000D02*
X0028550Y0090000D01*
X0027550Y0091000D01*
X0028550Y0092000D01*
X0028550Y0095000D01*
X0027550Y0096000D01*
X0028550Y0097000D01*
X0028550Y0100000D01*
X0027550Y0101000D01*
X0028550Y0102000D01*
X0028550Y0105000D01*
X0027550Y0106000D01*
X0028550Y0107000D01*
X0028550Y0110000D01*
X0026550Y0112000D01*
X0023550Y0112000D01*
X0021550Y0110000D01*
X0021550Y0107000D01*
X0022550Y0106000D01*
X0021550Y0105000D01*
X0021550Y0102000D01*
X0022550Y0101000D01*
X0021550Y0100000D01*
X0021550Y0097000D01*
X0022550Y0096000D01*
X0021550Y0095000D01*
X0021550Y0092000D01*
X0022550Y0091000D01*
X0021550Y0090000D01*
X0021550Y0087000D01*
X0023550Y0085000D01*
X0026550Y0085000D01*
X0028550Y0087000D01*
X0026550Y0110000D02*
X0023550Y0110000D01*
X0021550Y0112000D01*
X0021550Y0115000D01*
X0022550Y0116000D01*
X0021550Y0117000D01*
X0021550Y0120000D01*
X0022550Y0121000D01*
X0021550Y0122000D01*
X0021550Y0125000D01*
X0022550Y0126000D01*
X0021550Y0127000D01*
X0021550Y0130000D01*
X0022550Y0131000D01*
X0021550Y0132000D01*
X0021550Y0135000D01*
X0023550Y0137000D01*
X0026550Y0137000D01*
X0028550Y0135000D01*
X0028550Y0132000D01*
X0027550Y0131000D01*
X0028550Y0130000D01*
X0028550Y0127000D01*
X0027550Y0126000D01*
X0028550Y0125000D01*
X0028550Y0122000D01*
X0027550Y0121000D01*
X0028550Y0120000D01*
X0028550Y0117000D01*
X0027550Y0116000D01*
X0028550Y0115000D01*
X0028550Y0112000D01*
X0026550Y0110000D01*
X0029050Y0112000D02*
X0031050Y0110000D01*
X0034050Y0110000D01*
X0036050Y0112000D01*
X0036050Y0115000D01*
X0035050Y0116000D01*
X0036050Y0117000D01*
X0036050Y0120000D01*
X0035050Y0121000D01*
X0036050Y0122000D01*
X0036050Y0125000D01*
X0035050Y0126000D01*
X0036050Y0127000D01*
X0036050Y0130000D01*
X0035050Y0131000D01*
X0036050Y0132000D01*
X0036050Y0135000D01*
X0034050Y0137000D01*
X0031050Y0137000D01*
X0029050Y0135000D01*
X0029050Y0132000D01*
X0030050Y0131000D01*
X0029050Y0130000D01*
X0029050Y0127000D01*
X0030050Y0126000D01*
X0029050Y0125000D01*
X0029050Y0122000D01*
X0030050Y0121000D01*
X0029050Y0120000D01*
X0029050Y0117000D01*
X0030050Y0116000D01*
X0029050Y0115000D01*
X0029050Y0112000D01*
X0031050Y0135000D02*
X0029050Y0137000D01*
X0029050Y0140000D01*
X0030050Y0141000D01*
X0029050Y0142000D01*
X0029050Y0145000D01*
X0030050Y0146000D01*
X0029050Y0147000D01*
X0029050Y0150000D01*
X0030050Y0151000D01*
X0029050Y0152000D01*
X0029050Y0155000D01*
X0030050Y0156000D01*
X0029050Y0157000D01*
X0029050Y0160000D01*
X0031050Y0162000D01*
X0034050Y0162000D01*
X0036050Y0160000D01*
X0036050Y0157000D01*
X0035050Y0156000D01*
X0036050Y0155000D01*
X0036050Y0152000D01*
X0035050Y0151000D01*
X0036050Y0150000D01*
X0036050Y0147000D01*
X0035050Y0146000D01*
X0036050Y0145000D01*
X0036050Y0142000D01*
X0035050Y0141000D01*
X0036050Y0140000D01*
X0036050Y0137000D01*
X0034050Y0135000D01*
X0031050Y0135000D01*
X0028550Y0137000D02*
X0026550Y0135000D01*
X0023550Y0135000D01*
X0021550Y0137000D01*
X0021550Y0140000D01*
X0022550Y0141000D01*
X0021550Y0142000D01*
X0021550Y0145000D01*
X0022550Y0146000D01*
X0021550Y0147000D01*
X0021550Y0150000D01*
X0022550Y0151000D01*
X0021550Y0152000D01*
X0021550Y0155000D01*
X0022550Y0156000D01*
X0021550Y0157000D01*
X0021550Y0160000D01*
X0023550Y0162000D01*
X0026550Y0162000D01*
X0028550Y0160000D01*
X0028550Y0157000D01*
X0027550Y0156000D01*
X0028550Y0155000D01*
X0028550Y0152000D01*
X0027550Y0151000D01*
X0028550Y0150000D01*
X0028550Y0147000D01*
X0027550Y0146000D01*
X0028550Y0145000D01*
X0028550Y0142000D01*
X0027550Y0141000D01*
X0028550Y0140000D01*
X0028550Y0137000D01*
X0026550Y0160000D02*
X0023550Y0160000D01*
X0021550Y0162000D01*
X0021550Y0165000D01*
X0022550Y0166000D01*
X0021550Y0167000D01*
X0021550Y0170000D01*
X0022550Y0171000D01*
X0021550Y0172000D01*
X0021550Y0175000D01*
X0022550Y0176000D01*
X0021550Y0177000D01*
X0021550Y0180000D01*
X0022550Y0181000D01*
X0021550Y0182000D01*
X0021550Y0185000D01*
X0023550Y0187000D01*
X0026550Y0187000D01*
X0028550Y0185000D01*
X0028550Y0182000D01*
X0027550Y0181000D01*
X0028550Y0180000D01*
X0028550Y0177000D01*
X0027550Y0176000D01*
X0028550Y0175000D01*
X0028550Y0172000D01*
X0027550Y0171000D01*
X0028550Y0170000D01*
X0028550Y0167000D01*
X0027550Y0166000D01*
X0028550Y0165000D01*
X0028550Y0162000D01*
X0026550Y0160000D01*
X0029050Y0162000D02*
X0029050Y0165000D01*
X0030050Y0166000D01*
X0029050Y0167000D01*
X0029050Y0170000D01*
X0030050Y0171000D01*
X0029050Y0172000D01*
X0029050Y0175000D01*
X0030050Y0176000D01*
X0029050Y0177000D01*
X0029050Y0180000D01*
X0030050Y0181000D01*
X0029050Y0182000D01*
X0029050Y0185000D01*
X0031050Y0187000D01*
X0034050Y0187000D01*
X0036050Y0185000D01*
X0036050Y0182000D01*
X0035050Y0181000D01*
X0036050Y0180000D01*
X0036050Y0177000D01*
X0035050Y0176000D01*
X0036050Y0175000D01*
X0036050Y0172000D01*
X0035050Y0171000D01*
X0036050Y0170000D01*
X0036050Y0167000D01*
X0035050Y0166000D01*
X0036050Y0165000D01*
X0036050Y0162000D01*
X0034050Y0160000D01*
X0031050Y0160000D01*
X0029050Y0162000D01*
X0031050Y0195000D02*
X0029050Y0197000D01*
X0029050Y0200000D01*
X0030050Y0201000D01*
X0029050Y0202000D01*
X0029050Y0205000D01*
X0030050Y0206000D01*
X0029050Y0207000D01*
X0029050Y0210000D01*
X0030050Y0211000D01*
X0029050Y0212000D01*
X0029050Y0215000D01*
X0030050Y0216000D01*
X0029050Y0217000D01*
X0029050Y0220000D01*
X0031050Y0222000D01*
X0034050Y0222000D01*
X0036050Y0220000D01*
X0036050Y0217000D01*
X0035050Y0216000D01*
X0036050Y0215000D01*
X0036050Y0212000D01*
X0035050Y0211000D01*
X0036050Y0210000D01*
X0036050Y0207000D01*
X0035050Y0206000D01*
X0036050Y0205000D01*
X0036050Y0202000D01*
X0035050Y0201000D01*
X0036050Y0200000D01*
X0036050Y0197000D01*
X0034050Y0195000D01*
X0031050Y0195000D01*
X0028550Y0197000D02*
X0028550Y0200000D01*
X0027550Y0201000D01*
X0028550Y0202000D01*
X0028550Y0205000D01*
X0027550Y0206000D01*
X0028550Y0207000D01*
X0028550Y0210000D01*
X0027550Y0211000D01*
X0028550Y0212000D01*
X0028550Y0215000D01*
X0027550Y0216000D01*
X0028550Y0217000D01*
X0028550Y0220000D01*
X0026550Y0222000D01*
X0023550Y0222000D01*
X0021550Y0220000D01*
X0021550Y0217000D01*
X0022550Y0216000D01*
X0021550Y0215000D01*
X0021550Y0212000D01*
X0022550Y0211000D01*
X0021550Y0210000D01*
X0021550Y0207000D01*
X0022550Y0206000D01*
X0021550Y0205000D01*
X0021550Y0202000D01*
X0022550Y0201000D01*
X0021550Y0200000D01*
X0021550Y0197000D01*
X0023550Y0195000D01*
X0026550Y0195000D01*
X0028550Y0197000D01*
X0026550Y0220000D02*
X0023550Y0220000D01*
X0021550Y0222000D01*
X0021550Y0225000D01*
X0022550Y0226000D01*
X0021550Y0227000D01*
X0021550Y0230000D01*
X0022550Y0231000D01*
X0021550Y0232000D01*
X0021550Y0235000D01*
X0022550Y0236000D01*
X0021550Y0237000D01*
X0021550Y0240000D01*
X0022550Y0241000D01*
X0021550Y0242000D01*
X0021550Y0245000D01*
X0023550Y0247000D01*
X0026550Y0247000D01*
X0028550Y0245000D01*
X0028550Y0242000D01*
X0027550Y0241000D01*
X0028550Y0240000D01*
X0028550Y0237000D01*
X0027550Y0236000D01*
X0028550Y0235000D01*
X0028550Y0232000D01*
X0027550Y0231000D01*
X0028550Y0230000D01*
X0028550Y0227000D01*
X0027550Y0226000D01*
X0028550Y0225000D01*
X0028550Y0222000D01*
X0026550Y0220000D01*
X0029050Y0222000D02*
X0029050Y0225000D01*
X0030050Y0226000D01*
X0029050Y0227000D01*
X0029050Y0230000D01*
X0030050Y0231000D01*
X0029050Y0232000D01*
X0029050Y0235000D01*
X0030050Y0236000D01*
X0029050Y0237000D01*
X0029050Y0240000D01*
X0030050Y0241000D01*
X0029050Y0242000D01*
X0029050Y0245000D01*
X0031050Y0247000D01*
X0034050Y0247000D01*
X0036050Y0245000D01*
X0036050Y0242000D01*
X0035050Y0241000D01*
X0036050Y0240000D01*
X0036050Y0237000D01*
X0035050Y0236000D01*
X0036050Y0235000D01*
X0036050Y0232000D01*
X0035050Y0231000D01*
X0036050Y0230000D01*
X0036050Y0227000D01*
X0035050Y0226000D01*
X0036050Y0225000D01*
X0036050Y0222000D01*
X0034050Y0220000D01*
X0031050Y0220000D01*
X0029050Y0222000D01*
X0031050Y0245000D02*
X0029050Y0247000D01*
X0029050Y0250000D01*
X0030050Y0251000D01*
X0029050Y0252000D01*
X0029050Y0255000D01*
X0030050Y0256000D01*
X0029050Y0257000D01*
X0029050Y0260000D01*
X0030050Y0261000D01*
X0029050Y0262000D01*
X0029050Y0265000D01*
X0030050Y0266000D01*
X0029050Y0267000D01*
X0029050Y0270000D01*
X0031050Y0272000D01*
X0034050Y0272000D01*
X0036050Y0270000D01*
X0036050Y0267000D01*
X0035050Y0266000D01*
X0036050Y0265000D01*
X0036050Y0262000D01*
X0035050Y0261000D01*
X0036050Y0260000D01*
X0036050Y0257000D01*
X0035050Y0256000D01*
X0036050Y0255000D01*
X0036050Y0252000D01*
X0035050Y0251000D01*
X0036050Y0250000D01*
X0036050Y0247000D01*
X0034050Y0245000D01*
X0031050Y0245000D01*
X0028550Y0247000D02*
X0026550Y0245000D01*
X0023550Y0245000D01*
X0021550Y0247000D01*
X0021550Y0250000D01*
X0022550Y0251000D01*
X0021550Y0252000D01*
X0021550Y0255000D01*
X0022550Y0256000D01*
X0021550Y0257000D01*
X0021550Y0260000D01*
X0022550Y0261000D01*
X0021550Y0262000D01*
X0021550Y0265000D01*
X0022550Y0266000D01*
X0021550Y0267000D01*
X0021550Y0270000D01*
X0023550Y0272000D01*
X0026550Y0272000D01*
X0028550Y0270000D01*
X0028550Y0267000D01*
X0027550Y0266000D01*
X0028550Y0265000D01*
X0028550Y0262000D01*
X0027550Y0261000D01*
X0028550Y0260000D01*
X0028550Y0257000D01*
X0027550Y0256000D01*
X0028550Y0255000D01*
X0028550Y0252000D01*
X0027550Y0251000D01*
X0028550Y0250000D01*
X0028550Y0247000D01*
X0026550Y0270000D02*
X0023550Y0270000D01*
X0021550Y0272000D01*
X0021550Y0275000D01*
X0022550Y0276000D01*
X0021550Y0277000D01*
X0021550Y0280000D01*
X0022550Y0281000D01*
X0021550Y0282000D01*
X0021550Y0285000D01*
X0022550Y0286000D01*
X0021550Y0287000D01*
X0021550Y0290000D01*
X0022550Y0291000D01*
X0021550Y0292000D01*
X0021550Y0295000D01*
X0023550Y0297000D01*
X0026550Y0297000D01*
X0028550Y0295000D01*
X0028550Y0292000D01*
X0027550Y0291000D01*
X0028550Y0290000D01*
X0028550Y0287000D01*
X0027550Y0286000D01*
X0028550Y0285000D01*
X0028550Y0282000D01*
X0027550Y0281000D01*
X0028550Y0280000D01*
X0028550Y0277000D01*
X0027550Y0276000D01*
X0028550Y0275000D01*
X0028550Y0272000D01*
X0026550Y0270000D01*
X0029050Y0272000D02*
X0031050Y0270000D01*
X0034050Y0270000D01*
X0036050Y0272000D01*
X0036050Y0275000D01*
X0035050Y0276000D01*
X0036050Y0277000D01*
X0036050Y0280000D01*
X0035050Y0281000D01*
X0036050Y0282000D01*
X0036050Y0285000D01*
X0035050Y0286000D01*
X0036050Y0287000D01*
X0036050Y0290000D01*
X0035050Y0291000D01*
X0036050Y0292000D01*
X0036050Y0295000D01*
X0034050Y0297000D01*
X0031050Y0297000D01*
X0029050Y0295000D01*
X0029050Y0292000D01*
X0030050Y0291000D01*
X0029050Y0290000D01*
X0029050Y0287000D01*
X0030050Y0286000D01*
X0029050Y0285000D01*
X0029050Y0282000D01*
X0030050Y0281000D01*
X0029050Y0280000D01*
X0029050Y0277000D01*
X0030050Y0276000D01*
X0029050Y0275000D01*
X0029050Y0272000D01*
X0031050Y0295000D02*
X0029050Y0297000D01*
X0029050Y0300000D01*
X0030050Y0301000D01*
X0029050Y0302000D01*
X0029050Y0305000D01*
X0030050Y0306000D01*
X0029050Y0307000D01*
X0029050Y0310000D01*
X0030050Y0311000D01*
X0029050Y0312000D01*
X0029050Y0315000D01*
X0030050Y0316000D01*
X0029050Y0317000D01*
X0029050Y0320000D01*
X0031050Y0322000D01*
X0034050Y0322000D01*
X0036050Y0320000D01*
X0036050Y0317000D01*
X0035050Y0316000D01*
X0036050Y0315000D01*
X0036050Y0312000D01*
X0035050Y0311000D01*
X0036050Y0310000D01*
X0036050Y0307000D01*
X0035050Y0306000D01*
X0036050Y0305000D01*
X0036050Y0302000D01*
X0035050Y0301000D01*
X0036050Y0300000D01*
X0036050Y0297000D01*
X0034050Y0295000D01*
X0031050Y0295000D01*
X0028550Y0297000D02*
X0028550Y0300000D01*
X0027550Y0301000D01*
X0028550Y0302000D01*
X0028550Y0305000D01*
X0027550Y0306000D01*
X0028550Y0307000D01*
X0028550Y0310000D01*
X0027550Y0311000D01*
X0028550Y0312000D01*
X0028550Y0315000D01*
X0027550Y0316000D01*
X0028550Y0317000D01*
X0028550Y0320000D01*
X0026550Y0322000D01*
X0023550Y0322000D01*
X0021550Y0320000D01*
X0021550Y0317000D01*
X0022550Y0316000D01*
X0021550Y0315000D01*
X0021550Y0312000D01*
X0022550Y0311000D01*
X0021550Y0310000D01*
X0021550Y0307000D01*
X0022550Y0306000D01*
X0021550Y0305000D01*
X0021550Y0302000D01*
X0022550Y0301000D01*
X0021550Y0300000D01*
X0021550Y0297000D01*
X0023550Y0295000D01*
X0026550Y0295000D01*
X0028550Y0297000D01*
X0026550Y0320000D02*
X0023550Y0320000D01*
X0021550Y0322000D01*
X0021550Y0325000D01*
X0022550Y0326000D01*
X0021550Y0327000D01*
X0021550Y0330000D01*
X0022550Y0331000D01*
X0021550Y0332000D01*
X0021550Y0335000D01*
X0022550Y0336000D01*
X0021550Y0337000D01*
X0021550Y0340000D01*
X0022550Y0341000D01*
X0021550Y0342000D01*
X0021550Y0345000D01*
X0023550Y0347000D01*
X0026550Y0347000D01*
X0028550Y0345000D01*
X0028550Y0342000D01*
X0027550Y0341000D01*
X0028550Y0340000D01*
X0028550Y0337000D01*
X0027550Y0336000D01*
X0028550Y0335000D01*
X0028550Y0332000D01*
X0027550Y0331000D01*
X0028550Y0330000D01*
X0028550Y0327000D01*
X0027550Y0326000D01*
X0028550Y0325000D01*
X0028550Y0322000D01*
X0026550Y0320000D01*
X0029050Y0322000D02*
X0031050Y0320000D01*
X0034050Y0320000D01*
X0036050Y0322000D01*
X0036050Y0325000D01*
X0035050Y0326000D01*
X0036050Y0327000D01*
X0036050Y0330000D01*
X0035050Y0331000D01*
X0036050Y0332000D01*
X0036050Y0335000D01*
X0035050Y0336000D01*
X0036050Y0337000D01*
X0036050Y0340000D01*
X0035050Y0341000D01*
X0036050Y0342000D01*
X0036050Y0345000D01*
X0034050Y0347000D01*
X0031050Y0347000D01*
X0029050Y0345000D01*
X0029050Y0342000D01*
X0030050Y0341000D01*
X0029050Y0340000D01*
X0029050Y0337000D01*
X0030050Y0336000D01*
X0029050Y0335000D01*
X0029050Y0332000D01*
X0030050Y0331000D01*
X0029050Y0330000D01*
X0029050Y0327000D01*
X0030050Y0326000D01*
X0029050Y0325000D01*
X0029050Y0322000D01*
X0048550Y0357500D02*
X0046550Y0359500D01*
X0046550Y0362500D01*
X0048550Y0364500D01*
X0051550Y0364500D01*
X0052550Y0363500D01*
X0053550Y0364500D01*
X0056550Y0364500D01*
X0057550Y0363500D01*
X0058550Y0364500D01*
X0061550Y0364500D01*
X0062550Y0363500D01*
X0063550Y0364500D01*
X0066550Y0364500D01*
X0067550Y0363500D01*
X0068550Y0364500D01*
X0071550Y0364500D01*
X0073550Y0362500D01*
X0073550Y0359500D01*
X0071550Y0357500D01*
X0068550Y0357500D01*
X0067550Y0358500D01*
X0066550Y0357500D01*
X0063550Y0357500D01*
X0062550Y0358500D01*
X0061550Y0357500D01*
X0058550Y0357500D01*
X0057550Y0358500D01*
X0056550Y0357500D01*
X0053550Y0357500D01*
X0052550Y0358500D01*
X0051550Y0357500D01*
X0048550Y0357500D01*
X0048550Y0365000D02*
X0046550Y0367000D01*
X0046550Y0370000D01*
X0048550Y0372000D01*
X0051550Y0372000D01*
X0052550Y0371000D01*
X0053550Y0372000D01*
X0056550Y0372000D01*
X0057550Y0371000D01*
X0058550Y0372000D01*
X0061550Y0372000D01*
X0062550Y0371000D01*
X0063550Y0372000D01*
X0066550Y0372000D01*
X0067550Y0371000D01*
X0068550Y0372000D01*
X0071550Y0372000D01*
X0073550Y0370000D01*
X0073550Y0367000D01*
X0071550Y0365000D01*
X0068550Y0365000D01*
X0067550Y0366000D01*
X0066550Y0365000D01*
X0063550Y0365000D01*
X0062550Y0366000D01*
X0061550Y0365000D01*
X0058550Y0365000D01*
X0057550Y0366000D01*
X0056550Y0365000D01*
X0053550Y0365000D01*
X0052550Y0366000D01*
X0051550Y0365000D01*
X0048550Y0365000D01*
X0059996Y0343447D02*
X0064500Y0343447D01*
X0064500Y0341946D02*
X0064500Y0344949D01*
X0061497Y0341946D02*
X0059996Y0343447D01*
X0060747Y0340345D02*
X0062248Y0340345D01*
X0062999Y0339594D01*
X0062999Y0337342D01*
X0064500Y0337342D02*
X0059996Y0337342D01*
X0059996Y0339594D01*
X0060747Y0340345D01*
X0059996Y0335741D02*
X0059996Y0334239D01*
X0059996Y0334990D02*
X0063749Y0334990D01*
X0064500Y0334239D01*
X0064500Y0333489D01*
X0063749Y0332738D01*
X0069996Y0334239D02*
X0069996Y0335741D01*
X0069996Y0334990D02*
X0073749Y0334990D01*
X0074500Y0334239D01*
X0074500Y0333489D01*
X0073749Y0332738D01*
X0072999Y0337342D02*
X0072999Y0339594D01*
X0072248Y0340345D01*
X0070747Y0340345D01*
X0069996Y0339594D01*
X0069996Y0337342D01*
X0074500Y0337342D01*
X0074500Y0341946D02*
X0071497Y0344949D01*
X0070747Y0344949D01*
X0069996Y0344198D01*
X0069996Y0342697D01*
X0070747Y0341946D01*
X0074500Y0341946D02*
X0074500Y0344949D01*
X0079996Y0344198D02*
X0080747Y0344949D01*
X0081497Y0344949D01*
X0082248Y0344198D01*
X0082999Y0344949D01*
X0083749Y0344949D01*
X0084500Y0344198D01*
X0084500Y0342697D01*
X0083749Y0341946D01*
X0082248Y0343447D02*
X0082248Y0344198D01*
X0079996Y0344198D02*
X0079996Y0342697D01*
X0080747Y0341946D01*
X0080747Y0340345D02*
X0082248Y0340345D01*
X0082999Y0339594D01*
X0082999Y0337342D01*
X0084500Y0337342D02*
X0079996Y0337342D01*
X0079996Y0339594D01*
X0080747Y0340345D01*
X0079996Y0335741D02*
X0079996Y0334239D01*
X0079996Y0334990D02*
X0083749Y0334990D01*
X0084500Y0334239D01*
X0084500Y0333489D01*
X0083749Y0332738D01*
X0089996Y0334239D02*
X0089996Y0335741D01*
X0089996Y0334990D02*
X0093749Y0334990D01*
X0094500Y0334239D01*
X0094500Y0333489D01*
X0093749Y0332738D01*
X0092999Y0337342D02*
X0092999Y0339594D01*
X0092248Y0340345D01*
X0090747Y0340345D01*
X0089996Y0339594D01*
X0089996Y0337342D01*
X0094500Y0337342D01*
X0092248Y0341946D02*
X0089996Y0344198D01*
X0094500Y0344198D01*
X0092248Y0344949D02*
X0092248Y0341946D01*
X0099996Y0341946D02*
X0102248Y0341946D01*
X0101497Y0343447D01*
X0101497Y0344198D01*
X0102248Y0344949D01*
X0103749Y0344949D01*
X0104500Y0344198D01*
X0104500Y0342697D01*
X0103749Y0341946D01*
X0102248Y0340345D02*
X0102999Y0339594D01*
X0102999Y0337342D01*
X0104500Y0337342D02*
X0099996Y0337342D01*
X0099996Y0339594D01*
X0100747Y0340345D01*
X0102248Y0340345D01*
X0099996Y0341946D02*
X0099996Y0344949D01*
X0099996Y0335741D02*
X0099996Y0334239D01*
X0099996Y0334990D02*
X0103749Y0334990D01*
X0104500Y0334239D01*
X0104500Y0333489D01*
X0103749Y0332738D01*
X0096550Y0357500D02*
X0093550Y0357500D01*
X0092550Y0358500D01*
X0091550Y0357500D01*
X0088550Y0357500D01*
X0087550Y0358500D01*
X0086550Y0357500D01*
X0083550Y0357500D01*
X0082550Y0358500D01*
X0081550Y0357500D01*
X0078550Y0357500D01*
X0077550Y0358500D01*
X0076550Y0357500D01*
X0073550Y0357500D01*
X0071550Y0359500D01*
X0071550Y0362500D01*
X0073550Y0364500D01*
X0076550Y0364500D01*
X0077550Y0363500D01*
X0078550Y0364500D01*
X0081550Y0364500D01*
X0082550Y0363500D01*
X0083550Y0364500D01*
X0086550Y0364500D01*
X0087550Y0363500D01*
X0088550Y0364500D01*
X0091550Y0364500D01*
X0092550Y0363500D01*
X0093550Y0364500D01*
X0096550Y0364500D01*
X0098550Y0362500D01*
X0098550Y0359500D01*
X0096550Y0357500D01*
X0096550Y0365000D02*
X0093550Y0365000D01*
X0092550Y0366000D01*
X0091550Y0365000D01*
X0088550Y0365000D01*
X0087550Y0366000D01*
X0086550Y0365000D01*
X0083550Y0365000D01*
X0082550Y0366000D01*
X0081550Y0365000D01*
X0078550Y0365000D01*
X0077550Y0366000D01*
X0076550Y0365000D01*
X0073550Y0365000D01*
X0071550Y0367000D01*
X0071550Y0370000D01*
X0073550Y0372000D01*
X0076550Y0372000D01*
X0077550Y0371000D01*
X0078550Y0372000D01*
X0081550Y0372000D01*
X0082550Y0371000D01*
X0083550Y0372000D01*
X0086550Y0372000D01*
X0087550Y0371000D01*
X0088550Y0372000D01*
X0091550Y0372000D01*
X0092550Y0371000D01*
X0093550Y0372000D01*
X0096550Y0372000D01*
X0098550Y0370000D01*
X0098550Y0367000D01*
X0096550Y0365000D01*
X0126550Y0367000D02*
X0126550Y0370000D01*
X0128550Y0372000D01*
X0131550Y0372000D01*
X0132550Y0371000D01*
X0133550Y0372000D01*
X0136550Y0372000D01*
X0137550Y0371000D01*
X0138550Y0372000D01*
X0141550Y0372000D01*
X0142550Y0371000D01*
X0143550Y0372000D01*
X0146550Y0372000D01*
X0147550Y0371000D01*
X0148550Y0372000D01*
X0151550Y0372000D01*
X0153550Y0370000D01*
X0153550Y0367000D01*
X0151550Y0365000D01*
X0148550Y0365000D01*
X0147550Y0366000D01*
X0146550Y0365000D01*
X0143550Y0365000D01*
X0142550Y0366000D01*
X0141550Y0365000D01*
X0138550Y0365000D01*
X0137550Y0366000D01*
X0136550Y0365000D01*
X0133550Y0365000D01*
X0132550Y0366000D01*
X0131550Y0365000D01*
X0128550Y0365000D01*
X0126550Y0367000D01*
X0128550Y0364500D02*
X0126550Y0362500D01*
X0126550Y0359500D01*
X0128550Y0357500D01*
X0131550Y0357500D01*
X0132550Y0358500D01*
X0133550Y0357500D01*
X0136550Y0357500D01*
X0137550Y0358500D01*
X0138550Y0357500D01*
X0141550Y0357500D01*
X0142550Y0358500D01*
X0143550Y0357500D01*
X0146550Y0357500D01*
X0147550Y0358500D01*
X0148550Y0357500D01*
X0151550Y0357500D01*
X0153550Y0359500D01*
X0153550Y0362500D01*
X0151550Y0364500D01*
X0148550Y0364500D01*
X0147550Y0363500D01*
X0146550Y0364500D01*
X0143550Y0364500D01*
X0142550Y0363500D01*
X0141550Y0364500D01*
X0138550Y0364500D01*
X0137550Y0363500D01*
X0136550Y0364500D01*
X0133550Y0364500D01*
X0132550Y0363500D01*
X0131550Y0364500D01*
X0128550Y0364500D01*
X0139996Y0344949D02*
X0140747Y0343447D01*
X0142248Y0341946D01*
X0142248Y0344198D01*
X0142999Y0344949D01*
X0143749Y0344949D01*
X0144500Y0344198D01*
X0144500Y0342697D01*
X0143749Y0341946D01*
X0142248Y0341946D01*
X0142248Y0340345D02*
X0140747Y0340345D01*
X0139996Y0339594D01*
X0139996Y0337342D01*
X0144500Y0337342D01*
X0142999Y0337342D02*
X0142999Y0339594D01*
X0142248Y0340345D01*
X0139996Y0335741D02*
X0139996Y0334239D01*
X0139996Y0334990D02*
X0143749Y0334990D01*
X0144500Y0334239D01*
X0144500Y0333489D01*
X0143749Y0332738D01*
X0149996Y0334239D02*
X0149996Y0335741D01*
X0149996Y0334990D02*
X0153749Y0334990D01*
X0154500Y0334239D01*
X0154500Y0333489D01*
X0153749Y0332738D01*
X0152999Y0337342D02*
X0152999Y0339594D01*
X0152248Y0340345D01*
X0150747Y0340345D01*
X0149996Y0339594D01*
X0149996Y0337342D01*
X0154500Y0337342D01*
X0154500Y0341946D02*
X0153749Y0341946D01*
X0150747Y0344949D01*
X0149996Y0344949D01*
X0149996Y0341946D01*
X0153550Y0357500D02*
X0151550Y0359500D01*
X0151550Y0362500D01*
X0153550Y0364500D01*
X0156550Y0364500D01*
X0157550Y0363500D01*
X0158550Y0364500D01*
X0161550Y0364500D01*
X0162550Y0363500D01*
X0163550Y0364500D01*
X0166550Y0364500D01*
X0167550Y0363500D01*
X0168550Y0364500D01*
X0171550Y0364500D01*
X0172550Y0363500D01*
X0173550Y0364500D01*
X0176550Y0364500D01*
X0178550Y0362500D01*
X0178550Y0359500D01*
X0176550Y0357500D01*
X0173550Y0357500D01*
X0172550Y0358500D01*
X0171550Y0357500D01*
X0168550Y0357500D01*
X0167550Y0358500D01*
X0166550Y0357500D01*
X0163550Y0357500D01*
X0162550Y0358500D01*
X0161550Y0357500D01*
X0158550Y0357500D01*
X0157550Y0358500D01*
X0156550Y0357500D01*
X0153550Y0357500D01*
X0153550Y0365000D02*
X0151550Y0367000D01*
X0151550Y0370000D01*
X0153550Y0372000D01*
X0156550Y0372000D01*
X0157550Y0371000D01*
X0158550Y0372000D01*
X0161550Y0372000D01*
X0162550Y0371000D01*
X0163550Y0372000D01*
X0166550Y0372000D01*
X0167550Y0371000D01*
X0168550Y0372000D01*
X0171550Y0372000D01*
X0172550Y0371000D01*
X0173550Y0372000D01*
X0176550Y0372000D01*
X0178550Y0370000D01*
X0178550Y0367000D01*
X0176550Y0365000D01*
X0173550Y0365000D01*
X0172550Y0366000D01*
X0171550Y0365000D01*
X0168550Y0365000D01*
X0167550Y0366000D01*
X0166550Y0365000D01*
X0163550Y0365000D01*
X0162550Y0366000D01*
X0161550Y0365000D01*
X0158550Y0365000D01*
X0157550Y0366000D01*
X0156550Y0365000D01*
X0153550Y0365000D01*
X0160747Y0344949D02*
X0161497Y0344949D01*
X0162248Y0344198D01*
X0162248Y0342697D01*
X0161497Y0341946D01*
X0160747Y0341946D01*
X0159996Y0342697D01*
X0159996Y0344198D01*
X0160747Y0344949D01*
X0162248Y0344198D02*
X0162999Y0344949D01*
X0163749Y0344949D01*
X0164500Y0344198D01*
X0164500Y0342697D01*
X0163749Y0341946D01*
X0162999Y0341946D01*
X0162248Y0342697D01*
X0162248Y0340345D02*
X0160747Y0340345D01*
X0159996Y0339594D01*
X0159996Y0337342D01*
X0164500Y0337342D01*
X0162999Y0337342D02*
X0162999Y0339594D01*
X0162248Y0340345D01*
X0159996Y0335741D02*
X0159996Y0334239D01*
X0159996Y0334990D02*
X0163749Y0334990D01*
X0164500Y0334239D01*
X0164500Y0333489D01*
X0163749Y0332738D01*
X0169996Y0334239D02*
X0169996Y0335741D01*
X0169996Y0334990D02*
X0173749Y0334990D01*
X0174500Y0334239D01*
X0174500Y0333489D01*
X0173749Y0332738D01*
X0172999Y0337342D02*
X0172999Y0339594D01*
X0172248Y0340345D01*
X0170747Y0340345D01*
X0169996Y0339594D01*
X0169996Y0337342D01*
X0174500Y0337342D01*
X0173749Y0341946D02*
X0174500Y0342697D01*
X0174500Y0344198D01*
X0173749Y0344949D01*
X0170747Y0344949D01*
X0169996Y0344198D01*
X0169996Y0342697D01*
X0170747Y0341946D01*
X0171497Y0341946D01*
X0172248Y0342697D01*
X0172248Y0344949D01*
X0179996Y0344198D02*
X0180747Y0344949D01*
X0183749Y0341946D01*
X0184500Y0342697D01*
X0184500Y0344198D01*
X0183749Y0344949D01*
X0180747Y0344949D01*
X0179996Y0344198D02*
X0179996Y0342697D01*
X0180747Y0341946D01*
X0183749Y0341946D01*
X0184500Y0340345D02*
X0184500Y0337342D01*
X0184500Y0338843D02*
X0179996Y0338843D01*
X0181497Y0337342D01*
X0180747Y0335741D02*
X0182248Y0335741D01*
X0182999Y0334990D01*
X0182999Y0332738D01*
X0184500Y0332738D02*
X0179996Y0332738D01*
X0179996Y0334990D01*
X0180747Y0335741D01*
X0179996Y0331137D02*
X0179996Y0329636D01*
X0179996Y0330386D02*
X0183749Y0330386D01*
X0184500Y0329636D01*
X0184500Y0328885D01*
X0183749Y0328134D01*
X0189050Y0327000D02*
X0190050Y0326000D01*
X0189050Y0325000D01*
X0189050Y0322000D01*
X0191050Y0320000D01*
X0194050Y0320000D01*
X0196050Y0322000D01*
X0196050Y0325000D01*
X0195050Y0326000D01*
X0196050Y0327000D01*
X0196050Y0330000D01*
X0195050Y0331000D01*
X0196050Y0332000D01*
X0196050Y0335000D01*
X0195050Y0336000D01*
X0196050Y0337000D01*
X0196050Y0340000D01*
X0195050Y0341000D01*
X0196050Y0342000D01*
X0196050Y0345000D01*
X0194050Y0347000D01*
X0191050Y0347000D01*
X0189050Y0345000D01*
X0189050Y0342000D01*
X0190050Y0341000D01*
X0189050Y0340000D01*
X0189050Y0337000D01*
X0190050Y0336000D01*
X0189050Y0335000D01*
X0189050Y0332000D01*
X0190050Y0331000D01*
X0189050Y0330000D01*
X0189050Y0327000D01*
X0191050Y0322000D02*
X0194050Y0322000D01*
X0196050Y0320000D01*
X0196050Y0317000D01*
X0195050Y0316000D01*
X0196050Y0315000D01*
X0196050Y0312000D01*
X0195050Y0311000D01*
X0196050Y0310000D01*
X0196050Y0307000D01*
X0195050Y0306000D01*
X0196050Y0305000D01*
X0196050Y0302000D01*
X0195050Y0301000D01*
X0196050Y0300000D01*
X0196050Y0297000D01*
X0194050Y0295000D01*
X0191050Y0295000D01*
X0189050Y0297000D01*
X0189050Y0300000D01*
X0190050Y0301000D01*
X0189050Y0302000D01*
X0189050Y0305000D01*
X0190050Y0306000D01*
X0189050Y0307000D01*
X0189050Y0310000D01*
X0190050Y0311000D01*
X0189050Y0312000D01*
X0189050Y0315000D01*
X0190050Y0316000D01*
X0189050Y0317000D01*
X0189050Y0320000D01*
X0191050Y0322000D01*
X0196550Y0322000D02*
X0198550Y0320000D01*
X0201550Y0320000D01*
X0203550Y0322000D01*
X0203550Y0325000D01*
X0202550Y0326000D01*
X0203550Y0327000D01*
X0203550Y0330000D01*
X0202550Y0331000D01*
X0203550Y0332000D01*
X0203550Y0335000D01*
X0202550Y0336000D01*
X0203550Y0337000D01*
X0203550Y0340000D01*
X0202550Y0341000D01*
X0203550Y0342000D01*
X0203550Y0345000D01*
X0201550Y0347000D01*
X0198550Y0347000D01*
X0196550Y0345000D01*
X0196550Y0342000D01*
X0197550Y0341000D01*
X0196550Y0340000D01*
X0196550Y0337000D01*
X0197550Y0336000D01*
X0196550Y0335000D01*
X0196550Y0332000D01*
X0197550Y0331000D01*
X0196550Y0330000D01*
X0196550Y0327000D01*
X0197550Y0326000D01*
X0196550Y0325000D01*
X0196550Y0322000D01*
X0198550Y0322000D02*
X0196550Y0320000D01*
X0196550Y0317000D01*
X0197550Y0316000D01*
X0196550Y0315000D01*
X0196550Y0312000D01*
X0197550Y0311000D01*
X0196550Y0310000D01*
X0196550Y0307000D01*
X0197550Y0306000D01*
X0196550Y0305000D01*
X0196550Y0302000D01*
X0197550Y0301000D01*
X0196550Y0300000D01*
X0196550Y0297000D01*
X0198550Y0295000D01*
X0201550Y0295000D01*
X0203550Y0297000D01*
X0203550Y0300000D01*
X0202550Y0301000D01*
X0203550Y0302000D01*
X0203550Y0305000D01*
X0202550Y0306000D01*
X0203550Y0307000D01*
X0203550Y0310000D01*
X0202550Y0311000D01*
X0203550Y0312000D01*
X0203550Y0315000D01*
X0202550Y0316000D01*
X0203550Y0317000D01*
X0203550Y0320000D01*
X0201550Y0322000D01*
X0198550Y0322000D01*
X0198550Y0297000D02*
X0196550Y0295000D01*
X0196550Y0292000D01*
X0197550Y0291000D01*
X0196550Y0290000D01*
X0196550Y0287000D01*
X0197550Y0286000D01*
X0196550Y0285000D01*
X0196550Y0282000D01*
X0197550Y0281000D01*
X0196550Y0280000D01*
X0196550Y0277000D01*
X0197550Y0276000D01*
X0196550Y0275000D01*
X0196550Y0272000D01*
X0198550Y0270000D01*
X0201550Y0270000D01*
X0203550Y0272000D01*
X0203550Y0275000D01*
X0202550Y0276000D01*
X0203550Y0277000D01*
X0203550Y0280000D01*
X0202550Y0281000D01*
X0203550Y0282000D01*
X0203550Y0285000D01*
X0202550Y0286000D01*
X0203550Y0287000D01*
X0203550Y0290000D01*
X0202550Y0291000D01*
X0203550Y0292000D01*
X0203550Y0295000D01*
X0201550Y0297000D01*
X0198550Y0297000D01*
X0196050Y0295000D02*
X0196050Y0292000D01*
X0195050Y0291000D01*
X0196050Y0290000D01*
X0196050Y0287000D01*
X0195050Y0286000D01*
X0196050Y0285000D01*
X0196050Y0282000D01*
X0195050Y0281000D01*
X0196050Y0280000D01*
X0196050Y0277000D01*
X0195050Y0276000D01*
X0196050Y0275000D01*
X0196050Y0272000D01*
X0194050Y0270000D01*
X0191050Y0270000D01*
X0189050Y0272000D01*
X0189050Y0275000D01*
X0190050Y0276000D01*
X0189050Y0277000D01*
X0189050Y0280000D01*
X0190050Y0281000D01*
X0189050Y0282000D01*
X0189050Y0285000D01*
X0190050Y0286000D01*
X0189050Y0287000D01*
X0189050Y0290000D01*
X0190050Y0291000D01*
X0189050Y0292000D01*
X0189050Y0295000D01*
X0191050Y0297000D01*
X0194050Y0297000D01*
X0196050Y0295000D01*
X0194050Y0272000D02*
X0191050Y0272000D01*
X0189050Y0270000D01*
X0189050Y0267000D01*
X0190050Y0266000D01*
X0189050Y0265000D01*
X0189050Y0262000D01*
X0190050Y0261000D01*
X0189050Y0260000D01*
X0189050Y0257000D01*
X0190050Y0256000D01*
X0189050Y0255000D01*
X0189050Y0252000D01*
X0190050Y0251000D01*
X0189050Y0250000D01*
X0189050Y0247000D01*
X0191050Y0245000D01*
X0194050Y0245000D01*
X0196050Y0247000D01*
X0196050Y0250000D01*
X0195050Y0251000D01*
X0196050Y0252000D01*
X0196050Y0255000D01*
X0195050Y0256000D01*
X0196050Y0257000D01*
X0196050Y0260000D01*
X0195050Y0261000D01*
X0196050Y0262000D01*
X0196050Y0265000D01*
X0195050Y0266000D01*
X0196050Y0267000D01*
X0196050Y0270000D01*
X0194050Y0272000D01*
X0196550Y0270000D02*
X0198550Y0272000D01*
X0201550Y0272000D01*
X0203550Y0270000D01*
X0203550Y0267000D01*
X0202550Y0266000D01*
X0203550Y0265000D01*
X0203550Y0262000D01*
X0202550Y0261000D01*
X0203550Y0260000D01*
X0203550Y0257000D01*
X0202550Y0256000D01*
X0203550Y0255000D01*
X0203550Y0252000D01*
X0202550Y0251000D01*
X0203550Y0250000D01*
X0203550Y0247000D01*
X0201550Y0245000D01*
X0198550Y0245000D01*
X0196550Y0247000D01*
X0196550Y0250000D01*
X0197550Y0251000D01*
X0196550Y0252000D01*
X0196550Y0255000D01*
X0197550Y0256000D01*
X0196550Y0257000D01*
X0196550Y0260000D01*
X0197550Y0261000D01*
X0196550Y0262000D01*
X0196550Y0265000D01*
X0197550Y0266000D01*
X0196550Y0267000D01*
X0196550Y0270000D01*
X0198550Y0247000D02*
X0201550Y0247000D01*
X0203550Y0245000D01*
X0203550Y0242000D01*
X0202550Y0241000D01*
X0203550Y0240000D01*
X0203550Y0237000D01*
X0202550Y0236000D01*
X0203550Y0235000D01*
X0203550Y0232000D01*
X0202550Y0231000D01*
X0203550Y0230000D01*
X0203550Y0227000D01*
X0202550Y0226000D01*
X0203550Y0225000D01*
X0203550Y0222000D01*
X0201550Y0220000D01*
X0198550Y0220000D01*
X0196550Y0222000D01*
X0196550Y0225000D01*
X0197550Y0226000D01*
X0196550Y0227000D01*
X0196550Y0230000D01*
X0197550Y0231000D01*
X0196550Y0232000D01*
X0196550Y0235000D01*
X0197550Y0236000D01*
X0196550Y0237000D01*
X0196550Y0240000D01*
X0197550Y0241000D01*
X0196550Y0242000D01*
X0196550Y0245000D01*
X0198550Y0247000D01*
X0196050Y0245000D02*
X0194050Y0247000D01*
X0191050Y0247000D01*
X0189050Y0245000D01*
X0189050Y0242000D01*
X0190050Y0241000D01*
X0189050Y0240000D01*
X0189050Y0237000D01*
X0190050Y0236000D01*
X0189050Y0235000D01*
X0189050Y0232000D01*
X0190050Y0231000D01*
X0189050Y0230000D01*
X0189050Y0227000D01*
X0190050Y0226000D01*
X0189050Y0225000D01*
X0189050Y0222000D01*
X0191050Y0220000D01*
X0194050Y0220000D01*
X0196050Y0222000D01*
X0196050Y0225000D01*
X0195050Y0226000D01*
X0196050Y0227000D01*
X0196050Y0230000D01*
X0195050Y0231000D01*
X0196050Y0232000D01*
X0196050Y0235000D01*
X0195050Y0236000D01*
X0196050Y0237000D01*
X0196050Y0240000D01*
X0195050Y0241000D01*
X0196050Y0242000D01*
X0196050Y0245000D01*
X0194050Y0222000D02*
X0191050Y0222000D01*
X0189050Y0220000D01*
X0189050Y0217000D01*
X0190050Y0216000D01*
X0189050Y0215000D01*
X0189050Y0212000D01*
X0190050Y0211000D01*
X0189050Y0210000D01*
X0189050Y0207000D01*
X0190050Y0206000D01*
X0189050Y0205000D01*
X0189050Y0202000D01*
X0190050Y0201000D01*
X0189050Y0200000D01*
X0189050Y0197000D01*
X0191050Y0195000D01*
X0194050Y0195000D01*
X0196050Y0197000D01*
X0196050Y0200000D01*
X0195050Y0201000D01*
X0196050Y0202000D01*
X0196050Y0205000D01*
X0195050Y0206000D01*
X0196050Y0207000D01*
X0196050Y0210000D01*
X0195050Y0211000D01*
X0196050Y0212000D01*
X0196050Y0215000D01*
X0195050Y0216000D01*
X0196050Y0217000D01*
X0196050Y0220000D01*
X0194050Y0222000D01*
X0196550Y0220000D02*
X0196550Y0217000D01*
X0197550Y0216000D01*
X0196550Y0215000D01*
X0196550Y0212000D01*
X0197550Y0211000D01*
X0196550Y0210000D01*
X0196550Y0207000D01*
X0197550Y0206000D01*
X0196550Y0205000D01*
X0196550Y0202000D01*
X0197550Y0201000D01*
X0196550Y0200000D01*
X0196550Y0197000D01*
X0198550Y0195000D01*
X0201550Y0195000D01*
X0203550Y0197000D01*
X0203550Y0200000D01*
X0202550Y0201000D01*
X0203550Y0202000D01*
X0203550Y0205000D01*
X0202550Y0206000D01*
X0203550Y0207000D01*
X0203550Y0210000D01*
X0202550Y0211000D01*
X0203550Y0212000D01*
X0203550Y0215000D01*
X0202550Y0216000D01*
X0203550Y0217000D01*
X0203550Y0220000D01*
X0201550Y0222000D01*
X0198550Y0222000D01*
X0196550Y0220000D01*
D13*
X0197599Y0219827D02*
X0197849Y0220078D01*
X0198850Y0219077D01*
X0199100Y0219327D01*
X0199100Y0219827D01*
X0198850Y0220078D01*
X0197849Y0220078D01*
X0197599Y0219827D02*
X0197599Y0219327D01*
X0197849Y0219077D01*
X0198850Y0219077D01*
X0197849Y0218604D02*
X0198850Y0217603D01*
X0199100Y0217603D01*
X0198600Y0216881D02*
X0198600Y0216130D01*
X0199100Y0216130D02*
X0197599Y0216130D01*
X0197599Y0216881D01*
X0197849Y0217131D01*
X0198349Y0217131D01*
X0198600Y0216881D01*
X0197599Y0217603D02*
X0197599Y0218604D01*
X0197849Y0218604D01*
X0197599Y0215658D02*
X0197599Y0215157D01*
X0197599Y0215408D02*
X0198850Y0215408D01*
X0199100Y0215157D01*
X0199100Y0214907D01*
X0198850Y0214657D01*
X0205099Y0215157D02*
X0205099Y0215658D01*
X0205099Y0215408D02*
X0206350Y0215408D01*
X0206600Y0215157D01*
X0206600Y0214907D01*
X0206350Y0214657D01*
X0206600Y0216130D02*
X0205099Y0216130D01*
X0205099Y0216881D01*
X0205349Y0217131D01*
X0205849Y0217131D01*
X0206100Y0216881D01*
X0206100Y0216130D01*
X0206100Y0217603D02*
X0205849Y0217854D01*
X0205849Y0218354D01*
X0206100Y0218604D01*
X0206350Y0218604D01*
X0206600Y0218354D01*
X0206600Y0217854D01*
X0206350Y0217603D01*
X0206100Y0217603D01*
X0205849Y0217854D02*
X0205599Y0217603D01*
X0205349Y0217603D01*
X0205099Y0217854D01*
X0205099Y0218354D01*
X0205349Y0218604D01*
X0205599Y0218604D01*
X0205849Y0218354D01*
X0205349Y0219077D02*
X0205099Y0219327D01*
X0205099Y0219827D01*
X0205349Y0220078D01*
X0205599Y0220078D01*
X0206600Y0219077D01*
X0206600Y0220078D01*
X0206350Y0239657D02*
X0206600Y0239907D01*
X0206600Y0240157D01*
X0206350Y0240408D01*
X0205099Y0240408D01*
X0205099Y0240658D02*
X0205099Y0240157D01*
X0205099Y0241130D02*
X0205099Y0241881D01*
X0205349Y0242131D01*
X0205849Y0242131D01*
X0206100Y0241881D01*
X0206100Y0241130D01*
X0206600Y0241130D02*
X0205099Y0241130D01*
X0205349Y0242603D02*
X0205599Y0242603D01*
X0205849Y0242854D01*
X0205849Y0243354D01*
X0206100Y0243604D01*
X0206350Y0243604D01*
X0206600Y0243354D01*
X0206600Y0242854D01*
X0206350Y0242603D01*
X0206100Y0242603D01*
X0205849Y0242854D01*
X0205849Y0243354D02*
X0205599Y0243604D01*
X0205349Y0243604D01*
X0205099Y0243354D01*
X0205099Y0242854D01*
X0205349Y0242603D01*
X0205599Y0244077D02*
X0205099Y0244577D01*
X0206600Y0244577D01*
X0206600Y0244077D02*
X0206600Y0245078D01*
X0199100Y0244827D02*
X0198850Y0245078D01*
X0197849Y0245078D01*
X0197599Y0244827D01*
X0197599Y0244327D01*
X0197849Y0244077D01*
X0198099Y0244077D01*
X0198349Y0244327D01*
X0198349Y0245078D01*
X0199100Y0244827D02*
X0199100Y0244327D01*
X0198850Y0244077D01*
X0198850Y0243604D02*
X0198600Y0243604D01*
X0198349Y0243354D01*
X0198349Y0242603D01*
X0198850Y0242603D01*
X0199100Y0242854D01*
X0199100Y0243354D01*
X0198850Y0243604D01*
X0197849Y0243104D02*
X0198349Y0242603D01*
X0198349Y0242131D02*
X0198600Y0241881D01*
X0198600Y0241130D01*
X0199100Y0241130D02*
X0197599Y0241130D01*
X0197599Y0241881D01*
X0197849Y0242131D01*
X0198349Y0242131D01*
X0197849Y0243104D02*
X0197599Y0243604D01*
X0197599Y0240658D02*
X0197599Y0240157D01*
X0197599Y0240408D02*
X0198850Y0240408D01*
X0199100Y0240157D01*
X0199100Y0239907D01*
X0198850Y0239657D01*
X0198850Y0264657D02*
X0199100Y0264907D01*
X0199100Y0265157D01*
X0198850Y0265408D01*
X0197599Y0265408D01*
X0197599Y0265658D02*
X0197599Y0265157D01*
X0197599Y0266130D02*
X0197599Y0266881D01*
X0197849Y0267131D01*
X0198349Y0267131D01*
X0198600Y0266881D01*
X0198600Y0266130D01*
X0199100Y0266130D02*
X0197599Y0266130D01*
X0198349Y0267603D02*
X0198349Y0268354D01*
X0198600Y0268604D01*
X0198850Y0268604D01*
X0199100Y0268354D01*
X0199100Y0267854D01*
X0198850Y0267603D01*
X0198349Y0267603D01*
X0197849Y0268104D01*
X0197599Y0268604D01*
X0197849Y0269077D02*
X0198099Y0269077D01*
X0198349Y0269327D01*
X0198349Y0269827D01*
X0198600Y0270078D01*
X0198850Y0270078D01*
X0199100Y0269827D01*
X0199100Y0269327D01*
X0198850Y0269077D01*
X0198600Y0269077D01*
X0198349Y0269327D01*
X0198349Y0269827D02*
X0198099Y0270078D01*
X0197849Y0270078D01*
X0197599Y0269827D01*
X0197599Y0269327D01*
X0197849Y0269077D01*
X0205099Y0269327D02*
X0205099Y0269827D01*
X0205349Y0270078D01*
X0206350Y0269077D01*
X0206600Y0269327D01*
X0206600Y0269827D01*
X0206350Y0270078D01*
X0205349Y0270078D01*
X0205099Y0269327D02*
X0205349Y0269077D01*
X0206350Y0269077D01*
X0206350Y0268604D02*
X0206600Y0268354D01*
X0206600Y0267854D01*
X0206350Y0267603D01*
X0206100Y0267603D01*
X0205849Y0267854D01*
X0205849Y0268354D01*
X0206100Y0268604D01*
X0206350Y0268604D01*
X0205849Y0268354D02*
X0205599Y0268604D01*
X0205349Y0268604D01*
X0205099Y0268354D01*
X0205099Y0267854D01*
X0205349Y0267603D01*
X0205599Y0267603D01*
X0205849Y0267854D01*
X0205849Y0267131D02*
X0206100Y0266881D01*
X0206100Y0266130D01*
X0206600Y0266130D02*
X0205099Y0266130D01*
X0205099Y0266881D01*
X0205349Y0267131D01*
X0205849Y0267131D01*
X0205099Y0265658D02*
X0205099Y0265157D01*
X0205099Y0265408D02*
X0206350Y0265408D01*
X0206600Y0265157D01*
X0206600Y0264907D01*
X0206350Y0264657D01*
X0206350Y0289657D02*
X0206600Y0289907D01*
X0206600Y0290157D01*
X0206350Y0290408D01*
X0205099Y0290408D01*
X0205099Y0290658D02*
X0205099Y0290157D01*
X0205099Y0291130D02*
X0205099Y0291881D01*
X0205349Y0292131D01*
X0205849Y0292131D01*
X0206100Y0291881D01*
X0206100Y0291130D01*
X0206600Y0291130D02*
X0205099Y0291130D01*
X0205099Y0292603D02*
X0205099Y0293604D01*
X0205349Y0293604D01*
X0206350Y0292603D01*
X0206600Y0292603D01*
X0206350Y0294077D02*
X0206600Y0294327D01*
X0206600Y0294827D01*
X0206350Y0295078D01*
X0205349Y0295078D01*
X0205099Y0294827D01*
X0205099Y0294327D01*
X0205349Y0294077D01*
X0205599Y0294077D01*
X0205849Y0294327D01*
X0205849Y0295078D01*
X0199100Y0294077D02*
X0198850Y0294077D01*
X0197849Y0295078D01*
X0197599Y0295078D01*
X0197599Y0294077D01*
X0197599Y0293604D02*
X0197849Y0293104D01*
X0198349Y0292603D01*
X0198349Y0293354D01*
X0198600Y0293604D01*
X0198850Y0293604D01*
X0199100Y0293354D01*
X0199100Y0292854D01*
X0198850Y0292603D01*
X0198349Y0292603D01*
X0198349Y0292131D02*
X0198600Y0291881D01*
X0198600Y0291130D01*
X0199100Y0291130D02*
X0197599Y0291130D01*
X0197599Y0291881D01*
X0197849Y0292131D01*
X0198349Y0292131D01*
X0197599Y0290658D02*
X0197599Y0290157D01*
X0197599Y0290408D02*
X0198850Y0290408D01*
X0199100Y0290157D01*
X0199100Y0289907D01*
X0198850Y0289657D01*
X0198850Y0314657D02*
X0199100Y0314907D01*
X0199100Y0315157D01*
X0198850Y0315408D01*
X0197599Y0315408D01*
X0197599Y0315658D02*
X0197599Y0315157D01*
X0197599Y0316130D02*
X0197599Y0316881D01*
X0197849Y0317131D01*
X0198349Y0317131D01*
X0198600Y0316881D01*
X0198600Y0316130D01*
X0199100Y0316130D02*
X0197599Y0316130D01*
X0198349Y0317603D02*
X0198349Y0318354D01*
X0198600Y0318604D01*
X0198850Y0318604D01*
X0199100Y0318354D01*
X0199100Y0317854D01*
X0198850Y0317603D01*
X0198349Y0317603D01*
X0197849Y0318104D01*
X0197599Y0318604D01*
X0198349Y0319077D02*
X0198349Y0319827D01*
X0198600Y0320078D01*
X0198850Y0320078D01*
X0199100Y0319827D01*
X0199100Y0319327D01*
X0198850Y0319077D01*
X0198349Y0319077D01*
X0197849Y0319577D01*
X0197599Y0320078D01*
X0205099Y0319827D02*
X0205349Y0320078D01*
X0205599Y0320078D01*
X0205849Y0319827D01*
X0205849Y0319327D01*
X0205599Y0319077D01*
X0205349Y0319077D01*
X0205099Y0319327D01*
X0205099Y0319827D01*
X0205849Y0319827D02*
X0206100Y0320078D01*
X0206350Y0320078D01*
X0206600Y0319827D01*
X0206600Y0319327D01*
X0206350Y0319077D01*
X0206100Y0319077D01*
X0205849Y0319327D01*
X0205349Y0318604D02*
X0206350Y0317603D01*
X0206600Y0317603D01*
X0206100Y0316881D02*
X0206100Y0316130D01*
X0206600Y0316130D02*
X0205099Y0316130D01*
X0205099Y0316881D01*
X0205349Y0317131D01*
X0205849Y0317131D01*
X0206100Y0316881D01*
X0205099Y0317603D02*
X0205099Y0318604D01*
X0205349Y0318604D01*
X0205099Y0315658D02*
X0205099Y0315157D01*
X0205099Y0315408D02*
X0206350Y0315408D01*
X0206600Y0315157D01*
X0206600Y0314907D01*
X0206350Y0314657D01*
X0206350Y0339657D02*
X0206600Y0339907D01*
X0206600Y0340157D01*
X0206350Y0340408D01*
X0205099Y0340408D01*
X0205099Y0340658D02*
X0205099Y0340157D01*
X0205099Y0341130D02*
X0205099Y0341881D01*
X0205349Y0342131D01*
X0205849Y0342131D01*
X0206100Y0341881D01*
X0206100Y0341130D01*
X0206600Y0341130D02*
X0205099Y0341130D01*
X0205099Y0342603D02*
X0205099Y0343604D01*
X0205349Y0343604D01*
X0206350Y0342603D01*
X0206600Y0342603D01*
X0206600Y0344077D02*
X0206350Y0344077D01*
X0205349Y0345078D01*
X0205099Y0345078D01*
X0205099Y0344077D01*
X0199100Y0344327D02*
X0198850Y0344077D01*
X0199100Y0344327D02*
X0199100Y0344827D01*
X0198850Y0345078D01*
X0198349Y0345078D01*
X0198099Y0344827D01*
X0198099Y0344577D01*
X0198349Y0344077D01*
X0197599Y0344077D01*
X0197599Y0345078D01*
X0197599Y0343604D02*
X0197849Y0343104D01*
X0198349Y0342603D01*
X0198349Y0343354D01*
X0198600Y0343604D01*
X0198850Y0343604D01*
X0199100Y0343354D01*
X0199100Y0342854D01*
X0198850Y0342603D01*
X0198349Y0342603D01*
X0198349Y0342131D02*
X0198600Y0341881D01*
X0198600Y0341130D01*
X0199100Y0341130D02*
X0197599Y0341130D01*
X0197599Y0341881D01*
X0197849Y0342131D01*
X0198349Y0342131D01*
X0197599Y0340658D02*
X0197599Y0340157D01*
X0197599Y0340408D02*
X0198850Y0340408D01*
X0199100Y0340157D01*
X0199100Y0339907D01*
X0198850Y0339657D01*
X0158521Y0366300D02*
X0158521Y0366550D01*
X0158270Y0366801D01*
X0157520Y0366801D01*
X0157520Y0366300D01*
X0157770Y0366050D01*
X0158270Y0366050D01*
X0158521Y0366300D01*
X0158020Y0367301D02*
X0157520Y0366801D01*
X0157047Y0366801D02*
X0156297Y0366801D01*
X0156047Y0367051D01*
X0156047Y0367301D01*
X0156297Y0367551D01*
X0156797Y0367551D01*
X0157047Y0367301D01*
X0157047Y0366300D01*
X0156797Y0366050D01*
X0156297Y0366050D01*
X0156047Y0366300D01*
X0155574Y0366801D02*
X0155324Y0366550D01*
X0154573Y0366550D01*
X0154573Y0366050D02*
X0154573Y0367551D01*
X0155324Y0367551D01*
X0155574Y0367301D01*
X0155574Y0366801D01*
X0154101Y0367551D02*
X0153600Y0367551D01*
X0153851Y0367551D02*
X0153851Y0366300D01*
X0153600Y0366050D01*
X0153350Y0366050D01*
X0153100Y0366300D01*
X0158020Y0367301D02*
X0158521Y0367551D01*
X0158270Y0373550D02*
X0158270Y0375051D01*
X0157520Y0374301D01*
X0158521Y0374301D01*
X0157047Y0374301D02*
X0156297Y0374301D01*
X0156047Y0374551D01*
X0156047Y0374801D01*
X0156297Y0375051D01*
X0156797Y0375051D01*
X0157047Y0374801D01*
X0157047Y0373800D01*
X0156797Y0373550D01*
X0156297Y0373550D01*
X0156047Y0373800D01*
X0155574Y0374301D02*
X0155324Y0374050D01*
X0154573Y0374050D01*
X0154573Y0373550D02*
X0154573Y0375051D01*
X0155324Y0375051D01*
X0155574Y0374801D01*
X0155574Y0374301D01*
X0154101Y0375051D02*
X0153600Y0375051D01*
X0153851Y0375051D02*
X0153851Y0373800D01*
X0153600Y0373550D01*
X0153350Y0373550D01*
X0153100Y0373800D01*
X0133521Y0373800D02*
X0133270Y0373550D01*
X0132770Y0373550D01*
X0132520Y0373800D01*
X0132047Y0373800D02*
X0132047Y0374801D01*
X0131797Y0375051D01*
X0131297Y0375051D01*
X0131047Y0374801D01*
X0131047Y0374551D01*
X0131297Y0374301D01*
X0132047Y0374301D01*
X0132047Y0373800D02*
X0131797Y0373550D01*
X0131297Y0373550D01*
X0131047Y0373800D01*
X0130574Y0374301D02*
X0130324Y0374050D01*
X0129573Y0374050D01*
X0129573Y0373550D02*
X0129573Y0375051D01*
X0130324Y0375051D01*
X0130574Y0374801D01*
X0130574Y0374301D01*
X0129101Y0375051D02*
X0128600Y0375051D01*
X0128851Y0375051D02*
X0128851Y0373800D01*
X0128600Y0373550D01*
X0128350Y0373550D01*
X0128100Y0373800D01*
X0132520Y0374801D02*
X0132770Y0375051D01*
X0133270Y0375051D01*
X0133521Y0374801D01*
X0133521Y0374551D01*
X0133270Y0374301D01*
X0133521Y0374050D01*
X0133521Y0373800D01*
X0133270Y0374301D02*
X0133020Y0374301D01*
X0132520Y0367551D02*
X0132520Y0366801D01*
X0133020Y0367051D01*
X0133270Y0367051D01*
X0133521Y0366801D01*
X0133521Y0366300D01*
X0133270Y0366050D01*
X0132770Y0366050D01*
X0132520Y0366300D01*
X0132047Y0366300D02*
X0132047Y0367301D01*
X0131797Y0367551D01*
X0131297Y0367551D01*
X0131047Y0367301D01*
X0131047Y0367051D01*
X0131297Y0366801D01*
X0132047Y0366801D01*
X0132047Y0366300D02*
X0131797Y0366050D01*
X0131297Y0366050D01*
X0131047Y0366300D01*
X0130574Y0366801D02*
X0130324Y0366550D01*
X0129573Y0366550D01*
X0129573Y0366050D02*
X0129573Y0367551D01*
X0130324Y0367551D01*
X0130574Y0367301D01*
X0130574Y0366801D01*
X0129101Y0367551D02*
X0128600Y0367551D01*
X0128851Y0367551D02*
X0128851Y0366300D01*
X0128600Y0366050D01*
X0128350Y0366050D01*
X0128100Y0366300D01*
X0132520Y0367551D02*
X0133521Y0367551D01*
X0078521Y0367301D02*
X0077520Y0366300D01*
X0077770Y0366050D01*
X0078270Y0366050D01*
X0078521Y0366300D01*
X0078521Y0367301D01*
X0078270Y0367551D01*
X0077770Y0367551D01*
X0077520Y0367301D01*
X0077520Y0366300D01*
X0077047Y0366300D02*
X0077047Y0367301D01*
X0076797Y0367551D01*
X0076297Y0367551D01*
X0076047Y0367301D01*
X0076047Y0367051D01*
X0076297Y0366801D01*
X0077047Y0366801D01*
X0077047Y0366300D02*
X0076797Y0366050D01*
X0076297Y0366050D01*
X0076047Y0366300D01*
X0075574Y0366801D02*
X0075324Y0366550D01*
X0074573Y0366550D01*
X0074573Y0366050D02*
X0074573Y0367551D01*
X0075324Y0367551D01*
X0075574Y0367301D01*
X0075574Y0366801D01*
X0074101Y0367551D02*
X0073600Y0367551D01*
X0073851Y0367551D02*
X0073851Y0366300D01*
X0073600Y0366050D01*
X0073350Y0366050D01*
X0073100Y0366300D01*
X0073350Y0373550D02*
X0073600Y0373550D01*
X0073851Y0373800D01*
X0073851Y0375051D01*
X0074101Y0375051D02*
X0073600Y0375051D01*
X0074573Y0375051D02*
X0075324Y0375051D01*
X0075574Y0374801D01*
X0075574Y0374301D01*
X0075324Y0374050D01*
X0074573Y0374050D01*
X0074573Y0373550D02*
X0074573Y0375051D01*
X0076047Y0374801D02*
X0076047Y0374551D01*
X0076297Y0374301D01*
X0077047Y0374301D01*
X0077047Y0374801D02*
X0076797Y0375051D01*
X0076297Y0375051D01*
X0076047Y0374801D01*
X0077047Y0374801D02*
X0077047Y0373800D01*
X0076797Y0373550D01*
X0076297Y0373550D01*
X0076047Y0373800D01*
X0077520Y0373550D02*
X0078521Y0374551D01*
X0078521Y0374801D01*
X0078270Y0375051D01*
X0077770Y0375051D01*
X0077520Y0374801D01*
X0077520Y0373550D02*
X0078521Y0373550D01*
X0073350Y0373550D02*
X0073100Y0373800D01*
X0053521Y0373550D02*
X0052520Y0373550D01*
X0053020Y0373550D02*
X0053020Y0375051D01*
X0052520Y0374551D01*
X0052047Y0374801D02*
X0051797Y0375051D01*
X0051297Y0375051D01*
X0051047Y0374801D01*
X0051047Y0374551D01*
X0051297Y0374301D01*
X0052047Y0374301D01*
X0052047Y0374801D02*
X0052047Y0373800D01*
X0051797Y0373550D01*
X0051297Y0373550D01*
X0051047Y0373800D01*
X0050574Y0374301D02*
X0050324Y0374050D01*
X0049573Y0374050D01*
X0049573Y0373550D02*
X0049573Y0375051D01*
X0050324Y0375051D01*
X0050574Y0374801D01*
X0050574Y0374301D01*
X0049101Y0375051D02*
X0048600Y0375051D01*
X0048851Y0375051D02*
X0048851Y0373800D01*
X0048600Y0373550D01*
X0048350Y0373550D01*
X0048100Y0373800D01*
X0048600Y0367551D02*
X0049101Y0367551D01*
X0048851Y0367551D02*
X0048851Y0366300D01*
X0048600Y0366050D01*
X0048350Y0366050D01*
X0048100Y0366300D01*
X0049573Y0366050D02*
X0049573Y0367551D01*
X0050324Y0367551D01*
X0050574Y0367301D01*
X0050574Y0366801D01*
X0050324Y0366550D01*
X0049573Y0366550D01*
X0051047Y0366550D02*
X0051297Y0366801D01*
X0051797Y0366801D01*
X0052047Y0366550D01*
X0052047Y0366300D01*
X0051797Y0366050D01*
X0051297Y0366050D01*
X0051047Y0366300D01*
X0051047Y0366550D01*
X0051297Y0366801D02*
X0051047Y0367051D01*
X0051047Y0367301D01*
X0051297Y0367551D01*
X0051797Y0367551D01*
X0052047Y0367301D01*
X0052047Y0367051D01*
X0051797Y0366801D01*
X0052520Y0367051D02*
X0052770Y0366801D01*
X0053521Y0366801D01*
X0053521Y0367301D02*
X0053270Y0367551D01*
X0052770Y0367551D01*
X0052520Y0367301D01*
X0052520Y0367051D01*
X0052520Y0366300D02*
X0052770Y0366050D01*
X0053270Y0366050D01*
X0053521Y0366300D01*
X0053521Y0367301D01*
X0039100Y0345078D02*
X0039100Y0344077D01*
X0039100Y0344577D02*
X0037599Y0344577D01*
X0038099Y0344077D01*
X0038349Y0343604D02*
X0038349Y0342603D01*
X0037599Y0343354D01*
X0039100Y0343354D01*
X0038349Y0342131D02*
X0038600Y0341881D01*
X0038600Y0341130D01*
X0039100Y0341130D02*
X0037599Y0341130D01*
X0037599Y0341881D01*
X0037849Y0342131D01*
X0038349Y0342131D01*
X0037599Y0340658D02*
X0037599Y0340157D01*
X0037599Y0340408D02*
X0038850Y0340408D01*
X0039100Y0340157D01*
X0039100Y0339907D01*
X0038850Y0339657D01*
X0031600Y0339907D02*
X0031600Y0340157D01*
X0031350Y0340408D01*
X0030099Y0340408D01*
X0030099Y0340658D02*
X0030099Y0340157D01*
X0030099Y0341130D02*
X0030099Y0341881D01*
X0030349Y0342131D01*
X0030849Y0342131D01*
X0031100Y0341881D01*
X0031100Y0341130D01*
X0031600Y0341130D02*
X0030099Y0341130D01*
X0030099Y0342603D02*
X0030849Y0342603D01*
X0030599Y0343104D01*
X0030599Y0343354D01*
X0030849Y0343604D01*
X0031350Y0343604D01*
X0031600Y0343354D01*
X0031600Y0342854D01*
X0031350Y0342603D01*
X0030099Y0342603D02*
X0030099Y0343604D01*
X0030349Y0344077D02*
X0030099Y0344327D01*
X0030099Y0344827D01*
X0030349Y0345078D01*
X0030599Y0345078D01*
X0030849Y0344827D01*
X0031100Y0345078D01*
X0031350Y0345078D01*
X0031600Y0344827D01*
X0031600Y0344327D01*
X0031350Y0344077D01*
X0030849Y0344577D02*
X0030849Y0344827D01*
X0031600Y0339907D02*
X0031350Y0339657D01*
X0030849Y0320078D02*
X0030849Y0319077D01*
X0030099Y0319827D01*
X0031600Y0319827D01*
X0031350Y0318604D02*
X0031600Y0318354D01*
X0031600Y0317854D01*
X0031350Y0317603D01*
X0030849Y0317603D02*
X0030599Y0318104D01*
X0030599Y0318354D01*
X0030849Y0318604D01*
X0031350Y0318604D01*
X0030849Y0317603D02*
X0030099Y0317603D01*
X0030099Y0318604D01*
X0030349Y0317131D02*
X0030849Y0317131D01*
X0031100Y0316881D01*
X0031100Y0316130D01*
X0031600Y0316130D02*
X0030099Y0316130D01*
X0030099Y0316881D01*
X0030349Y0317131D01*
X0030099Y0315658D02*
X0030099Y0315157D01*
X0030099Y0315408D02*
X0031350Y0315408D01*
X0031600Y0315157D01*
X0031600Y0314907D01*
X0031350Y0314657D01*
X0037599Y0315157D02*
X0037599Y0315658D01*
X0037599Y0315408D02*
X0038850Y0315408D01*
X0039100Y0315157D01*
X0039100Y0314907D01*
X0038850Y0314657D01*
X0039100Y0316130D02*
X0037599Y0316130D01*
X0037599Y0316881D01*
X0037849Y0317131D01*
X0038349Y0317131D01*
X0038600Y0316881D01*
X0038600Y0316130D01*
X0038349Y0317603D02*
X0038349Y0318604D01*
X0037849Y0319077D02*
X0037599Y0319327D01*
X0037599Y0319827D01*
X0037849Y0320078D01*
X0038099Y0320078D01*
X0039100Y0319077D01*
X0039100Y0320078D01*
X0039100Y0318354D02*
X0037599Y0318354D01*
X0038349Y0317603D01*
X0038099Y0295078D02*
X0038349Y0294827D01*
X0038600Y0295078D01*
X0038850Y0295078D01*
X0039100Y0294827D01*
X0039100Y0294327D01*
X0038850Y0294077D01*
X0038349Y0293604D02*
X0038349Y0292603D01*
X0037599Y0293354D01*
X0039100Y0293354D01*
X0038349Y0292131D02*
X0038600Y0291881D01*
X0038600Y0291130D01*
X0039100Y0291130D02*
X0037599Y0291130D01*
X0037599Y0291881D01*
X0037849Y0292131D01*
X0038349Y0292131D01*
X0037599Y0290658D02*
X0037599Y0290157D01*
X0037599Y0290408D02*
X0038850Y0290408D01*
X0039100Y0290157D01*
X0039100Y0289907D01*
X0038850Y0289657D01*
X0037849Y0294077D02*
X0037599Y0294327D01*
X0037599Y0294827D01*
X0037849Y0295078D01*
X0038099Y0295078D01*
X0038349Y0294827D02*
X0038349Y0294577D01*
X0031600Y0294327D02*
X0031350Y0294077D01*
X0031600Y0294327D02*
X0031600Y0294827D01*
X0031350Y0295078D01*
X0030849Y0295078D01*
X0030599Y0294827D01*
X0030599Y0294577D01*
X0030849Y0294077D01*
X0030099Y0294077D01*
X0030099Y0295078D01*
X0030099Y0293604D02*
X0030099Y0292603D01*
X0030849Y0292603D01*
X0030599Y0293104D01*
X0030599Y0293354D01*
X0030849Y0293604D01*
X0031350Y0293604D01*
X0031600Y0293354D01*
X0031600Y0292854D01*
X0031350Y0292603D01*
X0030849Y0292131D02*
X0031100Y0291881D01*
X0031100Y0291130D01*
X0031600Y0291130D02*
X0030099Y0291130D01*
X0030099Y0291881D01*
X0030349Y0292131D01*
X0030849Y0292131D01*
X0030099Y0290658D02*
X0030099Y0290157D01*
X0030099Y0290408D02*
X0031350Y0290408D01*
X0031600Y0290157D01*
X0031600Y0289907D01*
X0031350Y0289657D01*
X0031350Y0270078D02*
X0031100Y0270078D01*
X0030849Y0269827D01*
X0030849Y0269077D01*
X0031350Y0269077D01*
X0031600Y0269327D01*
X0031600Y0269827D01*
X0031350Y0270078D01*
X0030349Y0269577D02*
X0030849Y0269077D01*
X0030849Y0268604D02*
X0031350Y0268604D01*
X0031600Y0268354D01*
X0031600Y0267854D01*
X0031350Y0267603D01*
X0030849Y0267603D02*
X0030599Y0268104D01*
X0030599Y0268354D01*
X0030849Y0268604D01*
X0030099Y0268604D02*
X0030099Y0267603D01*
X0030849Y0267603D01*
X0030849Y0267131D02*
X0031100Y0266881D01*
X0031100Y0266130D01*
X0031600Y0266130D02*
X0030099Y0266130D01*
X0030099Y0266881D01*
X0030349Y0267131D01*
X0030849Y0267131D01*
X0030099Y0265658D02*
X0030099Y0265157D01*
X0030099Y0265408D02*
X0031350Y0265408D01*
X0031600Y0265157D01*
X0031600Y0264907D01*
X0031350Y0264657D01*
X0030349Y0269577D02*
X0030099Y0270078D01*
X0037599Y0269827D02*
X0038349Y0269077D01*
X0038349Y0270078D01*
X0037599Y0269827D02*
X0039100Y0269827D01*
X0038349Y0268604D02*
X0038349Y0267603D01*
X0037599Y0268354D01*
X0039100Y0268354D01*
X0038349Y0267131D02*
X0038600Y0266881D01*
X0038600Y0266130D01*
X0039100Y0266130D02*
X0037599Y0266130D01*
X0037599Y0266881D01*
X0037849Y0267131D01*
X0038349Y0267131D01*
X0037599Y0265658D02*
X0037599Y0265157D01*
X0037599Y0265408D02*
X0038850Y0265408D01*
X0039100Y0265157D01*
X0039100Y0264907D01*
X0038850Y0264657D01*
X0038850Y0245078D02*
X0039100Y0244827D01*
X0039100Y0244327D01*
X0038850Y0244077D01*
X0038349Y0244077D02*
X0038099Y0244577D01*
X0038099Y0244827D01*
X0038349Y0245078D01*
X0038850Y0245078D01*
X0038349Y0244077D02*
X0037599Y0244077D01*
X0037599Y0245078D01*
X0038349Y0243604D02*
X0038349Y0242603D01*
X0037599Y0243354D01*
X0039100Y0243354D01*
X0038349Y0242131D02*
X0038600Y0241881D01*
X0038600Y0241130D01*
X0039100Y0241130D02*
X0037599Y0241130D01*
X0037599Y0241881D01*
X0037849Y0242131D01*
X0038349Y0242131D01*
X0037599Y0240658D02*
X0037599Y0240157D01*
X0037599Y0240408D02*
X0038850Y0240408D01*
X0039100Y0240157D01*
X0039100Y0239907D01*
X0038850Y0239657D01*
X0031600Y0239907D02*
X0031600Y0240157D01*
X0031350Y0240408D01*
X0030099Y0240408D01*
X0030099Y0240658D02*
X0030099Y0240157D01*
X0030099Y0241130D02*
X0030099Y0241881D01*
X0030349Y0242131D01*
X0030849Y0242131D01*
X0031100Y0241881D01*
X0031100Y0241130D01*
X0031600Y0241130D02*
X0030099Y0241130D01*
X0030099Y0242603D02*
X0030849Y0242603D01*
X0030599Y0243104D01*
X0030599Y0243354D01*
X0030849Y0243604D01*
X0031350Y0243604D01*
X0031600Y0243354D01*
X0031600Y0242854D01*
X0031350Y0242603D01*
X0030099Y0242603D02*
X0030099Y0243604D01*
X0030099Y0244077D02*
X0030099Y0245078D01*
X0030349Y0245078D01*
X0031350Y0244077D01*
X0031600Y0244077D01*
X0031600Y0239907D02*
X0031350Y0239657D01*
X0031350Y0220078D02*
X0031600Y0219827D01*
X0031600Y0219327D01*
X0031350Y0219077D01*
X0031100Y0219077D01*
X0030849Y0219327D01*
X0030849Y0219827D01*
X0031100Y0220078D01*
X0031350Y0220078D01*
X0030849Y0219827D02*
X0030599Y0220078D01*
X0030349Y0220078D01*
X0030099Y0219827D01*
X0030099Y0219327D01*
X0030349Y0219077D01*
X0030599Y0219077D01*
X0030849Y0219327D01*
X0030849Y0218604D02*
X0031350Y0218604D01*
X0031600Y0218354D01*
X0031600Y0217854D01*
X0031350Y0217603D01*
X0030849Y0217603D02*
X0030599Y0218104D01*
X0030599Y0218354D01*
X0030849Y0218604D01*
X0030099Y0218604D02*
X0030099Y0217603D01*
X0030849Y0217603D01*
X0030849Y0217131D02*
X0031100Y0216881D01*
X0031100Y0216130D01*
X0031600Y0216130D02*
X0030099Y0216130D01*
X0030099Y0216881D01*
X0030349Y0217131D01*
X0030849Y0217131D01*
X0030099Y0215658D02*
X0030099Y0215157D01*
X0030099Y0215408D02*
X0031350Y0215408D01*
X0031600Y0215157D01*
X0031600Y0214907D01*
X0031350Y0214657D01*
X0037599Y0215157D02*
X0037599Y0215658D01*
X0037599Y0215408D02*
X0038850Y0215408D01*
X0039100Y0215157D01*
X0039100Y0214907D01*
X0038850Y0214657D01*
X0039100Y0216130D02*
X0037599Y0216130D01*
X0037599Y0216881D01*
X0037849Y0217131D01*
X0038349Y0217131D01*
X0038600Y0216881D01*
X0038600Y0216130D01*
X0038349Y0217603D02*
X0038349Y0218604D01*
X0038349Y0219077D02*
X0038349Y0219827D01*
X0038600Y0220078D01*
X0038850Y0220078D01*
X0039100Y0219827D01*
X0039100Y0219327D01*
X0038850Y0219077D01*
X0038349Y0219077D01*
X0037849Y0219577D01*
X0037599Y0220078D01*
X0037599Y0218354D02*
X0038349Y0217603D01*
X0037599Y0218354D02*
X0039100Y0218354D01*
X0037849Y0185078D02*
X0037599Y0185078D01*
X0037599Y0184077D01*
X0037599Y0183354D02*
X0038349Y0182603D01*
X0038349Y0183604D01*
X0038850Y0184077D02*
X0039100Y0184077D01*
X0038850Y0184077D02*
X0037849Y0185078D01*
X0037599Y0183354D02*
X0039100Y0183354D01*
X0038349Y0182131D02*
X0038600Y0181881D01*
X0038600Y0181130D01*
X0039100Y0181130D02*
X0037599Y0181130D01*
X0037599Y0181881D01*
X0037849Y0182131D01*
X0038349Y0182131D01*
X0037599Y0180658D02*
X0037599Y0180157D01*
X0037599Y0180408D02*
X0038850Y0180408D01*
X0039100Y0180157D01*
X0039100Y0179907D01*
X0038850Y0179657D01*
X0031600Y0179907D02*
X0031600Y0180157D01*
X0031350Y0180408D01*
X0030099Y0180408D01*
X0030099Y0180658D02*
X0030099Y0180157D01*
X0030099Y0181130D02*
X0030099Y0181881D01*
X0030349Y0182131D01*
X0030849Y0182131D01*
X0031100Y0181881D01*
X0031100Y0181130D01*
X0031600Y0181130D02*
X0030099Y0181130D01*
X0030099Y0182603D02*
X0030849Y0182603D01*
X0030599Y0183104D01*
X0030599Y0183354D01*
X0030849Y0183604D01*
X0031350Y0183604D01*
X0031600Y0183354D01*
X0031600Y0182854D01*
X0031350Y0182603D01*
X0030099Y0182603D02*
X0030099Y0183604D01*
X0030349Y0184077D02*
X0030599Y0184077D01*
X0030849Y0184327D01*
X0030849Y0185078D01*
X0030349Y0185078D02*
X0031350Y0185078D01*
X0031600Y0184827D01*
X0031600Y0184327D01*
X0031350Y0184077D01*
X0030349Y0184077D02*
X0030099Y0184327D01*
X0030099Y0184827D01*
X0030349Y0185078D01*
X0031600Y0179907D02*
X0031350Y0179657D01*
X0031350Y0160078D02*
X0030349Y0160078D01*
X0031350Y0159077D01*
X0031600Y0159327D01*
X0031600Y0159827D01*
X0031350Y0160078D01*
X0030349Y0160078D02*
X0030099Y0159827D01*
X0030099Y0159327D01*
X0030349Y0159077D01*
X0031350Y0159077D01*
X0031350Y0158604D02*
X0031100Y0158604D01*
X0030849Y0158354D01*
X0030849Y0157603D01*
X0031350Y0157603D01*
X0031600Y0157854D01*
X0031600Y0158354D01*
X0031350Y0158604D01*
X0030349Y0158104D02*
X0030849Y0157603D01*
X0030849Y0157131D02*
X0031100Y0156881D01*
X0031100Y0156130D01*
X0031600Y0156130D02*
X0030099Y0156130D01*
X0030099Y0156881D01*
X0030349Y0157131D01*
X0030849Y0157131D01*
X0030349Y0158104D02*
X0030099Y0158604D01*
X0030099Y0155658D02*
X0030099Y0155157D01*
X0030099Y0155408D02*
X0031350Y0155408D01*
X0031600Y0155157D01*
X0031600Y0154907D01*
X0031350Y0154657D01*
X0037599Y0155157D02*
X0037599Y0155658D01*
X0037599Y0155408D02*
X0038850Y0155408D01*
X0039100Y0155157D01*
X0039100Y0154907D01*
X0038850Y0154657D01*
X0039100Y0156130D02*
X0037599Y0156130D01*
X0037599Y0156881D01*
X0037849Y0157131D01*
X0038349Y0157131D01*
X0038600Y0156881D01*
X0038600Y0156130D01*
X0038349Y0157603D02*
X0038349Y0158604D01*
X0038099Y0159077D02*
X0037849Y0159077D01*
X0037599Y0159327D01*
X0037599Y0159827D01*
X0037849Y0160078D01*
X0038099Y0160078D01*
X0038349Y0159827D01*
X0038349Y0159327D01*
X0038099Y0159077D01*
X0038349Y0159327D02*
X0038600Y0159077D01*
X0038850Y0159077D01*
X0039100Y0159327D01*
X0039100Y0159827D01*
X0038850Y0160078D01*
X0038600Y0160078D01*
X0038349Y0159827D01*
X0037599Y0158354D02*
X0038349Y0157603D01*
X0037599Y0158354D02*
X0039100Y0158354D01*
X0038850Y0135078D02*
X0037849Y0135078D01*
X0037599Y0134827D01*
X0037599Y0134327D01*
X0037849Y0134077D01*
X0038099Y0134077D01*
X0038349Y0134327D01*
X0038349Y0135078D01*
X0038850Y0135078D02*
X0039100Y0134827D01*
X0039100Y0134327D01*
X0038850Y0134077D01*
X0038349Y0133604D02*
X0038349Y0132603D01*
X0037599Y0133354D01*
X0039100Y0133354D01*
X0038349Y0132131D02*
X0038600Y0131881D01*
X0038600Y0131130D01*
X0039100Y0131130D02*
X0037599Y0131130D01*
X0037599Y0131881D01*
X0037849Y0132131D01*
X0038349Y0132131D01*
X0037599Y0130658D02*
X0037599Y0130157D01*
X0037599Y0130408D02*
X0038850Y0130408D01*
X0039100Y0130157D01*
X0039100Y0129907D01*
X0038850Y0129657D01*
X0031600Y0129907D02*
X0031600Y0130157D01*
X0031350Y0130408D01*
X0030099Y0130408D01*
X0030099Y0130658D02*
X0030099Y0130157D01*
X0030099Y0131130D02*
X0030099Y0131881D01*
X0030349Y0132131D01*
X0030849Y0132131D01*
X0031100Y0131881D01*
X0031100Y0131130D01*
X0031600Y0131130D02*
X0030099Y0131130D01*
X0030849Y0132603D02*
X0030349Y0133104D01*
X0030099Y0133604D01*
X0030599Y0134077D02*
X0030099Y0134577D01*
X0031600Y0134577D01*
X0031600Y0134077D02*
X0031600Y0135078D01*
X0031350Y0133604D02*
X0031100Y0133604D01*
X0030849Y0133354D01*
X0030849Y0132603D01*
X0031350Y0132603D01*
X0031600Y0132854D01*
X0031600Y0133354D01*
X0031350Y0133604D01*
X0031600Y0129907D02*
X0031350Y0129657D01*
X0031600Y0110078D02*
X0031600Y0109077D01*
X0030599Y0110078D01*
X0030349Y0110078D01*
X0030099Y0109827D01*
X0030099Y0109327D01*
X0030349Y0109077D01*
X0030099Y0108604D02*
X0030349Y0108104D01*
X0030849Y0107603D01*
X0030849Y0108354D01*
X0031100Y0108604D01*
X0031350Y0108604D01*
X0031600Y0108354D01*
X0031600Y0107854D01*
X0031350Y0107603D01*
X0030849Y0107603D01*
X0030849Y0107131D02*
X0030349Y0107131D01*
X0030099Y0106881D01*
X0030099Y0106130D01*
X0031600Y0106130D01*
X0031100Y0106130D02*
X0031100Y0106881D01*
X0030849Y0107131D01*
X0030099Y0105658D02*
X0030099Y0105157D01*
X0030099Y0105408D02*
X0031350Y0105408D01*
X0031600Y0105157D01*
X0031600Y0104907D01*
X0031350Y0104657D01*
X0037599Y0105157D02*
X0037599Y0105658D01*
X0037599Y0105408D02*
X0038850Y0105408D01*
X0039100Y0105157D01*
X0039100Y0104907D01*
X0038850Y0104657D01*
X0039100Y0106130D02*
X0037599Y0106130D01*
X0037599Y0106881D01*
X0037849Y0107131D01*
X0038349Y0107131D01*
X0038600Y0106881D01*
X0038600Y0106130D01*
X0038850Y0107603D02*
X0039100Y0107854D01*
X0039100Y0108354D01*
X0038850Y0108604D01*
X0038349Y0108604D01*
X0038099Y0108354D01*
X0038099Y0108104D01*
X0038349Y0107603D01*
X0037599Y0107603D01*
X0037599Y0108604D01*
X0037849Y0109077D02*
X0037599Y0109327D01*
X0037599Y0109827D01*
X0037849Y0110078D01*
X0038850Y0109077D01*
X0039100Y0109327D01*
X0039100Y0109827D01*
X0038850Y0110078D01*
X0037849Y0110078D01*
X0037849Y0109077D02*
X0038850Y0109077D01*
X0039100Y0085078D02*
X0039100Y0084077D01*
X0039100Y0084577D02*
X0037599Y0084577D01*
X0038099Y0084077D01*
X0038349Y0083604D02*
X0038850Y0083604D01*
X0039100Y0083354D01*
X0039100Y0082854D01*
X0038850Y0082603D01*
X0038349Y0082603D02*
X0038099Y0083104D01*
X0038099Y0083354D01*
X0038349Y0083604D01*
X0037599Y0083604D02*
X0037599Y0082603D01*
X0038349Y0082603D01*
X0038349Y0082131D02*
X0038600Y0081881D01*
X0038600Y0081130D01*
X0039100Y0081130D02*
X0037599Y0081130D01*
X0037599Y0081881D01*
X0037849Y0082131D01*
X0038349Y0082131D01*
X0037599Y0080658D02*
X0037599Y0080157D01*
X0037599Y0080408D02*
X0038850Y0080408D01*
X0039100Y0080157D01*
X0039100Y0079907D01*
X0038850Y0079657D01*
X0031600Y0079907D02*
X0031600Y0080157D01*
X0031350Y0080408D01*
X0030099Y0080408D01*
X0030099Y0080658D02*
X0030099Y0080157D01*
X0030099Y0081130D02*
X0030099Y0081881D01*
X0030349Y0082131D01*
X0030849Y0082131D01*
X0031100Y0081881D01*
X0031100Y0081130D01*
X0031600Y0081130D02*
X0030099Y0081130D01*
X0030849Y0082603D02*
X0030349Y0083104D01*
X0030099Y0083604D01*
X0030349Y0084077D02*
X0030099Y0084327D01*
X0030099Y0084827D01*
X0030349Y0085078D01*
X0030599Y0085078D01*
X0030849Y0084827D01*
X0031100Y0085078D01*
X0031350Y0085078D01*
X0031600Y0084827D01*
X0031600Y0084327D01*
X0031350Y0084077D01*
X0031350Y0083604D02*
X0031100Y0083604D01*
X0030849Y0083354D01*
X0030849Y0082603D01*
X0031350Y0082603D01*
X0031600Y0082854D01*
X0031600Y0083354D01*
X0031350Y0083604D01*
X0030849Y0084577D02*
X0030849Y0084827D01*
X0031600Y0079907D02*
X0031350Y0079657D01*
X0030849Y0060078D02*
X0030849Y0059077D01*
X0030099Y0059827D01*
X0031600Y0059827D01*
X0031350Y0058604D02*
X0031100Y0058604D01*
X0030849Y0058354D01*
X0030849Y0057603D01*
X0031350Y0057603D01*
X0031600Y0057854D01*
X0031600Y0058354D01*
X0031350Y0058604D01*
X0030349Y0058104D02*
X0030849Y0057603D01*
X0030849Y0057131D02*
X0031100Y0056881D01*
X0031100Y0056130D01*
X0031600Y0056130D02*
X0030099Y0056130D01*
X0030099Y0056881D01*
X0030349Y0057131D01*
X0030849Y0057131D01*
X0030349Y0058104D02*
X0030099Y0058604D01*
X0030099Y0055658D02*
X0030099Y0055157D01*
X0030099Y0055408D02*
X0031350Y0055408D01*
X0031600Y0055157D01*
X0031600Y0054907D01*
X0031350Y0054657D01*
X0037599Y0055157D02*
X0037599Y0055658D01*
X0037599Y0055408D02*
X0038850Y0055408D01*
X0039100Y0055157D01*
X0039100Y0054907D01*
X0038850Y0054657D01*
X0039100Y0056130D02*
X0037599Y0056130D01*
X0037599Y0056881D01*
X0037849Y0057131D01*
X0038349Y0057131D01*
X0038600Y0056881D01*
X0038600Y0056130D01*
X0038850Y0057603D02*
X0039100Y0057854D01*
X0039100Y0058354D01*
X0038850Y0058604D01*
X0038349Y0058604D01*
X0038099Y0058354D01*
X0038099Y0058104D01*
X0038349Y0057603D01*
X0037599Y0057603D01*
X0037599Y0058604D01*
X0037849Y0059077D02*
X0037599Y0059327D01*
X0037599Y0059827D01*
X0037849Y0060078D01*
X0038099Y0060078D01*
X0039100Y0059077D01*
X0039100Y0060078D01*
X0048600Y0027551D02*
X0049101Y0027551D01*
X0048851Y0027551D02*
X0048851Y0026300D01*
X0048600Y0026050D01*
X0048350Y0026050D01*
X0048100Y0026300D01*
X0049573Y0026050D02*
X0049573Y0027551D01*
X0050324Y0027551D01*
X0050574Y0027301D01*
X0050574Y0026801D01*
X0050324Y0026550D01*
X0049573Y0026550D01*
X0051047Y0026300D02*
X0051297Y0026050D01*
X0051797Y0026050D01*
X0052047Y0026300D01*
X0052047Y0027301D01*
X0051797Y0027551D01*
X0051297Y0027551D01*
X0051047Y0027301D01*
X0051047Y0027051D01*
X0051297Y0026801D01*
X0052047Y0026801D01*
X0052520Y0026300D02*
X0052520Y0026050D01*
X0052520Y0026300D02*
X0053521Y0027301D01*
X0053521Y0027551D01*
X0052520Y0027551D01*
X0073100Y0026300D02*
X0073350Y0026050D01*
X0073600Y0026050D01*
X0073851Y0026300D01*
X0073851Y0027551D01*
X0074101Y0027551D02*
X0073600Y0027551D01*
X0074573Y0027551D02*
X0075324Y0027551D01*
X0075574Y0027301D01*
X0075574Y0026801D01*
X0075324Y0026550D01*
X0074573Y0026550D01*
X0074573Y0026050D02*
X0074573Y0027551D01*
X0076047Y0027301D02*
X0076047Y0027051D01*
X0076297Y0026801D01*
X0077047Y0026801D01*
X0077047Y0027301D02*
X0076797Y0027551D01*
X0076297Y0027551D01*
X0076047Y0027301D01*
X0077047Y0027301D02*
X0077047Y0026300D01*
X0076797Y0026050D01*
X0076297Y0026050D01*
X0076047Y0026300D01*
X0077520Y0026300D02*
X0077520Y0026550D01*
X0077770Y0026801D01*
X0078270Y0026801D01*
X0078521Y0026550D01*
X0078521Y0026300D01*
X0078270Y0026050D01*
X0077770Y0026050D01*
X0077520Y0026300D01*
X0077770Y0026801D02*
X0077520Y0027051D01*
X0077520Y0027301D01*
X0077770Y0027551D01*
X0078270Y0027551D01*
X0078521Y0027301D01*
X0078521Y0027051D01*
X0078270Y0026801D01*
X0128100Y0026300D02*
X0128350Y0026050D01*
X0128600Y0026050D01*
X0128851Y0026300D01*
X0128851Y0027551D01*
X0129101Y0027551D02*
X0128600Y0027551D01*
X0129573Y0027551D02*
X0130324Y0027551D01*
X0130574Y0027301D01*
X0130574Y0026801D01*
X0130324Y0026550D01*
X0129573Y0026550D01*
X0129573Y0026050D02*
X0129573Y0027551D01*
X0131047Y0027301D02*
X0131047Y0027051D01*
X0131297Y0026801D01*
X0132047Y0026801D01*
X0132047Y0027301D02*
X0131797Y0027551D01*
X0131297Y0027551D01*
X0131047Y0027301D01*
X0132047Y0027301D02*
X0132047Y0026300D01*
X0131797Y0026050D01*
X0131297Y0026050D01*
X0131047Y0026300D01*
X0132520Y0026300D02*
X0132770Y0026050D01*
X0133270Y0026050D01*
X0133521Y0026300D01*
X0133521Y0027301D01*
X0133270Y0027551D01*
X0132770Y0027551D01*
X0132520Y0027301D01*
X0132520Y0027051D01*
X0132770Y0026801D01*
X0133521Y0026801D01*
X0153100Y0026300D02*
X0153350Y0026050D01*
X0153600Y0026050D01*
X0153851Y0026300D01*
X0153851Y0027551D01*
X0154101Y0027551D02*
X0153600Y0027551D01*
X0154573Y0027551D02*
X0155324Y0027551D01*
X0155574Y0027301D01*
X0155574Y0026801D01*
X0155324Y0026550D01*
X0154573Y0026550D01*
X0154573Y0026050D02*
X0154573Y0027551D01*
X0156047Y0027051D02*
X0156547Y0027551D01*
X0156547Y0026050D01*
X0156047Y0026050D02*
X0157047Y0026050D01*
X0157520Y0026300D02*
X0158521Y0027301D01*
X0158521Y0026300D01*
X0158270Y0026050D01*
X0157770Y0026050D01*
X0157520Y0026300D01*
X0157520Y0027301D01*
X0157770Y0027551D01*
X0158270Y0027551D01*
X0158521Y0027301D01*
X0158993Y0027301D02*
X0159243Y0027551D01*
X0159744Y0027551D01*
X0159994Y0027301D01*
X0158993Y0026300D01*
X0159243Y0026050D01*
X0159744Y0026050D01*
X0159994Y0026300D01*
X0159994Y0027301D01*
X0158993Y0027301D02*
X0158993Y0026300D01*
X0197599Y0055157D02*
X0197599Y0055658D01*
X0197599Y0055408D02*
X0198850Y0055408D01*
X0199100Y0055157D01*
X0199100Y0054907D01*
X0198850Y0054657D01*
X0199100Y0056130D02*
X0197599Y0056130D01*
X0197599Y0056881D01*
X0197849Y0057131D01*
X0198349Y0057131D01*
X0198600Y0056881D01*
X0198600Y0056130D01*
X0198850Y0057603D02*
X0199100Y0057603D01*
X0198850Y0057603D02*
X0197849Y0058604D01*
X0197599Y0058604D01*
X0197599Y0057603D01*
X0198349Y0059077D02*
X0198349Y0059827D01*
X0198600Y0060078D01*
X0198850Y0060078D01*
X0199100Y0059827D01*
X0199100Y0059327D01*
X0198850Y0059077D01*
X0198349Y0059077D01*
X0197849Y0059577D01*
X0197599Y0060078D01*
X0205099Y0059827D02*
X0205099Y0059327D01*
X0205349Y0059077D01*
X0205599Y0059077D01*
X0205849Y0059327D01*
X0205849Y0059827D01*
X0206100Y0060078D01*
X0206350Y0060078D01*
X0206600Y0059827D01*
X0206600Y0059327D01*
X0206350Y0059077D01*
X0206100Y0059077D01*
X0205849Y0059327D01*
X0205849Y0059827D02*
X0205599Y0060078D01*
X0205349Y0060078D01*
X0205099Y0059827D01*
X0205349Y0058604D02*
X0205599Y0058604D01*
X0205849Y0058354D01*
X0205849Y0057854D01*
X0205599Y0057603D01*
X0205349Y0057603D01*
X0205099Y0057854D01*
X0205099Y0058354D01*
X0205349Y0058604D01*
X0205849Y0058354D02*
X0206100Y0058604D01*
X0206350Y0058604D01*
X0206600Y0058354D01*
X0206600Y0057854D01*
X0206350Y0057603D01*
X0206100Y0057603D01*
X0205849Y0057854D01*
X0205849Y0057131D02*
X0206100Y0056881D01*
X0206100Y0056130D01*
X0206600Y0056130D02*
X0205099Y0056130D01*
X0205099Y0056881D01*
X0205349Y0057131D01*
X0205849Y0057131D01*
X0205099Y0055658D02*
X0205099Y0055157D01*
X0205099Y0055408D02*
X0206350Y0055408D01*
X0206600Y0055157D01*
X0206600Y0054907D01*
X0206350Y0054657D01*
X0206350Y0079657D02*
X0206600Y0079907D01*
X0206600Y0080157D01*
X0206350Y0080408D01*
X0205099Y0080408D01*
X0205099Y0080658D02*
X0205099Y0080157D01*
X0205099Y0081130D02*
X0205099Y0081881D01*
X0205349Y0082131D01*
X0205849Y0082131D01*
X0206100Y0081881D01*
X0206100Y0081130D01*
X0206600Y0081130D02*
X0205099Y0081130D01*
X0205349Y0082603D02*
X0205599Y0082603D01*
X0205849Y0082854D01*
X0205849Y0083354D01*
X0206100Y0083604D01*
X0206350Y0083604D01*
X0206600Y0083354D01*
X0206600Y0082854D01*
X0206350Y0082603D01*
X0206100Y0082603D01*
X0205849Y0082854D01*
X0205849Y0083354D02*
X0205599Y0083604D01*
X0205349Y0083604D01*
X0205099Y0083354D01*
X0205099Y0082854D01*
X0205349Y0082603D01*
X0205099Y0084077D02*
X0205099Y0085078D01*
X0205349Y0085078D01*
X0206350Y0084077D01*
X0206600Y0084077D01*
X0199100Y0084327D02*
X0198850Y0084077D01*
X0199100Y0084327D02*
X0199100Y0084827D01*
X0198850Y0085078D01*
X0198349Y0085078D01*
X0198099Y0084827D01*
X0198099Y0084577D01*
X0198349Y0084077D01*
X0197599Y0084077D01*
X0197599Y0085078D01*
X0197599Y0083604D02*
X0197849Y0083604D01*
X0198850Y0082603D01*
X0199100Y0082603D01*
X0198600Y0081881D02*
X0198600Y0081130D01*
X0199100Y0081130D02*
X0197599Y0081130D01*
X0197599Y0081881D01*
X0197849Y0082131D01*
X0198349Y0082131D01*
X0198600Y0081881D01*
X0197599Y0082603D02*
X0197599Y0083604D01*
X0197599Y0080658D02*
X0197599Y0080157D01*
X0197599Y0080408D02*
X0198850Y0080408D01*
X0199100Y0080157D01*
X0199100Y0079907D01*
X0198850Y0079657D01*
X0198850Y0104657D02*
X0199100Y0104907D01*
X0199100Y0105157D01*
X0198850Y0105408D01*
X0197599Y0105408D01*
X0197599Y0105658D02*
X0197599Y0105157D01*
X0197599Y0106130D02*
X0197599Y0106881D01*
X0197849Y0107131D01*
X0198349Y0107131D01*
X0198600Y0106881D01*
X0198600Y0106130D01*
X0199100Y0106130D02*
X0197599Y0106130D01*
X0197599Y0107603D02*
X0197599Y0108604D01*
X0197849Y0108604D01*
X0198850Y0107603D01*
X0199100Y0107603D01*
X0198349Y0109077D02*
X0198349Y0110078D01*
X0197599Y0109827D02*
X0198349Y0109077D01*
X0197599Y0109827D02*
X0199100Y0109827D01*
X0205099Y0110078D02*
X0205349Y0109577D01*
X0205849Y0109077D01*
X0205849Y0109827D01*
X0206100Y0110078D01*
X0206350Y0110078D01*
X0206600Y0109827D01*
X0206600Y0109327D01*
X0206350Y0109077D01*
X0205849Y0109077D01*
X0205599Y0108604D02*
X0205849Y0108354D01*
X0205849Y0107854D01*
X0205599Y0107603D01*
X0205349Y0107603D01*
X0205099Y0107854D01*
X0205099Y0108354D01*
X0205349Y0108604D01*
X0205599Y0108604D01*
X0205849Y0108354D02*
X0206100Y0108604D01*
X0206350Y0108604D01*
X0206600Y0108354D01*
X0206600Y0107854D01*
X0206350Y0107603D01*
X0206100Y0107603D01*
X0205849Y0107854D01*
X0205849Y0107131D02*
X0206100Y0106881D01*
X0206100Y0106130D01*
X0206600Y0106130D02*
X0205099Y0106130D01*
X0205099Y0106881D01*
X0205349Y0107131D01*
X0205849Y0107131D01*
X0205099Y0105658D02*
X0205099Y0105157D01*
X0205099Y0105408D02*
X0206350Y0105408D01*
X0206600Y0105157D01*
X0206600Y0104907D01*
X0206350Y0104657D01*
X0206350Y0129657D02*
X0206600Y0129907D01*
X0206600Y0130157D01*
X0206350Y0130408D01*
X0205099Y0130408D01*
X0205099Y0130658D02*
X0205099Y0130157D01*
X0205099Y0131130D02*
X0205099Y0131881D01*
X0205349Y0132131D01*
X0205849Y0132131D01*
X0206100Y0131881D01*
X0206100Y0131130D01*
X0206600Y0131130D02*
X0205099Y0131130D01*
X0205349Y0132603D02*
X0205599Y0132603D01*
X0205849Y0132854D01*
X0205849Y0133354D01*
X0206100Y0133604D01*
X0206350Y0133604D01*
X0206600Y0133354D01*
X0206600Y0132854D01*
X0206350Y0132603D01*
X0206100Y0132603D01*
X0205849Y0132854D01*
X0205849Y0133354D02*
X0205599Y0133604D01*
X0205349Y0133604D01*
X0205099Y0133354D01*
X0205099Y0132854D01*
X0205349Y0132603D01*
X0205099Y0134077D02*
X0205849Y0134077D01*
X0205599Y0134577D01*
X0205599Y0134827D01*
X0205849Y0135078D01*
X0206350Y0135078D01*
X0206600Y0134827D01*
X0206600Y0134327D01*
X0206350Y0134077D01*
X0205099Y0134077D02*
X0205099Y0135078D01*
X0199100Y0134827D02*
X0199100Y0134327D01*
X0198850Y0134077D01*
X0198349Y0134577D02*
X0198349Y0134827D01*
X0198600Y0135078D01*
X0198850Y0135078D01*
X0199100Y0134827D01*
X0198349Y0134827D02*
X0198099Y0135078D01*
X0197849Y0135078D01*
X0197599Y0134827D01*
X0197599Y0134327D01*
X0197849Y0134077D01*
X0197849Y0133604D02*
X0198850Y0132603D01*
X0199100Y0132603D01*
X0198600Y0131881D02*
X0198600Y0131130D01*
X0199100Y0131130D02*
X0197599Y0131130D01*
X0197599Y0131881D01*
X0197849Y0132131D01*
X0198349Y0132131D01*
X0198600Y0131881D01*
X0197599Y0132603D02*
X0197599Y0133604D01*
X0197849Y0133604D01*
X0197599Y0130658D02*
X0197599Y0130157D01*
X0197599Y0130408D02*
X0198850Y0130408D01*
X0199100Y0130157D01*
X0199100Y0129907D01*
X0198850Y0129657D01*
X0198850Y0154657D02*
X0199100Y0154907D01*
X0199100Y0155157D01*
X0198850Y0155408D01*
X0197599Y0155408D01*
X0197599Y0155658D02*
X0197599Y0155157D01*
X0197599Y0156130D02*
X0197599Y0156881D01*
X0197849Y0157131D01*
X0198349Y0157131D01*
X0198600Y0156881D01*
X0198600Y0156130D01*
X0199100Y0156130D02*
X0197599Y0156130D01*
X0197599Y0157603D02*
X0197599Y0158604D01*
X0197849Y0158604D01*
X0198850Y0157603D01*
X0199100Y0157603D01*
X0199100Y0159077D02*
X0198099Y0160078D01*
X0197849Y0160078D01*
X0197599Y0159827D01*
X0197599Y0159327D01*
X0197849Y0159077D01*
X0199100Y0159077D02*
X0199100Y0160078D01*
X0205099Y0159827D02*
X0205849Y0159077D01*
X0205849Y0160078D01*
X0205099Y0159827D02*
X0206600Y0159827D01*
X0206350Y0158604D02*
X0206600Y0158354D01*
X0206600Y0157854D01*
X0206350Y0157603D01*
X0206100Y0157603D01*
X0205849Y0157854D01*
X0205849Y0158354D01*
X0206100Y0158604D01*
X0206350Y0158604D01*
X0205849Y0158354D02*
X0205599Y0158604D01*
X0205349Y0158604D01*
X0205099Y0158354D01*
X0205099Y0157854D01*
X0205349Y0157603D01*
X0205599Y0157603D01*
X0205849Y0157854D01*
X0205849Y0157131D02*
X0206100Y0156881D01*
X0206100Y0156130D01*
X0206600Y0156130D02*
X0205099Y0156130D01*
X0205099Y0156881D01*
X0205349Y0157131D01*
X0205849Y0157131D01*
X0205099Y0155658D02*
X0205099Y0155157D01*
X0205099Y0155408D02*
X0206350Y0155408D01*
X0206600Y0155157D01*
X0206600Y0154907D01*
X0206350Y0154657D01*
X0206350Y0179657D02*
X0206600Y0179907D01*
X0206600Y0180157D01*
X0206350Y0180408D01*
X0205099Y0180408D01*
X0205099Y0180658D02*
X0205099Y0180157D01*
X0205099Y0181130D02*
X0205099Y0181881D01*
X0205349Y0182131D01*
X0205849Y0182131D01*
X0206100Y0181881D01*
X0206100Y0181130D01*
X0206600Y0181130D02*
X0205099Y0181130D01*
X0205349Y0182603D02*
X0205599Y0182603D01*
X0205849Y0182854D01*
X0205849Y0183354D01*
X0206100Y0183604D01*
X0206350Y0183604D01*
X0206600Y0183354D01*
X0206600Y0182854D01*
X0206350Y0182603D01*
X0206100Y0182603D01*
X0205849Y0182854D01*
X0205849Y0183354D02*
X0205599Y0183604D01*
X0205349Y0183604D01*
X0205099Y0183354D01*
X0205099Y0182854D01*
X0205349Y0182603D01*
X0205349Y0184077D02*
X0205099Y0184327D01*
X0205099Y0184827D01*
X0205349Y0185078D01*
X0205599Y0185078D01*
X0205849Y0184827D01*
X0206100Y0185078D01*
X0206350Y0185078D01*
X0206600Y0184827D01*
X0206600Y0184327D01*
X0206350Y0184077D01*
X0205849Y0184577D02*
X0205849Y0184827D01*
X0199100Y0184577D02*
X0197599Y0184577D01*
X0198099Y0184077D01*
X0197849Y0183604D02*
X0198850Y0182603D01*
X0199100Y0182603D01*
X0198600Y0181881D02*
X0198600Y0181130D01*
X0199100Y0181130D02*
X0197599Y0181130D01*
X0197599Y0181881D01*
X0197849Y0182131D01*
X0198349Y0182131D01*
X0198600Y0181881D01*
X0197599Y0182603D02*
X0197599Y0183604D01*
X0197849Y0183604D01*
X0199100Y0184077D02*
X0199100Y0185078D01*
X0197599Y0180658D02*
X0197599Y0180157D01*
X0197599Y0180408D02*
X0198850Y0180408D01*
X0199100Y0180157D01*
X0199100Y0179907D01*
X0198850Y0179657D01*
M02*
