G75*
%MOIN*%
%OFA0B0*%
%FSLAX25Y25*%
%IPPOS*%
%LPD*%
%AMOC8*
5,1,8,0,0,1.08239X$1,22.5*
%
%ADD10C,0.00000*%
%ADD11C,0.07400*%
%ADD12C,0.03937*%
%ADD13C,0.00800*%
%ADD14C,0.02000*%
D10*
X0001000Y0002650D02*
X0001000Y0396351D01*
X0250921Y0396351D01*
X0250921Y0002650D01*
X0001000Y0002650D01*
D11*
X0066000Y0047650D03*
X0066000Y0057650D03*
X0066000Y0067650D03*
X0066000Y0077650D03*
X0066000Y0087650D03*
X0066000Y0097650D03*
X0066000Y0107650D03*
X0066000Y0117650D03*
X0066000Y0127650D03*
X0066000Y0137650D03*
X0066000Y0147650D03*
X0066000Y0157650D03*
X0066000Y0167650D03*
X0066000Y0177650D03*
X0066000Y0187650D03*
X0076000Y0187650D03*
X0076000Y0177650D03*
X0076000Y0167650D03*
X0076000Y0157650D03*
X0076000Y0147650D03*
X0076000Y0137650D03*
X0076000Y0127650D03*
X0076000Y0117650D03*
X0076000Y0107650D03*
X0076000Y0097650D03*
X0076000Y0087650D03*
X0076000Y0077650D03*
X0076000Y0067650D03*
X0076000Y0057650D03*
X0076000Y0047650D03*
X0086000Y0047650D03*
X0086000Y0057650D03*
X0086000Y0067650D03*
X0086000Y0077650D03*
X0086000Y0087650D03*
X0086000Y0097650D03*
X0086000Y0107650D03*
X0086000Y0117650D03*
X0086000Y0127650D03*
X0086000Y0137650D03*
X0086000Y0147650D03*
X0086000Y0157650D03*
X0086000Y0167650D03*
X0086000Y0177650D03*
X0086000Y0187650D03*
X0096000Y0187650D03*
X0096000Y0177650D03*
X0096000Y0167650D03*
X0096000Y0157650D03*
X0096000Y0147650D03*
X0096000Y0137650D03*
X0096000Y0127650D03*
X0096000Y0117650D03*
X0096000Y0107650D03*
X0096000Y0097650D03*
X0096000Y0087650D03*
X0096000Y0077650D03*
X0096000Y0067650D03*
X0096000Y0057650D03*
X0096000Y0047650D03*
X0106000Y0047650D03*
X0106000Y0057650D03*
X0106000Y0067650D03*
X0106000Y0077650D03*
X0106000Y0087650D03*
X0106000Y0097650D03*
X0106000Y0107650D03*
X0106000Y0117650D03*
X0106000Y0127650D03*
X0106000Y0137650D03*
X0106000Y0147650D03*
X0106000Y0157650D03*
X0106000Y0167650D03*
X0106000Y0177650D03*
X0106000Y0187650D03*
X0106000Y0207650D03*
X0106000Y0217650D03*
X0106000Y0227650D03*
X0106000Y0237650D03*
X0106000Y0247650D03*
X0106000Y0257650D03*
X0106000Y0267650D03*
X0106000Y0277650D03*
X0106000Y0287650D03*
X0106000Y0297650D03*
X0106000Y0307650D03*
X0106000Y0317650D03*
X0106000Y0327650D03*
X0106000Y0337650D03*
X0106000Y0347650D03*
X0096000Y0347650D03*
X0096000Y0337650D03*
X0096000Y0327650D03*
X0096000Y0317650D03*
X0096000Y0307650D03*
X0096000Y0297650D03*
X0096000Y0287650D03*
X0096000Y0277650D03*
X0096000Y0267650D03*
X0096000Y0257650D03*
X0096000Y0247650D03*
X0096000Y0237650D03*
X0096000Y0227650D03*
X0096000Y0217650D03*
X0096000Y0207650D03*
X0086000Y0207650D03*
X0086000Y0217650D03*
X0086000Y0227650D03*
X0086000Y0237650D03*
X0086000Y0247650D03*
X0086000Y0257650D03*
X0086000Y0267650D03*
X0086000Y0277650D03*
X0086000Y0287650D03*
X0086000Y0297650D03*
X0086000Y0307650D03*
X0086000Y0317650D03*
X0086000Y0327650D03*
X0086000Y0337650D03*
X0086000Y0347650D03*
X0076000Y0347650D03*
X0076000Y0337650D03*
X0076000Y0327650D03*
X0076000Y0317650D03*
X0076000Y0307650D03*
X0076000Y0297650D03*
X0076000Y0287650D03*
X0076000Y0277650D03*
X0076000Y0267650D03*
X0076000Y0257650D03*
X0076000Y0247650D03*
X0076000Y0237650D03*
X0076000Y0227650D03*
X0076000Y0217650D03*
X0076000Y0207650D03*
X0066000Y0207650D03*
X0066000Y0217650D03*
X0066000Y0227650D03*
X0066000Y0237650D03*
X0066000Y0247650D03*
X0066000Y0257650D03*
X0066000Y0267650D03*
X0066000Y0277650D03*
X0066000Y0287650D03*
X0066000Y0297650D03*
X0066000Y0307650D03*
X0066000Y0317650D03*
X0066000Y0327650D03*
X0066000Y0337650D03*
X0066000Y0347650D03*
X0146000Y0347650D03*
X0146000Y0337650D03*
X0146000Y0327650D03*
X0146000Y0317650D03*
X0146000Y0307650D03*
X0146000Y0297650D03*
X0146000Y0287650D03*
X0146000Y0277650D03*
X0146000Y0267650D03*
X0146000Y0257650D03*
X0146000Y0247650D03*
X0146000Y0237650D03*
X0146000Y0227650D03*
X0146000Y0217650D03*
X0146000Y0207650D03*
X0156000Y0207650D03*
X0156000Y0217650D03*
X0156000Y0227650D03*
X0156000Y0237650D03*
X0156000Y0247650D03*
X0156000Y0257650D03*
X0156000Y0267650D03*
X0156000Y0277650D03*
X0156000Y0287650D03*
X0156000Y0297650D03*
X0156000Y0307650D03*
X0156000Y0317650D03*
X0156000Y0327650D03*
X0156000Y0337650D03*
X0156000Y0347650D03*
X0166000Y0347650D03*
X0166000Y0337650D03*
X0166000Y0327650D03*
X0166000Y0317650D03*
X0166000Y0307650D03*
X0166000Y0297650D03*
X0166000Y0287650D03*
X0166000Y0277650D03*
X0166000Y0267650D03*
X0166000Y0257650D03*
X0166000Y0247650D03*
X0166000Y0237650D03*
X0166000Y0227650D03*
X0166000Y0217650D03*
X0166000Y0207650D03*
X0176000Y0207650D03*
X0176000Y0217650D03*
X0176000Y0227650D03*
X0176000Y0237650D03*
X0176000Y0247650D03*
X0176000Y0257650D03*
X0176000Y0267650D03*
X0176000Y0277650D03*
X0176000Y0287650D03*
X0176000Y0297650D03*
X0176000Y0307650D03*
X0176000Y0317650D03*
X0176000Y0327650D03*
X0176000Y0337650D03*
X0176000Y0347650D03*
X0186000Y0347650D03*
X0186000Y0337650D03*
X0186000Y0327650D03*
X0186000Y0317650D03*
X0186000Y0307650D03*
X0186000Y0297650D03*
X0186000Y0287650D03*
X0186000Y0277650D03*
X0186000Y0267650D03*
X0186000Y0257650D03*
X0186000Y0247650D03*
X0186000Y0237650D03*
X0186000Y0227650D03*
X0186000Y0217650D03*
X0186000Y0207650D03*
X0186000Y0187650D03*
X0186000Y0177650D03*
X0186000Y0167650D03*
X0186000Y0157650D03*
X0186000Y0147650D03*
X0186000Y0137650D03*
X0186000Y0127650D03*
X0186000Y0117650D03*
X0186000Y0107650D03*
X0186000Y0097650D03*
X0186000Y0087650D03*
X0186000Y0077650D03*
X0186000Y0067650D03*
X0186000Y0057650D03*
X0186000Y0047650D03*
X0176000Y0047650D03*
X0176000Y0057650D03*
X0176000Y0067650D03*
X0176000Y0077650D03*
X0176000Y0087650D03*
X0176000Y0097650D03*
X0176000Y0107650D03*
X0176000Y0117650D03*
X0176000Y0127650D03*
X0176000Y0137650D03*
X0176000Y0147650D03*
X0176000Y0157650D03*
X0176000Y0167650D03*
X0176000Y0177650D03*
X0176000Y0187650D03*
X0166000Y0187650D03*
X0166000Y0177650D03*
X0166000Y0167650D03*
X0166000Y0157650D03*
X0166000Y0147650D03*
X0166000Y0137650D03*
X0166000Y0127650D03*
X0166000Y0117650D03*
X0166000Y0107650D03*
X0166000Y0097650D03*
X0166000Y0087650D03*
X0166000Y0077650D03*
X0166000Y0067650D03*
X0166000Y0057650D03*
X0166000Y0047650D03*
X0156000Y0047650D03*
X0156000Y0057650D03*
X0156000Y0067650D03*
X0156000Y0077650D03*
X0156000Y0087650D03*
X0156000Y0097650D03*
X0156000Y0107650D03*
X0156000Y0117650D03*
X0156000Y0127650D03*
X0156000Y0137650D03*
X0156000Y0147650D03*
X0156000Y0157650D03*
X0156000Y0167650D03*
X0156000Y0177650D03*
X0156000Y0187650D03*
X0146000Y0187650D03*
X0146000Y0177650D03*
X0146000Y0167650D03*
X0146000Y0157650D03*
X0146000Y0147650D03*
X0146000Y0137650D03*
X0146000Y0127650D03*
X0146000Y0117650D03*
X0146000Y0107650D03*
X0146000Y0097650D03*
X0146000Y0087650D03*
X0146000Y0077650D03*
X0146000Y0067650D03*
X0146000Y0057650D03*
X0146000Y0047650D03*
D12*
X0143500Y0027650D03*
X0148500Y0027650D03*
X0153500Y0027650D03*
X0158500Y0027650D03*
X0163500Y0027650D03*
X0168500Y0027650D03*
X0173500Y0027650D03*
X0178500Y0027650D03*
X0183500Y0027650D03*
X0188500Y0027650D03*
X0206000Y0045150D03*
X0206000Y0050150D03*
X0206000Y0055150D03*
X0206000Y0060150D03*
X0206000Y0065150D03*
X0206000Y0070150D03*
X0206000Y0075150D03*
X0206000Y0080150D03*
X0206000Y0085150D03*
X0206000Y0090150D03*
X0206000Y0095150D03*
X0206000Y0100150D03*
X0206000Y0105150D03*
X0206000Y0110150D03*
X0206000Y0115150D03*
X0206000Y0120150D03*
X0206000Y0125150D03*
X0206000Y0130150D03*
X0206000Y0135150D03*
X0206000Y0140150D03*
X0206000Y0145150D03*
X0206000Y0150150D03*
X0206000Y0155150D03*
X0206000Y0160150D03*
X0206000Y0165150D03*
X0206000Y0170150D03*
X0206000Y0175150D03*
X0206000Y0180150D03*
X0206000Y0185150D03*
X0206000Y0190150D03*
X0213500Y0190150D03*
X0213500Y0185150D03*
X0213500Y0180150D03*
X0213500Y0175150D03*
X0213500Y0170150D03*
X0213500Y0165150D03*
X0213500Y0160150D03*
X0213500Y0155150D03*
X0213500Y0150150D03*
X0213500Y0145150D03*
X0213500Y0140150D03*
X0213500Y0135150D03*
X0213500Y0130150D03*
X0213500Y0125150D03*
X0213500Y0120150D03*
X0213500Y0115150D03*
X0213500Y0110150D03*
X0213500Y0105150D03*
X0213500Y0100150D03*
X0213500Y0095150D03*
X0213500Y0090150D03*
X0213500Y0085150D03*
X0213500Y0080150D03*
X0213500Y0075150D03*
X0213500Y0070150D03*
X0213500Y0065150D03*
X0213500Y0060150D03*
X0213500Y0055150D03*
X0213500Y0050150D03*
X0213500Y0045150D03*
X0213500Y0205150D03*
X0213500Y0210150D03*
X0213500Y0215150D03*
X0213500Y0220150D03*
X0213500Y0225150D03*
X0213500Y0230150D03*
X0213500Y0235150D03*
X0213500Y0240150D03*
X0213500Y0245150D03*
X0213500Y0250150D03*
X0213500Y0255150D03*
X0213500Y0260150D03*
X0213500Y0265150D03*
X0213500Y0270150D03*
X0213500Y0275150D03*
X0213500Y0280150D03*
X0213500Y0285150D03*
X0213500Y0290150D03*
X0213500Y0295150D03*
X0213500Y0300150D03*
X0213500Y0305150D03*
X0213500Y0310150D03*
X0213500Y0315150D03*
X0213500Y0320150D03*
X0213500Y0325150D03*
X0213500Y0330150D03*
X0213500Y0335150D03*
X0213500Y0340150D03*
X0213500Y0345150D03*
X0213500Y0350150D03*
X0206000Y0350150D03*
X0206000Y0345150D03*
X0206000Y0340150D03*
X0206000Y0335150D03*
X0206000Y0330150D03*
X0206000Y0325150D03*
X0206000Y0320150D03*
X0206000Y0315150D03*
X0206000Y0310150D03*
X0206000Y0305150D03*
X0206000Y0300150D03*
X0206000Y0295150D03*
X0206000Y0290150D03*
X0206000Y0285150D03*
X0206000Y0280150D03*
X0206000Y0275150D03*
X0206000Y0270150D03*
X0206000Y0265150D03*
X0206000Y0260150D03*
X0206000Y0255150D03*
X0206000Y0250150D03*
X0206000Y0245150D03*
X0206000Y0240150D03*
X0206000Y0235150D03*
X0206000Y0230150D03*
X0206000Y0225150D03*
X0206000Y0220150D03*
X0206000Y0215150D03*
X0206000Y0210150D03*
X0206000Y0205150D03*
X0188500Y0367650D03*
X0183500Y0367650D03*
X0178500Y0367650D03*
X0173500Y0367650D03*
X0168500Y0367650D03*
X0163500Y0367650D03*
X0158500Y0367650D03*
X0153500Y0367650D03*
X0148500Y0367650D03*
X0143500Y0367650D03*
X0143500Y0375150D03*
X0148500Y0375150D03*
X0153500Y0375150D03*
X0158500Y0375150D03*
X0163500Y0375150D03*
X0168500Y0375150D03*
X0173500Y0375150D03*
X0178500Y0375150D03*
X0183500Y0375150D03*
X0188500Y0375150D03*
X0108500Y0375150D03*
X0103500Y0375150D03*
X0098500Y0375150D03*
X0093500Y0375150D03*
X0088500Y0375150D03*
X0083500Y0375150D03*
X0078500Y0375150D03*
X0073500Y0375150D03*
X0068500Y0375150D03*
X0063500Y0375150D03*
X0063500Y0367650D03*
X0068500Y0367650D03*
X0073500Y0367650D03*
X0078500Y0367650D03*
X0083500Y0367650D03*
X0088500Y0367650D03*
X0093500Y0367650D03*
X0098500Y0367650D03*
X0103500Y0367650D03*
X0108500Y0367650D03*
X0046000Y0350150D03*
X0046000Y0345150D03*
X0046000Y0340150D03*
X0046000Y0335150D03*
X0046000Y0330150D03*
X0046000Y0325150D03*
X0046000Y0320150D03*
X0046000Y0315150D03*
X0046000Y0310150D03*
X0046000Y0305150D03*
X0046000Y0300150D03*
X0046000Y0295150D03*
X0046000Y0290150D03*
X0046000Y0285150D03*
X0046000Y0280150D03*
X0046000Y0275150D03*
X0046000Y0270150D03*
X0046000Y0265150D03*
X0046000Y0260150D03*
X0046000Y0255150D03*
X0046000Y0250150D03*
X0046000Y0245150D03*
X0046000Y0240150D03*
X0046000Y0235150D03*
X0046000Y0230150D03*
X0046000Y0225150D03*
X0046000Y0220150D03*
X0046000Y0215150D03*
X0046000Y0210150D03*
X0046000Y0205150D03*
X0038500Y0205150D03*
X0038500Y0210150D03*
X0038500Y0215150D03*
X0038500Y0220150D03*
X0038500Y0225150D03*
X0038500Y0230150D03*
X0038500Y0235150D03*
X0038500Y0240150D03*
X0038500Y0245150D03*
X0038500Y0250150D03*
X0038500Y0255150D03*
X0038500Y0260150D03*
X0038500Y0265150D03*
X0038500Y0270150D03*
X0038500Y0275150D03*
X0038500Y0280150D03*
X0038500Y0285150D03*
X0038500Y0290150D03*
X0038500Y0295150D03*
X0038500Y0300150D03*
X0038500Y0305150D03*
X0038500Y0310150D03*
X0038500Y0315150D03*
X0038500Y0320150D03*
X0038500Y0325150D03*
X0038500Y0330150D03*
X0038500Y0335150D03*
X0038500Y0340150D03*
X0038500Y0345150D03*
X0038500Y0350150D03*
X0038500Y0190150D03*
X0038500Y0185150D03*
X0038500Y0180150D03*
X0038500Y0175150D03*
X0038500Y0170150D03*
X0038500Y0165150D03*
X0038500Y0160150D03*
X0038500Y0155150D03*
X0038500Y0150150D03*
X0038500Y0145150D03*
X0038500Y0140150D03*
X0038500Y0135150D03*
X0038500Y0130150D03*
X0038500Y0125150D03*
X0038500Y0120150D03*
X0038500Y0115150D03*
X0038500Y0110150D03*
X0038500Y0105150D03*
X0038500Y0100150D03*
X0038500Y0095150D03*
X0038500Y0090150D03*
X0038500Y0085150D03*
X0038500Y0080150D03*
X0038500Y0075150D03*
X0038500Y0070150D03*
X0038500Y0065150D03*
X0038500Y0060150D03*
X0038500Y0055150D03*
X0038500Y0050150D03*
X0038500Y0045150D03*
X0046000Y0045150D03*
X0046000Y0050150D03*
X0046000Y0055150D03*
X0046000Y0060150D03*
X0046000Y0065150D03*
X0046000Y0070150D03*
X0046000Y0075150D03*
X0046000Y0080150D03*
X0046000Y0085150D03*
X0046000Y0090150D03*
X0046000Y0095150D03*
X0046000Y0100150D03*
X0046000Y0105150D03*
X0046000Y0110150D03*
X0046000Y0115150D03*
X0046000Y0120150D03*
X0046000Y0125150D03*
X0046000Y0130150D03*
X0046000Y0135150D03*
X0046000Y0140150D03*
X0046000Y0145150D03*
X0046000Y0150150D03*
X0046000Y0155150D03*
X0046000Y0160150D03*
X0046000Y0165150D03*
X0046000Y0170150D03*
X0046000Y0175150D03*
X0046000Y0180150D03*
X0046000Y0185150D03*
X0046000Y0190150D03*
X0063500Y0027650D03*
X0068500Y0027650D03*
X0073500Y0027650D03*
X0078500Y0027650D03*
X0083500Y0027650D03*
X0088500Y0027650D03*
X0093500Y0027650D03*
X0098500Y0027650D03*
X0103500Y0027650D03*
X0108500Y0027650D03*
D13*
X0109800Y0024250D02*
X0112200Y0026650D01*
X0112200Y0037050D01*
X0111400Y0045050D02*
X0111400Y0062650D01*
X0106600Y0067450D01*
X0106000Y0067650D01*
X0112200Y0068250D02*
X0112200Y0074650D01*
X0112200Y0068250D02*
X0117000Y0063450D01*
X0117000Y0046650D01*
X0098600Y0028250D01*
X0098500Y0027650D01*
X0097800Y0031450D02*
X0111400Y0045050D01*
X0101000Y0045050D02*
X0101000Y0080250D01*
X0098600Y0082650D01*
X0083400Y0082650D01*
X0081000Y0085050D01*
X0081000Y0112250D01*
X0085800Y0117050D01*
X0086000Y0117650D01*
X0096000Y0117650D02*
X0101000Y0122650D01*
X0108200Y0122650D01*
X0111400Y0119450D01*
X0111400Y0110650D01*
X0127400Y0094650D01*
X0127400Y0021050D01*
X0119400Y0013050D01*
X0036200Y0013050D01*
X0017000Y0032250D01*
X0017000Y0093850D01*
X0037800Y0114650D01*
X0038500Y0115150D01*
X0038500Y0110150D02*
X0037800Y0109850D01*
X0025000Y0097050D01*
X0024200Y0097050D01*
X0025000Y0094650D02*
X0021800Y0094650D01*
X0025000Y0094650D02*
X0029800Y0099450D01*
X0037800Y0099450D01*
X0038500Y0100150D01*
X0038500Y0095150D02*
X0037800Y0094650D01*
X0025000Y0081850D01*
X0025000Y0038650D01*
X0042600Y0021050D01*
X0111400Y0021050D01*
X0120200Y0029850D01*
X0120200Y0082650D01*
X0110600Y0092250D01*
X0108200Y0102650D02*
X0101000Y0102650D01*
X0096000Y0107650D01*
X0108200Y0102650D02*
X0125000Y0085850D01*
X0125000Y0024250D01*
X0115400Y0014650D01*
X0063400Y0014650D01*
X0061800Y0016250D01*
X0049800Y0016250D01*
X0061800Y0022650D02*
X0053800Y0030650D01*
X0035400Y0030650D01*
X0026600Y0039450D01*
X0026600Y0078650D01*
X0037800Y0089850D01*
X0038500Y0090150D01*
X0038500Y0080150D02*
X0030600Y0072250D01*
X0030600Y0038650D01*
X0034600Y0039450D02*
X0041000Y0033050D01*
X0047400Y0034650D02*
X0038600Y0043450D01*
X0038600Y0045050D01*
X0038500Y0045150D01*
X0034600Y0046650D02*
X0037800Y0049850D01*
X0038500Y0050150D01*
X0034600Y0046650D02*
X0034600Y0039450D01*
X0042600Y0043450D02*
X0044200Y0041850D01*
X0077800Y0041850D01*
X0081000Y0045050D01*
X0081000Y0062650D01*
X0086000Y0067650D01*
X0076000Y0057650D02*
X0075400Y0057850D01*
X0070600Y0062650D01*
X0063400Y0062650D01*
X0061000Y0060250D01*
X0046600Y0060250D01*
X0046000Y0060150D01*
X0046600Y0055450D02*
X0046000Y0055150D01*
X0046600Y0055450D02*
X0064200Y0055450D01*
X0065800Y0057050D01*
X0066000Y0057650D01*
X0066000Y0047650D02*
X0064200Y0045850D01*
X0046600Y0045850D01*
X0046000Y0045150D01*
X0042600Y0043450D02*
X0042600Y0065850D01*
X0038600Y0069850D01*
X0038500Y0070150D01*
X0046000Y0070150D02*
X0046600Y0069850D01*
X0064200Y0069850D01*
X0065800Y0068250D01*
X0066000Y0067650D01*
X0064200Y0075450D02*
X0065800Y0077050D01*
X0066000Y0077650D01*
X0064200Y0075450D02*
X0046600Y0075450D01*
X0046000Y0075150D01*
X0046000Y0080150D02*
X0046600Y0080250D01*
X0061000Y0080250D01*
X0063400Y0082650D01*
X0070600Y0082650D01*
X0075400Y0077850D01*
X0076000Y0077650D01*
X0066000Y0087650D02*
X0064200Y0085850D01*
X0046600Y0085850D01*
X0046000Y0085150D01*
X0046000Y0095150D02*
X0046600Y0095450D01*
X0064200Y0095450D01*
X0065800Y0097050D01*
X0066000Y0097650D01*
X0063400Y0102650D02*
X0070600Y0102650D01*
X0075400Y0097850D01*
X0076000Y0097650D01*
X0066000Y0107650D02*
X0064200Y0105850D01*
X0046600Y0105850D01*
X0046000Y0105150D01*
X0046600Y0100250D02*
X0046000Y0100150D01*
X0046600Y0100250D02*
X0061000Y0100250D01*
X0063400Y0102650D01*
X0066000Y0117650D02*
X0064200Y0119450D01*
X0046600Y0119450D01*
X0046000Y0120150D01*
X0046000Y0125150D02*
X0046600Y0125850D01*
X0064200Y0125850D01*
X0066000Y0127650D01*
X0064200Y0135450D02*
X0065800Y0137050D01*
X0066000Y0137650D01*
X0064200Y0135450D02*
X0046600Y0135450D01*
X0046000Y0135150D01*
X0046000Y0140150D02*
X0046600Y0140250D01*
X0061000Y0140250D01*
X0063400Y0142650D01*
X0070600Y0142650D01*
X0075400Y0137850D01*
X0076000Y0137650D01*
X0066000Y0147650D02*
X0064200Y0145850D01*
X0046600Y0145850D01*
X0046000Y0145150D01*
X0038500Y0140150D02*
X0008200Y0109850D01*
X0008200Y0033050D01*
X0037000Y0004250D01*
X0113000Y0004250D01*
X0113800Y0005050D01*
X0110600Y0022650D02*
X0118600Y0030650D01*
X0118600Y0072250D01*
X0108200Y0082650D01*
X0101000Y0082650D01*
X0096000Y0087650D01*
X0117000Y0108250D02*
X0117000Y0121050D01*
X0111400Y0126650D01*
X0111400Y0139450D01*
X0108200Y0142650D01*
X0101000Y0142650D01*
X0096000Y0137650D01*
X0106000Y0147650D02*
X0114600Y0156250D01*
X0114600Y0229050D01*
X0111400Y0229050D02*
X0111400Y0182650D01*
X0106600Y0177850D01*
X0106000Y0177650D01*
X0096000Y0187650D02*
X0095400Y0187450D01*
X0090600Y0182650D01*
X0083400Y0182650D01*
X0081000Y0185050D01*
X0081000Y0189850D01*
X0077000Y0193850D01*
X0045000Y0193850D01*
X0041800Y0190650D01*
X0038600Y0190650D01*
X0038500Y0190150D01*
X0034600Y0189050D02*
X0038500Y0185150D01*
X0034600Y0189050D02*
X0034600Y0191450D01*
X0038600Y0195450D01*
X0078600Y0195450D01*
X0085800Y0188250D01*
X0086000Y0187650D01*
X0095400Y0199450D02*
X0101000Y0205050D01*
X0101000Y0240250D01*
X0098600Y0242650D01*
X0083400Y0242650D01*
X0081000Y0245050D01*
X0081000Y0252250D01*
X0085800Y0257050D01*
X0086000Y0257650D01*
X0098600Y0262650D02*
X0101000Y0260250D01*
X0101000Y0242650D01*
X0106000Y0237650D01*
X0111400Y0229050D02*
X0120200Y0237850D01*
X0120200Y0302650D01*
X0125000Y0310650D02*
X0111400Y0297050D01*
X0111400Y0285850D01*
X0108200Y0282650D01*
X0091400Y0282650D01*
X0086600Y0277850D01*
X0086000Y0277650D01*
X0076000Y0277650D02*
X0075400Y0277850D01*
X0070600Y0282650D01*
X0063400Y0282650D01*
X0062600Y0281850D01*
X0053000Y0281850D01*
X0046600Y0279450D02*
X0046000Y0280150D01*
X0046600Y0279450D02*
X0064200Y0279450D01*
X0066000Y0277650D01*
X0064200Y0285850D02*
X0066000Y0287650D01*
X0064200Y0285850D02*
X0046600Y0285850D01*
X0046000Y0285150D01*
X0046000Y0290150D02*
X0046600Y0290650D01*
X0061000Y0290650D01*
X0061800Y0291450D01*
X0064200Y0295450D02*
X0065800Y0297050D01*
X0066000Y0297650D01*
X0064200Y0295450D02*
X0046600Y0295450D01*
X0046000Y0295150D01*
X0046000Y0300150D02*
X0046600Y0300250D01*
X0061000Y0300250D01*
X0063400Y0302650D01*
X0070600Y0302650D01*
X0075400Y0297850D01*
X0076000Y0297650D01*
X0081000Y0304250D02*
X0081000Y0340250D01*
X0083400Y0342650D01*
X0089000Y0342650D01*
X0090600Y0344250D01*
X0096000Y0337650D02*
X0101000Y0342650D01*
X0101000Y0349850D01*
X0094600Y0356250D01*
X0083400Y0356250D01*
X0080200Y0353050D01*
X0062600Y0353050D01*
X0060200Y0355450D01*
X0038600Y0355450D01*
X0034600Y0351450D01*
X0034600Y0343450D01*
X0037800Y0340250D01*
X0038500Y0340150D01*
X0037800Y0335450D02*
X0038500Y0335150D01*
X0037800Y0335450D02*
X0033000Y0340250D01*
X0033000Y0352250D01*
X0037800Y0357050D01*
X0072200Y0357050D01*
X0073800Y0355450D01*
X0074600Y0355450D01*
X0073800Y0357850D02*
X0096200Y0357850D01*
X0105800Y0348250D01*
X0106000Y0347650D01*
X0111400Y0349850D02*
X0111400Y0342650D01*
X0106600Y0337850D01*
X0106000Y0337650D01*
X0113000Y0334650D02*
X0106000Y0327650D01*
X0113000Y0334650D02*
X0113000Y0353850D01*
X0105800Y0361050D01*
X0078600Y0361050D01*
X0073800Y0365850D01*
X0073800Y0367450D01*
X0073500Y0367650D01*
X0069000Y0367450D02*
X0077000Y0359450D01*
X0101800Y0359450D01*
X0111400Y0349850D01*
X0117800Y0363450D02*
X0117800Y0325050D01*
X0118600Y0322650D02*
X0091400Y0322650D01*
X0086600Y0317850D01*
X0086000Y0317650D01*
X0091400Y0302650D02*
X0086600Y0297850D01*
X0086000Y0297650D01*
X0091400Y0302650D02*
X0108200Y0302650D01*
X0121800Y0316250D01*
X0121800Y0369050D01*
X0109000Y0381850D01*
X0032200Y0381850D01*
X0019400Y0369050D01*
X0019400Y0313850D01*
X0037800Y0295450D01*
X0038500Y0295150D01*
X0046000Y0305150D02*
X0046600Y0305850D01*
X0064200Y0305850D01*
X0066000Y0307650D01*
X0064200Y0315450D02*
X0065800Y0317050D01*
X0066000Y0317650D01*
X0064200Y0315450D02*
X0046600Y0315450D01*
X0046000Y0315150D01*
X0046000Y0320150D02*
X0046600Y0320250D01*
X0061000Y0320250D01*
X0063400Y0322650D01*
X0070600Y0322650D01*
X0075400Y0317850D01*
X0076000Y0317650D01*
X0066000Y0327650D02*
X0065800Y0328250D01*
X0064200Y0329850D01*
X0046600Y0329850D01*
X0046000Y0330150D01*
X0046000Y0335150D02*
X0046600Y0335450D01*
X0064200Y0335450D01*
X0065800Y0337050D01*
X0066000Y0337650D01*
X0063400Y0342650D02*
X0069800Y0342650D01*
X0075400Y0337050D01*
X0076000Y0337650D01*
X0078600Y0342650D02*
X0073000Y0342650D01*
X0066000Y0347650D02*
X0064200Y0345850D01*
X0046600Y0345850D01*
X0046000Y0345150D01*
X0046600Y0340250D02*
X0046000Y0340150D01*
X0046600Y0340250D02*
X0061000Y0340250D01*
X0063400Y0342650D01*
X0053000Y0348250D02*
X0047400Y0353850D01*
X0045000Y0353850D01*
X0042600Y0351450D01*
X0042600Y0274650D01*
X0038600Y0270650D01*
X0038500Y0270150D01*
X0046000Y0265150D02*
X0046600Y0265850D01*
X0055400Y0265850D01*
X0057000Y0267450D01*
X0065800Y0267450D01*
X0066000Y0267650D01*
X0063400Y0262650D02*
X0098600Y0262650D01*
X0076000Y0237650D02*
X0075400Y0237850D01*
X0070600Y0242650D01*
X0063400Y0242650D01*
X0061000Y0240250D01*
X0046600Y0240250D01*
X0046000Y0240150D01*
X0046600Y0235450D02*
X0046000Y0235150D01*
X0046600Y0235450D02*
X0064200Y0235450D01*
X0065800Y0237050D01*
X0066000Y0237650D01*
X0063400Y0245050D02*
X0066000Y0247650D01*
X0063400Y0245050D02*
X0046600Y0245050D01*
X0046000Y0245150D01*
X0046000Y0255150D02*
X0046600Y0255450D01*
X0064200Y0255450D01*
X0065800Y0257050D01*
X0066000Y0257650D01*
X0063400Y0262650D02*
X0061000Y0265050D01*
X0057800Y0265050D01*
X0038500Y0255150D02*
X0037800Y0254650D01*
X0034600Y0251450D01*
X0034600Y0204250D01*
X0039400Y0199450D01*
X0095400Y0199450D01*
X0096000Y0217650D02*
X0095400Y0217850D01*
X0090600Y0222650D01*
X0071400Y0222650D01*
X0068200Y0222650D02*
X0073000Y0217850D01*
X0075400Y0217850D01*
X0076000Y0217650D01*
X0081000Y0212250D02*
X0085800Y0217050D01*
X0086000Y0217650D01*
X0081000Y0212250D02*
X0081000Y0205050D01*
X0077000Y0201050D01*
X0045000Y0201050D01*
X0042600Y0203450D01*
X0042600Y0210650D01*
X0038600Y0214650D01*
X0038500Y0215150D01*
X0046000Y0215150D02*
X0046600Y0215450D01*
X0064200Y0215450D01*
X0065800Y0217050D01*
X0066000Y0217650D01*
X0068200Y0222650D02*
X0063400Y0222650D01*
X0061000Y0220250D01*
X0046600Y0220250D01*
X0046000Y0220150D01*
X0046600Y0229850D02*
X0046000Y0230150D01*
X0046600Y0229850D02*
X0064200Y0229850D01*
X0065800Y0228250D01*
X0066000Y0227650D01*
X0056200Y0209850D02*
X0063400Y0202650D01*
X0070600Y0202650D01*
X0075400Y0207450D01*
X0076000Y0207650D01*
X0066000Y0187650D02*
X0064200Y0185850D01*
X0046600Y0185850D01*
X0046000Y0185150D01*
X0046600Y0180250D02*
X0046000Y0180150D01*
X0046600Y0180250D02*
X0061000Y0180250D01*
X0063400Y0182650D01*
X0070600Y0182650D01*
X0075400Y0177850D01*
X0076000Y0177650D01*
X0066000Y0177650D02*
X0065800Y0177050D01*
X0064200Y0175450D01*
X0046600Y0175450D01*
X0046000Y0175150D01*
X0046000Y0170150D02*
X0046600Y0169850D01*
X0064200Y0169850D01*
X0065800Y0168250D01*
X0066000Y0167650D01*
X0063400Y0162650D02*
X0061000Y0160250D01*
X0046600Y0160250D01*
X0046000Y0160150D01*
X0046600Y0155450D02*
X0046000Y0155150D01*
X0046600Y0155450D02*
X0064200Y0155450D01*
X0065800Y0157050D01*
X0066000Y0157650D01*
X0063400Y0162650D02*
X0070600Y0162650D01*
X0075400Y0157850D01*
X0076000Y0157650D01*
X0056200Y0209850D02*
X0046600Y0209850D01*
X0046000Y0210150D01*
X0038500Y0280150D02*
X0037800Y0280250D01*
X0016200Y0301850D01*
X0016200Y0370650D01*
X0037000Y0391450D01*
X0117000Y0391450D01*
X0126600Y0381850D01*
X0126600Y0376250D01*
X0125000Y0374650D01*
X0125000Y0310650D01*
X0131400Y0314650D02*
X0143400Y0302650D01*
X0158600Y0302650D01*
X0161000Y0305050D01*
X0161000Y0320250D01*
X0163400Y0322650D01*
X0181000Y0322650D01*
X0186000Y0317650D01*
X0188200Y0322650D02*
X0183400Y0322650D01*
X0181000Y0325050D01*
X0181000Y0340250D01*
X0178600Y0342650D01*
X0173000Y0342650D01*
X0171400Y0344250D01*
X0166600Y0354650D02*
X0157000Y0354650D01*
X0156200Y0353850D01*
X0161000Y0353050D02*
X0156200Y0348250D01*
X0156000Y0347650D01*
X0161000Y0353050D02*
X0193000Y0353050D01*
X0201000Y0345050D01*
X0205800Y0345050D01*
X0206000Y0345150D01*
X0202600Y0347450D02*
X0202600Y0351450D01*
X0207400Y0356250D01*
X0207400Y0357850D01*
X0208200Y0360250D02*
X0172200Y0360250D01*
X0166600Y0354650D01*
X0161800Y0356250D02*
X0147400Y0356250D01*
X0141000Y0349850D01*
X0141000Y0322650D01*
X0146000Y0317650D01*
X0142600Y0313050D02*
X0139400Y0313050D01*
X0133000Y0319450D01*
X0133000Y0361850D01*
X0134600Y0363450D01*
X0134600Y0370650D01*
X0133800Y0373050D02*
X0131400Y0370650D01*
X0131400Y0314650D01*
X0139400Y0316250D02*
X0140200Y0315450D01*
X0139400Y0316250D02*
X0139400Y0350650D01*
X0153000Y0364250D01*
X0153000Y0367450D01*
X0153500Y0367650D01*
X0161800Y0356250D02*
X0173000Y0367450D01*
X0173500Y0367650D01*
X0169000Y0375450D02*
X0168500Y0375150D01*
X0169000Y0375450D02*
X0172200Y0378650D01*
X0192200Y0378650D01*
X0193000Y0384250D02*
X0142600Y0384250D01*
X0129800Y0371450D01*
X0129800Y0246650D01*
X0137000Y0239450D01*
X0140200Y0239450D01*
X0143400Y0242650D01*
X0181000Y0242650D01*
X0186000Y0247650D01*
X0197000Y0253850D02*
X0188200Y0262650D01*
X0163400Y0262650D01*
X0161000Y0260250D01*
X0161000Y0253050D01*
X0156200Y0248250D01*
X0156000Y0247650D01*
X0146600Y0257050D02*
X0146000Y0257650D01*
X0146600Y0257050D02*
X0152200Y0262650D01*
X0158600Y0262650D01*
X0161000Y0265050D01*
X0161000Y0301050D01*
X0176000Y0297650D02*
X0176200Y0297050D01*
X0181000Y0292250D01*
X0181000Y0285050D01*
X0183400Y0282650D01*
X0194600Y0282650D01*
X0202600Y0274650D01*
X0202600Y0207450D01*
X0199400Y0207450D02*
X0199400Y0274650D01*
X0196200Y0277850D01*
X0209800Y0269050D02*
X0209800Y0358650D01*
X0208200Y0360250D01*
X0207400Y0366650D02*
X0218600Y0355450D01*
X0218600Y0318650D01*
X0226600Y0310650D01*
X0226600Y0283450D01*
X0213800Y0270650D01*
X0213500Y0270150D01*
X0209800Y0269050D02*
X0213000Y0265850D01*
X0213500Y0265150D01*
X0213800Y0250650D02*
X0213500Y0250150D01*
X0213800Y0250650D02*
X0228200Y0265050D01*
X0228200Y0349050D01*
X0193000Y0384250D01*
X0199400Y0371450D02*
X0137000Y0371450D01*
X0135400Y0373050D01*
X0133800Y0373050D01*
X0127400Y0374650D02*
X0127400Y0186650D01*
X0133000Y0181050D01*
X0133000Y0177850D01*
X0134600Y0176250D01*
X0137800Y0176250D01*
X0129000Y0181850D02*
X0129000Y0146650D01*
X0113000Y0130650D01*
X0113000Y0127450D01*
X0114600Y0125850D01*
X0126600Y0125850D01*
X0143400Y0142650D01*
X0181000Y0142650D01*
X0186000Y0147650D01*
X0188200Y0142650D02*
X0183400Y0142650D01*
X0181000Y0140250D01*
X0181000Y0133050D01*
X0176200Y0128250D01*
X0176000Y0127650D01*
X0181000Y0122650D02*
X0186000Y0127650D01*
X0188200Y0122650D02*
X0183400Y0122650D01*
X0181000Y0120250D01*
X0181000Y0105050D01*
X0178600Y0102650D01*
X0163400Y0102650D01*
X0161000Y0100250D01*
X0161000Y0085050D01*
X0158600Y0082650D01*
X0143400Y0082650D01*
X0141000Y0080250D01*
X0141000Y0077050D01*
X0139400Y0075450D01*
X0138600Y0075450D01*
X0133800Y0070650D01*
X0133800Y0032250D01*
X0143400Y0022650D01*
X0192200Y0022650D01*
X0193800Y0024250D01*
X0193800Y0027450D01*
X0205000Y0038650D01*
X0216200Y0038650D01*
X0218600Y0041050D01*
X0218600Y0120250D01*
X0213800Y0125050D01*
X0213500Y0125150D01*
X0213500Y0130150D02*
X0223400Y0120250D01*
X0223400Y0040250D01*
X0229000Y0034650D01*
X0229000Y0027450D01*
X0213800Y0012250D01*
X0141000Y0012250D01*
X0129000Y0024250D01*
X0129000Y0108250D01*
X0143400Y0122650D01*
X0181000Y0122650D01*
X0188200Y0122650D02*
X0191400Y0125850D01*
X0191400Y0139450D01*
X0188200Y0142650D01*
X0186000Y0157650D02*
X0181000Y0162650D01*
X0143400Y0162650D01*
X0141000Y0165050D01*
X0141000Y0189850D01*
X0146600Y0195450D01*
X0213000Y0195450D01*
X0217000Y0191450D01*
X0217000Y0163450D01*
X0213800Y0160250D01*
X0213500Y0160150D01*
X0218600Y0155450D02*
X0218600Y0192250D01*
X0213000Y0197850D01*
X0145000Y0197850D01*
X0145800Y0200250D02*
X0141000Y0205050D01*
X0141000Y0220250D01*
X0143400Y0222650D01*
X0181000Y0222650D01*
X0186000Y0227650D01*
X0188200Y0222650D02*
X0183400Y0222650D01*
X0181000Y0220250D01*
X0181000Y0205050D01*
X0178600Y0202650D01*
X0161000Y0202650D01*
X0156000Y0207650D01*
X0145800Y0200250D02*
X0213800Y0200250D01*
X0217000Y0203450D01*
X0217000Y0221850D01*
X0213800Y0225050D01*
X0213500Y0225150D01*
X0213800Y0239450D02*
X0213500Y0240150D01*
X0213800Y0239450D02*
X0230600Y0222650D01*
X0230600Y0031450D01*
X0231400Y0030650D01*
X0233800Y0029850D02*
X0214600Y0010650D01*
X0128200Y0010650D01*
X0136200Y0024250D02*
X0130600Y0029850D01*
X0130600Y0092250D01*
X0146000Y0107650D01*
X0146000Y0087650D02*
X0145800Y0087450D01*
X0144200Y0087450D01*
X0133800Y0077050D01*
X0138600Y0077850D02*
X0132200Y0071450D01*
X0132200Y0031450D01*
X0143400Y0020250D01*
X0193000Y0020250D01*
X0197000Y0024250D01*
X0205000Y0024250D01*
X0205800Y0036250D02*
X0216200Y0036250D01*
X0218600Y0038650D01*
X0221800Y0038650D01*
X0217000Y0042650D02*
X0216200Y0041850D01*
X0217000Y0042650D02*
X0217000Y0081850D01*
X0213800Y0085050D01*
X0213500Y0085150D01*
X0206000Y0065150D02*
X0205800Y0065050D01*
X0197000Y0065050D01*
X0194600Y0064250D02*
X0196200Y0062650D01*
X0196200Y0045850D01*
X0193800Y0040250D02*
X0186600Y0047450D01*
X0186000Y0047650D01*
X0193800Y0040250D02*
X0205800Y0040250D01*
X0209800Y0044250D01*
X0209800Y0046650D01*
X0213000Y0049850D01*
X0213500Y0050150D01*
X0194600Y0064250D02*
X0194600Y0102650D01*
X0176000Y0077650D02*
X0175400Y0077850D01*
X0170600Y0082650D01*
X0163400Y0082650D01*
X0161000Y0080250D01*
X0161000Y0063450D01*
X0163400Y0062650D02*
X0161000Y0060250D01*
X0161000Y0045050D01*
X0164200Y0041850D01*
X0164200Y0040250D01*
X0169000Y0034650D02*
X0149000Y0034650D01*
X0139400Y0044250D01*
X0139400Y0061050D01*
X0146000Y0067650D01*
X0141800Y0071450D02*
X0145800Y0075450D01*
X0145800Y0077050D01*
X0146000Y0077650D01*
X0141000Y0073850D02*
X0139400Y0073850D01*
X0135400Y0069850D01*
X0135400Y0036250D01*
X0140200Y0031450D01*
X0145000Y0031450D01*
X0148200Y0028250D01*
X0148500Y0027650D01*
X0149800Y0036250D02*
X0141000Y0045050D01*
X0141000Y0052250D01*
X0145800Y0057050D01*
X0146000Y0057650D01*
X0146000Y0047650D02*
X0146600Y0047450D01*
X0156200Y0037850D01*
X0178600Y0037850D01*
X0188200Y0028250D01*
X0188500Y0027650D01*
X0183500Y0027650D02*
X0183400Y0028250D01*
X0175400Y0036250D01*
X0149800Y0036250D01*
X0141000Y0033050D02*
X0137000Y0037050D01*
X0137000Y0069050D01*
X0139400Y0071450D01*
X0141800Y0071450D01*
X0163400Y0062650D02*
X0181000Y0062650D01*
X0186000Y0067650D01*
X0173000Y0033050D02*
X0170600Y0033050D01*
X0169000Y0034650D01*
X0168200Y0033050D02*
X0173000Y0028250D01*
X0173500Y0027650D01*
X0177800Y0028250D02*
X0173000Y0033050D01*
X0168200Y0033050D02*
X0141000Y0033050D01*
X0110600Y0022650D02*
X0061800Y0022650D01*
X0062600Y0034650D02*
X0047400Y0034650D01*
X0047400Y0037850D02*
X0089000Y0037850D01*
X0093800Y0042650D01*
X0098600Y0042650D01*
X0101000Y0045050D01*
X0090600Y0036250D02*
X0089000Y0034650D01*
X0089000Y0028250D01*
X0088500Y0027650D01*
X0081800Y0024250D02*
X0109800Y0024250D01*
X0081800Y0024250D02*
X0078600Y0027450D01*
X0078500Y0027650D01*
X0115400Y0128250D02*
X0117000Y0128250D01*
X0145800Y0157050D01*
X0146000Y0157650D01*
X0156000Y0177650D02*
X0161000Y0182650D01*
X0178600Y0182650D01*
X0181000Y0180250D01*
X0181000Y0165050D01*
X0183400Y0162650D01*
X0188200Y0162650D01*
X0200200Y0174650D01*
X0205800Y0174650D01*
X0206000Y0175150D01*
X0205800Y0185050D02*
X0206000Y0185150D01*
X0205800Y0185050D02*
X0190600Y0185050D01*
X0188200Y0182650D01*
X0183400Y0182650D01*
X0181000Y0185050D01*
X0181000Y0189850D01*
X0177800Y0193050D01*
X0161000Y0193050D01*
X0156200Y0188250D01*
X0156000Y0187650D01*
X0186000Y0187650D02*
X0192200Y0193850D01*
X0207400Y0193850D01*
X0210600Y0190650D01*
X0213000Y0190650D01*
X0213500Y0190150D01*
X0206000Y0190150D02*
X0205800Y0190650D01*
X0193000Y0190650D01*
X0192200Y0201850D02*
X0186600Y0207450D01*
X0186000Y0207650D01*
X0191400Y0212250D02*
X0191400Y0219450D01*
X0188200Y0222650D01*
X0191400Y0212250D02*
X0198600Y0205050D01*
X0205800Y0205050D01*
X0206000Y0205150D01*
X0207400Y0201850D02*
X0192200Y0201850D01*
X0207400Y0201850D02*
X0209800Y0204250D01*
X0209800Y0206650D01*
X0213000Y0209850D01*
X0213500Y0210150D01*
X0233800Y0225050D02*
X0233800Y0029850D01*
X0178500Y0027650D02*
X0177800Y0028250D01*
X0213500Y0150150D02*
X0213800Y0150650D01*
X0218600Y0155450D01*
X0233800Y0225050D02*
X0213800Y0245050D01*
X0213500Y0245150D01*
X0197000Y0245850D02*
X0197000Y0253850D01*
X0188200Y0302650D02*
X0181000Y0302650D01*
X0176000Y0307650D01*
X0186000Y0307650D02*
X0191400Y0313050D01*
X0191400Y0319450D01*
X0188200Y0322650D01*
X0193000Y0322650D02*
X0193000Y0344250D01*
X0197000Y0345850D02*
X0197000Y0311450D01*
X0188200Y0302650D01*
X0197000Y0308250D02*
X0198600Y0309850D01*
X0205800Y0309850D01*
X0206000Y0310150D01*
X0213500Y0320150D02*
X0213800Y0320250D01*
X0217000Y0323450D01*
X0217000Y0353850D01*
X0199400Y0371450D01*
X0145000Y0388250D02*
X0141000Y0388250D01*
X0127400Y0374650D01*
X0120200Y0368250D02*
X0120200Y0324250D01*
X0118600Y0322650D01*
X0136200Y0297850D02*
X0136200Y0257850D01*
X0145800Y0248250D01*
X0146000Y0247650D01*
X0138600Y0245850D02*
X0137800Y0245050D01*
X0138600Y0245850D02*
X0138600Y0252250D01*
X0078600Y0342650D02*
X0081000Y0345050D01*
X0081000Y0350650D01*
X0084200Y0353850D01*
X0079400Y0363450D02*
X0083400Y0367450D01*
X0083500Y0367650D01*
X0093800Y0374650D02*
X0093500Y0375150D01*
X0093800Y0374650D02*
X0097000Y0371450D01*
X0109800Y0371450D01*
X0117800Y0363450D01*
X0120200Y0368250D02*
X0108200Y0380250D01*
X0051400Y0380250D01*
X0026600Y0355450D01*
X0026600Y0326650D01*
X0037800Y0315450D01*
X0038500Y0315150D01*
X0037800Y0310650D02*
X0038500Y0310150D01*
X0037800Y0310650D02*
X0027400Y0321050D01*
X0049000Y0364250D02*
X0049800Y0364250D01*
X0057000Y0371450D01*
X0065000Y0371450D01*
X0068200Y0374650D01*
X0068500Y0375150D01*
X0068500Y0367650D02*
X0069000Y0367450D01*
X0064200Y0367450D02*
X0073800Y0357850D01*
X0064200Y0367450D02*
X0063500Y0367650D01*
X0061000Y0378650D02*
X0051400Y0369050D01*
X0061000Y0378650D02*
X0105000Y0378650D01*
X0108500Y0375150D01*
D14*
X0090600Y0344250D03*
X0084200Y0353850D03*
X0079400Y0363450D03*
X0074600Y0355450D03*
X0073000Y0342650D03*
X0053000Y0348250D03*
X0049000Y0364250D03*
X0051400Y0369050D03*
X0027400Y0321050D03*
X0053000Y0281850D03*
X0061800Y0291450D03*
X0057800Y0265050D03*
X0060200Y0247450D03*
X0071400Y0222650D03*
X0089800Y0202650D03*
X0114600Y0229050D03*
X0117800Y0254650D03*
X0137800Y0245050D03*
X0138600Y0252250D03*
X0149000Y0262650D03*
X0136200Y0297850D03*
X0142600Y0313050D03*
X0140200Y0315450D03*
X0120200Y0302650D03*
X0113000Y0310650D03*
X0117800Y0325050D03*
X0137800Y0363450D03*
X0134600Y0370650D03*
X0145000Y0388250D03*
X0156200Y0353850D03*
X0171400Y0344250D03*
X0193000Y0344250D03*
X0197000Y0345850D03*
X0202600Y0347450D03*
X0207400Y0357850D03*
X0207400Y0366650D03*
X0192200Y0378650D03*
X0193000Y0322650D03*
X0197000Y0308250D03*
X0196200Y0277850D03*
X0197000Y0245850D03*
X0199400Y0207450D03*
X0202600Y0207450D03*
X0193000Y0190650D03*
X0145000Y0197850D03*
X0138600Y0216250D03*
X0129000Y0181850D03*
X0137800Y0176250D03*
X0115400Y0128250D03*
X0117000Y0108250D03*
X0110600Y0092250D03*
X0112200Y0074650D03*
X0133800Y0077050D03*
X0138600Y0077850D03*
X0141000Y0073850D03*
X0140200Y0069050D03*
X0161000Y0063450D03*
X0164200Y0040250D03*
X0136200Y0024250D03*
X0128200Y0010650D03*
X0113800Y0005050D03*
X0097800Y0031450D03*
X0090600Y0036250D03*
X0112200Y0037050D03*
X0062600Y0034650D03*
X0049800Y0016250D03*
X0041000Y0033050D03*
X0047400Y0037850D03*
X0030600Y0038650D03*
X0021800Y0094650D03*
X0024200Y0097050D03*
X0031400Y0221850D03*
X0081000Y0304250D03*
X0161000Y0301050D03*
X0194600Y0102650D03*
X0197000Y0065050D03*
X0192200Y0057850D03*
X0196200Y0045850D03*
X0202600Y0042650D03*
X0205800Y0036250D03*
X0204200Y0033850D03*
X0205000Y0024250D03*
X0216200Y0041850D03*
X0219400Y0036250D03*
X0221800Y0038650D03*
X0228200Y0045050D03*
X0231400Y0030650D03*
X0227400Y0094650D03*
M02*
