G75*
%MOIN*%
%OFA0B0*%
%FSLAX25Y25*%
%IPPOS*%
%LPD*%
%AMOC8*
5,1,8,0,0,1.08239X$1,22.5*
%
%ADD10C,0.00000*%
%ADD11C,0.06000*%
%ADD12C,0.03200*%
%ADD13C,0.00800*%
%ADD14C,0.02000*%
D10*
X0001000Y0002650D02*
X0001000Y0396351D01*
X0250921Y0396351D01*
X0250921Y0002650D01*
X0001000Y0002650D01*
D11*
X0066000Y0047650D03*
X0066000Y0057650D03*
X0066000Y0067650D03*
X0066000Y0077650D03*
X0066000Y0087650D03*
X0066000Y0097650D03*
X0066000Y0107650D03*
X0066000Y0117650D03*
X0066000Y0127650D03*
X0066000Y0137650D03*
X0066000Y0147650D03*
X0066000Y0157650D03*
X0066000Y0167650D03*
X0066000Y0177650D03*
X0066000Y0187650D03*
X0076000Y0187650D03*
X0076000Y0177650D03*
X0076000Y0167650D03*
X0076000Y0157650D03*
X0076000Y0147650D03*
X0076000Y0137650D03*
X0076000Y0127650D03*
X0076000Y0117650D03*
X0076000Y0107650D03*
X0076000Y0097650D03*
X0076000Y0087650D03*
X0076000Y0077650D03*
X0076000Y0067650D03*
X0076000Y0057650D03*
X0076000Y0047650D03*
X0086000Y0047650D03*
X0086000Y0057650D03*
X0086000Y0067650D03*
X0086000Y0077650D03*
X0086000Y0087650D03*
X0086000Y0097650D03*
X0086000Y0107650D03*
X0086000Y0117650D03*
X0086000Y0127650D03*
X0086000Y0137650D03*
X0086000Y0147650D03*
X0086000Y0157650D03*
X0086000Y0167650D03*
X0086000Y0177650D03*
X0086000Y0187650D03*
X0096000Y0187650D03*
X0096000Y0177650D03*
X0096000Y0167650D03*
X0096000Y0157650D03*
X0096000Y0147650D03*
X0096000Y0137650D03*
X0096000Y0127650D03*
X0096000Y0117650D03*
X0096000Y0107650D03*
X0096000Y0097650D03*
X0096000Y0087650D03*
X0096000Y0077650D03*
X0096000Y0067650D03*
X0096000Y0057650D03*
X0096000Y0047650D03*
X0106000Y0047650D03*
X0106000Y0057650D03*
X0106000Y0067650D03*
X0106000Y0077650D03*
X0106000Y0087650D03*
X0106000Y0097650D03*
X0106000Y0107650D03*
X0106000Y0117650D03*
X0106000Y0127650D03*
X0106000Y0137650D03*
X0106000Y0147650D03*
X0106000Y0157650D03*
X0106000Y0167650D03*
X0106000Y0177650D03*
X0106000Y0187650D03*
X0106000Y0207650D03*
X0106000Y0217650D03*
X0106000Y0227650D03*
X0106000Y0237650D03*
X0106000Y0247650D03*
X0106000Y0257650D03*
X0106000Y0267650D03*
X0106000Y0277650D03*
X0106000Y0287650D03*
X0106000Y0297650D03*
X0106000Y0307650D03*
X0106000Y0317650D03*
X0106000Y0327650D03*
X0106000Y0337650D03*
X0106000Y0347650D03*
X0096000Y0347650D03*
X0096000Y0337650D03*
X0096000Y0327650D03*
X0096000Y0317650D03*
X0096000Y0307650D03*
X0096000Y0297650D03*
X0096000Y0287650D03*
X0096000Y0277650D03*
X0096000Y0267650D03*
X0096000Y0257650D03*
X0096000Y0247650D03*
X0096000Y0237650D03*
X0096000Y0227650D03*
X0096000Y0217650D03*
X0096000Y0207650D03*
X0086000Y0207650D03*
X0086000Y0217650D03*
X0086000Y0227650D03*
X0086000Y0237650D03*
X0086000Y0247650D03*
X0086000Y0257650D03*
X0086000Y0267650D03*
X0086000Y0277650D03*
X0086000Y0287650D03*
X0086000Y0297650D03*
X0086000Y0307650D03*
X0086000Y0317650D03*
X0086000Y0327650D03*
X0086000Y0337650D03*
X0086000Y0347650D03*
X0076000Y0347650D03*
X0076000Y0337650D03*
X0076000Y0327650D03*
X0076000Y0317650D03*
X0076000Y0307650D03*
X0076000Y0297650D03*
X0076000Y0287650D03*
X0076000Y0277650D03*
X0076000Y0267650D03*
X0076000Y0257650D03*
X0076000Y0247650D03*
X0076000Y0237650D03*
X0076000Y0227650D03*
X0076000Y0217650D03*
X0076000Y0207650D03*
X0066000Y0207650D03*
X0066000Y0217650D03*
X0066000Y0227650D03*
X0066000Y0237650D03*
X0066000Y0247650D03*
X0066000Y0257650D03*
X0066000Y0267650D03*
X0066000Y0277650D03*
X0066000Y0287650D03*
X0066000Y0297650D03*
X0066000Y0307650D03*
X0066000Y0317650D03*
X0066000Y0327650D03*
X0066000Y0337650D03*
X0066000Y0347650D03*
X0146000Y0347650D03*
X0146000Y0337650D03*
X0146000Y0327650D03*
X0146000Y0317650D03*
X0146000Y0307650D03*
X0146000Y0297650D03*
X0146000Y0287650D03*
X0146000Y0277650D03*
X0146000Y0267650D03*
X0146000Y0257650D03*
X0146000Y0247650D03*
X0146000Y0237650D03*
X0146000Y0227650D03*
X0146000Y0217650D03*
X0146000Y0207650D03*
X0156000Y0207650D03*
X0156000Y0217650D03*
X0156000Y0227650D03*
X0156000Y0237650D03*
X0156000Y0247650D03*
X0156000Y0257650D03*
X0156000Y0267650D03*
X0156000Y0277650D03*
X0156000Y0287650D03*
X0156000Y0297650D03*
X0156000Y0307650D03*
X0156000Y0317650D03*
X0156000Y0327650D03*
X0156000Y0337650D03*
X0156000Y0347650D03*
X0166000Y0347650D03*
X0166000Y0337650D03*
X0166000Y0327650D03*
X0166000Y0317650D03*
X0166000Y0307650D03*
X0166000Y0297650D03*
X0166000Y0287650D03*
X0166000Y0277650D03*
X0166000Y0267650D03*
X0166000Y0257650D03*
X0166000Y0247650D03*
X0166000Y0237650D03*
X0166000Y0227650D03*
X0166000Y0217650D03*
X0166000Y0207650D03*
X0176000Y0207650D03*
X0176000Y0217650D03*
X0176000Y0227650D03*
X0176000Y0237650D03*
X0176000Y0247650D03*
X0176000Y0257650D03*
X0176000Y0267650D03*
X0176000Y0277650D03*
X0176000Y0287650D03*
X0176000Y0297650D03*
X0176000Y0307650D03*
X0176000Y0317650D03*
X0176000Y0327650D03*
X0176000Y0337650D03*
X0176000Y0347650D03*
X0186000Y0347650D03*
X0186000Y0337650D03*
X0186000Y0327650D03*
X0186000Y0317650D03*
X0186000Y0307650D03*
X0186000Y0297650D03*
X0186000Y0287650D03*
X0186000Y0277650D03*
X0186000Y0267650D03*
X0186000Y0257650D03*
X0186000Y0247650D03*
X0186000Y0237650D03*
X0186000Y0227650D03*
X0186000Y0217650D03*
X0186000Y0207650D03*
X0186000Y0187650D03*
X0186000Y0177650D03*
X0186000Y0167650D03*
X0186000Y0157650D03*
X0186000Y0147650D03*
X0186000Y0137650D03*
X0186000Y0127650D03*
X0186000Y0117650D03*
X0186000Y0107650D03*
X0186000Y0097650D03*
X0186000Y0087650D03*
X0186000Y0077650D03*
X0186000Y0067650D03*
X0186000Y0057650D03*
X0186000Y0047650D03*
X0176000Y0047650D03*
X0176000Y0057650D03*
X0176000Y0067650D03*
X0176000Y0077650D03*
X0176000Y0087650D03*
X0176000Y0097650D03*
X0176000Y0107650D03*
X0176000Y0117650D03*
X0176000Y0127650D03*
X0176000Y0137650D03*
X0176000Y0147650D03*
X0176000Y0157650D03*
X0176000Y0167650D03*
X0176000Y0177650D03*
X0176000Y0187650D03*
X0166000Y0187650D03*
X0166000Y0177650D03*
X0166000Y0167650D03*
X0166000Y0157650D03*
X0166000Y0147650D03*
X0166000Y0137650D03*
X0166000Y0127650D03*
X0166000Y0117650D03*
X0166000Y0107650D03*
X0166000Y0097650D03*
X0166000Y0087650D03*
X0166000Y0077650D03*
X0166000Y0067650D03*
X0166000Y0057650D03*
X0166000Y0047650D03*
X0156000Y0047650D03*
X0156000Y0057650D03*
X0156000Y0067650D03*
X0156000Y0077650D03*
X0156000Y0087650D03*
X0156000Y0097650D03*
X0156000Y0107650D03*
X0156000Y0117650D03*
X0156000Y0127650D03*
X0156000Y0137650D03*
X0156000Y0147650D03*
X0156000Y0157650D03*
X0156000Y0167650D03*
X0156000Y0177650D03*
X0156000Y0187650D03*
X0146000Y0187650D03*
X0146000Y0177650D03*
X0146000Y0167650D03*
X0146000Y0157650D03*
X0146000Y0147650D03*
X0146000Y0137650D03*
X0146000Y0127650D03*
X0146000Y0117650D03*
X0146000Y0107650D03*
X0146000Y0097650D03*
X0146000Y0087650D03*
X0146000Y0077650D03*
X0146000Y0067650D03*
X0146000Y0057650D03*
X0146000Y0047650D03*
D12*
X0143500Y0027650D03*
X0148500Y0027650D03*
X0153500Y0027650D03*
X0158500Y0027650D03*
X0163500Y0027650D03*
X0168500Y0027650D03*
X0173500Y0027650D03*
X0178500Y0027650D03*
X0183500Y0027650D03*
X0188500Y0027650D03*
X0206000Y0045150D03*
X0206000Y0050150D03*
X0206000Y0055150D03*
X0206000Y0060150D03*
X0206000Y0065150D03*
X0206000Y0070150D03*
X0206000Y0075150D03*
X0206000Y0080150D03*
X0206000Y0085150D03*
X0206000Y0090150D03*
X0206000Y0095150D03*
X0206000Y0100150D03*
X0206000Y0105150D03*
X0206000Y0110150D03*
X0206000Y0115150D03*
X0206000Y0120150D03*
X0206000Y0125150D03*
X0206000Y0130150D03*
X0206000Y0135150D03*
X0206000Y0140150D03*
X0206000Y0145150D03*
X0206000Y0150150D03*
X0206000Y0155150D03*
X0206000Y0160150D03*
X0206000Y0165150D03*
X0206000Y0170150D03*
X0206000Y0175150D03*
X0206000Y0180150D03*
X0206000Y0185150D03*
X0206000Y0190150D03*
X0213500Y0190150D03*
X0213500Y0185150D03*
X0213500Y0180150D03*
X0213500Y0175150D03*
X0213500Y0170150D03*
X0213500Y0165150D03*
X0213500Y0160150D03*
X0213500Y0155150D03*
X0213500Y0150150D03*
X0213500Y0145150D03*
X0213500Y0140150D03*
X0213500Y0135150D03*
X0213500Y0130150D03*
X0213500Y0125150D03*
X0213500Y0120150D03*
X0213500Y0115150D03*
X0213500Y0110150D03*
X0213500Y0105150D03*
X0213500Y0100150D03*
X0213500Y0095150D03*
X0213500Y0090150D03*
X0213500Y0085150D03*
X0213500Y0080150D03*
X0213500Y0075150D03*
X0213500Y0070150D03*
X0213500Y0065150D03*
X0213500Y0060150D03*
X0213500Y0055150D03*
X0213500Y0050150D03*
X0213500Y0045150D03*
X0213500Y0205150D03*
X0213500Y0210150D03*
X0213500Y0215150D03*
X0213500Y0220150D03*
X0213500Y0225150D03*
X0213500Y0230150D03*
X0213500Y0235150D03*
X0213500Y0240150D03*
X0213500Y0245150D03*
X0213500Y0250150D03*
X0213500Y0255150D03*
X0213500Y0260150D03*
X0213500Y0265150D03*
X0213500Y0270150D03*
X0213500Y0275150D03*
X0213500Y0280150D03*
X0213500Y0285150D03*
X0213500Y0290150D03*
X0213500Y0295150D03*
X0213500Y0300150D03*
X0213500Y0305150D03*
X0213500Y0310150D03*
X0213500Y0315150D03*
X0213500Y0320150D03*
X0213500Y0325150D03*
X0213500Y0330150D03*
X0213500Y0335150D03*
X0213500Y0340150D03*
X0213500Y0345150D03*
X0213500Y0350150D03*
X0206000Y0350150D03*
X0206000Y0345150D03*
X0206000Y0340150D03*
X0206000Y0335150D03*
X0206000Y0330150D03*
X0206000Y0325150D03*
X0206000Y0320150D03*
X0206000Y0315150D03*
X0206000Y0310150D03*
X0206000Y0305150D03*
X0206000Y0300150D03*
X0206000Y0295150D03*
X0206000Y0290150D03*
X0206000Y0285150D03*
X0206000Y0280150D03*
X0206000Y0275150D03*
X0206000Y0270150D03*
X0206000Y0265150D03*
X0206000Y0260150D03*
X0206000Y0255150D03*
X0206000Y0250150D03*
X0206000Y0245150D03*
X0206000Y0240150D03*
X0206000Y0235150D03*
X0206000Y0230150D03*
X0206000Y0225150D03*
X0206000Y0220150D03*
X0206000Y0215150D03*
X0206000Y0210150D03*
X0206000Y0205150D03*
X0188500Y0367650D03*
X0183500Y0367650D03*
X0178500Y0367650D03*
X0173500Y0367650D03*
X0168500Y0367650D03*
X0163500Y0367650D03*
X0158500Y0367650D03*
X0153500Y0367650D03*
X0148500Y0367650D03*
X0143500Y0367650D03*
X0143500Y0375150D03*
X0148500Y0375150D03*
X0153500Y0375150D03*
X0158500Y0375150D03*
X0163500Y0375150D03*
X0168500Y0375150D03*
X0173500Y0375150D03*
X0178500Y0375150D03*
X0183500Y0375150D03*
X0188500Y0375150D03*
X0108500Y0375150D03*
X0103500Y0375150D03*
X0098500Y0375150D03*
X0093500Y0375150D03*
X0088500Y0375150D03*
X0083500Y0375150D03*
X0078500Y0375150D03*
X0073500Y0375150D03*
X0068500Y0375150D03*
X0063500Y0375150D03*
X0063500Y0367650D03*
X0068500Y0367650D03*
X0073500Y0367650D03*
X0078500Y0367650D03*
X0083500Y0367650D03*
X0088500Y0367650D03*
X0093500Y0367650D03*
X0098500Y0367650D03*
X0103500Y0367650D03*
X0108500Y0367650D03*
X0046000Y0350150D03*
X0046000Y0345150D03*
X0046000Y0340150D03*
X0046000Y0335150D03*
X0046000Y0330150D03*
X0046000Y0325150D03*
X0046000Y0320150D03*
X0046000Y0315150D03*
X0046000Y0310150D03*
X0046000Y0305150D03*
X0046000Y0300150D03*
X0046000Y0295150D03*
X0046000Y0290150D03*
X0046000Y0285150D03*
X0046000Y0280150D03*
X0046000Y0275150D03*
X0046000Y0270150D03*
X0046000Y0265150D03*
X0046000Y0260150D03*
X0046000Y0255150D03*
X0046000Y0250150D03*
X0046000Y0245150D03*
X0046000Y0240150D03*
X0046000Y0235150D03*
X0046000Y0230150D03*
X0046000Y0225150D03*
X0046000Y0220150D03*
X0046000Y0215150D03*
X0046000Y0210150D03*
X0046000Y0205150D03*
X0038500Y0205150D03*
X0038500Y0210150D03*
X0038500Y0215150D03*
X0038500Y0220150D03*
X0038500Y0225150D03*
X0038500Y0230150D03*
X0038500Y0235150D03*
X0038500Y0240150D03*
X0038500Y0245150D03*
X0038500Y0250150D03*
X0038500Y0255150D03*
X0038500Y0260150D03*
X0038500Y0265150D03*
X0038500Y0270150D03*
X0038500Y0275150D03*
X0038500Y0280150D03*
X0038500Y0285150D03*
X0038500Y0290150D03*
X0038500Y0295150D03*
X0038500Y0300150D03*
X0038500Y0305150D03*
X0038500Y0310150D03*
X0038500Y0315150D03*
X0038500Y0320150D03*
X0038500Y0325150D03*
X0038500Y0330150D03*
X0038500Y0335150D03*
X0038500Y0340150D03*
X0038500Y0345150D03*
X0038500Y0350150D03*
X0038500Y0190150D03*
X0038500Y0185150D03*
X0038500Y0180150D03*
X0038500Y0175150D03*
X0038500Y0170150D03*
X0038500Y0165150D03*
X0038500Y0160150D03*
X0038500Y0155150D03*
X0038500Y0150150D03*
X0038500Y0145150D03*
X0038500Y0140150D03*
X0038500Y0135150D03*
X0038500Y0130150D03*
X0038500Y0125150D03*
X0038500Y0120150D03*
X0038500Y0115150D03*
X0038500Y0110150D03*
X0038500Y0105150D03*
X0038500Y0100150D03*
X0038500Y0095150D03*
X0038500Y0090150D03*
X0038500Y0085150D03*
X0038500Y0080150D03*
X0038500Y0075150D03*
X0038500Y0070150D03*
X0038500Y0065150D03*
X0038500Y0060150D03*
X0038500Y0055150D03*
X0038500Y0050150D03*
X0038500Y0045150D03*
X0046000Y0045150D03*
X0046000Y0050150D03*
X0046000Y0055150D03*
X0046000Y0060150D03*
X0046000Y0065150D03*
X0046000Y0070150D03*
X0046000Y0075150D03*
X0046000Y0080150D03*
X0046000Y0085150D03*
X0046000Y0090150D03*
X0046000Y0095150D03*
X0046000Y0100150D03*
X0046000Y0105150D03*
X0046000Y0110150D03*
X0046000Y0115150D03*
X0046000Y0120150D03*
X0046000Y0125150D03*
X0046000Y0130150D03*
X0046000Y0135150D03*
X0046000Y0140150D03*
X0046000Y0145150D03*
X0046000Y0150150D03*
X0046000Y0155150D03*
X0046000Y0160150D03*
X0046000Y0165150D03*
X0046000Y0170150D03*
X0046000Y0175150D03*
X0046000Y0180150D03*
X0046000Y0185150D03*
X0046000Y0190150D03*
X0063500Y0027650D03*
X0068500Y0027650D03*
X0073500Y0027650D03*
X0078500Y0027650D03*
X0083500Y0027650D03*
X0088500Y0027650D03*
X0093500Y0027650D03*
X0098500Y0027650D03*
X0103500Y0027650D03*
X0108500Y0027650D03*
D13*
X0111400Y0029050D02*
X0109000Y0031450D01*
X0111400Y0029050D02*
X0111400Y0025050D01*
X0104200Y0017850D01*
X0064200Y0017850D01*
X0059400Y0022650D01*
X0056200Y0022650D01*
X0050600Y0028250D01*
X0045800Y0028250D01*
X0045800Y0033050D02*
X0049000Y0036250D01*
X0045800Y0033050D02*
X0037800Y0033050D01*
X0039400Y0037850D02*
X0045000Y0037850D01*
X0045000Y0041850D02*
X0047400Y0041850D01*
X0061800Y0056250D01*
X0061800Y0109850D01*
X0065000Y0113050D01*
X0067400Y0113050D01*
X0071400Y0117050D01*
X0071400Y0119450D01*
X0075400Y0123450D01*
X0077800Y0123450D01*
X0081800Y0127450D01*
X0081800Y0129850D01*
X0085000Y0133050D01*
X0087400Y0133050D01*
X0091400Y0137050D01*
X0091400Y0143450D01*
X0095400Y0147450D01*
X0096000Y0147650D01*
X0096000Y0157650D02*
X0101800Y0163450D01*
X0101800Y0177850D01*
X0097800Y0181850D01*
X0075400Y0181850D01*
X0071400Y0185850D01*
X0071400Y0188250D01*
X0066600Y0193050D01*
X0061000Y0193050D01*
X0063400Y0198650D02*
X0071400Y0206650D01*
X0071400Y0209050D01*
X0075400Y0213050D01*
X0077800Y0213050D01*
X0081800Y0217050D01*
X0081800Y0219450D01*
X0085800Y0223450D01*
X0088200Y0223450D01*
X0091400Y0226650D01*
X0091400Y0229050D01*
X0095400Y0233050D01*
X0097800Y0233050D01*
X0100200Y0235450D01*
X0100200Y0253050D01*
X0096200Y0257050D01*
X0096000Y0257650D01*
X0096000Y0247650D02*
X0095400Y0247450D01*
X0091400Y0243450D01*
X0091400Y0237050D01*
X0087400Y0233050D01*
X0085000Y0233050D01*
X0081800Y0229850D01*
X0081800Y0227450D01*
X0077800Y0223450D01*
X0075400Y0223450D01*
X0071400Y0219450D01*
X0071400Y0217050D01*
X0067400Y0213050D01*
X0065000Y0213050D01*
X0052200Y0200250D01*
X0039400Y0200250D01*
X0035400Y0204250D01*
X0035400Y0221050D01*
X0036200Y0221850D01*
X0036200Y0223450D01*
X0035400Y0224250D01*
X0035400Y0241050D01*
X0036200Y0241850D01*
X0036200Y0243450D01*
X0035400Y0244250D01*
X0035400Y0246650D01*
X0036200Y0247450D01*
X0036200Y0248250D01*
X0037800Y0249850D01*
X0038500Y0250150D01*
X0035400Y0249850D02*
X0034600Y0249050D01*
X0034600Y0248250D01*
X0033800Y0247450D01*
X0033800Y0243450D01*
X0034600Y0242650D01*
X0033800Y0241850D01*
X0033800Y0203450D01*
X0038600Y0198650D01*
X0063400Y0198650D01*
X0070600Y0196250D02*
X0081800Y0207450D01*
X0081800Y0209850D01*
X0085000Y0213050D01*
X0087400Y0213050D01*
X0091400Y0217050D01*
X0091400Y0223450D01*
X0095400Y0227450D01*
X0096000Y0227650D01*
X0100200Y0230650D02*
X0100200Y0193850D01*
X0105800Y0188250D01*
X0106000Y0187650D01*
X0101800Y0197850D02*
X0141800Y0157850D01*
X0141800Y0152250D01*
X0145800Y0148250D01*
X0146000Y0147650D01*
X0146000Y0137650D02*
X0145800Y0137050D01*
X0136200Y0127450D01*
X0136200Y0076250D01*
X0135400Y0075450D01*
X0135400Y0048250D01*
X0152200Y0031450D01*
X0151400Y0030650D01*
X0146600Y0030650D01*
X0144200Y0028250D01*
X0143500Y0027650D01*
X0153500Y0027650D02*
X0153800Y0028250D01*
X0153800Y0032250D01*
X0137800Y0048250D01*
X0137800Y0073850D01*
X0141800Y0077850D01*
X0141800Y0113050D01*
X0145800Y0117050D01*
X0146000Y0117650D01*
X0151400Y0116250D02*
X0154600Y0113050D01*
X0171400Y0113050D01*
X0176000Y0117650D01*
X0177800Y0112250D02*
X0173000Y0112250D01*
X0169000Y0108250D01*
X0166600Y0108250D01*
X0166000Y0107650D01*
X0160200Y0103450D02*
X0156000Y0107650D01*
X0160200Y0103450D02*
X0186600Y0103450D01*
X0189800Y0100250D01*
X0201000Y0100250D01*
X0205800Y0105050D01*
X0206000Y0105150D01*
X0205800Y0109850D02*
X0202600Y0109850D01*
X0201800Y0109050D01*
X0201000Y0109050D01*
X0200200Y0108250D01*
X0191400Y0108250D01*
X0187400Y0112250D01*
X0183400Y0112250D01*
X0181000Y0109850D01*
X0180200Y0109850D01*
X0177800Y0112250D01*
X0177800Y0101850D02*
X0160200Y0101850D01*
X0156000Y0097650D01*
X0155400Y0093050D02*
X0171400Y0093050D01*
X0176000Y0097650D01*
X0177800Y0101850D02*
X0180200Y0099450D01*
X0180200Y0097050D01*
X0184200Y0093050D01*
X0187400Y0093050D01*
X0190600Y0096250D01*
X0190600Y0097050D01*
X0192200Y0098650D01*
X0202600Y0098650D01*
X0205800Y0095450D01*
X0206000Y0095150D01*
X0206000Y0090150D02*
X0205800Y0089850D01*
X0202600Y0086650D01*
X0202600Y0085050D01*
X0201000Y0083450D01*
X0170600Y0083450D01*
X0166600Y0087450D01*
X0166000Y0087650D01*
X0161800Y0081850D02*
X0156000Y0087650D01*
X0151400Y0089050D02*
X0155400Y0093050D01*
X0151400Y0089050D02*
X0151400Y0066650D01*
X0148200Y0063450D01*
X0145800Y0063450D01*
X0141800Y0059450D01*
X0141800Y0055450D01*
X0144200Y0053050D01*
X0146600Y0053050D01*
X0150600Y0049050D01*
X0150600Y0046650D01*
X0160200Y0037050D01*
X0183400Y0037050D01*
X0191400Y0029050D01*
X0209000Y0029050D01*
X0221800Y0041850D01*
X0221800Y0071450D01*
X0217000Y0076250D01*
X0217000Y0081050D01*
X0216200Y0081850D01*
X0216200Y0082650D01*
X0217000Y0083450D01*
X0217000Y0085850D01*
X0216200Y0086650D01*
X0216200Y0088250D01*
X0217000Y0089050D01*
X0217000Y0091450D01*
X0213800Y0094650D01*
X0213500Y0095150D01*
X0206000Y0085150D02*
X0205800Y0085050D01*
X0202600Y0081850D01*
X0161800Y0081850D01*
X0160200Y0072250D02*
X0156200Y0068250D01*
X0156000Y0067650D01*
X0153800Y0061850D02*
X0159400Y0061850D01*
X0160200Y0061050D01*
X0163400Y0061050D01*
X0165800Y0063450D01*
X0171400Y0063450D01*
X0175400Y0067450D01*
X0176000Y0067650D01*
X0170600Y0061850D02*
X0166600Y0057850D01*
X0166000Y0057650D01*
X0170600Y0061850D02*
X0188200Y0061850D01*
X0189800Y0060250D01*
X0205800Y0060250D01*
X0206000Y0060150D01*
X0209000Y0065850D02*
X0209000Y0043450D01*
X0205800Y0040250D01*
X0167400Y0040250D01*
X0160200Y0047450D01*
X0160200Y0049850D01*
X0157000Y0053050D01*
X0154600Y0053050D01*
X0151400Y0056250D01*
X0151400Y0059450D01*
X0153800Y0061850D01*
X0156000Y0057650D02*
X0156200Y0057050D01*
X0160200Y0053050D01*
X0187400Y0053050D01*
X0189000Y0054650D01*
X0205800Y0054650D01*
X0206000Y0055150D01*
X0206000Y0050150D02*
X0205800Y0049850D01*
X0194600Y0049850D01*
X0188200Y0043450D01*
X0170600Y0043450D01*
X0166600Y0047450D01*
X0166000Y0047650D01*
X0164200Y0040250D02*
X0165800Y0038650D01*
X0206600Y0038650D01*
X0210600Y0042650D01*
X0210600Y0062650D01*
X0213000Y0065050D01*
X0213500Y0065150D01*
X0209000Y0065850D02*
X0213000Y0069850D01*
X0213500Y0070150D01*
X0213800Y0074650D02*
X0213500Y0075150D01*
X0213800Y0074650D02*
X0216200Y0074650D01*
X0220200Y0070650D01*
X0220200Y0042650D01*
X0209000Y0031450D01*
X0197800Y0031450D01*
X0201800Y0036250D02*
X0206600Y0036250D01*
X0212200Y0041850D01*
X0216200Y0041850D01*
X0206000Y0070150D02*
X0205800Y0070650D01*
X0200200Y0070650D01*
X0197000Y0073850D01*
X0188200Y0073850D01*
X0186600Y0072250D01*
X0160200Y0072250D01*
X0151400Y0116250D02*
X0151400Y0169050D01*
X0154600Y0172250D01*
X0157000Y0172250D01*
X0160200Y0175450D01*
X0160200Y0177850D01*
X0164200Y0181850D01*
X0166600Y0181850D01*
X0170600Y0185850D01*
X0170600Y0188250D01*
X0179400Y0197050D01*
X0210600Y0197050D01*
X0217000Y0190650D01*
X0217000Y0134650D01*
X0216200Y0133850D01*
X0216200Y0132250D01*
X0217000Y0131450D01*
X0217000Y0129050D01*
X0216200Y0128250D01*
X0216200Y0127450D01*
X0217000Y0126650D01*
X0217000Y0123450D01*
X0213800Y0120250D01*
X0213500Y0120150D01*
X0206000Y0120150D02*
X0205800Y0119450D01*
X0202600Y0116250D01*
X0202600Y0113850D01*
X0203400Y0113050D01*
X0203400Y0112250D01*
X0202600Y0111450D01*
X0201800Y0111450D01*
X0201000Y0110650D01*
X0200200Y0110650D01*
X0199400Y0109850D01*
X0196200Y0109850D01*
X0190600Y0115450D01*
X0190600Y0119450D01*
X0188200Y0121850D01*
X0160200Y0121850D01*
X0156000Y0117650D01*
X0166000Y0127650D02*
X0166600Y0127450D01*
X0170600Y0123450D01*
X0188200Y0123450D01*
X0190600Y0125850D01*
X0190600Y0128250D01*
X0195400Y0133050D01*
X0197000Y0133050D01*
X0197800Y0133850D01*
X0202600Y0133850D01*
X0205800Y0130650D01*
X0206000Y0130150D01*
X0206000Y0135150D02*
X0205800Y0135450D01*
X0197000Y0135450D01*
X0196200Y0134650D01*
X0194600Y0134650D01*
X0190600Y0130650D01*
X0189000Y0130650D01*
X0186600Y0133050D01*
X0160200Y0133050D01*
X0156200Y0137050D01*
X0156000Y0137650D01*
X0161800Y0141850D02*
X0156000Y0147650D01*
X0160200Y0153050D02*
X0156200Y0157050D01*
X0156000Y0157650D01*
X0160200Y0153050D02*
X0186600Y0153050D01*
X0189800Y0149850D01*
X0192200Y0149850D01*
X0197800Y0155450D01*
X0205800Y0155450D01*
X0206000Y0155150D01*
X0202600Y0153850D02*
X0198600Y0153850D01*
X0188200Y0143450D01*
X0170600Y0143450D01*
X0166600Y0147450D01*
X0166000Y0147650D01*
X0161800Y0141850D02*
X0189000Y0141850D01*
X0199400Y0152250D01*
X0201800Y0152250D01*
X0202600Y0151450D01*
X0202600Y0149050D01*
X0205800Y0145850D01*
X0206000Y0145150D01*
X0206000Y0150150D02*
X0205800Y0150650D01*
X0202600Y0153850D01*
X0205800Y0160250D02*
X0206000Y0160150D01*
X0205800Y0160250D02*
X0201000Y0165050D01*
X0201000Y0167450D01*
X0200200Y0168250D01*
X0195400Y0168250D01*
X0189000Y0161850D01*
X0170600Y0161850D01*
X0166600Y0157850D01*
X0166000Y0157650D01*
X0160200Y0163450D02*
X0156000Y0167650D01*
X0160200Y0163450D02*
X0188200Y0163450D01*
X0194600Y0169850D01*
X0205800Y0169850D01*
X0206000Y0170150D01*
X0202600Y0173050D02*
X0202600Y0191450D01*
X0204200Y0193050D01*
X0207400Y0193050D01*
X0209000Y0191450D01*
X0209000Y0165050D01*
X0211400Y0162650D01*
X0210600Y0161850D01*
X0210600Y0143450D01*
X0211400Y0142650D01*
X0210600Y0141850D01*
X0210600Y0137850D01*
X0213000Y0135450D01*
X0213500Y0135150D01*
X0206000Y0110150D02*
X0205800Y0109850D01*
X0186000Y0167650D02*
X0195400Y0177050D01*
X0195400Y0193050D01*
X0187400Y0195450D02*
X0180200Y0188250D01*
X0180200Y0181850D01*
X0176000Y0177650D01*
X0187400Y0195450D02*
X0207400Y0195450D01*
X0210600Y0192250D01*
X0210600Y0177850D01*
X0213000Y0175450D01*
X0213500Y0175150D01*
X0211400Y0198650D02*
X0158600Y0198650D01*
X0150600Y0206650D01*
X0150600Y0209050D01*
X0146600Y0213050D01*
X0144200Y0213050D01*
X0141800Y0215450D01*
X0141800Y0249850D01*
X0145000Y0253050D01*
X0147400Y0253050D01*
X0151400Y0257050D01*
X0151400Y0269050D01*
X0155400Y0273050D01*
X0171400Y0273050D01*
X0176000Y0277650D01*
X0170600Y0281850D02*
X0166600Y0277850D01*
X0166000Y0277650D01*
X0170600Y0281850D02*
X0188200Y0281850D01*
X0194600Y0275450D01*
X0205800Y0275450D01*
X0206000Y0275150D01*
X0210600Y0282650D02*
X0210600Y0202650D01*
X0208200Y0200250D01*
X0167400Y0200250D01*
X0160200Y0207450D01*
X0160200Y0209850D01*
X0157000Y0213050D01*
X0154600Y0213050D01*
X0151400Y0216250D01*
X0151400Y0249050D01*
X0155400Y0253050D01*
X0159400Y0253050D01*
X0162600Y0253050D02*
X0158600Y0257050D01*
X0156200Y0257050D01*
X0156000Y0257650D01*
X0160200Y0263450D02*
X0156000Y0267650D01*
X0160200Y0263450D02*
X0188200Y0263450D01*
X0189800Y0265050D01*
X0205800Y0265050D01*
X0206000Y0265150D01*
X0205800Y0260250D02*
X0206000Y0260150D01*
X0205800Y0260250D02*
X0189800Y0260250D01*
X0188200Y0261850D01*
X0170600Y0261850D01*
X0166600Y0257850D01*
X0166000Y0257650D01*
X0162600Y0253050D02*
X0187400Y0253050D01*
X0189000Y0254650D01*
X0205800Y0254650D01*
X0206000Y0255150D01*
X0201000Y0251450D02*
X0201000Y0248250D01*
X0202600Y0246650D01*
X0202600Y0244250D01*
X0203400Y0243450D01*
X0203400Y0242650D01*
X0202600Y0241850D01*
X0202600Y0238650D01*
X0205800Y0235450D01*
X0206000Y0235150D01*
X0206000Y0225150D02*
X0205800Y0225050D01*
X0203400Y0222650D01*
X0203400Y0221850D01*
X0202600Y0221050D01*
X0202600Y0220250D01*
X0199400Y0217050D01*
X0193000Y0217050D01*
X0188200Y0221850D01*
X0183400Y0221850D01*
X0181800Y0223450D01*
X0170600Y0223450D01*
X0166600Y0227450D01*
X0166000Y0227650D01*
X0156000Y0217650D02*
X0156200Y0217050D01*
X0160200Y0213050D01*
X0187400Y0213050D01*
X0189800Y0215450D01*
X0200200Y0215450D01*
X0201800Y0217050D01*
X0203400Y0215450D01*
X0205800Y0215450D01*
X0206000Y0215150D01*
X0206000Y0210150D02*
X0205800Y0209850D01*
X0201800Y0209850D01*
X0200200Y0208250D01*
X0200200Y0207450D01*
X0196200Y0203450D01*
X0170600Y0203450D01*
X0166600Y0207450D01*
X0166000Y0207650D01*
X0153800Y0200250D02*
X0146600Y0207450D01*
X0146000Y0207650D01*
X0150600Y0197050D02*
X0128200Y0219450D01*
X0128200Y0367450D01*
X0131400Y0370650D01*
X0132200Y0370650D01*
X0132200Y0373850D02*
X0126600Y0368250D01*
X0126600Y0221050D01*
X0121800Y0216250D01*
X0121800Y0212250D01*
X0145800Y0188250D01*
X0146000Y0187650D01*
X0125000Y0226650D02*
X0106000Y0207650D01*
X0101800Y0197850D02*
X0101800Y0229850D01*
X0104200Y0232250D01*
X0106600Y0232250D01*
X0120200Y0245850D01*
X0120200Y0352250D01*
X0112200Y0360250D02*
X0101800Y0349850D01*
X0101800Y0275450D01*
X0105000Y0272250D01*
X0107400Y0272250D01*
X0114600Y0265050D01*
X0114600Y0249850D01*
X0106600Y0241850D01*
X0104200Y0241850D01*
X0101800Y0239450D01*
X0101800Y0232250D01*
X0100200Y0230650D01*
X0085800Y0237050D02*
X0086000Y0237650D01*
X0085800Y0237050D02*
X0081800Y0233050D01*
X0075400Y0233050D01*
X0071400Y0229050D01*
X0071400Y0226650D01*
X0068200Y0223450D01*
X0065800Y0223450D01*
X0061800Y0219450D01*
X0061800Y0216250D01*
X0047400Y0201850D01*
X0045000Y0201850D01*
X0042600Y0204250D01*
X0042600Y0210650D01*
X0041000Y0212250D01*
X0041000Y0213050D01*
X0041800Y0213850D01*
X0041800Y0216250D01*
X0041000Y0217050D01*
X0041000Y0217850D01*
X0041800Y0218650D01*
X0041800Y0221050D01*
X0041000Y0221850D01*
X0041000Y0222650D01*
X0041800Y0223450D01*
X0041800Y0225850D01*
X0041000Y0226650D01*
X0041000Y0227450D01*
X0041800Y0228250D01*
X0041800Y0231450D01*
X0038600Y0234650D01*
X0038500Y0235150D01*
X0035400Y0249850D02*
X0035400Y0257050D01*
X0038500Y0260150D01*
X0038500Y0275150D02*
X0038600Y0275450D01*
X0042600Y0279450D01*
X0042600Y0351450D01*
X0044200Y0353050D01*
X0054600Y0353050D01*
X0058600Y0357850D02*
X0047400Y0357850D01*
X0046600Y0350650D02*
X0046000Y0350150D01*
X0046600Y0350650D02*
X0062600Y0350650D01*
X0064200Y0352250D01*
X0071400Y0352250D01*
X0076000Y0347650D01*
X0080200Y0349850D02*
X0080200Y0317050D01*
X0085000Y0312250D01*
X0087400Y0312250D01*
X0091400Y0308250D01*
X0091400Y0301850D01*
X0095400Y0297850D01*
X0096000Y0297650D01*
X0106000Y0297650D02*
X0106600Y0297850D01*
X0110600Y0301850D01*
X0110600Y0312250D01*
X0096000Y0317650D02*
X0095400Y0317850D01*
X0091400Y0321850D01*
X0091400Y0328250D01*
X0087400Y0332250D01*
X0085000Y0332250D01*
X0081800Y0335450D01*
X0081800Y0352250D01*
X0080200Y0349850D02*
X0074600Y0355450D01*
X0039400Y0355450D01*
X0035400Y0351450D01*
X0035400Y0304250D01*
X0037800Y0301850D01*
X0037800Y0300250D01*
X0038500Y0300150D01*
X0046000Y0310150D02*
X0046600Y0310650D01*
X0062600Y0310650D01*
X0064200Y0312250D01*
X0071400Y0312250D01*
X0076000Y0307650D01*
X0071400Y0323450D02*
X0065800Y0323450D01*
X0054600Y0312250D01*
X0049800Y0312250D01*
X0049000Y0313050D01*
X0049000Y0321850D01*
X0048200Y0322650D01*
X0048200Y0323450D01*
X0046600Y0325050D01*
X0046000Y0325150D01*
X0071400Y0323450D02*
X0075400Y0327450D01*
X0076000Y0327650D01*
X0090600Y0344250D02*
X0090600Y0348250D01*
X0094600Y0352250D01*
X0097800Y0352250D01*
X0111400Y0365850D01*
X0111400Y0369050D01*
X0109800Y0370650D01*
X0108200Y0370650D01*
X0104200Y0374650D01*
X0103500Y0375150D01*
X0097800Y0378650D02*
X0110600Y0378650D01*
X0112200Y0380250D01*
X0120200Y0380250D01*
X0121800Y0378650D01*
X0119400Y0376250D01*
X0119400Y0374650D01*
X0125000Y0369050D01*
X0125000Y0226650D01*
X0112200Y0257850D02*
X0107400Y0262650D01*
X0073000Y0262650D01*
X0100200Y0271450D02*
X0100200Y0351450D01*
X0114600Y0365850D01*
X0122600Y0368250D02*
X0122600Y0273850D01*
X0146000Y0287650D02*
X0150600Y0292250D01*
X0150600Y0309050D01*
X0147400Y0312250D01*
X0145000Y0312250D01*
X0141800Y0315450D01*
X0141800Y0333050D01*
X0137000Y0334650D02*
X0137000Y0318650D01*
X0139400Y0316250D01*
X0135400Y0317050D02*
X0144200Y0308250D01*
X0145800Y0308250D01*
X0146000Y0307650D01*
X0146000Y0297650D02*
X0133000Y0310650D01*
X0133000Y0343450D01*
X0145000Y0355450D01*
X0153800Y0355450D01*
X0163400Y0365050D01*
X0163400Y0367450D01*
X0163500Y0367650D01*
X0161000Y0372250D02*
X0135400Y0372250D01*
X0133800Y0373850D01*
X0132200Y0373850D01*
X0134600Y0375450D02*
X0121800Y0375450D01*
X0134600Y0375450D02*
X0136200Y0373850D01*
X0139400Y0373850D01*
X0140200Y0374650D01*
X0143400Y0374650D01*
X0143500Y0375150D01*
X0141800Y0370650D02*
X0135400Y0364250D01*
X0135400Y0361050D01*
X0141800Y0370650D02*
X0184200Y0370650D01*
X0188200Y0374650D01*
X0188500Y0375150D01*
X0191400Y0376250D02*
X0189000Y0378650D01*
X0187400Y0378650D01*
X0184200Y0375450D01*
X0183500Y0375150D01*
X0191400Y0376250D02*
X0191400Y0365850D01*
X0185000Y0359450D01*
X0162600Y0359450D01*
X0155400Y0352250D01*
X0154600Y0352250D01*
X0150600Y0348250D01*
X0150600Y0345850D01*
X0146600Y0341850D01*
X0144200Y0341850D01*
X0137000Y0334650D01*
X0135400Y0343450D02*
X0135400Y0317050D01*
X0151400Y0336250D02*
X0155400Y0332250D01*
X0157800Y0332250D01*
X0161800Y0328250D01*
X0161800Y0325850D01*
X0165800Y0321850D01*
X0171400Y0321850D01*
X0175400Y0317850D01*
X0176000Y0317650D01*
X0170600Y0323450D02*
X0166600Y0327450D01*
X0166000Y0327650D01*
X0170600Y0323450D02*
X0188200Y0323450D01*
X0189800Y0325050D01*
X0205800Y0325050D01*
X0206000Y0325150D01*
X0206000Y0315150D02*
X0205800Y0314650D01*
X0189000Y0314650D01*
X0187400Y0313050D01*
X0160200Y0313050D01*
X0156200Y0317050D01*
X0156000Y0317650D01*
X0156000Y0307650D02*
X0160200Y0303450D01*
X0188200Y0303450D01*
X0191400Y0306650D01*
X0195400Y0306650D01*
X0196200Y0305850D01*
X0205800Y0305850D01*
X0206000Y0305150D01*
X0206000Y0300150D02*
X0205800Y0299450D01*
X0190600Y0299450D01*
X0188200Y0301850D01*
X0170600Y0301850D01*
X0166600Y0297850D01*
X0166000Y0297650D01*
X0160200Y0293050D02*
X0156200Y0297050D01*
X0156000Y0297650D01*
X0160200Y0293050D02*
X0187400Y0293050D01*
X0192200Y0297850D01*
X0197000Y0297850D01*
X0199400Y0295450D01*
X0205800Y0295450D01*
X0206000Y0295150D01*
X0209000Y0290650D02*
X0209000Y0203450D01*
X0207400Y0201850D01*
X0205000Y0201850D01*
X0202600Y0204250D01*
X0202600Y0207450D01*
X0211400Y0198650D02*
X0217000Y0204250D01*
X0217000Y0242650D01*
X0201000Y0251450D02*
X0200200Y0252250D01*
X0197000Y0252250D01*
X0186600Y0241850D01*
X0160200Y0241850D01*
X0156000Y0237650D01*
X0160200Y0283450D02*
X0156000Y0287650D01*
X0160200Y0283450D02*
X0188200Y0283450D01*
X0190600Y0285850D01*
X0205800Y0285850D01*
X0206000Y0285150D01*
X0210600Y0282650D02*
X0213000Y0285050D01*
X0213500Y0285150D01*
X0216200Y0283450D02*
X0217000Y0284250D01*
X0217000Y0286650D01*
X0216200Y0287450D01*
X0216200Y0288250D01*
X0217000Y0289050D01*
X0217000Y0291450D01*
X0216200Y0292250D01*
X0216200Y0293850D01*
X0217000Y0294650D01*
X0217000Y0296250D01*
X0216200Y0297050D01*
X0216200Y0298650D01*
X0217000Y0299450D01*
X0217000Y0301850D01*
X0216200Y0302650D01*
X0216200Y0303450D01*
X0217000Y0304250D01*
X0217000Y0306650D01*
X0216200Y0307450D01*
X0216200Y0308250D01*
X0217000Y0309050D01*
X0217000Y0350650D01*
X0209800Y0357850D01*
X0207400Y0357850D01*
X0207400Y0361050D02*
X0206600Y0361850D01*
X0193800Y0361850D01*
X0195400Y0360250D02*
X0197000Y0360250D01*
X0198600Y0358650D01*
X0198600Y0357050D01*
X0196200Y0354650D01*
X0176200Y0354650D01*
X0171400Y0349850D01*
X0176200Y0348250D02*
X0176000Y0347650D01*
X0176200Y0348250D02*
X0181000Y0353050D01*
X0207400Y0353050D01*
X0209000Y0351450D01*
X0209000Y0349850D01*
X0213000Y0345850D01*
X0213500Y0345150D01*
X0206000Y0350150D02*
X0205800Y0349850D01*
X0194600Y0349850D01*
X0188200Y0343450D01*
X0170600Y0343450D01*
X0166600Y0347450D01*
X0166000Y0347650D01*
X0160200Y0348250D02*
X0169000Y0357050D01*
X0176200Y0357050D01*
X0168500Y0367650D02*
X0168200Y0367450D01*
X0154600Y0353850D01*
X0145800Y0353850D01*
X0135400Y0343450D01*
X0151400Y0339450D02*
X0151400Y0336250D01*
X0151400Y0339450D02*
X0153800Y0341850D01*
X0156200Y0341850D01*
X0160200Y0345850D01*
X0160200Y0348250D01*
X0156000Y0337650D02*
X0156200Y0337050D01*
X0160200Y0333050D01*
X0187400Y0333050D01*
X0189000Y0334650D01*
X0205800Y0334650D01*
X0206000Y0335150D01*
X0219400Y0317850D02*
X0219400Y0357850D01*
X0213000Y0364250D01*
X0193000Y0364250D01*
X0191400Y0362650D01*
X0191400Y0361050D01*
X0193000Y0359450D01*
X0194600Y0359450D01*
X0195400Y0360250D01*
X0207400Y0361050D02*
X0213000Y0361050D01*
X0213500Y0295150D02*
X0209000Y0290650D01*
X0216200Y0283450D02*
X0216200Y0282650D01*
X0217000Y0281850D01*
X0217000Y0278650D01*
X0213500Y0275150D01*
X0161000Y0372250D02*
X0163400Y0374650D01*
X0163500Y0375150D01*
X0097800Y0378650D02*
X0097000Y0377850D01*
X0095400Y0377850D01*
X0094600Y0378650D01*
X0093000Y0378650D01*
X0092200Y0377850D01*
X0090600Y0377850D01*
X0089800Y0378650D01*
X0087400Y0378650D01*
X0084200Y0375450D01*
X0083500Y0375150D01*
X0031400Y0212250D02*
X0031400Y0203450D01*
X0038600Y0196250D01*
X0070600Y0196250D01*
X0068200Y0181850D02*
X0065800Y0181850D01*
X0053000Y0194650D01*
X0038600Y0194650D01*
X0033000Y0189050D01*
X0033000Y0181850D01*
X0035400Y0179450D01*
X0035400Y0169050D01*
X0036200Y0168250D01*
X0036200Y0167450D01*
X0035400Y0166650D01*
X0035400Y0164250D01*
X0036200Y0163450D01*
X0036200Y0162650D01*
X0035400Y0161850D01*
X0035400Y0158650D01*
X0036200Y0157850D01*
X0036200Y0157050D01*
X0037800Y0155450D01*
X0038500Y0155150D01*
X0038500Y0180150D02*
X0042600Y0184250D01*
X0042600Y0191450D01*
X0044200Y0193050D01*
X0047400Y0193050D01*
X0061800Y0178650D01*
X0061800Y0175450D01*
X0065000Y0172250D01*
X0067400Y0172250D01*
X0071400Y0168250D01*
X0071400Y0165850D01*
X0075400Y0161850D01*
X0077800Y0161850D01*
X0081800Y0157850D01*
X0081800Y0155450D01*
X0084200Y0153050D01*
X0087400Y0153050D01*
X0091400Y0157050D01*
X0091400Y0159450D01*
X0095400Y0163450D01*
X0097800Y0163450D01*
X0100200Y0165850D01*
X0100200Y0173050D01*
X0096200Y0177050D01*
X0096000Y0177650D01*
X0081800Y0161850D02*
X0086000Y0157650D01*
X0081800Y0161850D02*
X0081800Y0168250D01*
X0077800Y0172250D01*
X0075400Y0172250D01*
X0071400Y0176250D01*
X0071400Y0178650D01*
X0068200Y0181850D01*
X0086000Y0127650D02*
X0086600Y0127450D01*
X0090600Y0123450D01*
X0096200Y0123450D01*
X0100200Y0119450D01*
X0100200Y0117050D01*
X0104200Y0113050D01*
X0106600Y0113050D01*
X0110600Y0109050D01*
X0110600Y0097850D01*
X0117800Y0090650D01*
X0117800Y0024250D01*
X0106600Y0013050D01*
X0061800Y0013050D01*
X0057000Y0017850D01*
X0053800Y0017850D01*
X0051400Y0020250D01*
X0042600Y0020250D01*
X0026600Y0036250D01*
X0026600Y0055450D01*
X0032200Y0061050D01*
X0032200Y0117850D01*
X0037800Y0123450D01*
X0037800Y0125050D01*
X0038500Y0125150D01*
X0038500Y0105150D02*
X0037800Y0105050D01*
X0037800Y0103450D01*
X0033800Y0099450D01*
X0033800Y0060250D01*
X0028200Y0054650D01*
X0028200Y0037050D01*
X0043400Y0021850D01*
X0052200Y0021850D01*
X0054600Y0019450D01*
X0057800Y0019450D01*
X0062600Y0014650D01*
X0105800Y0014650D01*
X0116200Y0025050D01*
X0116200Y0083450D01*
X0106600Y0093050D01*
X0104200Y0093050D01*
X0100200Y0097050D01*
X0100200Y0099450D01*
X0096200Y0103450D01*
X0090600Y0103450D01*
X0086600Y0107450D01*
X0086000Y0107650D01*
X0086600Y0103450D02*
X0084200Y0103450D01*
X0081800Y0105850D01*
X0081800Y0109850D01*
X0084200Y0112250D01*
X0101800Y0112250D01*
X0105800Y0108250D01*
X0106000Y0107650D01*
X0090600Y0099450D02*
X0086600Y0103450D01*
X0090600Y0099450D02*
X0090600Y0077050D01*
X0094600Y0073050D01*
X0097000Y0073050D01*
X0100200Y0069850D01*
X0100200Y0067450D01*
X0104200Y0063450D01*
X0106600Y0063450D01*
X0110600Y0059450D01*
X0110600Y0045850D01*
X0108200Y0043450D01*
X0106600Y0043450D01*
X0093800Y0030650D01*
X0093800Y0028250D01*
X0093500Y0027650D01*
X0085000Y0030650D02*
X0101800Y0047450D01*
X0101800Y0053050D01*
X0105800Y0057050D01*
X0106000Y0057650D01*
X0100200Y0059450D02*
X0100200Y0055450D01*
X0097800Y0053050D01*
X0095400Y0053050D01*
X0091400Y0049050D01*
X0091400Y0046650D01*
X0088200Y0043450D01*
X0081000Y0043450D01*
X0069000Y0031450D01*
X0071400Y0030650D02*
X0069000Y0028250D01*
X0068500Y0027650D01*
X0071400Y0030650D02*
X0085000Y0030650D01*
X0091400Y0053050D02*
X0096000Y0057650D01*
X0100200Y0059450D02*
X0096200Y0063450D01*
X0093800Y0063450D01*
X0090600Y0066650D01*
X0090600Y0069050D01*
X0086600Y0073050D01*
X0084200Y0073050D01*
X0081800Y0075450D01*
X0081800Y0102650D01*
X0096000Y0077650D02*
X0096200Y0077050D01*
X0100200Y0073050D01*
X0106600Y0073050D01*
X0114600Y0065050D01*
X0114600Y0025850D01*
X0105000Y0016250D01*
X0063400Y0016250D01*
X0058600Y0021050D01*
X0055400Y0021050D01*
X0051400Y0025050D01*
X0042600Y0025050D01*
X0030600Y0037050D01*
X0030600Y0038650D01*
X0033800Y0043450D02*
X0039400Y0037850D01*
X0039400Y0040250D02*
X0052200Y0040250D01*
X0065000Y0053050D01*
X0091400Y0053050D01*
X0045000Y0041850D02*
X0041800Y0045050D01*
X0041800Y0067450D01*
X0038500Y0060150D02*
X0035400Y0057050D01*
X0035400Y0044250D01*
X0039400Y0040250D01*
X0033800Y0043450D02*
X0033800Y0057850D01*
X0035400Y0059450D01*
X0035400Y0081050D01*
X0037800Y0083450D01*
X0037800Y0085050D01*
X0038500Y0085150D01*
D14*
X0041800Y0067450D03*
X0045000Y0037850D03*
X0049000Y0036250D03*
X0045800Y0028250D03*
X0037800Y0033050D03*
X0030600Y0038650D03*
X0049800Y0016250D03*
X0069000Y0031450D03*
X0097800Y0031450D03*
X0109000Y0031450D03*
X0112200Y0037050D03*
X0128200Y0010650D03*
X0136200Y0024250D03*
X0113800Y0005050D03*
X0140200Y0069050D03*
X0138600Y0077850D03*
X0133800Y0077050D03*
X0117000Y0108250D03*
X0110600Y0092250D03*
X0112200Y0074650D03*
X0081800Y0102650D03*
X0115400Y0128250D03*
X0137800Y0176250D03*
X0129000Y0181850D03*
X0145000Y0197850D03*
X0150600Y0197050D03*
X0153800Y0200250D03*
X0138600Y0216250D03*
X0137800Y0245050D03*
X0138600Y0252250D03*
X0149000Y0262650D03*
X0159400Y0253050D03*
X0136200Y0297850D03*
X0139400Y0316250D03*
X0141800Y0333050D03*
X0135400Y0361050D03*
X0137800Y0363450D03*
X0132200Y0370650D03*
X0122600Y0368250D03*
X0121800Y0375450D03*
X0114600Y0365850D03*
X0112200Y0360250D03*
X0120200Y0352250D03*
X0110600Y0312250D03*
X0113000Y0310650D03*
X0090600Y0344250D03*
X0084200Y0353850D03*
X0081800Y0352250D03*
X0079400Y0363450D03*
X0073000Y0342650D03*
X0058600Y0357850D03*
X0054600Y0353050D03*
X0047400Y0357850D03*
X0049000Y0364250D03*
X0051400Y0369050D03*
X0027400Y0321050D03*
X0053000Y0281850D03*
X0061800Y0291450D03*
X0057800Y0265050D03*
X0060200Y0247450D03*
X0073000Y0262650D03*
X0081000Y0304250D03*
X0100200Y0271450D03*
X0112200Y0257850D03*
X0117800Y0254650D03*
X0122600Y0273850D03*
X0114600Y0229050D03*
X0089800Y0202650D03*
X0061000Y0193050D03*
X0031400Y0212250D03*
X0031400Y0221850D03*
X0024200Y0097050D03*
X0021800Y0094650D03*
X0161000Y0063450D03*
X0164200Y0040250D03*
X0192200Y0057850D03*
X0197000Y0065050D03*
X0202600Y0042650D03*
X0201800Y0036250D03*
X0204200Y0033850D03*
X0205000Y0024250D03*
X0197800Y0031450D03*
X0216200Y0041850D03*
X0219400Y0036250D03*
X0228200Y0045050D03*
X0231400Y0030650D03*
X0227400Y0094650D03*
X0194600Y0102650D03*
X0202600Y0173050D03*
X0193000Y0190650D03*
X0195400Y0193050D03*
X0202600Y0207450D03*
X0217000Y0242650D03*
X0197000Y0245850D03*
X0196200Y0277850D03*
X0197000Y0308250D03*
X0193000Y0322650D03*
X0193000Y0344250D03*
X0202600Y0347450D03*
X0207400Y0357850D03*
X0213000Y0361050D03*
X0207400Y0366650D03*
X0193800Y0361850D03*
X0192200Y0378650D03*
X0176200Y0357050D03*
X0171400Y0349850D03*
X0145000Y0388250D03*
X0161000Y0301050D03*
X0219400Y0317850D03*
M02*
